<svg xmlns="http://www.w3.org/2000/svg" viewBox="0 0 760 2580" font-family="ui-sans-serif,system-ui,Segoe UI,Roboto,sans-serif" role="img" aria-label="Dendrogram">
<rect width="760" height="2580" rx="14" fill="#0b1220"/>
<text x="28" y="30" fill="#cbd5e1" font-size="18" font-weight="700">Capability dendrogram (average-linkage, Euclidean 9-axis)</text><text x="28" y="50" fill="#7c8aa5" font-size="12">leaves grouped by capability-shape similarity; join depth = merge distance.</text><text x="598" y="84" fill="#f59e0b" font-size="10" font-weight="700">COSMOGONIC</text><text x="598" y="106" fill="#cbd5e1" font-size="10" font-weight="400">OpenWorm</text><text x="598" y="128" fill="#cbd5e1" font-size="10" font-weight="400">NerveNet</text><path d="M301.79607953067176 103 H590" stroke="#34d399" stroke-width="1.3" fill="none" opacity="0.85"/><path d="M301.79607953067176 125 H590" stroke="#34d399" stroke-width="1.3" fill="none" opacity="0.85"/><path d="M301.79607953067176 103 V125" stroke="#34d399" stroke-width="1.3" fill="none" opacity="0.85"/><text x="598" y="150" fill="#cbd5e1" font-size="10" font-weight="400">The AI Scientist</text><text x="598" y="172" fill="#cbd5e1" font-size="10" font-weight="400">POET</text><text x="598" y="194" fill="#cbd5e1" font-size="10" font-weight="400">OMNI (Open-endedness via Models of human Notions of Interestingness)</text><path d="M590 169 H590" stroke="#34d399" stroke-width="1.3" fill="none" opacity="0.85"/><path d="M590 191 H590" stroke="#34d399" stroke-width="1.3" fill="none" opacity="0.85"/><path d="M590 169 V191" stroke="#34d399" stroke-width="1.3" fill="none" opacity="0.85"/><text x="598" y="216" fill="#cbd5e1" font-size="10" font-weight="400">Go-Explore</text><text x="598" y="238" fill="#cbd5e1" font-size="10" font-weight="400">Voyager (Minecraft LLM agent)</text><path d="M456.587508798123 213 H590" stroke="#34d399" stroke-width="1.3" fill="none" opacity="0.85"/><path d="M456.587508798123 235 H590" stroke="#34d399" stroke-width="1.3" fill="none" opacity="0.85"/><path d="M456.587508798123 213 V235" stroke="#34d399" stroke-width="1.3" fill="none" opacity="0.85"/><path d="M428.95687717522367 180 H590" stroke="#34d399" stroke-width="1.3" fill="none" opacity="0.85"/><path d="M428.95687717522367 224 H456.587508798123" stroke="#34d399" stroke-width="1.3" fill="none" opacity="0.85"/><path d="M428.95687717522367 180 V224" stroke="#34d399" stroke-width="1.3" fill="none" opacity="0.85"/><path d="M397.5469475321406 147 H590" stroke="#34d399" stroke-width="1.3" fill="none" opacity="0.85"/><path d="M397.5469475321406 202 H428.95687717522367" stroke="#34d399" stroke-width="1.3" fill="none" opacity="0.85"/><path d="M397.5469475321406 147 V202" stroke="#34d399" stroke-width="1.3" fill="none" opacity="0.85"/><text x="598" y="260" fill="#cbd5e1" font-size="10" font-weight="400">ASAL</text><text x="598" y="282" fill="#cbd5e1" font-size="10" font-weight="400">OMNI-EPIC</text><path d="M372.1383141612342 257 H590" stroke="#34d399" stroke-width="1.3" fill="none" opacity="0.85"/><path d="M372.1383141612342 279 H590" stroke="#34d399" stroke-width="1.3" fill="none" opacity="0.85"/><path d="M372.1383141612342 257 V279" stroke="#34d399" stroke-width="1.3" fill="none" opacity="0.85"/><path d="M364.40881644096174 174.5 H397.5469475321406" stroke="#34d399" stroke-width="1.3" fill="none" opacity="0.85"/><path d="M364.40881644096174 268 H372.1383141612342" stroke="#34d399" stroke-width="1.3" fill="none" opacity="0.85"/><path d="M364.40881644096174 174.5 V268" stroke="#34d399" stroke-width="1.3" fill="none" opacity="0.85"/><text x="598" y="304" fill="#cbd5e1" font-size="10" font-weight="400">Promptbreeder</text><text x="598" y="326" fill="#cbd5e1" font-size="10" font-weight="400">Quality-Diversity through AI Feedback (QDAIF)</text><path d="M512.9742622913377 301 H590" stroke="#34d399" stroke-width="1.3" fill="none" opacity="0.85"/><path d="M512.9742622913377 323 H590" stroke="#34d399" stroke-width="1.3" fill="none" opacity="0.85"/><path d="M512.9742622913377 301 V323" stroke="#34d399" stroke-width="1.3" fill="none" opacity="0.85"/><text x="598" y="348" fill="#cbd5e1" font-size="10" font-weight="400">Automated Design of Agentic Systems (ADAS)</text><text x="598" y="370" fill="#cbd5e1" font-size="10" font-weight="400">Darwin Godel Machine (DGM)</text><path d="M481.0691570806171 345 H590" stroke="#34d399" stroke-width="1.3" fill="none" opacity="0.85"/><path d="M481.0691570806171 367 H590" stroke="#34d399" stroke-width="1.3" fill="none" opacity="0.85"/><path d="M481.0691570806171 345 V367" stroke="#34d399" stroke-width="1.3" fill="none" opacity="0.85"/><path d="M376.6439113441194 312 H512.9742622913377" stroke="#34d399" stroke-width="1.3" fill="none" opacity="0.85"/><path d="M376.6439113441194 356 H481.0691570806171" stroke="#34d399" stroke-width="1.3" fill="none" opacity="0.85"/><path d="M376.6439113441194 312 V356" stroke="#34d399" stroke-width="1.3" fill="none" opacity="0.85"/><text x="598" y="392" fill="#cbd5e1" font-size="10" font-weight="400">NEAT (NeuroEvolution of Augmenting Topologies)</text><text x="598" y="414" fill="#cbd5e1" font-size="10" font-weight="400">HyperNEAT</text><text x="598" y="436" fill="#cbd5e1" font-size="10" font-weight="400">ES-HyperNEAT</text><path d="M512.9742622913377 411 H590" stroke="#34d399" stroke-width="1.3" fill="none" opacity="0.85"/><path d="M512.9742622913377 433 H590" stroke="#34d399" stroke-width="1.3" fill="none" opacity="0.85"/><path d="M512.9742622913377 411 V433" stroke="#34d399" stroke-width="1.3" fill="none" opacity="0.85"/><path d="M468.82833293937006 389 H590" stroke="#34d399" stroke-width="1.3" fill="none" opacity="0.85"/><path d="M468.82833293937006 422 H512.9742622913377" stroke="#34d399" stroke-width="1.3" fill="none" opacity="0.85"/><path d="M468.82833293937006 389 V422" stroke="#34d399" stroke-width="1.3" fill="none" opacity="0.85"/><text x="598" y="458" fill="#cbd5e1" font-size="10" font-weight="400">Evolution through Large Models (ELM)</text><text x="598" y="480" fill="#cbd5e1" font-size="10" font-weight="400">MAP-Elites</text><text x="598" y="502" fill="#cbd5e1" font-size="10" font-weight="400">Quality-Diversity (illumination algorithms)</text><path d="M590 477 H590" stroke="#34d399" stroke-width="1.3" fill="none" opacity="0.85"/><path d="M590 499 H590" stroke="#34d399" stroke-width="1.3" fill="none" opacity="0.85"/><path d="M590 477 V499" stroke="#34d399" stroke-width="1.3" fill="none" opacity="0.85"/><text x="598" y="524" fill="#cbd5e1" font-size="10" font-weight="400">Novelty Search</text><text x="598" y="546" fill="#cbd5e1" font-size="10" font-weight="400">OpenELM</text><path d="M481.0691570806171 521 H590" stroke="#34d399" stroke-width="1.3" fill="none" opacity="0.85"/><path d="M481.0691570806171 543 H590" stroke="#34d399" stroke-width="1.3" fill="none" opacity="0.85"/><path d="M481.0691570806171 521 V543" stroke="#34d399" stroke-width="1.3" fill="none" opacity="0.85"/><path d="M435.9485245826755 488 H590" stroke="#34d399" stroke-width="1.3" fill="none" opacity="0.85"/><path d="M435.9485245826755 532 H481.0691570806171" stroke="#34d399" stroke-width="1.3" fill="none" opacity="0.85"/><path d="M435.9485245826755 488 V532" stroke="#34d399" stroke-width="1.3" fill="none" opacity="0.85"/><path d="M401.98713396897597 455 H590" stroke="#34d399" stroke-width="1.3" fill="none" opacity="0.85"/><path d="M401.98713396897597 510 H435.9485245826755" stroke="#34d399" stroke-width="1.3" fill="none" opacity="0.85"/><path d="M401.98713396897597 455 V510" stroke="#34d399" stroke-width="1.3" fill="none" opacity="0.85"/><path d="M376.4605946917028 405.5 H468.82833293937006" stroke="#34d399" stroke-width="1.3" fill="none" opacity="0.85"/><path d="M376.4605946917028 482.5 H401.98713396897597" stroke="#34d399" stroke-width="1.3" fill="none" opacity="0.85"/><path d="M376.4605946917028 405.5 V482.5" stroke="#34d399" stroke-width="1.3" fill="none" opacity="0.85"/><path d="M324.6251255254416 334 H376.6439113441194" stroke="#34d399" stroke-width="1.3" fill="none" opacity="0.85"/><path d="M324.6251255254416 444 H376.4605946917028" stroke="#34d399" stroke-width="1.3" fill="none" opacity="0.85"/><path d="M324.6251255254416 334 V444" stroke="#34d399" stroke-width="1.3" fill="none" opacity="0.85"/><path d="M255.7087428881085 221.25 H364.40881644096174" stroke="#34d399" stroke-width="1.3" fill="none" opacity="0.85"/><path d="M255.7087428881085 389 H324.6251255254416" stroke="#34d399" stroke-width="1.3" fill="none" opacity="0.85"/><path d="M255.7087428881085 221.25 V389" stroke="#34d399" stroke-width="1.3" fill="none" opacity="0.85"/><text x="598" y="568" fill="#cbd5e1" font-size="10" font-weight="400">DERL (Deep Evolutionary Reinforcement Learning)</text><text x="598" y="590" fill="#cbd5e1" font-size="10" font-weight="400">UNIMAL (Universal Animal design space)</text><path d="M512.9742622913377 565 H590" stroke="#34d399" stroke-width="1.3" fill="none" opacity="0.85"/><path d="M512.9742622913377 587 H590" stroke="#34d399" stroke-width="1.3" fill="none" opacity="0.85"/><path d="M512.9742622913377 565 V587" stroke="#34d399" stroke-width="1.3" fill="none" opacity="0.85"/><text x="598" y="612" fill="#cbd5e1" font-size="10" font-weight="400">Transform2Act</text><text x="598" y="634" fill="#cbd5e1" font-size="10" font-weight="400">Neural Graph Evolution (NGE)</text><path d="M456.587508798123 609 H590" stroke="#34d399" stroke-width="1.3" fill="none" opacity="0.85"/><path d="M456.587508798123 631 H590" stroke="#34d399" stroke-width="1.3" fill="none" opacity="0.85"/><path d="M456.587508798123 609 V631" stroke="#34d399" stroke-width="1.3" fill="none" opacity="0.85"/><path d="M446.26801669039924 576 H512.9742622913377" stroke="#34d399" stroke-width="1.3" fill="none" opacity="0.85"/><path d="M446.26801669039924 620 H456.587508798123" stroke="#34d399" stroke-width="1.3" fill="none" opacity="0.85"/><path d="M446.26801669039924 576 V620" stroke="#34d399" stroke-width="1.3" fill="none" opacity="0.85"/><text x="598" y="656" fill="#cbd5e1" font-size="10" font-weight="400">Karl Sims VC</text><text x="598" y="678" fill="#cbd5e1" font-size="10" font-weight="400">3D Virtual Creature Evolution (3DVCE)</text><text x="598" y="700" fill="#cbd5e1" font-size="10" font-weight="400">Keiwan Evolution</text><path d="M512.9742622913377 675 H590" stroke="#34d399" stroke-width="1.3" fill="none" opacity="0.85"/><path d="M512.9742622913377 697 H590" stroke="#34d399" stroke-width="1.3" fill="none" opacity="0.85"/><path d="M512.9742622913377 675 V697" stroke="#34d399" stroke-width="1.3" fill="none" opacity="0.85"/><path d="M446.26801669039924 653 H590" stroke="#34d399" stroke-width="1.3" fill="none" opacity="0.85"/><path d="M446.26801669039924 686 H512.9742622913377" stroke="#34d399" stroke-width="1.3" fill="none" opacity="0.85"/><path d="M446.26801669039924 653 V686" stroke="#34d399" stroke-width="1.3" fill="none" opacity="0.85"/><text x="598" y="722" fill="#cbd5e1" font-size="10" font-weight="400">Evolving Soft Robots (Cheney / Unshackling Evolution)</text><text x="598" y="744" fill="#cbd5e1" font-size="10" font-weight="400">GOLEM (Genetically Organized Lifelike Electro Mechanics)</text><text x="598" y="766" fill="#cbd5e1" font-size="10" font-weight="400">Krcah Evolved Virtual Creatures (ERO)</text><path d="M456.587508798123 741 H590" stroke="#34d399" stroke-width="1.3" fill="none" opacity="0.85"/><path d="M456.587508798123 763 H590" stroke="#34d399" stroke-width="1.3" fill="none" opacity="0.85"/><path d="M456.587508798123 741 V763" stroke="#34d399" stroke-width="1.3" fill="none" opacity="0.85"/><path d="M426.8568695245189 719 H590" stroke="#34d399" stroke-width="1.3" fill="none" opacity="0.85"/><path d="M426.8568695245189 752 H456.587508798123" stroke="#34d399" stroke-width="1.3" fill="none" opacity="0.85"/><path d="M426.8568695245189 719 V752" stroke="#34d399" stroke-width="1.3" fill="none" opacity="0.85"/><path d="M408.00149947341873 669.5 H446.26801669039924" stroke="#34d399" stroke-width="1.3" fill="none" opacity="0.85"/><path d="M408.00149947341873 735.5 H426.8568695245189" stroke="#34d399" stroke-width="1.3" fill="none" opacity="0.85"/><path d="M408.00149947341873 669.5 V735.5" stroke="#34d399" stroke-width="1.3" fill="none" opacity="0.85"/><path d="M330.75609730477714 598 H446.26801669039924" stroke="#34d399" stroke-width="1.3" fill="none" opacity="0.85"/><path d="M330.75609730477714 702.5 H408.00149947341873" stroke="#34d399" stroke-width="1.3" fill="none" opacity="0.85"/><path d="M330.75609730477714 598 V702.5" stroke="#34d399" stroke-width="1.3" fill="none" opacity="0.85"/><text x="598" y="788" fill="#cbd5e1" font-size="10" font-weight="400">Cell Lab: Evolution Sandbox</text><text x="598" y="810" fill="#cbd5e1" font-size="10" font-weight="400">Primordial Particle Systems</text><text x="598" y="832" fill="#cbd5e1" font-size="10" font-weight="400">Squirm3</text><path d="M456.587508798123 807 H590" stroke="#34d399" stroke-width="1.3" fill="none" opacity="0.85"/><path d="M456.587508798123 829 H590" stroke="#34d399" stroke-width="1.3" fill="none" opacity="0.85"/><path d="M456.587508798123 807 V829" stroke="#34d399" stroke-width="1.3" fill="none" opacity="0.85"/><path d="M446.26801669039924 785 H590" stroke="#34d399" stroke-width="1.3" fill="none" opacity="0.85"/><path d="M446.26801669039924 818 H456.587508798123" stroke="#34d399" stroke-width="1.3" fill="none" opacity="0.85"/><path d="M446.26801669039924 785 V818" stroke="#34d399" stroke-width="1.3" fill="none" opacity="0.85"/><text x="598" y="854" fill="#cbd5e1" font-size="10" font-weight="400">Species: Artificial Life, Real Evolution</text><text x="598" y="876" fill="#cbd5e1" font-size="10" font-weight="400">Sebastian Lague Ecosystem</text><text x="598" y="898" fill="#cbd5e1" font-size="10" font-weight="400">Primer Evolution Simulations</text><path d="M481.0691570806171 873 H590" stroke="#34d399" stroke-width="1.3" fill="none" opacity="0.85"/><path d="M481.0691570806171 895 H590" stroke="#34d399" stroke-width="1.3" fill="none" opacity="0.85"/><path d="M481.0691570806171 873 V895" stroke="#34d399" stroke-width="1.3" fill="none" opacity="0.85"/><path d="M437.1763616322426 851 H590" stroke="#34d399" stroke-width="1.3" fill="none" opacity="0.85"/><path d="M437.1763616322426 884 H481.0691570806171" stroke="#34d399" stroke-width="1.3" fill="none" opacity="0.85"/><path d="M437.1763616322426 851 V884" stroke="#34d399" stroke-width="1.3" fill="none" opacity="0.85"/><path d="M406.11051537628003 801.5 H446.26801669039924" stroke="#34d399" stroke-width="1.3" fill="none" opacity="0.85"/><path d="M406.11051537628003 867.5 H437.1763616322426" stroke="#34d399" stroke-width="1.3" fill="none" opacity="0.85"/><path d="M406.11051537628003 801.5 V867.5" stroke="#34d399" stroke-width="1.3" fill="none" opacity="0.85"/><text x="598" y="920" fill="#cbd5e1" font-size="10" font-weight="400">Darwin Pond</text><text x="598" y="942" fill="#cbd5e1" font-size="10" font-weight="400">Gene Pool</text><path d="M474.46139343700656 917 H590" stroke="#34d399" stroke-width="1.3" fill="none" opacity="0.85"/><path d="M474.46139343700656 939 H590" stroke="#34d399" stroke-width="1.3" fill="none" opacity="0.85"/><path d="M474.46139343700656 917 V939" stroke="#34d399" stroke-width="1.3" fill="none" opacity="0.85"/><text x="598" y="964" fill="#cbd5e1" font-size="10" font-weight="400">Picbreeder</text><text x="598" y="986" fill="#cbd5e1" font-size="10" font-weight="400">EndlessForms</text><path d="M417.76521446636235 961 H590" stroke="#34d399" stroke-width="1.3" fill="none" opacity="0.85"/><path d="M417.76521446636235 983 H590" stroke="#34d399" stroke-width="1.3" fill="none" opacity="0.85"/><path d="M417.76521446636235 961 V983" stroke="#34d399" stroke-width="1.3" fill="none" opacity="0.85"/><path d="M392.3461207869045 928 H474.46139343700656" stroke="#34d399" stroke-width="1.3" fill="none" opacity="0.85"/><path d="M392.3461207869045 972 H417.76521446636235" stroke="#34d399" stroke-width="1.3" fill="none" opacity="0.85"/><path d="M392.3461207869045 928 V972" stroke="#34d399" stroke-width="1.3" fill="none" opacity="0.85"/><text x="598" y="1008" fill="#cbd5e1" font-size="10" font-weight="400">ALIEN</text><text x="598" y="1030" fill="#cbd5e1" font-size="10" font-weight="400">breve</text><text x="598" y="1052" fill="#cbd5e1" font-size="10" font-weight="400">Framsticks</text><text x="598" y="1074" fill="#cbd5e1" font-size="10" font-weight="400">Division Blocks</text><path d="M426.6037356209257 1049 H590" stroke="#34d399" stroke-width="1.3" fill="none" opacity="0.85"/><path d="M426.6037356209257 1071 H590" stroke="#34d399" stroke-width="1.3" fill="none" opacity="0.85"/><path d="M426.6037356209257 1049 V1071" stroke="#34d399" stroke-width="1.3" fill="none" opacity="0.85"/><path d="M398.41077210440466 1027 H590" stroke="#34d399" stroke-width="1.3" fill="none" opacity="0.85"/><path d="M398.41077210440466 1060 H426.6037356209257" stroke="#34d399" stroke-width="1.3" fill="none" opacity="0.85"/><path d="M398.41077210440466 1027 V1060" stroke="#34d399" stroke-width="1.3" fill="none" opacity="0.85"/><path d="M368.56900112104177 1005 H590" stroke="#34d399" stroke-width="1.3" fill="none" opacity="0.85"/><path d="M368.56900112104177 1043.5 H398.41077210440466" stroke="#34d399" stroke-width="1.3" fill="none" opacity="0.85"/><path d="M368.56900112104177 1005 V1043.5" stroke="#34d399" stroke-width="1.3" fill="none" opacity="0.85"/><path d="M348.60616157222313 950 H392.3461207869045" stroke="#34d399" stroke-width="1.3" fill="none" opacity="0.85"/><path d="M348.60616157222313 1024.25 H368.56900112104177" stroke="#34d399" stroke-width="1.3" fill="none" opacity="0.85"/><path d="M348.60616157222313 950 V1024.25" stroke="#34d399" stroke-width="1.3" fill="none" opacity="0.85"/><path d="M321.9011338551502 834.5 H406.11051537628003" stroke="#34d399" stroke-width="1.3" fill="none" opacity="0.85"/><path d="M321.9011338551502 987.125 H348.60616157222313" stroke="#34d399" stroke-width="1.3" fill="none" opacity="0.85"/><path d="M321.9011338551502 834.5 V987.125" stroke="#34d399" stroke-width="1.3" fill="none" opacity="0.85"/><text x="598" y="1096" fill="#cbd5e1" font-size="10" font-weight="400">Polyworld</text><text x="598" y="1118" fill="#cbd5e1" font-size="10" font-weight="400">Creatures</text><path d="M409.35863296963237 1093 H590" stroke="#34d399" stroke-width="1.3" fill="none" opacity="0.85"/><path d="M409.35863296963237 1115 H590" stroke="#34d399" stroke-width="1.3" fill="none" opacity="0.85"/><path d="M409.35863296963237 1093 V1115" stroke="#34d399" stroke-width="1.3" fill="none" opacity="0.85"/><text x="598" y="1140" fill="#cbd5e1" font-size="10" font-weight="400">Innovation Engines</text><text x="598" y="1162" fill="#cbd5e1" font-size="10" font-weight="400">Geb</text><text x="598" y="1184" fill="#cbd5e1" font-size="10" font-weight="400">MABE</text><text x="598" y="1206" fill="#cbd5e1" font-size="10" font-weight="400">Minimal Criterion Coevolution (MCC)</text><path d="M456.587508798123 1181 H590" stroke="#34d399" stroke-width="1.3" fill="none" opacity="0.85"/><path d="M456.587508798123 1203 H590" stroke="#34d399" stroke-width="1.3" fill="none" opacity="0.85"/><path d="M456.587508798123 1181 V1203" stroke="#34d399" stroke-width="1.3" fill="none" opacity="0.85"/><path d="M426.8568695245189 1159 H590" stroke="#34d399" stroke-width="1.3" fill="none" opacity="0.85"/><path d="M426.8568695245189 1192 H456.587508798123" stroke="#34d399" stroke-width="1.3" fill="none" opacity="0.85"/><path d="M426.8568695245189 1159 V1192" stroke="#34d399" stroke-width="1.3" fill="none" opacity="0.85"/><text x="598" y="1228" fill="#cbd5e1" font-size="10" font-weight="400">Chromaria</text><text x="598" y="1250" fill="#cbd5e1" font-size="10" font-weight="400">Evolve 4.0</text><text x="598" y="1272" fill="#cbd5e1" font-size="10" font-weight="400">biosim4</text><text x="598" y="1294" fill="#cbd5e1" font-size="10" font-weight="400">The Bibites</text><path d="M481.0691570806171 1269 H590" stroke="#34d399" stroke-width="1.3" fill="none" opacity="0.85"/><path d="M481.0691570806171 1291 H590" stroke="#34d399" stroke-width="1.3" fill="none" opacity="0.85"/><path d="M481.0691570806171 1269 V1291" stroke="#34d399" stroke-width="1.3" fill="none" opacity="0.85"/><path d="M456.587508798123 1247 H590" stroke="#34d399" stroke-width="1.3" fill="none" opacity="0.85"/><path d="M456.587508798123 1280 H481.0691570806171" stroke="#34d399" stroke-width="1.3" fill="none" opacity="0.85"/><path d="M456.587508798123 1247 V1280" stroke="#34d399" stroke-width="1.3" fill="none" opacity="0.85"/><path d="M393.69345497609277 1225 H590" stroke="#34d399" stroke-width="1.3" fill="none" opacity="0.85"/><path d="M393.69345497609277 1263.5 H456.587508798123" stroke="#34d399" stroke-width="1.3" fill="none" opacity="0.85"/><path d="M393.69345497609277 1225 V1263.5" stroke="#34d399" stroke-width="1.3" fill="none" opacity="0.85"/><path d="M372.66567280817384 1175.5 H426.8568695245189" stroke="#34d399" stroke-width="1.3" fill="none" opacity="0.85"/><path d="M372.66567280817384 1244.25 H393.69345497609277" stroke="#34d399" stroke-width="1.3" fill="none" opacity="0.85"/><path d="M372.66567280817384 1175.5 V1244.25" stroke="#34d399" stroke-width="1.3" fill="none" opacity="0.85"/><path d="M336.27795981068317 1137 H590" stroke="#34d399" stroke-width="1.3" fill="none" opacity="0.85"/><path d="M336.27795981068317 1209.875 H372.66567280817384" stroke="#34d399" stroke-width="1.3" fill="none" opacity="0.85"/><path d="M336.27795981068317 1137 V1209.875" stroke="#34d399" stroke-width="1.3" fill="none" opacity="0.85"/><path d="M316.83698705380084 1104 H409.35863296963237" stroke="#34d399" stroke-width="1.3" fill="none" opacity="0.85"/><path d="M316.83698705380084 1173.4375 H336.27795981068317" stroke="#34d399" stroke-width="1.3" fill="none" opacity="0.85"/><path d="M316.83698705380084 1104 V1173.4375" stroke="#34d399" stroke-width="1.3" fill="none" opacity="0.85"/><path d="M272.08993264043784 910.8125 H321.9011338551502" stroke="#34d399" stroke-width="1.3" fill="none" opacity="0.85"/><path d="M272.08993264043784 1138.71875 H316.83698705380084" stroke="#34d399" stroke-width="1.3" fill="none" opacity="0.85"/><path d="M272.08993264043784 910.8125 V1138.71875" stroke="#34d399" stroke-width="1.3" fill="none" opacity="0.85"/><path d="M253.59037201078436 650.25 H330.75609730477714" stroke="#34d399" stroke-width="1.3" fill="none" opacity="0.85"/><path d="M253.59037201078436 1024.765625 H272.08993264043784" stroke="#34d399" stroke-width="1.3" fill="none" opacity="0.85"/><path d="M253.59037201078436 650.25 V1024.765625" stroke="#34d399" stroke-width="1.3" fill="none" opacity="0.85"/><path d="M203.07053636508346 305.125 H255.7087428881085" stroke="#34d399" stroke-width="1.3" fill="none" opacity="0.85"/><path d="M203.07053636508346 837.5078125 H253.59037201078436" stroke="#34d399" stroke-width="1.3" fill="none" opacity="0.85"/><path d="M203.07053636508346 305.125 V837.5078125" stroke="#34d399" stroke-width="1.3" fill="none" opacity="0.85"/><text x="598" y="1316" fill="#cbd5e1" font-size="10" font-weight="400">Sugarscape</text><text x="598" y="1338" fill="#cbd5e1" font-size="10" font-weight="400">Swarm</text><path d="M503.88260723318115 1313 H590" stroke="#34d399" stroke-width="1.3" fill="none" opacity="0.85"/><path d="M503.88260723318115 1335 H590" stroke="#34d399" stroke-width="1.3" fill="none" opacity="0.85"/><path d="M503.88260723318115 1313 V1335" stroke="#34d399" stroke-width="1.3" fill="none" opacity="0.85"/><text x="598" y="1360" fill="#cbd5e1" font-size="10" font-weight="400">Echo</text><text x="598" y="1382" fill="#cbd5e1" font-size="10" font-weight="400">SimLife: The Genetic Playground</text><path d="M417.76521446636235 1357 H590" stroke="#34d399" stroke-width="1.3" fill="none" opacity="0.85"/><path d="M417.76521446636235 1379 H590" stroke="#34d399" stroke-width="1.3" fill="none" opacity="0.85"/><path d="M417.76521446636235 1357 V1379" stroke="#34d399" stroke-width="1.3" fill="none" opacity="0.85"/><path d="M404.25722237773846 1324 H503.88260723318115" stroke="#34d399" stroke-width="1.3" fill="none" opacity="0.85"/><path d="M404.25722237773846 1368 H417.76521446636235" stroke="#34d399" stroke-width="1.3" fill="none" opacity="0.85"/><path d="M404.25722237773846 1324 V1368" stroke="#34d399" stroke-width="1.3" fill="none" opacity="0.85"/><text x="598" y="1404" fill="#cbd5e1" font-size="10" font-weight="400">Tierra</text><text x="598" y="1426" fill="#cbd5e1" font-size="10" font-weight="400">Avida</text><path d="M451.13987658048904 1401 H590" stroke="#34d399" stroke-width="1.3" fill="none" opacity="0.85"/><path d="M451.13987658048904 1423 H590" stroke="#34d399" stroke-width="1.3" fill="none" opacity="0.85"/><path d="M451.13987658048904 1401 V1423" stroke="#34d399" stroke-width="1.3" fill="none" opacity="0.85"/><text x="598" y="1448" fill="#cbd5e1" font-size="10" font-weight="400">The Life Engine</text><text x="598" y="1470" fill="#cbd5e1" font-size="10" font-weight="400">Nanopond</text><text x="598" y="1492" fill="#cbd5e1" font-size="10" font-weight="400">Physis</text><path d="M481.0691570806171 1467 H590" stroke="#34d399" stroke-width="1.3" fill="none" opacity="0.85"/><path d="M481.0691570806171 1489 H590" stroke="#34d399" stroke-width="1.3" fill="none" opacity="0.85"/><path d="M481.0691570806171 1467 V1489" stroke="#34d399" stroke-width="1.3" fill="none" opacity="0.85"/><text x="598" y="1514" fill="#cbd5e1" font-size="10" font-weight="400">Network Tierra</text><text x="598" y="1536" fill="#cbd5e1" font-size="10" font-weight="400">Core War</text><text x="598" y="1558" fill="#cbd5e1" font-size="10" font-weight="400">Cosmos</text><text x="598" y="1580" fill="#cbd5e1" font-size="10" font-weight="400">Amoeba</text><path d="M590 1555 H590" stroke="#34d399" stroke-width="1.3" fill="none" opacity="0.85"/><path d="M590 1577 H590" stroke="#34d399" stroke-width="1.3" fill="none" opacity="0.85"/><path d="M590 1555 V1577" stroke="#34d399" stroke-width="1.3" fill="none" opacity="0.85"/><path d="M481.0691570806171 1533 H590" stroke="#34d399" stroke-width="1.3" fill="none" opacity="0.85"/><path d="M481.0691570806171 1566 H590" stroke="#34d399" stroke-width="1.3" fill="none" opacity="0.85"/><path d="M481.0691570806171 1533 V1566" stroke="#34d399" stroke-width="1.3" fill="none" opacity="0.85"/><path d="M466.0289462479699 1511 H590" stroke="#34d399" stroke-width="1.3" fill="none" opacity="0.85"/><path d="M466.0289462479699 1549.5 H481.0691570806171" stroke="#34d399" stroke-width="1.3" fill="none" opacity="0.85"/><path d="M466.0289462479699 1511 V1549.5" stroke="#34d399" stroke-width="1.3" fill="none" opacity="0.85"/><path d="M459.82113501509514 1478 H481.0691570806171" stroke="#34d399" stroke-width="1.3" fill="none" opacity="0.85"/><path d="M459.82113501509514 1530.25 H466.0289462479699" stroke="#34d399" stroke-width="1.3" fill="none" opacity="0.85"/><path d="M459.82113501509514 1478 V1530.25" stroke="#34d399" stroke-width="1.3" fill="none" opacity="0.85"/><path d="M438.387383855074 1445 H590" stroke="#34d399" stroke-width="1.3" fill="none" opacity="0.85"/><path d="M438.387383855074 1504.125 H459.82113501509514" stroke="#34d399" stroke-width="1.3" fill="none" opacity="0.85"/><path d="M438.387383855074 1445 V1504.125" stroke="#34d399" stroke-width="1.3" fill="none" opacity="0.85"/><path d="M417.02451000337294 1412 H451.13987658048904" stroke="#34d399" stroke-width="1.3" fill="none" opacity="0.85"/><path d="M417.02451000337294 1474.5625 H438.387383855074" stroke="#34d399" stroke-width="1.3" fill="none" opacity="0.85"/><path d="M417.02451000337294 1412 V1474.5625" stroke="#34d399" stroke-width="1.3" fill="none" opacity="0.85"/><text x="598" y="1602" fill="#cbd5e1" font-size="10" font-weight="400">Aevol</text><text x="598" y="1624" fill="#cbd5e1" font-size="10" font-weight="400">Avida-ED</text><path d="M401.32624555232434 1599 H590" stroke="#34d399" stroke-width="1.3" fill="none" opacity="0.85"/><path d="M401.32624555232434 1621 H590" stroke="#34d399" stroke-width="1.3" fill="none" opacity="0.85"/><path d="M401.32624555232434 1599 V1621" stroke="#34d399" stroke-width="1.3" fill="none" opacity="0.85"/><path d="M355.80017789294055 1443.28125 H417.02451000337294" stroke="#34d399" stroke-width="1.3" fill="none" opacity="0.85"/><path d="M355.80017789294055 1610 H401.32624555232434" stroke="#34d399" stroke-width="1.3" fill="none" opacity="0.85"/><path d="M355.80017789294055 1443.28125 V1610" stroke="#34d399" stroke-width="1.3" fill="none" opacity="0.85"/><path d="M327.42800721091095 1346 H404.25722237773846" stroke="#34d399" stroke-width="1.3" fill="none" opacity="0.85"/><path d="M327.42800721091095 1526.640625 H355.80017789294055" stroke="#34d399" stroke-width="1.3" fill="none" opacity="0.85"/><path d="M327.42800721091095 1346 V1526.640625" stroke="#34d399" stroke-width="1.3" fill="none" opacity="0.85"/><text x="598" y="1646" fill="#cbd5e1" font-size="10" font-weight="400">El Farol Bar Problem</text><text x="598" y="1668" fill="#cbd5e1" font-size="10" font-weight="400">Generative Agents (Smallville)</text><path d="M358.92278687401324 1643 H590" stroke="#34d399" stroke-width="1.3" fill="none" opacity="0.85"/><path d="M358.92278687401324 1665 H590" stroke="#34d399" stroke-width="1.3" fill="none" opacity="0.85"/><path d="M358.92278687401324 1643 V1665" stroke="#34d399" stroke-width="1.3" fill="none" opacity="0.85"/><text x="598" y="1690" fill="#cbd5e1" font-size="10" font-weight="400">Artificial Anasazi</text><text x="598" y="1712" fill="#cbd5e1" font-size="10" font-weight="400">Schelling Segregation Model</text><text x="598" y="1734" fill="#cbd5e1" font-size="10" font-weight="400">SimEarth: The Living Planet</text><text x="598" y="1756" fill="#cbd5e1" font-size="10" font-weight="400">SimAnt: The Electric Ant Colony</text><text x="598" y="1778" fill="#cbd5e1" font-size="10" font-weight="400">StarLogo</text><text x="598" y="1800" fill="#cbd5e1" font-size="10" font-weight="400">Ascape</text><path d="M481.0691570806171 1775 H590" stroke="#34d399" stroke-width="1.3" fill="none" opacity="0.85"/><path d="M481.0691570806171 1797 H590" stroke="#34d399" stroke-width="1.3" fill="none" opacity="0.85"/><path d="M481.0691570806171 1775 V1797" stroke="#34d399" stroke-width="1.3" fill="none" opacity="0.85"/><path d="M458.5088408316463 1753 H590" stroke="#34d399" stroke-width="1.3" fill="none" opacity="0.85"/><path d="M458.5088408316463 1786 H481.0691570806171" stroke="#34d399" stroke-width="1.3" fill="none" opacity="0.85"/><path d="M458.5088408316463 1753 V1786" stroke="#34d399" stroke-width="1.3" fill="none" opacity="0.85"/><path d="M433.12802368927856 1731 H590" stroke="#34d399" stroke-width="1.3" fill="none" opacity="0.85"/><path d="M433.12802368927856 1769.5 H458.5088408316463" stroke="#34d399" stroke-width="1.3" fill="none" opacity="0.85"/><path d="M433.12802368927856 1731 V1769.5" stroke="#34d399" stroke-width="1.3" fill="none" opacity="0.85"/><path d="M423.3610458207929 1709 H590" stroke="#34d399" stroke-width="1.3" fill="none" opacity="0.85"/><path d="M423.3610458207929 1750.25 H433.12802368927856" stroke="#34d399" stroke-width="1.3" fill="none" opacity="0.85"/><path d="M423.3610458207929 1709 V1750.25" stroke="#34d399" stroke-width="1.3" fill="none" opacity="0.85"/><path d="M404.14467293339214 1687 H590" stroke="#34d399" stroke-width="1.3" fill="none" opacity="0.85"/><path d="M404.14467293339214 1729.625 H423.3610458207929" stroke="#34d399" stroke-width="1.3" fill="none" opacity="0.85"/><path d="M404.14467293339214 1687 V1729.625" stroke="#34d399" stroke-width="1.3" fill="none" opacity="0.85"/><text x="598" y="1822" fill="#cbd5e1" font-size="10" font-weight="400">Boids</text><text x="598" y="1844" fill="#cbd5e1" font-size="10" font-weight="400">NetLogo</text><text x="598" y="1866" fill="#cbd5e1" font-size="10" font-weight="400">Mesa</text><path d="M590 1841 H590" stroke="#34d399" stroke-width="1.3" fill="none" opacity="0.85"/><path d="M590 1863 H590" stroke="#34d399" stroke-width="1.3" fill="none" opacity="0.85"/><path d="M590 1841 V1863" stroke="#34d399" stroke-width="1.3" fill="none" opacity="0.85"/><text x="598" y="1888" fill="#cbd5e1" font-size="10" font-weight="400">GAMA Platform</text><text x="598" y="1910" fill="#cbd5e1" font-size="10" font-weight="400">MASON</text><text x="598" y="1932" fill="#cbd5e1" font-size="10" font-weight="400">Repast</text><path d="M512.9742622913377 1907 H590" stroke="#34d399" stroke-width="1.3" fill="none" opacity="0.85"/><path d="M512.9742622913377 1929 H590" stroke="#34d399" stroke-width="1.3" fill="none" opacity="0.85"/><path d="M512.9742622913377 1907 V1929" stroke="#34d399" stroke-width="1.3" fill="none" opacity="0.85"/><path d="M497.02170968597744 1885 H590" stroke="#34d399" stroke-width="1.3" fill="none" opacity="0.85"/><path d="M497.02170968597744 1918 H512.9742622913377" stroke="#34d399" stroke-width="1.3" fill="none" opacity="0.85"/><path d="M497.02170968597744 1885 V1918" stroke="#34d399" stroke-width="1.3" fill="none" opacity="0.85"/><path d="M483.5436427233593 1852 H590" stroke="#34d399" stroke-width="1.3" fill="none" opacity="0.85"/><path d="M483.5436427233593 1901.5 H497.02170968597744" stroke="#34d399" stroke-width="1.3" fill="none" opacity="0.85"/><path d="M483.5436427233593 1852 V1901.5" stroke="#34d399" stroke-width="1.3" fill="none" opacity="0.85"/><path d="M403.29069405395285 1819 H590" stroke="#34d399" stroke-width="1.3" fill="none" opacity="0.85"/><path d="M403.29069405395285 1876.75 H483.5436427233593" stroke="#34d399" stroke-width="1.3" fill="none" opacity="0.85"/><path d="M403.29069405395285 1819 V1876.75" stroke="#34d399" stroke-width="1.3" fill="none" opacity="0.85"/><path d="M356.8218440642637 1708.3125 H404.14467293339214" stroke="#34d399" stroke-width="1.3" fill="none" opacity="0.85"/><path d="M356.8218440642637 1847.875 H403.29069405395285" stroke="#34d399" stroke-width="1.3" fill="none" opacity="0.85"/><path d="M356.8218440642637 1708.3125 V1847.875" stroke="#34d399" stroke-width="1.3" fill="none" opacity="0.85"/><path d="M302.2644413485709 1654 H358.92278687401324" stroke="#34d399" stroke-width="1.3" fill="none" opacity="0.85"/><path d="M302.2644413485709 1778.09375 H356.8218440642637" stroke="#34d399" stroke-width="1.3" fill="none" opacity="0.85"/><path d="M302.2644413485709 1654 V1778.09375" stroke="#34d399" stroke-width="1.3" fill="none" opacity="0.85"/><path d="M211.13119346596244 1436.3203125 H327.42800721091095" stroke="#34d399" stroke-width="1.3" fill="none" opacity="0.85"/><path d="M211.13119346596244 1716.046875 H302.2644413485709" stroke="#34d399" stroke-width="1.3" fill="none" opacity="0.85"/><path d="M211.13119346596244 1436.3203125 V1716.046875" stroke="#34d399" stroke-width="1.3" fill="none" opacity="0.85"/><text x="598" y="1954" fill="#cbd5e1" font-size="10" font-weight="400">Lenia</text><text x="598" y="1976" fill="#cbd5e1" font-size="10" font-weight="400">Particle Lenia</text><path d="M481.0691570806171 1951 H590" stroke="#34d399" stroke-width="1.3" fill="none" opacity="0.85"/><path d="M481.0691570806171 1973 H590" stroke="#34d399" stroke-width="1.3" fill="none" opacity="0.85"/><path d="M481.0691570806171 1951 V1973" stroke="#34d399" stroke-width="1.3" fill="none" opacity="0.85"/><text x="598" y="1998" fill="#cbd5e1" font-size="10" font-weight="400">Flow Lenia</text><text x="598" y="2020" fill="#cbd5e1" font-size="10" font-weight="400">Thrive</text><path d="M435.9485245826755 1995 H590" stroke="#34d399" stroke-width="1.3" fill="none" opacity="0.85"/><path d="M435.9485245826755 2017 H590" stroke="#34d399" stroke-width="1.3" fill="none" opacity="0.85"/><path d="M435.9485245826755 1995 V2017" stroke="#34d399" stroke-width="1.3" fill="none" opacity="0.85"/><path d="M395.1655673195819 1962 H481.0691570806171" stroke="#34d399" stroke-width="1.3" fill="none" opacity="0.85"/><path d="M395.1655673195819 2006 H435.9485245826755" stroke="#34d399" stroke-width="1.3" fill="none" opacity="0.85"/><path d="M395.1655673195819 1962 V2006" stroke="#34d399" stroke-width="1.3" fill="none" opacity="0.85"/><text x="598" y="2042" fill="#cbd5e1" font-size="10" font-weight="400">Clusters (Particle Life)</text><text x="598" y="2064" fill="#cbd5e1" font-size="10" font-weight="400">Spore</text><text x="598" y="2086" fill="#cbd5e1" font-size="10" font-weight="400">Noita</text><text x="598" y="2108" fill="#cbd5e1" font-size="10" font-weight="400">Sandspiel</text><path d="M481.0691570806171 2083 H590" stroke="#34d399" stroke-width="1.3" fill="none" opacity="0.85"/><path d="M481.0691570806171 2105 H590" stroke="#34d399" stroke-width="1.3" fill="none" opacity="0.85"/><path d="M481.0691570806171 2083 V2105" stroke="#34d399" stroke-width="1.3" fill="none" opacity="0.85"/><path d="M418.63738506749996 2061 H590" stroke="#34d399" stroke-width="1.3" fill="none" opacity="0.85"/><path d="M418.63738506749996 2094 H481.0691570806171" stroke="#34d399" stroke-width="1.3" fill="none" opacity="0.85"/><path d="M418.63738506749996 2061 V2094" stroke="#34d399" stroke-width="1.3" fill="none" opacity="0.85"/><path d="M412.86700522910803 2039 H590" stroke="#34d399" stroke-width="1.3" fill="none" opacity="0.85"/><path d="M412.86700522910803 2077.5 H418.63738506749996" stroke="#34d399" stroke-width="1.3" fill="none" opacity="0.85"/><path d="M412.86700522910803 2039 V2077.5" stroke="#34d399" stroke-width="1.3" fill="none" opacity="0.85"/><text x="598" y="2130" fill="#cbd5e1" font-size="10" font-weight="400">OpenSteer</text><text x="598" y="2152" fill="#cbd5e1" font-size="10" font-weight="400">Pezzza's Ant Colony Simulation</text><path d="M481.0691570806171 2127 H590" stroke="#34d399" stroke-width="1.3" fill="none" opacity="0.85"/><path d="M481.0691570806171 2149 H590" stroke="#34d399" stroke-width="1.3" fill="none" opacity="0.85"/><path d="M481.0691570806171 2127 V2149" stroke="#34d399" stroke-width="1.3" fill="none" opacity="0.85"/><text x="598" y="2174" fill="#cbd5e1" font-size="10" font-weight="400">The Powder Toy</text><text x="598" y="2196" fill="#cbd5e1" font-size="10" font-weight="400">SmoothLife</text><text x="598" y="2218" fill="#cbd5e1" font-size="10" font-weight="400">Larger than Life</text><path d="M590 2193 H590" stroke="#34d399" stroke-width="1.3" fill="none" opacity="0.85"/><path d="M590 2215 H590" stroke="#34d399" stroke-width="1.3" fill="none" opacity="0.85"/><path d="M590 2193 V2215" stroke="#34d399" stroke-width="1.3" fill="none" opacity="0.85"/><text x="598" y="2240" fill="#cbd5e1" font-size="10" font-weight="400">Gray-Scott Reaction-Diffusion</text><text x="598" y="2262" fill="#cbd5e1" font-size="10" font-weight="400">Morphozoic</text><path d="M481.0691570806171 2237 H590" stroke="#34d399" stroke-width="1.3" fill="none" opacity="0.85"/><path d="M481.0691570806171 2259 H590" stroke="#34d399" stroke-width="1.3" fill="none" opacity="0.85"/><path d="M481.0691570806171 2237 V2259" stroke="#34d399" stroke-width="1.3" fill="none" opacity="0.85"/><path d="M458.5088408316463 2204 H590" stroke="#34d399" stroke-width="1.3" fill="none" opacity="0.85"/><path d="M458.5088408316463 2248 H481.0691570806171" stroke="#34d399" stroke-width="1.3" fill="none" opacity="0.85"/><path d="M458.5088408316463 2204 V2248" stroke="#34d399" stroke-width="1.3" fill="none" opacity="0.85"/><path d="M435.9485245826755 2171 H590" stroke="#34d399" stroke-width="1.3" fill="none" opacity="0.85"/><path d="M435.9485245826755 2226 H458.5088408316463" stroke="#34d399" stroke-width="1.3" fill="none" opacity="0.85"/><path d="M435.9485245826755 2171 V2226" stroke="#34d399" stroke-width="1.3" fill="none" opacity="0.85"/><path d="M400.70191093699685 2138 H481.0691570806171" stroke="#34d399" stroke-width="1.3" fill="none" opacity="0.85"/><path d="M400.70191093699685 2198.5 H435.9485245826755" stroke="#34d399" stroke-width="1.3" fill="none" opacity="0.85"/><path d="M400.70191093699685 2138 V2198.5" stroke="#34d399" stroke-width="1.3" fill="none" opacity="0.85"/><path d="M389.02189619492873 2058.25 H412.86700522910803" stroke="#34d399" stroke-width="1.3" fill="none" opacity="0.85"/><path d="M389.02189619492873 2168.25 H400.70191093699685" stroke="#34d399" stroke-width="1.3" fill="none" opacity="0.85"/><path d="M389.02189619492873 2058.25 V2168.25" stroke="#34d399" stroke-width="1.3" fill="none" opacity="0.85"/><path d="M336.92723677370236 1984 H395.1655673195819" stroke="#34d399" stroke-width="1.3" fill="none" opacity="0.85"/><path d="M336.92723677370236 2113.25 H389.02189619492873" stroke="#34d399" stroke-width="1.3" fill="none" opacity="0.85"/><path d="M336.92723677370236 1984 V2113.25" stroke="#34d399" stroke-width="1.3" fill="none" opacity="0.85"/><text x="598" y="2284" fill="#cbd5e1" font-size="10" font-weight="400">Game of Life</text><text x="598" y="2306" fill="#cbd5e1" font-size="10" font-weight="400">Voxelyze / VoxCAD</text><text x="598" y="2328" fill="#cbd5e1" font-size="10" font-weight="400">Growing NCA</text><text x="598" y="2350" fill="#cbd5e1" font-size="10" font-weight="400">Genie (Generative Interactive Environments)</text><path d="M431.2073737680321 2325 H590" stroke="#34d399" stroke-width="1.3" fill="none" opacity="0.85"/><path d="M431.2073737680321 2347 H590" stroke="#34d399" stroke-width="1.3" fill="none" opacity="0.85"/><path d="M431.2073737680321 2325 V2347" stroke="#34d399" stroke-width="1.3" fill="none" opacity="0.85"/><text x="598" y="2372" fill="#cbd5e1" font-size="10" font-weight="400">DevoWorm</text><text x="598" y="2394" fill="#cbd5e1" font-size="10" font-weight="400">EvoGym</text><text x="598" y="2416" fill="#cbd5e1" font-size="10" font-weight="400">RoboGrammar</text><path d="M481.0691570806171 2391 H590" stroke="#34d399" stroke-width="1.3" fill="none" opacity="0.85"/><path d="M481.0691570806171 2413 H590" stroke="#34d399" stroke-width="1.3" fill="none" opacity="0.85"/><path d="M481.0691570806171 2391 V2413" stroke="#34d399" stroke-width="1.3" fill="none" opacity="0.85"/><path d="M372.56592017280144 2369 H590" stroke="#34d399" stroke-width="1.3" fill="none" opacity="0.85"/><path d="M372.56592017280144 2402 H481.0691570806171" stroke="#34d399" stroke-width="1.3" fill="none" opacity="0.85"/><path d="M372.56592017280144 2369 V2402" stroke="#34d399" stroke-width="1.3" fill="none" opacity="0.85"/><path d="M349.2425905237809 2336 H431.2073737680321" stroke="#34d399" stroke-width="1.3" fill="none" opacity="0.85"/><path d="M349.2425905237809 2385.5 H372.56592017280144" stroke="#34d399" stroke-width="1.3" fill="none" opacity="0.85"/><path d="M349.2425905237809 2336 V2385.5" stroke="#34d399" stroke-width="1.3" fill="none" opacity="0.85"/><path d="M313.77155176720976 2303 H590" stroke="#34d399" stroke-width="1.3" fill="none" opacity="0.85"/><path d="M313.77155176720976 2360.75 H349.2425905237809" stroke="#34d399" stroke-width="1.3" fill="none" opacity="0.85"/><path d="M313.77155176720976 2303 V2360.75" stroke="#34d399" stroke-width="1.3" fill="none" opacity="0.85"/><path d="M279.67700865862685 2281 H590" stroke="#34d399" stroke-width="1.3" fill="none" opacity="0.85"/><path d="M279.67700865862685 2331.875 H313.77155176720976" stroke="#34d399" stroke-width="1.3" fill="none" opacity="0.85"/><path d="M279.67700865862685 2281 V2331.875" stroke="#34d399" stroke-width="1.3" fill="none" opacity="0.85"/><path d="M272.7173945250404 2048.625 H336.92723677370236" stroke="#34d399" stroke-width="1.3" fill="none" opacity="0.85"/><path d="M272.7173945250404 2306.4375 H279.67700865862685" stroke="#34d399" stroke-width="1.3" fill="none" opacity="0.85"/><path d="M272.7173945250404 2048.625 V2306.4375" stroke="#34d399" stroke-width="1.3" fill="none" opacity="0.85"/><text x="598" y="2438" fill="#cbd5e1" font-size="10" font-weight="400">Rule 110</text><text x="598" y="2460" fill="#cbd5e1" font-size="10" font-weight="400">Wireworld</text><text x="598" y="2482" fill="#cbd5e1" font-size="10" font-weight="400">Langton's Ant</text><path d="M590 2457 H590" stroke="#34d399" stroke-width="1.3" fill="none" opacity="0.85"/><path d="M590 2479 H590" stroke="#34d399" stroke-width="1.3" fill="none" opacity="0.85"/><path d="M590 2457 V2479" stroke="#34d399" stroke-width="1.3" fill="none" opacity="0.85"/><path d="M590 2435 H590" stroke="#34d399" stroke-width="1.3" fill="none" opacity="0.85"/><path d="M590 2468 H590" stroke="#34d399" stroke-width="1.3" fill="none" opacity="0.85"/><path d="M590 2435 V2468" stroke="#34d399" stroke-width="1.3" fill="none" opacity="0.85"/><text x="598" y="2504" fill="#cbd5e1" font-size="10" font-weight="400">Biomorphs</text><text x="598" y="2526" fill="#cbd5e1" font-size="10" font-weight="400">Langton's Loops</text><text x="598" y="2548" fill="#cbd5e1" font-size="10" font-weight="400">von Neumann Universal Constructor</text><path d="M435.9485245826755 2523 H590" stroke="#34d399" stroke-width="1.3" fill="none" opacity="0.85"/><path d="M435.9485245826755 2545 H590" stroke="#34d399" stroke-width="1.3" fill="none" opacity="0.85"/><path d="M435.9485245826755 2523 V2545" stroke="#34d399" stroke-width="1.3" fill="none" opacity="0.85"/><path d="M334.5345288200381 2501 H590" stroke="#34d399" stroke-width="1.3" fill="none" opacity="0.85"/><path d="M334.5345288200381 2534 H435.9485245826755" stroke="#34d399" stroke-width="1.3" fill="none" opacity="0.85"/><path d="M334.5345288200381 2501 V2534" stroke="#34d399" stroke-width="1.3" fill="none" opacity="0.85"/><path d="M238.72582295935732 2451.5 H590" stroke="#34d399" stroke-width="1.3" fill="none" opacity="0.85"/><path d="M238.72582295935732 2517.5 H334.5345288200381" stroke="#34d399" stroke-width="1.3" fill="none" opacity="0.85"/><path d="M238.72582295935732 2451.5 V2517.5" stroke="#34d399" stroke-width="1.3" fill="none" opacity="0.85"/><path d="M190.40645669278342 2177.53125 H272.7173945250404" stroke="#34d399" stroke-width="1.3" fill="none" opacity="0.85"/><path d="M190.40645669278342 2484.5 H238.72582295935732" stroke="#34d399" stroke-width="1.3" fill="none" opacity="0.85"/><path d="M190.40645669278342 2177.53125 V2484.5" stroke="#34d399" stroke-width="1.3" fill="none" opacity="0.85"/><path d="M161.04935942935413 1576.18359375 H211.13119346596244" stroke="#34d399" stroke-width="1.3" fill="none" opacity="0.85"/><path d="M161.04935942935413 2331.015625 H190.40645669278342" stroke="#34d399" stroke-width="1.3" fill="none" opacity="0.85"/><path d="M161.04935942935413 1576.18359375 V2331.015625" stroke="#34d399" stroke-width="1.3" fill="none" opacity="0.85"/><path d="M151.50807223708432 571.31640625 H203.07053636508346" stroke="#34d399" stroke-width="1.3" fill="none" opacity="0.85"/><path d="M151.50807223708432 1953.599609375 H161.04935942935413" stroke="#34d399" stroke-width="1.3" fill="none" opacity="0.85"/><path d="M151.50807223708432 571.31640625 V1953.599609375" stroke="#34d399" stroke-width="1.3" fill="none" opacity="0.85"/><path d="M104.05933482228254 114 H301.79607953067176" stroke="#34d399" stroke-width="1.3" fill="none" opacity="0.85"/><path d="M104.05933482228254 1262.4580078125 H151.50807223708432" stroke="#34d399" stroke-width="1.3" fill="none" opacity="0.85"/><path d="M104.05933482228254 114 V1262.4580078125" stroke="#34d399" stroke-width="1.3" fill="none" opacity="0.85"/><path d="M30 81 H590" stroke="#f59e0b" stroke-width="1.3" fill="none" opacity="0.85"/><path d="M30 688.22900390625 H104.05933482228254" stroke="#f59e0b" stroke-width="1.3" fill="none" opacity="0.85"/><path d="M30 81 V688.22900390625" stroke="#f59e0b" stroke-width="1.3" fill="none" opacity="0.85"/>
</svg>