<svg xmlns="http://www.w3.org/2000/svg" viewBox="0 0 760 600" font-family="ui-sans-serif,system-ui,Segoe UI,Roboto,sans-serif" role="img" aria-label="PCA projection">
<rect width="760" height="600" rx="14" fill="#0b1220"/>
<text x="28" y="30" fill="#cbd5e1" font-size="18" font-weight="700">PCA of 113 A-Life systems (9-axis correlation-matrix eigenbasis)</text><text x="28" y="50" fill="#7c8aa5" font-size="12">PC1 25.1% var · PC2 21.7% var · together 46.8%. amber = this repo.</text><line x1="171.3646549725678" y1="70" x2="171.3646549725678" y2="540" stroke="#27344d" stroke-width="0.8"/><line x1="60" y1="317.88438617401664" x2="730" y2="317.88438617401664" stroke="#27344d" stroke-width="0.8"/><text x="730" y="544" fill="#7c8aa5" font-size="11" text-anchor="end">PC1 (generalist breadth →)</text><text x="54" y="62" fill="#7c8aa5" font-size="11">PC2</text><circle cx="730" cy="164.67222884386172" r="8" fill="#f59e0b"/><circle cx="730" cy="164.67222884386172" r="13" fill="none" stroke="#f59e0b" stroke-width="1.4" opacity="0.6"/><text x="718" y="152.67222884386172" fill="#f59e0b" font-size="11" font-weight="700" text-anchor="end">COSMOGONIC</text><circle cx="138.74739200989103" cy="309.83164481525625" r="4.5" fill="#38bdf8" opacity="0.85"/><text x="145.74739200989103" y="323.83164481525625" fill="#7c8aa5" font-size="9">Game of Life</text><circle cx="120.00540916467043" cy="225.3828963051251" r="4.5" fill="#38bdf8" opacity="0.85"/><text x="127.00540916467043" y="217.3828963051251" fill="#7c8aa5" font-size="9">Boids</text><circle cx="128.4962522216212" cy="248.84088200238375" r="4.5" fill="#38bdf8" opacity="0.85"/><text x="135.4962522216212" y="262.84088200238375" fill="#7c8aa5" font-size="9">Biomorphs</text><circle cx="120.36782319758905" cy="426.6314064362336" r="4.5" fill="#38bdf8" opacity="0.85"/><text x="127.36782319758905" y="418.6314064362336" fill="#7c8aa5" font-size="9">Core War</text><circle cx="128.34093192179893" cy="458.2121573301549" r="4.5" fill="#38bdf8" opacity="0.85"/><text x="135.34093192179893" y="472.2121573301549" fill="#7c8aa5" font-size="9">Tierra</text><circle cx="155.7290781237926" cy="463.95411203814064" r="4.5" fill="#38bdf8" opacity="0.85"/><text x="162.7290781237926" y="455.95411203814064" fill="#7c8aa5" font-size="9">Avida</text><circle cx="247.4198284522062" cy="363.9600715137068" r="4.5" fill="#38bdf8" opacity="0.85"/><text x="254.4198284522062" y="377.9600715137068" fill="#7c8aa5" font-size="9">Polyworld</text><circle cx="273.0994513561549" cy="340.7121573301549" r="4.5" fill="#38bdf8" opacity="0.85"/><text x="280.0994513561549" y="332.7121573301549" fill="#7c8aa5" font-size="9">Framsticks</text><circle cx="227.64237694150373" cy="266.626936829559" r="4.5" fill="#38bdf8" opacity="0.85"/><text x="234.64237694150373" y="280.626936829559" fill="#7c8aa5" font-size="9">Karl Sims VC</text><circle cx="373.95409937408243" cy="277.76072705601905" r="4.5" fill="#38bdf8" opacity="0.85"/><text x="380.95409937408243" y="269.76072705601905" fill="#7c8aa5" font-size="9">Creatures</text><circle cx="192.95417664786336" cy="297.71752085816445" r="4.5" fill="#38bdf8" opacity="0.85"/><text x="199.95417664786336" y="311.71752085816445" fill="#7c8aa5" font-size="9">Darwin Pond</text><circle cx="211.1784251603431" cy="301.3587604290822" r="4.5" fill="#38bdf8" opacity="0.85"/><text x="218.1784251603431" y="293.3587604290822" fill="#7c8aa5" font-size="9">Gene Pool</text><circle cx="162.5113978826984" cy="416.8980929678188" r="4.5" fill="#38bdf8" opacity="0.85"/><text x="169.5113978826984" y="430.8980929678188" fill="#7c8aa5" font-size="9">Sugarscape</text><circle cx="146.04744610153776" cy="433.84386174016686" r="4.5" fill="#38bdf8" opacity="0.85"/><text x="153.04744610153776" y="425.84386174016686" fill="#7c8aa5" font-size="9">Echo</text><circle cx="152.98508616026584" cy="389.86889153754464" r="4.5" fill="#38bdf8" opacity="0.85"/><text x="159.98508616026584" y="403.86889153754464" fill="#7c8aa5" font-size="9">Swarm</text><circle cx="208.74507379646087" cy="275.2398688915375" r="4.5" fill="#38bdf8" opacity="0.85"/><text x="215.74507379646087" y="267.2398688915375" fill="#7c8aa5" font-size="9">breve</text><circle cx="223.34518197975427" cy="313.12276519666267" r="4.5" fill="#38bdf8" opacity="0.85"/><text x="230.34518197975427" y="327.12276519666267" fill="#7c8aa5" font-size="9">Picbreeder</text><circle cx="196.6300904103238" cy="465.91477949940406" r="4.5" fill="#38bdf8" opacity="0.85"/><text x="203.6300904103238" y="457.91477949940406" fill="#7c8aa5" font-size="9">MABE</text><circle cx="163.0291322154393" cy="183.36859356376635" r="4.5" fill="#38bdf8" opacity="0.85"/><text x="170.0291322154393" y="197.36859356376635" fill="#7c8aa5" font-size="9">Lenia</text><circle cx="205.53512093346728" cy="218.31048867699639" r="4.5" fill="#38bdf8" opacity="0.85"/><text x="212.53512093346728" y="210.31048867699639" fill="#7c8aa5" font-size="9">Growing NCA</text><circle cx="391.6606135538212" cy="156.33939213349225" r="4.5" fill="#38bdf8" opacity="0.85"/><text x="398.6606135538212" y="170.33939213349225" fill="#7c8aa5" font-size="9">OpenWorm</text><circle cx="194.09319217989338" cy="443.3671036948748" r="4.5" fill="#38bdf8" opacity="0.85"/><text x="201.09319217989338" y="435.3671036948748" fill="#7c8aa5" font-size="9">POET</text><circle cx="205.379800633645" cy="319.0747914183552" r="4.5" fill="#38bdf8" opacity="0.85"/><text x="212.379800633645" y="333.0747914183552" fill="#7c8aa5" font-size="9">EvoGym</text><circle cx="412.31821343018316" cy="234.626042908224" r="4.5" fill="#38bdf8" opacity="0.85"/><text x="419.31821343018316" y="226.626042908224" fill="#7c8aa5" font-size="9">ALIEN</text><circle cx="275.0668418205703" cy="327.4076281287247" r="4.5" fill="#38bdf8" opacity="0.85"/><text x="282.0668418205703" y="341.4076281287247" fill="#7c8aa5" font-size="9">ASAL</text><circle cx="60" cy="234.27592371871276" r="4.5" fill="#38bdf8" opacity="0.85"/><text x="67" y="226.27592371871276" fill="#7c8aa5" font-size="9">Wireworld</text><circle cx="60" cy="234.27592371871276" r="4.5" fill="#38bdf8" opacity="0.85"/><text x="67" y="248.27592371871276" fill="#7c8aa5" font-size="9">Langton's Ant</text><circle cx="92.3583957963063" cy="266.626936829559" r="4.5" fill="#38bdf8" opacity="0.85"/><text x="99.3583957963063" y="258.626936829559" fill="#7c8aa5" font-size="9">Langton's Loops</text><circle cx="79.88099837725059" cy="293.58611442193086" r="4.5" fill="#38bdf8" opacity="0.85"/><text x="86.88099837725059" y="307.58611442193086" fill="#7c8aa5" font-size="9">von Neumann Universal Constructor</text><circle cx="60" cy="234.27592371871276" r="4.5" fill="#38bdf8" opacity="0.85"/><text x="67" y="226.27592371871276" fill="#7c8aa5" font-size="9">Rule 110</text><circle cx="125.90758055791669" cy="177.7666865315852" r="4.5" fill="#38bdf8" opacity="0.85"/><text x="132.90758055791667" y="191.7666865315852" fill="#7c8aa5" font-size="9">SmoothLife</text><circle cx="125.90758055791669" cy="177.7666865315852" r="4.5" fill="#38bdf8" opacity="0.85"/><text x="132.90758055791667" y="169.7666865315852" fill="#7c8aa5" font-size="9">Larger than Life</text><circle cx="195.90526234448652" cy="247.09028605482717" r="4.5" fill="#38bdf8" opacity="0.85"/><text x="202.90526234448652" y="261.0902860548272" fill="#7c8aa5" font-size="9">Flow Lenia</text><circle cx="156.2985858898076" cy="200.3143623361144" r="4.5" fill="#38bdf8" opacity="0.85"/><text x="163.2985858898076" y="192.3143623361144" fill="#7c8aa5" font-size="9">Particle Lenia</text><circle cx="151.89784406150994" cy="240.15792610250298" r="4.5" fill="#38bdf8" opacity="0.85"/><text x="158.89784406150994" y="254.15792610250298" fill="#7c8aa5" font-size="9">Primordial Particle Systems</text><circle cx="125.95935399119078" cy="177.5566150178784" r="4.5" fill="#38bdf8" opacity="0.85"/><text x="132.95935399119077" y="169.5566150178784" fill="#7c8aa5" font-size="9">Gray-Scott Reaction-Diffusion</text><circle cx="127.87497102233212" cy="414.79737783075086" r="4.5" fill="#38bdf8" opacity="0.85"/><text x="134.87497102233212" y="428.79737783075086" fill="#7c8aa5" font-size="9">Aevol</text><circle cx="152.72621899389537" cy="416.9681168057211" r="4.5" fill="#38bdf8" opacity="0.85"/><text x="159.72621899389537" y="408.9681168057211" fill="#7c8aa5" font-size="9">Avida-ED</text><circle cx="113.3266362723128" cy="370.12216924910604" r="4.5" fill="#38bdf8" opacity="0.85"/><text x="120.3266362723128" y="384.12216924910604" fill="#7c8aa5" font-size="9">Nanopond</text><circle cx="104.83579321536203" cy="351.1457091775924" r="4.5" fill="#38bdf8" opacity="0.85"/><text x="111.83579321536203" y="343.1457091775924" fill="#7c8aa5" font-size="9">Physis</text><circle cx="117.31319063441774" cy="379.8554827175209" r="4.5" fill="#38bdf8" opacity="0.85"/><text x="124.31319063441774" y="393.8554827175209" fill="#7c8aa5" font-size="9">Cosmos</text><circle cx="205.8457615331118" cy="508.76936829558997" r="4.5" fill="#38bdf8" opacity="0.85"/><text x="212.8457615331118" y="500.76936829558997" fill="#7c8aa5" font-size="9">Geb</text><circle cx="117.31319063441774" cy="379.8554827175209" r="4.5" fill="#38bdf8" opacity="0.85"/><text x="124.31319063441774" y="393.8554827175209" fill="#7c8aa5" font-size="9">Amoeba</text><circle cx="173.64268603662777" cy="346.4541120381406" r="4.5" fill="#38bdf8" opacity="0.85"/><text x="180.64268603662777" y="338.4541120381406" fill="#7c8aa5" font-size="9">Evolve 4.0</text><circle cx="144.44246967004096" cy="281.68206197854585" r="4.5" fill="#38bdf8" opacity="0.85"/><text x="151.44246967004096" y="295.68206197854585" fill="#7c8aa5" font-size="9">Squirm3</text><circle cx="125.80403369136852" cy="398.7619189511323" r="4.5" fill="#38bdf8" opacity="0.85"/><text x="132.80403369136852" y="390.7619189511323" fill="#7c8aa5" font-size="9">Network Tierra</text><circle cx="185.65412255621666" cy="362.06942789034565" r="4.5" fill="#38bdf8" opacity="0.85"/><text x="192.65412255621666" y="376.06942789034565" fill="#7c8aa5" font-size="9">biosim4</text><circle cx="181.87466192720808" cy="279.5113230035757" r="4.5" fill="#38bdf8" opacity="0.85"/><text x="188.87466192720808" y="271.5113230035757" fill="#7c8aa5" font-size="9">GOLEM (Genetically Organized Lifelike Electro Mechanics)</text><circle cx="142.99281353836642" cy="203.25536352800952" r="4.5" fill="#38bdf8" opacity="0.85"/><text x="149.99281353836642" y="217.25536352800952" fill="#7c8aa5" font-size="9">Voxelyze / VoxCAD</text><circle cx="206.20817556603043" cy="268.8676996424315" r="4.5" fill="#38bdf8" opacity="0.85"/><text x="213.20817556603043" y="260.8676996424315" fill="#7c8aa5" font-size="9">3D Virtual Creature Evolution (3DVCE)</text><circle cx="239.23962599489994" cy="380.5557210965435" r="4.5" fill="#38bdf8" opacity="0.85"/><text x="246.23962599489994" y="394.5557210965435" fill="#7c8aa5" font-size="9">DERL (Deep Evolutionary Reinforcement Learning)</text><circle cx="234.26937640058728" cy="365.7806912991657" r="4.5" fill="#38bdf8" opacity="0.85"/><text x="241.26937640058728" y="357.7806912991657" fill="#7c8aa5" font-size="9">UNIMAL (Universal Animal design space)</text><circle cx="191.2456533498184" cy="261.65524433849816" r="4.5" fill="#38bdf8" opacity="0.85"/><text x="198.2456533498184" y="275.65524433849816" fill="#7c8aa5" font-size="9">Evolving Soft Robots (Cheney / Unshackling Evolution)</text><circle cx="205.32802720037094" cy="319.28486293206197" r="4.5" fill="#38bdf8" opacity="0.85"/><text x="212.32802720037094" y="311.28486293206197" fill="#7c8aa5" font-size="9">RoboGrammar</text><circle cx="206.10462869948228" cy="384.96722288438616" r="4.5" fill="#38bdf8" opacity="0.85"/><text x="213.10462869948228" y="398.96722288438616" fill="#7c8aa5" font-size="9">Transform2Act</text><circle cx="163.0291322154393" cy="303.8796185935637" r="4.5" fill="#38bdf8" opacity="0.85"/><text x="170.0291322154393" y="295.8796185935637" fill="#7c8aa5" font-size="9">NerveNet</text><circle cx="208.0720191638977" cy="352.9663289630512" r="4.5" fill="#38bdf8" opacity="0.85"/><text x="215.0720191638977" y="366.9663289630512" fill="#7c8aa5" font-size="9">Neural Graph Evolution (NGE)</text><circle cx="166.1355382118847" cy="271.8787246722288" r="4.5" fill="#38bdf8" opacity="0.85"/><text x="173.1355382118847" y="263.8787246722288" fill="#7c8aa5" font-size="9">Krcah Evolved Virtual Creatures (ERO)</text><circle cx="173.53913917007958" cy="492.4538140643623" r="4.5" fill="#38bdf8" opacity="0.85"/><text x="180.53913917007958" y="506.4538140643623" fill="#7c8aa5" font-size="9">NEAT (NeuroEvolution of Augmenting Topologies)</text><circle cx="192.69530948149293" cy="448.7589392133492" r="4.5" fill="#38bdf8" opacity="0.85"/><text x="199.69530948149293" y="440.7589392133492" fill="#7c8aa5" font-size="9">HyperNEAT</text><circle cx="183.68673209180128" cy="424.18057210965435" r="4.5" fill="#38bdf8" opacity="0.85"/><text x="190.68673209180128" y="438.18057210965435" fill="#7c8aa5" font-size="9">ES-HyperNEAT</text><circle cx="184.67042732400898" cy="498.54588796185936" r="4.5" fill="#38bdf8" opacity="0.85"/><text x="191.67042732400898" y="490.54588796185936" fill="#7c8aa5" font-size="9">Novelty Search</text><circle cx="203.8783710686964" cy="454.64094159713943" r="4.5" fill="#38bdf8" opacity="0.85"/><text x="210.8783710686964" y="468.64094159713943" fill="#7c8aa5" font-size="9">MAP-Elites</text><circle cx="203.8783710686964" cy="454.64094159713943" r="4.5" fill="#38bdf8" opacity="0.85"/><text x="210.8783710686964" y="446.64094159713943" fill="#7c8aa5" font-size="9">Quality-Diversity (illumination algorithms)</text><circle cx="181.61579476083764" cy="358.7783075089392" r="4.5" fill="#38bdf8" opacity="0.85"/><text x="188.61579476083764" y="372.7783075089392" fill="#7c8aa5" font-size="9">Go-Explore</text><circle cx="194.09319217989338" cy="443.3671036948748" r="4.5" fill="#38bdf8" opacity="0.85"/><text x="201.09319217989338" y="435.3671036948748" fill="#7c8aa5" font-size="9">OMNI (Open-endedness via Models of human Notions of Interestingness)</text><circle cx="191.60806738273703" cy="451.4198450536353" r="4.5" fill="#38bdf8" opacity="0.85"/><text x="198.60806738273703" y="465.4198450536353" fill="#7c8aa5" font-size="9">Minimal Criterion Coevolution (MCC)</text><circle cx="183.32431805888262" cy="369.35190703218115" r="4.5" fill="#38bdf8" opacity="0.85"/><text x="190.32431805888262" y="361.35190703218115" fill="#7c8aa5" font-size="9">Innovation Engines</text><circle cx="174.26396723591685" cy="291.62544696066743" r="4.5" fill="#38bdf8" opacity="0.85"/><text x="181.26396723591685" y="305.62544696066743" fill="#7c8aa5" font-size="9">EndlessForms</text><circle cx="137.03886871184608" cy="311.4421930870083" r="4.5" fill="#38bdf8" opacity="0.85"/><text x="144.03886871184608" y="303.4421930870083" fill="#7c8aa5" font-size="9">NetLogo</text><circle cx="159.24967158643074" cy="314.52324195470794" r="4.5" fill="#38bdf8" opacity="0.85"/><text x="166.24967158643074" y="328.52324195470794" fill="#7c8aa5" font-size="9">MASON</text><circle cx="149.05030523143498" cy="327.3376042908224" r="4.5" fill="#38bdf8" opacity="0.85"/><text x="156.05030523143498" y="319.3376042908224" fill="#7c8aa5" font-size="9">Repast</text><circle cx="106.64786337995517" cy="289.1045887961859" r="4.5" fill="#38bdf8" opacity="0.85"/><text x="113.64786337995517" y="303.1045887961859" fill="#7c8aa5" font-size="9">StarLogo</text><circle cx="119.1252607990109" cy="317.8143623361144" r="4.5" fill="#38bdf8" opacity="0.85"/><text x="126.1252607990109" y="309.8143623361144" fill="#7c8aa5" font-size="9">Ascape</text><circle cx="168.2064755428483" cy="283.64272943980933" r="4.5" fill="#38bdf8" opacity="0.85"/><text x="175.2064755428483" y="297.64272943980933" fill="#7c8aa5" font-size="9">GAMA Platform</text><circle cx="137.03886871184608" cy="311.4421930870083" r="4.5" fill="#38bdf8" opacity="0.85"/><text x="144.03886871184608" y="303.4421930870083" fill="#7c8aa5" font-size="9">Mesa</text><circle cx="118.50397959972182" cy="189.18057210965435" r="4.5" fill="#38bdf8" opacity="0.85"/><text x="125.50397959972182" y="203.18057210965435" fill="#7c8aa5" font-size="9">OpenSteer</text><circle cx="99.7102233212271" cy="287.7741358760429" r="4.5" fill="#38bdf8" opacity="0.85"/><text x="106.7102233212271" y="279.7741358760429" fill="#7c8aa5" font-size="9">Artificial Anasazi</text><circle cx="80.70937330963604" cy="233.71573301549455" r="4.5" fill="#38bdf8" opacity="0.85"/><text x="87.70937330963604" y="247.71573301549455" fill="#7c8aa5" font-size="9">Schelling Segregation Model</text><circle cx="106.49254308013292" cy="349.74523241954705" r="4.5" fill="#38bdf8" opacity="0.85"/><text x="113.49254308013292" y="341.74523241954705" fill="#7c8aa5" font-size="9">El Farol Bar Problem</text><circle cx="151.5354300285913" cy="129.59028605482712" r="4.5" fill="#38bdf8" opacity="0.85"/><text x="158.5354300285913" y="143.59028605482712" fill="#7c8aa5" font-size="9">Spore</text><circle cx="120.0571825979445" cy="322.996126340882" r="4.5" fill="#38bdf8" opacity="0.85"/><text x="127.0571825979445" y="314.996126340882" fill="#7c8aa5" font-size="9">SimLife: The Genetic Playground</text><circle cx="94.63642686036627" cy="273.48927294398095" r="4.5" fill="#38bdf8" opacity="0.85"/><text x="101.63642686036627" y="287.48927294398095" fill="#7c8aa5" font-size="9">SimEarth: The Living Planet</text><circle cx="101.15987945290162" cy="268.7276519666269" r="4.5" fill="#38bdf8" opacity="0.85"/><text x="108.15987945290162" y="260.7276519666269" fill="#7c8aa5" font-size="9">SimAnt: The Electric Ant Colony</text><circle cx="158.835484120238" cy="241.48837902264597" r="4.5" fill="#38bdf8" opacity="0.85"/><text x="165.835484120238" y="255.48837902264597" fill="#7c8aa5" font-size="9">Thrive</text><circle cx="158.11065605440075" cy="217.61025029797372" r="4.5" fill="#38bdf8" opacity="0.85"/><text x="165.11065605440075" y="209.61025029797372" fill="#7c8aa5" font-size="9">Cell Lab: Evolution Sandbox</text><circle cx="193.26481724750792" cy="315.5735995232419" r="4.5" fill="#38bdf8" opacity="0.85"/><text x="200.26481724750792" y="329.5735995232419" fill="#7c8aa5" font-size="9">Species: Artificial Life, Real Evolution</text><circle cx="198.0797465419983" cy="390.98927294398095" r="4.5" fill="#38bdf8" opacity="0.85"/><text x="205.0797465419983" y="382.98927294398095" fill="#7c8aa5" font-size="9">The Bibites</text><circle cx="99.55490302140484" cy="165.02234803337302" r="4.5" fill="#38bdf8" opacity="0.85"/><text x="106.55490302140484" y="179.02234803337302" fill="#7c8aa5" font-size="9">The Powder Toy</text><circle cx="122.12811992890812" cy="70" r="4.5" fill="#38bdf8" opacity="0.85"/><text x="129.12811992890812" y="62" fill="#7c8aa5" font-size="9">Noita</text><circle cx="127.4607835561394" cy="311.6522646007151" r="4.5" fill="#38bdf8" opacity="0.85"/><text x="134.4607835561394" y="325.6522646007151" fill="#7c8aa5" font-size="9">The Life Engine</text><circle cx="114.10323777142415" cy="124.54856972586413" r="4.5" fill="#38bdf8" opacity="0.85"/><text x="121.10323777142415" y="116.54856972586413" fill="#7c8aa5" font-size="9">Clusters (Particle Life)</text><circle cx="120.88555753032995" cy="107.32270560190699" r="4.5" fill="#38bdf8" opacity="0.85"/><text x="127.88555753032995" y="121.32270560190699" fill="#7c8aa5" font-size="9">Sandspiel</text><circle cx="163.33977281508385" cy="250.3814064362336" r="4.5" fill="#38bdf8" opacity="0.85"/><text x="170.33977281508385" y="242.3814064362336" fill="#7c8aa5" font-size="9">Sebastian Lague Ecosystem</text><circle cx="130.92960358550343" cy="162.43146603098927" r="4.5" fill="#38bdf8" opacity="0.85"/><text x="137.92960358550343" y="176.43146603098927" fill="#7c8aa5" font-size="9">Pezzza's Ant Colony Simulation</text><circle cx="149.67158643072406" cy="259.0643623361144" r="4.5" fill="#38bdf8" opacity="0.85"/><text x="156.67158643072406" y="251.0643623361144" fill="#7c8aa5" font-size="9">Primer Evolution Simulations</text><circle cx="197.30314504288694" cy="244.07926102502978" r="4.5" fill="#38bdf8" opacity="0.85"/><text x="204.30314504288694" y="258.0792610250298" fill="#7c8aa5" font-size="9">Keiwan Evolution</text><circle cx="216.20044818792985" cy="257.3137663885578" r="4.5" fill="#38bdf8" opacity="0.85"/><text x="223.20044818792985" y="249.31376638855778" fill="#7c8aa5" font-size="9">DevoWorm</text><circle cx="129.01398655436208" cy="224.33253873659118" r="4.5" fill="#38bdf8" opacity="0.85"/><text x="136.01398655436208" y="238.33253873659118" fill="#7c8aa5" font-size="9">Morphozoic</text><circle cx="174.62638126883547" cy="365.080452920143" r="4.5" fill="#38bdf8" opacity="0.85"/><text x="181.62638126883547" y="357.080452920143" fill="#7c8aa5" font-size="9">Chromaria</text><circle cx="203.04999613631097" cy="345.40375446960667" r="4.5" fill="#38bdf8" opacity="0.85"/><text x="210.04999613631097" y="359.40375446960667" fill="#7c8aa5" font-size="9">Division Blocks</text><circle cx="189.07116915230662" cy="372.92312276519664" r="4.5" fill="#38bdf8" opacity="0.85"/><text x="196.07116915230662" y="364.92312276519664" fill="#7c8aa5" font-size="9">Voyager (Minecraft LLM agent)</text><circle cx="167.9476083764779" cy="344.4934445768772" r="4.5" fill="#38bdf8" opacity="0.85"/><text x="174.9476083764779" y="358.4934445768772" fill="#7c8aa5" font-size="9">Generative Agents (Smallville)</text><circle cx="211.02310486052082" cy="413.6069725864124" r="4.5" fill="#38bdf8" opacity="0.85"/><text x="218.02310486052082" y="405.6069725864124" fill="#7c8aa5" font-size="9">OMNI-EPIC</text><circle cx="174.83347500193184" cy="259.9046483909416" r="4.5" fill="#38bdf8" opacity="0.85"/><text x="181.83347500193184" y="273.9046483909416" fill="#7c8aa5" font-size="9">Genie (Generative Interactive Environments)</text><circle cx="196.11235607758286" cy="392.7398688915375" r="4.5" fill="#38bdf8" opacity="0.85"/><text x="203.11235607758286" y="384.7398688915375" fill="#7c8aa5" font-size="9">Evolution through Large Models (ELM)</text><circle cx="170.74337377327873" cy="458.98241954707987" r="4.5" fill="#38bdf8" opacity="0.85"/><text x="177.74337377327873" y="472.98241954707987" fill="#7c8aa5" font-size="9">OpenELM</text><circle cx="162.30430414960205" cy="500.4365315852205" r="4.5" fill="#38bdf8" opacity="0.85"/><text x="169.30430414960205" y="492.4365315852205" fill="#7c8aa5" font-size="9">Automated Design of Agentic Systems (ADAS)</text><circle cx="161.21706205084615" cy="440.00595947556616" r="4.5" fill="#38bdf8" opacity="0.85"/><text x="168.21706205084615" y="454.00595947556616" fill="#7c8aa5" font-size="9">The AI Scientist</text><circle cx="176.2313577003323" cy="540" r="4.5" fill="#38bdf8" opacity="0.85"/><text x="183.2313577003323" y="532" fill="#7c8aa5" font-size="9">Darwin Godel Machine (DGM)</text><circle cx="119.90186229812224" cy="406.3945172824791" r="4.5" fill="#38bdf8" opacity="0.85"/><text x="126.90186229812224" y="420.3945172824791" fill="#7c8aa5" font-size="9">Promptbreeder</text><circle cx="128.85866625453986" cy="431.11293206197854" r="4.5" fill="#38bdf8" opacity="0.85"/><text x="135.85866625453986" y="423.11293206197854" fill="#7c8aa5" font-size="9">Quality-Diversity through AI Feedback (QDAIF)</text>
</svg>