<svg xmlns="http://www.w3.org/2000/svg" viewBox="0 0 760 2580" font-family="ui-sans-serif,system-ui,Segoe UI,Roboto,sans-serif" role="img" aria-label="Dendrogram">
<rect width="760" height="2580" rx="14" fill="#0b1220"/>
<text x="28" y="30" fill="#cbd5e1" font-size="18" font-weight="700">Capability dendrogram (average-linkage, Euclidean 9-axis)</text><text x="28" y="50" fill="#7c8aa5" font-size="12">leaves grouped by capability-shape similarity; join depth = merge distance.</text><text x="598" y="84" fill="#f59e0b" font-size="10" font-weight="700">COSMOGONIC</text><text x="598" y="106" fill="#cbd5e1" font-size="10" font-weight="400">OpenWorm</text><text x="598" y="128" fill="#cbd5e1" font-size="10" font-weight="400">NerveNet</text><path d="M295.828525285325 103 H590" stroke="#34d399" stroke-width="1.3" fill="none" opacity="0.85"/><path d="M295.828525285325 125 H590" stroke="#34d399" stroke-width="1.3" fill="none" opacity="0.85"/><path d="M295.828525285325 103 V125" stroke="#34d399" stroke-width="1.3" fill="none" opacity="0.85"/><text x="598" y="150" fill="#cbd5e1" font-size="10" font-weight="400">The AI Scientist</text><text x="598" y="172" fill="#cbd5e1" font-size="10" font-weight="400">POET</text><text x="598" y="194" fill="#cbd5e1" font-size="10" font-weight="400">OMNI (Open-endedness via Models of human Notions of Interestingness)</text><path d="M590 169 H590" stroke="#34d399" stroke-width="1.3" fill="none" opacity="0.85"/><path d="M590 191 H590" stroke="#34d399" stroke-width="1.3" fill="none" opacity="0.85"/><path d="M590 169 V191" stroke="#34d399" stroke-width="1.3" fill="none" opacity="0.85"/><text x="598" y="216" fill="#cbd5e1" font-size="10" font-weight="400">Go-Explore</text><text x="598" y="238" fill="#cbd5e1" font-size="10" font-weight="400">Voyager (Minecraft LLM agent)</text><path d="M453.82506796471046 213 H590" stroke="#34d399" stroke-width="1.3" fill="none" opacity="0.85"/><path d="M453.82506796471046 235 H590" stroke="#34d399" stroke-width="1.3" fill="none" opacity="0.85"/><path d="M453.82506796471046 213 V235" stroke="#34d399" stroke-width="1.3" fill="none" opacity="0.85"/><path d="M425.6223161125848 180 H590" stroke="#34d399" stroke-width="1.3" fill="none" opacity="0.85"/><path d="M425.6223161125848 224 H453.82506796471046" stroke="#34d399" stroke-width="1.3" fill="none" opacity="0.85"/><path d="M425.6223161125848 180 V224" stroke="#34d399" stroke-width="1.3" fill="none" opacity="0.85"/><path d="M393.562012044746 147 H590" stroke="#34d399" stroke-width="1.3" fill="none" opacity="0.85"/><path d="M393.562012044746 202 H425.6223161125848" stroke="#34d399" stroke-width="1.3" fill="none" opacity="0.85"/><path d="M393.562012044746 147 V202" stroke="#34d399" stroke-width="1.3" fill="none" opacity="0.85"/><text x="598" y="260" fill="#cbd5e1" font-size="10" font-weight="400">ASAL</text><text x="598" y="282" fill="#cbd5e1" font-size="10" font-weight="400">OMNI-EPIC</text><path d="M367.6272671702413 257 H590" stroke="#34d399" stroke-width="1.3" fill="none" opacity="0.85"/><path d="M367.6272671702413 279 H590" stroke="#34d399" stroke-width="1.3" fill="none" opacity="0.85"/><path d="M367.6272671702413 257 V279" stroke="#34d399" stroke-width="1.3" fill="none" opacity="0.85"/><path d="M359.7377223664319 174.5 H393.562012044746" stroke="#34d399" stroke-width="1.3" fill="none" opacity="0.85"/><path d="M359.7377223664319 268 H367.6272671702413" stroke="#34d399" stroke-width="1.3" fill="none" opacity="0.85"/><path d="M359.7377223664319 174.5 V268" stroke="#34d399" stroke-width="1.3" fill="none" opacity="0.85"/><text x="598" y="304" fill="#cbd5e1" font-size="10" font-weight="400">Promptbreeder</text><text x="598" y="326" fill="#cbd5e1" font-size="10" font-weight="400">Quality-Diversity through AI Feedback (QDAIF)</text><path d="M511.3793663325466 301 H590" stroke="#34d399" stroke-width="1.3" fill="none" opacity="0.85"/><path d="M511.3793663325466 323 H590" stroke="#34d399" stroke-width="1.3" fill="none" opacity="0.85"/><path d="M511.3793663325466 301 V323" stroke="#34d399" stroke-width="1.3" fill="none" opacity="0.85"/><text x="598" y="348" fill="#cbd5e1" font-size="10" font-weight="400">Automated Design of Agentic Systems (ADAS)</text><text x="598" y="370" fill="#cbd5e1" font-size="10" font-weight="400">Darwin Godel Machine (DGM)</text><path d="M478.8136335851206 345 H590" stroke="#34d399" stroke-width="1.3" fill="none" opacity="0.85"/><path d="M478.8136335851206 367 H590" stroke="#34d399" stroke-width="1.3" fill="none" opacity="0.85"/><path d="M478.8136335851206 345 V367" stroke="#34d399" stroke-width="1.3" fill="none" opacity="0.85"/><path d="M372.2261573088668 312 H511.3793663325466" stroke="#34d399" stroke-width="1.3" fill="none" opacity="0.85"/><path d="M372.2261573088668 356 H478.8136335851206" stroke="#34d399" stroke-width="1.3" fill="none" opacity="0.85"/><path d="M372.2261573088668 312 V356" stroke="#34d399" stroke-width="1.3" fill="none" opacity="0.85"/><text x="598" y="392" fill="#cbd5e1" font-size="10" font-weight="400">NEAT (NeuroEvolution of Augmenting Topologies)</text><text x="598" y="414" fill="#cbd5e1" font-size="10" font-weight="400">HyperNEAT</text><text x="598" y="436" fill="#cbd5e1" font-size="10" font-weight="400">ES-HyperNEAT</text><path d="M511.3793663325466 411 H590" stroke="#34d399" stroke-width="1.3" fill="none" opacity="0.85"/><path d="M511.3793663325466 433 H590" stroke="#34d399" stroke-width="1.3" fill="none" opacity="0.85"/><path d="M511.3793663325466 411 V433" stroke="#34d399" stroke-width="1.3" fill="none" opacity="0.85"/><path d="M466.31935077491556 389 H590" stroke="#34d399" stroke-width="1.3" fill="none" opacity="0.85"/><path d="M466.31935077491556 422 H511.3793663325466" stroke="#34d399" stroke-width="1.3" fill="none" opacity="0.85"/><path d="M466.31935077491556 389 V422" stroke="#34d399" stroke-width="1.3" fill="none" opacity="0.85"/><text x="598" y="458" fill="#cbd5e1" font-size="10" font-weight="400">Evolution through Large Models (ELM)</text><text x="598" y="480" fill="#cbd5e1" font-size="10" font-weight="400">MAP-Elites</text><text x="598" y="502" fill="#cbd5e1" font-size="10" font-weight="400">Quality-Diversity (illumination algorithms)</text><path d="M590 477 H590" stroke="#34d399" stroke-width="1.3" fill="none" opacity="0.85"/><path d="M590 499 H590" stroke="#34d399" stroke-width="1.3" fill="none" opacity="0.85"/><path d="M590 477 V499" stroke="#34d399" stroke-width="1.3" fill="none" opacity="0.85"/><text x="598" y="524" fill="#cbd5e1" font-size="10" font-weight="400">Novelty Search</text><text x="598" y="546" fill="#cbd5e1" font-size="10" font-weight="400">OpenELM</text><path d="M478.8136335851206 521 H590" stroke="#34d399" stroke-width="1.3" fill="none" opacity="0.85"/><path d="M478.8136335851206 543 H590" stroke="#34d399" stroke-width="1.3" fill="none" opacity="0.85"/><path d="M478.8136335851206 521 V543" stroke="#34d399" stroke-width="1.3" fill="none" opacity="0.85"/><path d="M432.75873266509325 488 H590" stroke="#34d399" stroke-width="1.3" fill="none" opacity="0.85"/><path d="M432.75873266509325 532 H478.8136335851206" stroke="#34d399" stroke-width="1.3" fill="none" opacity="0.85"/><path d="M432.75873266509325 488 V532" stroke="#34d399" stroke-width="1.3" fill="none" opacity="0.85"/><path d="M398.094137041536 455 H590" stroke="#34d399" stroke-width="1.3" fill="none" opacity="0.85"/><path d="M398.094137041536 510 H432.75873266509325" stroke="#34d399" stroke-width="1.3" fill="none" opacity="0.85"/><path d="M398.094137041536 455 V510" stroke="#34d399" stroke-width="1.3" fill="none" opacity="0.85"/><path d="M372.0390448993849 405.5 H466.31935077491556" stroke="#34d399" stroke-width="1.3" fill="none" opacity="0.85"/><path d="M372.0390448993849 482.5 H398.094137041536" stroke="#34d399" stroke-width="1.3" fill="none" opacity="0.85"/><path d="M372.0390448993849 405.5 V482.5" stroke="#34d399" stroke-width="1.3" fill="none" opacity="0.85"/><path d="M319.130269812861 334 H372.2261573088668" stroke="#34d399" stroke-width="1.3" fill="none" opacity="0.85"/><path d="M319.130269812861 444 H372.0390448993849" stroke="#34d399" stroke-width="1.3" fill="none" opacity="0.85"/><path d="M319.130269812861 334 V444" stroke="#34d399" stroke-width="1.3" fill="none" opacity="0.85"/><path d="M248.78690363168286 221.25 H359.7377223664319" stroke="#34d399" stroke-width="1.3" fill="none" opacity="0.85"/><path d="M248.78690363168286 389 H319.130269812861" stroke="#34d399" stroke-width="1.3" fill="none" opacity="0.85"/><path d="M248.78690363168286 221.25 V389" stroke="#34d399" stroke-width="1.3" fill="none" opacity="0.85"/><text x="598" y="568" fill="#cbd5e1" font-size="10" font-weight="400">DERL (Deep Evolutionary Reinforcement Learning)</text><text x="598" y="590" fill="#cbd5e1" font-size="10" font-weight="400">UNIMAL (Universal Animal design space)</text><path d="M511.3793663325466 565 H590" stroke="#34d399" stroke-width="1.3" fill="none" opacity="0.85"/><path d="M511.3793663325466 587 H590" stroke="#34d399" stroke-width="1.3" fill="none" opacity="0.85"/><path d="M511.3793663325466 565 V587" stroke="#34d399" stroke-width="1.3" fill="none" opacity="0.85"/><text x="598" y="612" fill="#cbd5e1" font-size="10" font-weight="400">Transform2Act</text><text x="598" y="634" fill="#cbd5e1" font-size="10" font-weight="400">Neural Graph Evolution (NGE)</text><path d="M453.82506796471046 609 H590" stroke="#34d399" stroke-width="1.3" fill="none" opacity="0.85"/><path d="M453.82506796471046 631 H590" stroke="#34d399" stroke-width="1.3" fill="none" opacity="0.85"/><path d="M453.82506796471046 609 V631" stroke="#34d399" stroke-width="1.3" fill="none" opacity="0.85"/><path d="M443.29190031490185 576 H511.3793663325466" stroke="#34d399" stroke-width="1.3" fill="none" opacity="0.85"/><path d="M443.29190031490185 620 H453.82506796471046" stroke="#34d399" stroke-width="1.3" fill="none" opacity="0.85"/><path d="M443.29190031490185 576 V620" stroke="#34d399" stroke-width="1.3" fill="none" opacity="0.85"/><text x="598" y="656" fill="#cbd5e1" font-size="10" font-weight="400">Karl Sims VC</text><text x="598" y="678" fill="#cbd5e1" font-size="10" font-weight="400">3D Virtual Creature Evolution (3DVCE)</text><text x="598" y="700" fill="#cbd5e1" font-size="10" font-weight="400">Keiwan Evolution</text><path d="M511.3793663325466 675 H590" stroke="#34d399" stroke-width="1.3" fill="none" opacity="0.85"/><path d="M511.3793663325466 697 H590" stroke="#34d399" stroke-width="1.3" fill="none" opacity="0.85"/><path d="M511.3793663325466 675 V697" stroke="#34d399" stroke-width="1.3" fill="none" opacity="0.85"/><path d="M443.29190031490185 653 H590" stroke="#34d399" stroke-width="1.3" fill="none" opacity="0.85"/><path d="M443.29190031490185 686 H511.3793663325466" stroke="#34d399" stroke-width="1.3" fill="none" opacity="0.85"/><path d="M443.29190031490185 653 V686" stroke="#34d399" stroke-width="1.3" fill="none" opacity="0.85"/><text x="598" y="722" fill="#cbd5e1" font-size="10" font-weight="400">Evolving Soft Robots (Cheney / Unshackling Evolution)</text><text x="598" y="744" fill="#cbd5e1" font-size="10" font-weight="400">GOLEM (Genetically Organized Lifelike Electro Mechanics)</text><text x="598" y="766" fill="#cbd5e1" font-size="10" font-weight="400">Krcah Evolved Virtual Creatures (ERO)</text><path d="M453.82506796471046 741 H590" stroke="#34d399" stroke-width="1.3" fill="none" opacity="0.85"/><path d="M453.82506796471046 763 H590" stroke="#34d399" stroke-width="1.3" fill="none" opacity="0.85"/><path d="M453.82506796471046 741 V763" stroke="#34d399" stroke-width="1.3" fill="none" opacity="0.85"/><path d="M423.47882567527944 719 H590" stroke="#34d399" stroke-width="1.3" fill="none" opacity="0.85"/><path d="M423.47882567527944 752 H453.82506796471046" stroke="#34d399" stroke-width="1.3" fill="none" opacity="0.85"/><path d="M423.47882567527944 719 V752" stroke="#34d399" stroke-width="1.3" fill="none" opacity="0.85"/><path d="M404.23303607883514 669.5 H443.29190031490185" stroke="#34d399" stroke-width="1.3" fill="none" opacity="0.85"/><path d="M404.23303607883514 735.5 H423.47882567527944" stroke="#34d399" stroke-width="1.3" fill="none" opacity="0.85"/><path d="M404.23303607883514 669.5 V735.5" stroke="#34d399" stroke-width="1.3" fill="none" opacity="0.85"/><path d="M325.38818957614586 598 H443.29190031490185" stroke="#34d399" stroke-width="1.3" fill="none" opacity="0.85"/><path d="M325.38818957614586 702.5 H404.23303607883514" stroke="#34d399" stroke-width="1.3" fill="none" opacity="0.85"/><path d="M325.38818957614586 598 V702.5" stroke="#34d399" stroke-width="1.3" fill="none" opacity="0.85"/><text x="598" y="788" fill="#cbd5e1" font-size="10" font-weight="400">Cell Lab: Evolution Sandbox</text><text x="598" y="810" fill="#cbd5e1" font-size="10" font-weight="400">Primordial Particle Systems</text><text x="598" y="832" fill="#cbd5e1" font-size="10" font-weight="400">Squirm3</text><path d="M453.82506796471046 807 H590" stroke="#34d399" stroke-width="1.3" fill="none" opacity="0.85"/><path d="M453.82506796471046 829 H590" stroke="#34d399" stroke-width="1.3" fill="none" opacity="0.85"/><path d="M453.82506796471046 807 V829" stroke="#34d399" stroke-width="1.3" fill="none" opacity="0.85"/><path d="M443.29190031490185 785 H590" stroke="#34d399" stroke-width="1.3" fill="none" opacity="0.85"/><path d="M443.29190031490185 818 H453.82506796471046" stroke="#34d399" stroke-width="1.3" fill="none" opacity="0.85"/><path d="M443.29190031490185 785 V818" stroke="#34d399" stroke-width="1.3" fill="none" opacity="0.85"/><text x="598" y="854" fill="#cbd5e1" font-size="10" font-weight="400">Species: Artificial Life, Real Evolution</text><text x="598" y="876" fill="#cbd5e1" font-size="10" font-weight="400">Sebastian Lague Ecosystem</text><text x="598" y="898" fill="#cbd5e1" font-size="10" font-weight="400">Primer Evolution Simulations</text><path d="M478.8136335851206 873 H590" stroke="#34d399" stroke-width="1.3" fill="none" opacity="0.85"/><path d="M478.8136335851206 895 H590" stroke="#34d399" stroke-width="1.3" fill="none" opacity="0.85"/><path d="M478.8136335851206 873 V895" stroke="#34d399" stroke-width="1.3" fill="none" opacity="0.85"/><path d="M434.011993325088 851 H590" stroke="#34d399" stroke-width="1.3" fill="none" opacity="0.85"/><path d="M434.011993325088 884 H478.8136335851206" stroke="#34d399" stroke-width="1.3" fill="none" opacity="0.85"/><path d="M434.011993325088 851 V884" stroke="#34d399" stroke-width="1.3" fill="none" opacity="0.85"/><path d="M402.30289723960135 801.5 H443.29190031490185" stroke="#34d399" stroke-width="1.3" fill="none" opacity="0.85"/><path d="M402.30289723960135 867.5 H434.011993325088" stroke="#34d399" stroke-width="1.3" fill="none" opacity="0.85"/><path d="M402.30289723960135 801.5 V867.5" stroke="#34d399" stroke-width="1.3" fill="none" opacity="0.85"/><text x="598" y="920" fill="#cbd5e1" font-size="10" font-weight="400">Darwin Pond</text><text x="598" y="942" fill="#cbd5e1" font-size="10" font-weight="400">Gene Pool</text><path d="M472.0690494988199 917 H590" stroke="#34d399" stroke-width="1.3" fill="none" opacity="0.85"/><path d="M472.0690494988199 939 H590" stroke="#34d399" stroke-width="1.3" fill="none" opacity="0.85"/><path d="M472.0690494988199 917 V939" stroke="#34d399" stroke-width="1.3" fill="none" opacity="0.85"/><text x="598" y="964" fill="#cbd5e1" font-size="10" font-weight="400">Picbreeder</text><text x="598" y="986" fill="#cbd5e1" font-size="10" font-weight="400">EndlessForms</text><path d="M414.1989186854656 961 H590" stroke="#34d399" stroke-width="1.3" fill="none" opacity="0.85"/><path d="M414.1989186854656 983 H590" stroke="#34d399" stroke-width="1.3" fill="none" opacity="0.85"/><path d="M414.1989186854656 961 V983" stroke="#34d399" stroke-width="1.3" fill="none" opacity="0.85"/><path d="M388.2534969111204 928 H472.0690494988199" stroke="#34d399" stroke-width="1.3" fill="none" opacity="0.85"/><path d="M388.2534969111204 972 H414.1989186854656" stroke="#34d399" stroke-width="1.3" fill="none" opacity="0.85"/><path d="M388.2534969111204 928 V972" stroke="#34d399" stroke-width="1.3" fill="none" opacity="0.85"/><text x="598" y="1008" fill="#cbd5e1" font-size="10" font-weight="400">ALIEN</text><text x="598" y="1030" fill="#cbd5e1" font-size="10" font-weight="400">breve</text><text x="598" y="1052" fill="#cbd5e1" font-size="10" font-weight="400">Framsticks</text><text x="598" y="1074" fill="#cbd5e1" font-size="10" font-weight="400">Division Blocks</text><path d="M423.220450377681 1049 H590" stroke="#34d399" stroke-width="1.3" fill="none" opacity="0.85"/><path d="M423.220450377681 1071 H590" stroke="#34d399" stroke-width="1.3" fill="none" opacity="0.85"/><path d="M423.220450377681 1049 V1071" stroke="#34d399" stroke-width="1.3" fill="none" opacity="0.85"/><path d="M394.443722980197 1027 H590" stroke="#34d399" stroke-width="1.3" fill="none" opacity="0.85"/><path d="M394.443722980197 1060 H423.220450377681" stroke="#34d399" stroke-width="1.3" fill="none" opacity="0.85"/><path d="M394.443722980197 1027 V1060" stroke="#34d399" stroke-width="1.3" fill="none" opacity="0.85"/><path d="M363.98404788633326 1005 H590" stroke="#34d399" stroke-width="1.3" fill="none" opacity="0.85"/><path d="M363.98404788633326 1043.5 H394.443722980197" stroke="#34d399" stroke-width="1.3" fill="none" opacity="0.85"/><path d="M363.98404788633326 1005 V1043.5" stroke="#34d399" stroke-width="1.3" fill="none" opacity="0.85"/><path d="M343.607857513887 950 H388.2534969111204" stroke="#34d399" stroke-width="1.3" fill="none" opacity="0.85"/><path d="M343.607857513887 1024.25 H363.98404788633326" stroke="#34d399" stroke-width="1.3" fill="none" opacity="0.85"/><path d="M343.607857513887 950 V1024.25" stroke="#34d399" stroke-width="1.3" fill="none" opacity="0.85"/><path d="M316.3498751344846 834.5 H402.30289723960135" stroke="#34d399" stroke-width="1.3" fill="none" opacity="0.85"/><path d="M316.3498751344846 987.125 H343.607857513887" stroke="#34d399" stroke-width="1.3" fill="none" opacity="0.85"/><path d="M316.3498751344846 834.5 V987.125" stroke="#34d399" stroke-width="1.3" fill="none" opacity="0.85"/><text x="598" y="1096" fill="#cbd5e1" font-size="10" font-weight="400">Polyworld</text><text x="598" y="1118" fill="#cbd5e1" font-size="10" font-weight="400">Creatures</text><path d="M405.618270399436 1093 H590" stroke="#34d399" stroke-width="1.3" fill="none" opacity="0.85"/><path d="M405.618270399436 1115 H590" stroke="#34d399" stroke-width="1.3" fill="none" opacity="0.85"/><path d="M405.618270399436 1093 V1115" stroke="#34d399" stroke-width="1.3" fill="none" opacity="0.85"/><text x="598" y="1140" fill="#cbd5e1" font-size="10" font-weight="400">Innovation Engines</text><text x="598" y="1162" fill="#cbd5e1" font-size="10" font-weight="400">Geb</text><text x="598" y="1184" fill="#cbd5e1" font-size="10" font-weight="400">MABE</text><text x="598" y="1206" fill="#cbd5e1" font-size="10" font-weight="400">Minimal Criterion Coevolution (MCC)</text><path d="M453.82506796471046 1181 H590" stroke="#34d399" stroke-width="1.3" fill="none" opacity="0.85"/><path d="M453.82506796471046 1203 H590" stroke="#34d399" stroke-width="1.3" fill="none" opacity="0.85"/><path d="M453.82506796471046 1181 V1203" stroke="#34d399" stroke-width="1.3" fill="none" opacity="0.85"/><path d="M423.47882567527944 1159 H590" stroke="#34d399" stroke-width="1.3" fill="none" opacity="0.85"/><path d="M423.47882567527944 1192 H453.82506796471046" stroke="#34d399" stroke-width="1.3" fill="none" opacity="0.85"/><path d="M423.47882567527944 1159 V1192" stroke="#34d399" stroke-width="1.3" fill="none" opacity="0.85"/><text x="598" y="1228" fill="#cbd5e1" font-size="10" font-weight="400">Chromaria</text><text x="598" y="1250" fill="#cbd5e1" font-size="10" font-weight="400">Evolve 4.0</text><text x="598" y="1272" fill="#cbd5e1" font-size="10" font-weight="400">biosim4</text><text x="598" y="1294" fill="#cbd5e1" font-size="10" font-weight="400">The Bibites</text><path d="M478.8136335851206 1269 H590" stroke="#34d399" stroke-width="1.3" fill="none" opacity="0.85"/><path d="M478.8136335851206 1291 H590" stroke="#34d399" stroke-width="1.3" fill="none" opacity="0.85"/><path d="M478.8136335851206 1269 V1291" stroke="#34d399" stroke-width="1.3" fill="none" opacity="0.85"/><path d="M453.82506796471046 1247 H590" stroke="#34d399" stroke-width="1.3" fill="none" opacity="0.85"/><path d="M453.82506796471046 1280 H478.8136335851206" stroke="#34d399" stroke-width="1.3" fill="none" opacity="0.85"/><path d="M453.82506796471046 1247 V1280" stroke="#34d399" stroke-width="1.3" fill="none" opacity="0.85"/><path d="M389.62872902011316 1225 H590" stroke="#34d399" stroke-width="1.3" fill="none" opacity="0.85"/><path d="M389.62872902011316 1263.5 H453.82506796471046" stroke="#34d399" stroke-width="1.3" fill="none" opacity="0.85"/><path d="M389.62872902011316 1225 V1263.5" stroke="#34d399" stroke-width="1.3" fill="none" opacity="0.85"/><path d="M368.1655453124024 1175.5 H423.47882567527944" stroke="#34d399" stroke-width="1.3" fill="none" opacity="0.85"/><path d="M368.1655453124024 1244.25 H389.62872902011316" stroke="#34d399" stroke-width="1.3" fill="none" opacity="0.85"/><path d="M368.1655453124024 1175.5 V1244.25" stroke="#34d399" stroke-width="1.3" fill="none" opacity="0.85"/><path d="M331.0243878412105 1137 H590" stroke="#34d399" stroke-width="1.3" fill="none" opacity="0.85"/><path d="M331.0243878412105 1209.875 H368.1655453124024" stroke="#34d399" stroke-width="1.3" fill="none" opacity="0.85"/><path d="M331.0243878412105 1137 V1209.875" stroke="#34d399" stroke-width="1.3" fill="none" opacity="0.85"/><path d="M311.1808700414985 1104 H405.618270399436" stroke="#34d399" stroke-width="1.3" fill="none" opacity="0.85"/><path d="M311.1808700414985 1173.4375 H331.0243878412105" stroke="#34d399" stroke-width="1.3" fill="none" opacity="0.85"/><path d="M311.1808700414985 1104 V1173.4375" stroke="#34d399" stroke-width="1.3" fill="none" opacity="0.85"/><path d="M265.5072825188829 910.8125 H316.3498751344846" stroke="#34d399" stroke-width="1.3" fill="none" opacity="0.85"/><path d="M265.5072825188829 1138.71875 H311.1808700414985" stroke="#34d399" stroke-width="1.3" fill="none" opacity="0.85"/><path d="M265.5072825188829 910.8125 V1138.71875" stroke="#34d399" stroke-width="1.3" fill="none" opacity="0.85"/><path d="M246.62466973854123 650.25 H325.38818957614586" stroke="#34d399" stroke-width="1.3" fill="none" opacity="0.85"/><path d="M246.62466973854123 1024.765625 H265.5072825188829" stroke="#34d399" stroke-width="1.3" fill="none" opacity="0.85"/><path d="M246.62466973854123 650.25 V1024.765625" stroke="#34d399" stroke-width="1.3" fill="none" opacity="0.85"/><path d="M195.05876969791203 305.125 H248.78690363168286" stroke="#34d399" stroke-width="1.3" fill="none" opacity="0.85"/><path d="M195.05876969791203 837.5078125 H246.62466973854123" stroke="#34d399" stroke-width="1.3" fill="none" opacity="0.85"/><path d="M195.05876969791203 305.125 V837.5078125" stroke="#34d399" stroke-width="1.3" fill="none" opacity="0.85"/><text x="598" y="1316" fill="#cbd5e1" font-size="10" font-weight="400">Sugarscape</text><text x="598" y="1338" fill="#cbd5e1" font-size="10" font-weight="400">Swarm</text><path d="M502.0994593427328 1313 H590" stroke="#34d399" stroke-width="1.3" fill="none" opacity="0.85"/><path d="M502.0994593427328 1335 H590" stroke="#34d399" stroke-width="1.3" fill="none" opacity="0.85"/><path d="M502.0994593427328 1313 V1335" stroke="#34d399" stroke-width="1.3" fill="none" opacity="0.85"/><text x="598" y="1360" fill="#cbd5e1" font-size="10" font-weight="400">Echo</text><text x="598" y="1382" fill="#cbd5e1" font-size="10" font-weight="400">SimLife: The Genetic Playground</text><path d="M414.1989186854656 1357 H590" stroke="#34d399" stroke-width="1.3" fill="none" opacity="0.85"/><path d="M414.1989186854656 1379 H590" stroke="#34d399" stroke-width="1.3" fill="none" opacity="0.85"/><path d="M414.1989186854656 1357 V1379" stroke="#34d399" stroke-width="1.3" fill="none" opacity="0.85"/><path d="M400.41122993135815 1324 H502.0994593427328" stroke="#34d399" stroke-width="1.3" fill="none" opacity="0.85"/><path d="M400.41122993135815 1368 H414.1989186854656" stroke="#34d399" stroke-width="1.3" fill="none" opacity="0.85"/><path d="M400.41122993135815 1324 V1368" stroke="#34d399" stroke-width="1.3" fill="none" opacity="0.85"/><text x="598" y="1404" fill="#cbd5e1" font-size="10" font-weight="400">Tierra</text><text x="598" y="1426" fill="#cbd5e1" font-size="10" font-weight="400">Avida</text><path d="M448.26463700126317 1401 H590" stroke="#34d399" stroke-width="1.3" fill="none" opacity="0.85"/><path d="M448.26463700126317 1423 H590" stroke="#34d399" stroke-width="1.3" fill="none" opacity="0.85"/><path d="M448.26463700126317 1401 V1423" stroke="#34d399" stroke-width="1.3" fill="none" opacity="0.85"/><text x="598" y="1448" fill="#cbd5e1" font-size="10" font-weight="400">The Life Engine</text><text x="598" y="1470" fill="#cbd5e1" font-size="10" font-weight="400">Nanopond</text><text x="598" y="1492" fill="#cbd5e1" font-size="10" font-weight="400">Physis</text><path d="M478.8136335851206 1467 H590" stroke="#34d399" stroke-width="1.3" fill="none" opacity="0.85"/><path d="M478.8136335851206 1489 H590" stroke="#34d399" stroke-width="1.3" fill="none" opacity="0.85"/><path d="M478.8136335851206 1467 V1489" stroke="#34d399" stroke-width="1.3" fill="none" opacity="0.85"/><text x="598" y="1514" fill="#cbd5e1" font-size="10" font-weight="400">Network Tierra</text><text x="598" y="1536" fill="#cbd5e1" font-size="10" font-weight="400">Core War</text><text x="598" y="1558" fill="#cbd5e1" font-size="10" font-weight="400">Cosmos</text><text x="598" y="1580" fill="#cbd5e1" font-size="10" font-weight="400">Amoeba</text><path d="M590 1555 H590" stroke="#34d399" stroke-width="1.3" fill="none" opacity="0.85"/><path d="M590 1577 H590" stroke="#34d399" stroke-width="1.3" fill="none" opacity="0.85"/><path d="M590 1555 V1577" stroke="#34d399" stroke-width="1.3" fill="none" opacity="0.85"/><path d="M478.8136335851206 1533 H590" stroke="#34d399" stroke-width="1.3" fill="none" opacity="0.85"/><path d="M478.8136335851206 1566 H590" stroke="#34d399" stroke-width="1.3" fill="none" opacity="0.85"/><path d="M478.8136335851206 1533 V1566" stroke="#34d399" stroke-width="1.3" fill="none" opacity="0.85"/><path d="M463.46199994511153 1511 H590" stroke="#34d399" stroke-width="1.3" fill="none" opacity="0.85"/><path d="M463.46199994511153 1549.5 H478.8136335851206" stroke="#34d399" stroke-width="1.3" fill="none" opacity="0.85"/><path d="M463.46199994511153 1511 V1549.5" stroke="#34d399" stroke-width="1.3" fill="none" opacity="0.85"/><path d="M457.12564968953103 1478 H478.8136335851206" stroke="#34d399" stroke-width="1.3" fill="none" opacity="0.85"/><path d="M457.12564968953103 1530.25 H463.46199994511153" stroke="#34d399" stroke-width="1.3" fill="none" opacity="0.85"/><path d="M457.12564968953103 1478 V1530.25" stroke="#34d399" stroke-width="1.3" fill="none" opacity="0.85"/><path d="M435.24809099031904 1445 H590" stroke="#34d399" stroke-width="1.3" fill="none" opacity="0.85"/><path d="M435.24809099031904 1504.125 H457.12564968953103" stroke="#34d399" stroke-width="1.3" fill="none" opacity="0.85"/><path d="M435.24809099031904 1445 V1504.125" stroke="#34d399" stroke-width="1.3" fill="none" opacity="0.85"/><path d="M413.44287718592426 1412 H448.26463700126317" stroke="#34d399" stroke-width="1.3" fill="none" opacity="0.85"/><path d="M413.44287718592426 1474.5625 H435.24809099031904" stroke="#34d399" stroke-width="1.3" fill="none" opacity="0.85"/><path d="M413.44287718592426 1412 V1474.5625" stroke="#34d399" stroke-width="1.3" fill="none" opacity="0.85"/><text x="598" y="1602" fill="#cbd5e1" font-size="10" font-weight="400">Aevol</text><text x="598" y="1624" fill="#cbd5e1" font-size="10" font-weight="400">Avida-ED</text><path d="M397.41956426045914 1599 H590" stroke="#34d399" stroke-width="1.3" fill="none" opacity="0.85"/><path d="M397.41956426045914 1621 H590" stroke="#34d399" stroke-width="1.3" fill="none" opacity="0.85"/><path d="M397.41956426045914 1599 V1621" stroke="#34d399" stroke-width="1.3" fill="none" opacity="0.85"/><path d="M350.9508332330952 1443.28125 H413.44287718592426" stroke="#34d399" stroke-width="1.3" fill="none" opacity="0.85"/><path d="M350.9508332330952 1610 H397.41956426045914" stroke="#34d399" stroke-width="1.3" fill="none" opacity="0.85"/><path d="M350.9508332330952 1443.28125 V1610" stroke="#34d399" stroke-width="1.3" fill="none" opacity="0.85"/><path d="M321.9911880041284 1346 H400.41122993135815" stroke="#34d399" stroke-width="1.3" fill="none" opacity="0.85"/><path d="M321.9911880041284 1526.640625 H350.9508332330952" stroke="#34d399" stroke-width="1.3" fill="none" opacity="0.85"/><path d="M321.9911880041284 1346 V1526.640625" stroke="#34d399" stroke-width="1.3" fill="none" opacity="0.85"/><text x="598" y="1646" fill="#cbd5e1" font-size="10" font-weight="400">El Farol Bar Problem</text><text x="598" y="1668" fill="#cbd5e1" font-size="10" font-weight="400">Generative Agents (Smallville)</text><path d="M354.1380989976398 1643 H590" stroke="#34d399" stroke-width="1.3" fill="none" opacity="0.85"/><path d="M354.1380989976398 1665 H590" stroke="#34d399" stroke-width="1.3" fill="none" opacity="0.85"/><path d="M354.1380989976398 1643 V1665" stroke="#34d399" stroke-width="1.3" fill="none" opacity="0.85"/><text x="598" y="1690" fill="#cbd5e1" font-size="10" font-weight="400">Artificial Anasazi</text><text x="598" y="1712" fill="#cbd5e1" font-size="10" font-weight="400">Schelling Segregation Model</text><text x="598" y="1734" fill="#cbd5e1" font-size="10" font-weight="400">SimEarth: The Living Planet</text><text x="598" y="1756" fill="#cbd5e1" font-size="10" font-weight="400">SimAnt: The Electric Ant Colony</text><text x="598" y="1778" fill="#cbd5e1" font-size="10" font-weight="400">StarLogo</text><text x="598" y="1800" fill="#cbd5e1" font-size="10" font-weight="400">Ascape</text><path d="M478.8136335851206 1775 H590" stroke="#34d399" stroke-width="1.3" fill="none" opacity="0.85"/><path d="M478.8136335851206 1797 H590" stroke="#34d399" stroke-width="1.3" fill="none" opacity="0.85"/><path d="M478.8136335851206 1775 V1797" stroke="#34d399" stroke-width="1.3" fill="none" opacity="0.85"/><path d="M455.7861831251069 1753 H590" stroke="#34d399" stroke-width="1.3" fill="none" opacity="0.85"/><path d="M455.7861831251069 1786 H478.8136335851206" stroke="#34d399" stroke-width="1.3" fill="none" opacity="0.85"/><path d="M455.7861831251069 1753 V1786" stroke="#34d399" stroke-width="1.3" fill="none" opacity="0.85"/><path d="M429.8798304423425 1731 H590" stroke="#34d399" stroke-width="1.3" fill="none" opacity="0.85"/><path d="M429.8798304423425 1769.5 H455.7861831251069" stroke="#34d399" stroke-width="1.3" fill="none" opacity="0.85"/><path d="M429.8798304423425 1731 V1769.5" stroke="#34d399" stroke-width="1.3" fill="none" opacity="0.85"/><path d="M419.9106173990252 1709 H590" stroke="#34d399" stroke-width="1.3" fill="none" opacity="0.85"/><path d="M419.9106173990252 1750.25 H429.8798304423425" stroke="#34d399" stroke-width="1.3" fill="none" opacity="0.85"/><path d="M419.9106173990252 1709 V1750.25" stroke="#34d399" stroke-width="1.3" fill="none" opacity="0.85"/><path d="M400.2963500367066 1687 H590" stroke="#34d399" stroke-width="1.3" fill="none" opacity="0.85"/><path d="M400.2963500367066 1729.625 H419.9106173990252" stroke="#34d399" stroke-width="1.3" fill="none" opacity="0.85"/><path d="M400.2963500367066 1687 V1729.625" stroke="#34d399" stroke-width="1.3" fill="none" opacity="0.85"/><text x="598" y="1822" fill="#cbd5e1" font-size="10" font-weight="400">Boids</text><text x="598" y="1844" fill="#cbd5e1" font-size="10" font-weight="400">NetLogo</text><text x="598" y="1866" fill="#cbd5e1" font-size="10" font-weight="400">Mesa</text><path d="M590 1841 H590" stroke="#34d399" stroke-width="1.3" fill="none" opacity="0.85"/><path d="M590 1863 H590" stroke="#34d399" stroke-width="1.3" fill="none" opacity="0.85"/><path d="M590 1841 V1863" stroke="#34d399" stroke-width="1.3" fill="none" opacity="0.85"/><text x="598" y="1888" fill="#cbd5e1" font-size="10" font-weight="400">GAMA Platform</text><text x="598" y="1910" fill="#cbd5e1" font-size="10" font-weight="400">MASON</text><text x="598" y="1932" fill="#cbd5e1" font-size="10" font-weight="400">Repast</text><path d="M511.3793663325466 1907 H590" stroke="#34d399" stroke-width="1.3" fill="none" opacity="0.85"/><path d="M511.3793663325466 1929 H590" stroke="#34d399" stroke-width="1.3" fill="none" opacity="0.85"/><path d="M511.3793663325466 1907 V1929" stroke="#34d399" stroke-width="1.3" fill="none" opacity="0.85"/><path d="M495.09649995883365 1885 H590" stroke="#34d399" stroke-width="1.3" fill="none" opacity="0.85"/><path d="M495.09649995883365 1918 H511.3793663325466" stroke="#34d399" stroke-width="1.3" fill="none" opacity="0.85"/><path d="M495.09649995883365 1885 V1918" stroke="#34d399" stroke-width="1.3" fill="none" opacity="0.85"/><path d="M481.3393559607926 1852 H590" stroke="#34d399" stroke-width="1.3" fill="none" opacity="0.85"/><path d="M481.3393559607926 1901.5 H495.09649995883365" stroke="#34d399" stroke-width="1.3" fill="none" opacity="0.85"/><path d="M481.3393559607926 1852 V1901.5" stroke="#34d399" stroke-width="1.3" fill="none" opacity="0.85"/><path d="M399.4246886591281 1819 H590" stroke="#34d399" stroke-width="1.3" fill="none" opacity="0.85"/><path d="M399.4246886591281 1876.75 H481.3393559607926" stroke="#34d399" stroke-width="1.3" fill="none" opacity="0.85"/><path d="M399.4246886591281 1819 V1876.75" stroke="#34d399" stroke-width="1.3" fill="none" opacity="0.85"/><path d="M351.9936540378739 1708.3125 H400.2963500367066" stroke="#34d399" stroke-width="1.3" fill="none" opacity="0.85"/><path d="M351.9936540378739 1847.875 H399.4246886591281" stroke="#34d399" stroke-width="1.3" fill="none" opacity="0.85"/><path d="M351.9936540378739 1708.3125 V1847.875" stroke="#34d399" stroke-width="1.3" fill="none" opacity="0.85"/><path d="M296.3065850093117 1654 H354.1380989976398" stroke="#34d399" stroke-width="1.3" fill="none" opacity="0.85"/><path d="M296.3065850093117 1778.09375 H351.9936540378739" stroke="#34d399" stroke-width="1.3" fill="none" opacity="0.85"/><path d="M296.3065850093117 1654 V1778.09375" stroke="#34d399" stroke-width="1.3" fill="none" opacity="0.85"/><path d="M203.28633087290737 1436.3203125 H321.9911880041284" stroke="#34d399" stroke-width="1.3" fill="none" opacity="0.85"/><path d="M203.28633087290737 1716.046875 H296.3065850093117" stroke="#34d399" stroke-width="1.3" fill="none" opacity="0.85"/><path d="M203.28633087290737 1436.3203125 V1716.046875" stroke="#34d399" stroke-width="1.3" fill="none" opacity="0.85"/><text x="598" y="1954" fill="#cbd5e1" font-size="10" font-weight="400">Lenia</text><text x="598" y="1976" fill="#cbd5e1" font-size="10" font-weight="400">Particle Lenia</text><path d="M478.8136335851206 1951 H590" stroke="#34d399" stroke-width="1.3" fill="none" opacity="0.85"/><path d="M478.8136335851206 1973 H590" stroke="#34d399" stroke-width="1.3" fill="none" opacity="0.85"/><path d="M478.8136335851206 1951 V1973" stroke="#34d399" stroke-width="1.3" fill="none" opacity="0.85"/><text x="598" y="1998" fill="#cbd5e1" font-size="10" font-weight="400">Flow Lenia</text><text x="598" y="2020" fill="#cbd5e1" font-size="10" font-weight="400">Thrive</text><path d="M432.75873266509325 1995 H590" stroke="#34d399" stroke-width="1.3" fill="none" opacity="0.85"/><path d="M432.75873266509325 2017 H590" stroke="#34d399" stroke-width="1.3" fill="none" opacity="0.85"/><path d="M432.75873266509325 1995 V2017" stroke="#34d399" stroke-width="1.3" fill="none" opacity="0.85"/><path d="M391.13132294154434 1962 H478.8136335851206" stroke="#34d399" stroke-width="1.3" fill="none" opacity="0.85"/><path d="M391.13132294154434 2006 H432.75873266509325" stroke="#34d399" stroke-width="1.3" fill="none" opacity="0.85"/><path d="M391.13132294154434 1962 V2006" stroke="#34d399" stroke-width="1.3" fill="none" opacity="0.85"/><text x="598" y="2042" fill="#cbd5e1" font-size="10" font-weight="400">Clusters (Particle Life)</text><text x="598" y="2064" fill="#cbd5e1" font-size="10" font-weight="400">Spore</text><text x="598" y="2086" fill="#cbd5e1" font-size="10" font-weight="400">Noita</text><text x="598" y="2108" fill="#cbd5e1" font-size="10" font-weight="400">Sandspiel</text><path d="M478.8136335851206 2083 H590" stroke="#34d399" stroke-width="1.3" fill="none" opacity="0.85"/><path d="M478.8136335851206 2105 H590" stroke="#34d399" stroke-width="1.3" fill="none" opacity="0.85"/><path d="M478.8136335851206 2083 V2105" stroke="#34d399" stroke-width="1.3" fill="none" opacity="0.85"/><path d="M415.08914846277617 2061 H590" stroke="#34d399" stroke-width="1.3" fill="none" opacity="0.85"/><path d="M415.08914846277617 2094 H478.8136335851206" stroke="#34d399" stroke-width="1.3" fill="none" opacity="0.85"/><path d="M415.08914846277617 2061 V2094" stroke="#34d399" stroke-width="1.3" fill="none" opacity="0.85"/><path d="M409.1992870620038 2039 H590" stroke="#34d399" stroke-width="1.3" fill="none" opacity="0.85"/><path d="M409.1992870620038 2077.5 H415.08914846277617" stroke="#34d399" stroke-width="1.3" fill="none" opacity="0.85"/><path d="M409.1992870620038 2039 V2077.5" stroke="#34d399" stroke-width="1.3" fill="none" opacity="0.85"/><text x="598" y="2130" fill="#cbd5e1" font-size="10" font-weight="400">OpenSteer</text><text x="598" y="2152" fill="#cbd5e1" font-size="10" font-weight="400">Pezzza's Ant Colony Simulation</text><path d="M478.8136335851206 2127 H590" stroke="#34d399" stroke-width="1.3" fill="none" opacity="0.85"/><path d="M478.8136335851206 2149 H590" stroke="#34d399" stroke-width="1.3" fill="none" opacity="0.85"/><path d="M478.8136335851206 2127 V2149" stroke="#34d399" stroke-width="1.3" fill="none" opacity="0.85"/><text x="598" y="2174" fill="#cbd5e1" font-size="10" font-weight="400">The Powder Toy</text><text x="598" y="2196" fill="#cbd5e1" font-size="10" font-weight="400">SmoothLife</text><text x="598" y="2218" fill="#cbd5e1" font-size="10" font-weight="400">Larger than Life</text><path d="M590 2193 H590" stroke="#34d399" stroke-width="1.3" fill="none" opacity="0.85"/><path d="M590 2215 H590" stroke="#34d399" stroke-width="1.3" fill="none" opacity="0.85"/><path d="M590 2193 V2215" stroke="#34d399" stroke-width="1.3" fill="none" opacity="0.85"/><text x="598" y="2240" fill="#cbd5e1" font-size="10" font-weight="400">Gray-Scott Reaction-Diffusion</text><text x="598" y="2262" fill="#cbd5e1" font-size="10" font-weight="400">Morphozoic</text><path d="M478.8136335851206 2237 H590" stroke="#34d399" stroke-width="1.3" fill="none" opacity="0.85"/><path d="M478.8136335851206 2259 H590" stroke="#34d399" stroke-width="1.3" fill="none" opacity="0.85"/><path d="M478.8136335851206 2237 V2259" stroke="#34d399" stroke-width="1.3" fill="none" opacity="0.85"/><path d="M455.7861831251069 2204 H590" stroke="#34d399" stroke-width="1.3" fill="none" opacity="0.85"/><path d="M455.7861831251069 2248 H478.8136335851206" stroke="#34d399" stroke-width="1.3" fill="none" opacity="0.85"/><path d="M455.7861831251069 2204 V2248" stroke="#34d399" stroke-width="1.3" fill="none" opacity="0.85"/><path d="M432.75873266509325 2171 H590" stroke="#34d399" stroke-width="1.3" fill="none" opacity="0.85"/><path d="M432.75873266509325 2226 H455.7861831251069" stroke="#34d399" stroke-width="1.3" fill="none" opacity="0.85"/><path d="M432.75873266509325 2171 V2226" stroke="#34d399" stroke-width="1.3" fill="none" opacity="0.85"/><path d="M396.78230216420724 2138 H478.8136335851206" stroke="#34d399" stroke-width="1.3" fill="none" opacity="0.85"/><path d="M396.78230216420724 2198.5 H432.75873266509325" stroke="#34d399" stroke-width="1.3" fill="none" opacity="0.85"/><path d="M396.78230216420724 2138 V2198.5" stroke="#34d399" stroke-width="1.3" fill="none" opacity="0.85"/><path d="M384.8604408801273 2058.25 H409.1992870620038" stroke="#34d399" stroke-width="1.3" fill="none" opacity="0.85"/><path d="M384.8604408801273 2168.25 H396.78230216420724" stroke="#34d399" stroke-width="1.3" fill="none" opacity="0.85"/><path d="M384.8604408801273 2058.25 V2168.25" stroke="#34d399" stroke-width="1.3" fill="none" opacity="0.85"/><path d="M331.6871087417402 1984 H391.13132294154434" stroke="#34d399" stroke-width="1.3" fill="none" opacity="0.85"/><path d="M331.6871087417402 2113.25 H384.8604408801273" stroke="#34d399" stroke-width="1.3" fill="none" opacity="0.85"/><path d="M331.6871087417402 1984 V2113.25" stroke="#34d399" stroke-width="1.3" fill="none" opacity="0.85"/><text x="598" y="2284" fill="#cbd5e1" font-size="10" font-weight="400">Game of Life</text><text x="598" y="2306" fill="#cbd5e1" font-size="10" font-weight="400">Voxelyze / VoxCAD</text><text x="598" y="2328" fill="#cbd5e1" font-size="10" font-weight="400">Growing NCA</text><text x="598" y="2350" fill="#cbd5e1" font-size="10" font-weight="400">Genie (Generative Interactive Environments)</text><path d="M427.91941151804883 2325 H590" stroke="#34d399" stroke-width="1.3" fill="none" opacity="0.85"/><path d="M427.91941151804883 2347 H590" stroke="#34d399" stroke-width="1.3" fill="none" opacity="0.85"/><path d="M427.91941151804883 2325 V2347" stroke="#34d399" stroke-width="1.3" fill="none" opacity="0.85"/><text x="598" y="2372" fill="#cbd5e1" font-size="10" font-weight="400">DevoWorm</text><text x="598" y="2394" fill="#cbd5e1" font-size="10" font-weight="400">EvoGym</text><text x="598" y="2416" fill="#cbd5e1" font-size="10" font-weight="400">RoboGrammar</text><path d="M478.8136335851206 2391 H590" stroke="#34d399" stroke-width="1.3" fill="none" opacity="0.85"/><path d="M478.8136335851206 2413 H590" stroke="#34d399" stroke-width="1.3" fill="none" opacity="0.85"/><path d="M478.8136335851206 2391 V2413" stroke="#34d399" stroke-width="1.3" fill="none" opacity="0.85"/><path d="M368.06372719762305 2369 H590" stroke="#34d399" stroke-width="1.3" fill="none" opacity="0.85"/><path d="M368.06372719762305 2402 H478.8136335851206" stroke="#34d399" stroke-width="1.3" fill="none" opacity="0.85"/><path d="M368.06372719762305 2369 V2402" stroke="#34d399" stroke-width="1.3" fill="none" opacity="0.85"/><path d="M344.25746437185745 2336 H427.91941151804883" stroke="#34d399" stroke-width="1.3" fill="none" opacity="0.85"/><path d="M344.25746437185745 2385.5 H368.06372719762305" stroke="#34d399" stroke-width="1.3" fill="none" opacity="0.85"/><path d="M344.25746437185745 2336 V2385.5" stroke="#34d399" stroke-width="1.3" fill="none" opacity="0.85"/><path d="M308.05196181072074 2303 H590" stroke="#34d399" stroke-width="1.3" fill="none" opacity="0.85"/><path d="M308.05196181072074 2360.75 H344.25746437185745" stroke="#34d399" stroke-width="1.3" fill="none" opacity="0.85"/><path d="M308.05196181072074 2303 V2360.75" stroke="#34d399" stroke-width="1.3" fill="none" opacity="0.85"/><path d="M273.25145663493396 2281 H590" stroke="#34d399" stroke-width="1.3" fill="none" opacity="0.85"/><path d="M273.25145663493396 2331.875 H308.05196181072074" stroke="#34d399" stroke-width="1.3" fill="none" opacity="0.85"/><path d="M273.25145663493396 2281 V2331.875" stroke="#34d399" stroke-width="1.3" fill="none" opacity="0.85"/><path d="M266.1477366376895 2048.625 H331.6871087417402" stroke="#34d399" stroke-width="1.3" fill="none" opacity="0.85"/><path d="M266.1477366376895 2306.4375 H273.25145663493396" stroke="#34d399" stroke-width="1.3" fill="none" opacity="0.85"/><path d="M266.1477366376895 2048.625 V2306.4375" stroke="#34d399" stroke-width="1.3" fill="none" opacity="0.85"/><text x="598" y="2438" fill="#cbd5e1" font-size="10" font-weight="400">Rule 110</text><text x="598" y="2460" fill="#cbd5e1" font-size="10" font-weight="400">Wireworld</text><text x="598" y="2482" fill="#cbd5e1" font-size="10" font-weight="400">Langton's Ant</text><path d="M590 2457 H590" stroke="#34d399" stroke-width="1.3" fill="none" opacity="0.85"/><path d="M590 2479 H590" stroke="#34d399" stroke-width="1.3" fill="none" opacity="0.85"/><path d="M590 2457 V2479" stroke="#34d399" stroke-width="1.3" fill="none" opacity="0.85"/><path d="M590 2435 H590" stroke="#34d399" stroke-width="1.3" fill="none" opacity="0.85"/><path d="M590 2468 H590" stroke="#34d399" stroke-width="1.3" fill="none" opacity="0.85"/><path d="M590 2435 V2468" stroke="#34d399" stroke-width="1.3" fill="none" opacity="0.85"/><text x="598" y="2504" fill="#cbd5e1" font-size="10" font-weight="400">Biomorphs</text><text x="598" y="2526" fill="#cbd5e1" font-size="10" font-weight="400">Langton's Loops</text><text x="598" y="2548" fill="#cbd5e1" font-size="10" font-weight="400">von Neumann Universal Constructor</text><path d="M432.75873266509325 2523 H590" stroke="#34d399" stroke-width="1.3" fill="none" opacity="0.85"/><path d="M432.75873266509325 2545 H590" stroke="#34d399" stroke-width="1.3" fill="none" opacity="0.85"/><path d="M432.75873266509325 2523 V2545" stroke="#34d399" stroke-width="1.3" fill="none" opacity="0.85"/><path d="M329.2448573450737 2501 H590" stroke="#34d399" stroke-width="1.3" fill="none" opacity="0.85"/><path d="M329.2448573450737 2534 H432.75873266509325" stroke="#34d399" stroke-width="1.3" fill="none" opacity="0.85"/><path d="M329.2448573450737 2501 V2534" stroke="#34d399" stroke-width="1.3" fill="none" opacity="0.85"/><path d="M231.45233513495182 2451.5 H590" stroke="#34d399" stroke-width="1.3" fill="none" opacity="0.85"/><path d="M231.45233513495182 2517.5 H329.2448573450737" stroke="#34d399" stroke-width="1.3" fill="none" opacity="0.85"/><path d="M231.45233513495182 2451.5 V2517.5" stroke="#34d399" stroke-width="1.3" fill="none" opacity="0.85"/><path d="M182.13246742194733 2177.53125 H266.1477366376895" stroke="#34d399" stroke-width="1.3" fill="none" opacity="0.85"/><path d="M182.13246742194733 2484.5 H231.45233513495182" stroke="#34d399" stroke-width="1.3" fill="none" opacity="0.85"/><path d="M182.13246742194733 2177.53125 V2484.5" stroke="#34d399" stroke-width="1.3" fill="none" opacity="0.85"/><path d="M152.1675017085672 1576.18359375 H203.28633087290737" stroke="#34d399" stroke-width="1.3" fill="none" opacity="0.85"/><path d="M152.1675017085672 2331.015625 H182.13246742194733" stroke="#34d399" stroke-width="1.3" fill="none" opacity="0.85"/><path d="M152.1675017085672 1576.18359375 V2331.015625" stroke="#34d399" stroke-width="1.3" fill="none" opacity="0.85"/><path d="M142.42865249563647 571.31640625 H195.05876969791203" stroke="#34d399" stroke-width="1.3" fill="none" opacity="0.85"/><path d="M142.42865249563647 1953.599609375 H152.1675017085672" stroke="#34d399" stroke-width="1.3" fill="none" opacity="0.85"/><path d="M142.42865249563647 571.31640625 V1953.599609375" stroke="#34d399" stroke-width="1.3" fill="none" opacity="0.85"/><path d="M93.99744088709393 114 H295.828525285325" stroke="#34d399" stroke-width="1.3" fill="none" opacity="0.85"/><path d="M93.99744088709393 1262.4580078125 H142.42865249563647" stroke="#34d399" stroke-width="1.3" fill="none" opacity="0.85"/><path d="M93.99744088709393 114 V1262.4580078125" stroke="#34d399" stroke-width="1.3" fill="none" opacity="0.85"/><path d="M30 81 H590" stroke="#f59e0b" stroke-width="1.3" fill="none" opacity="0.85"/><path d="M30 688.22900390625 H93.99744088709393" stroke="#f59e0b" stroke-width="1.3" fill="none" opacity="0.85"/><path d="M30 81 V688.22900390625" stroke="#f59e0b" stroke-width="1.3" fill="none" opacity="0.85"/>
</svg>