<svg xmlns="http://www.w3.org/2000/svg" viewBox="0 0 760 664" font-family="ui-sans-serif,system-ui,Segoe UI,Roboto,sans-serif" role="img" aria-label="Ranked breadth of integrated mechanisms">
<rect width="760" height="664" rx="14" fill="#0b1220"/>
<text x="28" y="30" fill="#cbd5e1" font-size="18" font-weight="700">Breadth of integrated mechanisms — ranked</text><text x="28" y="50" fill="#7c8aa5" font-size="12">mean of 9 implementation axes (0–5). amber = this repo. n=26.</text><line x1="168" y1="56" x2="168" y2="636" stroke="#27344d" stroke-width="1"/><text x="168" y="654" fill="#7c8aa5" font-size="10" text-anchor="middle">0</text><line x1="275.2" y1="56" x2="275.2" y2="636" stroke="#27344d" stroke-width="1"/><text x="275.2" y="654" fill="#7c8aa5" font-size="10" text-anchor="middle">1</text><line x1="382.4" y1="56" x2="382.4" y2="636" stroke="#27344d" stroke-width="1"/><text x="382.4" y="654" fill="#7c8aa5" font-size="10" text-anchor="middle">2</text><line x1="489.59999999999997" y1="56" x2="489.59999999999997" y2="636" stroke="#27344d" stroke-width="1"/><text x="489.59999999999997" y="654" fill="#7c8aa5" font-size="10" text-anchor="middle">3</text><line x1="596.8" y1="56" x2="596.8" y2="636" stroke="#27344d" stroke-width="1"/><text x="596.8" y="654" fill="#7c8aa5" font-size="10" text-anchor="middle">4</text><line x1="704" y1="56" x2="704" y2="636" stroke="#27344d" stroke-width="1"/><text x="704" y="654" fill="#7c8aa5" font-size="10" text-anchor="middle">5</text><text x="158" y="79" fill="#f59e0b" font-size="11" font-weight="700" text-anchor="end">COSMOGONIC</text><rect x="168" y="68" width="476.44444444444446" height="14" rx="3" fill="#f59e0b" opacity="0.95"/><text x="650.4444444444445" y="79" fill="#f59e0b" font-size="10" font-weight="700">4.44</text><text x="158" y="101" fill="#cbd5e1" font-size="11" font-weight="400" text-anchor="end">ALIEN</text><rect x="168" y="90" width="375.20000000000005" height="14" rx="3" fill="#38bdf8" opacity="0.7"/><text x="549.2" y="101" fill="#7c8aa5" font-size="10" font-weight="400">3.50</text><text x="158" y="123" fill="#cbd5e1" font-size="11" font-weight="400" text-anchor="end">Creatures</text><rect x="168" y="112" width="357.33333333333337" height="14" rx="3" fill="#38bdf8" opacity="0.7"/><text x="531.3333333333334" y="123" fill="#7c8aa5" font-size="10" font-weight="400">3.33</text><text x="158" y="145" fill="#cbd5e1" font-size="11" font-weight="400" text-anchor="end">Framsticks</text><rect x="168" y="134" width="345.4222222222222" height="14" rx="3" fill="#38bdf8" opacity="0.7"/><text x="519.4222222222222" y="145" fill="#7c8aa5" font-size="10" font-weight="400">3.22</text><text x="158" y="167" fill="#cbd5e1" font-size="11" font-weight="400" text-anchor="end">Polyworld</text><rect x="168" y="156" width="321.59999999999997" height="14" rx="3" fill="#38bdf8" opacity="0.7"/><text x="495.59999999999997" y="167" fill="#7c8aa5" font-size="10" font-weight="400">3.00</text><text x="158" y="189" fill="#cbd5e1" font-size="11" font-weight="400" text-anchor="end">Gene Pool</text><rect x="168" y="178" width="315.64444444444445" height="14" rx="3" fill="#38bdf8" opacity="0.7"/><text x="489.64444444444445" y="189" fill="#7c8aa5" font-size="10" font-weight="400">2.94</text><text x="158" y="211" fill="#cbd5e1" font-size="11" font-weight="400" text-anchor="end">Karl Sims VC</text><rect x="168" y="200" width="309.68888888888887" height="14" rx="3" fill="#38bdf8" opacity="0.7"/><text x="483.68888888888887" y="211" fill="#7c8aa5" font-size="10" font-weight="400">2.89</text><text x="158" y="233" fill="#cbd5e1" font-size="11" font-weight="400" text-anchor="end">Picbreeder</text><rect x="168" y="222" width="309.68888888888887" height="14" rx="3" fill="#38bdf8" opacity="0.7"/><text x="483.68888888888887" y="233" fill="#7c8aa5" font-size="10" font-weight="400">2.89</text><text x="158" y="255" fill="#cbd5e1" font-size="11" font-weight="400" text-anchor="end">breve</text><rect x="168" y="244" width="297.77777777777777" height="14" rx="3" fill="#38bdf8" opacity="0.7"/><text x="471.77777777777777" y="255" fill="#7c8aa5" font-size="10" font-weight="400">2.78</text><text x="158" y="277" fill="#cbd5e1" font-size="11" font-weight="400" text-anchor="end">Darwin Pond</text><rect x="168" y="266" width="285.8666666666667" height="14" rx="3" fill="#38bdf8" opacity="0.7"/><text x="459.8666666666667" y="277" fill="#7c8aa5" font-size="10" font-weight="400">2.67</text><text x="158" y="299" fill="#cbd5e1" font-size="11" font-weight="400" text-anchor="end">MABE</text><rect x="168" y="288" width="285.8666666666667" height="14" rx="3" fill="#38bdf8" opacity="0.7"/><text x="459.8666666666667" y="299" fill="#7c8aa5" font-size="10" font-weight="400">2.67</text><text x="158" y="321" fill="#cbd5e1" font-size="11" font-weight="400" text-anchor="end">ASAL</text><rect x="168" y="310" width="285.8666666666667" height="14" rx="3" fill="#38bdf8" opacity="0.7"/><text x="459.8666666666667" y="321" fill="#7c8aa5" font-size="10" font-weight="400">2.67</text><text x="158" y="343" fill="#cbd5e1" font-size="11" font-weight="400" text-anchor="end">OpenWorm</text><rect x="168" y="332" width="262.0444444444445" height="14" rx="3" fill="#38bdf8" opacity="0.7"/><text x="436.0444444444445" y="343" fill="#7c8aa5" font-size="10" font-weight="400">2.44</text><text x="158" y="365" fill="#cbd5e1" font-size="11" font-weight="400" text-anchor="end">EvoGym</text><rect x="168" y="354" width="262.0444444444445" height="14" rx="3" fill="#38bdf8" opacity="0.7"/><text x="436.0444444444445" y="365" fill="#7c8aa5" font-size="10" font-weight="400">2.44</text><text x="158" y="387" fill="#cbd5e1" font-size="11" font-weight="400" text-anchor="end">Avida</text><rect x="168" y="376" width="250.13333333333333" height="14" rx="3" fill="#38bdf8" opacity="0.7"/><text x="424.1333333333333" y="387" fill="#7c8aa5" font-size="10" font-weight="400">2.33</text><text x="158" y="409" fill="#cbd5e1" font-size="11" font-weight="400" text-anchor="end">Sugarscape</text><rect x="168" y="398" width="250.13333333333333" height="14" rx="3" fill="#38bdf8" opacity="0.7"/><text x="424.1333333333333" y="409" fill="#7c8aa5" font-size="10" font-weight="400">2.33</text><text x="158" y="431" fill="#cbd5e1" font-size="11" font-weight="400" text-anchor="end">POET</text><rect x="168" y="420" width="250.13333333333333" height="14" rx="3" fill="#38bdf8" opacity="0.7"/><text x="424.1333333333333" y="431" fill="#7c8aa5" font-size="10" font-weight="400">2.33</text><text x="158" y="453" fill="#cbd5e1" font-size="11" font-weight="400" text-anchor="end">Swarm</text><rect x="168" y="442" width="232.26666666666665" height="14" rx="3" fill="#38bdf8" opacity="0.7"/><text x="406.26666666666665" y="453" fill="#7c8aa5" font-size="10" font-weight="400">2.17</text><text x="158" y="475" fill="#cbd5e1" font-size="11" font-weight="400" text-anchor="end">Echo</text><rect x="168" y="464" width="226.31111111111113" height="14" rx="3" fill="#38bdf8" opacity="0.7"/><text x="400.31111111111113" y="475" fill="#7c8aa5" font-size="10" font-weight="400">2.11</text><text x="158" y="497" fill="#cbd5e1" font-size="11" font-weight="400" text-anchor="end">Growing NCA</text><rect x="168" y="486" width="220.35555555555555" height="14" rx="3" fill="#38bdf8" opacity="0.7"/><text x="394.35555555555555" y="497" fill="#7c8aa5" font-size="10" font-weight="400">2.06</text><text x="158" y="519" fill="#cbd5e1" font-size="11" font-weight="400" text-anchor="end">Lenia</text><rect x="168" y="508" width="214.39999999999998" height="14" rx="3" fill="#38bdf8" opacity="0.7"/><text x="388.4" y="519" fill="#7c8aa5" font-size="10" font-weight="400">2.00</text><text x="158" y="541" fill="#cbd5e1" font-size="11" font-weight="400" text-anchor="end">Tierra</text><rect x="168" y="530" width="208.44444444444446" height="14" rx="3" fill="#38bdf8" opacity="0.7"/><text x="382.44444444444446" y="541" fill="#7c8aa5" font-size="10" font-weight="400">1.94</text><text x="158" y="563" fill="#cbd5e1" font-size="11" font-weight="400" text-anchor="end">Game of Life</text><rect x="168" y="552" width="190.57777777777778" height="14" rx="3" fill="#38bdf8" opacity="0.7"/><text x="364.5777777777778" y="563" fill="#7c8aa5" font-size="10" font-weight="400">1.78</text><text x="158" y="585" fill="#cbd5e1" font-size="11" font-weight="400" text-anchor="end">Core War</text><rect x="168" y="574" width="190.57777777777778" height="14" rx="3" fill="#38bdf8" opacity="0.7"/><text x="364.5777777777778" y="585" fill="#7c8aa5" font-size="10" font-weight="400">1.78</text><text x="158" y="607" fill="#cbd5e1" font-size="11" font-weight="400" text-anchor="end">Boids</text><rect x="168" y="596" width="178.66666666666669" height="14" rx="3" fill="#38bdf8" opacity="0.7"/><text x="352.6666666666667" y="607" fill="#7c8aa5" font-size="10" font-weight="400">1.67</text><text x="158" y="629" fill="#cbd5e1" font-size="11" font-weight="400" text-anchor="end">Biomorphs</text><rect x="168" y="618" width="178.66666666666669" height="14" rx="3" fill="#38bdf8" opacity="0.7"/><text x="352.6666666666667" y="629" fill="#7c8aa5" font-size="10" font-weight="400">1.67</text>
</svg>