<svg xmlns="http://www.w3.org/2000/svg" viewBox="0 0 760 2580" font-family="ui-sans-serif,system-ui,Segoe UI,Roboto,sans-serif" role="img" aria-label="Dendrogram">
<rect width="760" height="2580" rx="14" fill="#0b1220"/>
<text x="28" y="30" fill="#cbd5e1" font-size="18" font-weight="700">Capability dendrogram (average-linkage, Euclidean 9-axis)</text><text x="28" y="50" fill="#7c8aa5" font-size="12">leaves grouped by capability-shape similarity; join depth = merge distance.</text><text x="598" y="84" fill="#f59e0b" font-size="10" font-weight="700">COSMOGONIC</text><text x="598" y="106" fill="#cbd5e1" font-size="10" font-weight="400">OpenWorm</text><text x="598" y="128" fill="#cbd5e1" font-size="10" font-weight="400">NerveNet</text><path d="M289.0485180905654 103 H590" stroke="#34d399" stroke-width="1.3" fill="none" opacity="0.85"/><path d="M289.0485180905654 125 H590" stroke="#34d399" stroke-width="1.3" fill="none" opacity="0.85"/><path d="M289.0485180905654 103 V125" stroke="#34d399" stroke-width="1.3" fill="none" opacity="0.85"/><text x="598" y="150" fill="#cbd5e1" font-size="10" font-weight="400">The AI Scientist</text><text x="598" y="172" fill="#cbd5e1" font-size="10" font-weight="400">POET</text><text x="598" y="194" fill="#cbd5e1" font-size="10" font-weight="400">OMNI (Open-endedness via Models of human Notions of Interestingness)</text><path d="M590 169 H590" stroke="#34d399" stroke-width="1.3" fill="none" opacity="0.85"/><path d="M590 191 H590" stroke="#34d399" stroke-width="1.3" fill="none" opacity="0.85"/><path d="M590 169 V191" stroke="#34d399" stroke-width="1.3" fill="none" opacity="0.85"/><text x="598" y="216" fill="#cbd5e1" font-size="10" font-weight="400">Go-Explore</text><text x="598" y="238" fill="#cbd5e1" font-size="10" font-weight="400">Voyager (Minecraft LLM agent)</text><path d="M450.686534495955 213 H590" stroke="#34d399" stroke-width="1.3" fill="none" opacity="0.85"/><path d="M450.686534495955 235 H590" stroke="#34d399" stroke-width="1.3" fill="none" opacity="0.85"/><path d="M450.686534495955 213 V235" stroke="#34d399" stroke-width="1.3" fill="none" opacity="0.85"/><path d="M421.8337710794691 180 H590" stroke="#34d399" stroke-width="1.3" fill="none" opacity="0.85"/><path d="M421.8337710794691 224 H450.686534495955" stroke="#34d399" stroke-width="1.3" fill="none" opacity="0.85"/><path d="M421.8337710794691 180 V224" stroke="#34d399" stroke-width="1.3" fill="none" opacity="0.85"/><path d="M389.034547330662 147 H590" stroke="#34d399" stroke-width="1.3" fill="none" opacity="0.85"/><path d="M389.034547330662 202 H421.8337710794691" stroke="#34d399" stroke-width="1.3" fill="none" opacity="0.85"/><path d="M389.034547330662 147 V202" stroke="#34d399" stroke-width="1.3" fill="none" opacity="0.85"/><text x="598" y="260" fill="#cbd5e1" font-size="10" font-weight="400">ASAL</text><text x="598" y="282" fill="#cbd5e1" font-size="10" font-weight="400">OMNI-EPIC</text><path d="M362.50206347750907 257 H590" stroke="#34d399" stroke-width="1.3" fill="none" opacity="0.85"/><path d="M362.50206347750907 279 H590" stroke="#34d399" stroke-width="1.3" fill="none" opacity="0.85"/><path d="M362.50206347750907 257 V279" stroke="#34d399" stroke-width="1.3" fill="none" opacity="0.85"/><path d="M354.4306819725543 174.5 H389.034547330662" stroke="#34d399" stroke-width="1.3" fill="none" opacity="0.85"/><path d="M354.4306819725543 268 H362.50206347750907" stroke="#34d399" stroke-width="1.3" fill="none" opacity="0.85"/><path d="M354.4306819725543 174.5 V268" stroke="#34d399" stroke-width="1.3" fill="none" opacity="0.85"/><text x="598" y="304" fill="#cbd5e1" font-size="10" font-weight="400">Promptbreeder</text><text x="598" y="326" fill="#cbd5e1" font-size="10" font-weight="400">Quality-Diversity through AI Feedback (QDAIF)</text><path d="M509.5673331895 301 H590" stroke="#34d399" stroke-width="1.3" fill="none" opacity="0.85"/><path d="M509.5673331895 323 H590" stroke="#34d399" stroke-width="1.3" fill="none" opacity="0.85"/><path d="M509.5673331895 301 V323" stroke="#34d399" stroke-width="1.3" fill="none" opacity="0.85"/><text x="598" y="348" fill="#cbd5e1" font-size="10" font-weight="400">Automated Design of Agentic Systems (ADAS)</text><text x="598" y="370" fill="#cbd5e1" font-size="10" font-weight="400">Darwin Godel Machine (DGM)</text><path d="M476.2510317387546 345 H590" stroke="#34d399" stroke-width="1.3" fill="none" opacity="0.85"/><path d="M476.2510317387546 367 H590" stroke="#34d399" stroke-width="1.3" fill="none" opacity="0.85"/><path d="M476.2510317387546 345 V367" stroke="#34d399" stroke-width="1.3" fill="none" opacity="0.85"/><path d="M367.2069479456597 312 H509.5673331895" stroke="#34d399" stroke-width="1.3" fill="none" opacity="0.85"/><path d="M367.2069479456597 356 H476.2510317387546" stroke="#34d399" stroke-width="1.3" fill="none" opacity="0.85"/><path d="M367.2069479456597 312 V356" stroke="#34d399" stroke-width="1.3" fill="none" opacity="0.85"/><text x="598" y="392" fill="#cbd5e1" font-size="10" font-weight="400">NEAT (NeuroEvolution of Augmenting Topologies)</text><text x="598" y="414" fill="#cbd5e1" font-size="10" font-weight="400">HyperNEAT</text><text x="598" y="436" fill="#cbd5e1" font-size="10" font-weight="400">ES-HyperNEAT</text><path d="M509.5673331895 411 H590" stroke="#34d399" stroke-width="1.3" fill="none" opacity="0.85"/><path d="M509.5673331895 433 H590" stroke="#34d399" stroke-width="1.3" fill="none" opacity="0.85"/><path d="M509.5673331895 411 V433" stroke="#34d399" stroke-width="1.3" fill="none" opacity="0.85"/><path d="M463.46878311735475 389 H590" stroke="#34d399" stroke-width="1.3" fill="none" opacity="0.85"/><path d="M463.46878311735475 422 H509.5673331895" stroke="#34d399" stroke-width="1.3" fill="none" opacity="0.85"/><path d="M463.46878311735475 389 V422" stroke="#34d399" stroke-width="1.3" fill="none" opacity="0.85"/><text x="598" y="458" fill="#cbd5e1" font-size="10" font-weight="400">Evolution through Large Models (ELM)</text><text x="598" y="480" fill="#cbd5e1" font-size="10" font-weight="400">MAP-Elites</text><text x="598" y="502" fill="#cbd5e1" font-size="10" font-weight="400">Quality-Diversity (illumination algorithms)</text><path d="M590 477 H590" stroke="#34d399" stroke-width="1.3" fill="none" opacity="0.85"/><path d="M590 499 H590" stroke="#34d399" stroke-width="1.3" fill="none" opacity="0.85"/><path d="M590 477 V499" stroke="#34d399" stroke-width="1.3" fill="none" opacity="0.85"/><text x="598" y="524" fill="#cbd5e1" font-size="10" font-weight="400">Novelty Search</text><text x="598" y="546" fill="#cbd5e1" font-size="10" font-weight="400">OpenELM</text><path d="M476.2510317387546 521 H590" stroke="#34d399" stroke-width="1.3" fill="none" opacity="0.85"/><path d="M476.2510317387546 543 H590" stroke="#34d399" stroke-width="1.3" fill="none" opacity="0.85"/><path d="M476.2510317387546 521 V543" stroke="#34d399" stroke-width="1.3" fill="none" opacity="0.85"/><path d="M429.13466637899995 488 H590" stroke="#34d399" stroke-width="1.3" fill="none" opacity="0.85"/><path d="M429.13466637899995 532 H476.2510317387546" stroke="#34d399" stroke-width="1.3" fill="none" opacity="0.85"/><path d="M429.13466637899995 488 V532" stroke="#34d399" stroke-width="1.3" fill="none" opacity="0.85"/><path d="M393.67112786691445 455 H590" stroke="#34d399" stroke-width="1.3" fill="none" opacity="0.85"/><path d="M393.67112786691445 510 H429.13466637899995" stroke="#34d399" stroke-width="1.3" fill="none" opacity="0.85"/><path d="M393.67112786691445 455 V510" stroke="#34d399" stroke-width="1.3" fill="none" opacity="0.85"/><path d="M367.01552300559086 405.5 H463.46878311735475" stroke="#34d399" stroke-width="1.3" fill="none" opacity="0.85"/><path d="M367.01552300559086 482.5 H393.67112786691445" stroke="#34d399" stroke-width="1.3" fill="none" opacity="0.85"/><path d="M367.01552300559086 405.5 V482.5" stroke="#34d399" stroke-width="1.3" fill="none" opacity="0.85"/><path d="M312.8873167145272 334 H367.2069479456597" stroke="#34d399" stroke-width="1.3" fill="none" opacity="0.85"/><path d="M312.8873167145272 444 H367.01552300559086" stroke="#34d399" stroke-width="1.3" fill="none" opacity="0.85"/><path d="M312.8873167145272 334 V444" stroke="#34d399" stroke-width="1.3" fill="none" opacity="0.85"/><path d="M240.9226902487665 221.25 H354.4306819725543" stroke="#34d399" stroke-width="1.3" fill="none" opacity="0.85"/><path d="M240.9226902487665 389 H312.8873167145272" stroke="#34d399" stroke-width="1.3" fill="none" opacity="0.85"/><path d="M240.9226902487665 221.25 V389" stroke="#34d399" stroke-width="1.3" fill="none" opacity="0.85"/><text x="598" y="568" fill="#cbd5e1" font-size="10" font-weight="400">DERL (Deep Evolutionary Reinforcement Learning)</text><text x="598" y="590" fill="#cbd5e1" font-size="10" font-weight="400">UNIMAL (Universal Animal design space)</text><path d="M509.5673331895 565 H590" stroke="#34d399" stroke-width="1.3" fill="none" opacity="0.85"/><path d="M509.5673331895 587 H590" stroke="#34d399" stroke-width="1.3" fill="none" opacity="0.85"/><path d="M509.5673331895 565 V587" stroke="#34d399" stroke-width="1.3" fill="none" opacity="0.85"/><text x="598" y="612" fill="#cbd5e1" font-size="10" font-weight="400">Transform2Act</text><text x="598" y="634" fill="#cbd5e1" font-size="10" font-weight="400">Neural Graph Evolution (NGE)</text><path d="M450.686534495955 609 H590" stroke="#34d399" stroke-width="1.3" fill="none" opacity="0.85"/><path d="M450.686534495955 631 H590" stroke="#34d399" stroke-width="1.3" fill="none" opacity="0.85"/><path d="M450.686534495955 609 V631" stroke="#34d399" stroke-width="1.3" fill="none" opacity="0.85"/><path d="M439.9106004374775 576 H509.5673331895" stroke="#34d399" stroke-width="1.3" fill="none" opacity="0.85"/><path d="M439.9106004374775 620 H450.686534495955" stroke="#34d399" stroke-width="1.3" fill="none" opacity="0.85"/><path d="M439.9106004374775 576 V620" stroke="#34d399" stroke-width="1.3" fill="none" opacity="0.85"/><text x="598" y="656" fill="#cbd5e1" font-size="10" font-weight="400">Karl Sims VC</text><text x="598" y="678" fill="#cbd5e1" font-size="10" font-weight="400">3D Virtual Creature Evolution (3DVCE)</text><text x="598" y="700" fill="#cbd5e1" font-size="10" font-weight="400">Keiwan Evolution</text><path d="M509.5673331895 675 H590" stroke="#34d399" stroke-width="1.3" fill="none" opacity="0.85"/><path d="M509.5673331895 697 H590" stroke="#34d399" stroke-width="1.3" fill="none" opacity="0.85"/><path d="M509.5673331895 675 V697" stroke="#34d399" stroke-width="1.3" fill="none" opacity="0.85"/><path d="M439.9106004374775 653 H590" stroke="#34d399" stroke-width="1.3" fill="none" opacity="0.85"/><path d="M439.9106004374775 686 H509.5673331895" stroke="#34d399" stroke-width="1.3" fill="none" opacity="0.85"/><path d="M439.9106004374775 653 V686" stroke="#34d399" stroke-width="1.3" fill="none" opacity="0.85"/><text x="598" y="722" fill="#cbd5e1" font-size="10" font-weight="400">Evolving Soft Robots (Cheney / Unshackling Evolution)</text><text x="598" y="744" fill="#cbd5e1" font-size="10" font-weight="400">GOLEM (Genetically Organized Lifelike Electro Mechanics)</text><text x="598" y="766" fill="#cbd5e1" font-size="10" font-weight="400">Krcah Evolved Virtual Creatures (ERO)</text><path d="M450.686534495955 741 H590" stroke="#34d399" stroke-width="1.3" fill="none" opacity="0.85"/><path d="M450.686534495955 763 H590" stroke="#34d399" stroke-width="1.3" fill="none" opacity="0.85"/><path d="M450.686534495955 741 V763" stroke="#34d399" stroke-width="1.3" fill="none" opacity="0.85"/><path d="M419.64087788956533 719 H590" stroke="#34d399" stroke-width="1.3" fill="none" opacity="0.85"/><path d="M419.64087788956533 752 H450.686534495955" stroke="#34d399" stroke-width="1.3" fill="none" opacity="0.85"/><path d="M419.64087788956533 719 V752" stroke="#34d399" stroke-width="1.3" fill="none" opacity="0.85"/><path d="M399.95151506067464 669.5 H439.9106004374775" stroke="#34d399" stroke-width="1.3" fill="none" opacity="0.85"/><path d="M399.95151506067464 735.5 H419.64087788956533" stroke="#34d399" stroke-width="1.3" fill="none" opacity="0.85"/><path d="M399.95151506067464 669.5 V735.5" stroke="#34d399" stroke-width="1.3" fill="none" opacity="0.85"/><path d="M319.289467800922 598 H439.9106004374775" stroke="#34d399" stroke-width="1.3" fill="none" opacity="0.85"/><path d="M319.289467800922 702.5 H399.95151506067464" stroke="#34d399" stroke-width="1.3" fill="none" opacity="0.85"/><path d="M319.289467800922 598 V702.5" stroke="#34d399" stroke-width="1.3" fill="none" opacity="0.85"/><text x="598" y="788" fill="#cbd5e1" font-size="10" font-weight="400">Cell Lab: Evolution Sandbox</text><text x="598" y="810" fill="#cbd5e1" font-size="10" font-weight="400">Primordial Particle Systems</text><text x="598" y="832" fill="#cbd5e1" font-size="10" font-weight="400">Squirm3</text><path d="M450.686534495955 807 H590" stroke="#34d399" stroke-width="1.3" fill="none" opacity="0.85"/><path d="M450.686534495955 829 H590" stroke="#34d399" stroke-width="1.3" fill="none" opacity="0.85"/><path d="M450.686534495955 807 V829" stroke="#34d399" stroke-width="1.3" fill="none" opacity="0.85"/><path d="M439.9106004374775 785 H590" stroke="#34d399" stroke-width="1.3" fill="none" opacity="0.85"/><path d="M439.9106004374775 818 H450.686534495955" stroke="#34d399" stroke-width="1.3" fill="none" opacity="0.85"/><path d="M439.9106004374775 785 V818" stroke="#34d399" stroke-width="1.3" fill="none" opacity="0.85"/><text x="598" y="854" fill="#cbd5e1" font-size="10" font-weight="400">Species: Artificial Life, Real Evolution</text><text x="598" y="876" fill="#cbd5e1" font-size="10" font-weight="400">Sebastian Lague Ecosystem</text><text x="598" y="898" fill="#cbd5e1" font-size="10" font-weight="400">Primer Evolution Simulations</text><path d="M476.2510317387546 873 H590" stroke="#34d399" stroke-width="1.3" fill="none" opacity="0.85"/><path d="M476.2510317387546 895 H590" stroke="#34d399" stroke-width="1.3" fill="none" opacity="0.85"/><path d="M476.2510317387546 873 V895" stroke="#34d399" stroke-width="1.3" fill="none" opacity="0.85"/><path d="M430.4168119480429 851 H590" stroke="#34d399" stroke-width="1.3" fill="none" opacity="0.85"/><path d="M430.4168119480429 884 H476.2510317387546" stroke="#34d399" stroke-width="1.3" fill="none" opacity="0.85"/><path d="M430.4168119480429 851 V884" stroke="#34d399" stroke-width="1.3" fill="none" opacity="0.85"/><path d="M397.97689075516786 801.5 H439.9106004374775" stroke="#34d399" stroke-width="1.3" fill="none" opacity="0.85"/><path d="M397.97689075516786 867.5 H430.4168119480429" stroke="#34d399" stroke-width="1.3" fill="none" opacity="0.85"/><path d="M397.97689075516786 801.5 V867.5" stroke="#34d399" stroke-width="1.3" fill="none" opacity="0.85"/><text x="598" y="920" fill="#cbd5e1" font-size="10" font-weight="400">Darwin Pond</text><text x="598" y="942" fill="#cbd5e1" font-size="10" font-weight="400">Gene Pool</text><path d="M469.35099978425 917 H590" stroke="#34d399" stroke-width="1.3" fill="none" opacity="0.85"/><path d="M469.35099978425 939 H590" stroke="#34d399" stroke-width="1.3" fill="none" opacity="0.85"/><path d="M469.35099978425 917 V939" stroke="#34d399" stroke-width="1.3" fill="none" opacity="0.85"/><text x="598" y="964" fill="#cbd5e1" font-size="10" font-weight="400">Picbreeder</text><text x="598" y="986" fill="#cbd5e1" font-size="10" font-weight="400">EndlessForms</text><path d="M410.14708940013077 961 H590" stroke="#34d399" stroke-width="1.3" fill="none" opacity="0.85"/><path d="M410.14708940013077 983 H590" stroke="#34d399" stroke-width="1.3" fill="none" opacity="0.85"/><path d="M410.14708940013077 961 V983" stroke="#34d399" stroke-width="1.3" fill="none" opacity="0.85"/><path d="M383.6036825680169 928 H469.35099978425" stroke="#34d399" stroke-width="1.3" fill="none" opacity="0.85"/><path d="M383.6036825680169 972 H410.14708940013077" stroke="#34d399" stroke-width="1.3" fill="none" opacity="0.85"/><path d="M383.6036825680169 928 V972" stroke="#34d399" stroke-width="1.3" fill="none" opacity="0.85"/><text x="598" y="1008" fill="#cbd5e1" font-size="10" font-weight="400">ALIEN</text><text x="598" y="1030" fill="#cbd5e1" font-size="10" font-weight="400">breve</text><text x="598" y="1052" fill="#cbd5e1" font-size="10" font-weight="400">Framsticks</text><text x="598" y="1074" fill="#cbd5e1" font-size="10" font-weight="400">Division Blocks</text><path d="M419.3765476081319 1049 H590" stroke="#34d399" stroke-width="1.3" fill="none" opacity="0.85"/><path d="M419.3765476081319 1071 H590" stroke="#34d399" stroke-width="1.3" fill="none" opacity="0.85"/><path d="M419.3765476081319 1049 V1071" stroke="#34d399" stroke-width="1.3" fill="none" opacity="0.85"/><path d="M389.9365797690454 1027 H590" stroke="#34d399" stroke-width="1.3" fill="none" opacity="0.85"/><path d="M389.9365797690454 1060 H419.3765476081319" stroke="#34d399" stroke-width="1.3" fill="none" opacity="0.85"/><path d="M389.9365797690454 1027 V1060" stroke="#34d399" stroke-width="1.3" fill="none" opacity="0.85"/><path d="M358.77487598090835 1005 H590" stroke="#34d399" stroke-width="1.3" fill="none" opacity="0.85"/><path d="M358.77487598090835 1043.5 H389.9365797690454" stroke="#34d399" stroke-width="1.3" fill="none" opacity="0.85"/><path d="M358.77487598090835 1005 V1043.5" stroke="#34d399" stroke-width="1.3" fill="none" opacity="0.85"/><path d="M337.92905911778695 950 H383.6036825680169" stroke="#34d399" stroke-width="1.3" fill="none" opacity="0.85"/><path d="M337.92905911778695 1024.25 H358.77487598090835" stroke="#34d399" stroke-width="1.3" fill="none" opacity="0.85"/><path d="M337.92905911778695 950 V1024.25" stroke="#34d399" stroke-width="1.3" fill="none" opacity="0.85"/><path d="M310.04284003791514 834.5 H397.97689075516786" stroke="#34d399" stroke-width="1.3" fill="none" opacity="0.85"/><path d="M310.04284003791514 987.125 H337.92905911778695" stroke="#34d399" stroke-width="1.3" fill="none" opacity="0.85"/><path d="M310.04284003791514 834.5 V987.125" stroke="#34d399" stroke-width="1.3" fill="none" opacity="0.85"/><text x="598" y="1096" fill="#cbd5e1" font-size="10" font-weight="400">Polyworld</text><text x="598" y="1118" fill="#cbd5e1" font-size="10" font-weight="400">Creatures</text><path d="M401.3686759937019 1093 H590" stroke="#34d399" stroke-width="1.3" fill="none" opacity="0.85"/><path d="M401.3686759937019 1115 H590" stroke="#34d399" stroke-width="1.3" fill="none" opacity="0.85"/><path d="M401.3686759937019 1093 V1115" stroke="#34d399" stroke-width="1.3" fill="none" opacity="0.85"/><text x="598" y="1140" fill="#cbd5e1" font-size="10" font-weight="400">Innovation Engines</text><text x="598" y="1162" fill="#cbd5e1" font-size="10" font-weight="400">Geb</text><text x="598" y="1184" fill="#cbd5e1" font-size="10" font-weight="400">MABE</text><text x="598" y="1206" fill="#cbd5e1" font-size="10" font-weight="400">Minimal Criterion Coevolution (MCC)</text><path d="M450.686534495955 1181 H590" stroke="#34d399" stroke-width="1.3" fill="none" opacity="0.85"/><path d="M450.686534495955 1203 H590" stroke="#34d399" stroke-width="1.3" fill="none" opacity="0.85"/><path d="M450.686534495955 1181 V1203" stroke="#34d399" stroke-width="1.3" fill="none" opacity="0.85"/><path d="M419.64087788956533 1159 H590" stroke="#34d399" stroke-width="1.3" fill="none" opacity="0.85"/><path d="M419.64087788956533 1192 H450.686534495955" stroke="#34d399" stroke-width="1.3" fill="none" opacity="0.85"/><path d="M419.64087788956533 1159 V1192" stroke="#34d399" stroke-width="1.3" fill="none" opacity="0.85"/><text x="598" y="1228" fill="#cbd5e1" font-size="10" font-weight="400">Chromaria</text><text x="598" y="1250" fill="#cbd5e1" font-size="10" font-weight="400">Evolve 4.0</text><text x="598" y="1272" fill="#cbd5e1" font-size="10" font-weight="400">biosim4</text><text x="598" y="1294" fill="#cbd5e1" font-size="10" font-weight="400">The Bibites</text><path d="M476.2510317387546 1269 H590" stroke="#34d399" stroke-width="1.3" fill="none" opacity="0.85"/><path d="M476.2510317387546 1291 H590" stroke="#34d399" stroke-width="1.3" fill="none" opacity="0.85"/><path d="M476.2510317387546 1269 V1291" stroke="#34d399" stroke-width="1.3" fill="none" opacity="0.85"/><path d="M450.686534495955 1247 H590" stroke="#34d399" stroke-width="1.3" fill="none" opacity="0.85"/><path d="M450.686534495955 1280 H476.2510317387546" stroke="#34d399" stroke-width="1.3" fill="none" opacity="0.85"/><path d="M450.686534495955 1247 V1280" stroke="#34d399" stroke-width="1.3" fill="none" opacity="0.85"/><path d="M385.01061076039935 1225 H590" stroke="#34d399" stroke-width="1.3" fill="none" opacity="0.85"/><path d="M385.01061076039935 1263.5 H450.686534495955" stroke="#34d399" stroke-width="1.3" fill="none" opacity="0.85"/><path d="M385.01061076039935 1225 V1263.5" stroke="#34d399" stroke-width="1.3" fill="none" opacity="0.85"/><path d="M363.0527477500748 1175.5 H419.64087788956533" stroke="#34d399" stroke-width="1.3" fill="none" opacity="0.85"/><path d="M363.0527477500748 1244.25 H385.01061076039935" stroke="#34d399" stroke-width="1.3" fill="none" opacity="0.85"/><path d="M363.0527477500748 1175.5 V1244.25" stroke="#34d399" stroke-width="1.3" fill="none" opacity="0.85"/><path d="M325.0555680723769 1137 H590" stroke="#34d399" stroke-width="1.3" fill="none" opacity="0.85"/><path d="M325.0555680723769 1209.875 H363.0527477500748" stroke="#34d399" stroke-width="1.3" fill="none" opacity="0.85"/><path d="M325.0555680723769 1137 V1209.875" stroke="#34d399" stroke-width="1.3" fill="none" opacity="0.85"/><path d="M304.7547007163156 1104 H401.3686759937019" stroke="#34d399" stroke-width="1.3" fill="none" opacity="0.85"/><path d="M304.7547007163156 1173.4375 H325.0555680723769" stroke="#34d399" stroke-width="1.3" fill="none" opacity="0.85"/><path d="M304.7547007163156 1104 V1173.4375" stroke="#34d399" stroke-width="1.3" fill="none" opacity="0.85"/><path d="M258.0284371913304 910.8125 H310.04284003791514" stroke="#34d399" stroke-width="1.3" fill="none" opacity="0.85"/><path d="M258.0284371913304 1138.71875 H304.7547007163156" stroke="#34d399" stroke-width="1.3" fill="none" opacity="0.85"/><path d="M258.0284371913304 910.8125 V1138.71875" stroke="#34d399" stroke-width="1.3" fill="none" opacity="0.85"/><path d="M238.71062160748528 650.25 H319.289467800922" stroke="#34d399" stroke-width="1.3" fill="none" opacity="0.85"/><path d="M238.71062160748528 1024.765625 H258.0284371913304" stroke="#34d399" stroke-width="1.3" fill="none" opacity="0.85"/><path d="M238.71062160748528 650.25 V1024.765625" stroke="#34d399" stroke-width="1.3" fill="none" opacity="0.85"/><path d="M185.9562406863804 305.125 H240.9226902487665" stroke="#34d399" stroke-width="1.3" fill="none" opacity="0.85"/><path d="M185.9562406863804 837.5078125 H238.71062160748528" stroke="#34d399" stroke-width="1.3" fill="none" opacity="0.85"/><path d="M185.9562406863804 305.125 V837.5078125" stroke="#34d399" stroke-width="1.3" fill="none" opacity="0.85"/><text x="598" y="1316" fill="#cbd5e1" font-size="10" font-weight="400">Sugarscape</text><text x="598" y="1338" fill="#cbd5e1" font-size="10" font-weight="400">Swarm</text><path d="M500.0735447000654 1313 H590" stroke="#34d399" stroke-width="1.3" fill="none" opacity="0.85"/><path d="M500.0735447000654 1335 H590" stroke="#34d399" stroke-width="1.3" fill="none" opacity="0.85"/><path d="M500.0735447000654 1313 V1335" stroke="#34d399" stroke-width="1.3" fill="none" opacity="0.85"/><text x="598" y="1360" fill="#cbd5e1" font-size="10" font-weight="400">Echo</text><text x="598" y="1382" fill="#cbd5e1" font-size="10" font-weight="400">SimLife: The Genetic Playground</text><path d="M410.14708940013077 1357 H590" stroke="#34d399" stroke-width="1.3" fill="none" opacity="0.85"/><path d="M410.14708940013077 1379 H590" stroke="#34d399" stroke-width="1.3" fill="none" opacity="0.85"/><path d="M410.14708940013077 1357 V1379" stroke="#34d399" stroke-width="1.3" fill="none" opacity="0.85"/><path d="M396.04162466504954 1324 H500.0735447000654" stroke="#34d399" stroke-width="1.3" fill="none" opacity="0.85"/><path d="M396.04162466504954 1368 H410.14708940013077" stroke="#34d399" stroke-width="1.3" fill="none" opacity="0.85"/><path d="M396.04162466504954 1324 V1368" stroke="#34d399" stroke-width="1.3" fill="none" opacity="0.85"/><text x="598" y="1404" fill="#cbd5e1" font-size="10" font-weight="400">Tierra</text><text x="598" y="1426" fill="#cbd5e1" font-size="10" font-weight="400">Avida</text><path d="M444.99794779621584 1401 H590" stroke="#34d399" stroke-width="1.3" fill="none" opacity="0.85"/><path d="M444.99794779621584 1423 H590" stroke="#34d399" stroke-width="1.3" fill="none" opacity="0.85"/><path d="M444.99794779621584 1401 V1423" stroke="#34d399" stroke-width="1.3" fill="none" opacity="0.85"/><text x="598" y="1448" fill="#cbd5e1" font-size="10" font-weight="400">The Life Engine</text><text x="598" y="1470" fill="#cbd5e1" font-size="10" font-weight="400">Nanopond</text><text x="598" y="1492" fill="#cbd5e1" font-size="10" font-weight="400">Physis</text><path d="M476.2510317387546 1467 H590" stroke="#34d399" stroke-width="1.3" fill="none" opacity="0.85"/><path d="M476.2510317387546 1489 H590" stroke="#34d399" stroke-width="1.3" fill="none" opacity="0.85"/><path d="M476.2510317387546 1467 V1489" stroke="#34d399" stroke-width="1.3" fill="none" opacity="0.85"/><text x="598" y="1514" fill="#cbd5e1" font-size="10" font-weight="400">Network Tierra</text><text x="598" y="1536" fill="#cbd5e1" font-size="10" font-weight="400">Core War</text><text x="598" y="1558" fill="#cbd5e1" font-size="10" font-weight="400">Cosmos</text><text x="598" y="1580" fill="#cbd5e1" font-size="10" font-weight="400">Amoeba</text><path d="M590 1555 H590" stroke="#34d399" stroke-width="1.3" fill="none" opacity="0.85"/><path d="M590 1577 H590" stroke="#34d399" stroke-width="1.3" fill="none" opacity="0.85"/><path d="M590 1555 V1577" stroke="#34d399" stroke-width="1.3" fill="none" opacity="0.85"/><path d="M476.2510317387546 1533 H590" stroke="#34d399" stroke-width="1.3" fill="none" opacity="0.85"/><path d="M476.2510317387546 1566 H590" stroke="#34d399" stroke-width="1.3" fill="none" opacity="0.85"/><path d="M476.2510317387546 1533 V1566" stroke="#34d399" stroke-width="1.3" fill="none" opacity="0.85"/><path d="M460.5455766188363 1511 H590" stroke="#34d399" stroke-width="1.3" fill="none" opacity="0.85"/><path d="M460.5455766188363 1549.5 H476.2510317387546" stroke="#34d399" stroke-width="1.3" fill="none" opacity="0.85"/><path d="M460.5455766188363 1511 V1549.5" stroke="#34d399" stroke-width="1.3" fill="none" opacity="0.85"/><path d="M454.0631873893445 1478 H476.2510317387546" stroke="#34d399" stroke-width="1.3" fill="none" opacity="0.85"/><path d="M454.0631873893445 1530.25 H460.5455766188363" stroke="#34d399" stroke-width="1.3" fill="none" opacity="0.85"/><path d="M454.0631873893445 1478 V1530.25" stroke="#34d399" stroke-width="1.3" fill="none" opacity="0.85"/><path d="M431.6813989529415 1445 H590" stroke="#34d399" stroke-width="1.3" fill="none" opacity="0.85"/><path d="M431.6813989529415 1504.125 H454.0631873893445" stroke="#34d399" stroke-width="1.3" fill="none" opacity="0.85"/><path d="M431.6813989529415 1445 V1504.125" stroke="#34d399" stroke-width="1.3" fill="none" opacity="0.85"/><path d="M409.373622802485 1412 H444.99794779621584" stroke="#34d399" stroke-width="1.3" fill="none" opacity="0.85"/><path d="M409.373622802485 1474.5625 H431.6813989529415" stroke="#34d399" stroke-width="1.3" fill="none" opacity="0.85"/><path d="M409.373622802485 1412 V1474.5625" stroke="#34d399" stroke-width="1.3" fill="none" opacity="0.85"/><text x="598" y="1602" fill="#cbd5e1" font-size="10" font-weight="400">Aevol</text><text x="598" y="1624" fill="#cbd5e1" font-size="10" font-weight="400">Avida-ED</text><path d="M392.9810076629832 1599 H590" stroke="#34d399" stroke-width="1.3" fill="none" opacity="0.85"/><path d="M392.9810076629832 1621 H590" stroke="#34d399" stroke-width="1.3" fill="none" opacity="0.85"/><path d="M392.9810076629832 1599 V1621" stroke="#34d399" stroke-width="1.3" fill="none" opacity="0.85"/><path d="M345.4412743196998 1443.28125 H409.373622802485" stroke="#34d399" stroke-width="1.3" fill="none" opacity="0.85"/><path d="M345.4412743196998 1610 H392.9810076629832" stroke="#34d399" stroke-width="1.3" fill="none" opacity="0.85"/><path d="M345.4412743196998 1443.28125 V1610" stroke="#34d399" stroke-width="1.3" fill="none" opacity="0.85"/><path d="M315.8141727943652 1346 H396.04162466504954" stroke="#34d399" stroke-width="1.3" fill="none" opacity="0.85"/><path d="M315.8141727943652 1526.640625 H345.4412743196998" stroke="#34d399" stroke-width="1.3" fill="none" opacity="0.85"/><path d="M315.8141727943652 1346 V1526.640625" stroke="#34d399" stroke-width="1.3" fill="none" opacity="0.85"/><text x="598" y="1646" fill="#cbd5e1" font-size="10" font-weight="400">El Farol Bar Problem</text><text x="598" y="1668" fill="#cbd5e1" font-size="10" font-weight="400">Generative Agents (Smallville)</text><path d="M348.70199956849996 1643 H590" stroke="#34d399" stroke-width="1.3" fill="none" opacity="0.85"/><path d="M348.70199956849996 1665 H590" stroke="#34d399" stroke-width="1.3" fill="none" opacity="0.85"/><path d="M348.70199956849996 1643 V1665" stroke="#34d399" stroke-width="1.3" fill="none" opacity="0.85"/><text x="598" y="1690" fill="#cbd5e1" font-size="10" font-weight="400">Artificial Anasazi</text><text x="598" y="1712" fill="#cbd5e1" font-size="10" font-weight="400">Schelling Segregation Model</text><text x="598" y="1734" fill="#cbd5e1" font-size="10" font-weight="400">SimEarth: The Living Planet</text><text x="598" y="1756" fill="#cbd5e1" font-size="10" font-weight="400">SimAnt: The Electric Ant Colony</text><text x="598" y="1778" fill="#cbd5e1" font-size="10" font-weight="400">StarLogo</text><text x="598" y="1800" fill="#cbd5e1" font-size="10" font-weight="400">Ascape</text><path d="M476.2510317387546 1775 H590" stroke="#34d399" stroke-width="1.3" fill="none" opacity="0.85"/><path d="M476.2510317387546 1797 H590" stroke="#34d399" stroke-width="1.3" fill="none" opacity="0.85"/><path d="M476.2510317387546 1775 V1797" stroke="#34d399" stroke-width="1.3" fill="none" opacity="0.85"/><path d="M452.6928490588773 1753 H590" stroke="#34d399" stroke-width="1.3" fill="none" opacity="0.85"/><path d="M452.6928490588773 1786 H476.2510317387546" stroke="#34d399" stroke-width="1.3" fill="none" opacity="0.85"/><path d="M452.6928490588773 1753 V1786" stroke="#34d399" stroke-width="1.3" fill="none" opacity="0.85"/><path d="M426.1894117752027 1731 H590" stroke="#34d399" stroke-width="1.3" fill="none" opacity="0.85"/><path d="M426.1894117752027 1769.5 H452.6928490588773" stroke="#34d399" stroke-width="1.3" fill="none" opacity="0.85"/><path d="M426.1894117752027 1731 V1769.5" stroke="#34d399" stroke-width="1.3" fill="none" opacity="0.85"/><path d="M415.9904302397999 1709 H590" stroke="#34d399" stroke-width="1.3" fill="none" opacity="0.85"/><path d="M415.9904302397999 1750.25 H426.1894117752027" stroke="#34d399" stroke-width="1.3" fill="none" opacity="0.85"/><path d="M415.9904302397999 1709 V1750.25" stroke="#34d399" stroke-width="1.3" fill="none" opacity="0.85"/><path d="M395.924097040828 1687 H590" stroke="#34d399" stroke-width="1.3" fill="none" opacity="0.85"/><path d="M395.924097040828 1729.625 H415.9904302397999" stroke="#34d399" stroke-width="1.3" fill="none" opacity="0.85"/><path d="M395.924097040828 1687 V1729.625" stroke="#34d399" stroke-width="1.3" fill="none" opacity="0.85"/><text x="598" y="1822" fill="#cbd5e1" font-size="10" font-weight="400">Boids</text><text x="598" y="1844" fill="#cbd5e1" font-size="10" font-weight="400">NetLogo</text><text x="598" y="1866" fill="#cbd5e1" font-size="10" font-weight="400">Mesa</text><path d="M590 1841 H590" stroke="#34d399" stroke-width="1.3" fill="none" opacity="0.85"/><path d="M590 1863 H590" stroke="#34d399" stroke-width="1.3" fill="none" opacity="0.85"/><path d="M590 1841 V1863" stroke="#34d399" stroke-width="1.3" fill="none" opacity="0.85"/><text x="598" y="1888" fill="#cbd5e1" font-size="10" font-weight="400">GAMA Platform</text><text x="598" y="1910" fill="#cbd5e1" font-size="10" font-weight="400">MASON</text><text x="598" y="1932" fill="#cbd5e1" font-size="10" font-weight="400">Repast</text><path d="M509.5673331895 1907 H590" stroke="#34d399" stroke-width="1.3" fill="none" opacity="0.85"/><path d="M509.5673331895 1929 H590" stroke="#34d399" stroke-width="1.3" fill="none" opacity="0.85"/><path d="M509.5673331895 1907 V1929" stroke="#34d399" stroke-width="1.3" fill="none" opacity="0.85"/><path d="M492.9091824641273 1885 H590" stroke="#34d399" stroke-width="1.3" fill="none" opacity="0.85"/><path d="M492.9091824641273 1918 H509.5673331895" stroke="#34d399" stroke-width="1.3" fill="none" opacity="0.85"/><path d="M492.9091824641273 1885 V1918" stroke="#34d399" stroke-width="1.3" fill="none" opacity="0.85"/><path d="M478.8349664747365 1852 H590" stroke="#34d399" stroke-width="1.3" fill="none" opacity="0.85"/><path d="M478.8349664747365 1901.5 H492.9091824641273" stroke="#34d399" stroke-width="1.3" fill="none" opacity="0.85"/><path d="M478.8349664747365 1852 V1901.5" stroke="#34d399" stroke-width="1.3" fill="none" opacity="0.85"/><path d="M395.03234578058107 1819 H590" stroke="#34d399" stroke-width="1.3" fill="none" opacity="0.85"/><path d="M395.03234578058107 1876.75 H478.8349664747365" stroke="#34d399" stroke-width="1.3" fill="none" opacity="0.85"/><path d="M395.03234578058107 1819 V1876.75" stroke="#34d399" stroke-width="1.3" fill="none" opacity="0.85"/><path d="M346.50812985648685 1708.3125 H395.924097040828" stroke="#34d399" stroke-width="1.3" fill="none" opacity="0.85"/><path d="M346.50812985648685 1847.875 H395.03234578058107" stroke="#34d399" stroke-width="1.3" fill="none" opacity="0.85"/><path d="M346.50812985648685 1708.3125 V1847.875" stroke="#34d399" stroke-width="1.3" fill="none" opacity="0.85"/><path d="M289.5375960425135 1654 H348.70199956849996" stroke="#34d399" stroke-width="1.3" fill="none" opacity="0.85"/><path d="M289.5375960425135 1778.09375 H346.50812985648685" stroke="#34d399" stroke-width="1.3" fill="none" opacity="0.85"/><path d="M289.5375960425135 1654 V1778.09375" stroke="#34d399" stroke-width="1.3" fill="none" opacity="0.85"/><path d="M194.37342909840098 1436.3203125 H315.8141727943652" stroke="#34d399" stroke-width="1.3" fill="none" opacity="0.85"/><path d="M194.37342909840098 1716.046875 H289.5375960425135" stroke="#34d399" stroke-width="1.3" fill="none" opacity="0.85"/><path d="M194.37342909840098 1436.3203125 V1716.046875" stroke="#34d399" stroke-width="1.3" fill="none" opacity="0.85"/><text x="598" y="1954" fill="#cbd5e1" font-size="10" font-weight="400">Lenia</text><text x="598" y="1976" fill="#cbd5e1" font-size="10" font-weight="400">Particle Lenia</text><path d="M476.2510317387546 1951 H590" stroke="#34d399" stroke-width="1.3" fill="none" opacity="0.85"/><path d="M476.2510317387546 1973 H590" stroke="#34d399" stroke-width="1.3" fill="none" opacity="0.85"/><path d="M476.2510317387546 1951 V1973" stroke="#34d399" stroke-width="1.3" fill="none" opacity="0.85"/><text x="598" y="1998" fill="#cbd5e1" font-size="10" font-weight="400">Flow Lenia</text><text x="598" y="2020" fill="#cbd5e1" font-size="10" font-weight="400">Thrive</text><path d="M429.13466637899995 1995 H590" stroke="#34d399" stroke-width="1.3" fill="none" opacity="0.85"/><path d="M429.13466637899995 2017 H590" stroke="#34d399" stroke-width="1.3" fill="none" opacity="0.85"/><path d="M429.13466637899995 1995 V2017" stroke="#34d399" stroke-width="1.3" fill="none" opacity="0.85"/><path d="M386.5478361756149 1962 H476.2510317387546" stroke="#34d399" stroke-width="1.3" fill="none" opacity="0.85"/><path d="M386.5478361756149 2006 H429.13466637899995" stroke="#34d399" stroke-width="1.3" fill="none" opacity="0.85"/><path d="M386.5478361756149 1962 V2006" stroke="#34d399" stroke-width="1.3" fill="none" opacity="0.85"/><text x="598" y="2042" fill="#cbd5e1" font-size="10" font-weight="400">Clusters (Particle Life)</text><text x="598" y="2064" fill="#cbd5e1" font-size="10" font-weight="400">Spore</text><text x="598" y="2086" fill="#cbd5e1" font-size="10" font-weight="400">Noita</text><text x="598" y="2108" fill="#cbd5e1" font-size="10" font-weight="400">Sandspiel</text><path d="M476.2510317387546 2083 H590" stroke="#34d399" stroke-width="1.3" fill="none" opacity="0.85"/><path d="M476.2510317387546 2105 H590" stroke="#34d399" stroke-width="1.3" fill="none" opacity="0.85"/><path d="M476.2510317387546 2083 V2105" stroke="#34d399" stroke-width="1.3" fill="none" opacity="0.85"/><path d="M411.0578370209916 2061 H590" stroke="#34d399" stroke-width="1.3" fill="none" opacity="0.85"/><path d="M411.0578370209916 2094 H476.2510317387546" stroke="#34d399" stroke-width="1.3" fill="none" opacity="0.85"/><path d="M411.0578370209916 2061 V2094" stroke="#34d399" stroke-width="1.3" fill="none" opacity="0.85"/><path d="M405.0322272349888 2039 H590" stroke="#34d399" stroke-width="1.3" fill="none" opacity="0.85"/><path d="M405.0322272349888 2077.5 H411.0578370209916" stroke="#34d399" stroke-width="1.3" fill="none" opacity="0.85"/><path d="M405.0322272349888 2039 V2077.5" stroke="#34d399" stroke-width="1.3" fill="none" opacity="0.85"/><text x="598" y="2130" fill="#cbd5e1" font-size="10" font-weight="400">OpenSteer</text><text x="598" y="2152" fill="#cbd5e1" font-size="10" font-weight="400">Pezzza's Ant Colony Simulation</text><path d="M476.2510317387546 2127 H590" stroke="#34d399" stroke-width="1.3" fill="none" opacity="0.85"/><path d="M476.2510317387546 2149 H590" stroke="#34d399" stroke-width="1.3" fill="none" opacity="0.85"/><path d="M476.2510317387546 2127 V2149" stroke="#34d399" stroke-width="1.3" fill="none" opacity="0.85"/><text x="598" y="2174" fill="#cbd5e1" font-size="10" font-weight="400">The Powder Toy</text><text x="598" y="2196" fill="#cbd5e1" font-size="10" font-weight="400">SmoothLife</text><text x="598" y="2218" fill="#cbd5e1" font-size="10" font-weight="400">Larger than Life</text><path d="M590 2193 H590" stroke="#34d399" stroke-width="1.3" fill="none" opacity="0.85"/><path d="M590 2215 H590" stroke="#34d399" stroke-width="1.3" fill="none" opacity="0.85"/><path d="M590 2193 V2215" stroke="#34d399" stroke-width="1.3" fill="none" opacity="0.85"/><text x="598" y="2240" fill="#cbd5e1" font-size="10" font-weight="400">Gray-Scott Reaction-Diffusion</text><text x="598" y="2262" fill="#cbd5e1" font-size="10" font-weight="400">Morphozoic</text><path d="M476.2510317387546 2237 H590" stroke="#34d399" stroke-width="1.3" fill="none" opacity="0.85"/><path d="M476.2510317387546 2259 H590" stroke="#34d399" stroke-width="1.3" fill="none" opacity="0.85"/><path d="M476.2510317387546 2237 V2259" stroke="#34d399" stroke-width="1.3" fill="none" opacity="0.85"/><path d="M452.6928490588773 2204 H590" stroke="#34d399" stroke-width="1.3" fill="none" opacity="0.85"/><path d="M452.6928490588773 2248 H476.2510317387546" stroke="#34d399" stroke-width="1.3" fill="none" opacity="0.85"/><path d="M452.6928490588773 2204 V2248" stroke="#34d399" stroke-width="1.3" fill="none" opacity="0.85"/><path d="M429.13466637899995 2171 H590" stroke="#34d399" stroke-width="1.3" fill="none" opacity="0.85"/><path d="M429.13466637899995 2226 H452.6928490588773" stroke="#34d399" stroke-width="1.3" fill="none" opacity="0.85"/><path d="M429.13466637899995 2171 V2226" stroke="#34d399" stroke-width="1.3" fill="none" opacity="0.85"/><path d="M392.32905807331707 2138 H476.2510317387546" stroke="#34d399" stroke-width="1.3" fill="none" opacity="0.85"/><path d="M392.32905807331707 2198.5 H429.13466637899995" stroke="#34d399" stroke-width="1.3" fill="none" opacity="0.85"/><path d="M392.32905807331707 2138 V2198.5" stroke="#34d399" stroke-width="1.3" fill="none" opacity="0.85"/><path d="M380.1324240385502 2058.25 H405.0322272349888" stroke="#34d399" stroke-width="1.3" fill="none" opacity="0.85"/><path d="M380.1324240385502 2168.25 H392.32905807331707" stroke="#34d399" stroke-width="1.3" fill="none" opacity="0.85"/><path d="M380.1324240385502 2058.25 V2168.25" stroke="#34d399" stroke-width="1.3" fill="none" opacity="0.85"/><path d="M325.7335632359128 1984 H386.5478361756149" stroke="#34d399" stroke-width="1.3" fill="none" opacity="0.85"/><path d="M325.7335632359128 2113.25 H380.1324240385502" stroke="#34d399" stroke-width="1.3" fill="none" opacity="0.85"/><path d="M325.7335632359128 1984 V2113.25" stroke="#34d399" stroke-width="1.3" fill="none" opacity="0.85"/><text x="598" y="2284" fill="#cbd5e1" font-size="10" font-weight="400">Game of Life</text><text x="598" y="2306" fill="#cbd5e1" font-size="10" font-weight="400">Voxelyze / VoxCAD</text><text x="598" y="2328" fill="#cbd5e1" font-size="10" font-weight="400">Growing NCA</text><text x="598" y="2350" fill="#cbd5e1" font-size="10" font-weight="400">Genie (Generative Interactive Environments)</text><path d="M424.1838094950982 2325 H590" stroke="#34d399" stroke-width="1.3" fill="none" opacity="0.85"/><path d="M424.1838094950982 2347 H590" stroke="#34d399" stroke-width="1.3" fill="none" opacity="0.85"/><path d="M424.1838094950982 2325 V2347" stroke="#34d399" stroke-width="1.3" fill="none" opacity="0.85"/><text x="598" y="2372" fill="#cbd5e1" font-size="10" font-weight="400">DevoWorm</text><text x="598" y="2394" fill="#cbd5e1" font-size="10" font-weight="400">EvoGym</text><text x="598" y="2416" fill="#cbd5e1" font-size="10" font-weight="400">RoboGrammar</text><path d="M476.2510317387546 2391 H590" stroke="#34d399" stroke-width="1.3" fill="none" opacity="0.85"/><path d="M476.2510317387546 2413 H590" stroke="#34d399" stroke-width="1.3" fill="none" opacity="0.85"/><path d="M476.2510317387546 2391 V2413" stroke="#34d399" stroke-width="1.3" fill="none" opacity="0.85"/><path d="M362.94858295109907 2369 H590" stroke="#34d399" stroke-width="1.3" fill="none" opacity="0.85"/><path d="M362.94858295109907 2402 H476.2510317387546" stroke="#34d399" stroke-width="1.3" fill="none" opacity="0.85"/><path d="M362.94858295109907 2369 V2402" stroke="#34d399" stroke-width="1.3" fill="none" opacity="0.85"/><path d="M338.59363798884976 2336 H424.1838094950982" stroke="#34d399" stroke-width="1.3" fill="none" opacity="0.85"/><path d="M338.59363798884976 2385.5 H362.94858295109907" stroke="#34d399" stroke-width="1.3" fill="none" opacity="0.85"/><path d="M338.59363798884976 2336 V2385.5" stroke="#34d399" stroke-width="1.3" fill="none" opacity="0.85"/><path d="M301.553678014422 2303 H590" stroke="#34d399" stroke-width="1.3" fill="none" opacity="0.85"/><path d="M301.553678014422 2360.75 H338.59363798884976" stroke="#34d399" stroke-width="1.3" fill="none" opacity="0.85"/><path d="M301.553678014422 2303 V2360.75" stroke="#34d399" stroke-width="1.3" fill="none" opacity="0.85"/><path d="M265.95109753306065 2281 H590" stroke="#34d399" stroke-width="1.3" fill="none" opacity="0.85"/><path d="M265.95109753306065 2331.875 H301.553678014422" stroke="#34d399" stroke-width="1.3" fill="none" opacity="0.85"/><path d="M265.95109753306065 2281 V2331.875" stroke="#34d399" stroke-width="1.3" fill="none" opacity="0.85"/><path d="M258.6836523726691 2048.625 H325.7335632359128" stroke="#34d399" stroke-width="1.3" fill="none" opacity="0.85"/><path d="M258.6836523726691 2306.4375 H265.95109753306065" stroke="#34d399" stroke-width="1.3" fill="none" opacity="0.85"/><path d="M258.6836523726691 2048.625 V2306.4375" stroke="#34d399" stroke-width="1.3" fill="none" opacity="0.85"/><text x="598" y="2438" fill="#cbd5e1" font-size="10" font-weight="400">Rule 110</text><text x="598" y="2460" fill="#cbd5e1" font-size="10" font-weight="400">Wireworld</text><text x="598" y="2482" fill="#cbd5e1" font-size="10" font-weight="400">Langton's Ant</text><path d="M590 2457 H590" stroke="#34d399" stroke-width="1.3" fill="none" opacity="0.85"/><path d="M590 2479 H590" stroke="#34d399" stroke-width="1.3" fill="none" opacity="0.85"/><path d="M590 2457 V2479" stroke="#34d399" stroke-width="1.3" fill="none" opacity="0.85"/><path d="M590 2435 H590" stroke="#34d399" stroke-width="1.3" fill="none" opacity="0.85"/><path d="M590 2468 H590" stroke="#34d399" stroke-width="1.3" fill="none" opacity="0.85"/><path d="M590 2435 V2468" stroke="#34d399" stroke-width="1.3" fill="none" opacity="0.85"/><text x="598" y="2504" fill="#cbd5e1" font-size="10" font-weight="400">Biomorphs</text><text x="598" y="2526" fill="#cbd5e1" font-size="10" font-weight="400">Langton's Loops</text><text x="598" y="2548" fill="#cbd5e1" font-size="10" font-weight="400">von Neumann Universal Constructor</text><path d="M429.13466637899995 2523 H590" stroke="#34d399" stroke-width="1.3" fill="none" opacity="0.85"/><path d="M429.13466637899995 2545 H590" stroke="#34d399" stroke-width="1.3" fill="none" opacity="0.85"/><path d="M429.13466637899995 2523 V2545" stroke="#34d399" stroke-width="1.3" fill="none" opacity="0.85"/><path d="M323.2350233018997 2501 H590" stroke="#34d399" stroke-width="1.3" fill="none" opacity="0.85"/><path d="M323.2350233018997 2534 H429.13466637899995" stroke="#34d399" stroke-width="1.3" fill="none" opacity="0.85"/><path d="M323.2350233018997 2501 V2534" stroke="#34d399" stroke-width="1.3" fill="none" opacity="0.85"/><path d="M223.18859797346417 2451.5 H590" stroke="#34d399" stroke-width="1.3" fill="none" opacity="0.85"/><path d="M223.18859797346417 2517.5 H323.2350233018997" stroke="#34d399" stroke-width="1.3" fill="none" opacity="0.85"/><path d="M223.18859797346417 2451.5 V2517.5" stroke="#34d399" stroke-width="1.3" fill="none" opacity="0.85"/><path d="M172.73201549821732 2177.53125 H258.6836523726691" stroke="#34d399" stroke-width="1.3" fill="none" opacity="0.85"/><path d="M172.73201549821732 2484.5 H223.18859797346417" stroke="#34d399" stroke-width="1.3" fill="none" opacity="0.85"/><path d="M172.73201549821732 2177.53125 V2484.5" stroke="#34d399" stroke-width="1.3" fill="none" opacity="0.85"/><path d="M142.07642305658462 1576.18359375 H194.37342909840098" stroke="#34d399" stroke-width="1.3" fill="none" opacity="0.85"/><path d="M142.07642305658462 2331.015625 H172.73201549821732" stroke="#34d399" stroke-width="1.3" fill="none" opacity="0.85"/><path d="M142.07642305658462 1576.18359375 V2331.015625" stroke="#34d399" stroke-width="1.3" fill="none" opacity="0.85"/><path d="M132.11311473253036 571.31640625 H185.9562406863804" stroke="#34d399" stroke-width="1.3" fill="none" opacity="0.85"/><path d="M132.11311473253036 1953.599609375 H142.07642305658462" stroke="#34d399" stroke-width="1.3" fill="none" opacity="0.85"/><path d="M132.11311473253036 571.31640625 V1953.599609375" stroke="#34d399" stroke-width="1.3" fill="none" opacity="0.85"/><path d="M82.56566993558866 114 H289.0485180905654" stroke="#34d399" stroke-width="1.3" fill="none" opacity="0.85"/><path d="M82.56566993558866 1262.4580078125 H132.11311473253036" stroke="#34d399" stroke-width="1.3" fill="none" opacity="0.85"/><path d="M82.56566993558866 114 V1262.4580078125" stroke="#34d399" stroke-width="1.3" fill="none" opacity="0.85"/><path d="M30 81 H590" stroke="#f59e0b" stroke-width="1.3" fill="none" opacity="0.85"/><path d="M30 688.22900390625 H82.56566993558866" stroke="#f59e0b" stroke-width="1.3" fill="none" opacity="0.85"/><path d="M30 81 V688.22900390625" stroke="#f59e0b" stroke-width="1.3" fill="none" opacity="0.85"/>
</svg>