<svg xmlns="http://www.w3.org/2000/svg" viewBox="0 0 680 332" font-family="ui-sans-serif,system-ui,Segoe UI,Roboto,sans-serif" role="img" aria-label="Nearest neighbours">
<rect width="680" height="332" rx="14" fill="#0b1220"/>
<text x="28" y="30" fill="#cbd5e1" font-size="18" font-weight="700">Nearest neighbours in 9-axis feature space</text><text x="28" y="50" fill="#7c8aa5" font-size="12">Euclidean distance from Cosmogonic (lower = more similar capability shape).</text><text x="140" y="83" fill="#cbd5e1" font-size="11" text-anchor="end">ALIEN</text><rect x="150" y="69" width="321.4153439153439" height="18" rx="3" fill="#34d399" opacity="0.78"/><text x="477.4153439153439" y="83" fill="#7c8aa5" font-size="10">5.17</text><text x="140" y="113" fill="#cbd5e1" font-size="11" text-anchor="end">Creatures</text><rect x="150" y="99" width="346.28306878306876" height="18" rx="3" fill="#34d399" opacity="0.78"/><text x="502.28306878306876" y="113" fill="#7c8aa5" font-size="10">5.57</text><text x="140" y="143" fill="#cbd5e1" font-size="11" text-anchor="end">Polyworld</text><rect x="150" y="129" width="402.8571428571429" height="18" rx="3" fill="#34d399" opacity="0.78"/><text x="558.8571428571429" y="143" fill="#7c8aa5" font-size="10">6.48</text><text x="140" y="173" fill="#cbd5e1" font-size="11" text-anchor="end">Framsticks</text><rect x="150" y="159" width="407.8306878306878" height="18" rx="3" fill="#34d399" opacity="0.78"/><text x="563.8306878306878" y="173" fill="#7c8aa5" font-size="10">6.56</text><text x="140" y="203" fill="#cbd5e1" font-size="11" text-anchor="end">Species: Artificial Life, Real Evolution</text><rect x="150" y="189" width="430.83333333333326" height="18" rx="3" fill="#34d399" opacity="0.78"/><text x="586.8333333333333" y="203" fill="#7c8aa5" font-size="10">6.93</text><text x="140" y="233" fill="#cbd5e1" font-size="11" text-anchor="end">The Bibites</text><rect x="150" y="219" width="430.83333333333326" height="18" rx="3" fill="#34d399" opacity="0.78"/><text x="586.8333333333333" y="233" fill="#7c8aa5" font-size="10">6.93</text><text x="140" y="263" fill="#cbd5e1" font-size="11" text-anchor="end">breve</text><rect x="150" y="249" width="435.1851851851852" height="18" rx="3" fill="#34d399" opacity="0.78"/><text x="591.1851851851852" y="263" fill="#7c8aa5" font-size="10">7.00</text><text x="140" y="293" fill="#cbd5e1" font-size="11" text-anchor="end">Division Blocks</text><rect x="150" y="279" width="435.1851851851852" height="18" rx="3" fill="#34d399" opacity="0.78"/><text x="591.1851851851852" y="293" fill="#7c8aa5" font-size="10">7.00</text>
</svg>