<svg xmlns="http://www.w3.org/2000/svg" viewBox="0 0 760 2930" font-family="ui-sans-serif,system-ui,Segoe UI,Roboto,sans-serif" role="img" aria-label="Ranked breadth of integrated mechanisms">
<rect width="760" height="2930" rx="14" fill="#0b1220"/>
<text x="28" y="30" fill="#cbd5e1" font-size="18" font-weight="700">Breadth of integrated mechanisms — ranked</text><text x="28" y="50" fill="#7c8aa5" font-size="12">mean of 9 implementation axes (0–5). amber = this repo. n=129.</text><line x1="168" y1="56" x2="168" y2="2902" stroke="#27344d" stroke-width="1"/><text x="168" y="2920" fill="#7c8aa5" font-size="10" text-anchor="middle">0</text><line x1="275.2" y1="56" x2="275.2" y2="2902" stroke="#27344d" stroke-width="1"/><text x="275.2" y="2920" fill="#7c8aa5" font-size="10" text-anchor="middle">1</text><line x1="382.4" y1="56" x2="382.4" y2="2902" stroke="#27344d" stroke-width="1"/><text x="382.4" y="2920" fill="#7c8aa5" font-size="10" text-anchor="middle">2</text><line x1="489.59999999999997" y1="56" x2="489.59999999999997" y2="2902" stroke="#27344d" stroke-width="1"/><text x="489.59999999999997" y="2920" fill="#7c8aa5" font-size="10" text-anchor="middle">3</text><line x1="596.8" y1="56" x2="596.8" y2="2902" stroke="#27344d" stroke-width="1"/><text x="596.8" y="2920" fill="#7c8aa5" font-size="10" text-anchor="middle">4</text><line x1="704" y1="56" x2="704" y2="2902" stroke="#27344d" stroke-width="1"/><text x="704" y="2920" fill="#7c8aa5" font-size="10" text-anchor="middle">5</text><text x="158" y="79" fill="#f59e0b" font-size="11" font-weight="700" text-anchor="end">COSMOGONIC</text><rect x="168" y="68" width="404.97777777777776" height="14" rx="3" fill="#f59e0b" opacity="0.95"/><text x="578.9777777777778" y="79" fill="#f59e0b" font-size="10" font-weight="700">3.78</text><text x="158" y="101" fill="#cbd5e1" font-size="11" font-weight="400" text-anchor="end">ALIEN</text><rect x="168" y="90" width="375.20000000000005" height="14" rx="3" fill="#38bdf8" opacity="0.7"/><text x="549.2" y="101" fill="#7c8aa5" font-size="10" font-weight="400">3.50</text><text x="158" y="123" fill="#cbd5e1" font-size="11" font-weight="400" text-anchor="end">Creatures</text><rect x="168" y="112" width="357.33333333333337" height="14" rx="3" fill="#38bdf8" opacity="0.7"/><text x="531.3333333333334" y="123" fill="#7c8aa5" font-size="10" font-weight="400">3.33</text><text x="158" y="145" fill="#cbd5e1" font-size="11" font-weight="400" text-anchor="end">Framsticks</text><rect x="168" y="134" width="345.4222222222222" height="14" rx="3" fill="#38bdf8" opacity="0.7"/><text x="519.4222222222222" y="145" fill="#7c8aa5" font-size="10" font-weight="400">3.22</text><text x="158" y="167" fill="#cbd5e1" font-size="11" font-weight="400" text-anchor="end">Polyworld</text><rect x="168" y="156" width="321.59999999999997" height="14" rx="3" fill="#38bdf8" opacity="0.7"/><text x="495.59999999999997" y="167" fill="#7c8aa5" font-size="10" font-weight="400">3.00</text><text x="158" y="189" fill="#cbd5e1" font-size="11" font-weight="400" text-anchor="end">Gene Pool</text><rect x="168" y="178" width="315.64444444444445" height="14" rx="3" fill="#38bdf8" opacity="0.7"/><text x="489.64444444444445" y="189" fill="#7c8aa5" font-size="10" font-weight="400">2.94</text><text x="158" y="211" fill="#cbd5e1" font-size="11" font-weight="400" text-anchor="end">Karl Sims VC</text><rect x="168" y="200" width="309.68888888888887" height="14" rx="3" fill="#38bdf8" opacity="0.7"/><text x="483.68888888888887" y="211" fill="#7c8aa5" font-size="10" font-weight="400">2.89</text><text x="158" y="233" fill="#cbd5e1" font-size="11" font-weight="400" text-anchor="end">Picbreeder</text><rect x="168" y="222" width="309.68888888888887" height="14" rx="3" fill="#38bdf8" opacity="0.7"/><text x="483.68888888888887" y="233" fill="#7c8aa5" font-size="10" font-weight="400">2.89</text><text x="158" y="255" fill="#cbd5e1" font-size="11" font-weight="400" text-anchor="end">DERL (Deep Evolutionary Reinforcement Learning)</text><rect x="168" y="244" width="309.68888888888887" height="14" rx="3" fill="#38bdf8" opacity="0.7"/><text x="483.68888888888887" y="255" fill="#7c8aa5" font-size="10" font-weight="400">2.89</text><text x="158" y="277" fill="#cbd5e1" font-size="11" font-weight="400" text-anchor="end">breve</text><rect x="168" y="266" width="297.77777777777777" height="14" rx="3" fill="#38bdf8" opacity="0.7"/><text x="471.77777777777777" y="277" fill="#7c8aa5" font-size="10" font-weight="400">2.78</text><text x="158" y="299" fill="#cbd5e1" font-size="11" font-weight="400" text-anchor="end">Geb</text><rect x="168" y="288" width="297.77777777777777" height="14" rx="3" fill="#38bdf8" opacity="0.7"/><text x="471.77777777777777" y="299" fill="#7c8aa5" font-size="10" font-weight="400">2.78</text><text x="158" y="321" fill="#cbd5e1" font-size="11" font-weight="400" text-anchor="end">UNIMAL (Universal Animal design space)</text><rect x="168" y="310" width="297.77777777777777" height="14" rx="3" fill="#38bdf8" opacity="0.7"/><text x="471.77777777777777" y="321" fill="#7c8aa5" font-size="10" font-weight="400">2.78</text><text x="158" y="343" fill="#cbd5e1" font-size="11" font-weight="400" text-anchor="end">Darwin Pond</text><rect x="168" y="332" width="285.8666666666667" height="14" rx="3" fill="#38bdf8" opacity="0.7"/><text x="459.8666666666667" y="343" fill="#7c8aa5" font-size="10" font-weight="400">2.67</text><text x="158" y="365" fill="#cbd5e1" font-size="11" font-weight="400" text-anchor="end">MABE</text><rect x="168" y="354" width="285.8666666666667" height="14" rx="3" fill="#38bdf8" opacity="0.7"/><text x="459.8666666666667" y="365" fill="#7c8aa5" font-size="10" font-weight="400">2.67</text><text x="158" y="387" fill="#cbd5e1" font-size="11" font-weight="400" text-anchor="end">ASAL</text><rect x="168" y="376" width="285.8666666666667" height="14" rx="3" fill="#38bdf8" opacity="0.7"/><text x="459.8666666666667" y="387" fill="#7c8aa5" font-size="10" font-weight="400">2.67</text><text x="158" y="409" fill="#cbd5e1" font-size="11" font-weight="400" text-anchor="end">Species: Artificial Life, Real Evolution</text><rect x="168" y="398" width="285.8666666666667" height="14" rx="3" fill="#38bdf8" opacity="0.7"/><text x="459.8666666666667" y="409" fill="#7c8aa5" font-size="10" font-weight="400">2.67</text><text x="158" y="431" fill="#cbd5e1" font-size="11" font-weight="400" text-anchor="end">The Bibites</text><rect x="168" y="420" width="285.8666666666667" height="14" rx="3" fill="#38bdf8" opacity="0.7"/><text x="459.8666666666667" y="431" fill="#7c8aa5" font-size="10" font-weight="400">2.67</text><text x="158" y="453" fill="#cbd5e1" font-size="11" font-weight="400" text-anchor="end">Division Blocks</text><rect x="168" y="442" width="285.8666666666667" height="14" rx="3" fill="#38bdf8" opacity="0.7"/><text x="459.8666666666667" y="453" fill="#7c8aa5" font-size="10" font-weight="400">2.67</text><text x="158" y="475" fill="#cbd5e1" font-size="11" font-weight="400" text-anchor="end">Flow Lenia</text><rect x="168" y="464" width="273.9555555555555" height="14" rx="3" fill="#38bdf8" opacity="0.7"/><text x="447.9555555555555" y="475" fill="#7c8aa5" font-size="10" font-weight="400">2.56</text><text x="158" y="497" fill="#cbd5e1" font-size="11" font-weight="400" text-anchor="end">3D Virtual Creature Evolution (3DVCE)</text><rect x="168" y="486" width="273.9555555555555" height="14" rx="3" fill="#38bdf8" opacity="0.7"/><text x="447.9555555555555" y="497" fill="#7c8aa5" font-size="10" font-weight="400">2.56</text><text x="158" y="519" fill="#cbd5e1" font-size="11" font-weight="400" text-anchor="end">Neural Graph Evolution (NGE)</text><rect x="168" y="508" width="273.9555555555555" height="14" rx="3" fill="#38bdf8" opacity="0.7"/><text x="447.9555555555555" y="519" fill="#7c8aa5" font-size="10" font-weight="400">2.56</text><text x="158" y="541" fill="#cbd5e1" font-size="11" font-weight="400" text-anchor="end">MAP-Elites</text><rect x="168" y="530" width="273.9555555555555" height="14" rx="3" fill="#38bdf8" opacity="0.7"/><text x="447.9555555555555" y="541" fill="#7c8aa5" font-size="10" font-weight="400">2.56</text><text x="158" y="563" fill="#cbd5e1" font-size="11" font-weight="400" text-anchor="end">Quality-Diversity (illumination algorithms)</text><rect x="168" y="552" width="273.9555555555555" height="14" rx="3" fill="#38bdf8" opacity="0.7"/><text x="447.9555555555555" y="563" fill="#7c8aa5" font-size="10" font-weight="400">2.56</text><text x="158" y="585" fill="#cbd5e1" font-size="11" font-weight="400" text-anchor="end">Minimal Criterion Coevolution (MCC)</text><rect x="168" y="574" width="273.9555555555555" height="14" rx="3" fill="#38bdf8" opacity="0.7"/><text x="447.9555555555555" y="585" fill="#7c8aa5" font-size="10" font-weight="400">2.56</text><text x="158" y="607" fill="#cbd5e1" font-size="11" font-weight="400" text-anchor="end">OpenWorm</text><rect x="168" y="596" width="262.0444444444445" height="14" rx="3" fill="#38bdf8" opacity="0.7"/><text x="436.0444444444445" y="607" fill="#7c8aa5" font-size="10" font-weight="400">2.44</text><text x="158" y="629" fill="#cbd5e1" font-size="11" font-weight="400" text-anchor="end">EvoGym</text><rect x="168" y="618" width="262.0444444444445" height="14" rx="3" fill="#38bdf8" opacity="0.7"/><text x="436.0444444444445" y="629" fill="#7c8aa5" font-size="10" font-weight="400">2.44</text><text x="158" y="651" fill="#cbd5e1" font-size="11" font-weight="400" text-anchor="end">biosim4</text><rect x="168" y="640" width="262.0444444444445" height="14" rx="3" fill="#38bdf8" opacity="0.7"/><text x="436.0444444444445" y="651" fill="#7c8aa5" font-size="10" font-weight="400">2.44</text><text x="158" y="673" fill="#cbd5e1" font-size="11" font-weight="400" text-anchor="end">Evolving Soft Robots (Cheney / Unshackling Evolution)</text><rect x="168" y="662" width="262.0444444444445" height="14" rx="3" fill="#38bdf8" opacity="0.7"/><text x="436.0444444444445" y="673" fill="#7c8aa5" font-size="10" font-weight="400">2.44</text><text x="158" y="695" fill="#cbd5e1" font-size="11" font-weight="400" text-anchor="end">RoboGrammar</text><rect x="168" y="684" width="262.0444444444445" height="14" rx="3" fill="#38bdf8" opacity="0.7"/><text x="436.0444444444445" y="695" fill="#7c8aa5" font-size="10" font-weight="400">2.44</text><text x="158" y="717" fill="#cbd5e1" font-size="11" font-weight="400" text-anchor="end">Transform2Act</text><rect x="168" y="706" width="262.0444444444445" height="14" rx="3" fill="#38bdf8" opacity="0.7"/><text x="436.0444444444445" y="717" fill="#7c8aa5" font-size="10" font-weight="400">2.44</text><text x="158" y="739" fill="#cbd5e1" font-size="11" font-weight="400" text-anchor="end">HyperNEAT</text><rect x="168" y="728" width="262.0444444444445" height="14" rx="3" fill="#38bdf8" opacity="0.7"/><text x="436.0444444444445" y="739" fill="#7c8aa5" font-size="10" font-weight="400">2.44</text><text x="158" y="761" fill="#cbd5e1" font-size="11" font-weight="400" text-anchor="end">Keiwan Evolution</text><rect x="168" y="750" width="262.0444444444445" height="14" rx="3" fill="#38bdf8" opacity="0.7"/><text x="436.0444444444445" y="761" fill="#7c8aa5" font-size="10" font-weight="400">2.44</text><text x="158" y="783" fill="#cbd5e1" font-size="11" font-weight="400" text-anchor="end">OMNI-EPIC</text><rect x="168" y="772" width="262.0444444444445" height="14" rx="3" fill="#38bdf8" opacity="0.7"/><text x="436.0444444444445" y="783" fill="#7c8aa5" font-size="10" font-weight="400">2.44</text><text x="158" y="805" fill="#cbd5e1" font-size="11" font-weight="400" text-anchor="end">Evolution through Large Models (ELM)</text><rect x="168" y="794" width="262.0444444444445" height="14" rx="3" fill="#38bdf8" opacity="0.7"/><text x="436.0444444444445" y="805" fill="#7c8aa5" font-size="10" font-weight="400">2.44</text><text x="158" y="827" fill="#cbd5e1" font-size="11" font-weight="400" text-anchor="end">Avida</text><rect x="168" y="816" width="250.13333333333333" height="14" rx="3" fill="#38bdf8" opacity="0.7"/><text x="424.1333333333333" y="827" fill="#7c8aa5" font-size="10" font-weight="400">2.33</text><text x="158" y="849" fill="#cbd5e1" font-size="11" font-weight="400" text-anchor="end">Sugarscape</text><rect x="168" y="838" width="250.13333333333333" height="14" rx="3" fill="#38bdf8" opacity="0.7"/><text x="424.1333333333333" y="849" fill="#7c8aa5" font-size="10" font-weight="400">2.33</text><text x="158" y="871" fill="#cbd5e1" font-size="11" font-weight="400" text-anchor="end">POET</text><rect x="168" y="860" width="250.13333333333333" height="14" rx="3" fill="#38bdf8" opacity="0.7"/><text x="424.1333333333333" y="871" fill="#7c8aa5" font-size="10" font-weight="400">2.33</text><text x="158" y="893" fill="#cbd5e1" font-size="11" font-weight="400" text-anchor="end">Avida-ED</text><rect x="168" y="882" width="250.13333333333333" height="14" rx="3" fill="#38bdf8" opacity="0.7"/><text x="424.1333333333333" y="893" fill="#7c8aa5" font-size="10" font-weight="400">2.33</text><text x="158" y="915" fill="#cbd5e1" font-size="11" font-weight="400" text-anchor="end">Evolve 4.0</text><rect x="168" y="904" width="250.13333333333333" height="14" rx="3" fill="#38bdf8" opacity="0.7"/><text x="424.1333333333333" y="915" fill="#7c8aa5" font-size="10" font-weight="400">2.33</text><text x="158" y="937" fill="#cbd5e1" font-size="11" font-weight="400" text-anchor="end">ES-HyperNEAT</text><rect x="168" y="926" width="250.13333333333333" height="14" rx="3" fill="#38bdf8" opacity="0.7"/><text x="424.1333333333333" y="937" fill="#7c8aa5" font-size="10" font-weight="400">2.33</text><text x="158" y="959" fill="#cbd5e1" font-size="11" font-weight="400" text-anchor="end">Novelty Search</text><rect x="168" y="948" width="250.13333333333333" height="14" rx="3" fill="#38bdf8" opacity="0.7"/><text x="424.1333333333333" y="959" fill="#7c8aa5" font-size="10" font-weight="400">2.33</text><text x="158" y="981" fill="#cbd5e1" font-size="11" font-weight="400" text-anchor="end">OMNI (Open-endedness via Models of human Notions of Interestingness)</text><rect x="168" y="970" width="250.13333333333333" height="14" rx="3" fill="#38bdf8" opacity="0.7"/><text x="424.1333333333333" y="981" fill="#7c8aa5" font-size="10" font-weight="400">2.33</text><text x="158" y="1003" fill="#cbd5e1" font-size="11" font-weight="400" text-anchor="end">Innovation Engines</text><rect x="168" y="992" width="250.13333333333333" height="14" rx="3" fill="#38bdf8" opacity="0.7"/><text x="424.1333333333333" y="1003" fill="#7c8aa5" font-size="10" font-weight="400">2.33</text><text x="158" y="1025" fill="#cbd5e1" font-size="11" font-weight="400" text-anchor="end">EndlessForms</text><rect x="168" y="1014" width="250.13333333333333" height="14" rx="3" fill="#38bdf8" opacity="0.7"/><text x="424.1333333333333" y="1025" fill="#7c8aa5" font-size="10" font-weight="400">2.33</text><text x="158" y="1047" fill="#cbd5e1" font-size="11" font-weight="400" text-anchor="end">Sebastian Lague Ecosystem</text><rect x="168" y="1036" width="250.13333333333333" height="14" rx="3" fill="#38bdf8" opacity="0.7"/><text x="424.1333333333333" y="1047" fill="#7c8aa5" font-size="10" font-weight="400">2.33</text><text x="158" y="1069" fill="#cbd5e1" font-size="11" font-weight="400" text-anchor="end">Chromaria</text><rect x="168" y="1058" width="250.13333333333333" height="14" rx="3" fill="#38bdf8" opacity="0.7"/><text x="424.1333333333333" y="1069" fill="#7c8aa5" font-size="10" font-weight="400">2.33</text><text x="158" y="1091" fill="#cbd5e1" font-size="11" font-weight="400" text-anchor="end">GOLEM (Genetically Organized Lifelike Electro Mechanics)</text><rect x="168" y="1080" width="238.22222222222223" height="14" rx="3" fill="#38bdf8" opacity="0.7"/><text x="412.22222222222223" y="1091" fill="#7c8aa5" font-size="10" font-weight="400">2.22</text><text x="158" y="1113" fill="#cbd5e1" font-size="11" font-weight="400" text-anchor="end">NEAT (NeuroEvolution of Augmenting Topologies)</text><rect x="168" y="1102" width="238.22222222222223" height="14" rx="3" fill="#38bdf8" opacity="0.7"/><text x="412.22222222222223" y="1113" fill="#7c8aa5" font-size="10" font-weight="400">2.22</text><text x="158" y="1135" fill="#cbd5e1" font-size="11" font-weight="400" text-anchor="end">GAMA Platform</text><rect x="168" y="1124" width="238.22222222222223" height="14" rx="3" fill="#38bdf8" opacity="0.7"/><text x="412.22222222222223" y="1135" fill="#7c8aa5" font-size="10" font-weight="400">2.22</text><text x="158" y="1157" fill="#cbd5e1" font-size="11" font-weight="400" text-anchor="end">Cell Lab: Evolution Sandbox</text><rect x="168" y="1146" width="238.22222222222223" height="14" rx="3" fill="#38bdf8" opacity="0.7"/><text x="412.22222222222223" y="1157" fill="#7c8aa5" font-size="10" font-weight="400">2.22</text><text x="158" y="1179" fill="#cbd5e1" font-size="11" font-weight="400" text-anchor="end">Voyager (Minecraft LLM agent)</text><rect x="168" y="1168" width="238.22222222222223" height="14" rx="3" fill="#38bdf8" opacity="0.7"/><text x="412.22222222222223" y="1179" fill="#7c8aa5" font-size="10" font-weight="400">2.22</text><text x="158" y="1201" fill="#cbd5e1" font-size="11" font-weight="400" text-anchor="end">Darwin Godel Machine (DGM)</text><rect x="168" y="1190" width="238.22222222222223" height="14" rx="3" fill="#38bdf8" opacity="0.7"/><text x="412.22222222222223" y="1201" fill="#7c8aa5" font-size="10" font-weight="400">2.22</text><text x="158" y="1223" fill="#cbd5e1" font-size="11" font-weight="400" text-anchor="end">Neural MMO</text><rect x="168" y="1212" width="238.22222222222223" height="14" rx="3" fill="#38bdf8" opacity="0.7"/><text x="412.22222222222223" y="1223" fill="#7c8aa5" font-size="10" font-weight="400">2.22</text><text x="158" y="1245" fill="#cbd5e1" font-size="11" font-weight="400" text-anchor="end">Melting Pot</text><rect x="168" y="1234" width="238.22222222222223" height="14" rx="3" fill="#38bdf8" opacity="0.7"/><text x="412.22222222222223" y="1245" fill="#7c8aa5" font-size="10" font-weight="400">2.22</text><text x="158" y="1267" fill="#cbd5e1" font-size="11" font-weight="400" text-anchor="end">PhysiCell</text><rect x="168" y="1256" width="238.22222222222223" height="14" rx="3" fill="#38bdf8" opacity="0.7"/><text x="412.22222222222223" y="1267" fill="#7c8aa5" font-size="10" font-weight="400">2.22</text><text x="158" y="1289" fill="#cbd5e1" font-size="11" font-weight="400" text-anchor="end">Swarm</text><rect x="168" y="1278" width="232.26666666666665" height="14" rx="3" fill="#38bdf8" opacity="0.7"/><text x="406.26666666666665" y="1289" fill="#7c8aa5" font-size="10" font-weight="400">2.17</text><text x="158" y="1311" fill="#cbd5e1" font-size="11" font-weight="400" text-anchor="end">Echo</text><rect x="168" y="1300" width="226.31111111111113" height="14" rx="3" fill="#38bdf8" opacity="0.7"/><text x="400.31111111111113" y="1311" fill="#7c8aa5" font-size="10" font-weight="400">2.11</text><text x="158" y="1333" fill="#cbd5e1" font-size="11" font-weight="400" text-anchor="end">Primordial Particle Systems</text><rect x="168" y="1322" width="226.31111111111113" height="14" rx="3" fill="#38bdf8" opacity="0.7"/><text x="400.31111111111113" y="1333" fill="#7c8aa5" font-size="10" font-weight="400">2.11</text><text x="158" y="1355" fill="#cbd5e1" font-size="11" font-weight="400" text-anchor="end">Krcah Evolved Virtual Creatures (ERO)</text><rect x="168" y="1344" width="226.31111111111113" height="14" rx="3" fill="#38bdf8" opacity="0.7"/><text x="400.31111111111113" y="1355" fill="#7c8aa5" font-size="10" font-weight="400">2.11</text><text x="158" y="1377" fill="#cbd5e1" font-size="11" font-weight="400" text-anchor="end">Go-Explore</text><rect x="168" y="1366" width="226.31111111111113" height="14" rx="3" fill="#38bdf8" opacity="0.7"/><text x="400.31111111111113" y="1377" fill="#7c8aa5" font-size="10" font-weight="400">2.11</text><text x="158" y="1399" fill="#cbd5e1" font-size="11" font-weight="400" text-anchor="end">MASON</text><rect x="168" y="1388" width="226.31111111111113" height="14" rx="3" fill="#38bdf8" opacity="0.7"/><text x="400.31111111111113" y="1399" fill="#7c8aa5" font-size="10" font-weight="400">2.11</text><text x="158" y="1421" fill="#cbd5e1" font-size="11" font-weight="400" text-anchor="end">Thrive</text><rect x="168" y="1410" width="226.31111111111113" height="14" rx="3" fill="#38bdf8" opacity="0.7"/><text x="400.31111111111113" y="1421" fill="#7c8aa5" font-size="10" font-weight="400">2.11</text><text x="158" y="1443" fill="#cbd5e1" font-size="11" font-weight="400" text-anchor="end">Primer Evolution Simulations</text><rect x="168" y="1432" width="226.31111111111113" height="14" rx="3" fill="#38bdf8" opacity="0.7"/><text x="400.31111111111113" y="1443" fill="#7c8aa5" font-size="10" font-weight="400">2.11</text><text x="158" y="1465" fill="#cbd5e1" font-size="11" font-weight="400" text-anchor="end">Generative Agents (Smallville)</text><rect x="168" y="1454" width="226.31111111111113" height="14" rx="3" fill="#38bdf8" opacity="0.7"/><text x="400.31111111111113" y="1465" fill="#7c8aa5" font-size="10" font-weight="400">2.11</text><text x="158" y="1487" fill="#cbd5e1" font-size="11" font-weight="400" text-anchor="end">OpenELM</text><rect x="168" y="1476" width="226.31111111111113" height="14" rx="3" fill="#38bdf8" opacity="0.7"/><text x="400.31111111111113" y="1487" fill="#7c8aa5" font-size="10" font-weight="400">2.11</text><text x="158" y="1509" fill="#cbd5e1" font-size="11" font-weight="400" text-anchor="end">Xenobots (reconfigurable organisms)</text><rect x="168" y="1498" width="226.31111111111113" height="14" rx="3" fill="#38bdf8" opacity="0.7"/><text x="400.31111111111113" y="1509" fill="#7c8aa5" font-size="10" font-weight="400">2.11</text><text x="158" y="1531" fill="#cbd5e1" font-size="11" font-weight="400" text-anchor="end">Swarm Chemistry</text><rect x="168" y="1520" width="226.31111111111113" height="14" rx="3" fill="#38bdf8" opacity="0.7"/><text x="400.31111111111113" y="1531" fill="#7c8aa5" font-size="10" font-weight="400">2.11</text><text x="158" y="1553" fill="#cbd5e1" font-size="11" font-weight="400" text-anchor="end">Growing NCA</text><rect x="168" y="1542" width="220.35555555555555" height="14" rx="3" fill="#38bdf8" opacity="0.7"/><text x="394.35555555555555" y="1553" fill="#7c8aa5" font-size="10" font-weight="400">2.06</text><text x="158" y="1575" fill="#cbd5e1" font-size="11" font-weight="400" text-anchor="end">Lenia</text><rect x="168" y="1564" width="214.39999999999998" height="14" rx="3" fill="#38bdf8" opacity="0.7"/><text x="388.4" y="1575" fill="#7c8aa5" font-size="10" font-weight="400">2.00</text><text x="158" y="1597" fill="#cbd5e1" font-size="11" font-weight="400" text-anchor="end">Particle Lenia</text><rect x="168" y="1586" width="214.39999999999998" height="14" rx="3" fill="#38bdf8" opacity="0.7"/><text x="388.4" y="1597" fill="#7c8aa5" font-size="10" font-weight="400">2.00</text><text x="158" y="1619" fill="#cbd5e1" font-size="11" font-weight="400" text-anchor="end">Squirm3</text><rect x="168" y="1608" width="214.39999999999998" height="14" rx="3" fill="#38bdf8" opacity="0.7"/><text x="388.4" y="1619" fill="#7c8aa5" font-size="10" font-weight="400">2.00</text><text x="158" y="1641" fill="#cbd5e1" font-size="11" font-weight="400" text-anchor="end">Network Tierra</text><rect x="168" y="1630" width="214.39999999999998" height="14" rx="3" fill="#38bdf8" opacity="0.7"/><text x="388.4" y="1641" fill="#7c8aa5" font-size="10" font-weight="400">2.00</text><text x="158" y="1663" fill="#cbd5e1" font-size="11" font-weight="400" text-anchor="end">Repast</text><rect x="168" y="1652" width="214.39999999999998" height="14" rx="3" fill="#38bdf8" opacity="0.7"/><text x="388.4" y="1663" fill="#7c8aa5" font-size="10" font-weight="400">2.00</text><text x="158" y="1685" fill="#cbd5e1" font-size="11" font-weight="400" text-anchor="end">Genie (Generative Interactive Environments)</text><rect x="168" y="1674" width="214.39999999999998" height="14" rx="3" fill="#38bdf8" opacity="0.7"/><text x="388.4" y="1685" fill="#7c8aa5" font-size="10" font-weight="400">2.00</text><text x="158" y="1707" fill="#cbd5e1" font-size="11" font-weight="400" text-anchor="end">Automated Design of Agentic Systems (ADAS)</text><rect x="168" y="1696" width="214.39999999999998" height="14" rx="3" fill="#38bdf8" opacity="0.7"/><text x="388.4" y="1707" fill="#7c8aa5" font-size="10" font-weight="400">2.00</text><text x="158" y="1729" fill="#cbd5e1" font-size="11" font-weight="400" text-anchor="end">Craftax</text><rect x="168" y="1718" width="214.39999999999998" height="14" rx="3" fill="#38bdf8" opacity="0.7"/><text x="388.4" y="1729" fill="#7c8aa5" font-size="10" font-weight="400">2.00</text><text x="158" y="1751" fill="#cbd5e1" font-size="11" font-weight="400" text-anchor="end">Tierra</text><rect x="168" y="1740" width="208.44444444444446" height="14" rx="3" fill="#38bdf8" opacity="0.7"/><text x="382.44444444444446" y="1751" fill="#7c8aa5" font-size="10" font-weight="400">1.94</text><text x="158" y="1773" fill="#cbd5e1" font-size="11" font-weight="400" text-anchor="end">Aevol</text><rect x="168" y="1762" width="202.48888888888888" height="14" rx="3" fill="#38bdf8" opacity="0.7"/><text x="376.4888888888889" y="1773" fill="#7c8aa5" font-size="10" font-weight="400">1.89</text><text x="158" y="1795" fill="#cbd5e1" font-size="11" font-weight="400" text-anchor="end">NetLogo</text><rect x="168" y="1784" width="202.48888888888888" height="14" rx="3" fill="#38bdf8" opacity="0.7"/><text x="376.4888888888889" y="1795" fill="#7c8aa5" font-size="10" font-weight="400">1.89</text><text x="158" y="1817" fill="#cbd5e1" font-size="11" font-weight="400" text-anchor="end">Mesa</text><rect x="168" y="1806" width="202.48888888888888" height="14" rx="3" fill="#38bdf8" opacity="0.7"/><text x="376.4888888888889" y="1817" fill="#7c8aa5" font-size="10" font-weight="400">1.89</text><text x="158" y="1839" fill="#cbd5e1" font-size="11" font-weight="400" text-anchor="end">Spore</text><rect x="168" y="1828" width="202.48888888888888" height="14" rx="3" fill="#38bdf8" opacity="0.7"/><text x="376.4888888888889" y="1839" fill="#7c8aa5" font-size="10" font-weight="400">1.89</text><text x="158" y="1861" fill="#cbd5e1" font-size="11" font-weight="400" text-anchor="end">The Life Engine</text><rect x="168" y="1850" width="202.48888888888888" height="14" rx="3" fill="#38bdf8" opacity="0.7"/><text x="376.4888888888889" y="1861" fill="#7c8aa5" font-size="10" font-weight="400">1.89</text><text x="158" y="1883" fill="#cbd5e1" font-size="11" font-weight="400" text-anchor="end">DevoWorm</text><rect x="168" y="1872" width="202.48888888888888" height="14" rx="3" fill="#38bdf8" opacity="0.7"/><text x="376.4888888888889" y="1883" fill="#7c8aa5" font-size="10" font-weight="400">1.89</text><text x="158" y="1905" fill="#cbd5e1" font-size="11" font-weight="400" text-anchor="end">The AI Scientist</text><rect x="168" y="1894" width="202.48888888888888" height="14" rx="3" fill="#38bdf8" opacity="0.7"/><text x="376.4888888888889" y="1905" fill="#7c8aa5" font-size="10" font-weight="400">1.89</text><text x="158" y="1927" fill="#cbd5e1" font-size="11" font-weight="400" text-anchor="end">Stringmol</text><rect x="168" y="1916" width="202.48888888888888" height="14" rx="3" fill="#38bdf8" opacity="0.7"/><text x="376.4888888888889" y="1927" fill="#7c8aa5" font-size="10" font-weight="400">1.89</text><text x="158" y="1949" fill="#cbd5e1" font-size="11" font-weight="400" text-anchor="end">LIDA</text><rect x="168" y="1938" width="202.48888888888888" height="14" rx="3" fill="#38bdf8" opacity="0.7"/><text x="376.4888888888889" y="1949" fill="#7c8aa5" font-size="10" font-weight="400">1.89</text><text x="158" y="1971" fill="#cbd5e1" font-size="11" font-weight="400" text-anchor="end">Game of Life</text><rect x="168" y="1960" width="190.57777777777778" height="14" rx="3" fill="#38bdf8" opacity="0.7"/><text x="364.5777777777778" y="1971" fill="#7c8aa5" font-size="10" font-weight="400">1.78</text><text x="158" y="1993" fill="#cbd5e1" font-size="11" font-weight="400" text-anchor="end">Core War</text><rect x="168" y="1982" width="190.57777777777778" height="14" rx="3" fill="#38bdf8" opacity="0.7"/><text x="364.5777777777778" y="1993" fill="#7c8aa5" font-size="10" font-weight="400">1.78</text><text x="158" y="2015" fill="#cbd5e1" font-size="11" font-weight="400" text-anchor="end">Nanopond</text><rect x="168" y="2004" width="190.57777777777778" height="14" rx="3" fill="#38bdf8" opacity="0.7"/><text x="364.5777777777778" y="2015" fill="#7c8aa5" font-size="10" font-weight="400">1.78</text><text x="158" y="2037" fill="#cbd5e1" font-size="11" font-weight="400" text-anchor="end">Cosmos</text><rect x="168" y="2026" width="190.57777777777778" height="14" rx="3" fill="#38bdf8" opacity="0.7"/><text x="364.5777777777778" y="2037" fill="#7c8aa5" font-size="10" font-weight="400">1.78</text><text x="158" y="2059" fill="#cbd5e1" font-size="11" font-weight="400" text-anchor="end">Amoeba</text><rect x="168" y="2048" width="190.57777777777778" height="14" rx="3" fill="#38bdf8" opacity="0.7"/><text x="364.5777777777778" y="2059" fill="#7c8aa5" font-size="10" font-weight="400">1.78</text><text x="158" y="2081" fill="#cbd5e1" font-size="11" font-weight="400" text-anchor="end">NerveNet</text><rect x="168" y="2070" width="190.57777777777778" height="14" rx="3" fill="#38bdf8" opacity="0.7"/><text x="364.5777777777778" y="2081" fill="#7c8aa5" font-size="10" font-weight="400">1.78</text><text x="158" y="2103" fill="#cbd5e1" font-size="11" font-weight="400" text-anchor="end">SimLife: The Genetic Playground</text><rect x="168" y="2092" width="190.57777777777778" height="14" rx="3" fill="#38bdf8" opacity="0.7"/><text x="364.5777777777778" y="2103" fill="#7c8aa5" font-size="10" font-weight="400">1.78</text><text x="158" y="2125" fill="#cbd5e1" font-size="11" font-weight="400" text-anchor="end">Boids</text><rect x="168" y="2114" width="178.66666666666669" height="14" rx="3" fill="#38bdf8" opacity="0.7"/><text x="352.6666666666667" y="2125" fill="#7c8aa5" font-size="10" font-weight="400">1.67</text><text x="158" y="2147" fill="#cbd5e1" font-size="11" font-weight="400" text-anchor="end">Biomorphs</text><rect x="168" y="2136" width="178.66666666666669" height="14" rx="3" fill="#38bdf8" opacity="0.7"/><text x="352.6666666666667" y="2147" fill="#7c8aa5" font-size="10" font-weight="400">1.67</text><text x="158" y="2169" fill="#cbd5e1" font-size="11" font-weight="400" text-anchor="end">Voxelyze / VoxCAD</text><rect x="168" y="2158" width="178.66666666666669" height="14" rx="3" fill="#38bdf8" opacity="0.7"/><text x="352.6666666666667" y="2169" fill="#7c8aa5" font-size="10" font-weight="400">1.67</text><text x="158" y="2191" fill="#cbd5e1" font-size="11" font-weight="400" text-anchor="end">Ascape</text><rect x="168" y="2180" width="178.66666666666669" height="14" rx="3" fill="#38bdf8" opacity="0.7"/><text x="352.6666666666667" y="2191" fill="#7c8aa5" font-size="10" font-weight="400">1.67</text><text x="158" y="2213" fill="#cbd5e1" font-size="11" font-weight="400" text-anchor="end">Pezzza's Ant Colony Simulation</text><rect x="168" y="2202" width="178.66666666666669" height="14" rx="3" fill="#38bdf8" opacity="0.7"/><text x="352.6666666666667" y="2213" fill="#7c8aa5" font-size="10" font-weight="400">1.67</text><text x="158" y="2235" fill="#cbd5e1" font-size="11" font-weight="400" text-anchor="end">Evoloop / SDSR Loop</text><rect x="168" y="2224" width="178.66666666666669" height="14" rx="3" fill="#38bdf8" opacity="0.7"/><text x="352.6666666666667" y="2235" fill="#7c8aa5" font-size="10" font-weight="400">1.67</text><text x="158" y="2257" fill="#cbd5e1" font-size="11" font-weight="400" text-anchor="end">Sodarace / Soda Constructor</text><rect x="168" y="2246" width="178.66666666666669" height="14" rx="3" fill="#38bdf8" opacity="0.7"/><text x="352.6666666666667" y="2257" fill="#7c8aa5" font-size="10" font-weight="400">1.67</text><text x="158" y="2279" fill="#cbd5e1" font-size="11" font-weight="400" text-anchor="end">Genesys/Tracker</text><rect x="168" y="2268" width="178.66666666666669" height="14" rx="3" fill="#38bdf8" opacity="0.7"/><text x="352.6666666666667" y="2279" fill="#7c8aa5" font-size="10" font-weight="400">1.67</text><text x="158" y="2301" fill="#cbd5e1" font-size="11" font-weight="400" text-anchor="end">SmoothLife</text><rect x="168" y="2290" width="166.7555555555556" height="14" rx="3" fill="#38bdf8" opacity="0.7"/><text x="340.7555555555556" y="2301" fill="#7c8aa5" font-size="10" font-weight="400">1.56</text><text x="158" y="2323" fill="#cbd5e1" font-size="11" font-weight="400" text-anchor="end">Larger than Life</text><rect x="168" y="2312" width="166.7555555555556" height="14" rx="3" fill="#38bdf8" opacity="0.7"/><text x="340.7555555555556" y="2323" fill="#7c8aa5" font-size="10" font-weight="400">1.56</text><text x="158" y="2345" fill="#cbd5e1" font-size="11" font-weight="400" text-anchor="end">Gray-Scott Reaction-Diffusion</text><rect x="168" y="2334" width="166.7555555555556" height="14" rx="3" fill="#38bdf8" opacity="0.7"/><text x="340.7555555555556" y="2345" fill="#7c8aa5" font-size="10" font-weight="400">1.56</text><text x="158" y="2367" fill="#cbd5e1" font-size="11" font-weight="400" text-anchor="end">Physis</text><rect x="168" y="2356" width="166.7555555555556" height="14" rx="3" fill="#38bdf8" opacity="0.7"/><text x="340.7555555555556" y="2367" fill="#7c8aa5" font-size="10" font-weight="400">1.56</text><text x="158" y="2389" fill="#cbd5e1" font-size="11" font-weight="400" text-anchor="end">Morphozoic</text><rect x="168" y="2378" width="166.7555555555556" height="14" rx="3" fill="#38bdf8" opacity="0.7"/><text x="340.7555555555556" y="2389" fill="#7c8aa5" font-size="10" font-weight="400">1.56</text><text x="158" y="2411" fill="#cbd5e1" font-size="11" font-weight="400" text-anchor="end">Quality-Diversity through AI Feedback (QDAIF)</text><rect x="168" y="2400" width="166.7555555555556" height="14" rx="3" fill="#38bdf8" opacity="0.7"/><text x="340.7555555555556" y="2411" fill="#7c8aa5" font-size="10" font-weight="400">1.56</text><text x="158" y="2433" fill="#cbd5e1" font-size="11" font-weight="400" text-anchor="end">Voxcraft-sim</text><rect x="168" y="2422" width="166.7555555555556" height="14" rx="3" fill="#38bdf8" opacity="0.7"/><text x="340.7555555555556" y="2433" fill="#7c8aa5" font-size="10" font-weight="400">1.56</text><text x="158" y="2455" fill="#cbd5e1" font-size="11" font-weight="400" text-anchor="end">AlChemy (algorithmic chemistry)</text><rect x="168" y="2444" width="166.7555555555556" height="14" rx="3" fill="#38bdf8" opacity="0.7"/><text x="340.7555555555556" y="2455" fill="#7c8aa5" font-size="10" font-weight="400">1.56</text><text x="158" y="2477" fill="#cbd5e1" font-size="11" font-weight="400" text-anchor="end">StarLogo</text><rect x="168" y="2466" width="154.84444444444443" height="14" rx="3" fill="#38bdf8" opacity="0.7"/><text x="328.84444444444443" y="2477" fill="#7c8aa5" font-size="10" font-weight="400">1.44</text><text x="158" y="2499" fill="#cbd5e1" font-size="11" font-weight="400" text-anchor="end">OpenSteer</text><rect x="168" y="2488" width="154.84444444444443" height="14" rx="3" fill="#38bdf8" opacity="0.7"/><text x="328.84444444444443" y="2499" fill="#7c8aa5" font-size="10" font-weight="400">1.44</text><text x="158" y="2521" fill="#cbd5e1" font-size="11" font-weight="400" text-anchor="end">Artificial Anasazi</text><rect x="168" y="2510" width="154.84444444444443" height="14" rx="3" fill="#38bdf8" opacity="0.7"/><text x="328.84444444444443" y="2521" fill="#7c8aa5" font-size="10" font-weight="400">1.44</text><text x="158" y="2543" fill="#cbd5e1" font-size="11" font-weight="400" text-anchor="end">SimAnt: The Electric Ant Colony</text><rect x="168" y="2532" width="154.84444444444443" height="14" rx="3" fill="#38bdf8" opacity="0.7"/><text x="328.84444444444443" y="2543" fill="#7c8aa5" font-size="10" font-weight="400">1.44</text><text x="158" y="2565" fill="#cbd5e1" font-size="11" font-weight="400" text-anchor="end">Noita</text><rect x="168" y="2554" width="154.84444444444443" height="14" rx="3" fill="#38bdf8" opacity="0.7"/><text x="328.84444444444443" y="2565" fill="#7c8aa5" font-size="10" font-weight="400">1.44</text><text x="158" y="2587" fill="#cbd5e1" font-size="11" font-weight="400" text-anchor="end">Clusters (Particle Life)</text><rect x="168" y="2576" width="154.84444444444443" height="14" rx="3" fill="#38bdf8" opacity="0.7"/><text x="328.84444444444443" y="2587" fill="#7c8aa5" font-size="10" font-weight="400">1.44</text><text x="158" y="2609" fill="#cbd5e1" font-size="11" font-weight="400" text-anchor="end">Sandspiel</text><rect x="168" y="2598" width="154.84444444444443" height="14" rx="3" fill="#38bdf8" opacity="0.7"/><text x="328.84444444444443" y="2609" fill="#7c8aa5" font-size="10" font-weight="400">1.44</text><text x="158" y="2631" fill="#cbd5e1" font-size="11" font-weight="400" text-anchor="end">Promptbreeder</text><rect x="168" y="2620" width="154.84444444444443" height="14" rx="3" fill="#38bdf8" opacity="0.7"/><text x="328.84444444444443" y="2631" fill="#7c8aa5" font-size="10" font-weight="400">1.44</text><text x="158" y="2653" fill="#cbd5e1" font-size="11" font-weight="400" text-anchor="end">Langton's Loops</text><rect x="168" y="2642" width="142.93333333333334" height="14" rx="3" fill="#38bdf8" opacity="0.7"/><text x="316.93333333333334" y="2653" fill="#7c8aa5" font-size="10" font-weight="400">1.33</text><text x="158" y="2675" fill="#cbd5e1" font-size="11" font-weight="400" text-anchor="end">El Farol Bar Problem</text><rect x="168" y="2664" width="142.93333333333334" height="14" rx="3" fill="#38bdf8" opacity="0.7"/><text x="316.93333333333334" y="2675" fill="#7c8aa5" font-size="10" font-weight="400">1.33</text><text x="158" y="2697" fill="#cbd5e1" font-size="11" font-weight="400" text-anchor="end">SimEarth: The Living Planet</text><rect x="168" y="2686" width="142.93333333333334" height="14" rx="3" fill="#38bdf8" opacity="0.7"/><text x="316.93333333333334" y="2697" fill="#7c8aa5" font-size="10" font-weight="400">1.33</text><text x="158" y="2719" fill="#cbd5e1" font-size="11" font-weight="400" text-anchor="end">Chemlambda</text><rect x="168" y="2708" width="142.93333333333334" height="14" rx="3" fill="#38bdf8" opacity="0.7"/><text x="316.93333333333334" y="2719" fill="#7c8aa5" font-size="10" font-weight="400">1.33</text><text x="158" y="2741" fill="#cbd5e1" font-size="11" font-weight="400" text-anchor="end">von Neumann Universal Constructor</text><rect x="168" y="2730" width="119.11111111111109" height="14" rx="3" fill="#38bdf8" opacity="0.7"/><text x="293.1111111111111" y="2741" fill="#7c8aa5" font-size="10" font-weight="400">1.11</text><text x="158" y="2763" fill="#cbd5e1" font-size="11" font-weight="400" text-anchor="end">Schelling Segregation Model</text><rect x="168" y="2752" width="119.11111111111109" height="14" rx="3" fill="#38bdf8" opacity="0.7"/><text x="293.1111111111111" y="2763" fill="#7c8aa5" font-size="10" font-weight="400">1.11</text><text x="158" y="2785" fill="#cbd5e1" font-size="11" font-weight="400" text-anchor="end">The Powder Toy</text><rect x="168" y="2774" width="119.11111111111109" height="14" rx="3" fill="#38bdf8" opacity="0.7"/><text x="293.1111111111111" y="2785" fill="#7c8aa5" font-size="10" font-weight="400">1.11</text><text x="158" y="2807" fill="#cbd5e1" font-size="11" font-weight="400" text-anchor="end">Conscious Turing Machine (CTM)</text><rect x="168" y="2796" width="119.11111111111109" height="14" rx="3" fill="#38bdf8" opacity="0.7"/><text x="293.1111111111111" y="2807" fill="#7c8aa5" font-size="10" font-weight="400">1.11</text><text x="158" y="2829" fill="#cbd5e1" font-size="11" font-weight="400" text-anchor="end">Autopoietic Tessellation (Varela-Maturana-Uribe)</text><rect x="168" y="2818" width="107.19999999999999" height="14" rx="3" fill="#38bdf8" opacity="0.7"/><text x="281.2" y="2829" fill="#7c8aa5" font-size="10" font-weight="400">1.00</text><text x="158" y="2851" fill="#cbd5e1" font-size="11" font-weight="400" text-anchor="end">Wireworld</text><rect x="168" y="2840" width="71.46666666666667" height="14" rx="3" fill="#38bdf8" opacity="0.7"/><text x="245.46666666666667" y="2851" fill="#7c8aa5" font-size="10" font-weight="400">0.67</text><text x="158" y="2873" fill="#cbd5e1" font-size="11" font-weight="400" text-anchor="end">Langton's Ant</text><rect x="168" y="2862" width="71.46666666666667" height="14" rx="3" fill="#38bdf8" opacity="0.7"/><text x="245.46666666666667" y="2873" fill="#7c8aa5" font-size="10" font-weight="400">0.67</text><text x="158" y="2895" fill="#cbd5e1" font-size="11" font-weight="400" text-anchor="end">Rule 110</text><rect x="168" y="2884" width="71.46666666666667" height="14" rx="3" fill="#38bdf8" opacity="0.7"/><text x="245.46666666666667" y="2895" fill="#7c8aa5" font-size="10" font-weight="400">0.67</text>
</svg>