<svg xmlns="http://www.w3.org/2000/svg" viewBox="0 0 760 666" font-family="ui-sans-serif,system-ui,Segoe UI,Roboto,sans-serif" role="img" aria-label="Dendrogram">
<rect width="760" height="666" rx="14" fill="#0b1220"/>
<text x="28" y="30" fill="#cbd5e1" font-size="18" font-weight="700">Capability dendrogram (average-linkage, Euclidean 9-axis)</text><text x="28" y="50" fill="#7c8aa5" font-size="12">leaves grouped by capability-shape similarity; join depth = merge distance.</text><text x="598" y="84" fill="#f59e0b" font-size="10" font-weight="700">COSMOGONIC</text><text x="598" y="106" fill="#cbd5e1" font-size="10" font-weight="400">Sugarscape</text><text x="598" y="128" fill="#cbd5e1" font-size="10" font-weight="400">Swarm</text><path d="M511.02364295852465 103 H590" stroke="#34d399" stroke-width="1.3" fill="none" opacity="0.85"/><path d="M511.02364295852465 125 H590" stroke="#34d399" stroke-width="1.3" fill="none" opacity="0.85"/><path d="M511.02364295852465 103 V125" stroke="#34d399" stroke-width="1.3" fill="none" opacity="0.85"/><text x="598" y="150" fill="#cbd5e1" font-size="10" font-weight="400">MABE</text><text x="598" y="172" fill="#cbd5e1" font-size="10" font-weight="400">Echo</text><text x="598" y="194" fill="#cbd5e1" font-size="10" font-weight="400">Avida</text><text x="598" y="216" fill="#cbd5e1" font-size="10" font-weight="400">Core War</text><text x="598" y="238" fill="#cbd5e1" font-size="10" font-weight="400">Tierra</text><path d="M484.0420982239802 213 H590" stroke="#34d399" stroke-width="1.3" fill="none" opacity="0.85"/><path d="M484.0420982239802 235 H590" stroke="#34d399" stroke-width="1.3" fill="none" opacity="0.85"/><path d="M484.0420982239802 213 V235" stroke="#34d399" stroke-width="1.3" fill="none" opacity="0.85"/><path d="M447.3508683095219 191 H590" stroke="#34d399" stroke-width="1.3" fill="none" opacity="0.85"/><path d="M447.3508683095219 224 H484.0420982239802" stroke="#34d399" stroke-width="1.3" fill="none" opacity="0.85"/><path d="M447.3508683095219 191 V224" stroke="#34d399" stroke-width="1.3" fill="none" opacity="0.85"/><path d="M432.67510725628966 169 H590" stroke="#34d399" stroke-width="1.3" fill="none" opacity="0.85"/><path d="M432.67510725628966 207.5 H447.3508683095219" stroke="#34d399" stroke-width="1.3" fill="none" opacity="0.85"/><path d="M432.67510725628966 169 V207.5" stroke="#34d399" stroke-width="1.3" fill="none" opacity="0.85"/><path d="M367.3144070392326 147 H590" stroke="#34d399" stroke-width="1.3" fill="none" opacity="0.85"/><path d="M367.3144070392326 188.25 H432.67510725628966" stroke="#34d399" stroke-width="1.3" fill="none" opacity="0.85"/><path d="M367.3144070392326 147 V188.25" stroke="#34d399" stroke-width="1.3" fill="none" opacity="0.85"/><path d="M358.68388703887246 114 H511.02364295852465" stroke="#34d399" stroke-width="1.3" fill="none" opacity="0.85"/><path d="M358.68388703887246 167.625 H367.3144070392326" stroke="#34d399" stroke-width="1.3" fill="none" opacity="0.85"/><path d="M358.68388703887246 114 V167.625" stroke="#34d399" stroke-width="1.3" fill="none" opacity="0.85"/><text x="598" y="260" fill="#cbd5e1" font-size="10" font-weight="400">Polyworld</text><text x="598" y="282" fill="#cbd5e1" font-size="10" font-weight="400">Creatures</text><path d="M424.3377958773112 257 H590" stroke="#34d399" stroke-width="1.3" fill="none" opacity="0.85"/><path d="M424.3377958773112 279 H590" stroke="#34d399" stroke-width="1.3" fill="none" opacity="0.85"/><path d="M424.3377958773112 257 V279" stroke="#34d399" stroke-width="1.3" fill="none" opacity="0.85"/><text x="598" y="304" fill="#cbd5e1" font-size="10" font-weight="400">ALIEN</text><text x="598" y="326" fill="#cbd5e1" font-size="10" font-weight="400">Picbreeder</text><text x="598" y="348" fill="#cbd5e1" font-size="10" font-weight="400">Framsticks</text><text x="598" y="370" fill="#cbd5e1" font-size="10" font-weight="400">Karl Sims VC</text><path d="M440.1528982677565 345 H590" stroke="#34d399" stroke-width="1.3" fill="none" opacity="0.85"/><path d="M440.1528982677565 367 H590" stroke="#34d399" stroke-width="1.3" fill="none" opacity="0.85"/><path d="M440.1528982677565 345 V367" stroke="#34d399" stroke-width="1.3" fill="none" opacity="0.85"/><path d="M413.43883401505855 323 H590" stroke="#34d399" stroke-width="1.3" fill="none" opacity="0.85"/><path d="M413.43883401505855 356 H440.1528982677565" stroke="#34d399" stroke-width="1.3" fill="none" opacity="0.85"/><path d="M413.43883401505855 323 V356" stroke="#34d399" stroke-width="1.3" fill="none" opacity="0.85"/><text x="598" y="392" fill="#cbd5e1" font-size="10" font-weight="400">breve</text><text x="598" y="414" fill="#cbd5e1" font-size="10" font-weight="400">Darwin Pond</text><text x="598" y="436" fill="#cbd5e1" font-size="10" font-weight="400">Gene Pool</text><path d="M484.0420982239802 411 H590" stroke="#34d399" stroke-width="1.3" fill="none" opacity="0.85"/><path d="M484.0420982239802 433 H590" stroke="#34d399" stroke-width="1.3" fill="none" opacity="0.85"/><path d="M484.0420982239802 411 V433" stroke="#34d399" stroke-width="1.3" fill="none" opacity="0.85"/><path d="M395.7438467439636 389 H590" stroke="#34d399" stroke-width="1.3" fill="none" opacity="0.85"/><path d="M395.7438467439636 422 H484.0420982239802" stroke="#34d399" stroke-width="1.3" fill="none" opacity="0.85"/><path d="M395.7438467439636 389 V422" stroke="#34d399" stroke-width="1.3" fill="none" opacity="0.85"/><path d="M386.3500719594836 339.5 H413.43883401505855" stroke="#34d399" stroke-width="1.3" fill="none" opacity="0.85"/><path d="M386.3500719594836 405.5 H395.7438467439636" stroke="#34d399" stroke-width="1.3" fill="none" opacity="0.85"/><path d="M386.3500719594836 339.5 V405.5" stroke="#34d399" stroke-width="1.3" fill="none" opacity="0.85"/><path d="M371.6548403811212 301 H590" stroke="#34d399" stroke-width="1.3" fill="none" opacity="0.85"/><path d="M371.6548403811212 372.5 H386.3500719594836" stroke="#34d399" stroke-width="1.3" fill="none" opacity="0.85"/><path d="M371.6548403811212 301 V372.5" stroke="#34d399" stroke-width="1.3" fill="none" opacity="0.85"/><path d="M311.23836984563695 268 H424.3377958773112" stroke="#34d399" stroke-width="1.3" fill="none" opacity="0.85"/><path d="M311.23836984563695 336.75 H371.6548403811212" stroke="#34d399" stroke-width="1.3" fill="none" opacity="0.85"/><path d="M311.23836984563695 268 V336.75" stroke="#34d399" stroke-width="1.3" fill="none" opacity="0.85"/><path d="M200.0504340385928 140.8125 H358.68388703887246" stroke="#34d399" stroke-width="1.3" fill="none" opacity="0.85"/><path d="M200.0504340385928 302.375 H311.23836984563695" stroke="#34d399" stroke-width="1.3" fill="none" opacity="0.85"/><path d="M200.0504340385928 140.8125 V302.375" stroke="#34d399" stroke-width="1.3" fill="none" opacity="0.85"/><text x="598" y="458" fill="#cbd5e1" font-size="10" font-weight="400">OpenWorm</text><text x="598" y="480" fill="#cbd5e1" font-size="10" font-weight="400">Boids</text><text x="598" y="502" fill="#cbd5e1" font-size="10" font-weight="400">POET</text><text x="598" y="524" fill="#cbd5e1" font-size="10" font-weight="400">ASAL</text><path d="M403.1078283056283 499 H590" stroke="#34d399" stroke-width="1.3" fill="none" opacity="0.85"/><path d="M403.1078283056283 521 H590" stroke="#34d399" stroke-width="1.3" fill="none" opacity="0.85"/><path d="M403.1078283056283 499 V521" stroke="#34d399" stroke-width="1.3" fill="none" opacity="0.85"/><text x="598" y="546" fill="#cbd5e1" font-size="10" font-weight="400">EvoGym</text><text x="598" y="568" fill="#cbd5e1" font-size="10" font-weight="400">Lenia</text><text x="598" y="590" fill="#cbd5e1" font-size="10" font-weight="400">Growing NCA</text><path d="M387.1060651173104 565 H590" stroke="#34d399" stroke-width="1.3" fill="none" opacity="0.85"/><path d="M387.1060651173104 587 H590" stroke="#34d399" stroke-width="1.3" fill="none" opacity="0.85"/><path d="M387.1060651173104 565 V587" stroke="#34d399" stroke-width="1.3" fill="none" opacity="0.85"/><path d="M330.6003184757044 543 H590" stroke="#34d399" stroke-width="1.3" fill="none" opacity="0.85"/><path d="M330.6003184757044 576 H387.1060651173104" stroke="#34d399" stroke-width="1.3" fill="none" opacity="0.85"/><path d="M330.6003184757044 543 V576" stroke="#34d399" stroke-width="1.3" fill="none" opacity="0.85"/><text x="598" y="612" fill="#cbd5e1" font-size="10" font-weight="400">Game of Life</text><text x="598" y="634" fill="#cbd5e1" font-size="10" font-weight="400">Biomorphs</text><path d="M316.4178740149292 609 H590" stroke="#34d399" stroke-width="1.3" fill="none" opacity="0.85"/><path d="M316.4178740149292 631 H590" stroke="#34d399" stroke-width="1.3" fill="none" opacity="0.85"/><path d="M316.4178740149292 609 V631" stroke="#34d399" stroke-width="1.3" fill="none" opacity="0.85"/><path d="M280.3836340528969 559.5 H330.6003184757044" stroke="#34d399" stroke-width="1.3" fill="none" opacity="0.85"/><path d="M280.3836340528969 620 H316.4178740149292" stroke="#34d399" stroke-width="1.3" fill="none" opacity="0.85"/><path d="M280.3836340528969 559.5 V620" stroke="#34d399" stroke-width="1.3" fill="none" opacity="0.85"/><path d="M232.15028974530705 510 H403.1078283056283" stroke="#34d399" stroke-width="1.3" fill="none" opacity="0.85"/><path d="M232.15028974530705 589.75 H280.3836340528969" stroke="#34d399" stroke-width="1.3" fill="none" opacity="0.85"/><path d="M232.15028974530705 510 V589.75" stroke="#34d399" stroke-width="1.3" fill="none" opacity="0.85"/><path d="M194.1653321808522 477 H590" stroke="#34d399" stroke-width="1.3" fill="none" opacity="0.85"/><path d="M194.1653321808522 549.875 H232.15028974530705" stroke="#34d399" stroke-width="1.3" fill="none" opacity="0.85"/><path d="M194.1653321808522 477 V549.875" stroke="#34d399" stroke-width="1.3" fill="none" opacity="0.85"/><path d="M180.86553896024833 455 H590" stroke="#34d399" stroke-width="1.3" fill="none" opacity="0.85"/><path d="M180.86553896024833 513.4375 H194.1653321808522" stroke="#34d399" stroke-width="1.3" fill="none" opacity="0.85"/><path d="M180.86553896024833 455 V513.4375" stroke="#34d399" stroke-width="1.3" fill="none" opacity="0.85"/><path d="M164.93278110832378 221.59375 H200.0504340385928" stroke="#34d399" stroke-width="1.3" fill="none" opacity="0.85"/><path d="M164.93278110832378 484.21875 H180.86553896024833" stroke="#34d399" stroke-width="1.3" fill="none" opacity="0.85"/><path d="M164.93278110832378 221.59375 V484.21875" stroke="#34d399" stroke-width="1.3" fill="none" opacity="0.85"/><path d="M30 81 H590" stroke="#f59e0b" stroke-width="1.3" fill="none" opacity="0.85"/><path d="M30 352.90625 H164.93278110832378" stroke="#f59e0b" stroke-width="1.3" fill="none" opacity="0.85"/><path d="M30 81 V352.90625" stroke="#f59e0b" stroke-width="1.3" fill="none" opacity="0.85"/>
</svg>