<svg xmlns="http://www.w3.org/2000/svg" viewBox="0 0 680 332" font-family="ui-sans-serif,system-ui,Segoe UI,Roboto,sans-serif" role="img" aria-label="Nearest neighbours">
<rect width="680" height="332" rx="14" fill="#0b1220"/>
<text x="28" y="30" fill="#cbd5e1" font-size="18" font-weight="700">Nearest neighbours in 9-axis feature space</text><text x="28" y="50" fill="#7c8aa5" font-size="12">Euclidean distance from Cosmogonic (lower = more similar capability shape).</text><text x="140" y="83" fill="#cbd5e1" font-size="11" text-anchor="end">ALIEN</text><rect x="150" y="69" width="350.36095417451344" height="18" rx="3" fill="#34d399" opacity="0.78"/><text x="506.36095417451344" y="83" fill="#7c8aa5" font-size="10">4.75</text><text x="140" y="113" fill="#cbd5e1" font-size="11" text-anchor="end">Creatures</text><rect x="150" y="99" width="376.1770244821091" height="18" rx="3" fill="#34d399" opacity="0.78"/><text x="532.1770244821091" y="113" fill="#7c8aa5" font-size="10">5.10</text><text x="140" y="143" fill="#cbd5e1" font-size="11" text-anchor="end">Framsticks</text><rect x="150" y="129" width="413.79472693032017" height="18" rx="3" fill="#34d399" opacity="0.78"/><text x="569.7947269303202" y="143" fill="#7c8aa5" font-size="10">5.61</text><text x="140" y="173" fill="#cbd5e1" font-size="11" text-anchor="end">Division Blocks</text><rect x="150" y="159" width="414.53232893910854" height="18" rx="3" fill="#34d399" opacity="0.78"/><text x="570.5323289391085" y="173" fill="#7c8aa5" font-size="10">5.62</text><text x="140" y="203" fill="#cbd5e1" font-size="11" text-anchor="end">biosim4</text><rect x="150" y="189" width="416.0075329566854" height="18" rx="3" fill="#34d399" opacity="0.78"/><text x="572.0075329566854" y="203" fill="#7c8aa5" font-size="10">5.64</text><text x="140" y="233" fill="#cbd5e1" font-size="11" text-anchor="end">The Bibites</text><rect x="150" y="219" width="424.1211550533584" height="18" rx="3" fill="#34d399" opacity="0.78"/><text x="580.1211550533584" y="233" fill="#7c8aa5" font-size="10">5.75</text><text x="140" y="263" fill="#cbd5e1" font-size="11" text-anchor="end">OpenWorm</text><rect x="150" y="249" width="427.8091650973006" height="18" rx="3" fill="#34d399" opacity="0.78"/><text x="583.8091650973006" y="263" fill="#7c8aa5" font-size="10">5.80</text><text x="140" y="293" fill="#cbd5e1" font-size="11" text-anchor="end">Karl Sims VC</text><rect x="150" y="279" width="435.1851851851852" height="18" rx="3" fill="#34d399" opacity="0.78"/><text x="591.1851851851852" y="293" fill="#7c8aa5" font-size="10">5.90</text>
</svg>