<svg xmlns="http://www.w3.org/2000/svg" viewBox="0 0 638 716" font-family="ui-sans-serif,system-ui,Segoe UI,Roboto,sans-serif" role="img" aria-label="Capability heatmap">
<rect width="638" height="716" rx="14" fill="#0b1220"/>
<text x="28" y="30" fill="#cbd5e1" font-size="18" font-weight="700">Capability heatmap — 26 systems × 9 axes</text><text x="28" y="50" fill="#7c8aa5" font-size="12">each cell = axis score 0–5 (dark→cyan→amber). rows sorted by breadth.</text><text x="193" y="142" fill="#cbd5e1" font-size="10" text-anchor="start" transform="rotate(-45 193 142)">Reproduction</text><text x="243" y="142" fill="#cbd5e1" font-size="10" text-anchor="start" transform="rotate(-45 243 142)">Open-endedness</text><text x="293" y="142" fill="#cbd5e1" font-size="10" text-anchor="start" transform="rotate(-45 293 142)">Ecology</text><text x="343" y="142" fill="#cbd5e1" font-size="10" text-anchor="start" transform="rotate(-45 343 142)">Morphology/Physics</text><text x="393" y="142" fill="#cbd5e1" font-size="10" text-anchor="start" transform="rotate(-45 393 142)">Cognition/Learning</text><text x="443" y="142" fill="#cbd5e1" font-size="10" text-anchor="start" transform="rotate(-45 443 142)">Substrate pluralism</text><text x="493" y="142" fill="#cbd5e1" font-size="10" text-anchor="start" transform="rotate(-45 493 142)">Instrumentation</text><text x="543" y="142" fill="#cbd5e1" font-size="10" text-anchor="start" transform="rotate(-45 543 142)">Consciousness-theory</text><text x="593" y="142" fill="#cbd5e1" font-size="10" text-anchor="start" transform="rotate(-45 593 142)">Visual scale</text><text x="158" y="164.5" fill="#f59e0b" font-size="10" font-weight="700" text-anchor="end">COSMOGONIC</text><rect x="169" y="151" width="48" height="19" rx="2" fill="rgb(151,182,112)"/><text x="193" y="164" fill="#0b1220" font-size="9" text-anchor="middle">4</text><rect x="219" y="151" width="48" height="19" rx="2" fill="rgb(104,193,162)"/><text x="243" y="164" fill="#0b1220" font-size="9" text-anchor="middle">3.5</text><rect x="269" y="151" width="48" height="19" rx="2" fill="rgb(245,158,11)"/><text x="293" y="164" fill="#0b1220" font-size="9" text-anchor="middle">5</text><rect x="319" y="151" width="48" height="19" rx="2" fill="rgb(151,182,112)"/><text x="343" y="164" fill="#0b1220" font-size="9" text-anchor="middle">4</text><rect x="369" y="151" width="48" height="19" rx="2" fill="rgb(198,170,61)"/><text x="393" y="164" fill="#0b1220" font-size="9" text-anchor="middle">4.5</text><rect x="419" y="151" width="48" height="19" rx="2" fill="rgb(245,158,11)"/><text x="443" y="164" fill="#0b1220" font-size="9" text-anchor="middle">5</text><rect x="469" y="151" width="48" height="19" rx="2" fill="rgb(198,170,61)"/><text x="493" y="164" fill="#0b1220" font-size="9" text-anchor="middle">4.5</text><rect x="519" y="151" width="48" height="19" rx="2" fill="rgb(198,170,61)"/><text x="543" y="164" fill="#0b1220" font-size="9" text-anchor="middle">4.5</text><rect x="569" y="151" width="48" height="19" rx="2" fill="rgb(245,158,11)"/><text x="593" y="164" fill="#0b1220" font-size="9" text-anchor="middle">5</text><text x="158" y="185.5" fill="#cbd5e1" font-size="10" font-weight="400" text-anchor="end">ALIEN</text><rect x="169" y="172" width="48" height="19" rx="2" fill="rgb(151,182,112)"/><text x="193" y="185" fill="#0b1220" font-size="9" text-anchor="middle">4</text><rect x="219" y="172" width="48" height="19" rx="2" fill="rgb(151,182,112)"/><text x="243" y="185" fill="#0b1220" font-size="9" text-anchor="middle">4</text><rect x="269" y="172" width="48" height="19" rx="2" fill="rgb(151,182,112)"/><text x="293" y="185" fill="#0b1220" font-size="9" text-anchor="middle">4</text><rect x="319" y="172" width="48" height="19" rx="2" fill="rgb(245,158,11)"/><text x="343" y="185" fill="#0b1220" font-size="9" text-anchor="middle">5</text><rect x="369" y="172" width="48" height="19" rx="2" fill="rgb(57,205,213)"/><text x="393" y="185" fill="#0b1220" font-size="9" text-anchor="middle">3</text><rect x="419" y="172" width="48" height="19" rx="2" fill="rgb(57,205,213)"/><text x="443" y="185" fill="#0b1220" font-size="9" text-anchor="middle">3</text><rect x="469" y="172" width="48" height="19" rx="2" fill="rgb(57,205,213)"/><text x="493" y="185" fill="#0b1220" font-size="9" text-anchor="middle">3</text><rect x="519" y="172" width="48" height="19" rx="2" fill="rgb(16,55,73)"/><text x="543" y="185" fill="#9fb3d1" font-size="9" text-anchor="middle">0.5</text><rect x="569" y="172" width="48" height="19" rx="2" fill="rgb(245,158,11)"/><text x="593" y="185" fill="#0b1220" font-size="9" text-anchor="middle">5</text><text x="158" y="206.5" fill="#cbd5e1" font-size="10" font-weight="400" text-anchor="end">Creatures</text><rect x="169" y="193" width="48" height="19" rx="2" fill="rgb(245,158,11)"/><text x="193" y="206" fill="#0b1220" font-size="9" text-anchor="middle">5</text><rect x="219" y="193" width="48" height="19" rx="2" fill="rgb(151,182,112)"/><text x="243" y="206" fill="#0b1220" font-size="9" text-anchor="middle">4</text><rect x="269" y="193" width="48" height="19" rx="2" fill="rgb(151,182,112)"/><text x="293" y="206" fill="#0b1220" font-size="9" text-anchor="middle">4</text><rect x="319" y="193" width="48" height="19" rx="2" fill="rgb(57,205,213)"/><text x="343" y="206" fill="#0b1220" font-size="9" text-anchor="middle">3</text><rect x="369" y="193" width="48" height="19" rx="2" fill="rgb(151,182,112)"/><text x="393" y="206" fill="#0b1220" font-size="9" text-anchor="middle">4</text><rect x="419" y="193" width="48" height="19" rx="2" fill="rgb(28,159,183)"/><text x="443" y="206" fill="#9fb3d1" font-size="9" text-anchor="middle">2</text><rect x="469" y="193" width="48" height="19" rx="2" fill="rgb(28,159,183)"/><text x="493" y="206" fill="#9fb3d1" font-size="9" text-anchor="middle">2</text><rect x="519" y="193" width="48" height="19" rx="2" fill="rgb(20,89,109)"/><text x="543" y="206" fill="#9fb3d1" font-size="9" text-anchor="middle">1</text><rect x="569" y="193" width="48" height="19" rx="2" fill="rgb(245,158,11)"/><text x="593" y="206" fill="#0b1220" font-size="9" text-anchor="middle">5</text><text x="158" y="227.5" fill="#cbd5e1" font-size="10" font-weight="400" text-anchor="end">Framsticks</text><rect x="169" y="214" width="48" height="19" rx="2" fill="rgb(245,158,11)"/><text x="193" y="227" fill="#0b1220" font-size="9" text-anchor="middle">5</text><rect x="219" y="214" width="48" height="19" rx="2" fill="rgb(151,182,112)"/><text x="243" y="227" fill="#0b1220" font-size="9" text-anchor="middle">4</text><rect x="269" y="214" width="48" height="19" rx="2" fill="rgb(57,205,213)"/><text x="293" y="227" fill="#0b1220" font-size="9" text-anchor="middle">3</text><rect x="319" y="214" width="48" height="19" rx="2" fill="rgb(245,158,11)"/><text x="343" y="227" fill="#0b1220" font-size="9" text-anchor="middle">5</text><rect x="369" y="214" width="48" height="19" rx="2" fill="rgb(57,205,213)"/><text x="393" y="227" fill="#0b1220" font-size="9" text-anchor="middle">3</text><rect x="419" y="214" width="48" height="19" rx="2" fill="rgb(24,124,146)"/><text x="443" y="227" fill="#9fb3d1" font-size="9" text-anchor="middle">1.5</text><rect x="469" y="214" width="48" height="19" rx="2" fill="rgb(104,193,162)"/><text x="493" y="227" fill="#0b1220" font-size="9" text-anchor="middle">3.5</text><rect x="519" y="214" width="48" height="19" rx="2" fill="rgb(12,20,36)"/><text x="543" y="227" fill="#9fb3d1" font-size="9" text-anchor="middle">0</text><rect x="569" y="214" width="48" height="19" rx="2" fill="rgb(151,182,112)"/><text x="593" y="227" fill="#0b1220" font-size="9" text-anchor="middle">4</text><text x="158" y="248.5" fill="#cbd5e1" font-size="10" font-weight="400" text-anchor="end">Polyworld</text><rect x="169" y="235" width="48" height="19" rx="2" fill="rgb(151,182,112)"/><text x="193" y="248" fill="#0b1220" font-size="9" text-anchor="middle">4</text><rect x="219" y="235" width="48" height="19" rx="2" fill="rgb(151,182,112)"/><text x="243" y="248" fill="#0b1220" font-size="9" text-anchor="middle">4</text><rect x="269" y="235" width="48" height="19" rx="2" fill="rgb(245,158,11)"/><text x="293" y="248" fill="#0b1220" font-size="9" text-anchor="middle">5</text><rect x="319" y="235" width="48" height="19" rx="2" fill="rgb(28,159,183)"/><text x="343" y="248" fill="#9fb3d1" font-size="9" text-anchor="middle">2</text><rect x="369" y="235" width="48" height="19" rx="2" fill="rgb(151,182,112)"/><text x="393" y="248" fill="#0b1220" font-size="9" text-anchor="middle">4</text><rect x="419" y="235" width="48" height="19" rx="2" fill="rgb(24,124,146)"/><text x="443" y="248" fill="#9fb3d1" font-size="9" text-anchor="middle">1.5</text><rect x="469" y="235" width="48" height="19" rx="2" fill="rgb(32,194,220)"/><text x="493" y="248" fill="#9fb3d1" font-size="9" text-anchor="middle">2.5</text><rect x="519" y="235" width="48" height="19" rx="2" fill="rgb(12,20,36)"/><text x="543" y="248" fill="#9fb3d1" font-size="9" text-anchor="middle">0</text><rect x="569" y="235" width="48" height="19" rx="2" fill="rgb(151,182,112)"/><text x="593" y="248" fill="#0b1220" font-size="9" text-anchor="middle">4</text><text x="158" y="269.5" fill="#cbd5e1" font-size="10" font-weight="400" text-anchor="end">Gene Pool</text><rect x="169" y="256" width="48" height="19" rx="2" fill="rgb(245,158,11)"/><text x="193" y="269" fill="#0b1220" font-size="9" text-anchor="middle">5</text><rect x="219" y="256" width="48" height="19" rx="2" fill="rgb(151,182,112)"/><text x="243" y="269" fill="#0b1220" font-size="9" text-anchor="middle">4</text><rect x="269" y="256" width="48" height="19" rx="2" fill="rgb(151,182,112)"/><text x="293" y="269" fill="#0b1220" font-size="9" text-anchor="middle">4</text><rect x="319" y="256" width="48" height="19" rx="2" fill="rgb(245,158,11)"/><text x="343" y="269" fill="#0b1220" font-size="9" text-anchor="middle">5</text><rect x="369" y="256" width="48" height="19" rx="2" fill="rgb(20,89,109)"/><text x="393" y="269" fill="#9fb3d1" font-size="9" text-anchor="middle">1</text><rect x="419" y="256" width="48" height="19" rx="2" fill="rgb(20,89,109)"/><text x="443" y="269" fill="#9fb3d1" font-size="9" text-anchor="middle">1</text><rect x="469" y="256" width="48" height="19" rx="2" fill="rgb(32,194,220)"/><text x="493" y="269" fill="#9fb3d1" font-size="9" text-anchor="middle">2.5</text><rect x="519" y="256" width="48" height="19" rx="2" fill="rgb(12,20,36)"/><text x="543" y="269" fill="#9fb3d1" font-size="9" text-anchor="middle">0</text><rect x="569" y="256" width="48" height="19" rx="2" fill="rgb(151,182,112)"/><text x="593" y="269" fill="#0b1220" font-size="9" text-anchor="middle">4</text><text x="158" y="290.5" fill="#cbd5e1" font-size="10" font-weight="400" text-anchor="end">Karl Sims VC</text><rect x="169" y="277" width="48" height="19" rx="2" fill="rgb(151,182,112)"/><text x="193" y="290" fill="#0b1220" font-size="9" text-anchor="middle">4</text><rect x="219" y="277" width="48" height="19" rx="2" fill="rgb(57,205,213)"/><text x="243" y="290" fill="#0b1220" font-size="9" text-anchor="middle">3</text><rect x="269" y="277" width="48" height="19" rx="2" fill="rgb(28,159,183)"/><text x="293" y="290" fill="#9fb3d1" font-size="9" text-anchor="middle">2</text><rect x="319" y="277" width="48" height="19" rx="2" fill="rgb(245,158,11)"/><text x="343" y="290" fill="#0b1220" font-size="9" text-anchor="middle">5</text><rect x="369" y="277" width="48" height="19" rx="2" fill="rgb(57,205,213)"/><text x="393" y="290" fill="#0b1220" font-size="9" text-anchor="middle">3</text><rect x="419" y="277" width="48" height="19" rx="2" fill="rgb(20,89,109)"/><text x="443" y="290" fill="#9fb3d1" font-size="9" text-anchor="middle">1</text><rect x="469" y="277" width="48" height="19" rx="2" fill="rgb(57,205,213)"/><text x="493" y="290" fill="#0b1220" font-size="9" text-anchor="middle">3</text><rect x="519" y="277" width="48" height="19" rx="2" fill="rgb(12,20,36)"/><text x="543" y="290" fill="#9fb3d1" font-size="9" text-anchor="middle">0</text><rect x="569" y="277" width="48" height="19" rx="2" fill="rgb(245,158,11)"/><text x="593" y="290" fill="#0b1220" font-size="9" text-anchor="middle">5</text><text x="158" y="311.5" fill="#cbd5e1" font-size="10" font-weight="400" text-anchor="end">Picbreeder</text><rect x="169" y="298" width="48" height="19" rx="2" fill="rgb(151,182,112)"/><text x="193" y="311" fill="#0b1220" font-size="9" text-anchor="middle">4</text><rect x="219" y="298" width="48" height="19" rx="2" fill="rgb(245,158,11)"/><text x="243" y="311" fill="#0b1220" font-size="9" text-anchor="middle">5</text><rect x="269" y="298" width="48" height="19" rx="2" fill="rgb(28,159,183)"/><text x="293" y="311" fill="#9fb3d1" font-size="9" text-anchor="middle">2</text><rect x="319" y="298" width="48" height="19" rx="2" fill="rgb(151,182,112)"/><text x="343" y="311" fill="#0b1220" font-size="9" text-anchor="middle">4</text><rect x="369" y="298" width="48" height="19" rx="2" fill="rgb(28,159,183)"/><text x="393" y="311" fill="#9fb3d1" font-size="9" text-anchor="middle">2</text><rect x="419" y="298" width="48" height="19" rx="2" fill="rgb(20,89,109)"/><text x="443" y="311" fill="#9fb3d1" font-size="9" text-anchor="middle">1</text><rect x="469" y="298" width="48" height="19" rx="2" fill="rgb(57,205,213)"/><text x="493" y="311" fill="#0b1220" font-size="9" text-anchor="middle">3</text><rect x="519" y="298" width="48" height="19" rx="2" fill="rgb(12,20,36)"/><text x="543" y="311" fill="#9fb3d1" font-size="9" text-anchor="middle">0</text><rect x="569" y="298" width="48" height="19" rx="2" fill="rgb(245,158,11)"/><text x="593" y="311" fill="#0b1220" font-size="9" text-anchor="middle">5</text><text x="158" y="332.5" fill="#cbd5e1" font-size="10" font-weight="400" text-anchor="end">breve</text><rect x="169" y="319" width="48" height="19" rx="2" fill="rgb(57,205,213)"/><text x="193" y="332" fill="#0b1220" font-size="9" text-anchor="middle">3</text><rect x="219" y="319" width="48" height="19" rx="2" fill="rgb(57,205,213)"/><text x="243" y="332" fill="#0b1220" font-size="9" text-anchor="middle">3</text><rect x="269" y="319" width="48" height="19" rx="2" fill="rgb(151,182,112)"/><text x="293" y="332" fill="#0b1220" font-size="9" text-anchor="middle">4</text><rect x="319" y="319" width="48" height="19" rx="2" fill="rgb(245,158,11)"/><text x="343" y="332" fill="#0b1220" font-size="9" text-anchor="middle">5</text><rect x="369" y="319" width="48" height="19" rx="2" fill="rgb(28,159,183)"/><text x="393" y="332" fill="#9fb3d1" font-size="9" text-anchor="middle">2</text><rect x="419" y="319" width="48" height="19" rx="2" fill="rgb(20,89,109)"/><text x="443" y="332" fill="#9fb3d1" font-size="9" text-anchor="middle">1</text><rect x="469" y="319" width="48" height="19" rx="2" fill="rgb(57,205,213)"/><text x="493" y="332" fill="#0b1220" font-size="9" text-anchor="middle">3</text><rect x="519" y="319" width="48" height="19" rx="2" fill="rgb(12,20,36)"/><text x="543" y="332" fill="#9fb3d1" font-size="9" text-anchor="middle">0</text><rect x="569" y="319" width="48" height="19" rx="2" fill="rgb(151,182,112)"/><text x="593" y="332" fill="#0b1220" font-size="9" text-anchor="middle">4</text><text x="158" y="353.5" fill="#cbd5e1" font-size="10" font-weight="400" text-anchor="end">Darwin Pond</text><rect x="169" y="340" width="48" height="19" rx="2" fill="rgb(245,158,11)"/><text x="193" y="353" fill="#0b1220" font-size="9" text-anchor="middle">5</text><rect x="219" y="340" width="48" height="19" rx="2" fill="rgb(151,182,112)"/><text x="243" y="353" fill="#0b1220" font-size="9" text-anchor="middle">4</text><rect x="269" y="340" width="48" height="19" rx="2" fill="rgb(57,205,213)"/><text x="293" y="353" fill="#0b1220" font-size="9" text-anchor="middle">3</text><rect x="319" y="340" width="48" height="19" rx="2" fill="rgb(151,182,112)"/><text x="343" y="353" fill="#0b1220" font-size="9" text-anchor="middle">4</text><rect x="369" y="340" width="48" height="19" rx="2" fill="rgb(20,89,109)"/><text x="393" y="353" fill="#9fb3d1" font-size="9" text-anchor="middle">1</text><rect x="419" y="340" width="48" height="19" rx="2" fill="rgb(20,89,109)"/><text x="443" y="353" fill="#9fb3d1" font-size="9" text-anchor="middle">1</text><rect x="469" y="340" width="48" height="19" rx="2" fill="rgb(28,159,183)"/><text x="493" y="353" fill="#9fb3d1" font-size="9" text-anchor="middle">2</text><rect x="519" y="340" width="48" height="19" rx="2" fill="rgb(12,20,36)"/><text x="543" y="353" fill="#9fb3d1" font-size="9" text-anchor="middle">0</text><rect x="569" y="340" width="48" height="19" rx="2" fill="rgb(151,182,112)"/><text x="593" y="353" fill="#0b1220" font-size="9" text-anchor="middle">4</text><text x="158" y="374.5" fill="#cbd5e1" font-size="10" font-weight="400" text-anchor="end">MABE</text><rect x="169" y="361" width="48" height="19" rx="2" fill="rgb(245,158,11)"/><text x="193" y="374" fill="#0b1220" font-size="9" text-anchor="middle">5</text><rect x="219" y="361" width="48" height="19" rx="2" fill="rgb(151,182,112)"/><text x="243" y="374" fill="#0b1220" font-size="9" text-anchor="middle">4</text><rect x="269" y="361" width="48" height="19" rx="2" fill="rgb(57,205,213)"/><text x="293" y="374" fill="#0b1220" font-size="9" text-anchor="middle">3</text><rect x="319" y="361" width="48" height="19" rx="2" fill="rgb(28,159,183)"/><text x="343" y="374" fill="#9fb3d1" font-size="9" text-anchor="middle">2</text><rect x="369" y="361" width="48" height="19" rx="2" fill="rgb(57,205,213)"/><text x="393" y="374" fill="#0b1220" font-size="9" text-anchor="middle">3</text><rect x="419" y="361" width="48" height="19" rx="2" fill="rgb(20,89,109)"/><text x="443" y="374" fill="#9fb3d1" font-size="9" text-anchor="middle">1</text><rect x="469" y="361" width="48" height="19" rx="2" fill="rgb(151,182,112)"/><text x="493" y="374" fill="#0b1220" font-size="9" text-anchor="middle">4</text><rect x="519" y="361" width="48" height="19" rx="2" fill="rgb(12,20,36)"/><text x="543" y="374" fill="#9fb3d1" font-size="9" text-anchor="middle">0</text><rect x="569" y="361" width="48" height="19" rx="2" fill="rgb(28,159,183)"/><text x="593" y="374" fill="#9fb3d1" font-size="9" text-anchor="middle">2</text><text x="158" y="395.5" fill="#cbd5e1" font-size="10" font-weight="400" text-anchor="end">ASAL</text><rect x="169" y="382" width="48" height="19" rx="2" fill="rgb(20,89,109)"/><text x="193" y="395" fill="#9fb3d1" font-size="9" text-anchor="middle">1</text><rect x="219" y="382" width="48" height="19" rx="2" fill="rgb(245,158,11)"/><text x="243" y="395" fill="#0b1220" font-size="9" text-anchor="middle">5</text><rect x="269" y="382" width="48" height="19" rx="2" fill="rgb(28,159,183)"/><text x="293" y="395" fill="#9fb3d1" font-size="9" text-anchor="middle">2</text><rect x="319" y="382" width="48" height="19" rx="2" fill="rgb(57,205,213)"/><text x="343" y="395" fill="#0b1220" font-size="9" text-anchor="middle">3</text><rect x="369" y="382" width="48" height="19" rx="2" fill="rgb(57,205,213)"/><text x="393" y="395" fill="#0b1220" font-size="9" text-anchor="middle">3</text><rect x="419" y="382" width="48" height="19" rx="2" fill="rgb(28,159,183)"/><text x="443" y="395" fill="#9fb3d1" font-size="9" text-anchor="middle">2</text><rect x="469" y="382" width="48" height="19" rx="2" fill="rgb(151,182,112)"/><text x="493" y="395" fill="#0b1220" font-size="9" text-anchor="middle">4</text><rect x="519" y="382" width="48" height="19" rx="2" fill="rgb(12,20,36)"/><text x="543" y="395" fill="#9fb3d1" font-size="9" text-anchor="middle">0</text><rect x="569" y="382" width="48" height="19" rx="2" fill="rgb(151,182,112)"/><text x="593" y="395" fill="#0b1220" font-size="9" text-anchor="middle">4</text><text x="158" y="416.5" fill="#cbd5e1" font-size="10" font-weight="400" text-anchor="end">OpenWorm</text><rect x="169" y="403" width="48" height="19" rx="2" fill="rgb(12,20,36)"/><text x="193" y="416" fill="#9fb3d1" font-size="9" text-anchor="middle">0</text><rect x="219" y="403" width="48" height="19" rx="2" fill="rgb(12,20,36)"/><text x="243" y="416" fill="#9fb3d1" font-size="9" text-anchor="middle">0</text><rect x="269" y="403" width="48" height="19" rx="2" fill="rgb(28,159,183)"/><text x="293" y="416" fill="#9fb3d1" font-size="9" text-anchor="middle">2</text><rect x="319" y="403" width="48" height="19" rx="2" fill="rgb(245,158,11)"/><text x="343" y="416" fill="#0b1220" font-size="9" text-anchor="middle">5</text><rect x="369" y="403" width="48" height="19" rx="2" fill="rgb(151,182,112)"/><text x="393" y="416" fill="#0b1220" font-size="9" text-anchor="middle">4</text><rect x="419" y="403" width="48" height="19" rx="2" fill="rgb(57,205,213)"/><text x="443" y="416" fill="#0b1220" font-size="9" text-anchor="middle">3</text><rect x="469" y="403" width="48" height="19" rx="2" fill="rgb(151,182,112)"/><text x="493" y="416" fill="#0b1220" font-size="9" text-anchor="middle">4</text><rect x="519" y="403" width="48" height="19" rx="2" fill="rgb(20,89,109)"/><text x="543" y="416" fill="#9fb3d1" font-size="9" text-anchor="middle">1</text><rect x="569" y="403" width="48" height="19" rx="2" fill="rgb(57,205,213)"/><text x="593" y="416" fill="#0b1220" font-size="9" text-anchor="middle">3</text><text x="158" y="437.5" fill="#cbd5e1" font-size="10" font-weight="400" text-anchor="end">EvoGym</text><rect x="169" y="424" width="48" height="19" rx="2" fill="rgb(28,159,183)"/><text x="193" y="437" fill="#9fb3d1" font-size="9" text-anchor="middle">2</text><rect x="219" y="424" width="48" height="19" rx="2" fill="rgb(28,159,183)"/><text x="243" y="437" fill="#9fb3d1" font-size="9" text-anchor="middle">2</text><rect x="269" y="424" width="48" height="19" rx="2" fill="rgb(20,89,109)"/><text x="293" y="437" fill="#9fb3d1" font-size="9" text-anchor="middle">1</text><rect x="319" y="424" width="48" height="19" rx="2" fill="rgb(245,158,11)"/><text x="343" y="437" fill="#0b1220" font-size="9" text-anchor="middle">5</text><rect x="369" y="424" width="48" height="19" rx="2" fill="rgb(57,205,213)"/><text x="393" y="437" fill="#0b1220" font-size="9" text-anchor="middle">3</text><rect x="419" y="424" width="48" height="19" rx="2" fill="rgb(20,89,109)"/><text x="443" y="437" fill="#9fb3d1" font-size="9" text-anchor="middle">1</text><rect x="469" y="424" width="48" height="19" rx="2" fill="rgb(245,158,11)"/><text x="493" y="437" fill="#0b1220" font-size="9" text-anchor="middle">5</text><rect x="519" y="424" width="48" height="19" rx="2" fill="rgb(12,20,36)"/><text x="543" y="437" fill="#9fb3d1" font-size="9" text-anchor="middle">0</text><rect x="569" y="424" width="48" height="19" rx="2" fill="rgb(57,205,213)"/><text x="593" y="437" fill="#0b1220" font-size="9" text-anchor="middle">3</text><text x="158" y="458.5" fill="#cbd5e1" font-size="10" font-weight="400" text-anchor="end">Avida</text><rect x="169" y="445" width="48" height="19" rx="2" fill="rgb(245,158,11)"/><text x="193" y="458" fill="#0b1220" font-size="9" text-anchor="middle">5</text><rect x="219" y="445" width="48" height="19" rx="2" fill="rgb(151,182,112)"/><text x="243" y="458" fill="#0b1220" font-size="9" text-anchor="middle">4</text><rect x="269" y="445" width="48" height="19" rx="2" fill="rgb(151,182,112)"/><text x="293" y="458" fill="#0b1220" font-size="9" text-anchor="middle">4</text><rect x="319" y="445" width="48" height="19" rx="2" fill="rgb(12,20,36)"/><text x="343" y="458" fill="#9fb3d1" font-size="9" text-anchor="middle">0</text><rect x="369" y="445" width="48" height="19" rx="2" fill="rgb(20,89,109)"/><text x="393" y="458" fill="#9fb3d1" font-size="9" text-anchor="middle">1</text><rect x="419" y="445" width="48" height="19" rx="2" fill="rgb(20,89,109)"/><text x="443" y="458" fill="#9fb3d1" font-size="9" text-anchor="middle">1</text><rect x="469" y="445" width="48" height="19" rx="2" fill="rgb(151,182,112)"/><text x="493" y="458" fill="#0b1220" font-size="9" text-anchor="middle">4</text><rect x="519" y="445" width="48" height="19" rx="2" fill="rgb(12,20,36)"/><text x="543" y="458" fill="#9fb3d1" font-size="9" text-anchor="middle">0</text><rect x="569" y="445" width="48" height="19" rx="2" fill="rgb(28,159,183)"/><text x="593" y="458" fill="#9fb3d1" font-size="9" text-anchor="middle">2</text><text x="158" y="479.5" fill="#cbd5e1" font-size="10" font-weight="400" text-anchor="end">Sugarscape</text><rect x="169" y="466" width="48" height="19" rx="2" fill="rgb(57,205,213)"/><text x="193" y="479" fill="#0b1220" font-size="9" text-anchor="middle">3</text><rect x="219" y="466" width="48" height="19" rx="2" fill="rgb(57,205,213)"/><text x="243" y="479" fill="#0b1220" font-size="9" text-anchor="middle">3</text><rect x="269" y="466" width="48" height="19" rx="2" fill="rgb(245,158,11)"/><text x="293" y="479" fill="#0b1220" font-size="9" text-anchor="middle">5</text><rect x="319" y="466" width="48" height="19" rx="2" fill="rgb(20,89,109)"/><text x="343" y="479" fill="#9fb3d1" font-size="9" text-anchor="middle">1</text><rect x="369" y="466" width="48" height="19" rx="2" fill="rgb(28,159,183)"/><text x="393" y="479" fill="#9fb3d1" font-size="9" text-anchor="middle">2</text><rect x="419" y="466" width="48" height="19" rx="2" fill="rgb(20,89,109)"/><text x="443" y="479" fill="#9fb3d1" font-size="9" text-anchor="middle">1</text><rect x="469" y="466" width="48" height="19" rx="2" fill="rgb(151,182,112)"/><text x="493" y="479" fill="#0b1220" font-size="9" text-anchor="middle">4</text><rect x="519" y="466" width="48" height="19" rx="2" fill="rgb(12,20,36)"/><text x="543" y="479" fill="#9fb3d1" font-size="9" text-anchor="middle">0</text><rect x="569" y="466" width="48" height="19" rx="2" fill="rgb(28,159,183)"/><text x="593" y="479" fill="#9fb3d1" font-size="9" text-anchor="middle">2</text><text x="158" y="500.5" fill="#cbd5e1" font-size="10" font-weight="400" text-anchor="end">POET</text><rect x="169" y="487" width="48" height="19" rx="2" fill="rgb(20,89,109)"/><text x="193" y="500" fill="#9fb3d1" font-size="9" text-anchor="middle">1</text><rect x="219" y="487" width="48" height="19" rx="2" fill="rgb(245,158,11)"/><text x="243" y="500" fill="#0b1220" font-size="9" text-anchor="middle">5</text><rect x="269" y="487" width="48" height="19" rx="2" fill="rgb(28,159,183)"/><text x="293" y="500" fill="#9fb3d1" font-size="9" text-anchor="middle">2</text><rect x="319" y="487" width="48" height="19" rx="2" fill="rgb(28,159,183)"/><text x="343" y="500" fill="#9fb3d1" font-size="9" text-anchor="middle">2</text><rect x="369" y="487" width="48" height="19" rx="2" fill="rgb(151,182,112)"/><text x="393" y="500" fill="#0b1220" font-size="9" text-anchor="middle">4</text><rect x="419" y="487" width="48" height="19" rx="2" fill="rgb(20,89,109)"/><text x="443" y="500" fill="#9fb3d1" font-size="9" text-anchor="middle">1</text><rect x="469" y="487" width="48" height="19" rx="2" fill="rgb(151,182,112)"/><text x="493" y="500" fill="#0b1220" font-size="9" text-anchor="middle">4</text><rect x="519" y="487" width="48" height="19" rx="2" fill="rgb(12,20,36)"/><text x="543" y="500" fill="#9fb3d1" font-size="9" text-anchor="middle">0</text><rect x="569" y="487" width="48" height="19" rx="2" fill="rgb(28,159,183)"/><text x="593" y="500" fill="#9fb3d1" font-size="9" text-anchor="middle">2</text><text x="158" y="521.5" fill="#cbd5e1" font-size="10" font-weight="400" text-anchor="end">Swarm</text><rect x="169" y="508" width="48" height="19" rx="2" fill="rgb(28,159,183)"/><text x="193" y="521" fill="#9fb3d1" font-size="9" text-anchor="middle">2</text><rect x="219" y="508" width="48" height="19" rx="2" fill="rgb(57,205,213)"/><text x="243" y="521" fill="#0b1220" font-size="9" text-anchor="middle">3</text><rect x="269" y="508" width="48" height="19" rx="2" fill="rgb(245,158,11)"/><text x="293" y="521" fill="#0b1220" font-size="9" text-anchor="middle">5</text><rect x="319" y="508" width="48" height="19" rx="2" fill="rgb(20,89,109)"/><text x="343" y="521" fill="#9fb3d1" font-size="9" text-anchor="middle">1</text><rect x="369" y="508" width="48" height="19" rx="2" fill="rgb(28,159,183)"/><text x="393" y="521" fill="#9fb3d1" font-size="9" text-anchor="middle">2</text><rect x="419" y="508" width="48" height="19" rx="2" fill="rgb(20,89,109)"/><text x="443" y="521" fill="#9fb3d1" font-size="9" text-anchor="middle">1</text><rect x="469" y="508" width="48" height="19" rx="2" fill="rgb(104,193,162)"/><text x="493" y="521" fill="#0b1220" font-size="9" text-anchor="middle">3.5</text><rect x="519" y="508" width="48" height="19" rx="2" fill="rgb(12,20,36)"/><text x="543" y="521" fill="#9fb3d1" font-size="9" text-anchor="middle">0</text><rect x="569" y="508" width="48" height="19" rx="2" fill="rgb(28,159,183)"/><text x="593" y="521" fill="#9fb3d1" font-size="9" text-anchor="middle">2</text><text x="158" y="542.5" fill="#cbd5e1" font-size="10" font-weight="400" text-anchor="end">Echo</text><rect x="169" y="529" width="48" height="19" rx="2" fill="rgb(151,182,112)"/><text x="193" y="542" fill="#0b1220" font-size="9" text-anchor="middle">4</text><rect x="219" y="529" width="48" height="19" rx="2" fill="rgb(57,205,213)"/><text x="243" y="542" fill="#0b1220" font-size="9" text-anchor="middle">3</text><rect x="269" y="529" width="48" height="19" rx="2" fill="rgb(151,182,112)"/><text x="293" y="542" fill="#0b1220" font-size="9" text-anchor="middle">4</text><rect x="319" y="529" width="48" height="19" rx="2" fill="rgb(20,89,109)"/><text x="343" y="542" fill="#9fb3d1" font-size="9" text-anchor="middle">1</text><rect x="369" y="529" width="48" height="19" rx="2" fill="rgb(28,159,183)"/><text x="393" y="542" fill="#9fb3d1" font-size="9" text-anchor="middle">2</text><rect x="419" y="529" width="48" height="19" rx="2" fill="rgb(20,89,109)"/><text x="443" y="542" fill="#9fb3d1" font-size="9" text-anchor="middle">1</text><rect x="469" y="529" width="48" height="19" rx="2" fill="rgb(57,205,213)"/><text x="493" y="542" fill="#0b1220" font-size="9" text-anchor="middle">3</text><rect x="519" y="529" width="48" height="19" rx="2" fill="rgb(12,20,36)"/><text x="543" y="542" fill="#9fb3d1" font-size="9" text-anchor="middle">0</text><rect x="569" y="529" width="48" height="19" rx="2" fill="rgb(20,89,109)"/><text x="593" y="542" fill="#9fb3d1" font-size="9" text-anchor="middle">1</text><text x="158" y="563.5" fill="#cbd5e1" font-size="10" font-weight="400" text-anchor="end">Growing NCA</text><rect x="169" y="550" width="48" height="19" rx="2" fill="rgb(12,20,36)"/><text x="193" y="563" fill="#9fb3d1" font-size="9" text-anchor="middle">0</text><rect x="219" y="550" width="48" height="19" rx="2" fill="rgb(28,159,183)"/><text x="243" y="563" fill="#9fb3d1" font-size="9" text-anchor="middle">2</text><rect x="269" y="550" width="48" height="19" rx="2" fill="rgb(20,89,109)"/><text x="293" y="563" fill="#9fb3d1" font-size="9" text-anchor="middle">1</text><rect x="319" y="550" width="48" height="19" rx="2" fill="rgb(151,182,112)"/><text x="343" y="563" fill="#0b1220" font-size="9" text-anchor="middle">4</text><rect x="369" y="550" width="48" height="19" rx="2" fill="rgb(28,159,183)"/><text x="393" y="563" fill="#9fb3d1" font-size="9" text-anchor="middle">2</text><rect x="419" y="550" width="48" height="19" rx="2" fill="rgb(24,124,146)"/><text x="443" y="563" fill="#9fb3d1" font-size="9" text-anchor="middle">1.5</text><rect x="469" y="550" width="48" height="19" rx="2" fill="rgb(151,182,112)"/><text x="493" y="563" fill="#0b1220" font-size="9" text-anchor="middle">4</text><rect x="519" y="550" width="48" height="19" rx="2" fill="rgb(12,20,36)"/><text x="543" y="563" fill="#9fb3d1" font-size="9" text-anchor="middle">0</text><rect x="569" y="550" width="48" height="19" rx="2" fill="rgb(151,182,112)"/><text x="593" y="563" fill="#0b1220" font-size="9" text-anchor="middle">4</text><text x="158" y="584.5" fill="#cbd5e1" font-size="10" font-weight="400" text-anchor="end">Lenia</text><rect x="169" y="571" width="48" height="19" rx="2" fill="rgb(20,89,109)"/><text x="193" y="584" fill="#9fb3d1" font-size="9" text-anchor="middle">1</text><rect x="219" y="571" width="48" height="19" rx="2" fill="rgb(57,205,213)"/><text x="243" y="584" fill="#0b1220" font-size="9" text-anchor="middle">3</text><rect x="269" y="571" width="48" height="19" rx="2" fill="rgb(20,89,109)"/><text x="293" y="584" fill="#9fb3d1" font-size="9" text-anchor="middle">1</text><rect x="319" y="571" width="48" height="19" rx="2" fill="rgb(151,182,112)"/><text x="343" y="584" fill="#0b1220" font-size="9" text-anchor="middle">4</text><rect x="369" y="571" width="48" height="19" rx="2" fill="rgb(12,20,36)"/><text x="393" y="584" fill="#9fb3d1" font-size="9" text-anchor="middle">0</text><rect x="419" y="571" width="48" height="19" rx="2" fill="rgb(20,89,109)"/><text x="443" y="584" fill="#9fb3d1" font-size="9" text-anchor="middle">1</text><rect x="469" y="571" width="48" height="19" rx="2" fill="rgb(57,205,213)"/><text x="493" y="584" fill="#0b1220" font-size="9" text-anchor="middle">3</text><rect x="519" y="571" width="48" height="19" rx="2" fill="rgb(12,20,36)"/><text x="543" y="584" fill="#9fb3d1" font-size="9" text-anchor="middle">0</text><rect x="569" y="571" width="48" height="19" rx="2" fill="rgb(245,158,11)"/><text x="593" y="584" fill="#0b1220" font-size="9" text-anchor="middle">5</text><text x="158" y="605.5" fill="#cbd5e1" font-size="10" font-weight="400" text-anchor="end">Tierra</text><rect x="169" y="592" width="48" height="19" rx="2" fill="rgb(245,158,11)"/><text x="193" y="605" fill="#0b1220" font-size="9" text-anchor="middle">5</text><rect x="219" y="592" width="48" height="19" rx="2" fill="rgb(151,182,112)"/><text x="243" y="605" fill="#0b1220" font-size="9" text-anchor="middle">4</text><rect x="269" y="592" width="48" height="19" rx="2" fill="rgb(57,205,213)"/><text x="293" y="605" fill="#0b1220" font-size="9" text-anchor="middle">3</text><rect x="319" y="592" width="48" height="19" rx="2" fill="rgb(12,20,36)"/><text x="343" y="605" fill="#9fb3d1" font-size="9" text-anchor="middle">0</text><rect x="369" y="592" width="48" height="19" rx="2" fill="rgb(16,55,73)"/><text x="393" y="605" fill="#9fb3d1" font-size="9" text-anchor="middle">0.5</text><rect x="419" y="592" width="48" height="19" rx="2" fill="rgb(20,89,109)"/><text x="443" y="605" fill="#9fb3d1" font-size="9" text-anchor="middle">1</text><rect x="469" y="592" width="48" height="19" rx="2" fill="rgb(57,205,213)"/><text x="493" y="605" fill="#0b1220" font-size="9" text-anchor="middle">3</text><rect x="519" y="592" width="48" height="19" rx="2" fill="rgb(12,20,36)"/><text x="543" y="605" fill="#9fb3d1" font-size="9" text-anchor="middle">0</text><rect x="569" y="592" width="48" height="19" rx="2" fill="rgb(20,89,109)"/><text x="593" y="605" fill="#9fb3d1" font-size="9" text-anchor="middle">1</text><text x="158" y="626.5" fill="#cbd5e1" font-size="10" font-weight="400" text-anchor="end">Game of Life</text><rect x="169" y="613" width="48" height="19" rx="2" fill="rgb(28,159,183)"/><text x="193" y="626" fill="#9fb3d1" font-size="9" text-anchor="middle">2</text><rect x="219" y="613" width="48" height="19" rx="2" fill="rgb(28,159,183)"/><text x="243" y="626" fill="#9fb3d1" font-size="9" text-anchor="middle">2</text><rect x="269" y="613" width="48" height="19" rx="2" fill="rgb(20,89,109)"/><text x="293" y="626" fill="#9fb3d1" font-size="9" text-anchor="middle">1</text><rect x="319" y="613" width="48" height="19" rx="2" fill="rgb(28,159,183)"/><text x="343" y="626" fill="#9fb3d1" font-size="9" text-anchor="middle">2</text><rect x="369" y="613" width="48" height="19" rx="2" fill="rgb(12,20,36)"/><text x="393" y="626" fill="#9fb3d1" font-size="9" text-anchor="middle">0</text><rect x="419" y="613" width="48" height="19" rx="2" fill="rgb(20,89,109)"/><text x="443" y="626" fill="#9fb3d1" font-size="9" text-anchor="middle">1</text><rect x="469" y="613" width="48" height="19" rx="2" fill="rgb(245,158,11)"/><text x="493" y="626" fill="#0b1220" font-size="9" text-anchor="middle">5</text><rect x="519" y="613" width="48" height="19" rx="2" fill="rgb(12,20,36)"/><text x="543" y="626" fill="#9fb3d1" font-size="9" text-anchor="middle">0</text><rect x="569" y="613" width="48" height="19" rx="2" fill="rgb(57,205,213)"/><text x="593" y="626" fill="#0b1220" font-size="9" text-anchor="middle">3</text><text x="158" y="647.5" fill="#cbd5e1" font-size="10" font-weight="400" text-anchor="end">Core War</text><rect x="169" y="634" width="48" height="19" rx="2" fill="rgb(151,182,112)"/><text x="193" y="647" fill="#0b1220" font-size="9" text-anchor="middle">4</text><rect x="219" y="634" width="48" height="19" rx="2" fill="rgb(57,205,213)"/><text x="243" y="647" fill="#0b1220" font-size="9" text-anchor="middle">3</text><rect x="269" y="634" width="48" height="19" rx="2" fill="rgb(57,205,213)"/><text x="293" y="647" fill="#0b1220" font-size="9" text-anchor="middle">3</text><rect x="319" y="634" width="48" height="19" rx="2" fill="rgb(12,20,36)"/><text x="343" y="647" fill="#9fb3d1" font-size="9" text-anchor="middle">0</text><rect x="369" y="634" width="48" height="19" rx="2" fill="rgb(20,89,109)"/><text x="393" y="647" fill="#9fb3d1" font-size="9" text-anchor="middle">1</text><rect x="419" y="634" width="48" height="19" rx="2" fill="rgb(20,89,109)"/><text x="443" y="647" fill="#9fb3d1" font-size="9" text-anchor="middle">1</text><rect x="469" y="634" width="48" height="19" rx="2" fill="rgb(57,205,213)"/><text x="493" y="647" fill="#0b1220" font-size="9" text-anchor="middle">3</text><rect x="519" y="634" width="48" height="19" rx="2" fill="rgb(12,20,36)"/><text x="543" y="647" fill="#9fb3d1" font-size="9" text-anchor="middle">0</text><rect x="569" y="634" width="48" height="19" rx="2" fill="rgb(20,89,109)"/><text x="593" y="647" fill="#9fb3d1" font-size="9" text-anchor="middle">1</text><text x="158" y="668.5" fill="#cbd5e1" font-size="10" font-weight="400" text-anchor="end">Boids</text><rect x="169" y="655" width="48" height="19" rx="2" fill="rgb(12,20,36)"/><text x="193" y="668" fill="#9fb3d1" font-size="9" text-anchor="middle">0</text><rect x="219" y="655" width="48" height="19" rx="2" fill="rgb(20,89,109)"/><text x="243" y="668" fill="#9fb3d1" font-size="9" text-anchor="middle">1</text><rect x="269" y="655" width="48" height="19" rx="2" fill="rgb(151,182,112)"/><text x="293" y="668" fill="#0b1220" font-size="9" text-anchor="middle">4</text><rect x="319" y="655" width="48" height="19" rx="2" fill="rgb(20,89,109)"/><text x="343" y="668" fill="#9fb3d1" font-size="9" text-anchor="middle">1</text><rect x="369" y="655" width="48" height="19" rx="2" fill="rgb(12,20,36)"/><text x="393" y="668" fill="#9fb3d1" font-size="9" text-anchor="middle">0</text><rect x="419" y="655" width="48" height="19" rx="2" fill="rgb(20,89,109)"/><text x="443" y="668" fill="#9fb3d1" font-size="9" text-anchor="middle">1</text><rect x="469" y="655" width="48" height="19" rx="2" fill="rgb(151,182,112)"/><text x="493" y="668" fill="#0b1220" font-size="9" text-anchor="middle">4</text><rect x="519" y="655" width="48" height="19" rx="2" fill="rgb(12,20,36)"/><text x="543" y="668" fill="#9fb3d1" font-size="9" text-anchor="middle">0</text><rect x="569" y="655" width="48" height="19" rx="2" fill="rgb(151,182,112)"/><text x="593" y="668" fill="#0b1220" font-size="9" text-anchor="middle">4</text><text x="158" y="689.5" fill="#cbd5e1" font-size="10" font-weight="400" text-anchor="end">Biomorphs</text><rect x="169" y="676" width="48" height="19" rx="2" fill="rgb(151,182,112)"/><text x="193" y="689" fill="#0b1220" font-size="9" text-anchor="middle">4</text><rect x="219" y="676" width="48" height="19" rx="2" fill="rgb(28,159,183)"/><text x="243" y="689" fill="#9fb3d1" font-size="9" text-anchor="middle">2</text><rect x="269" y="676" width="48" height="19" rx="2" fill="rgb(12,20,36)"/><text x="293" y="689" fill="#9fb3d1" font-size="9" text-anchor="middle">0</text><rect x="319" y="676" width="48" height="19" rx="2" fill="rgb(57,205,213)"/><text x="343" y="689" fill="#0b1220" font-size="9" text-anchor="middle">3</text><rect x="369" y="676" width="48" height="19" rx="2" fill="rgb(12,20,36)"/><text x="393" y="689" fill="#9fb3d1" font-size="9" text-anchor="middle">0</text><rect x="419" y="676" width="48" height="19" rx="2" fill="rgb(20,89,109)"/><text x="443" y="689" fill="#9fb3d1" font-size="9" text-anchor="middle">1</text><rect x="469" y="676" width="48" height="19" rx="2" fill="rgb(28,159,183)"/><text x="493" y="689" fill="#9fb3d1" font-size="9" text-anchor="middle">2</text><rect x="519" y="676" width="48" height="19" rx="2" fill="rgb(12,20,36)"/><text x="543" y="689" fill="#9fb3d1" font-size="9" text-anchor="middle">0</text><rect x="569" y="676" width="48" height="19" rx="2" fill="rgb(57,205,213)"/><text x="593" y="689" fill="#0b1220" font-size="9" text-anchor="middle">3</text>
</svg>