<svg xmlns="http://www.w3.org/2000/svg" viewBox="0 0 760 2580" font-family="ui-sans-serif,system-ui,Segoe UI,Roboto,sans-serif" role="img" aria-label="Dendrogram">
<rect width="760" height="2580" rx="14" fill="#0b1220"/>
<text x="28" y="30" fill="#cbd5e1" font-size="18" font-weight="700">Capability dendrogram (average-linkage, Euclidean 9-axis)</text><text x="28" y="50" fill="#7c8aa5" font-size="12">leaves grouped by capability-shape similarity; join depth = merge distance.</text><text x="598" y="84" fill="#f59e0b" font-size="10" font-weight="700">COSMOGONIC</text><text x="598" y="106" fill="#cbd5e1" font-size="10" font-weight="400">OpenWorm</text><text x="598" y="128" fill="#cbd5e1" font-size="10" font-weight="400">NerveNet</text><path d="M298.58904615556673 103 H590" stroke="#34d399" stroke-width="1.3" fill="none" opacity="0.85"/><path d="M298.58904615556673 125 H590" stroke="#34d399" stroke-width="1.3" fill="none" opacity="0.85"/><path d="M298.58904615556673 103 V125" stroke="#34d399" stroke-width="1.3" fill="none" opacity="0.85"/><text x="598" y="150" fill="#cbd5e1" font-size="10" font-weight="400">The AI Scientist</text><text x="598" y="172" fill="#cbd5e1" font-size="10" font-weight="400">POET</text><text x="598" y="194" fill="#cbd5e1" font-size="10" font-weight="400">OMNI (Open-endedness via Models of human Notions of Interestingness)</text><path d="M590 169 H590" stroke="#34d399" stroke-width="1.3" fill="none" opacity="0.85"/><path d="M590 191 H590" stroke="#34d399" stroke-width="1.3" fill="none" opacity="0.85"/><path d="M590 169 V191" stroke="#34d399" stroke-width="1.3" fill="none" opacity="0.85"/><text x="598" y="216" fill="#cbd5e1" font-size="10" font-weight="400">Go-Explore</text><text x="598" y="238" fill="#cbd5e1" font-size="10" font-weight="400">Voyager (Minecraft LLM agent)</text><path d="M455.1029408184662 213 H590" stroke="#34d399" stroke-width="1.3" fill="none" opacity="0.85"/><path d="M455.1029408184662 235 H590" stroke="#34d399" stroke-width="1.3" fill="none" opacity="0.85"/><path d="M455.1029408184662 213 V235" stroke="#34d399" stroke-width="1.3" fill="none" opacity="0.85"/><path d="M427.1648450998476 180 H590" stroke="#34d399" stroke-width="1.3" fill="none" opacity="0.85"/><path d="M427.1648450998476 224 H455.1029408184662" stroke="#34d399" stroke-width="1.3" fill="none" opacity="0.85"/><path d="M427.1648450998476 180 V224" stroke="#34d399" stroke-width="1.3" fill="none" opacity="0.85"/><path d="M395.405396642062 147 H590" stroke="#34d399" stroke-width="1.3" fill="none" opacity="0.85"/><path d="M395.405396642062 202 H427.1648450998476" stroke="#34d399" stroke-width="1.3" fill="none" opacity="0.85"/><path d="M395.405396642062 147 V202" stroke="#34d399" stroke-width="1.3" fill="none" opacity="0.85"/><text x="598" y="260" fill="#cbd5e1" font-size="10" font-weight="400">ASAL</text><text x="598" y="282" fill="#cbd5e1" font-size="10" font-weight="400">OMNI-EPIC</text><path d="M369.7140248021451 257 H590" stroke="#34d399" stroke-width="1.3" fill="none" opacity="0.85"/><path d="M369.7140248021451 279 H590" stroke="#34d399" stroke-width="1.3" fill="none" opacity="0.85"/><path d="M369.7140248021451 257 V279" stroke="#34d399" stroke-width="1.3" fill="none" opacity="0.85"/><path d="M361.89851590922325 174.5 H395.405396642062" stroke="#34d399" stroke-width="1.3" fill="none" opacity="0.85"/><path d="M361.89851590922325 268 H369.7140248021451" stroke="#34d399" stroke-width="1.3" fill="none" opacity="0.85"/><path d="M361.89851590922325 174.5 V268" stroke="#34d399" stroke-width="1.3" fill="none" opacity="0.85"/><text x="598" y="304" fill="#cbd5e1" font-size="10" font-weight="400">Promptbreeder</text><text x="598" y="326" fill="#cbd5e1" font-size="10" font-weight="400">Quality-Diversity through AI Feedback (QDAIF)</text><path d="M512.1171465686525 301 H590" stroke="#34d399" stroke-width="1.3" fill="none" opacity="0.85"/><path d="M512.1171465686525 323 H590" stroke="#34d399" stroke-width="1.3" fill="none" opacity="0.85"/><path d="M512.1171465686525 301 V323" stroke="#34d399" stroke-width="1.3" fill="none" opacity="0.85"/><text x="598" y="348" fill="#cbd5e1" font-size="10" font-weight="400">Automated Design of Agentic Systems (ADAS)</text><text x="598" y="370" fill="#cbd5e1" font-size="10" font-weight="400">Darwin Godel Machine (DGM)</text><path d="M479.85701240107255 345 H590" stroke="#34d399" stroke-width="1.3" fill="none" opacity="0.85"/><path d="M479.85701240107255 367 H590" stroke="#34d399" stroke-width="1.3" fill="none" opacity="0.85"/><path d="M479.85701240107255 345 V367" stroke="#34d399" stroke-width="1.3" fill="none" opacity="0.85"/><path d="M374.2697587094605 312 H512.1171465686525" stroke="#34d399" stroke-width="1.3" fill="none" opacity="0.85"/><path d="M374.2697587094605 356 H479.85701240107255" stroke="#34d399" stroke-width="1.3" fill="none" opacity="0.85"/><path d="M374.2697587094605 312 V356" stroke="#34d399" stroke-width="1.3" fill="none" opacity="0.85"/><text x="598" y="392" fill="#cbd5e1" font-size="10" font-weight="400">NEAT (NeuroEvolution of Augmenting Topologies)</text><text x="598" y="414" fill="#cbd5e1" font-size="10" font-weight="400">HyperNEAT</text><text x="598" y="436" fill="#cbd5e1" font-size="10" font-weight="400">ES-HyperNEAT</text><path d="M512.1171465686525 411 H590" stroke="#34d399" stroke-width="1.3" fill="none" opacity="0.85"/><path d="M512.1171465686525 433 H590" stroke="#34d399" stroke-width="1.3" fill="none" opacity="0.85"/><path d="M512.1171465686525 411 V433" stroke="#34d399" stroke-width="1.3" fill="none" opacity="0.85"/><path d="M467.4799766097694 389 H590" stroke="#34d399" stroke-width="1.3" fill="none" opacity="0.85"/><path d="M467.4799766097694 422 H512.1171465686525" stroke="#34d399" stroke-width="1.3" fill="none" opacity="0.85"/><path d="M467.4799766097694 389 V422" stroke="#34d399" stroke-width="1.3" fill="none" opacity="0.85"/><text x="598" y="458" fill="#cbd5e1" font-size="10" font-weight="400">Evolution through Large Models (ELM)</text><text x="598" y="480" fill="#cbd5e1" font-size="10" font-weight="400">MAP-Elites</text><text x="598" y="502" fill="#cbd5e1" font-size="10" font-weight="400">Quality-Diversity (illumination algorithms)</text><path d="M590 477 H590" stroke="#34d399" stroke-width="1.3" fill="none" opacity="0.85"/><path d="M590 499 H590" stroke="#34d399" stroke-width="1.3" fill="none" opacity="0.85"/><path d="M590 477 V499" stroke="#34d399" stroke-width="1.3" fill="none" opacity="0.85"/><text x="598" y="524" fill="#cbd5e1" font-size="10" font-weight="400">Novelty Search</text><text x="598" y="546" fill="#cbd5e1" font-size="10" font-weight="400">OpenELM</text><path d="M479.85701240107255 521 H590" stroke="#34d399" stroke-width="1.3" fill="none" opacity="0.85"/><path d="M479.85701240107255 543 H590" stroke="#34d399" stroke-width="1.3" fill="none" opacity="0.85"/><path d="M479.85701240107255 521 V543" stroke="#34d399" stroke-width="1.3" fill="none" opacity="0.85"/><path d="M434.2342931373052 488 H590" stroke="#34d399" stroke-width="1.3" fill="none" opacity="0.85"/><path d="M434.2342931373052 532 H479.85701240107255" stroke="#34d399" stroke-width="1.3" fill="none" opacity="0.85"/><path d="M434.2342931373052 488 V532" stroke="#34d399" stroke-width="1.3" fill="none" opacity="0.85"/><path d="M399.8949919352078 455 H590" stroke="#34d399" stroke-width="1.3" fill="none" opacity="0.85"/><path d="M399.8949919352078 510 H434.2342931373052" stroke="#34d399" stroke-width="1.3" fill="none" opacity="0.85"/><path d="M399.8949919352078 455 V510" stroke="#34d399" stroke-width="1.3" fill="none" opacity="0.85"/><path d="M374.0844021728482 405.5 H467.4799766097694" stroke="#34d399" stroke-width="1.3" fill="none" opacity="0.85"/><path d="M374.0844021728482 482.5 H399.8949919352078" stroke="#34d399" stroke-width="1.3" fill="none" opacity="0.85"/><path d="M374.0844021728482 405.5 V482.5" stroke="#34d399" stroke-width="1.3" fill="none" opacity="0.85"/><path d="M321.6721258647559 334 H374.2697587094605" stroke="#34d399" stroke-width="1.3" fill="none" opacity="0.85"/><path d="M321.6721258647559 444 H374.0844021728482" stroke="#34d399" stroke-width="1.3" fill="none" opacity="0.85"/><path d="M321.6721258647559 334 V444" stroke="#34d399" stroke-width="1.3" fill="none" opacity="0.85"/><path d="M251.98886559838323 221.25 H361.89851590922325" stroke="#34d399" stroke-width="1.3" fill="none" opacity="0.85"/><path d="M251.98886559838323 389 H321.6721258647559" stroke="#34d399" stroke-width="1.3" fill="none" opacity="0.85"/><path d="M251.98886559838323 221.25 V389" stroke="#34d399" stroke-width="1.3" fill="none" opacity="0.85"/><text x="598" y="568" fill="#cbd5e1" font-size="10" font-weight="400">DERL (Deep Evolutionary Reinforcement Learning)</text><text x="598" y="590" fill="#cbd5e1" font-size="10" font-weight="400">UNIMAL (Universal Animal design space)</text><path d="M512.1171465686525 565 H590" stroke="#34d399" stroke-width="1.3" fill="none" opacity="0.85"/><path d="M512.1171465686525 587 H590" stroke="#34d399" stroke-width="1.3" fill="none" opacity="0.85"/><path d="M512.1171465686525 565 V587" stroke="#34d399" stroke-width="1.3" fill="none" opacity="0.85"/><text x="598" y="612" fill="#cbd5e1" font-size="10" font-weight="400">Transform2Act</text><text x="598" y="634" fill="#cbd5e1" font-size="10" font-weight="400">Neural Graph Evolution (NGE)</text><path d="M455.1029408184662 609 H590" stroke="#34d399" stroke-width="1.3" fill="none" opacity="0.85"/><path d="M455.1029408184662 631 H590" stroke="#34d399" stroke-width="1.3" fill="none" opacity="0.85"/><path d="M455.1029408184662 609 V631" stroke="#34d399" stroke-width="1.3" fill="none" opacity="0.85"/><path d="M444.66861697788573 576 H512.1171465686525" stroke="#34d399" stroke-width="1.3" fill="none" opacity="0.85"/><path d="M444.66861697788573 620 H455.1029408184662" stroke="#34d399" stroke-width="1.3" fill="none" opacity="0.85"/><path d="M444.66861697788573 576 V620" stroke="#34d399" stroke-width="1.3" fill="none" opacity="0.85"/><text x="598" y="656" fill="#cbd5e1" font-size="10" font-weight="400">Karl Sims VC</text><text x="598" y="678" fill="#cbd5e1" font-size="10" font-weight="400">3D Virtual Creature Evolution (3DVCE)</text><text x="598" y="700" fill="#cbd5e1" font-size="10" font-weight="400">Keiwan Evolution</text><path d="M512.1171465686525 675 H590" stroke="#34d399" stroke-width="1.3" fill="none" opacity="0.85"/><path d="M512.1171465686525 697 H590" stroke="#34d399" stroke-width="1.3" fill="none" opacity="0.85"/><path d="M512.1171465686525 675 V697" stroke="#34d399" stroke-width="1.3" fill="none" opacity="0.85"/><path d="M444.66861697788573 653 H590" stroke="#34d399" stroke-width="1.3" fill="none" opacity="0.85"/><path d="M444.66861697788573 686 H512.1171465686525" stroke="#34d399" stroke-width="1.3" fill="none" opacity="0.85"/><path d="M444.66861697788573 653 V686" stroke="#34d399" stroke-width="1.3" fill="none" opacity="0.85"/><text x="598" y="722" fill="#cbd5e1" font-size="10" font-weight="400">Evolving Soft Robots (Cheney / Unshackling Evolution)</text><text x="598" y="744" fill="#cbd5e1" font-size="10" font-weight="400">GOLEM (Genetically Organized Lifelike Electro Mechanics)</text><text x="598" y="766" fill="#cbd5e1" font-size="10" font-weight="400">Krcah Evolved Virtual Creatures (ERO)</text><path d="M455.1029408184662 741 H590" stroke="#34d399" stroke-width="1.3" fill="none" opacity="0.85"/><path d="M455.1029408184662 763 H590" stroke="#34d399" stroke-width="1.3" fill="none" opacity="0.85"/><path d="M455.1029408184662 741 V763" stroke="#34d399" stroke-width="1.3" fill="none" opacity="0.85"/><path d="M425.0414692915798 719 H590" stroke="#34d399" stroke-width="1.3" fill="none" opacity="0.85"/><path d="M425.0414692915798 752 H455.1029408184662" stroke="#34d399" stroke-width="1.3" fill="none" opacity="0.85"/><path d="M425.0414692915798 719 V752" stroke="#34d399" stroke-width="1.3" fill="none" opacity="0.85"/><path d="M405.97628321523143 669.5 H444.66861697788573" stroke="#34d399" stroke-width="1.3" fill="none" opacity="0.85"/><path d="M405.97628321523143 735.5 H425.0414692915798" stroke="#34d399" stroke-width="1.3" fill="none" opacity="0.85"/><path d="M405.97628321523143 669.5 V735.5" stroke="#34d399" stroke-width="1.3" fill="none" opacity="0.85"/><path d="M327.87132097389957 598 H444.66861697788573" stroke="#34d399" stroke-width="1.3" fill="none" opacity="0.85"/><path d="M327.87132097389957 702.5 H405.97628321523143" stroke="#34d399" stroke-width="1.3" fill="none" opacity="0.85"/><path d="M327.87132097389957 598 V702.5" stroke="#34d399" stroke-width="1.3" fill="none" opacity="0.85"/><text x="598" y="788" fill="#cbd5e1" font-size="10" font-weight="400">Cell Lab: Evolution Sandbox</text><text x="598" y="810" fill="#cbd5e1" font-size="10" font-weight="400">Primordial Particle Systems</text><text x="598" y="832" fill="#cbd5e1" font-size="10" font-weight="400">Squirm3</text><path d="M455.1029408184662 807 H590" stroke="#34d399" stroke-width="1.3" fill="none" opacity="0.85"/><path d="M455.1029408184662 829 H590" stroke="#34d399" stroke-width="1.3" fill="none" opacity="0.85"/><path d="M455.1029408184662 807 V829" stroke="#34d399" stroke-width="1.3" fill="none" opacity="0.85"/><path d="M444.66861697788573 785 H590" stroke="#34d399" stroke-width="1.3" fill="none" opacity="0.85"/><path d="M444.66861697788573 818 H455.1029408184662" stroke="#34d399" stroke-width="1.3" fill="none" opacity="0.85"/><path d="M444.66861697788573 785 V818" stroke="#34d399" stroke-width="1.3" fill="none" opacity="0.85"/><text x="598" y="854" fill="#cbd5e1" font-size="10" font-weight="400">Species: Artificial Life, Real Evolution</text><text x="598" y="876" fill="#cbd5e1" font-size="10" font-weight="400">Sebastian Lague Ecosystem</text><text x="598" y="898" fill="#cbd5e1" font-size="10" font-weight="400">Primer Evolution Simulations</text><path d="M479.85701240107255 873 H590" stroke="#34d399" stroke-width="1.3" fill="none" opacity="0.85"/><path d="M479.85701240107255 895 H590" stroke="#34d399" stroke-width="1.3" fill="none" opacity="0.85"/><path d="M479.85701240107255 873 V895" stroke="#34d399" stroke-width="1.3" fill="none" opacity="0.85"/><path d="M435.47579313216033 851 H590" stroke="#34d399" stroke-width="1.3" fill="none" opacity="0.85"/><path d="M435.47579313216033 884 H479.85701240107255" stroke="#34d399" stroke-width="1.3" fill="none" opacity="0.85"/><path d="M435.47579313216033 851 V884" stroke="#34d399" stroke-width="1.3" fill="none" opacity="0.85"/><path d="M404.064256902215 801.5 H444.66861697788573" stroke="#34d399" stroke-width="1.3" fill="none" opacity="0.85"/><path d="M404.064256902215 867.5 H435.47579313216033" stroke="#34d399" stroke-width="1.3" fill="none" opacity="0.85"/><path d="M404.064256902215 801.5 V867.5" stroke="#34d399" stroke-width="1.3" fill="none" opacity="0.85"/><text x="598" y="920" fill="#cbd5e1" font-size="10" font-weight="400">Darwin Pond</text><text x="598" y="942" fill="#cbd5e1" font-size="10" font-weight="400">Gene Pool</text><path d="M473.17571985297883 917 H590" stroke="#34d399" stroke-width="1.3" fill="none" opacity="0.85"/><path d="M473.17571985297883 939 H590" stroke="#34d399" stroke-width="1.3" fill="none" opacity="0.85"/><path d="M473.17571985297883 917 V939" stroke="#34d399" stroke-width="1.3" fill="none" opacity="0.85"/><text x="598" y="964" fill="#cbd5e1" font-size="10" font-weight="400">Picbreeder</text><text x="598" y="986" fill="#cbd5e1" font-size="10" font-weight="400">EndlessForms</text><path d="M415.84864544585446 961 H590" stroke="#34d399" stroke-width="1.3" fill="none" opacity="0.85"/><path d="M415.84864544585446 983 H590" stroke="#34d399" stroke-width="1.3" fill="none" opacity="0.85"/><path d="M415.84864544585446 961 V983" stroke="#34d399" stroke-width="1.3" fill="none" opacity="0.85"/><path d="M390.14669689869675 928 H473.17571985297883" stroke="#34d399" stroke-width="1.3" fill="none" opacity="0.85"/><path d="M390.14669689869675 972 H415.84864544585446" stroke="#34d399" stroke-width="1.3" fill="none" opacity="0.85"/><path d="M390.14669689869675 928 V972" stroke="#34d399" stroke-width="1.3" fill="none" opacity="0.85"/><text x="598" y="1008" fill="#cbd5e1" font-size="10" font-weight="400">ALIEN</text><text x="598" y="1030" fill="#cbd5e1" font-size="10" font-weight="400">breve</text><text x="598" y="1052" fill="#cbd5e1" font-size="10" font-weight="400">Framsticks</text><text x="598" y="1074" fill="#cbd5e1" font-size="10" font-weight="400">Division Blocks</text><path d="M424.7855186016089 1049 H590" stroke="#34d399" stroke-width="1.3" fill="none" opacity="0.85"/><path d="M424.7855186016089 1071 H590" stroke="#34d399" stroke-width="1.3" fill="none" opacity="0.85"/><path d="M424.7855186016089 1049 V1071" stroke="#34d399" stroke-width="1.3" fill="none" opacity="0.85"/><path d="M396.2788335548832 1027 H590" stroke="#34d399" stroke-width="1.3" fill="none" opacity="0.85"/><path d="M396.2788335548832 1060 H424.7855186016089" stroke="#34d399" stroke-width="1.3" fill="none" opacity="0.85"/><path d="M396.2788335548832 1027 V1060" stroke="#34d399" stroke-width="1.3" fill="none" opacity="0.85"/><path d="M366.10499368307484 1005 H590" stroke="#34d399" stroke-width="1.3" fill="none" opacity="0.85"/><path d="M366.10499368307484 1043.5 H396.2788335548832" stroke="#34d399" stroke-width="1.3" fill="none" opacity="0.85"/><path d="M366.10499368307484 1005 V1043.5" stroke="#34d399" stroke-width="1.3" fill="none" opacity="0.85"/><path d="M345.9200145721341 950 H390.14669689869675" stroke="#34d399" stroke-width="1.3" fill="none" opacity="0.85"/><path d="M345.9200145721341 1024.25 H366.10499368307484" stroke="#34d399" stroke-width="1.3" fill="none" opacity="0.85"/><path d="M345.9200145721341 950 V1024.25" stroke="#34d399" stroke-width="1.3" fill="none" opacity="0.85"/><path d="M318.9178225589187 834.5 H404.064256902215" stroke="#34d399" stroke-width="1.3" fill="none" opacity="0.85"/><path d="M318.9178225589187 987.125 H345.9200145721341" stroke="#34d399" stroke-width="1.3" fill="none" opacity="0.85"/><path d="M318.9178225589187 834.5 V987.125" stroke="#34d399" stroke-width="1.3" fill="none" opacity="0.85"/><text x="598" y="1096" fill="#cbd5e1" font-size="10" font-weight="400">Polyworld</text><text x="598" y="1118" fill="#cbd5e1" font-size="10" font-weight="400">Creatures</text><path d="M407.34851842279494 1093 H590" stroke="#34d399" stroke-width="1.3" fill="none" opacity="0.85"/><path d="M407.34851842279494 1115 H590" stroke="#34d399" stroke-width="1.3" fill="none" opacity="0.85"/><path d="M407.34851842279494 1093 V1115" stroke="#34d399" stroke-width="1.3" fill="none" opacity="0.85"/><text x="598" y="1140" fill="#cbd5e1" font-size="10" font-weight="400">Innovation Engines</text><text x="598" y="1162" fill="#cbd5e1" font-size="10" font-weight="400">Geb</text><text x="598" y="1184" fill="#cbd5e1" font-size="10" font-weight="400">MABE</text><text x="598" y="1206" fill="#cbd5e1" font-size="10" font-weight="400">Minimal Criterion Coevolution (MCC)</text><path d="M455.1029408184662 1181 H590" stroke="#34d399" stroke-width="1.3" fill="none" opacity="0.85"/><path d="M455.1029408184662 1203 H590" stroke="#34d399" stroke-width="1.3" fill="none" opacity="0.85"/><path d="M455.1029408184662 1181 V1203" stroke="#34d399" stroke-width="1.3" fill="none" opacity="0.85"/><path d="M425.0414692915798 1159 H590" stroke="#34d399" stroke-width="1.3" fill="none" opacity="0.85"/><path d="M425.0414692915798 1192 H455.1029408184662" stroke="#34d399" stroke-width="1.3" fill="none" opacity="0.85"/><path d="M425.0414692915798 1159 V1192" stroke="#34d399" stroke-width="1.3" fill="none" opacity="0.85"/><text x="598" y="1228" fill="#cbd5e1" font-size="10" font-weight="400">Chromaria</text><text x="598" y="1250" fill="#cbd5e1" font-size="10" font-weight="400">Evolve 4.0</text><text x="598" y="1272" fill="#cbd5e1" font-size="10" font-weight="400">biosim4</text><text x="598" y="1294" fill="#cbd5e1" font-size="10" font-weight="400">The Bibites</text><path d="M479.85701240107255 1269 H590" stroke="#34d399" stroke-width="1.3" fill="none" opacity="0.85"/><path d="M479.85701240107255 1291 H590" stroke="#34d399" stroke-width="1.3" fill="none" opacity="0.85"/><path d="M479.85701240107255 1269 V1291" stroke="#34d399" stroke-width="1.3" fill="none" opacity="0.85"/><path d="M455.1029408184662 1247 H590" stroke="#34d399" stroke-width="1.3" fill="none" opacity="0.85"/><path d="M455.1029408184662 1280 H479.85701240107255" stroke="#34d399" stroke-width="1.3" fill="none" opacity="0.85"/><path d="M455.1029408184662 1247 V1280" stroke="#34d399" stroke-width="1.3" fill="none" opacity="0.85"/><path d="M391.50902375594137 1225 H590" stroke="#34d399" stroke-width="1.3" fill="none" opacity="0.85"/><path d="M391.50902375594137 1263.5 H455.1029408184662" stroke="#34d399" stroke-width="1.3" fill="none" opacity="0.85"/><path d="M391.50902375594137 1225 V1263.5" stroke="#34d399" stroke-width="1.3" fill="none" opacity="0.85"/><path d="M370.2472517133979 1175.5 H425.0414692915798" stroke="#34d399" stroke-width="1.3" fill="none" opacity="0.85"/><path d="M370.2472517133979 1244.25 H391.50902375594137" stroke="#34d399" stroke-width="1.3" fill="none" opacity="0.85"/><path d="M370.2472517133979 1175.5 V1244.25" stroke="#34d399" stroke-width="1.3" fill="none" opacity="0.85"/><path d="M333.45462885265243 1137 H590" stroke="#34d399" stroke-width="1.3" fill="none" opacity="0.85"/><path d="M333.45462885265243 1209.875 H370.2472517133979" stroke="#34d399" stroke-width="1.3" fill="none" opacity="0.85"/><path d="M333.45462885265243 1137 V1209.875" stroke="#34d399" stroke-width="1.3" fill="none" opacity="0.85"/><path d="M313.7973236865014 1104 H407.34851842279494" stroke="#34d399" stroke-width="1.3" fill="none" opacity="0.85"/><path d="M313.7973236865014 1173.4375 H333.45462885265243" stroke="#34d399" stroke-width="1.3" fill="none" opacity="0.85"/><path d="M313.7973236865014 1104 V1173.4375" stroke="#34d399" stroke-width="1.3" fill="none" opacity="0.85"/><path d="M268.5523395548071 910.8125 H318.9178225589187" stroke="#34d399" stroke-width="1.3" fill="none" opacity="0.85"/><path d="M268.5523395548071 1138.71875 H313.7973236865014" stroke="#34d399" stroke-width="1.3" fill="none" opacity="0.85"/><path d="M268.5523395548071 910.8125 V1138.71875" stroke="#34d399" stroke-width="1.3" fill="none" opacity="0.85"/><path d="M249.84692222387247 650.25 H327.87132097389957" stroke="#34d399" stroke-width="1.3" fill="none" opacity="0.85"/><path d="M249.84692222387247 1024.765625 H268.5523395548071" stroke="#34d399" stroke-width="1.3" fill="none" opacity="0.85"/><path d="M249.84692222387247 650.25 V1024.765625" stroke="#34d399" stroke-width="1.3" fill="none" opacity="0.85"/><path d="M198.76491935033948 305.125 H251.98886559838323" stroke="#34d399" stroke-width="1.3" fill="none" opacity="0.85"/><path d="M198.76491935033948 837.5078125 H249.84692222387247" stroke="#34d399" stroke-width="1.3" fill="none" opacity="0.85"/><path d="M198.76491935033948 305.125 V837.5078125" stroke="#34d399" stroke-width="1.3" fill="none" opacity="0.85"/><text x="598" y="1316" fill="#cbd5e1" font-size="10" font-weight="400">Sugarscape</text><text x="598" y="1338" fill="#cbd5e1" font-size="10" font-weight="400">Swarm</text><path d="M502.92432272292723 1313 H590" stroke="#34d399" stroke-width="1.3" fill="none" opacity="0.85"/><path d="M502.92432272292723 1335 H590" stroke="#34d399" stroke-width="1.3" fill="none" opacity="0.85"/><path d="M502.92432272292723 1313 V1335" stroke="#34d399" stroke-width="1.3" fill="none" opacity="0.85"/><text x="598" y="1360" fill="#cbd5e1" font-size="10" font-weight="400">Echo</text><text x="598" y="1382" fill="#cbd5e1" font-size="10" font-weight="400">SimLife: The Genetic Playground</text><path d="M415.84864544585446 1357 H590" stroke="#34d399" stroke-width="1.3" fill="none" opacity="0.85"/><path d="M415.84864544585446 1379 H590" stroke="#34d399" stroke-width="1.3" fill="none" opacity="0.85"/><path d="M415.84864544585446 1357 V1379" stroke="#34d399" stroke-width="1.3" fill="none" opacity="0.85"/><path d="M402.19034110128234 1324 H502.92432272292723" stroke="#34d399" stroke-width="1.3" fill="none" opacity="0.85"/><path d="M402.19034110128234 1368 H415.84864544585446" stroke="#34d399" stroke-width="1.3" fill="none" opacity="0.85"/><path d="M402.19034110128234 1324 V1368" stroke="#34d399" stroke-width="1.3" fill="none" opacity="0.85"/><text x="598" y="1404" fill="#cbd5e1" font-size="10" font-weight="400">Tierra</text><text x="598" y="1426" fill="#cbd5e1" font-size="10" font-weight="400">Avida</text><path d="M449.5946892369152 1401 H590" stroke="#34d399" stroke-width="1.3" fill="none" opacity="0.85"/><path d="M449.5946892369152 1423 H590" stroke="#34d399" stroke-width="1.3" fill="none" opacity="0.85"/><path d="M449.5946892369152 1401 V1423" stroke="#34d399" stroke-width="1.3" fill="none" opacity="0.85"/><text x="598" y="1448" fill="#cbd5e1" font-size="10" font-weight="400">The Life Engine</text><text x="598" y="1470" fill="#cbd5e1" font-size="10" font-weight="400">Nanopond</text><text x="598" y="1492" fill="#cbd5e1" font-size="10" font-weight="400">Physis</text><path d="M479.85701240107255 1467 H590" stroke="#34d399" stroke-width="1.3" fill="none" opacity="0.85"/><path d="M479.85701240107255 1489 H590" stroke="#34d399" stroke-width="1.3" fill="none" opacity="0.85"/><path d="M479.85701240107255 1467 V1489" stroke="#34d399" stroke-width="1.3" fill="none" opacity="0.85"/><text x="598" y="1514" fill="#cbd5e1" font-size="10" font-weight="400">Network Tierra</text><text x="598" y="1536" fill="#cbd5e1" font-size="10" font-weight="400">Core War</text><text x="598" y="1558" fill="#cbd5e1" font-size="10" font-weight="400">Cosmos</text><text x="598" y="1580" fill="#cbd5e1" font-size="10" font-weight="400">Amoeba</text><path d="M590 1555 H590" stroke="#34d399" stroke-width="1.3" fill="none" opacity="0.85"/><path d="M590 1577 H590" stroke="#34d399" stroke-width="1.3" fill="none" opacity="0.85"/><path d="M590 1555 V1577" stroke="#34d399" stroke-width="1.3" fill="none" opacity="0.85"/><path d="M479.85701240107255 1533 H590" stroke="#34d399" stroke-width="1.3" fill="none" opacity="0.85"/><path d="M479.85701240107255 1566 H590" stroke="#34d399" stroke-width="1.3" fill="none" opacity="0.85"/><path d="M479.85701240107255 1533 V1566" stroke="#34d399" stroke-width="1.3" fill="none" opacity="0.85"/><path d="M464.6494393131501 1511 H590" stroke="#34d399" stroke-width="1.3" fill="none" opacity="0.85"/><path d="M464.6494393131501 1549.5 H479.85701240107255" stroke="#34d399" stroke-width="1.3" fill="none" opacity="0.85"/><path d="M464.6494393131501 1511 V1549.5" stroke="#34d399" stroke-width="1.3" fill="none" opacity="0.85"/><path d="M458.37254970765025 1478 H479.85701240107255" stroke="#34d399" stroke-width="1.3" fill="none" opacity="0.85"/><path d="M458.37254970765025 1530.25 H464.6494393131501" stroke="#34d399" stroke-width="1.3" fill="none" opacity="0.85"/><path d="M458.37254970765025 1478 V1530.25" stroke="#34d399" stroke-width="1.3" fill="none" opacity="0.85"/><path d="M436.7002911907134 1445 H590" stroke="#34d399" stroke-width="1.3" fill="none" opacity="0.85"/><path d="M436.7002911907134 1504.125 H458.37254970765025" stroke="#34d399" stroke-width="1.3" fill="none" opacity="0.85"/><path d="M436.7002911907134 1445 V1504.125" stroke="#34d399" stroke-width="1.3" fill="none" opacity="0.85"/><path d="M415.0996986802273 1412 H449.5946892369152" stroke="#34d399" stroke-width="1.3" fill="none" opacity="0.85"/><path d="M415.0996986802273 1474.5625 H436.7002911907134" stroke="#34d399" stroke-width="1.3" fill="none" opacity="0.85"/><path d="M415.0996986802273 1412 V1474.5625" stroke="#34d399" stroke-width="1.3" fill="none" opacity="0.85"/><text x="598" y="1602" fill="#cbd5e1" font-size="10" font-weight="400">Aevol</text><text x="598" y="1624" fill="#cbd5e1" font-size="10" font-weight="400">Avida-ED</text><path d="M399.2267493812289 1599 H590" stroke="#34d399" stroke-width="1.3" fill="none" opacity="0.85"/><path d="M399.2267493812289 1621 H590" stroke="#34d399" stroke-width="1.3" fill="none" opacity="0.85"/><path d="M399.2267493812289 1599 V1621" stroke="#34d399" stroke-width="1.3" fill="none" opacity="0.85"/><path d="M353.1940834140109 1443.28125 H415.0996986802273" stroke="#34d399" stroke-width="1.3" fill="none" opacity="0.85"/><path d="M353.1940834140109 1610 H399.2267493812289" stroke="#34d399" stroke-width="1.3" fill="none" opacity="0.85"/><path d="M353.1940834140109 1443.28125 V1610" stroke="#34d399" stroke-width="1.3" fill="none" opacity="0.85"/><path d="M324.5061970465275 1346 H402.19034110128234" stroke="#34d399" stroke-width="1.3" fill="none" opacity="0.85"/><path d="M324.5061970465275 1526.640625 H353.1940834140109" stroke="#34d399" stroke-width="1.3" fill="none" opacity="0.85"/><path d="M324.5061970465275 1346 V1526.640625" stroke="#34d399" stroke-width="1.3" fill="none" opacity="0.85"/><text x="598" y="1646" fill="#cbd5e1" font-size="10" font-weight="400">El Farol Bar Problem</text><text x="598" y="1668" fill="#cbd5e1" font-size="10" font-weight="400">Generative Agents (Smallville)</text><path d="M356.3514397059578 1643 H590" stroke="#34d399" stroke-width="1.3" fill="none" opacity="0.85"/><path d="M356.3514397059578 1665 H590" stroke="#34d399" stroke-width="1.3" fill="none" opacity="0.85"/><path d="M356.3514397059578 1643 V1665" stroke="#34d399" stroke-width="1.3" fill="none" opacity="0.85"/><text x="598" y="1690" fill="#cbd5e1" font-size="10" font-weight="400">Artificial Anasazi</text><text x="598" y="1712" fill="#cbd5e1" font-size="10" font-weight="400">Schelling Segregation Model</text><text x="598" y="1734" fill="#cbd5e1" font-size="10" font-weight="400">SimEarth: The Living Planet</text><text x="598" y="1756" fill="#cbd5e1" font-size="10" font-weight="400">SimAnt: The Electric Ant Colony</text><text x="598" y="1778" fill="#cbd5e1" font-size="10" font-weight="400">StarLogo</text><text x="598" y="1800" fill="#cbd5e1" font-size="10" font-weight="400">Ascape</text><path d="M479.85701240107255 1775 H590" stroke="#34d399" stroke-width="1.3" fill="none" opacity="0.85"/><path d="M479.85701240107255 1797 H590" stroke="#34d399" stroke-width="1.3" fill="none" opacity="0.85"/><path d="M479.85701240107255 1775 V1797" stroke="#34d399" stroke-width="1.3" fill="none" opacity="0.85"/><path d="M457.04565276918885 1753 H590" stroke="#34d399" stroke-width="1.3" fill="none" opacity="0.85"/><path d="M457.04565276918885 1786 H479.85701240107255" stroke="#34d399" stroke-width="1.3" fill="none" opacity="0.85"/><path d="M457.04565276918885 1753 V1786" stroke="#34d399" stroke-width="1.3" fill="none" opacity="0.85"/><path d="M431.3824066871646 1731 H590" stroke="#34d399" stroke-width="1.3" fill="none" opacity="0.85"/><path d="M431.3824066871646 1769.5 H457.04565276918885" stroke="#34d399" stroke-width="1.3" fill="none" opacity="0.85"/><path d="M431.3824066871646 1731 V1769.5" stroke="#34d399" stroke-width="1.3" fill="none" opacity="0.85"/><path d="M421.50674527285094 1709 H590" stroke="#34d399" stroke-width="1.3" fill="none" opacity="0.85"/><path d="M421.50674527285094 1750.25 H431.3824066871646" stroke="#34d399" stroke-width="1.3" fill="none" opacity="0.85"/><path d="M421.50674527285094 1709 V1750.25" stroke="#34d399" stroke-width="1.3" fill="none" opacity="0.85"/><path d="M402.07653924571355 1687 H590" stroke="#34d399" stroke-width="1.3" fill="none" opacity="0.85"/><path d="M402.07653924571355 1729.625 H421.50674527285094" stroke="#34d399" stroke-width="1.3" fill="none" opacity="0.85"/><path d="M402.07653924571355 1687 V1729.625" stroke="#34d399" stroke-width="1.3" fill="none" opacity="0.85"/><text x="598" y="1822" fill="#cbd5e1" font-size="10" font-weight="400">Boids</text><text x="598" y="1844" fill="#cbd5e1" font-size="10" font-weight="400">NetLogo</text><text x="598" y="1866" fill="#cbd5e1" font-size="10" font-weight="400">Mesa</text><path d="M590 1841 H590" stroke="#34d399" stroke-width="1.3" fill="none" opacity="0.85"/><path d="M590 1863 H590" stroke="#34d399" stroke-width="1.3" fill="none" opacity="0.85"/><path d="M590 1841 V1863" stroke="#34d399" stroke-width="1.3" fill="none" opacity="0.85"/><text x="598" y="1888" fill="#cbd5e1" font-size="10" font-weight="400">GAMA Platform</text><text x="598" y="1910" fill="#cbd5e1" font-size="10" font-weight="400">MASON</text><text x="598" y="1932" fill="#cbd5e1" font-size="10" font-weight="400">Repast</text><path d="M512.1171465686525 1907 H590" stroke="#34d399" stroke-width="1.3" fill="none" opacity="0.85"/><path d="M512.1171465686525 1929 H590" stroke="#34d399" stroke-width="1.3" fill="none" opacity="0.85"/><path d="M512.1171465686525 1907 V1929" stroke="#34d399" stroke-width="1.3" fill="none" opacity="0.85"/><path d="M495.9870794848626 1885 H590" stroke="#34d399" stroke-width="1.3" fill="none" opacity="0.85"/><path d="M495.9870794848626 1918 H512.1171465686525" stroke="#34d399" stroke-width="1.3" fill="none" opacity="0.85"/><path d="M495.9870794848626 1885 V1918" stroke="#34d399" stroke-width="1.3" fill="none" opacity="0.85"/><path d="M482.35903326273046 1852 H590" stroke="#34d399" stroke-width="1.3" fill="none" opacity="0.85"/><path d="M482.35903326273046 1901.5 H495.9870794848626" stroke="#34d399" stroke-width="1.3" fill="none" opacity="0.85"/><path d="M482.35903326273046 1852 V1901.5" stroke="#34d399" stroke-width="1.3" fill="none" opacity="0.85"/><path d="M401.2130575851756 1819 H590" stroke="#34d399" stroke-width="1.3" fill="none" opacity="0.85"/><path d="M401.2130575851756 1876.75 H482.35903326273046" stroke="#34d399" stroke-width="1.3" fill="none" opacity="0.85"/><path d="M401.2130575851756 1819 V1876.75" stroke="#34d399" stroke-width="1.3" fill="none" opacity="0.85"/><path d="M354.22711833251947 1708.3125 H402.07653924571355" stroke="#34d399" stroke-width="1.3" fill="none" opacity="0.85"/><path d="M354.22711833251947 1847.875 H401.2130575851756" stroke="#34d399" stroke-width="1.3" fill="none" opacity="0.85"/><path d="M354.22711833251947 1708.3125 V1847.875" stroke="#34d399" stroke-width="1.3" fill="none" opacity="0.85"/><path d="M299.06261974150567 1654 H356.3514397059578" stroke="#34d399" stroke-width="1.3" fill="none" opacity="0.85"/><path d="M299.06261974150567 1778.09375 H354.22711833251947" stroke="#34d399" stroke-width="1.3" fill="none" opacity="0.85"/><path d="M299.06261974150567 1654 V1778.09375" stroke="#34d399" stroke-width="1.3" fill="none" opacity="0.85"/><path d="M206.9152726507209 1436.3203125 H324.5061970465275" stroke="#34d399" stroke-width="1.3" fill="none" opacity="0.85"/><path d="M206.9152726507209 1716.046875 H299.06261974150567" stroke="#34d399" stroke-width="1.3" fill="none" opacity="0.85"/><path d="M206.9152726507209 1436.3203125 V1716.046875" stroke="#34d399" stroke-width="1.3" fill="none" opacity="0.85"/><text x="598" y="1954" fill="#cbd5e1" font-size="10" font-weight="400">Lenia</text><text x="598" y="1976" fill="#cbd5e1" font-size="10" font-weight="400">Particle Lenia</text><path d="M479.85701240107255 1951 H590" stroke="#34d399" stroke-width="1.3" fill="none" opacity="0.85"/><path d="M479.85701240107255 1973 H590" stroke="#34d399" stroke-width="1.3" fill="none" opacity="0.85"/><path d="M479.85701240107255 1951 V1973" stroke="#34d399" stroke-width="1.3" fill="none" opacity="0.85"/><text x="598" y="1998" fill="#cbd5e1" font-size="10" font-weight="400">Flow Lenia</text><text x="598" y="2020" fill="#cbd5e1" font-size="10" font-weight="400">Thrive</text><path d="M434.2342931373052 1995 H590" stroke="#34d399" stroke-width="1.3" fill="none" opacity="0.85"/><path d="M434.2342931373052 2017 H590" stroke="#34d399" stroke-width="1.3" fill="none" opacity="0.85"/><path d="M434.2342931373052 1995 V2017" stroke="#34d399" stroke-width="1.3" fill="none" opacity="0.85"/><path d="M392.997517255557 1962 H479.85701240107255" stroke="#34d399" stroke-width="1.3" fill="none" opacity="0.85"/><path d="M392.997517255557 2006 H434.2342931373052" stroke="#34d399" stroke-width="1.3" fill="none" opacity="0.85"/><path d="M392.997517255557 1962 V2006" stroke="#34d399" stroke-width="1.3" fill="none" opacity="0.85"/><text x="598" y="2042" fill="#cbd5e1" font-size="10" font-weight="400">Clusters (Particle Life)</text><text x="598" y="2064" fill="#cbd5e1" font-size="10" font-weight="400">Spore</text><text x="598" y="2086" fill="#cbd5e1" font-size="10" font-weight="400">Noita</text><text x="598" y="2108" fill="#cbd5e1" font-size="10" font-weight="400">Sandspiel</text><path d="M479.85701240107255 2083 H590" stroke="#34d399" stroke-width="1.3" fill="none" opacity="0.85"/><path d="M479.85701240107255 2105 H590" stroke="#34d399" stroke-width="1.3" fill="none" opacity="0.85"/><path d="M479.85701240107255 2083 V2105" stroke="#34d399" stroke-width="1.3" fill="none" opacity="0.85"/><path d="M416.730521259267 2061 H590" stroke="#34d399" stroke-width="1.3" fill="none" opacity="0.85"/><path d="M416.730521259267 2094 H479.85701240107255" stroke="#34d399" stroke-width="1.3" fill="none" opacity="0.85"/><path d="M416.730521259267 2061 V2094" stroke="#34d399" stroke-width="1.3" fill="none" opacity="0.85"/><path d="M410.8959306332543 2039 H590" stroke="#34d399" stroke-width="1.3" fill="none" opacity="0.85"/><path d="M410.8959306332543 2077.5 H416.730521259267" stroke="#34d399" stroke-width="1.3" fill="none" opacity="0.85"/><path d="M410.8959306332543 2039 V2077.5" stroke="#34d399" stroke-width="1.3" fill="none" opacity="0.85"/><text x="598" y="2130" fill="#cbd5e1" font-size="10" font-weight="400">OpenSteer</text><text x="598" y="2152" fill="#cbd5e1" font-size="10" font-weight="400">Pezzza's Ant Colony Simulation</text><path d="M479.85701240107255 2127 H590" stroke="#34d399" stroke-width="1.3" fill="none" opacity="0.85"/><path d="M479.85701240107255 2149 H590" stroke="#34d399" stroke-width="1.3" fill="none" opacity="0.85"/><path d="M479.85701240107255 2127 V2149" stroke="#34d399" stroke-width="1.3" fill="none" opacity="0.85"/><text x="598" y="2174" fill="#cbd5e1" font-size="10" font-weight="400">The Powder Toy</text><text x="598" y="2196" fill="#cbd5e1" font-size="10" font-weight="400">SmoothLife</text><text x="598" y="2218" fill="#cbd5e1" font-size="10" font-weight="400">Larger than Life</text><path d="M590 2193 H590" stroke="#34d399" stroke-width="1.3" fill="none" opacity="0.85"/><path d="M590 2215 H590" stroke="#34d399" stroke-width="1.3" fill="none" opacity="0.85"/><path d="M590 2193 V2215" stroke="#34d399" stroke-width="1.3" fill="none" opacity="0.85"/><text x="598" y="2240" fill="#cbd5e1" font-size="10" font-weight="400">Gray-Scott Reaction-Diffusion</text><text x="598" y="2262" fill="#cbd5e1" font-size="10" font-weight="400">Morphozoic</text><path d="M479.85701240107255 2237 H590" stroke="#34d399" stroke-width="1.3" fill="none" opacity="0.85"/><path d="M479.85701240107255 2259 H590" stroke="#34d399" stroke-width="1.3" fill="none" opacity="0.85"/><path d="M479.85701240107255 2237 V2259" stroke="#34d399" stroke-width="1.3" fill="none" opacity="0.85"/><path d="M457.04565276918885 2204 H590" stroke="#34d399" stroke-width="1.3" fill="none" opacity="0.85"/><path d="M457.04565276918885 2248 H479.85701240107255" stroke="#34d399" stroke-width="1.3" fill="none" opacity="0.85"/><path d="M457.04565276918885 2204 V2248" stroke="#34d399" stroke-width="1.3" fill="none" opacity="0.85"/><path d="M434.2342931373052 2171 H590" stroke="#34d399" stroke-width="1.3" fill="none" opacity="0.85"/><path d="M434.2342931373052 2226 H457.04565276918885" stroke="#34d399" stroke-width="1.3" fill="none" opacity="0.85"/><path d="M434.2342931373052 2171 V2226" stroke="#34d399" stroke-width="1.3" fill="none" opacity="0.85"/><path d="M398.59546738661066 2138 H479.85701240107255" stroke="#34d399" stroke-width="1.3" fill="none" opacity="0.85"/><path d="M398.59546738661066 2198.5 H434.2342931373052" stroke="#34d399" stroke-width="1.3" fill="none" opacity="0.85"/><path d="M398.59546738661066 2138 V2198.5" stroke="#34d399" stroke-width="1.3" fill="none" opacity="0.85"/><path d="M386.7854814871809 2058.25 H410.8959306332543" stroke="#34d399" stroke-width="1.3" fill="none" opacity="0.85"/><path d="M386.7854814871809 2168.25 H398.59546738661066" stroke="#34d399" stroke-width="1.3" fill="none" opacity="0.85"/><path d="M386.7854814871809 2058.25 V2168.25" stroke="#34d399" stroke-width="1.3" fill="none" opacity="0.85"/><path d="M334.111130744766 1984 H392.997517255557" stroke="#34d399" stroke-width="1.3" fill="none" opacity="0.85"/><path d="M334.111130744766 2113.25 H386.7854814871809" stroke="#34d399" stroke-width="1.3" fill="none" opacity="0.85"/><path d="M334.111130744766 1984 V2113.25" stroke="#34d399" stroke-width="1.3" fill="none" opacity="0.85"/><text x="598" y="2284" fill="#cbd5e1" font-size="10" font-weight="400">Game of Life</text><text x="598" y="2306" fill="#cbd5e1" font-size="10" font-weight="400">Voxelyze / VoxCAD</text><text x="598" y="2328" fill="#cbd5e1" font-size="10" font-weight="400">Growing NCA</text><text x="598" y="2350" fill="#cbd5e1" font-size="10" font-weight="400">Genie (Generative Interactive Environments)</text><path d="M429.44038443902787 2325 H590" stroke="#34d399" stroke-width="1.3" fill="none" opacity="0.85"/><path d="M429.44038443902787 2347 H590" stroke="#34d399" stroke-width="1.3" fill="none" opacity="0.85"/><path d="M429.44038443902787 2325 V2347" stroke="#34d399" stroke-width="1.3" fill="none" opacity="0.85"/><text x="598" y="2372" fill="#cbd5e1" font-size="10" font-weight="400">DevoWorm</text><text x="598" y="2394" fill="#cbd5e1" font-size="10" font-weight="400">EvoGym</text><text x="598" y="2416" fill="#cbd5e1" font-size="10" font-weight="400">RoboGrammar</text><path d="M479.85701240107255 2391 H590" stroke="#34d399" stroke-width="1.3" fill="none" opacity="0.85"/><path d="M479.85701240107255 2413 H590" stroke="#34d399" stroke-width="1.3" fill="none" opacity="0.85"/><path d="M479.85701240107255 2391 V2413" stroke="#34d399" stroke-width="1.3" fill="none" opacity="0.85"/><path d="M370.1463890652595 2369 H590" stroke="#34d399" stroke-width="1.3" fill="none" opacity="0.85"/><path d="M370.1463890652595 2402 H479.85701240107255" stroke="#34d399" stroke-width="1.3" fill="none" opacity="0.85"/><path d="M370.1463890652595 2369 V2402" stroke="#34d399" stroke-width="1.3" fill="none" opacity="0.85"/><path d="M346.563525484566 2336 H429.44038443902787" stroke="#34d399" stroke-width="1.3" fill="none" opacity="0.85"/><path d="M346.563525484566 2385.5 H370.1463890652595" stroke="#34d399" stroke-width="1.3" fill="none" opacity="0.85"/><path d="M346.563525484566 2336 V2385.5" stroke="#34d399" stroke-width="1.3" fill="none" opacity="0.85"/><path d="M310.6977772980998 2303 H590" stroke="#34d399" stroke-width="1.3" fill="none" opacity="0.85"/><path d="M310.6977772980998 2360.75 H346.563525484566" stroke="#34d399" stroke-width="1.3" fill="none" opacity="0.85"/><path d="M310.6977772980998 2303 V2360.75" stroke="#34d399" stroke-width="1.3" fill="none" opacity="0.85"/><path d="M276.2238419262884 2281 H590" stroke="#34d399" stroke-width="1.3" fill="none" opacity="0.85"/><path d="M276.2238419262884 2331.875 H310.6977772980998" stroke="#34d399" stroke-width="1.3" fill="none" opacity="0.85"/><path d="M276.2238419262884 2281 V2331.875" stroke="#34d399" stroke-width="1.3" fill="none" opacity="0.85"/><path d="M269.18678361786937 2048.625 H334.111130744766" stroke="#34d399" stroke-width="1.3" fill="none" opacity="0.85"/><path d="M269.18678361786937 2306.4375 H276.2238419262884" stroke="#34d399" stroke-width="1.3" fill="none" opacity="0.85"/><path d="M269.18678361786937 2048.625 V2306.4375" stroke="#34d399" stroke-width="1.3" fill="none" opacity="0.85"/><text x="598" y="2438" fill="#cbd5e1" font-size="10" font-weight="400">Rule 110</text><text x="598" y="2460" fill="#cbd5e1" font-size="10" font-weight="400">Wireworld</text><text x="598" y="2482" fill="#cbd5e1" font-size="10" font-weight="400">Langton's Ant</text><path d="M590 2457 H590" stroke="#34d399" stroke-width="1.3" fill="none" opacity="0.85"/><path d="M590 2479 H590" stroke="#34d399" stroke-width="1.3" fill="none" opacity="0.85"/><path d="M590 2457 V2479" stroke="#34d399" stroke-width="1.3" fill="none" opacity="0.85"/><path d="M590 2435 H590" stroke="#34d399" stroke-width="1.3" fill="none" opacity="0.85"/><path d="M590 2468 H590" stroke="#34d399" stroke-width="1.3" fill="none" opacity="0.85"/><path d="M590 2435 V2468" stroke="#34d399" stroke-width="1.3" fill="none" opacity="0.85"/><text x="598" y="2504" fill="#cbd5e1" font-size="10" font-weight="400">Biomorphs</text><text x="598" y="2526" fill="#cbd5e1" font-size="10" font-weight="400">Langton's Loops</text><text x="598" y="2548" fill="#cbd5e1" font-size="10" font-weight="400">von Neumann Universal Constructor</text><path d="M434.2342931373052 2523 H590" stroke="#34d399" stroke-width="1.3" fill="none" opacity="0.85"/><path d="M434.2342931373052 2545 H590" stroke="#34d399" stroke-width="1.3" fill="none" opacity="0.85"/><path d="M434.2342931373052 2523 V2545" stroke="#34d399" stroke-width="1.3" fill="none" opacity="0.85"/><path d="M331.6917975659771 2501 H590" stroke="#34d399" stroke-width="1.3" fill="none" opacity="0.85"/><path d="M331.6917975659771 2534 H434.2342931373052" stroke="#34d399" stroke-width="1.3" fill="none" opacity="0.85"/><path d="M331.6917975659771 2501 V2534" stroke="#34d399" stroke-width="1.3" fill="none" opacity="0.85"/><path d="M234.81696562061137 2451.5 H590" stroke="#34d399" stroke-width="1.3" fill="none" opacity="0.85"/><path d="M234.81696562061137 2517.5 H331.6917975659771" stroke="#34d399" stroke-width="1.3" fill="none" opacity="0.85"/><path d="M234.81696562061137 2451.5 V2517.5" stroke="#34d399" stroke-width="1.3" fill="none" opacity="0.85"/><path d="M185.95991818707603 2177.53125 H269.18678361786937" stroke="#34d399" stroke-width="1.3" fill="none" opacity="0.85"/><path d="M185.95991818707603 2484.5 H234.81696562061137" stroke="#34d399" stroke-width="1.3" fill="none" opacity="0.85"/><path d="M185.95991818707603 2177.53125 V2484.5" stroke="#34d399" stroke-width="1.3" fill="none" opacity="0.85"/><path d="M156.27614531643536 1576.18359375 H206.9152726507209" stroke="#34d399" stroke-width="1.3" fill="none" opacity="0.85"/><path d="M156.27614531643536 2331.015625 H185.95991818707603" stroke="#34d399" stroke-width="1.3" fill="none" opacity="0.85"/><path d="M156.27614531643536 1576.18359375 V2331.015625" stroke="#34d399" stroke-width="1.3" fill="none" opacity="0.85"/><path d="M146.62868598598902 571.31640625 H198.76491935033948" stroke="#34d399" stroke-width="1.3" fill="none" opacity="0.85"/><path d="M146.62868598598902 1953.599609375 H156.27614531643536" stroke="#34d399" stroke-width="1.3" fill="none" opacity="0.85"/><path d="M146.62868598598902 571.31640625 V1953.599609375" stroke="#34d399" stroke-width="1.3" fill="none" opacity="0.85"/><path d="M98.651955460448 114 H298.58904615556673" stroke="#34d399" stroke-width="1.3" fill="none" opacity="0.85"/><path d="M98.651955460448 1262.4580078125 H146.62868598598902" stroke="#34d399" stroke-width="1.3" fill="none" opacity="0.85"/><path d="M98.651955460448 114 V1262.4580078125" stroke="#34d399" stroke-width="1.3" fill="none" opacity="0.85"/><path d="M30 81 H590" stroke="#f59e0b" stroke-width="1.3" fill="none" opacity="0.85"/><path d="M30 688.22900390625 H98.651955460448" stroke="#f59e0b" stroke-width="1.3" fill="none" opacity="0.85"/><path d="M30 81 V688.22900390625" stroke="#f59e0b" stroke-width="1.3" fill="none" opacity="0.85"/>
</svg>