<svg xmlns="http://www.w3.org/2000/svg" viewBox="0 0 760 600" font-family="ui-sans-serif,system-ui,Segoe UI,Roboto,sans-serif" role="img" aria-label="PCA projection">
<rect width="760" height="600" rx="14" fill="#0b1220"/>
<text x="28" y="30" fill="#cbd5e1" font-size="18" font-weight="700">PCA of 113 A-Life systems (9-axis correlation-matrix eigenbasis)</text><text x="28" y="50" fill="#7c8aa5" font-size="12">PC1 25.2% var · PC2 21.7% var · together 46.9%. amber = this repo.</text><line x1="171.33960228148607" y1="70" x2="171.33960228148607" y2="540" stroke="#27344d" stroke-width="0.8"/><line x1="60" y1="317.85895333233935" x2="730" y2="317.85895333233935" stroke="#27344d" stroke-width="0.8"/><text x="730" y="544" fill="#7c8aa5" font-size="11" text-anchor="end">PC1 (generalist breadth →)</text><text x="54" y="62" fill="#7c8aa5" font-size="11">PC2</text><circle cx="730" cy="163.97196958401668" r="8" fill="#f59e0b"/><circle cx="730" cy="163.97196958401668" r="13" fill="none" stroke="#f59e0b" stroke-width="1.4" opacity="0.6"/><text x="718" y="151.97196958401668" fill="#f59e0b" font-size="11" font-weight="700" text-anchor="end">COSMOGONIC</text><circle cx="138.5987359334053" cy="310.5009691367228" r="4.5" fill="#38bdf8" opacity="0.85"/><text x="145.5987359334053" y="324.5009691367228" fill="#7c8aa5" font-size="9">Game of Life</text><circle cx="119.54293201788192" cy="226.33964514686147" r="4.5" fill="#38bdf8" opacity="0.85"/><text x="126.54293201788192" y="218.33964514686147" fill="#7c8aa5" font-size="9">Boids</text><circle cx="128.01217820255897" cy="249.18443417325182" r="4.5" fill="#38bdf8" opacity="0.85"/><text x="135.01217820255897" y="263.1844341732518" fill="#7c8aa5" font-size="9">Biomorphs</text><circle cx="120.93725913365192" cy="427.8783360667959" r="4.5" fill="#38bdf8" opacity="0.85"/><text x="127.93725913365192" y="419.8783360667959" fill="#7c8aa5" font-size="9">Core War</text><circle cx="128.8900878680438" cy="459.4826300879678" r="4.5" fill="#38bdf8" opacity="0.85"/><text x="135.8900878680438" y="473.4826300879678" fill="#7c8aa5" font-size="9">Tierra</text><circle cx="156.2085709881301" cy="464.808409124795" r="4.5" fill="#38bdf8" opacity="0.85"/><text x="163.2085709881301" y="456.808409124795" fill="#7c8aa5" font-size="9">Avida</text><circle cx="247.35625096346538" cy="362.9178470254957" r="4.5" fill="#38bdf8" opacity="0.85"/><text x="254.35625096346538" y="376.9178470254957" fill="#7c8aa5" font-size="9">Polyworld</text><circle cx="272.6607060274395" cy="339.0919934396899" r="4.5" fill="#38bdf8" opacity="0.85"/><text x="279.6607060274395" y="331.0919934396899" fill="#7c8aa5" font-size="9">Framsticks</text><circle cx="227.06104516725762" cy="265.0916952437751" r="4.5" fill="#38bdf8" opacity="0.85"/><text x="234.06104516725762" y="279.0916952437751" fill="#7c8aa5" font-size="9">Karl Sims VC</text><circle cx="373.00061661785105" cy="275.6731772774713" r="4.5" fill="#38bdf8" opacity="0.85"/><text x="380.00061661785105" y="267.6731772774713" fill="#7c8aa5" font-size="9">Creatures</text><circle cx="192.35779250809313" cy="297.18652154465485" r="4.5" fill="#38bdf8" opacity="0.85"/><text x="199.35779250809313" y="311.18652154465485" fill="#7c8aa5" font-size="9">Darwin Pond</text><circle cx="210.4324032680746" cy="300.62024750260923" r="4.5" fill="#38bdf8" opacity="0.85"/><text x="217.4324032680746" y="292.62024750260923" fill="#7c8aa5" font-size="9">Gene Pool</text><circle cx="162.92199784183754" cy="417.43700611301625" r="4.5" fill="#38bdf8" opacity="0.85"/><text x="169.92199784183754" y="431.43700611301625" fill="#7c8aa5" font-size="9">Sugarscape</text><circle cx="146.6548481578542" cy="434.6056359027881" r="4.5" fill="#38bdf8" opacity="0.85"/><text x="153.6548481578542" y="426.6056359027881" fill="#7c8aa5" font-size="9">Echo</text><circle cx="153.3682750115616" cy="390.457730729089" r="4.5" fill="#38bdf8" opacity="0.85"/><text x="160.3682750115616" y="404.457730729089" fill="#7c8aa5" font-size="9">Swarm</text><circle cx="208.1601664868198" cy="274.3417325182645" r="4.5" fill="#38bdf8" opacity="0.85"/><text x="215.1601664868198" y="266.3417325182645" fill="#7c8aa5" font-size="9">breve</text><circle cx="222.82642207491907" cy="311.8324138959297" r="4.5" fill="#38bdf8" opacity="0.85"/><text x="229.82642207491907" y="325.8324138959297" fill="#7c8aa5" font-size="9">Picbreeder</text><circle cx="197.2637582858024" cy="465.71939764425224" r="4.5" fill="#38bdf8" opacity="0.85"/><text x="204.2637582858024" y="457.71939764425224" fill="#7c8aa5" font-size="9">MABE</text><circle cx="162.04408817635272" cy="183.03265245266147" r="4.5" fill="#38bdf8" opacity="0.85"/><text x="169.04408817635272" y="197.03265245266147" fill="#7c8aa5" font-size="9">Lenia</text><circle cx="205.01002004008018" cy="217.43998807216343" r="4.5" fill="#38bdf8" opacity="0.85"/><text x="212.01002004008018" y="209.43998807216343" fill="#7c8aa5" font-size="9">Growing NCA</text><circle cx="390.5588099275474" cy="154.30147606977783" r="4.5" fill="#38bdf8" opacity="0.85"/><text x="397.5588099275474" y="168.30147606977783" fill="#7c8aa5" font-size="9">OpenWorm</text><circle cx="194.88823801449053" cy="442.73445653794545" r="4.5" fill="#38bdf8" opacity="0.85"/><text x="201.88823801449053" y="434.73445653794545" fill="#7c8aa5" font-size="9">POET</text><circle cx="205.3715122552798" cy="318.06918145221414" r="4.5" fill="#38bdf8" opacity="0.85"/><text x="212.3715122552798" y="332.06918145221414" fill="#7c8aa5" font-size="9">EvoGym</text><circle cx="410.8540157237552" cy="232.0858804234382" r="4.5" fill="#38bdf8" opacity="0.85"/><text x="417.8540157237552" y="224.0858804234382" fill="#7c8aa5" font-size="9">ALIEN</text><circle cx="274.7780175736088" cy="325.9176979275384" r="4.5" fill="#38bdf8" opacity="0.85"/><text x="281.7780175736088" y="339.9176979275384" fill="#7c8aa5" font-size="9">ASAL</text><circle cx="60" cy="235.86998658118387" r="4.5" fill="#38bdf8" opacity="0.85"/><text x="67" y="227.86998658118387" fill="#7c8aa5" font-size="9">Wireworld</text><circle cx="60" cy="235.86998658118387" r="4.5" fill="#38bdf8" opacity="0.85"/><text x="67" y="249.86998658118387" fill="#7c8aa5" font-size="9">Langton's Ant</text><circle cx="92.2244488977956" cy="267.89473684210526" r="4.5" fill="#38bdf8" opacity="0.85"/><text x="99.2244488977956" y="259.89473684210526" fill="#7c8aa5" font-size="9">Langton's Loops</text><circle cx="79.93371358100818" cy="294.9440882659908" r="4.5" fill="#38bdf8" opacity="0.85"/><text x="86.93371358100818" y="308.9440882659908" fill="#7c8aa5" font-size="9">von Neumann Universal Constructor</text><circle cx="60" cy="235.86998658118387" r="4.5" fill="#38bdf8" opacity="0.85"/><text x="67" y="227.86998658118387" fill="#7c8aa5" font-size="9">Rule 110</text><circle cx="125.17188222599044" cy="178.05725361562543" r="4.5" fill="#38bdf8" opacity="0.85"/><text x="132.17188222599043" y="192.05725361562543" fill="#7c8aa5" font-size="9">SmoothLife</text><circle cx="125.17188222599044" cy="178.05725361562543" r="4.5" fill="#38bdf8" opacity="0.85"/><text x="132.17188222599043" y="170.05725361562543" fill="#7c8aa5" font-size="9">Larger than Life</text><circle cx="195.0948049946046" cy="246.3113165349635" r="4.5" fill="#38bdf8" opacity="0.85"/><text x="202.0948049946046" y="260.3113165349635" fill="#7c8aa5" font-size="9">Flow Lenia</text><circle cx="155.38230306767383" cy="200.27135828239153" r="4.5" fill="#38bdf8" opacity="0.85"/><text x="162.38230306767383" y="192.27135828239153" fill="#7c8aa5" font-size="9">Particle Lenia</text><circle cx="151.1993217203638" cy="240.42492917847022" r="4.5" fill="#38bdf8" opacity="0.85"/><text x="158.1993217203638" y="254.42492917847022" fill="#7c8aa5" font-size="9">Primordial Particle Systems</text><circle cx="125.2751657160475" cy="177.91710153570898" r="4.5" fill="#38bdf8" opacity="0.85"/><text x="132.2751657160475" y="169.91710153570898" fill="#7c8aa5" font-size="9">Gray-Scott Reaction-Diffusion</text><circle cx="128.21874518267305" cy="416.10556135380943" r="4.5" fill="#38bdf8" opacity="0.85"/><text x="135.21874518267305" y="430.10556135380943" fill="#7c8aa5" font-size="9">Aevol</text><circle cx="152.8518575612764" cy="417.99761443268227" r="4.5" fill="#38bdf8" opacity="0.85"/><text x="159.8518575612764" y="409.99761443268227" fill="#7c8aa5" font-size="9">Avida-ED</text><circle cx="113.3975643594882" cy="371.39704786044433" r="4.5" fill="#38bdf8" opacity="0.85"/><text x="120.3975643594882" y="385.39704786044433" fill="#7c8aa5" font-size="9">Nanopond</text><circle cx="104.92831817481117" cy="352.4765170717161" r="4.5" fill="#38bdf8" opacity="0.85"/><text x="111.92831817481117" y="344.4765170717161" fill="#7c8aa5" font-size="9">Physis</text><circle cx="117.47726221674118" cy="381.2076934545997" r="4.5" fill="#38bdf8" opacity="0.85"/><text x="124.47726221674118" y="395.2076934545997" fill="#7c8aa5" font-size="9">Cosmos</text><circle cx="206.7658393710498" cy="508.39570597882806" r="4.5" fill="#38bdf8" opacity="0.85"/><text x="213.7658393710498" y="500.39570597882806" fill="#7c8aa5" font-size="9">Geb</text><circle cx="117.47726221674118" cy="381.2076934545997" r="4.5" fill="#38bdf8" opacity="0.85"/><text x="124.47726221674118" y="395.2076934545997" fill="#7c8aa5" font-size="9">Amoeba</text><circle cx="173.76676429782643" cy="346.16967347547336" r="4.5" fill="#38bdf8" opacity="0.85"/><text x="180.76676429782643" y="338.16967347547336" fill="#7c8aa5" font-size="9">Evolve 4.0</text><circle cx="144.02111916139972" cy="282.1201729536306" r="4.5" fill="#38bdf8" opacity="0.85"/><text x="151.02111916139972" y="296.1201729536306" fill="#7c8aa5" font-size="9">Squirm3</text><circle cx="125.99815014644675" cy="400.12822424332785" r="4.5" fill="#38bdf8" opacity="0.85"/><text x="132.99815014644673" y="392.12822424332785" fill="#7c8aa5" font-size="9">Network Tierra</text><circle cx="186.00585786958533" cy="361.6564783062472" r="4.5" fill="#38bdf8" opacity="0.85"/><text x="193.00585786958533" y="375.6564783062472" fill="#7c8aa5" font-size="9">biosim4</text><circle cx="181.61630954216122" cy="278.7565230356345" r="4.5" fill="#38bdf8" opacity="0.85"/><text x="188.61630954216122" y="270.7565230356345" fill="#7c8aa5" font-size="9">GOLEM (Genetically Organized Lifelike Electro Mechanics)</text><circle cx="142.36858332048712" cy="203.2846280005964" r="4.5" fill="#38bdf8" opacity="0.85"/><text x="149.36858332048712" y="217.2846280005964" fill="#7c8aa5" font-size="9">Voxelyze / VoxCAD</text><circle cx="205.83628796053645" cy="267.54435664231397" r="4.5" fill="#38bdf8" opacity="0.85"/><text x="212.83628796053645" y="259.54435664231397" fill="#7c8aa5" font-size="9">3D Virtual Creature Evolution (3DVCE)</text><circle cx="239.6099892091876" cy="378.8251080960191" r="4.5" fill="#38bdf8" opacity="0.85"/><text x="246.6099892091876" y="392.8251080960191" fill="#7c8aa5" font-size="9">DERL (Deep Evolutionary Reinforcement Learning)</text><circle cx="234.60073994142132" cy="364.0390636648278" r="4.5" fill="#38bdf8" opacity="0.85"/><text x="241.60073994142132" y="356.0390636648278" fill="#7c8aa5" font-size="9">UNIMAL (Universal Animal design space)</text><circle cx="190.60197317712348" cy="260.88713284628005" r="4.5" fill="#38bdf8" opacity="0.85"/><text x="197.60197317712348" y="274.88713284628005" fill="#7c8aa5" font-size="9">Evolving Soft Robots (Cheney / Unshackling Evolution)</text><circle cx="205.26822876522277" cy="318.2093335321306" r="4.5" fill="#38bdf8" opacity="0.85"/><text x="212.26822876522277" y="310.2093335321306" fill="#7c8aa5" font-size="9">RoboGrammar</text><circle cx="206.71419762602127" cy="383.73043089309675" r="4.5" fill="#38bdf8" opacity="0.85"/><text x="213.71419762602127" y="397.73043089309675" fill="#7c8aa5" font-size="9">Transform2Act</text><circle cx="163.6449822722368" cy="303.2831370210228" r="4.5" fill="#38bdf8" opacity="0.85"/><text x="170.6449822722368" y="295.2831370210228" fill="#7c8aa5" font-size="9">NerveNet</text><circle cx="208.26344997687684" cy="351.77575667213364" r="4.5" fill="#38bdf8" opacity="0.85"/><text x="215.26344997687684" y="365.77575667213364" fill="#7c8aa5" font-size="9">Neural Graph Evolution (NGE)</text><circle cx="165.8655773084631" cy="271.4686148799762" r="4.5" fill="#38bdf8" opacity="0.85"/><text x="172.8655773084631" y="263.4686148799762" fill="#7c8aa5" font-size="9">Krcah Evolved Virtual Creatures (ERO)</text><circle cx="174.69631570833974" cy="492.41836886834653" r="4.5" fill="#38bdf8" opacity="0.85"/><text x="181.69631570833974" y="506.41836886834653" fill="#7c8aa5" font-size="9">NEAT (NeuroEvolution of Augmenting Topologies)</text><circle cx="193.49391089872051" cy="448.2704636946474" r="4.5" fill="#38bdf8" opacity="0.85"/><text x="200.49391089872051" y="440.2704636946474" fill="#7c8aa5" font-size="9">HyperNEAT</text><circle cx="184.40496377370127" cy="423.743849709259" r="4.5" fill="#38bdf8" opacity="0.85"/><text x="191.40496377370127" y="437.743849709259" fill="#7c8aa5" font-size="9">ES-HyperNEAT</text><circle cx="185.5927239093572" cy="498.3047562248397" r="4.5" fill="#38bdf8" opacity="0.85"/><text x="192.5927239093572" y="490.3047562248397" fill="#7c8aa5" font-size="9">Novelty Search</text><circle cx="204.493602589795" cy="454.0166989712241" r="4.5" fill="#38bdf8" opacity="0.85"/><text x="211.493602589795" y="468.0166989712241" fill="#7c8aa5" font-size="9">MAP-Elites</text><circle cx="204.493602589795" cy="454.0166989712241" r="4.5" fill="#38bdf8" opacity="0.85"/><text x="211.493602589795" y="446.0166989712241" fill="#7c8aa5" font-size="9">Quality-Diversity (illumination algorithms)</text><circle cx="182.13272699244644" cy="358.1526763083346" r="4.5" fill="#38bdf8" opacity="0.85"/><text x="189.13272699244644" y="372.1526763083346" fill="#7c8aa5" font-size="9">Go-Explore</text><circle cx="194.88823801449053" cy="442.73445653794545" r="4.5" fill="#38bdf8" opacity="0.85"/><text x="201.88823801449053" y="434.73445653794545" fill="#7c8aa5" font-size="9">OMNI (Open-endedness via Models of human Notions of Interestingness)</text><circle cx="192.15122552797902" cy="451.0735052929775" r="4.5" fill="#38bdf8" opacity="0.85"/><text x="199.15122552797902" y="465.0735052929775" fill="#7c8aa5" font-size="9">Minimal Criterion Coevolution (MCC)</text><circle cx="183.52705410821645" cy="368.804234381989" r="4.5" fill="#38bdf8" opacity="0.85"/><text x="190.52705410821645" y="360.804234381989" fill="#7c8aa5" font-size="9">Innovation Engines</text><circle cx="173.76676429782643" cy="291.3001341881616" r="4.5" fill="#38bdf8" opacity="0.85"/><text x="180.76676429782643" y="305.3001341881616" fill="#7c8aa5" font-size="9">EndlessForms</text><circle cx="137.10112532757825" cy="312.3229461756374" r="4.5" fill="#38bdf8" opacity="0.85"/><text x="144.10112532757825" y="304.3229461756374" fill="#7c8aa5" font-size="9">NetLogo</text><circle cx="159.35871743486973" cy="314.8456836141345" r="4.5" fill="#38bdf8" opacity="0.85"/><text x="166.35871743486973" y="328.8456836141345" fill="#7c8aa5" font-size="9">MASON</text><circle cx="149.2369354092801" cy="327.8798270463694" r="4.5" fill="#38bdf8" opacity="0.85"/><text x="156.2369354092801" y="319.8798270463694" fill="#7c8aa5" font-size="9">Repast</text><circle cx="106.73577925080933" cy="290.2489935887878" r="4.5" fill="#38bdf8" opacity="0.85"/><text x="113.73577925080933" y="304.2489935887878" fill="#7c8aa5" font-size="9">StarLogo</text><circle cx="119.28472329273933" cy="318.91009393171316" r="4.5" fill="#38bdf8" opacity="0.85"/><text x="126.28472329273933" y="310.91009393171316" fill="#7c8aa5" font-size="9">Ascape</text><circle cx="168.03453059966085" cy="283.73192187267034" r="4.5" fill="#38bdf8" opacity="0.85"/><text x="175.03453059966085" y="297.73192187267034" fill="#7c8aa5" font-size="9">GAMA Platform</text><circle cx="137.10112532757825" cy="312.3229461756374" r="4.5" fill="#38bdf8" opacity="0.85"/><text x="144.10112532757825" y="304.3229461756374" fill="#7c8aa5" font-size="9">Mesa</text><circle cx="118.09696315708341" cy="189.54972416877894" r="4.5" fill="#38bdf8" opacity="0.85"/><text x="125.09696315708341" y="203.54972416877894" fill="#7c8aa5" font-size="9">OpenSteer</text><circle cx="99.7125019269308" cy="289.2679290293723" r="4.5" fill="#38bdf8" opacity="0.85"/><text x="106.7125019269308" y="281.2679290293723" fill="#7c8aa5" font-size="9">Artificial Anasazi</text><circle cx="80.60505626637892" cy="235.30937826151785" r="4.5" fill="#38bdf8" opacity="0.85"/><text x="87.60505626637892" y="249.30937826151785" fill="#7c8aa5" font-size="9">Schelling Segregation Model</text><circle cx="107.2521967010945" cy="350.79469211271805" r="4.5" fill="#38bdf8" opacity="0.85"/><text x="114.2521967010945" y="342.79469211271805" fill="#7c8aa5" font-size="9">El Farol Bar Problem</text><circle cx="150.47633728996453" cy="129.1441777247652" r="4.5" fill="#38bdf8" opacity="0.85"/><text x="157.47633728996453" y="143.1441777247652" fill="#7c8aa5" font-size="9">Spore</text><circle cx="120.11099121319563" cy="324.0256448486656" r="4.5" fill="#38bdf8" opacity="0.85"/><text x="127.11099121319563" y="316.0256448486656" fill="#7c8aa5" font-size="9">SimLife: The Genetic Playground</text><circle cx="94.49668567905042" cy="274.76218875801396" r="4.5" fill="#38bdf8" opacity="0.85"/><text x="101.49668567905042" y="288.76218875801396" fill="#7c8aa5" font-size="9">SimEarth: The Living Planet</text><circle cx="101.10682904270078" cy="269.9269420008946" r="4.5" fill="#38bdf8" opacity="0.85"/><text x="108.10682904270078" y="261.9269420008946" fill="#7c8aa5" font-size="9">SimAnt: The Electric Ant Colony</text><circle cx="158.22259904424234" cy="241.40599373788575" r="4.5" fill="#38bdf8" opacity="0.85"/><text x="165.22259904424234" y="255.40599373788575" fill="#7c8aa5" font-size="9">Thrive</text><circle cx="157.18976414367197" cy="217.58014015207988" r="4.5" fill="#38bdf8" opacity="0.85"/><text x="164.18976414367197" y="209.58014015207988" fill="#7c8aa5" font-size="9">Cell Lab: Evolution Sandbox</text><circle cx="192.97749344843535" cy="315.1259877739675" r="4.5" fill="#38bdf8" opacity="0.85"/><text x="199.97749344843535" y="329.1259877739675" fill="#7c8aa5" font-size="9">Species: Artificial Life, Real Evolution</text><circle cx="198.50316016648682" cy="390.457730729089" r="4.5" fill="#38bdf8" opacity="0.85"/><text x="205.50316016648682" y="382.457730729089" fill="#7c8aa5" font-size="9">The Bibites</text><circle cx="98.98951749653153" cy="165.5837185030565" r="4.5" fill="#38bdf8" opacity="0.85"/><text x="105.98951749653153" y="179.5837185030565" fill="#7c8aa5" font-size="9">The Powder Toy</text><circle cx="120.88561738862342" cy="70" r="4.5" fill="#38bdf8" opacity="0.85"/><text x="127.88561738862342" y="62" fill="#7c8aa5" font-size="9">Noita</text><circle cx="127.18591028210267" cy="312.46309825555386" r="4.5" fill="#38bdf8" opacity="0.85"/><text x="134.18591028210267" y="326.46309825555386" fill="#7c8aa5" font-size="9">The Life Engine</text><circle cx="113.13935563434562" cy="124.8695392873118" r="4.5" fill="#38bdf8" opacity="0.85"/><text x="120.13935563434562" y="116.8695392873118" fill="#7c8aa5" font-size="9">Clusters (Particle Life)</text><circle cx="119.85278248805304" cy="107.56075741762339" r="4.5" fill="#38bdf8" opacity="0.85"/><text x="126.85278248805304" y="121.56075741762339" fill="#7c8aa5" font-size="9">Sandspiel</text><circle cx="162.71543086172346" cy="250.4458028925004" r="4.5" fill="#38bdf8" opacity="0.85"/><text x="169.71543086172346" y="242.4458028925004" fill="#7c8aa5" font-size="9">Sebastian Lague Ecosystem</text><circle cx="130.23277323878528" cy="162.64052482480992" r="4.5" fill="#38bdf8" opacity="0.85"/><text x="137.23277323878528" y="176.64052482480992" fill="#7c8aa5" font-size="9">Pezzza's Ant Colony Simulation</text><circle cx="149.18529366425156" cy="259.27538392724017" r="4.5" fill="#38bdf8" opacity="0.85"/><text x="156.18529366425156" y="251.27538392724017" fill="#7c8aa5" font-size="9">Primer Evolution Simulations</text><circle cx="196.85062432557424" cy="242.87759057700907" r="4.5" fill="#38bdf8" opacity="0.85"/><text x="203.85062432557424" y="256.8775905770091" fill="#7c8aa5" font-size="9">Keiwan Evolution</text><circle cx="215.85478649606907" cy="256.8227225287013" r="4.5" fill="#38bdf8" opacity="0.85"/><text x="222.85478649606907" y="248.82272252870132" fill="#7c8aa5" font-size="9">DevoWorm</text><circle cx="128.68352088792972" cy="224.5877441479052" r="4.5" fill="#38bdf8" opacity="0.85"/><text x="135.68352088792972" y="238.5877441479052" fill="#7c8aa5" font-size="9">Morphozoic</text><circle cx="174.69631570833974" cy="365.0201282242433" r="4.5" fill="#38bdf8" opacity="0.85"/><text x="181.69631570833974" y="357.0201282242433" fill="#7c8aa5" font-size="9">Chromaria</text><circle cx="203.04763372899646" cy="344.62800059639187" r="4.5" fill="#38bdf8" opacity="0.85"/><text x="210.04763372899646" y="358.62800059639187" fill="#7c8aa5" font-size="9">Division Blocks</text><circle cx="189.56913827655313" cy="372.23796033994336" r="4.5" fill="#38bdf8" opacity="0.85"/><text x="196.56913827655313" y="364.23796033994336" fill="#7c8aa5" font-size="9">Voyager (Minecraft LLM agent)</text><circle cx="168.447664559889" cy="344.41777247651703" r="4.5" fill="#38bdf8" opacity="0.85"/><text x="175.447664559889" y="358.41777247651703" fill="#7c8aa5" font-size="9">Generative Agents (Smallville)</text><circle cx="211.62016340373054" cy="412.4616072759803" r="4.5" fill="#38bdf8" opacity="0.85"/><text x="218.62016340373054" y="404.4616072759803" fill="#7c8aa5" font-size="9">OMNI-EPIC</text><circle cx="174.69631570833974" cy="259.13523184732367" r="4.5" fill="#38bdf8" opacity="0.85"/><text x="181.69631570833974" y="273.13523184732367" fill="#7c8aa5" font-size="9">Genie (Generative Interactive Environments)</text><circle cx="196.38584862031757" cy="391.92932756821233" r="4.5" fill="#38bdf8" opacity="0.85"/><text x="203.38584862031757" y="383.92932756821233" fill="#7c8aa5" font-size="9">Evolution through Large Models (ELM)</text><circle cx="171.59781100662863" cy="458.92202176830176" r="4.5" fill="#38bdf8" opacity="0.85"/><text x="178.59781100662863" y="472.92202176830176" fill="#7c8aa5" font-size="9">OpenELM</text><circle cx="163.54169878217976" cy="500.61726554346205" r="4.5" fill="#38bdf8" opacity="0.85"/><text x="170.54169878217976" y="492.61726554346205" fill="#7c8aa5" font-size="9">Automated Design of Agentic Systems (ADAS)</text><circle cx="162.2506551564668" cy="440.0014909795736" r="4.5" fill="#38bdf8" opacity="0.85"/><text x="169.2506551564668" y="454.0014909795736" fill="#7c8aa5" font-size="9">The AI Scientist</text><circle cx="177.53661168490828" cy="540" r="4.5" fill="#38bdf8" opacity="0.85"/><text x="184.53661168490828" y="532" fill="#7c8aa5" font-size="9">Darwin Godel Machine (DGM)</text><circle cx="120.88561738862342" cy="407.0657521991949" r="4.5" fill="#38bdf8" opacity="0.85"/><text x="127.88561738862342" y="421.0657521991949" fill="#7c8aa5" font-size="9">Promptbreeder</text><circle cx="129.87128102358565" cy="431.66244222454156" r="4.5" fill="#38bdf8" opacity="0.85"/><text x="136.87128102358565" y="423.66244222454156" fill="#7c8aa5" font-size="9">Quality-Diversity through AI Feedback (QDAIF)</text>
</svg>