<svg xmlns="http://www.w3.org/2000/svg" viewBox="0 0 760 600" font-family="ui-sans-serif,system-ui,Segoe UI,Roboto,sans-serif" role="img" aria-label="PCA projection">
<rect width="760" height="600" rx="14" fill="#0b1220"/>
<text x="28" y="30" fill="#cbd5e1" font-size="18" font-weight="700">PCA of 129 A-Life systems (9-axis correlation-matrix eigenbasis)</text><text x="28" y="50" fill="#7c8aa5" font-size="12">PC1 21.3% var · PC2 19.6% var · together 40.8%. amber = this repo.</text><line x1="364.26838514025775" y1="70" x2="364.26838514025775" y2="540" stroke="#27344d" stroke-width="0.8"/><line x1="60" y1="395.67968959058067" x2="730" y2="395.67968959058067" stroke="#27344d" stroke-width="0.8"/><text x="730" y="544" fill="#7c8aa5" font-size="11" text-anchor="end">PC1 (generalist breadth →)</text><text x="54" y="62" fill="#7c8aa5" font-size="11">PC2</text><circle cx="730" cy="70" r="8" fill="#f59e0b"/><circle cx="730" cy="70" r="13" fill="none" stroke="#f59e0b" stroke-width="1.4" opacity="0.6"/><text x="718" y="58" fill="#f59e0b" font-size="11" font-weight="700" text-anchor="end">COSMOGONIC</text><circle cx="317.23123578468534" cy="412.21835697083225" r="4.5" fill="#38bdf8" opacity="0.85"/><text x="324.23123578468534" y="426.21835697083225" fill="#7c8aa5" font-size="9">Game of Life</text><circle cx="221.5314632297195" cy="393.41584158415844" r="4.5" fill="#38bdf8" opacity="0.85"/><text x="228.5314632297195" y="385.41584158415844" fill="#7c8aa5" font-size="9">Boids</text><circle cx="231.79226686884002" cy="381.5935242172866" r="4.5" fill="#38bdf8" opacity="0.85"/><text x="238.79226686884002" y="395.5935242172866" fill="#7c8aa5" font-size="9">Biomorphs</text><circle cx="400.63836239575437" cy="529.1838373026492" r="4.5" fill="#38bdf8" opacity="0.85"/><text x="407.63836239575437" y="521.1838373026492" fill="#7c8aa5" font-size="9">Core War</text><circle cx="450.9264594389689" cy="538.4278833288735" r="4.5" fill="#38bdf8" opacity="0.85"/><text x="457.9264594389689" y="552.4278833288735" fill="#7c8aa5" font-size="9">Tierra</text><circle cx="512.3896891584534" cy="510.44420658282047" r="4.5" fill="#38bdf8" opacity="0.85"/><text x="519.3896891584534" y="502.44420658282047" fill="#7c8aa5" font-size="9">Avida</text><circle cx="558.8172858225928" cy="347.82445812148785" r="4.5" fill="#38bdf8" opacity="0.85"/><text x="565.8172858225928" y="361.82445812148785" fill="#7c8aa5" font-size="9">Polyworld</text><circle cx="570.3987869598179" cy="283.933636606904" r="4.5" fill="#38bdf8" opacity="0.85"/><text x="577.3987869598179" y="275.933636606904" fill="#7c8aa5" font-size="9">Framsticks</text><circle cx="432.6398786959818" cy="270.5392025689056" r="4.5" fill="#38bdf8" opacity="0.85"/><text x="439.6398786959818" y="284.5392025689056" fill="#7c8aa5" font-size="9">Karl Sims VC</text><circle cx="568.3669446550416" cy="248.7811078405138" r="4.5" fill="#38bdf8" opacity="0.85"/><text x="575.3669446550416" y="240.7811078405138" fill="#7c8aa5" font-size="9">Creatures</text><circle cx="415.97877179681575" cy="338.8948354294889" r="4.5" fill="#38bdf8" opacity="0.85"/><text x="422.97877179681575" y="352.8948354294889" fill="#7c8aa5" font-size="9">Darwin Pond</text><circle cx="455.5996967399545" cy="319.2119347069842" r="4.5" fill="#38bdf8" opacity="0.85"/><text x="462.5996967399545" y="311.2119347069842" fill="#7c8aa5" font-size="9">Gene Pool</text><circle cx="475.91811978771796" cy="473.5937918116136" r="4.5" fill="#38bdf8" opacity="0.85"/><text x="482.91811978771796" y="487.5937918116136" fill="#7c8aa5" font-size="9">Sugarscape</text><circle cx="452.65352539802876" cy="504.0928552314691" r="4.5" fill="#38bdf8" opacity="0.85"/><text x="459.65352539802876" y="496.0928552314691" fill="#7c8aa5" font-size="9">Echo</text><circle cx="434.0621683093252" cy="467.3053251271073" r="4.5" fill="#38bdf8" opacity="0.85"/><text x="441.0621683093252" y="481.3053251271073" fill="#7c8aa5" font-size="9">Swarm</text><circle cx="419.0265352539803" cy="306.38346267059137" r="4.5" fill="#38bdf8" opacity="0.85"/><text x="426.0265352539803" y="298.38346267059137" fill="#7c8aa5" font-size="9">breve</text><circle cx="484.756633813495" cy="304.5598073320846" r="4.5" fill="#38bdf8" opacity="0.85"/><text x="491.756633813495" y="318.5598073320846" fill="#7c8aa5" font-size="9">Picbreeder</text><circle cx="570.0940106141015" cy="454.1624297564892" r="4.5" fill="#38bdf8" opacity="0.85"/><text x="577.0940106141015" y="446.1624297564892" fill="#7c8aa5" font-size="9">MABE</text><circle cx="249.8756633813495" cy="289.7190259566497" r="4.5" fill="#38bdf8" opacity="0.85"/><text x="256.8756633813495" y="303.7190259566497" fill="#7c8aa5" font-size="9">Lenia</text><circle cx="323.42835481425317" cy="281.4811345999465" r="4.5" fill="#38bdf8" opacity="0.85"/><text x="330.42835481425317" y="273.4811345999465" fill="#7c8aa5" font-size="9">Growing NCA</text><circle cx="409.4768764215314" cy="174.26277762911428" r="4.5" fill="#38bdf8" opacity="0.85"/><text x="416.4768764215314" y="188.26277762911428" fill="#7c8aa5" font-size="9">OpenWorm</text><circle cx="542.8673237300985" cy="435.7372223708858" r="4.5" fill="#38bdf8" opacity="0.85"/><text x="549.8673237300985" y="427.7372223708858" fill="#7c8aa5" font-size="9">POET</text><circle cx="427.0523123578468" cy="330.84559807332084" r="4.5" fill="#38bdf8" opacity="0.85"/><text x="434.0523123578468" y="344.84559807332084" fill="#7c8aa5" font-size="9">EvoGym</text><circle cx="614.286580742987" cy="147.91410222103298" r="4.5" fill="#38bdf8" opacity="0.85"/><text x="621.286580742987" y="139.91410222103298" fill="#7c8aa5" font-size="9">ALIEN</text><circle cx="548.3532979529946" cy="287.51806261707253" r="4.5" fill="#38bdf8" opacity="0.85"/><text x="555.3532979529946" y="301.51806261707253" fill="#7c8aa5" font-size="9">ASAL</text><circle cx="95.65883244882485" cy="465.7960931228258" r="4.5" fill="#38bdf8" opacity="0.85"/><text x="102.65883244882485" y="457.7960931228258" fill="#7c8aa5" font-size="9">Wireworld</text><circle cx="95.65883244882485" cy="465.7960931228258" r="4.5" fill="#38bdf8" opacity="0.85"/><text x="102.65883244882485" y="479.7960931228258" fill="#7c8aa5" font-size="9">Langton's Ant</text><circle cx="189.63153904473086" cy="451.7728124163768" r="4.5" fill="#38bdf8" opacity="0.85"/><text x="196.63153904473086" y="443.7728124163768" fill="#7c8aa5" font-size="9">Langton's Loops</text><circle cx="188.8188021228203" cy="481.51725983409153" r="4.5" fill="#38bdf8" opacity="0.85"/><text x="195.8188021228203" y="495.51725983409153" fill="#7c8aa5" font-size="9">von Neumann Universal Constructor</text><circle cx="95.65883244882485" cy="465.7960931228258" r="4.5" fill="#38bdf8" opacity="0.85"/><text x="102.65883244882485" y="457.7960931228258" fill="#7c8aa5" font-size="9">Rule 110</text><circle cx="171.34495830174376" cy="338.45464276157344" r="4.5" fill="#38bdf8" opacity="0.85"/><text x="178.34495830174376" y="352.45464276157344" fill="#7c8aa5" font-size="9">SmoothLife</text><circle cx="171.34495830174376" cy="338.45464276157344" r="4.5" fill="#38bdf8" opacity="0.85"/><text x="178.34495830174376" y="330.45464276157344" fill="#7c8aa5" font-size="9">Larger than Life</text><circle cx="379.50720242608037" cy="298.0826866470431" r="4.5" fill="#38bdf8" opacity="0.85"/><text x="386.50720242608037" y="312.0826866470431" fill="#7c8aa5" font-size="9">Flow Lenia</text><circle cx="260.9492039423806" cy="315.62750869681565" r="4.5" fill="#38bdf8" opacity="0.85"/><text x="267.9492039423806" y="307.62750869681565" fill="#7c8aa5" font-size="9">Particle Lenia</text><circle cx="285.9408642911296" cy="355.1819641423602" r="4.5" fill="#38bdf8" opacity="0.85"/><text x="292.9408642911296" y="369.1819641423602" fill="#7c8aa5" font-size="9">Primordial Particle Systems</text><circle cx="166.4685367702805" cy="339.39791276424944" r="4.5" fill="#38bdf8" opacity="0.85"/><text x="173.4685367702805" y="331.39791276424944" fill="#7c8aa5" font-size="9">Gray-Scott Reaction-Diffusion</text><circle cx="399.9272175890826" cy="507.1113192400321" r="4.5" fill="#38bdf8" opacity="0.85"/><text x="406.9272175890826" y="521.1113192400321" fill="#7c8aa5" font-size="9">Aevol</text><circle cx="465.55572403335856" cy="481.95745250200696" r="4.5" fill="#38bdf8" opacity="0.85"/><text x="472.55572403335856" y="473.95745250200696" fill="#7c8aa5" font-size="9">Avida-ED</text><circle cx="341.20697498104624" cy="499.56515921862456" r="4.5" fill="#38bdf8" opacity="0.85"/><text x="348.20697498104624" y="513.5651592186246" fill="#7c8aa5" font-size="9">Nanopond</text><circle cx="303.71948445792265" cy="493.4024618678084" r="4.5" fill="#38bdf8" opacity="0.85"/><text x="310.71948445792265" y="485.4024618678084" fill="#7c8aa5" font-size="9">Physis</text><circle cx="358.6808188021228" cy="499.7538132191598" r="4.5" fill="#38bdf8" opacity="0.85"/><text x="365.6808188021228" y="513.7538132191598" fill="#7c8aa5" font-size="9">Cosmos</text><circle cx="635.7225170583774" cy="476.1091784854161" r="4.5" fill="#38bdf8" opacity="0.85"/><text x="642.7225170583774" y="468.1091784854161" fill="#7c8aa5" font-size="9">Geb</text><circle cx="358.6808188021228" cy="499.7538132191598" r="4.5" fill="#38bdf8" opacity="0.85"/><text x="365.6808188021228" y="513.7538132191598" fill="#7c8aa5" font-size="9">Amoeba</text><circle cx="414.8612585291888" cy="405.23815895103024" r="4.5" fill="#38bdf8" opacity="0.85"/><text x="421.8612585291888" y="397.23815895103024" fill="#7c8aa5" font-size="9">Evolve 4.0</text><circle cx="302.2971948445792" cy="390.020069574525" r="4.5" fill="#38bdf8" opacity="0.85"/><text x="309.2971948445792" y="404.020069574525" fill="#7c8aa5" font-size="9">Squirm3</text><circle cx="396.2699014404852" cy="505.9165105699759" r="4.5" fill="#38bdf8" opacity="0.85"/><text x="403.2699014404852" y="497.9165105699759" fill="#7c8aa5" font-size="9">Network Tierra</text><circle cx="442.1895375284306" cy="402.84854161091783" r="4.5" fill="#38bdf8" opacity="0.85"/><text x="449.1895375284306" y="416.84854161091783" fill="#7c8aa5" font-size="9">biosim4</text><circle cx="344.4579226686884" cy="331.6630987423067" r="4.5" fill="#38bdf8" opacity="0.85"/><text x="351.4579226686884" y="323.6630987423067" fill="#7c8aa5" font-size="9">GOLEM (Genetically Organized Lifelike Electro Mechanics)</text><circle cx="209.03563305534496" cy="326.63232539470164" r="4.5" fill="#38bdf8" opacity="0.85"/><text x="216.03563305534496" y="340.63232539470164" fill="#7c8aa5" font-size="9">Voxelyze / VoxCAD</text><circle cx="387.32979529946925" cy="296.82499331014185" r="4.5" fill="#38bdf8" opacity="0.85"/><text x="394.32979529946925" y="288.82499331014185" fill="#7c8aa5" font-size="9">3D Virtual Creature Evolution (3DVCE)</text><circle cx="540.5307050796057" cy="331.72598340915175" r="4.5" fill="#38bdf8" opacity="0.85"/><text x="547.5307050796057" y="345.72598340915175" fill="#7c8aa5" font-size="9">DERL (Deep Evolutionary Reinforcement Learning)</text><circle cx="518.3836239575436" cy="327.5755953973776" r="4.5" fill="#38bdf8" opacity="0.85"/><text x="525.3836239575436" y="319.5755953973776" fill="#7c8aa5" font-size="9">UNIMAL (Universal Animal design space)</text><circle cx="362.43972706595906" cy="307.70404067433776" r="4.5" fill="#38bdf8" opacity="0.85"/><text x="369.43972706595906" y="321.70404067433776" fill="#7c8aa5" font-size="9">Evolving Soft Robots (Cheney / Unshackling Evolution)</text><circle cx="431.92873388931" cy="329.9023280706449" r="4.5" fill="#38bdf8" opacity="0.85"/><text x="438.92873388931" y="321.9023280706449" fill="#7c8aa5" font-size="9">RoboGrammar</text><circle cx="484.2486732373009" cy="379.7698688787798" r="4.5" fill="#38bdf8" opacity="0.85"/><text x="491.2486732373009" y="393.7698688787798" fill="#7c8aa5" font-size="9">Transform2Act</text><circle cx="324.85064442759665" cy="384.29756489162435" r="4.5" fill="#38bdf8" opacity="0.85"/><text x="331.85064442759665" y="376.29756489162435" fill="#7c8aa5" font-size="9">NerveNet</text><circle cx="464.33661865049277" cy="354.49023280706444" r="4.5" fill="#38bdf8" opacity="0.85"/><text x="471.33661865049277" y="368.49023280706444" fill="#7c8aa5" font-size="9">Neural Graph Evolution (NGE)</text><circle cx="316.1137225170583" cy="353.23253947016326" r="4.5" fill="#38bdf8" opacity="0.85"/><text x="323.1137225170583" y="345.23253947016326" fill="#7c8aa5" font-size="9">Krcah Evolved Virtual Creatures (ERO)</text><circle cx="532.2001516300227" cy="499.94246721969495" r="4.5" fill="#38bdf8" opacity="0.85"/><text x="539.2001516300227" y="513.9424672196949" fill="#7c8aa5" font-size="9">NEAT (NeuroEvolution of Augmenting Topologies)</text><circle cx="526.9173616376042" cy="443.4091517259834" r="4.5" fill="#38bdf8" opacity="0.85"/><text x="533.9173616376042" y="435.4091517259834" fill="#7c8aa5" font-size="9">HyperNEAT</text><circle cx="487.3980288097043" cy="439.07010971367407" r="4.5" fill="#38bdf8" opacity="0.85"/><text x="494.3980288097043" y="453.07010971367407" fill="#7c8aa5" font-size="9">ES-HyperNEAT</text><circle cx="571.1099317664898" cy="482.0832218356971" r="4.5" fill="#38bdf8" opacity="0.85"/><text x="578.1099317664898" y="474.0832218356971" fill="#7c8aa5" font-size="9">Novelty Search</text><circle cx="560.950720242608" cy="426.4302916778164" r="4.5" fill="#38bdf8" opacity="0.85"/><text x="567.950720242608" y="440.4302916778164" fill="#7c8aa5" font-size="9">MAP-Elites</text><circle cx="560.950720242608" cy="426.4302916778164" r="4.5" fill="#38bdf8" opacity="0.85"/><text x="567.950720242608" y="418.4302916778164" fill="#7c8aa5" font-size="9">Quality-Diversity (illumination algorithms)</text><circle cx="428.88097043214555" cy="394.1075729194541" r="4.5" fill="#38bdf8" opacity="0.85"/><text x="435.88097043214555" y="408.1075729194541" fill="#7c8aa5" font-size="9">Go-Explore</text><circle cx="542.8673237300985" cy="435.7372223708858" r="4.5" fill="#38bdf8" opacity="0.85"/><text x="549.8673237300985" y="427.7372223708858" fill="#7c8aa5" font-size="9">OMNI (Open-endedness via Models of human Notions of Interestingness)</text><circle cx="552.8233510235026" cy="449.13165640888417" r="4.5" fill="#38bdf8" opacity="0.85"/><text x="559.8233510235026" y="463.13165640888417" fill="#7c8aa5" font-size="9">Minimal Criterion Coevolution (MCC)</text><circle cx="453.6694465504169" cy="400.1445009365802" r="4.5" fill="#38bdf8" opacity="0.85"/><text x="460.6694465504169" y="392.1445009365802" fill="#7c8aa5" font-size="9">Innovation Engines</text><circle cx="374.02122820318425" cy="356.5654268129516" r="4.5" fill="#38bdf8" opacity="0.85"/><text x="381.02122820318425" y="370.5654268129516" fill="#7c8aa5" font-size="9">EndlessForms</text><circle cx="325.0538286580743" cy="431.33529569173135" r="4.5" fill="#38bdf8" opacity="0.85"/><text x="332.0538286580743" y="423.33529569173135" fill="#7c8aa5" font-size="9">NetLogo</text><circle cx="361.7285822592873" cy="404.16911961466417" r="4.5" fill="#38bdf8" opacity="0.85"/><text x="368.7285822592873" y="418.16911961466417" fill="#7c8aa5" font-size="9">MASON</text><circle cx="357.25852918877933" cy="428.0652930157881" r="4.5" fill="#38bdf8" opacity="0.85"/><text x="364.25852918877933" y="420.0652930157881" fill="#7c8aa5" font-size="9">Repast</text><circle cx="240.32600454890067" cy="453.2820444206583" r="4.5" fill="#38bdf8" opacity="0.85"/><text x="247.32600454890067" y="467.2820444206583" fill="#7c8aa5" font-size="9">StarLogo</text><circle cx="295.2873388931008" cy="459.63339577200964" r="4.5" fill="#38bdf8" opacity="0.85"/><text x="302.2873388931008" y="451.63339577200964" fill="#7c8aa5" font-size="9">Ascape</text><circle cx="351.97573919636085" cy="371.53197752207655" r="4.5" fill="#38bdf8" opacity="0.85"/><text x="358.97573919636085" y="385.53197752207655" fill="#7c8aa5" font-size="9">GAMA Platform</text><circle cx="325.0538286580743" cy="431.33529569173135" r="4.5" fill="#38bdf8" opacity="0.85"/><text x="332.0538286580743" y="423.33529569173135" fill="#7c8aa5" font-size="9">Mesa</text><circle cx="162.30326004548903" cy="362.35081616269736" r="4.5" fill="#38bdf8" opacity="0.85"/><text x="169.30326004548903" y="376.35081616269736" fill="#7c8aa5" font-size="9">OpenSteer</text><circle cx="225.2903714935557" cy="461.5828204442066" r="4.5" fill="#38bdf8" opacity="0.85"/><text x="232.2903714935557" y="453.5828204442066" fill="#7c8aa5" font-size="9">Artificial Anasazi</text><circle cx="141.57846853677026" cy="448.94300240834895" r="4.5" fill="#38bdf8" opacity="0.85"/><text x="148.57846853677026" y="462.94300240834895" fill="#7c8aa5" font-size="9">Schelling Segregation Model</text><circle cx="287.972706595906" cy="499.12496655070913" r="4.5" fill="#38bdf8" opacity="0.85"/><text x="294.972706595906" y="491.12496655070913" fill="#7c8aa5" font-size="9">El Farol Bar Problem</text><circle cx="174.18953752843063" cy="276.3245919186514" r="4.5" fill="#38bdf8" opacity="0.85"/><text x="181.18953752843063" y="290.3245919186514" fill="#7c8aa5" font-size="9">Spore</text><circle cx="304.73540561031086" cy="462.71474444741773" r="4.5" fill="#38bdf8" opacity="0.85"/><text x="311.73540561031086" y="454.71474444741773" fill="#7c8aa5" font-size="9">SimLife: The Genetic Playground</text><circle cx="212.89613343442002" cy="455.6087770939256" r="4.5" fill="#38bdf8" opacity="0.85"/><text x="219.89613343442002" y="469.6087770939256" fill="#7c8aa5" font-size="9">SimEarth: The Living Planet</text><circle cx="216.24867323730098" cy="450.95531174739097" r="4.5" fill="#38bdf8" opacity="0.85"/><text x="223.24867323730098" y="442.95531174739097" fill="#7c8aa5" font-size="9">SimAnt: The Electric Ant Colony</text><circle cx="300.97649734647456" cy="346.8811881188119" r="4.5" fill="#38bdf8" opacity="0.85"/><text x="307.97649734647456" y="360.8811881188119" fill="#7c8aa5" font-size="9">Thrive</text><circle cx="272.937073540561" cy="331.0971367407011" r="4.5" fill="#38bdf8" opacity="0.85"/><text x="279.937073540561" y="323.0971367407011" fill="#7c8aa5" font-size="9">Cell Lab: Evolution Sandbox</text><circle cx="432.33510235026534" cy="358.3261974846133" r="4.5" fill="#38bdf8" opacity="0.85"/><text x="439.33510235026534" y="372.3261974846133" fill="#7c8aa5" font-size="9">Species: Artificial Life, Real Evolution</text><circle cx="502.02729340409394" cy="408.31950762643834" r="4.5" fill="#38bdf8" opacity="0.85"/><text x="509.02729340409394" y="400.31950762643834" fill="#7c8aa5" font-size="9">The Bibites</text><circle cx="99.11296436694468" cy="361.53331549371154" r="4.5" fill="#38bdf8" opacity="0.85"/><text x="106.11296436694468" y="375.53331549371154" fill="#7c8aa5" font-size="9">The Powder Toy</text><circle cx="60" cy="269.9732405672999" r="4.5" fill="#38bdf8" opacity="0.85"/><text x="67" y="261.9732405672999" fill="#7c8aa5" font-size="9">Noita</text><circle cx="313.77710386656554" cy="438.8814557131389" r="4.5" fill="#38bdf8" opacity="0.85"/><text x="320.77710386656554" y="452.8814557131389" fill="#7c8aa5" font-size="9">The Life Engine</text><circle cx="111.1008339651251" cy="323.1736687182232" r="4.5" fill="#38bdf8" opacity="0.85"/><text x="118.1008339651251" y="315.1736687182232" fill="#7c8aa5" font-size="9">Clusters (Particle Life)</text><circle cx="95.15087187263079" cy="298.2084559807332" r="4.5" fill="#38bdf8" opacity="0.85"/><text x="102.15087187263079" y="312.2084559807332" fill="#7c8aa5" font-size="9">Sandspiel</text><circle cx="316.21531463229724" cy="353.7985014717688" r="4.5" fill="#38bdf8" opacity="0.85"/><text x="323.21531463229724" y="345.7985014717688" fill="#7c8aa5" font-size="9">Sebastian Lague Ecosystem</text><circle cx="167.99241849886278" cy="331.6630987423067" r="4.5" fill="#38bdf8" opacity="0.85"/><text x="174.99241849886278" y="345.6630987423067" fill="#7c8aa5" font-size="9">Pezzza's Ant Colony Simulation</text><circle cx="296.30326004548897" cy="375.6194808670057" r="4.5" fill="#38bdf8" opacity="0.85"/><text x="303.30326004548897" y="367.6194808670057" fill="#7c8aa5" font-size="9">Primer Evolution Simulations</text><circle cx="342.9340409401061" cy="293.4292213005084" r="4.5" fill="#38bdf8" opacity="0.85"/><text x="349.9340409401061" y="307.4292213005084" fill="#7c8aa5" font-size="9">Keiwan Evolution</text><circle cx="346.89613343442005" cy="316.44500936580147" r="4.5" fill="#38bdf8" opacity="0.85"/><text x="353.89613343442005" y="308.44500936580147" fill="#7c8aa5" font-size="9">DevoWorm</text><circle cx="208.32448824867325" cy="368.7650521808938" r="4.5" fill="#38bdf8" opacity="0.85"/><text x="215.32448824867325" y="382.7650521808938" fill="#7c8aa5" font-size="9">Morphozoic</text><circle cx="444.42456406368456" cy="412.0925876371421" r="4.5" fill="#38bdf8" opacity="0.85"/><text x="451.42456406368456" y="404.0925876371421" fill="#7c8aa5" font-size="9">Chromaria</text><circle cx="463.117513267627" cy="361.78485416109174" r="4.5" fill="#38bdf8" opacity="0.85"/><text x="470.117513267627" y="375.78485416109174" fill="#7c8aa5" font-size="9">Division Blocks</text><circle cx="466.6732373009856" cy="395.4281509232004" r="4.5" fill="#38bdf8" opacity="0.85"/><text x="473.6732373009856" y="387.4281509232004" fill="#7c8aa5" font-size="9">Voyager (Minecraft LLM agent)</text><circle cx="404.4988627748294" cy="416.4945143162965" r="4.5" fill="#38bdf8" opacity="0.85"/><text x="411.4988627748294" y="430.4945143162965" fill="#7c8aa5" font-size="9">Generative Agents (Smallville)</text><circle cx="536.1622441243367" cy="385.932566229596" r="4.5" fill="#38bdf8" opacity="0.85"/><text x="543.1622441243367" y="377.932566229596" fill="#7c8aa5" font-size="9">OMNI-EPIC</text><circle cx="329.7270659590599" cy="332.2919454107573" r="4.5" fill="#38bdf8" opacity="0.85"/><text x="336.7270659590599" y="346.2919454107573" fill="#7c8aa5" font-size="9">Genie (Generative Interactive Environments)</text><circle cx="486.2805155420773" cy="393.85603425207387" r="4.5" fill="#38bdf8" opacity="0.85"/><text x="493.2805155420773" y="385.85603425207387" fill="#7c8aa5" font-size="9">Evolution through Large Models (ELM)</text><circle cx="504.6686884003032" cy="474.4741771474445" r="4.5" fill="#38bdf8" opacity="0.85"/><text x="511.6686884003032" y="488.4741771474445" fill="#7c8aa5" font-size="9">OpenELM</text><circle cx="528.13646702047" cy="518.933636606904" r="4.5" fill="#38bdf8" opacity="0.85"/><text x="535.13646702047" y="510.933636606904" fill="#7c8aa5" font-size="9">Automated Design of Agentic Systems (ADAS)</text><circle cx="474.191053828658" cy="477.995718490768" r="4.5" fill="#38bdf8" opacity="0.85"/><text x="481.191053828658" y="491.995718490768" fill="#7c8aa5" font-size="9">The AI Scientist</text><circle cx="594.5777103866566" cy="526.5426812951565" r="4.5" fill="#38bdf8" opacity="0.85"/><text x="601.5777103866566" y="518.5426812951565" fill="#7c8aa5" font-size="9">Darwin Godel Machine (DGM)</text><circle cx="352.07733131159966" cy="508.9349745785389" r="4.5" fill="#38bdf8" opacity="0.85"/><text x="359.07733131159966" y="522.9349745785389" fill="#7c8aa5" font-size="9">Promptbreeder</text><circle cx="396.4730856709628" cy="512.3936312550175" r="4.5" fill="#38bdf8" opacity="0.85"/><text x="403.4730856709628" y="504.39363125501745" fill="#7c8aa5" font-size="9">Quality-Diversity through AI Feedback (QDAIF)</text><circle cx="434.87490523123574" cy="540" r="4.5" fill="#38bdf8" opacity="0.85"/><text x="441.87490523123574" y="554" fill="#7c8aa5" font-size="9">Stringmol</text><circle cx="271.6163760424564" cy="461.3941664436714" r="4.5" fill="#38bdf8" opacity="0.85"/><text x="278.6163760424564" y="453.3941664436714" fill="#7c8aa5" font-size="9">Evoloop / SDSR Loop</text><circle cx="288.9886277482941" cy="338.07733476050305" r="4.5" fill="#38bdf8" opacity="0.85"/><text x="295.9886277482941" y="352.07733476050305" fill="#7c8aa5" font-size="9">Xenobots (reconfigurable organisms)</text><circle cx="169.51630022744502" cy="322.2932833823923" r="4.5" fill="#38bdf8" opacity="0.85"/><text x="176.51630022744502" y="314.2932833823923" fill="#7c8aa5" font-size="9">Voxcraft-sim</text><circle cx="448.8946171341926" cy="419.953170992775" r="4.5" fill="#38bdf8" opacity="0.85"/><text x="455.8946171341926" y="433.953170992775" fill="#7c8aa5" font-size="9">Neural MMO</text><circle cx="444.01819560272935" cy="420.8335563286058" r="4.5" fill="#38bdf8" opacity="0.85"/><text x="451.01819560272935" y="412.8335563286058" fill="#7c8aa5" font-size="9">Melting Pot</text><circle cx="467.18119787717967" cy="452.90473641958795" r="4.5" fill="#38bdf8" opacity="0.85"/><text x="474.18119787717967" y="466.90473641958795" fill="#7c8aa5" font-size="9">Craftax</text><circle cx="211.98180439727065" cy="451.0810810810811" r="4.5" fill="#38bdf8" opacity="0.85"/><text x="218.98180439727065" y="443.0810810810811" fill="#7c8aa5" font-size="9">Chemlambda</text><circle cx="325.9681576952237" cy="382.4739095531175" r="4.5" fill="#38bdf8" opacity="0.85"/><text x="332.9681576952237" y="396.4739095531175" fill="#7c8aa5" font-size="9">Swarm Chemistry</text><circle cx="102.46550416982564" cy="419.8902863259299" r="4.5" fill="#38bdf8" opacity="0.85"/><text x="109.46550416982564" y="411.8902863259299" fill="#7c8aa5" font-size="9">Autopoietic Tessellation (Varela-Maturana-Uribe)</text><circle cx="302.09401061410153" cy="411.4008563018464" r="4.5" fill="#38bdf8" opacity="0.85"/><text x="309.09401061410153" y="425.4008563018464" fill="#7c8aa5" font-size="9">LIDA</text><circle cx="346.2865807429871" cy="528.3034519668183" r="4.5" fill="#38bdf8" opacity="0.85"/><text x="353.2865807429871" y="520.3034519668183" fill="#7c8aa5" font-size="9">AlChemy (algorithmic chemistry)</text><circle cx="136.29567854435174" cy="456.992239764517" r="4.5" fill="#38bdf8" opacity="0.85"/><text x="143.29567854435174" y="470.992239764517" fill="#7c8aa5" font-size="9">Conscious Turing Machine (CTM)</text><circle cx="365.3858984078847" cy="302.86192132726785" r="4.5" fill="#38bdf8" opacity="0.85"/><text x="372.3858984078847" y="294.86192132726785" fill="#7c8aa5" font-size="9">PhysiCell</text><circle cx="203.5496588324488" cy="335.18464008563024" r="4.5" fill="#38bdf8" opacity="0.85"/><text x="210.5496588324488" y="349.18464008563024" fill="#7c8aa5" font-size="9">Sodarace / Soda Constructor</text><circle cx="329.3206974981046" cy="452.2130050842922" r="4.5" fill="#38bdf8" opacity="0.85"/><text x="336.3206974981046" y="444.2130050842922" fill="#7c8aa5" font-size="9">Genesys/Tracker</text>
</svg>