<svg xmlns="http://www.w3.org/2000/svg" viewBox="0 0 760 600" font-family="ui-sans-serif,system-ui,Segoe UI,Roboto,sans-serif" role="img" aria-label="PCA projection">
<rect width="760" height="600" rx="14" fill="#0b1220"/>
<text x="28" y="30" fill="#cbd5e1" font-size="18" font-weight="700">PCA of 113 A-Life systems (9-axis correlation-matrix eigenbasis)</text><text x="28" y="50" fill="#7c8aa5" font-size="12">PC1 25.3% var · PC2 21.7% var · together 46.9%. amber = this repo.</text><line x1="171.29705180509586" y1="70" x2="171.29705180509586" y2="540" stroke="#27344d" stroke-width="0.8"/><line x1="60" y1="317.89976133651555" x2="730" y2="317.89976133651555" stroke="#27344d" stroke-width="0.8"/><text x="730" y="544" fill="#7c8aa5" font-size="11" text-anchor="end">PC1 (generalist breadth →)</text><text x="54" y="62" fill="#7c8aa5" font-size="11">PC2</text><circle cx="730" cy="163.8036992840096" r="8" fill="#f59e0b"/><circle cx="730" cy="163.8036992840096" r="13" fill="none" stroke="#f59e0b" stroke-width="1.4" opacity="0.6"/><text x="718" y="151.8036992840096" fill="#f59e0b" font-size="11" font-weight="700" text-anchor="end">COSMOGONIC</text><circle cx="138.54745593102916" cy="310.8189140811456" r="4.5" fill="#38bdf8" opacity="0.85"/><text x="145.54745593102916" y="324.8189140811456" fill="#7c8aa5" font-size="9">Game of Life</text><circle cx="119.31029174043569" cy="226.90035799522678" r="4.5" fill="#38bdf8" opacity="0.85"/><text x="126.31029174043569" y="218.90035799522678" fill="#7c8aa5" font-size="9">Boids</text><circle cx="127.76845508428913" cy="249.40483293556088" r="4.5" fill="#38bdf8" opacity="0.85"/><text x="134.76845508428914" y="263.4048329355609" fill="#7c8aa5" font-size="9">Biomorphs</text><circle cx="121.21853590947579" cy="428.52923627684964" r="4.5" fill="#38bdf8" opacity="0.85"/><text x="128.2185359094758" y="420.52923627684964" fill="#7c8aa5" font-size="9">Core War</text><circle cx="129.10938341929028" cy="460.1476730310262" r="4.5" fill="#38bdf8" opacity="0.85"/><text x="136.10938341929028" y="474.1476730310262" fill="#7c8aa5" font-size="9">Tierra</text><circle cx="156.39211761989068" cy="465.33562052505965" r="4.5" fill="#38bdf8" opacity="0.85"/><text x="163.39211761989068" y="457.33562052505965" fill="#7c8aa5" font-size="9">Avida</text><circle cx="247.26579939958435" cy="362.48806682577566" r="4.5" fill="#38bdf8" opacity="0.85"/><text x="254.26579939958435" y="376.48806682577566" fill="#7c8aa5" font-size="9">Polyworld</text><circle cx="272.38241859749064" cy="338.3711217183771" r="4.5" fill="#38bdf8" opacity="0.85"/><text x="279.38241859749064" y="330.3711217183771" fill="#7c8aa5" font-size="9">Framsticks</text><circle cx="226.7908552074513" cy="264.407816229117" r="4.5" fill="#38bdf8" opacity="0.85"/><text x="233.7908552074513" y="278.407816229117" fill="#7c8aa5" font-size="9">Karl Sims VC</text><circle cx="372.48787622199984" cy="274.71360381861575" r="4.5" fill="#38bdf8" opacity="0.85"/><text x="379.48787622199984" y="266.71360381861575" fill="#7c8aa5" font-size="9">Creatures</text><circle cx="192.02986683088292" cy="297.00775656324583" r="4.5" fill="#38bdf8" opacity="0.85"/><text x="199.02986683088292" y="311.00775656324583" fill="#7c8aa5" font-size="9">Darwin Pond</text><circle cx="210.0808251866677" cy="300.3028042959428" r="4.5" fill="#38bdf8" opacity="0.85"/><text x="217.0808251866677" y="292.3028042959428" fill="#7c8aa5" font-size="9">Gene Pool</text><circle cx="163.09675929489646" cy="417.80280429594274" r="4.5" fill="#38bdf8" opacity="0.85"/><text x="170.09675929489646" y="431.80280429594274" fill="#7c8aa5" font-size="9">Sugarscape</text><circle cx="146.902470941421" cy="435.0492243436754" r="4.5" fill="#38bdf8" opacity="0.85"/><text x="153.902470941421" y="427.0492243436754" fill="#7c8aa5" font-size="9">Echo</text><circle cx="153.50396428296511" cy="390.8114558472554" r="4.5" fill="#38bdf8" opacity="0.85"/><text x="160.50396428296511" y="404.8114558472554" fill="#7c8aa5" font-size="9">Swarm</text><circle cx="207.81156185051188" cy="273.9424224343676" r="4.5" fill="#38bdf8" opacity="0.85"/><text x="214.81156185051188" y="265.9424224343676" fill="#7c8aa5" font-size="9">breve</text><circle cx="222.5101993687938" cy="311.30966587112175" r="4.5" fill="#38bdf8" opacity="0.85"/><text x="229.5101993687938" y="325.30966587112175" fill="#7c8aa5" font-size="9">Picbreeder</text><circle cx="197.49672850434916" cy="465.61605011933176" r="4.5" fill="#38bdf8" opacity="0.85"/><text x="204.49672850434916" y="457.61605011933176" fill="#7c8aa5" font-size="9">MABE</text><circle cx="161.54953429297206" cy="182.87291169451078" r="4.5" fill="#38bdf8" opacity="0.85"/><text x="168.54953429297206" y="196.87291169451078" fill="#7c8aa5" font-size="9">Lenia</text><circle cx="204.71711184666307" cy="217.08532219570407" r="4.5" fill="#38bdf8" opacity="0.85"/><text x="211.71711184666307" y="209.08532219570407" fill="#7c8aa5" font-size="9">Growing NCA</text><circle cx="389.97151874374566" cy="153.3576968973747" r="4.5" fill="#38bdf8" opacity="0.85"/><text x="396.97151874374566" y="167.3576968973747" fill="#7c8aa5" font-size="9">OpenWorm</text><circle cx="195.22746516819336" cy="442.48060859188547" r="4.5" fill="#38bdf8" opacity="0.85"/><text x="202.22746516819336" y="434.48060859188547" fill="#7c8aa5" font-size="9">POET</text><circle cx="205.33600184743284" cy="317.61933174224345" r="4.5" fill="#38bdf8" opacity="0.85"/><text x="212.33600184743284" y="331.61933174224345" fill="#7c8aa5" font-size="9">EvoGym</text><circle cx="410.085443768763" cy="230.8964797136038" r="4.5" fill="#38bdf8" opacity="0.85"/><text x="417.085443768763" y="222.8964797136038" fill="#7c8aa5" font-size="9">ALIEN</text><circle cx="274.5485336001848" cy="325.3311455847255" r="4.5" fill="#38bdf8" opacity="0.85"/><text x="281.5485336001848" y="339.3311455847255" fill="#7c8aa5" font-size="9">ASAL</text><circle cx="60" cy="236.6452863961814" r="4.5" fill="#38bdf8" opacity="0.85"/><text x="67" y="228.6452863961814" fill="#7c8aa5" font-size="9">Wireworld</text><circle cx="60" cy="236.6452863961814" r="4.5" fill="#38bdf8" opacity="0.85"/><text x="67" y="250.6452863961814" fill="#7c8aa5" font-size="9">Langton's Ant</text><circle cx="92.1307058732969" cy="268.54415274463014" r="4.5" fill="#38bdf8" opacity="0.85"/><text x="99.1307058732969" y="260.54415274463014" fill="#7c8aa5" font-size="9">Langton's Loops</text><circle cx="79.90762835809406" cy="295.60560859188547" r="4.5" fill="#38bdf8" opacity="0.85"/><text x="86.90762835809406" y="309.60560859188547" fill="#7c8aa5" font-size="9">von Neumann Universal Constructor</text><circle cx="60" cy="236.6452863961814" r="4.5" fill="#38bdf8" opacity="0.85"/><text x="67" y="228.6452863961814" fill="#7c8aa5" font-size="9">Rule 110</text><circle cx="124.77715341390193" cy="178.17571599045345" r="4.5" fill="#38bdf8" opacity="0.85"/><text x="131.77715341390194" y="192.17571599045345" fill="#7c8aa5" font-size="9">SmoothLife</text><circle cx="124.77715341390193" cy="178.17571599045345" r="4.5" fill="#38bdf8" opacity="0.85"/><text x="131.77715341390194" y="170.17571599045345" fill="#7c8aa5" font-size="9">Larger than Life</text><circle cx="194.71172350088526" cy="246.039677804296" r="4.5" fill="#38bdf8" opacity="0.85"/><text x="201.71172350088526" y="260.039677804296" fill="#7c8aa5" font-size="9">Flow Lenia</text><circle cx="154.9480409514279" cy="200.25954653937953" r="4.5" fill="#38bdf8" opacity="0.85"/><text x="161.9480409514279" y="192.25954653937953" fill="#7c8aa5" font-size="9">Particle Lenia</text><circle cx="150.8221076129628" cy="240.57130071599045" r="4.5" fill="#38bdf8" opacity="0.85"/><text x="157.8221076129628" y="254.57130071599045" fill="#7c8aa5" font-size="9">Primordial Particle Systems</text><circle cx="124.88030174736356" cy="178.10560859188547" r="4.5" fill="#38bdf8" opacity="0.85"/><text x="131.88030174736355" y="170.10560859188547" fill="#7c8aa5" font-size="9">Gray-Scott Reaction-Diffusion</text><circle cx="128.38734508505888" cy="416.82130071599045" r="4.5" fill="#38bdf8" opacity="0.85"/><text x="135.38734508505888" y="430.82130071599045" fill="#7c8aa5" font-size="9">Aevol</text><circle cx="152.88507428219538" cy="418.57398568019096" r="4.5" fill="#38bdf8" opacity="0.85"/><text x="159.88507428219538" y="410.57398568019096" fill="#7c8aa5" font-size="9">Avida-ED</text><circle cx="113.43083673312293" cy="372.0927804295943" r="4.5" fill="#38bdf8" opacity="0.85"/><text x="120.43083673312293" y="386.0927804295943" fill="#7c8aa5" font-size="9">Nanopond</text><circle cx="104.97267338926949" cy="353.1637828162291" r="4.5" fill="#38bdf8" opacity="0.85"/><text x="111.97267338926949" y="345.1637828162291" fill="#7c8aa5" font-size="9">Physis</text><circle cx="117.556770071588" cy="381.83770883054893" r="4.5" fill="#38bdf8" opacity="0.85"/><text x="124.556770071588" y="395.83770883054893" fill="#7c8aa5" font-size="9">Cosmos</text><circle cx="207.1410976830113" cy="508.3114558472554" r="4.5" fill="#38bdf8" opacity="0.85"/><text x="214.1410976830113" y="500.3114558472554" fill="#7c8aa5" font-size="9">Geb</text><circle cx="117.556770071588" cy="381.83770883054893" r="4.5" fill="#38bdf8" opacity="0.85"/><text x="124.556770071588" y="395.83770883054893" fill="#7c8aa5" font-size="9">Amoeba</text><circle cx="173.8241859749057" cy="346.0829355608592" r="4.5" fill="#38bdf8" opacity="0.85"/><text x="180.8241859749057" y="338.0829355608592" fill="#7c8aa5" font-size="9">Evolve 4.0</text><circle cx="143.80802093757217" cy="282.3553102625298" r="4.5" fill="#38bdf8" opacity="0.85"/><text x="150.80802093757217" y="296.3553102625298" fill="#7c8aa5" font-size="9">Squirm3</text><circle cx="126.01493341544145" cy="400.8368138424821" r="4.5" fill="#38bdf8" opacity="0.85"/><text x="133.01493341544145" y="392.8368138424821" fill="#7c8aa5" font-size="9">Network Tierra</text><circle cx="186.15041182357015" cy="361.4364558472554" r="4.5" fill="#38bdf8" opacity="0.85"/><text x="193.15041182357015" y="375.4364558472554" fill="#7c8aa5" font-size="9">biosim4</text><circle cx="181.40558848433534" cy="278.4292959427208" r="4.5" fill="#38bdf8" opacity="0.85"/><text x="188.40558848433534" y="270.4292959427208" fill="#7c8aa5" font-size="9">GOLEM (Genetically Organized Lifelike Electro Mechanics)</text><circle cx="142.0544992687245" cy="203.27416467780432" r="4.5" fill="#38bdf8" opacity="0.85"/><text x="149.0544992687245" y="217.27416467780432" fill="#7c8aa5" font-size="9">Voxelyze / VoxCAD</text><circle cx="205.5938726810869" cy="266.93168257756565" r="4.5" fill="#38bdf8" opacity="0.85"/><text x="212.5938726810869" y="258.93168257756565" fill="#7c8aa5" font-size="9">3D Virtual Creature Evolution (3DVCE)</text><circle cx="239.73597105688555" cy="378.0519093078759" r="4.5" fill="#38bdf8" opacity="0.85"/><text x="246.73597105688555" y="392.0519093078759" fill="#7c8aa5" font-size="9">DERL (Deep Evolutionary Reinforcement Learning)</text><circle cx="234.73327688399664" cy="363.2592482100239" r="4.5" fill="#38bdf8" opacity="0.85"/><text x="241.73327688399664" y="355.2592482100239" fill="#7c8aa5" font-size="9">UNIMAL (Universal Animal design space)</text><circle cx="190.22477099530445" cy="260.5519093078759" r="4.5" fill="#38bdf8" opacity="0.85"/><text x="197.22477099530445" y="274.5519093078759" fill="#7c8aa5" font-size="9">Evolving Soft Robots (Cheney / Unshackling Evolution)</text><circle cx="205.2328535139712" cy="317.6894391408115" r="4.5" fill="#38bdf8" opacity="0.85"/><text x="212.2328535139712" y="309.6894391408115" fill="#7c8aa5" font-size="9">RoboGrammar</text><circle cx="206.93480101608804" cy="383.16974940334126" r="4.5" fill="#38bdf8" opacity="0.85"/><text x="213.93480101608804" y="397.16974940334126" fill="#7c8aa5" font-size="9">Transform2Act</text><circle cx="163.87037179585866" cy="303.0369928400954" r="4.5" fill="#38bdf8" opacity="0.85"/><text x="170.87037179585866" y="295.0369928400954" fill="#7c8aa5" font-size="9">NerveNet</text><circle cx="208.32730351782004" cy="351.2708830548926" r="4.5" fill="#38bdf8" opacity="0.85"/><text x="215.32730351782004" y="365.2708830548926" fill="#7c8aa5" font-size="9">Neural Graph Evolution (NGE)</text><circle cx="165.72704179816796" cy="271.3484486873508" r="4.5" fill="#38bdf8" opacity="0.85"/><text x="172.72704179816796" y="263.3484486873508" fill="#7c8aa5" font-size="9">Krcah Evolved Virtual Creatures (ERO)</text><circle cx="175.16511430990687" cy="492.4671837708831" r="4.5" fill="#38bdf8" opacity="0.85"/><text x="182.16511430990687" y="506.4671837708831" fill="#7c8aa5" font-size="9">NEAT (NeuroEvolution of Augmenting Topologies)</text><circle cx="193.7833884997306" cy="448.01909307875894" r="4.5" fill="#38bdf8" opacity="0.85"/><text x="200.7833884997306" y="440.01909307875894" fill="#7c8aa5" font-size="9">HyperNEAT</text><circle cx="184.65476098837655" cy="423.5516109785203" r="4.5" fill="#38bdf8" opacity="0.85"/><text x="191.65476098837655" y="437.5516109785203" fill="#7c8aa5" font-size="9">ES-HyperNEAT</text><circle cx="185.9441151566469" cy="498.28609785202866" r="4.5" fill="#38bdf8" opacity="0.85"/><text x="192.9441151566469" y="490.28609785202866" fill="#7c8aa5" font-size="9">Novelty Search</text><circle cx="204.71711184666307" cy="453.7678997613365" r="4.5" fill="#38bdf8" opacity="0.85"/><text x="211.71711184666307" y="467.7678997613365" fill="#7c8aa5" font-size="9">MAP-Elites</text><circle cx="204.71711184666307" cy="453.7678997613365" r="4.5" fill="#38bdf8" opacity="0.85"/><text x="211.71711184666307" y="445.7678997613365" fill="#7c8aa5" font-size="9">Quality-Diversity (illumination algorithms)</text><circle cx="182.33392348548995" cy="357.8609785202864" r="4.5" fill="#38bdf8" opacity="0.85"/><text x="189.33392348548995" y="371.8609785202864" fill="#7c8aa5" font-size="9">Go-Explore</text><circle cx="195.22746516819336" cy="442.48060859188547" r="4.5" fill="#38bdf8" opacity="0.85"/><text x="202.22746516819336" y="434.48060859188547" fill="#7c8aa5" font-size="9">OMNI (Open-endedness via Models of human Notions of Interestingness)</text><circle cx="192.3393118312678" cy="450.96360381861575" r="4.5" fill="#38bdf8" opacity="0.85"/><text x="199.3393118312678" y="464.96360381861575" fill="#7c8aa5" font-size="9">Minimal Criterion Coevolution (MCC)</text><circle cx="183.57170348702948" cy="368.6575178997614" r="4.5" fill="#38bdf8" opacity="0.85"/><text x="190.57170348702948" y="360.6575178997614" fill="#7c8aa5" font-size="9">Innovation Engines</text><circle cx="173.51474097452083" cy="291.18884248210026" r="4.5" fill="#38bdf8" opacity="0.85"/><text x="180.51474097452083" y="305.18884248210026" fill="#7c8aa5" font-size="9">EndlessForms</text><circle cx="137.1033792625664" cy="312.7819212410501" r="4.5" fill="#38bdf8" opacity="0.85"/><text x="144.1033792625664" y="304.7819212410501" fill="#7c8aa5" font-size="9">NetLogo</text><circle cx="159.38341929027789" cy="315.0253579952267" r="4.5" fill="#38bdf8" opacity="0.85"/><text x="166.38341929027789" y="329.0253579952267" fill="#7c8aa5" font-size="9">MASON</text><circle cx="149.32645677776924" cy="328.20554892601433" r="4.5" fill="#38bdf8" opacity="0.85"/><text x="156.32645677776924" y="320.20554892601433" fill="#7c8aa5" font-size="9">Repast</text><circle cx="106.77776922484797" cy="290.83830548926016" r="4.5" fill="#38bdf8" opacity="0.85"/><text x="113.77776922484797" y="304.83830548926016" fill="#7c8aa5" font-size="9">StarLogo</text><circle cx="119.3618659071665" cy="319.51223150358" r="4.5" fill="#38bdf8" opacity="0.85"/><text x="126.3618659071665" y="311.51223150358" fill="#7c8aa5" font-size="9">Ascape</text><circle cx="167.94473096759296" cy="283.82756563245823" r="4.5" fill="#38bdf8" opacity="0.85"/><text x="174.94473096759296" y="297.82756563245823" fill="#7c8aa5" font-size="9">GAMA Platform</text><circle cx="137.1033792625664" cy="312.7819212410501" r="4.5" fill="#38bdf8" opacity="0.85"/><text x="144.1033792625664" y="304.7819212410501" fill="#7c8aa5" font-size="9">Mesa</text><circle cx="117.8662150719729" cy="189.81354415274467" r="4.5" fill="#38bdf8" opacity="0.85"/><text x="124.8662150719729" y="203.81354415274467" fill="#7c8aa5" font-size="9">OpenSteer</text><circle cx="99.66053421599568" cy="290.0671241050119" r="4.5" fill="#38bdf8" opacity="0.85"/><text x="106.66053421599568" y="282.0671241050119" fill="#7c8aa5" font-size="9">Artificial Anasazi</text><circle cx="80.52651835886383" cy="236.08442720763725" r="4.5" fill="#38bdf8" opacity="0.85"/><text x="87.52651835886383" y="250.08442720763725" fill="#7c8aa5" font-size="9">Schelling Segregation Model</text><circle cx="107.60295589254099" cy="351.3409904534606" r="4.5" fill="#38bdf8" opacity="0.85"/><text x="114.60295589254099" y="343.3409904534606" fill="#7c8aa5" font-size="9">El Farol Bar Problem</text><circle cx="149.94534677853898" cy="128.96032219570412" r="4.5" fill="#38bdf8" opacity="0.85"/><text x="156.94534677853898" y="142.96032219570412" fill="#7c8aa5" font-size="9">Spore</text><circle cx="120.1354784081287" cy="324.55996420047734" r="4.5" fill="#38bdf8" opacity="0.85"/><text x="127.1354784081287" y="316.55996420047734" fill="#7c8aa5" font-size="9">SimLife: The Genetic Playground</text><circle cx="94.39996920945269" cy="275.414677804296" r="4.5" fill="#38bdf8" opacity="0.85"/><text x="101.39996920945269" y="289.414677804296" fill="#7c8aa5" font-size="9">SimEarth: The Living Planet</text><circle cx="101.10461088445847" cy="270.5071599045346" r="4.5" fill="#38bdf8" opacity="0.85"/><text x="108.10461088445847" y="262.5071599045346" fill="#7c8aa5" font-size="9">SimAnt: The Electric Ant Colony</text><circle cx="157.93934262181511" cy="241.34248210023867" r="4.5" fill="#38bdf8" opacity="0.85"/><text x="164.93934262181511" y="255.34248210023867" fill="#7c8aa5" font-size="9">Thrive</text><circle cx="156.75313678700638" cy="217.64618138424828" r="4.5" fill="#38bdf8" opacity="0.85"/><text x="163.75313678700638" y="209.64618138424828" fill="#7c8aa5" font-size="9">Cell Lab: Evolution Sandbox</text><circle cx="192.80347933184512" cy="315.0253579952267" r="4.5" fill="#38bdf8" opacity="0.85"/><text x="199.80347933184512" y="329.0253579952267" fill="#7c8aa5" font-size="9">Species: Artificial Life, Real Evolution</text><circle cx="198.63136017242707" cy="390.2505966587112" r="4.5" fill="#38bdf8" opacity="0.85"/><text x="205.63136017242707" y="382.2505966587112" fill="#7c8aa5" font-size="9">The Bibites</text><circle cx="98.73219921484105" cy="165.90692124105016" r="4.5" fill="#38bdf8" opacity="0.85"/><text x="105.73219921484105" y="179.90692124105016" fill="#7c8aa5" font-size="9">The Powder Toy</text><circle cx="120.23862674159034" cy="70" r="4.5" fill="#38bdf8" opacity="0.85"/><text x="127.23862674159034" y="62" fill="#7c8aa5" font-size="9">Noita</text><circle cx="127.04641675005773" cy="312.99224343675417" r="4.5" fill="#38bdf8" opacity="0.85"/><text x="134.04641675005774" y="326.99224343675417" fill="#7c8aa5" font-size="9">The Life Engine</text><circle cx="112.65722423216073" cy="125.10441527446307" r="4.5" fill="#38bdf8" opacity="0.85"/><text x="119.65722423216073" y="117.10441527446307" fill="#7c8aa5" font-size="9">Clusters (Particle Life)</text><circle cx="119.3618659071665" cy="107.64767303102633" r="4.5" fill="#38bdf8" opacity="0.85"/><text x="126.3618659071665" y="121.64767303102633" fill="#7c8aa5" font-size="9">Sandspiel</text><circle cx="162.4262951273959" cy="250.5265513126492" r="4.5" fill="#38bdf8" opacity="0.85"/><text x="169.4262951273959" y="242.5265513126492" fill="#7c8aa5" font-size="9">Sebastian Lague Ecosystem</text><circle cx="129.88299592025248" cy="162.75208830548928" r="4.5" fill="#38bdf8" opacity="0.85"/><text x="136.88299592025248" y="176.75208830548928" fill="#7c8aa5" font-size="9">Pezzza's Ant Colony Simulation</text><circle cx="148.9138634439227" cy="259.4301909307876" r="4.5" fill="#38bdf8" opacity="0.85"/><text x="155.9138634439227" y="251.4301909307876" fill="#7c8aa5" font-size="9">Primer Evolution Simulations</text><circle cx="196.5683935031945" cy="242.394093078759" r="4.5" fill="#38bdf8" opacity="0.85"/><text x="203.5683935031945" y="256.394093078759" fill="#7c8aa5" font-size="9">Keiwan Evolution</text><circle cx="215.70240936032639" cy="256.69600238663486" r="4.5" fill="#38bdf8" opacity="0.85"/><text x="222.70240936032639" y="248.69600238663486" fill="#7c8aa5" font-size="9">DevoWorm</text><circle cx="128.54206758525135" cy="224.79713603818612" r="4.5" fill="#38bdf8" opacity="0.85"/><text x="135.54206758525135" y="238.79713603818612" fill="#7c8aa5" font-size="9">Morphozoic</text><circle cx="174.70094680932954" cy="365.0119331742244" r="4.5" fill="#38bdf8" opacity="0.85"/><text x="181.70094680932954" y="357.0119331742244" fill="#7c8aa5" font-size="9">Chromaria</text><circle cx="203.0151643445462" cy="344.2601431980907" r="4.5" fill="#38bdf8" opacity="0.85"/><text x="210.0151643445462" y="358.2601431980907" fill="#7c8aa5" font-size="9">Division Blocks</text><circle cx="189.81217766145792" cy="371.95256563245823" r="4.5" fill="#38bdf8" opacity="0.85"/><text x="196.81217766145792" y="363.95256563245823" fill="#7c8aa5" font-size="9">Voyager (Minecraft LLM agent)</text><circle cx="168.66676930182433" cy="344.4003579952267" r="4.5" fill="#38bdf8" opacity="0.85"/><text x="175.66676930182433" y="358.4003579952267" fill="#7c8aa5" font-size="9">Generative Agents (Smallville)</text><circle cx="211.83434685551535" cy="411.9137828162291" r="4.5" fill="#38bdf8" opacity="0.85"/><text x="218.83434685551535" y="403.9137828162291" fill="#7c8aa5" font-size="9">OMNI-EPIC</text><circle cx="174.5977984758679" cy="258.7992243436754" r="4.5" fill="#38bdf8" opacity="0.85"/><text x="181.5977984758679" y="272.7992243436754" fill="#7c8aa5" font-size="9">Genie (Generative Interactive Environments)</text><circle cx="196.5168193364637" cy="391.65274463007165" r="4.5" fill="#38bdf8" opacity="0.85"/><text x="203.5168193364637" y="383.65274463007165" fill="#7c8aa5" font-size="9">Evolution through Large Models (ELM)</text><circle cx="171.9675159725964" cy="458.9558472553699" r="4.5" fill="#38bdf8" opacity="0.85"/><text x="178.9675159725964" y="472.9558472553699" fill="#7c8aa5" font-size="9">OpenELM</text><circle cx="164.12824262951273" cy="500.7398568019093" r="4.5" fill="#38bdf8" opacity="0.85"/><text x="171.12824262951273" y="492.7398568019093" fill="#7c8aa5" font-size="9">Automated Design of Agentic Systems (ADAS)</text><circle cx="162.68416596104993" cy="440.0268496420048" r="4.5" fill="#38bdf8" opacity="0.85"/><text x="169.68416596104993" y="454.0268496420048" fill="#7c8aa5" font-size="9">The AI Scientist</text><circle cx="178.10484181356324" cy="540" r="4.5" fill="#38bdf8" opacity="0.85"/><text x="185.10484181356324" y="532" fill="#7c8aa5" font-size="9">Darwin Godel Machine (DGM)</text><circle cx="121.2701100762066" cy="407.4269093078759" r="4.5" fill="#38bdf8" opacity="0.85"/><text x="128.2701100762066" y="421.4269093078759" fill="#7c8aa5" font-size="9">Promptbreeder</text><circle cx="130.295589254099" cy="431.96449880668257" r="4.5" fill="#38bdf8" opacity="0.85"/><text x="137.295589254099" y="423.96449880668257" fill="#7c8aa5" font-size="9">Quality-Diversity through AI Feedback (QDAIF)</text>
</svg>