<svg xmlns="http://www.w3.org/2000/svg" viewBox="0 0 720 560" font-family="ui-sans-serif,system-ui,Segoe UI,Roboto,sans-serif" role="img" aria-label="Breadth vs peer maturity scatter">
<rect width="720" height="560" rx="14" fill="#0b1220"/>
<text x="28" y="30" fill="#cbd5e1" font-size="18" font-weight="700">Breadth of synthesis vs peer maturity</text><text x="28" y="50" fill="#7c8aa5" font-size="12">y = breadth mean (0–5) · x = peer scientific maturity (0–5). upper-left = broad but immature.</text><line x1="70" y1="64" x2="70" y2="496" stroke="#27344d" stroke-width="0.7"/><line x1="70" y1="496" x2="690" y2="496" stroke="#27344d" stroke-width="0.7"/><text x="70" y="514" fill="#7c8aa5" font-size="10" text-anchor="middle">0</text><text x="60" y="500" fill="#7c8aa5" font-size="10" text-anchor="end">0</text><line x1="194" y1="64" x2="194" y2="496" stroke="#27344d" stroke-width="0.7"/><line x1="70" y1="409.6" x2="690" y2="409.6" stroke="#27344d" stroke-width="0.7"/><text x="194" y="514" fill="#7c8aa5" font-size="10" text-anchor="middle">1</text><text x="60" y="413.6" fill="#7c8aa5" font-size="10" text-anchor="end">1</text><line x1="318" y1="64" x2="318" y2="496" stroke="#27344d" stroke-width="0.7"/><line x1="70" y1="323.2" x2="690" y2="323.2" stroke="#27344d" stroke-width="0.7"/><text x="318" y="514" fill="#7c8aa5" font-size="10" text-anchor="middle">2</text><text x="60" y="327.2" fill="#7c8aa5" font-size="10" text-anchor="end">2</text><line x1="442" y1="64" x2="442" y2="496" stroke="#27344d" stroke-width="0.7"/><line x1="70" y1="236.8" x2="690" y2="236.8" stroke="#27344d" stroke-width="0.7"/><text x="442" y="514" fill="#7c8aa5" font-size="10" text-anchor="middle">3</text><text x="60" y="240.8" fill="#7c8aa5" font-size="10" text-anchor="end">3</text><line x1="566" y1="64" x2="566" y2="496" stroke="#27344d" stroke-width="0.7"/><line x1="70" y1="150.39999999999998" x2="690" y2="150.39999999999998" stroke="#27344d" stroke-width="0.7"/><text x="566" y="514" fill="#7c8aa5" font-size="10" text-anchor="middle">4</text><text x="60" y="154.39999999999998" fill="#7c8aa5" font-size="10" text-anchor="end">4</text><line x1="690" y1="64" x2="690" y2="496" stroke="#27344d" stroke-width="0.7"/><line x1="70" y1="64" x2="690" y2="64" stroke="#27344d" stroke-width="0.7"/><text x="690" y="514" fill="#7c8aa5" font-size="10" text-anchor="middle">5</text><text x="60" y="68" fill="#7c8aa5" font-size="10" text-anchor="end">5</text><line x1="504" y1="64" x2="504" y2="496" stroke="#a78bfa" stroke-dasharray="4 4" stroke-width="1"/><line x1="70" y1="313.6" x2="690" y2="313.6" stroke="#a78bfa" stroke-dasharray="4 4" stroke-width="1"/><text x="690" y="78" fill="#a78bfa" font-size="10" text-anchor="end">medians</text><text x="360" y="544" fill="#cbd5e1" font-size="12" text-anchor="middle">peer maturity →</text><text x="20" y="280" fill="#cbd5e1" font-size="12" text-anchor="middle" transform="rotate(-90 20 280)">breadth →</text><circle cx="256" cy="167.68" r="8" fill="#f59e0b"/><circle cx="256" cy="167.68" r="13" fill="none" stroke="#f59e0b" stroke-width="1.4" opacity="0.6"/><text x="244" y="155.68" fill="#f59e0b" font-size="11" font-weight="700" text-anchor="end">COSMOGONIC</text><circle cx="690" cy="342.4" r="4.5" fill="#38bdf8" opacity="0.85"/><text x="697" y="356.4" fill="#7c8aa5" font-size="9">Game of Life</text><circle cx="690" cy="352" r="4.5" fill="#38bdf8" opacity="0.85"/><text x="697" y="344" fill="#7c8aa5" font-size="9">Boids</text><circle cx="566" cy="352" r="4.5" fill="#38bdf8" opacity="0.85"/><text x="573" y="366" fill="#7c8aa5" font-size="9">Biomorphs</text><circle cx="504" cy="342.4" r="4.5" fill="#38bdf8" opacity="0.85"/><text x="511" y="334.4" fill="#7c8aa5" font-size="9">Core War</text><circle cx="690" cy="328" r="4.5" fill="#38bdf8" opacity="0.85"/><text x="697" y="342" fill="#7c8aa5" font-size="9">Tierra</text><circle cx="690" cy="294.4" r="4.5" fill="#38bdf8" opacity="0.85"/><text x="697" y="286.4" fill="#7c8aa5" font-size="9">Avida</text><circle cx="628" cy="236.8" r="4.5" fill="#38bdf8" opacity="0.85"/><text x="635" y="250.8" fill="#7c8aa5" font-size="9">Polyworld</text><circle cx="566" cy="217.59999999999997" r="4.5" fill="#38bdf8" opacity="0.85"/><text x="573" y="209.59999999999997" fill="#7c8aa5" font-size="9">Framsticks</text><circle cx="690" cy="246.40000000000003" r="4.5" fill="#38bdf8" opacity="0.85"/><text x="697" y="260.40000000000003" fill="#7c8aa5" font-size="9">Karl Sims VC</text><circle cx="566" cy="207.99999999999994" r="4.5" fill="#38bdf8" opacity="0.85"/><text x="573" y="199.99999999999994" fill="#7c8aa5" font-size="9">Creatures</text><circle cx="442" cy="265.6" r="4.5" fill="#38bdf8" opacity="0.85"/><text x="449" y="279.6" fill="#7c8aa5" font-size="9">Darwin Pond</text><circle cx="442" cy="241.6" r="4.5" fill="#38bdf8" opacity="0.85"/><text x="449" y="233.6" fill="#7c8aa5" font-size="9">Gene Pool</text><circle cx="690" cy="294.4" r="4.5" fill="#38bdf8" opacity="0.85"/><text x="697" y="308.4" fill="#7c8aa5" font-size="9">Sugarscape</text><circle cx="566" cy="313.6" r="4.5" fill="#38bdf8" opacity="0.85"/><text x="573" y="305.6" fill="#7c8aa5" font-size="9">Echo</text><circle cx="690" cy="308.8" r="4.5" fill="#38bdf8" opacity="0.85"/><text x="697" y="322.8" fill="#7c8aa5" font-size="9">Swarm</text><circle cx="566" cy="256" r="4.5" fill="#38bdf8" opacity="0.85"/><text x="573" y="248" fill="#7c8aa5" font-size="9">breve</text><circle cx="628" cy="246.40000000000003" r="4.5" fill="#38bdf8" opacity="0.85"/><text x="635" y="260.40000000000003" fill="#7c8aa5" font-size="9">Picbreeder</text><circle cx="628" cy="265.6" r="4.5" fill="#38bdf8" opacity="0.85"/><text x="635" y="257.6" fill="#7c8aa5" font-size="9">MABE</text><circle cx="566" cy="323.2" r="4.5" fill="#38bdf8" opacity="0.85"/><text x="573" y="337.2" fill="#7c8aa5" font-size="9">Lenia</text><circle cx="566" cy="318.4" r="4.5" fill="#38bdf8" opacity="0.85"/><text x="573" y="310.4" fill="#7c8aa5" font-size="9">Growing NCA</text><circle cx="566" cy="284.79999999999995" r="4.5" fill="#38bdf8" opacity="0.85"/><text x="573" y="298.79999999999995" fill="#7c8aa5" font-size="9">OpenWorm</text><circle cx="566" cy="294.4" r="4.5" fill="#38bdf8" opacity="0.85"/><text x="573" y="286.4" fill="#7c8aa5" font-size="9">POET</text><circle cx="566" cy="284.79999999999995" r="4.5" fill="#38bdf8" opacity="0.85"/><text x="573" y="298.79999999999995" fill="#7c8aa5" font-size="9">EvoGym</text><circle cx="380" cy="193.60000000000002" r="4.5" fill="#38bdf8" opacity="0.85"/><text x="387" y="185.60000000000002" fill="#7c8aa5" font-size="9">ALIEN</text><circle cx="504" cy="265.6" r="4.5" fill="#38bdf8" opacity="0.85"/><text x="511" y="279.6" fill="#7c8aa5" font-size="9">ASAL</text><circle cx="566" cy="438.4" r="4.5" fill="#38bdf8" opacity="0.85"/><text x="573" y="430.4" fill="#7c8aa5" font-size="9">Wireworld</text><circle cx="566" cy="438.4" r="4.5" fill="#38bdf8" opacity="0.85"/><text x="573" y="452.4" fill="#7c8aa5" font-size="9">Langton's Ant</text><circle cx="690" cy="380.8" r="4.5" fill="#38bdf8" opacity="0.85"/><text x="697" y="372.8" fill="#7c8aa5" font-size="9">Langton's Loops</text><circle cx="690" cy="400" r="4.5" fill="#38bdf8" opacity="0.85"/><text x="697" y="414" fill="#7c8aa5" font-size="9">von Neumann Universal Constructor</text><circle cx="690" cy="438.4" r="4.5" fill="#38bdf8" opacity="0.85"/><text x="697" y="430.4" fill="#7c8aa5" font-size="9">Rule 110</text><circle cx="442" cy="361.6" r="4.5" fill="#38bdf8" opacity="0.85"/><text x="449" y="375.6" fill="#7c8aa5" font-size="9">SmoothLife</text><circle cx="442" cy="361.6" r="4.5" fill="#38bdf8" opacity="0.85"/><text x="449" y="353.6" fill="#7c8aa5" font-size="9">Larger than Life</text><circle cx="442" cy="275.20000000000005" r="4.5" fill="#38bdf8" opacity="0.85"/><text x="449" y="289.20000000000005" fill="#7c8aa5" font-size="9">Flow Lenia</text><circle cx="442" cy="323.2" r="4.5" fill="#38bdf8" opacity="0.85"/><text x="449" y="315.2" fill="#7c8aa5" font-size="9">Particle Lenia</text><circle cx="566" cy="313.6" r="4.5" fill="#38bdf8" opacity="0.85"/><text x="573" y="327.6" fill="#7c8aa5" font-size="9">Primordial Particle Systems</text><circle cx="566" cy="361.6" r="4.5" fill="#38bdf8" opacity="0.85"/><text x="573" y="353.6" fill="#7c8aa5" font-size="9">Gray-Scott Reaction-Diffusion</text><circle cx="566" cy="332.8" r="4.5" fill="#38bdf8" opacity="0.85"/><text x="573" y="346.8" fill="#7c8aa5" font-size="9">Aevol</text><circle cx="566" cy="294.4" r="4.5" fill="#38bdf8" opacity="0.85"/><text x="573" y="286.4" fill="#7c8aa5" font-size="9">Avida-ED</text><circle cx="442" cy="342.4" r="4.5" fill="#38bdf8" opacity="0.85"/><text x="449" y="356.4" fill="#7c8aa5" font-size="9">Nanopond</text><circle cx="318" cy="361.6" r="4.5" fill="#38bdf8" opacity="0.85"/><text x="325" y="353.6" fill="#7c8aa5" font-size="9">Physis</text><circle cx="442" cy="342.4" r="4.5" fill="#38bdf8" opacity="0.85"/><text x="449" y="356.4" fill="#7c8aa5" font-size="9">Cosmos</text><circle cx="566" cy="256" r="4.5" fill="#38bdf8" opacity="0.85"/><text x="573" y="248" fill="#7c8aa5" font-size="9">Geb</text><circle cx="442" cy="342.4" r="4.5" fill="#38bdf8" opacity="0.85"/><text x="449" y="356.4" fill="#7c8aa5" font-size="9">Amoeba</text><circle cx="442" cy="294.4" r="4.5" fill="#38bdf8" opacity="0.85"/><text x="449" y="286.4" fill="#7c8aa5" font-size="9">Evolve 4.0</text><circle cx="442" cy="323.2" r="4.5" fill="#38bdf8" opacity="0.85"/><text x="449" y="337.2" fill="#7c8aa5" font-size="9">Squirm3</text><circle cx="566" cy="323.2" r="4.5" fill="#38bdf8" opacity="0.85"/><text x="573" y="315.2" fill="#7c8aa5" font-size="9">Network Tierra</text><circle cx="318" cy="284.79999999999995" r="4.5" fill="#38bdf8" opacity="0.85"/><text x="325" y="298.79999999999995" fill="#7c8aa5" font-size="9">biosim4</text><circle cx="690" cy="304" r="4.5" fill="#38bdf8" opacity="0.85"/><text x="697" y="296" fill="#7c8aa5" font-size="9">GOLEM (Genetically Organized Lifelike Electro Mechanics)</text><circle cx="566" cy="352" r="4.5" fill="#38bdf8" opacity="0.85"/><text x="573" y="366" fill="#7c8aa5" font-size="9">Voxelyze / VoxCAD</text><circle cx="442" cy="275.20000000000005" r="4.5" fill="#38bdf8" opacity="0.85"/><text x="449" y="267.20000000000005" fill="#7c8aa5" font-size="9">3D Virtual Creature Evolution (3DVCE)</text><circle cx="504" cy="246.40000000000003" r="4.5" fill="#38bdf8" opacity="0.85"/><text x="511" y="260.40000000000003" fill="#7c8aa5" font-size="9">DERL (Deep Evolutionary Reinforcement Learning)</text><circle cx="442" cy="256" r="4.5" fill="#38bdf8" opacity="0.85"/><text x="449" y="248" fill="#7c8aa5" font-size="9">UNIMAL (Universal Animal design space)</text><circle cx="566" cy="284.79999999999995" r="4.5" fill="#38bdf8" opacity="0.85"/><text x="573" y="298.79999999999995" fill="#7c8aa5" font-size="9">Evolving Soft Robots (Cheney / Unshackling Evolution)</text><circle cx="504" cy="284.79999999999995" r="4.5" fill="#38bdf8" opacity="0.85"/><text x="511" y="276.79999999999995" fill="#7c8aa5" font-size="9">RoboGrammar</text><circle cx="442" cy="284.79999999999995" r="4.5" fill="#38bdf8" opacity="0.85"/><text x="449" y="298.79999999999995" fill="#7c8aa5" font-size="9">Transform2Act</text><circle cx="504" cy="342.4" r="4.5" fill="#38bdf8" opacity="0.85"/><text x="511" y="334.4" fill="#7c8aa5" font-size="9">NerveNet</text><circle cx="442" cy="275.20000000000005" r="4.5" fill="#38bdf8" opacity="0.85"/><text x="449" y="289.20000000000005" fill="#7c8aa5" font-size="9">Neural Graph Evolution (NGE)</text><circle cx="442" cy="313.6" r="4.5" fill="#38bdf8" opacity="0.85"/><text x="449" y="305.6" fill="#7c8aa5" font-size="9">Krcah Evolved Virtual Creatures (ERO)</text><circle cx="690" cy="304" r="4.5" fill="#38bdf8" opacity="0.85"/><text x="697" y="318" fill="#7c8aa5" font-size="9">NEAT (NeuroEvolution of Augmenting Topologies)</text><circle cx="566" cy="284.79999999999995" r="4.5" fill="#38bdf8" opacity="0.85"/><text x="573" y="276.79999999999995" fill="#7c8aa5" font-size="9">HyperNEAT</text><circle cx="442" cy="294.4" r="4.5" fill="#38bdf8" opacity="0.85"/><text x="449" y="308.4" fill="#7c8aa5" font-size="9">ES-HyperNEAT</text><circle cx="566" cy="294.4" r="4.5" fill="#38bdf8" opacity="0.85"/><text x="573" y="286.4" fill="#7c8aa5" font-size="9">Novelty Search</text><circle cx="690" cy="275.20000000000005" r="4.5" fill="#38bdf8" opacity="0.85"/><text x="697" y="289.20000000000005" fill="#7c8aa5" font-size="9">MAP-Elites</text><circle cx="566" cy="275.20000000000005" r="4.5" fill="#38bdf8" opacity="0.85"/><text x="573" y="267.20000000000005" fill="#7c8aa5" font-size="9">Quality-Diversity (illumination algorithms)</text><circle cx="566" cy="313.6" r="4.5" fill="#38bdf8" opacity="0.85"/><text x="573" y="327.6" fill="#7c8aa5" font-size="9">Go-Explore</text><circle cx="442" cy="294.4" r="4.5" fill="#38bdf8" opacity="0.85"/><text x="449" y="286.4" fill="#7c8aa5" font-size="9">OMNI (Open-endedness via Models of human Notions of Interestingness)</text><circle cx="442" cy="275.20000000000005" r="4.5" fill="#38bdf8" opacity="0.85"/><text x="449" y="289.20000000000005" fill="#7c8aa5" font-size="9">Minimal Criterion Coevolution (MCC)</text><circle cx="442" cy="294.4" r="4.5" fill="#38bdf8" opacity="0.85"/><text x="449" y="286.4" fill="#7c8aa5" font-size="9">Innovation Engines</text><circle cx="442" cy="294.4" r="4.5" fill="#38bdf8" opacity="0.85"/><text x="449" y="308.4" fill="#7c8aa5" font-size="9">EndlessForms</text><circle cx="690" cy="332.8" r="4.5" fill="#38bdf8" opacity="0.85"/><text x="697" y="324.8" fill="#7c8aa5" font-size="9">NetLogo</text><circle cx="566" cy="313.6" r="4.5" fill="#38bdf8" opacity="0.85"/><text x="573" y="327.6" fill="#7c8aa5" font-size="9">MASON</text><circle cx="566" cy="323.2" r="4.5" fill="#38bdf8" opacity="0.85"/><text x="573" y="315.2" fill="#7c8aa5" font-size="9">Repast</text><circle cx="566" cy="371.20000000000005" r="4.5" fill="#38bdf8" opacity="0.85"/><text x="573" y="385.20000000000005" fill="#7c8aa5" font-size="9">StarLogo</text><circle cx="442" cy="352" r="4.5" fill="#38bdf8" opacity="0.85"/><text x="449" y="344" fill="#7c8aa5" font-size="9">Ascape</text><circle cx="566" cy="304" r="4.5" fill="#38bdf8" opacity="0.85"/><text x="573" y="318" fill="#7c8aa5" font-size="9">GAMA Platform</text><circle cx="566" cy="332.8" r="4.5" fill="#38bdf8" opacity="0.85"/><text x="573" y="324.8" fill="#7c8aa5" font-size="9">Mesa</text><circle cx="442" cy="371.20000000000005" r="4.5" fill="#38bdf8" opacity="0.85"/><text x="449" y="385.20000000000005" fill="#7c8aa5" font-size="9">OpenSteer</text><circle cx="566" cy="371.20000000000005" r="4.5" fill="#38bdf8" opacity="0.85"/><text x="573" y="363.20000000000005" fill="#7c8aa5" font-size="9">Artificial Anasazi</text><circle cx="690" cy="400" r="4.5" fill="#38bdf8" opacity="0.85"/><text x="697" y="414" fill="#7c8aa5" font-size="9">Schelling Segregation Model</text><circle cx="566" cy="380.8" r="4.5" fill="#38bdf8" opacity="0.85"/><text x="573" y="372.8" fill="#7c8aa5" font-size="9">El Farol Bar Problem</text><circle cx="566" cy="332.8" r="4.5" fill="#38bdf8" opacity="0.85"/><text x="573" y="346.8" fill="#7c8aa5" font-size="9">Spore</text><circle cx="442" cy="342.4" r="4.5" fill="#38bdf8" opacity="0.85"/><text x="449" y="334.4" fill="#7c8aa5" font-size="9">SimLife: The Genetic Playground</text><circle cx="442" cy="380.8" r="4.5" fill="#38bdf8" opacity="0.85"/><text x="449" y="394.8" fill="#7c8aa5" font-size="9">SimEarth: The Living Planet</text><circle cx="442" cy="371.20000000000005" r="4.5" fill="#38bdf8" opacity="0.85"/><text x="449" y="363.20000000000005" fill="#7c8aa5" font-size="9">SimAnt: The Electric Ant Colony</text><circle cx="318" cy="313.6" r="4.5" fill="#38bdf8" opacity="0.85"/><text x="325" y="327.6" fill="#7c8aa5" font-size="9">Thrive</text><circle cx="442" cy="304" r="4.5" fill="#38bdf8" opacity="0.85"/><text x="449" y="296" fill="#7c8aa5" font-size="9">Cell Lab: Evolution Sandbox</text><circle cx="380" cy="265.6" r="4.5" fill="#38bdf8" opacity="0.85"/><text x="387" y="279.6" fill="#7c8aa5" font-size="9">Species: Artificial Life, Real Evolution</text><circle cx="380" cy="265.6" r="4.5" fill="#38bdf8" opacity="0.85"/><text x="387" y="257.6" fill="#7c8aa5" font-size="9">The Bibites</text><circle cx="442" cy="400" r="4.5" fill="#38bdf8" opacity="0.85"/><text x="449" y="414" fill="#7c8aa5" font-size="9">The Powder Toy</text><circle cx="442" cy="371.20000000000005" r="4.5" fill="#38bdf8" opacity="0.85"/><text x="449" y="363.20000000000005" fill="#7c8aa5" font-size="9">Noita</text><circle cx="318" cy="332.8" r="4.5" fill="#38bdf8" opacity="0.85"/><text x="325" y="346.8" fill="#7c8aa5" font-size="9">The Life Engine</text><circle cx="318" cy="371.20000000000005" r="4.5" fill="#38bdf8" opacity="0.85"/><text x="325" y="363.20000000000005" fill="#7c8aa5" font-size="9">Clusters (Particle Life)</text><circle cx="442" cy="371.20000000000005" r="4.5" fill="#38bdf8" opacity="0.85"/><text x="449" y="385.20000000000005" fill="#7c8aa5" font-size="9">Sandspiel</text><circle cx="318" cy="294.4" r="4.5" fill="#38bdf8" opacity="0.85"/><text x="325" y="286.4" fill="#7c8aa5" font-size="9">Sebastian Lague Ecosystem</text><circle cx="318" cy="352" r="4.5" fill="#38bdf8" opacity="0.85"/><text x="325" y="366" fill="#7c8aa5" font-size="9">Pezzza's Ant Colony Simulation</text><circle cx="318" cy="313.6" r="4.5" fill="#38bdf8" opacity="0.85"/><text x="325" y="305.6" fill="#7c8aa5" font-size="9">Primer Evolution Simulations</text><circle cx="442" cy="284.79999999999995" r="4.5" fill="#38bdf8" opacity="0.85"/><text x="449" y="298.79999999999995" fill="#7c8aa5" font-size="9">Keiwan Evolution</text><circle cx="566" cy="332.8" r="4.5" fill="#38bdf8" opacity="0.85"/><text x="573" y="324.8" fill="#7c8aa5" font-size="9">DevoWorm</text><circle cx="442" cy="361.6" r="4.5" fill="#38bdf8" opacity="0.85"/><text x="449" y="375.6" fill="#7c8aa5" font-size="9">Morphozoic</text><circle cx="442" cy="294.4" r="4.5" fill="#38bdf8" opacity="0.85"/><text x="449" y="286.4" fill="#7c8aa5" font-size="9">Chromaria</text><circle cx="442" cy="265.6" r="4.5" fill="#38bdf8" opacity="0.85"/><text x="449" y="279.6" fill="#7c8aa5" font-size="9">Division Blocks</text><circle cx="442" cy="304" r="4.5" fill="#38bdf8" opacity="0.85"/><text x="449" y="296" fill="#7c8aa5" font-size="9">Voyager (Minecraft LLM agent)</text><circle cx="566" cy="313.6" r="4.5" fill="#38bdf8" opacity="0.85"/><text x="573" y="327.6" fill="#7c8aa5" font-size="9">Generative Agents (Smallville)</text><circle cx="442" cy="284.79999999999995" r="4.5" fill="#38bdf8" opacity="0.85"/><text x="449" y="276.79999999999995" fill="#7c8aa5" font-size="9">OMNI-EPIC</text><circle cx="566" cy="323.2" r="4.5" fill="#38bdf8" opacity="0.85"/><text x="573" y="337.2" fill="#7c8aa5" font-size="9">Genie (Generative Interactive Environments)</text><circle cx="566" cy="284.79999999999995" r="4.5" fill="#38bdf8" opacity="0.85"/><text x="573" y="276.79999999999995" fill="#7c8aa5" font-size="9">Evolution through Large Models (ELM)</text><circle cx="442" cy="313.6" r="4.5" fill="#38bdf8" opacity="0.85"/><text x="449" y="327.6" fill="#7c8aa5" font-size="9">OpenELM</text><circle cx="442" cy="323.2" r="4.5" fill="#38bdf8" opacity="0.85"/><text x="449" y="315.2" fill="#7c8aa5" font-size="9">Automated Design of Agentic Systems (ADAS)</text><circle cx="442" cy="332.8" r="4.5" fill="#38bdf8" opacity="0.85"/><text x="449" y="346.8" fill="#7c8aa5" font-size="9">The AI Scientist</text><circle cx="442" cy="304" r="4.5" fill="#38bdf8" opacity="0.85"/><text x="449" y="296" fill="#7c8aa5" font-size="9">Darwin Godel Machine (DGM)</text><circle cx="442" cy="371.20000000000005" r="4.5" fill="#38bdf8" opacity="0.85"/><text x="449" y="385.20000000000005" fill="#7c8aa5" font-size="9">Promptbreeder</text><circle cx="442" cy="361.6" r="4.5" fill="#38bdf8" opacity="0.85"/><text x="449" y="353.6" fill="#7c8aa5" font-size="9">Quality-Diversity through AI Feedback (QDAIF)</text>
</svg>