<svg xmlns="http://www.w3.org/2000/svg" viewBox="0 0 680 332" font-family="ui-sans-serif,system-ui,Segoe UI,Roboto,sans-serif" role="img" aria-label="Nearest neighbours">
<rect width="680" height="332" rx="14" fill="#0b1220"/>
<text x="28" y="30" fill="#cbd5e1" font-size="18" font-weight="700">Nearest neighbours in 9-axis feature space</text><text x="28" y="50" fill="#7c8aa5" font-size="12">Euclidean distance from Cosmogonic (lower = more similar capability shape).</text><text x="140" y="83" fill="#cbd5e1" font-size="11" text-anchor="end">ALIEN</text><rect x="150" y="69" width="340.9461398017736" height="18" rx="3" fill="#34d399" opacity="0.78"/><text x="496.9461398017736" y="83" fill="#7c8aa5" font-size="10">4.45</text><text x="140" y="113" fill="#cbd5e1" font-size="11" text-anchor="end">Creatures</text><rect x="150" y="99" width="372.35915492957747" height="18" rx="3" fill="#34d399" opacity="0.78"/><text x="528.3591549295775" y="113" fill="#7c8aa5" font-size="10">4.86</text><text x="140" y="143" fill="#cbd5e1" font-size="11" text-anchor="end">Framsticks</text><rect x="150" y="129" width="406.0706833594156" height="18" rx="3" fill="#34d399" opacity="0.78"/><text x="562.0706833594156" y="143" fill="#7c8aa5" font-size="10">5.30</text><text x="140" y="173" fill="#cbd5e1" font-size="11" text-anchor="end">Division Blocks</text><rect x="150" y="159" width="411.43388106416273" height="18" rx="3" fill="#34d399" opacity="0.78"/><text x="567.4338810641627" y="173" fill="#7c8aa5" font-size="10">5.37</text><text x="140" y="203" fill="#cbd5e1" font-size="11" text-anchor="end">biosim4</text><rect x="150" y="189" width="424.4587897756911" height="18" rx="3" fill="#34d399" opacity="0.78"/><text x="580.4587897756911" y="203" fill="#7c8aa5" font-size="10">5.54</text><text x="140" y="233" fill="#cbd5e1" font-size="11" text-anchor="end">The Bibites</text><rect x="150" y="219" width="429.8219874804381" height="18" rx="3" fill="#34d399" opacity="0.78"/><text x="585.8219874804381" y="233" fill="#7c8aa5" font-size="10">5.61</text><text x="140" y="263" fill="#cbd5e1" font-size="11" text-anchor="end">Karl Sims VC</text><rect x="150" y="249" width="430.5881585811163" height="18" rx="3" fill="#34d399" opacity="0.78"/><text x="586.5881585811163" y="263" fill="#7c8aa5" font-size="10">5.62</text><text x="140" y="293" fill="#cbd5e1" font-size="11" text-anchor="end">Species: Artificial Life, Real Evolution</text><rect x="150" y="279" width="435.1851851851852" height="18" rx="3" fill="#34d399" opacity="0.78"/><text x="591.1851851851852" y="293" fill="#7c8aa5" font-size="10">5.68</text>
</svg>