<svg xmlns="http://www.w3.org/2000/svg" viewBox="0 0 760 2580" font-family="ui-sans-serif,system-ui,Segoe UI,Roboto,sans-serif" role="img" aria-label="Dendrogram">
<rect width="760" height="2580" rx="14" fill="#0b1220"/>
<text x="28" y="30" fill="#cbd5e1" font-size="18" font-weight="700">Capability dendrogram (average-linkage, Euclidean 9-axis)</text><text x="28" y="50" fill="#7c8aa5" font-size="12">leaves grouped by capability-shape similarity; join depth = merge distance.</text><text x="598" y="84" fill="#f59e0b" font-size="10" font-weight="700">COSMOGONIC</text><text x="598" y="106" fill="#cbd5e1" font-size="10" font-weight="400">OpenWorm</text><text x="598" y="128" fill="#cbd5e1" font-size="10" font-weight="400">NerveNet</text><path d="M297.19024466022154 103 H590" stroke="#34d399" stroke-width="1.3" fill="none" opacity="0.85"/><path d="M297.19024466022154 125 H590" stroke="#34d399" stroke-width="1.3" fill="none" opacity="0.85"/><path d="M297.19024466022154 103 V125" stroke="#34d399" stroke-width="1.3" fill="none" opacity="0.85"/><text x="598" y="150" fill="#cbd5e1" font-size="10" font-weight="400">The AI Scientist</text><text x="598" y="172" fill="#cbd5e1" font-size="10" font-weight="400">POET</text><text x="598" y="194" fill="#cbd5e1" font-size="10" font-weight="400">OMNI (Open-endedness via Models of human Notions of Interestingness)</text><path d="M590 169 H590" stroke="#34d399" stroke-width="1.3" fill="none" opacity="0.85"/><path d="M590 191 H590" stroke="#34d399" stroke-width="1.3" fill="none" opacity="0.85"/><path d="M590 169 V191" stroke="#34d399" stroke-width="1.3" fill="none" opacity="0.85"/><text x="598" y="216" fill="#cbd5e1" font-size="10" font-weight="400">Go-Explore</text><text x="598" y="238" fill="#cbd5e1" font-size="10" font-weight="400">Voyager (Minecraft LLM agent)</text><path d="M454.455421548475 213 H590" stroke="#34d399" stroke-width="1.3" fill="none" opacity="0.85"/><path d="M454.455421548475 235 H590" stroke="#34d399" stroke-width="1.3" fill="none" opacity="0.85"/><path d="M454.455421548475 213 V235" stroke="#34d399" stroke-width="1.3" fill="none" opacity="0.85"/><path d="M426.3832201980921 180 H590" stroke="#34d399" stroke-width="1.3" fill="none" opacity="0.85"/><path d="M426.3832201980921 224 H454.455421548475" stroke="#34d399" stroke-width="1.3" fill="none" opacity="0.85"/><path d="M426.3832201980921 180 V224" stroke="#34d399" stroke-width="1.3" fill="none" opacity="0.85"/><path d="M394.47132323619917 147 H590" stroke="#34d399" stroke-width="1.3" fill="none" opacity="0.85"/><path d="M394.47132323619917 202 H426.3832201980921" stroke="#34d399" stroke-width="1.3" fill="none" opacity="0.85"/><path d="M394.47132323619917 147 V202" stroke="#34d399" stroke-width="1.3" fill="none" opacity="0.85"/><text x="598" y="260" fill="#cbd5e1" font-size="10" font-weight="400">ASAL</text><text x="598" y="282" fill="#cbd5e1" font-size="10" font-weight="400">OMNI-EPIC</text><path d="M368.6566302620798 257 H590" stroke="#34d399" stroke-width="1.3" fill="none" opacity="0.85"/><path d="M368.6566302620798 279 H590" stroke="#34d399" stroke-width="1.3" fill="none" opacity="0.85"/><path d="M368.6566302620798 257 V279" stroke="#34d399" stroke-width="1.3" fill="none" opacity="0.85"/><path d="M360.803606150934 174.5 H394.47132323619917" stroke="#34d399" stroke-width="1.3" fill="none" opacity="0.85"/><path d="M360.803606150934 268 H368.6566302620798" stroke="#34d399" stroke-width="1.3" fill="none" opacity="0.85"/><path d="M360.803606150934 174.5 V268" stroke="#34d399" stroke-width="1.3" fill="none" opacity="0.85"/><text x="598" y="304" fill="#cbd5e1" font-size="10" font-weight="400">Promptbreeder</text><text x="598" y="326" fill="#cbd5e1" font-size="10" font-weight="400">Quality-Diversity through AI Feedback (QDAIF)</text><path d="M511.74330114381763 301 H590" stroke="#34d399" stroke-width="1.3" fill="none" opacity="0.85"/><path d="M511.74330114381763 323 H590" stroke="#34d399" stroke-width="1.3" fill="none" opacity="0.85"/><path d="M511.74330114381763 301 V323" stroke="#34d399" stroke-width="1.3" fill="none" opacity="0.85"/><text x="598" y="348" fill="#cbd5e1" font-size="10" font-weight="400">Automated Design of Agentic Systems (ADAS)</text><text x="598" y="370" fill="#cbd5e1" font-size="10" font-weight="400">Darwin Godel Machine (DGM)</text><path d="M479.32831513103986 345 H590" stroke="#34d399" stroke-width="1.3" fill="none" opacity="0.85"/><path d="M479.32831513103986 367 H590" stroke="#34d399" stroke-width="1.3" fill="none" opacity="0.85"/><path d="M479.32831513103986 345 V367" stroke="#34d399" stroke-width="1.3" fill="none" opacity="0.85"/><path d="M373.23423214421854 312 H511.74330114381763" stroke="#34d399" stroke-width="1.3" fill="none" opacity="0.85"/><path d="M373.23423214421854 356 H479.32831513103986" stroke="#34d399" stroke-width="1.3" fill="none" opacity="0.85"/><path d="M373.23423214421854 312 V356" stroke="#34d399" stroke-width="1.3" fill="none" opacity="0.85"/><text x="598" y="392" fill="#cbd5e1" font-size="10" font-weight="400">NEAT (NeuroEvolution of Augmenting Topologies)</text><text x="598" y="414" fill="#cbd5e1" font-size="10" font-weight="400">HyperNEAT</text><text x="598" y="436" fill="#cbd5e1" font-size="10" font-weight="400">ES-HyperNEAT</text><path d="M511.74330114381763 411 H590" stroke="#34d399" stroke-width="1.3" fill="none" opacity="0.85"/><path d="M511.74330114381763 433 H590" stroke="#34d399" stroke-width="1.3" fill="none" opacity="0.85"/><path d="M511.74330114381763 411 V433" stroke="#34d399" stroke-width="1.3" fill="none" opacity="0.85"/><path d="M466.8918683397574 389 H590" stroke="#34d399" stroke-width="1.3" fill="none" opacity="0.85"/><path d="M466.8918683397574 422 H511.74330114381763" stroke="#34d399" stroke-width="1.3" fill="none" opacity="0.85"/><path d="M466.8918683397574 389 V422" stroke="#34d399" stroke-width="1.3" fill="none" opacity="0.85"/><text x="598" y="458" fill="#cbd5e1" font-size="10" font-weight="400">Evolution through Large Models (ELM)</text><text x="598" y="480" fill="#cbd5e1" font-size="10" font-weight="400">MAP-Elites</text><text x="598" y="502" fill="#cbd5e1" font-size="10" font-weight="400">Quality-Diversity (illumination algorithms)</text><path d="M590 477 H590" stroke="#34d399" stroke-width="1.3" fill="none" opacity="0.85"/><path d="M590 499 H590" stroke="#34d399" stroke-width="1.3" fill="none" opacity="0.85"/><path d="M590 477 V499" stroke="#34d399" stroke-width="1.3" fill="none" opacity="0.85"/><text x="598" y="524" fill="#cbd5e1" font-size="10" font-weight="400">Novelty Search</text><text x="598" y="546" fill="#cbd5e1" font-size="10" font-weight="400">OpenELM</text><path d="M479.32831513103986 521 H590" stroke="#34d399" stroke-width="1.3" fill="none" opacity="0.85"/><path d="M479.32831513103986 543 H590" stroke="#34d399" stroke-width="1.3" fill="none" opacity="0.85"/><path d="M479.32831513103986 521 V543" stroke="#34d399" stroke-width="1.3" fill="none" opacity="0.85"/><path d="M433.4866022876353 488 H590" stroke="#34d399" stroke-width="1.3" fill="none" opacity="0.85"/><path d="M433.4866022876353 532 H479.32831513103986" stroke="#34d399" stroke-width="1.3" fill="none" opacity="0.85"/><path d="M433.4866022876353 488 V532" stroke="#34d399" stroke-width="1.3" fill="none" opacity="0.85"/><path d="M398.98246903225754 455 H590" stroke="#34d399" stroke-width="1.3" fill="none" opacity="0.85"/><path d="M398.98246903225754 510 H433.4866022876353" stroke="#34d399" stroke-width="1.3" fill="none" opacity="0.85"/><path d="M398.98246903225754 455 V510" stroke="#34d399" stroke-width="1.3" fill="none" opacity="0.85"/><path d="M373.0479858778375 405.5 H466.8918683397574" stroke="#34d399" stroke-width="1.3" fill="none" opacity="0.85"/><path d="M373.0479858778375 482.5 H398.98246903225754" stroke="#34d399" stroke-width="1.3" fill="none" opacity="0.85"/><path d="M373.0479858778375 405.5 V482.5" stroke="#34d399" stroke-width="1.3" fill="none" opacity="0.85"/><path d="M320.38412544256335 334 H373.23423214421854" stroke="#34d399" stroke-width="1.3" fill="none" opacity="0.85"/><path d="M320.38412544256335 444 H373.0479858778375" stroke="#34d399" stroke-width="1.3" fill="none" opacity="0.85"/><path d="M320.38412544256335 334 V444" stroke="#34d399" stroke-width="1.3" fill="none" opacity="0.85"/><path d="M250.36637861219833 221.25 H360.803606150934" stroke="#34d399" stroke-width="1.3" fill="none" opacity="0.85"/><path d="M250.36637861219833 389 H320.38412544256335" stroke="#34d399" stroke-width="1.3" fill="none" opacity="0.85"/><path d="M250.36637861219833 221.25 V389" stroke="#34d399" stroke-width="1.3" fill="none" opacity="0.85"/><text x="598" y="568" fill="#cbd5e1" font-size="10" font-weight="400">DERL (Deep Evolutionary Reinforcement Learning)</text><text x="598" y="590" fill="#cbd5e1" font-size="10" font-weight="400">UNIMAL (Universal Animal design space)</text><path d="M511.74330114381763 565 H590" stroke="#34d399" stroke-width="1.3" fill="none" opacity="0.85"/><path d="M511.74330114381763 587 H590" stroke="#34d399" stroke-width="1.3" fill="none" opacity="0.85"/><path d="M511.74330114381763 565 V587" stroke="#34d399" stroke-width="1.3" fill="none" opacity="0.85"/><text x="598" y="612" fill="#cbd5e1" font-size="10" font-weight="400">Transform2Act</text><text x="598" y="634" fill="#cbd5e1" font-size="10" font-weight="400">Neural Graph Evolution (NGE)</text><path d="M454.455421548475 609 H590" stroke="#34d399" stroke-width="1.3" fill="none" opacity="0.85"/><path d="M454.455421548475 631 H590" stroke="#34d399" stroke-width="1.3" fill="none" opacity="0.85"/><path d="M454.455421548475 609 V631" stroke="#34d399" stroke-width="1.3" fill="none" opacity="0.85"/><path d="M443.9710119180552 576 H511.74330114381763" stroke="#34d399" stroke-width="1.3" fill="none" opacity="0.85"/><path d="M443.9710119180552 620 H454.455421548475" stroke="#34d399" stroke-width="1.3" fill="none" opacity="0.85"/><path d="M443.9710119180552 576 V620" stroke="#34d399" stroke-width="1.3" fill="none" opacity="0.85"/><text x="598" y="656" fill="#cbd5e1" font-size="10" font-weight="400">Karl Sims VC</text><text x="598" y="678" fill="#cbd5e1" font-size="10" font-weight="400">3D Virtual Creature Evolution (3DVCE)</text><text x="598" y="700" fill="#cbd5e1" font-size="10" font-weight="400">Keiwan Evolution</text><path d="M511.74330114381763 675 H590" stroke="#34d399" stroke-width="1.3" fill="none" opacity="0.85"/><path d="M511.74330114381763 697 H590" stroke="#34d399" stroke-width="1.3" fill="none" opacity="0.85"/><path d="M511.74330114381763 675 V697" stroke="#34d399" stroke-width="1.3" fill="none" opacity="0.85"/><path d="M443.9710119180552 653 H590" stroke="#34d399" stroke-width="1.3" fill="none" opacity="0.85"/><path d="M443.9710119180552 686 H511.74330114381763" stroke="#34d399" stroke-width="1.3" fill="none" opacity="0.85"/><path d="M443.9710119180552 653 V686" stroke="#34d399" stroke-width="1.3" fill="none" opacity="0.85"/><text x="598" y="722" fill="#cbd5e1" font-size="10" font-weight="400">Evolving Soft Robots (Cheney / Unshackling Evolution)</text><text x="598" y="744" fill="#cbd5e1" font-size="10" font-weight="400">GOLEM (Genetically Organized Lifelike Electro Mechanics)</text><text x="598" y="766" fill="#cbd5e1" font-size="10" font-weight="400">Krcah Evolved Virtual Creatures (ERO)</text><path d="M454.455421548475 741 H590" stroke="#34d399" stroke-width="1.3" fill="none" opacity="0.85"/><path d="M454.455421548475 763 H590" stroke="#34d399" stroke-width="1.3" fill="none" opacity="0.85"/><path d="M454.455421548475 741 V763" stroke="#34d399" stroke-width="1.3" fill="none" opacity="0.85"/><path d="M424.24965197524085 719 H590" stroke="#34d399" stroke-width="1.3" fill="none" opacity="0.85"/><path d="M424.24965197524085 752 H454.455421548475" stroke="#34d399" stroke-width="1.3" fill="none" opacity="0.85"/><path d="M424.24965197524085 719 V752" stroke="#34d399" stroke-width="1.3" fill="none" opacity="0.85"/><path d="M405.0929511138756 669.5 H443.9710119180552" stroke="#34d399" stroke-width="1.3" fill="none" opacity="0.85"/><path d="M405.0929511138756 735.5 H424.24965197524085" stroke="#34d399" stroke-width="1.3" fill="none" opacity="0.85"/><path d="M405.0929511138756 669.5 V735.5" stroke="#34d399" stroke-width="1.3" fill="none" opacity="0.85"/><path d="M326.61307730338086 598 H443.9710119180552" stroke="#34d399" stroke-width="1.3" fill="none" opacity="0.85"/><path d="M326.61307730338086 702.5 H405.0929511138756" stroke="#34d399" stroke-width="1.3" fill="none" opacity="0.85"/><path d="M326.61307730338086 598 V702.5" stroke="#34d399" stroke-width="1.3" fill="none" opacity="0.85"/><text x="598" y="788" fill="#cbd5e1" font-size="10" font-weight="400">Cell Lab: Evolution Sandbox</text><text x="598" y="810" fill="#cbd5e1" font-size="10" font-weight="400">Primordial Particle Systems</text><text x="598" y="832" fill="#cbd5e1" font-size="10" font-weight="400">Squirm3</text><path d="M454.455421548475 807 H590" stroke="#34d399" stroke-width="1.3" fill="none" opacity="0.85"/><path d="M454.455421548475 829 H590" stroke="#34d399" stroke-width="1.3" fill="none" opacity="0.85"/><path d="M454.455421548475 807 V829" stroke="#34d399" stroke-width="1.3" fill="none" opacity="0.85"/><path d="M443.9710119180552 785 H590" stroke="#34d399" stroke-width="1.3" fill="none" opacity="0.85"/><path d="M443.9710119180552 818 H454.455421548475" stroke="#34d399" stroke-width="1.3" fill="none" opacity="0.85"/><path d="M443.9710119180552 785 V818" stroke="#34d399" stroke-width="1.3" fill="none" opacity="0.85"/><text x="598" y="854" fill="#cbd5e1" font-size="10" font-weight="400">Species: Artificial Life, Real Evolution</text><text x="598" y="876" fill="#cbd5e1" font-size="10" font-weight="400">Sebastian Lague Ecosystem</text><text x="598" y="898" fill="#cbd5e1" font-size="10" font-weight="400">Primer Evolution Simulations</text><path d="M479.32831513103986 873 H590" stroke="#34d399" stroke-width="1.3" fill="none" opacity="0.85"/><path d="M479.32831513103986 895 H590" stroke="#34d399" stroke-width="1.3" fill="none" opacity="0.85"/><path d="M479.32831513103986 873 V895" stroke="#34d399" stroke-width="1.3" fill="none" opacity="0.85"/><path d="M434.7340616056606 851 H590" stroke="#34d399" stroke-width="1.3" fill="none" opacity="0.85"/><path d="M434.7340616056606 884 H479.32831513103986" stroke="#34d399" stroke-width="1.3" fill="none" opacity="0.85"/><path d="M434.7340616056606 851 V884" stroke="#34d399" stroke-width="1.3" fill="none" opacity="0.85"/><path d="M403.17174688482504 801.5 H443.9710119180552" stroke="#34d399" stroke-width="1.3" fill="none" opacity="0.85"/><path d="M403.17174688482504 867.5 H434.7340616056606" stroke="#34d399" stroke-width="1.3" fill="none" opacity="0.85"/><path d="M403.17174688482504 801.5 V867.5" stroke="#34d399" stroke-width="1.3" fill="none" opacity="0.85"/><text x="598" y="920" fill="#cbd5e1" font-size="10" font-weight="400">Darwin Pond</text><text x="598" y="942" fill="#cbd5e1" font-size="10" font-weight="400">Gene Pool</text><path d="M472.61495171572653 917 H590" stroke="#34d399" stroke-width="1.3" fill="none" opacity="0.85"/><path d="M472.61495171572653 939 H590" stroke="#34d399" stroke-width="1.3" fill="none" opacity="0.85"/><path d="M472.61495171572653 917 V939" stroke="#34d399" stroke-width="1.3" fill="none" opacity="0.85"/><text x="598" y="964" fill="#cbd5e1" font-size="10" font-weight="400">Picbreeder</text><text x="598" y="986" fill="#cbd5e1" font-size="10" font-weight="400">EndlessForms</text><path d="M415.01270166284627 961 H590" stroke="#34d399" stroke-width="1.3" fill="none" opacity="0.85"/><path d="M415.01270166284627 983 H590" stroke="#34d399" stroke-width="1.3" fill="none" opacity="0.85"/><path d="M415.01270166284627 961 V983" stroke="#34d399" stroke-width="1.3" fill="none" opacity="0.85"/><path d="M389.18738121224175 928 H472.61495171572653" stroke="#34d399" stroke-width="1.3" fill="none" opacity="0.85"/><path d="M389.18738121224175 972 H415.01270166284627" stroke="#34d399" stroke-width="1.3" fill="none" opacity="0.85"/><path d="M389.18738121224175 928 V972" stroke="#34d399" stroke-width="1.3" fill="none" opacity="0.85"/><text x="598" y="1008" fill="#cbd5e1" font-size="10" font-weight="400">ALIEN</text><text x="598" y="1030" fill="#cbd5e1" font-size="10" font-weight="400">breve</text><text x="598" y="1052" fill="#cbd5e1" font-size="10" font-weight="400">Framsticks</text><text x="598" y="1074" fill="#cbd5e1" font-size="10" font-weight="400">Division Blocks</text><path d="M423.99247269655984 1049 H590" stroke="#34d399" stroke-width="1.3" fill="none" opacity="0.85"/><path d="M423.99247269655984 1071 H590" stroke="#34d399" stroke-width="1.3" fill="none" opacity="0.85"/><path d="M423.99247269655984 1049 V1071" stroke="#34d399" stroke-width="1.3" fill="none" opacity="0.85"/><path d="M395.3489527328736 1027 H590" stroke="#34d399" stroke-width="1.3" fill="none" opacity="0.85"/><path d="M395.3489527328736 1060 H423.99247269655984" stroke="#34d399" stroke-width="1.3" fill="none" opacity="0.85"/><path d="M395.3489527328736 1027 V1060" stroke="#34d399" stroke-width="1.3" fill="none" opacity="0.85"/><path d="M365.0302754355115 1005 H590" stroke="#34d399" stroke-width="1.3" fill="none" opacity="0.85"/><path d="M365.0302754355115 1043.5 H395.3489527328736" stroke="#34d399" stroke-width="1.3" fill="none" opacity="0.85"/><path d="M365.0302754355115 1005 V1043.5" stroke="#34d399" stroke-width="1.3" fill="none" opacity="0.85"/><path d="M344.7484064218702 950 H389.18738121224175" stroke="#34d399" stroke-width="1.3" fill="none" opacity="0.85"/><path d="M344.7484064218702 1024.25 H365.0302754355115" stroke="#34d399" stroke-width="1.3" fill="none" opacity="0.85"/><path d="M344.7484064218702 950 V1024.25" stroke="#34d399" stroke-width="1.3" fill="none" opacity="0.85"/><path d="M317.6166012075468 834.5 H403.17174688482504" stroke="#34d399" stroke-width="1.3" fill="none" opacity="0.85"/><path d="M317.6166012075468 987.125 H344.7484064218702" stroke="#34d399" stroke-width="1.3" fill="none" opacity="0.85"/><path d="M317.6166012075468 834.5 V987.125" stroke="#34d399" stroke-width="1.3" fill="none" opacity="0.85"/><text x="598" y="1096" fill="#cbd5e1" font-size="10" font-weight="400">Polyworld</text><text x="598" y="1118" fill="#cbd5e1" font-size="10" font-weight="400">Creatures</text><path d="M406.4717731866031 1093 H590" stroke="#34d399" stroke-width="1.3" fill="none" opacity="0.85"/><path d="M406.4717731866031 1115 H590" stroke="#34d399" stroke-width="1.3" fill="none" opacity="0.85"/><path d="M406.4717731866031 1093 V1115" stroke="#34d399" stroke-width="1.3" fill="none" opacity="0.85"/><text x="598" y="1140" fill="#cbd5e1" font-size="10" font-weight="400">Innovation Engines</text><text x="598" y="1162" fill="#cbd5e1" font-size="10" font-weight="400">Geb</text><text x="598" y="1184" fill="#cbd5e1" font-size="10" font-weight="400">MABE</text><text x="598" y="1206" fill="#cbd5e1" font-size="10" font-weight="400">Minimal Criterion Coevolution (MCC)</text><path d="M454.455421548475 1181 H590" stroke="#34d399" stroke-width="1.3" fill="none" opacity="0.85"/><path d="M454.455421548475 1203 H590" stroke="#34d399" stroke-width="1.3" fill="none" opacity="0.85"/><path d="M454.455421548475 1181 V1203" stroke="#34d399" stroke-width="1.3" fill="none" opacity="0.85"/><path d="M424.24965197524085 1159 H590" stroke="#34d399" stroke-width="1.3" fill="none" opacity="0.85"/><path d="M424.24965197524085 1192 H454.455421548475" stroke="#34d399" stroke-width="1.3" fill="none" opacity="0.85"/><path d="M424.24965197524085 1159 V1192" stroke="#34d399" stroke-width="1.3" fill="none" opacity="0.85"/><text x="598" y="1228" fill="#cbd5e1" font-size="10" font-weight="400">Chromaria</text><text x="598" y="1250" fill="#cbd5e1" font-size="10" font-weight="400">Evolve 4.0</text><text x="598" y="1272" fill="#cbd5e1" font-size="10" font-weight="400">biosim4</text><text x="598" y="1294" fill="#cbd5e1" font-size="10" font-weight="400">The Bibites</text><path d="M479.32831513103986 1269 H590" stroke="#34d399" stroke-width="1.3" fill="none" opacity="0.85"/><path d="M479.32831513103986 1291 H590" stroke="#34d399" stroke-width="1.3" fill="none" opacity="0.85"/><path d="M479.32831513103986 1269 V1291" stroke="#34d399" stroke-width="1.3" fill="none" opacity="0.85"/><path d="M454.455421548475 1247 H590" stroke="#34d399" stroke-width="1.3" fill="none" opacity="0.85"/><path d="M454.455421548475 1280 H479.32831513103986" stroke="#34d399" stroke-width="1.3" fill="none" opacity="0.85"/><path d="M454.455421548475 1247 V1280" stroke="#34d399" stroke-width="1.3" fill="none" opacity="0.85"/><path d="M390.5562473735856 1225 H590" stroke="#34d399" stroke-width="1.3" fill="none" opacity="0.85"/><path d="M390.5562473735856 1263.5 H454.455421548475" stroke="#34d399" stroke-width="1.3" fill="none" opacity="0.85"/><path d="M390.5562473735856 1225 V1263.5" stroke="#34d399" stroke-width="1.3" fill="none" opacity="0.85"/><path d="M369.1924167154189 1175.5 H424.24965197524085" stroke="#34d399" stroke-width="1.3" fill="none" opacity="0.85"/><path d="M369.1924167154189 1244.25 H390.5562473735856" stroke="#34d399" stroke-width="1.3" fill="none" opacity="0.85"/><path d="M369.1924167154189 1175.5 V1244.25" stroke="#34d399" stroke-width="1.3" fill="none" opacity="0.85"/><path d="M332.22318561398697 1137 H590" stroke="#34d399" stroke-width="1.3" fill="none" opacity="0.85"/><path d="M332.22318561398697 1209.875 H369.1924167154189" stroke="#34d399" stroke-width="1.3" fill="none" opacity="0.85"/><path d="M332.22318561398697 1137 V1209.875" stroke="#34d399" stroke-width="1.3" fill="none" opacity="0.85"/><path d="M312.4715234324316 1104 H406.4717731866031" stroke="#34d399" stroke-width="1.3" fill="none" opacity="0.85"/><path d="M312.4715234324316 1173.4375 H332.22318561398697" stroke="#34d399" stroke-width="1.3" fill="none" opacity="0.85"/><path d="M312.4715234324316 1104 V1173.4375" stroke="#34d399" stroke-width="1.3" fill="none" opacity="0.85"/><path d="M267.0093588872169 910.8125 H317.6166012075468" stroke="#34d399" stroke-width="1.3" fill="none" opacity="0.85"/><path d="M267.0093588872169 1138.71875 H312.4715234324316" stroke="#34d399" stroke-width="1.3" fill="none" opacity="0.85"/><path d="M267.0093588872169 910.8125 V1138.71875" stroke="#34d399" stroke-width="1.3" fill="none" opacity="0.85"/><path d="M248.21415369694355 650.25 H326.61307730338086" stroke="#34d399" stroke-width="1.3" fill="none" opacity="0.85"/><path d="M248.21415369694355 1024.765625 H267.0093588872169" stroke="#34d399" stroke-width="1.3" fill="none" opacity="0.85"/><path d="M248.21415369694355 650.25 V1024.765625" stroke="#34d399" stroke-width="1.3" fill="none" opacity="0.85"/><path d="M196.8869521407184 305.125 H250.36637861219833" stroke="#34d399" stroke-width="1.3" fill="none" opacity="0.85"/><path d="M196.8869521407184 837.5078125 H248.21415369694355" stroke="#34d399" stroke-width="1.3" fill="none" opacity="0.85"/><path d="M196.8869521407184 305.125 V837.5078125" stroke="#34d399" stroke-width="1.3" fill="none" opacity="0.85"/><text x="598" y="1316" fill="#cbd5e1" font-size="10" font-weight="400">Sugarscape</text><text x="598" y="1338" fill="#cbd5e1" font-size="10" font-weight="400">Swarm</text><path d="M502.5063508314231 1313 H590" stroke="#34d399" stroke-width="1.3" fill="none" opacity="0.85"/><path d="M502.5063508314231 1335 H590" stroke="#34d399" stroke-width="1.3" fill="none" opacity="0.85"/><path d="M502.5063508314231 1313 V1335" stroke="#34d399" stroke-width="1.3" fill="none" opacity="0.85"/><text x="598" y="1360" fill="#cbd5e1" font-size="10" font-weight="400">Echo</text><text x="598" y="1382" fill="#cbd5e1" font-size="10" font-weight="400">SimLife: The Genetic Playground</text><path d="M415.01270166284627 1357 H590" stroke="#34d399" stroke-width="1.3" fill="none" opacity="0.85"/><path d="M415.01270166284627 1379 H590" stroke="#34d399" stroke-width="1.3" fill="none" opacity="0.85"/><path d="M415.01270166284627 1357 V1379" stroke="#34d399" stroke-width="1.3" fill="none" opacity="0.85"/><path d="M401.2888361020981 1324 H502.5063508314231" stroke="#34d399" stroke-width="1.3" fill="none" opacity="0.85"/><path d="M401.2888361020981 1368 H415.01270166284627" stroke="#34d399" stroke-width="1.3" fill="none" opacity="0.85"/><path d="M401.2888361020981 1324 V1368" stroke="#34d399" stroke-width="1.3" fill="none" opacity="0.85"/><text x="598" y="1404" fill="#cbd5e1" font-size="10" font-weight="400">Tierra</text><text x="598" y="1426" fill="#cbd5e1" font-size="10" font-weight="400">Avida</text><path d="M448.92072981274526 1401 H590" stroke="#34d399" stroke-width="1.3" fill="none" opacity="0.85"/><path d="M448.92072981274526 1423 H590" stroke="#34d399" stroke-width="1.3" fill="none" opacity="0.85"/><path d="M448.92072981274526 1401 V1423" stroke="#34d399" stroke-width="1.3" fill="none" opacity="0.85"/><text x="598" y="1448" fill="#cbd5e1" font-size="10" font-weight="400">The Life Engine</text><text x="598" y="1470" fill="#cbd5e1" font-size="10" font-weight="400">Nanopond</text><text x="598" y="1492" fill="#cbd5e1" font-size="10" font-weight="400">Physis</text><path d="M479.32831513103986 1467 H590" stroke="#34d399" stroke-width="1.3" fill="none" opacity="0.85"/><path d="M479.32831513103986 1489 H590" stroke="#34d399" stroke-width="1.3" fill="none" opacity="0.85"/><path d="M479.32831513103986 1467 V1489" stroke="#34d399" stroke-width="1.3" fill="none" opacity="0.85"/><text x="598" y="1514" fill="#cbd5e1" font-size="10" font-weight="400">Network Tierra</text><text x="598" y="1536" fill="#cbd5e1" font-size="10" font-weight="400">Core War</text><text x="598" y="1558" fill="#cbd5e1" font-size="10" font-weight="400">Cosmos</text><text x="598" y="1580" fill="#cbd5e1" font-size="10" font-weight="400">Amoeba</text><path d="M590 1555 H590" stroke="#34d399" stroke-width="1.3" fill="none" opacity="0.85"/><path d="M590 1577 H590" stroke="#34d399" stroke-width="1.3" fill="none" opacity="0.85"/><path d="M590 1555 V1577" stroke="#34d399" stroke-width="1.3" fill="none" opacity="0.85"/><path d="M479.32831513103986 1533 H590" stroke="#34d399" stroke-width="1.3" fill="none" opacity="0.85"/><path d="M479.32831513103986 1566 H590" stroke="#34d399" stroke-width="1.3" fill="none" opacity="0.85"/><path d="M479.32831513103986 1533 V1566" stroke="#34d399" stroke-width="1.3" fill="none" opacity="0.85"/><path d="M464.04774418323836 1511 H590" stroke="#34d399" stroke-width="1.3" fill="none" opacity="0.85"/><path d="M464.04774418323836 1549.5 H479.32831513103986" stroke="#34d399" stroke-width="1.3" fill="none" opacity="0.85"/><path d="M464.04774418323836 1511 V1549.5" stroke="#34d399" stroke-width="1.3" fill="none" opacity="0.85"/><path d="M457.7407248847724 1478 H479.32831513103986" stroke="#34d399" stroke-width="1.3" fill="none" opacity="0.85"/><path d="M457.7407248847724 1530.25 H464.04774418323836" stroke="#34d399" stroke-width="1.3" fill="none" opacity="0.85"/><path d="M457.7407248847724 1478 V1530.25" stroke="#34d399" stroke-width="1.3" fill="none" opacity="0.85"/><path d="M435.96443737640243 1445 H590" stroke="#34d399" stroke-width="1.3" fill="none" opacity="0.85"/><path d="M435.96443737640243 1504.125 H457.7407248847724" stroke="#34d399" stroke-width="1.3" fill="none" opacity="0.85"/><path d="M435.96443737640243 1445 V1504.125" stroke="#34d399" stroke-width="1.3" fill="none" opacity="0.85"/><path d="M414.26015987842567 1412 H448.92072981274526" stroke="#34d399" stroke-width="1.3" fill="none" opacity="0.85"/><path d="M414.26015987842567 1474.5625 H435.96443737640243" stroke="#34d399" stroke-width="1.3" fill="none" opacity="0.85"/><path d="M414.26015987842567 1412 V1474.5625" stroke="#34d399" stroke-width="1.3" fill="none" opacity="0.85"/><text x="598" y="1602" fill="#cbd5e1" font-size="10" font-weight="400">Aevol</text><text x="598" y="1624" fill="#cbd5e1" font-size="10" font-weight="400">Avida-ED</text><path d="M398.31101884770936 1599 H590" stroke="#34d399" stroke-width="1.3" fill="none" opacity="0.85"/><path d="M398.31101884770936 1621 H590" stroke="#34d399" stroke-width="1.3" fill="none" opacity="0.85"/><path d="M398.31101884770936 1599 V1621" stroke="#34d399" stroke-width="1.3" fill="none" opacity="0.85"/><path d="M352.05739151599835 1443.28125 H414.26015987842567" stroke="#34d399" stroke-width="1.3" fill="none" opacity="0.85"/><path d="M352.05739151599835 1610 H398.31101884770936" stroke="#34d399" stroke-width="1.3" fill="none" opacity="0.85"/><path d="M352.05739151599835 1443.28125 V1610" stroke="#34d399" stroke-width="1.3" fill="none" opacity="0.85"/><path d="M323.23180044723404 1346 H401.2888361020981" stroke="#34d399" stroke-width="1.3" fill="none" opacity="0.85"/><path d="M323.23180044723404 1526.640625 H352.05739151599835" stroke="#34d399" stroke-width="1.3" fill="none" opacity="0.85"/><path d="M323.23180044723404 1346 V1526.640625" stroke="#34d399" stroke-width="1.3" fill="none" opacity="0.85"/><text x="598" y="1646" fill="#cbd5e1" font-size="10" font-weight="400">El Farol Bar Problem</text><text x="598" y="1668" fill="#cbd5e1" font-size="10" font-weight="400">Generative Agents (Smallville)</text><path d="M355.22990343145307 1643 H590" stroke="#34d399" stroke-width="1.3" fill="none" opacity="0.85"/><path d="M355.22990343145307 1665 H590" stroke="#34d399" stroke-width="1.3" fill="none" opacity="0.85"/><path d="M355.22990343145307 1643 V1665" stroke="#34d399" stroke-width="1.3" fill="none" opacity="0.85"/><text x="598" y="1690" fill="#cbd5e1" font-size="10" font-weight="400">Artificial Anasazi</text><text x="598" y="1712" fill="#cbd5e1" font-size="10" font-weight="400">Schelling Segregation Model</text><text x="598" y="1734" fill="#cbd5e1" font-size="10" font-weight="400">SimEarth: The Living Planet</text><text x="598" y="1756" fill="#cbd5e1" font-size="10" font-weight="400">SimAnt: The Electric Ant Colony</text><text x="598" y="1778" fill="#cbd5e1" font-size="10" font-weight="400">StarLogo</text><text x="598" y="1800" fill="#cbd5e1" font-size="10" font-weight="400">Ascape</text><path d="M479.32831513103986 1775 H590" stroke="#34d399" stroke-width="1.3" fill="none" opacity="0.85"/><path d="M479.32831513103986 1797 H590" stroke="#34d399" stroke-width="1.3" fill="none" opacity="0.85"/><path d="M479.32831513103986 1775 V1797" stroke="#34d399" stroke-width="1.3" fill="none" opacity="0.85"/><path d="M456.40745870933756 1753 H590" stroke="#34d399" stroke-width="1.3" fill="none" opacity="0.85"/><path d="M456.40745870933756 1786 H479.32831513103986" stroke="#34d399" stroke-width="1.3" fill="none" opacity="0.85"/><path d="M456.40745870933756 1753 V1786" stroke="#34d399" stroke-width="1.3" fill="none" opacity="0.85"/><path d="M430.6210264995396 1731 H590" stroke="#34d399" stroke-width="1.3" fill="none" opacity="0.85"/><path d="M430.6210264995396 1769.5 H456.40745870933756" stroke="#34d399" stroke-width="1.3" fill="none" opacity="0.85"/><path d="M430.6210264995396 1731 V1769.5" stroke="#34d399" stroke-width="1.3" fill="none" opacity="0.85"/><path d="M420.6979609304692 1709 H590" stroke="#34d399" stroke-width="1.3" fill="none" opacity="0.85"/><path d="M420.6979609304692 1750.25 H430.6210264995396" stroke="#34d399" stroke-width="1.3" fill="none" opacity="0.85"/><path d="M420.6979609304692 1709 V1750.25" stroke="#34d399" stroke-width="1.3" fill="none" opacity="0.85"/><path d="M401.17448798632995 1687 H590" stroke="#34d399" stroke-width="1.3" fill="none" opacity="0.85"/><path d="M401.17448798632995 1729.625 H420.6979609304692" stroke="#34d399" stroke-width="1.3" fill="none" opacity="0.85"/><path d="M401.17448798632995 1687 V1729.625" stroke="#34d399" stroke-width="1.3" fill="none" opacity="0.85"/><text x="598" y="1822" fill="#cbd5e1" font-size="10" font-weight="400">Boids</text><text x="598" y="1844" fill="#cbd5e1" font-size="10" font-weight="400">NetLogo</text><text x="598" y="1866" fill="#cbd5e1" font-size="10" font-weight="400">Mesa</text><path d="M590 1841 H590" stroke="#34d399" stroke-width="1.3" fill="none" opacity="0.85"/><path d="M590 1863 H590" stroke="#34d399" stroke-width="1.3" fill="none" opacity="0.85"/><path d="M590 1841 V1863" stroke="#34d399" stroke-width="1.3" fill="none" opacity="0.85"/><text x="598" y="1888" fill="#cbd5e1" font-size="10" font-weight="400">GAMA Platform</text><text x="598" y="1910" fill="#cbd5e1" font-size="10" font-weight="400">MASON</text><text x="598" y="1932" fill="#cbd5e1" font-size="10" font-weight="400">Repast</text><path d="M511.74330114381763 1907 H590" stroke="#34d399" stroke-width="1.3" fill="none" opacity="0.85"/><path d="M511.74330114381763 1929 H590" stroke="#34d399" stroke-width="1.3" fill="none" opacity="0.85"/><path d="M511.74330114381763 1907 V1929" stroke="#34d399" stroke-width="1.3" fill="none" opacity="0.85"/><path d="M495.5358081374288 1885 H590" stroke="#34d399" stroke-width="1.3" fill="none" opacity="0.85"/><path d="M495.5358081374288 1918 H511.74330114381763" stroke="#34d399" stroke-width="1.3" fill="none" opacity="0.85"/><path d="M495.5358081374288 1885 V1918" stroke="#34d399" stroke-width="1.3" fill="none" opacity="0.85"/><path d="M481.84234594111086 1852 H590" stroke="#34d399" stroke-width="1.3" fill="none" opacity="0.85"/><path d="M481.84234594111086 1901.5 H495.5358081374288" stroke="#34d399" stroke-width="1.3" fill="none" opacity="0.85"/><path d="M481.84234594111086 1852 V1901.5" stroke="#34d399" stroke-width="1.3" fill="none" opacity="0.85"/><path d="M400.3068615281376 1819 H590" stroke="#34d399" stroke-width="1.3" fill="none" opacity="0.85"/><path d="M400.3068615281376 1876.75 H481.84234594111086" stroke="#34d399" stroke-width="1.3" fill="none" opacity="0.85"/><path d="M400.3068615281376 1819 V1876.75" stroke="#34d399" stroke-width="1.3" fill="none" opacity="0.85"/><path d="M353.0953851046244 1708.3125 H401.17448798632995" stroke="#34d399" stroke-width="1.3" fill="none" opacity="0.85"/><path d="M353.0953851046244 1847.875 H400.3068615281376" stroke="#34d399" stroke-width="1.3" fill="none" opacity="0.85"/><path d="M353.0953851046244 1708.3125 V1847.875" stroke="#34d399" stroke-width="1.3" fill="none" opacity="0.85"/><path d="M297.666091446366 1654 H355.22990343145307" stroke="#34d399" stroke-width="1.3" fill="none" opacity="0.85"/><path d="M297.666091446366 1778.09375 H353.0953851046244" stroke="#34d399" stroke-width="1.3" fill="none" opacity="0.85"/><path d="M297.666091446366 1654 V1778.09375" stroke="#34d399" stroke-width="1.3" fill="none" opacity="0.85"/><path d="M205.07642794570629 1436.3203125 H323.23180044723404" stroke="#34d399" stroke-width="1.3" fill="none" opacity="0.85"/><path d="M205.07642794570629 1716.046875 H297.666091446366" stroke="#34d399" stroke-width="1.3" fill="none" opacity="0.85"/><path d="M205.07642794570629 1436.3203125 V1716.046875" stroke="#34d399" stroke-width="1.3" fill="none" opacity="0.85"/><text x="598" y="1954" fill="#cbd5e1" font-size="10" font-weight="400">Lenia</text><text x="598" y="1976" fill="#cbd5e1" font-size="10" font-weight="400">Particle Lenia</text><path d="M479.32831513103986 1951 H590" stroke="#34d399" stroke-width="1.3" fill="none" opacity="0.85"/><path d="M479.32831513103986 1973 H590" stroke="#34d399" stroke-width="1.3" fill="none" opacity="0.85"/><path d="M479.32831513103986 1951 V1973" stroke="#34d399" stroke-width="1.3" fill="none" opacity="0.85"/><text x="598" y="1998" fill="#cbd5e1" font-size="10" font-weight="400">Flow Lenia</text><text x="598" y="2020" fill="#cbd5e1" font-size="10" font-weight="400">Thrive</text><path d="M433.4866022876353 1995 H590" stroke="#34d399" stroke-width="1.3" fill="none" opacity="0.85"/><path d="M433.4866022876353 2017 H590" stroke="#34d399" stroke-width="1.3" fill="none" opacity="0.85"/><path d="M433.4866022876353 1995 V2017" stroke="#34d399" stroke-width="1.3" fill="none" opacity="0.85"/><path d="M392.0518857897036 1962 H479.32831513103986" stroke="#34d399" stroke-width="1.3" fill="none" opacity="0.85"/><path d="M392.0518857897036 2006 H433.4866022876353" stroke="#34d399" stroke-width="1.3" fill="none" opacity="0.85"/><path d="M392.0518857897036 1962 V2006" stroke="#34d399" stroke-width="1.3" fill="none" opacity="0.85"/><text x="598" y="2042" fill="#cbd5e1" font-size="10" font-weight="400">Clusters (Particle Life)</text><text x="598" y="2064" fill="#cbd5e1" font-size="10" font-weight="400">Spore</text><text x="598" y="2086" fill="#cbd5e1" font-size="10" font-weight="400">Noita</text><text x="598" y="2108" fill="#cbd5e1" font-size="10" font-weight="400">Sandspiel</text><path d="M479.32831513103986 2083 H590" stroke="#34d399" stroke-width="1.3" fill="none" opacity="0.85"/><path d="M479.32831513103986 2105 H590" stroke="#34d399" stroke-width="1.3" fill="none" opacity="0.85"/><path d="M479.32831513103986 2083 V2105" stroke="#34d399" stroke-width="1.3" fill="none" opacity="0.85"/><path d="M415.8988105676723 2061 H590" stroke="#34d399" stroke-width="1.3" fill="none" opacity="0.85"/><path d="M415.8988105676723 2094 H479.32831513103986" stroke="#34d399" stroke-width="1.3" fill="none" opacity="0.85"/><path d="M415.8988105676723 2061 V2094" stroke="#34d399" stroke-width="1.3" fill="none" opacity="0.85"/><path d="M410.0362133276847 2039 H590" stroke="#34d399" stroke-width="1.3" fill="none" opacity="0.85"/><path d="M410.0362133276847 2077.5 H415.8988105676723" stroke="#34d399" stroke-width="1.3" fill="none" opacity="0.85"/><path d="M410.0362133276847 2039 V2077.5" stroke="#34d399" stroke-width="1.3" fill="none" opacity="0.85"/><text x="598" y="2130" fill="#cbd5e1" font-size="10" font-weight="400">OpenSteer</text><text x="598" y="2152" fill="#cbd5e1" font-size="10" font-weight="400">Pezzza's Ant Colony Simulation</text><path d="M479.32831513103986 2127 H590" stroke="#34d399" stroke-width="1.3" fill="none" opacity="0.85"/><path d="M479.32831513103986 2149 H590" stroke="#34d399" stroke-width="1.3" fill="none" opacity="0.85"/><path d="M479.32831513103986 2127 V2149" stroke="#34d399" stroke-width="1.3" fill="none" opacity="0.85"/><text x="598" y="2174" fill="#cbd5e1" font-size="10" font-weight="400">The Powder Toy</text><text x="598" y="2196" fill="#cbd5e1" font-size="10" font-weight="400">SmoothLife</text><text x="598" y="2218" fill="#cbd5e1" font-size="10" font-weight="400">Larger than Life</text><path d="M590 2193 H590" stroke="#34d399" stroke-width="1.3" fill="none" opacity="0.85"/><path d="M590 2215 H590" stroke="#34d399" stroke-width="1.3" fill="none" opacity="0.85"/><path d="M590 2193 V2215" stroke="#34d399" stroke-width="1.3" fill="none" opacity="0.85"/><text x="598" y="2240" fill="#cbd5e1" font-size="10" font-weight="400">Gray-Scott Reaction-Diffusion</text><text x="598" y="2262" fill="#cbd5e1" font-size="10" font-weight="400">Morphozoic</text><path d="M479.32831513103986 2237 H590" stroke="#34d399" stroke-width="1.3" fill="none" opacity="0.85"/><path d="M479.32831513103986 2259 H590" stroke="#34d399" stroke-width="1.3" fill="none" opacity="0.85"/><path d="M479.32831513103986 2237 V2259" stroke="#34d399" stroke-width="1.3" fill="none" opacity="0.85"/><path d="M456.40745870933756 2204 H590" stroke="#34d399" stroke-width="1.3" fill="none" opacity="0.85"/><path d="M456.40745870933756 2248 H479.32831513103986" stroke="#34d399" stroke-width="1.3" fill="none" opacity="0.85"/><path d="M456.40745870933756 2204 V2248" stroke="#34d399" stroke-width="1.3" fill="none" opacity="0.85"/><path d="M433.4866022876353 2171 H590" stroke="#34d399" stroke-width="1.3" fill="none" opacity="0.85"/><path d="M433.4866022876353 2226 H456.40745870933756" stroke="#34d399" stroke-width="1.3" fill="none" opacity="0.85"/><path d="M433.4866022876353 2171 V2226" stroke="#34d399" stroke-width="1.3" fill="none" opacity="0.85"/><path d="M397.6767066368744 2138 H479.32831513103986" stroke="#34d399" stroke-width="1.3" fill="none" opacity="0.85"/><path d="M397.6767066368744 2198.5 H433.4866022876353" stroke="#34d399" stroke-width="1.3" fill="none" opacity="0.85"/><path d="M397.6767066368744 2138 V2198.5" stroke="#34d399" stroke-width="1.3" fill="none" opacity="0.85"/><path d="M385.81003163321515 2058.25 H410.0362133276847" stroke="#34d399" stroke-width="1.3" fill="none" opacity="0.85"/><path d="M385.81003163321515 2168.25 H397.6767066368744" stroke="#34d399" stroke-width="1.3" fill="none" opacity="0.85"/><path d="M385.81003163321515 2058.25 V2168.25" stroke="#34d399" stroke-width="1.3" fill="none" opacity="0.85"/><path d="M332.8828387803277 1984 H392.0518857897036" stroke="#34d399" stroke-width="1.3" fill="none" opacity="0.85"/><path d="M332.8828387803277 2113.25 H385.81003163321515" stroke="#34d399" stroke-width="1.3" fill="none" opacity="0.85"/><path d="M332.8828387803277 1984 V2113.25" stroke="#34d399" stroke-width="1.3" fill="none" opacity="0.85"/><text x="598" y="2284" fill="#cbd5e1" font-size="10" font-weight="400">Game of Life</text><text x="598" y="2306" fill="#cbd5e1" font-size="10" font-weight="400">Voxelyze / VoxCAD</text><text x="598" y="2328" fill="#cbd5e1" font-size="10" font-weight="400">Growing NCA</text><text x="598" y="2350" fill="#cbd5e1" font-size="10" font-weight="400">Genie (Generative Interactive Environments)</text><path d="M428.66968235190376 2325 H590" stroke="#34d399" stroke-width="1.3" fill="none" opacity="0.85"/><path d="M428.66968235190376 2347 H590" stroke="#34d399" stroke-width="1.3" fill="none" opacity="0.85"/><path d="M428.66968235190376 2325 V2347" stroke="#34d399" stroke-width="1.3" fill="none" opacity="0.85"/><text x="598" y="2372" fill="#cbd5e1" font-size="10" font-weight="400">DevoWorm</text><text x="598" y="2394" fill="#cbd5e1" font-size="10" font-weight="400">EvoGym</text><text x="598" y="2416" fill="#cbd5e1" font-size="10" font-weight="400">RoboGrammar</text><path d="M479.32831513103986 2391 H590" stroke="#34d399" stroke-width="1.3" fill="none" opacity="0.85"/><path d="M479.32831513103986 2413 H590" stroke="#34d399" stroke-width="1.3" fill="none" opacity="0.85"/><path d="M479.32831513103986 2391 V2413" stroke="#34d399" stroke-width="1.3" fill="none" opacity="0.85"/><path d="M369.09106991656085 2369 H590" stroke="#34d399" stroke-width="1.3" fill="none" opacity="0.85"/><path d="M369.09106991656085 2402 H479.32831513103986" stroke="#34d399" stroke-width="1.3" fill="none" opacity="0.85"/><path d="M369.09106991656085 2369 V2402" stroke="#34d399" stroke-width="1.3" fill="none" opacity="0.85"/><path d="M345.3950062505376 2336 H428.66968235190376" stroke="#34d399" stroke-width="1.3" fill="none" opacity="0.85"/><path d="M345.3950062505376 2385.5 H369.09106991656085" stroke="#34d399" stroke-width="1.3" fill="none" opacity="0.85"/><path d="M345.3950062505376 2336 V2385.5" stroke="#34d399" stroke-width="1.3" fill="none" opacity="0.85"/><path d="M309.3570989137957 2303 H590" stroke="#34d399" stroke-width="1.3" fill="none" opacity="0.85"/><path d="M309.3570989137957 2360.75 H345.3950062505376" stroke="#34d399" stroke-width="1.3" fill="none" opacity="0.85"/><path d="M309.3570989137957 2303 V2360.75" stroke="#34d399" stroke-width="1.3" fill="none" opacity="0.85"/><path d="M274.71768523132937 2281 H590" stroke="#34d399" stroke-width="1.3" fill="none" opacity="0.85"/><path d="M274.71768523132937 2331.875 H309.3570989137957" stroke="#34d399" stroke-width="1.3" fill="none" opacity="0.85"/><path d="M274.71768523132937 2281 V2331.875" stroke="#34d399" stroke-width="1.3" fill="none" opacity="0.85"/><path d="M267.6468483447382 2048.625 H332.8828387803277" stroke="#34d399" stroke-width="1.3" fill="none" opacity="0.85"/><path d="M267.6468483447382 2306.4375 H274.71768523132937" stroke="#34d399" stroke-width="1.3" fill="none" opacity="0.85"/><path d="M267.6468483447382 2048.625 V2306.4375" stroke="#34d399" stroke-width="1.3" fill="none" opacity="0.85"/><text x="598" y="2438" fill="#cbd5e1" font-size="10" font-weight="400">Rule 110</text><text x="598" y="2460" fill="#cbd5e1" font-size="10" font-weight="400">Wireworld</text><text x="598" y="2482" fill="#cbd5e1" font-size="10" font-weight="400">Langton's Ant</text><path d="M590 2457 H590" stroke="#34d399" stroke-width="1.3" fill="none" opacity="0.85"/><path d="M590 2479 H590" stroke="#34d399" stroke-width="1.3" fill="none" opacity="0.85"/><path d="M590 2457 V2479" stroke="#34d399" stroke-width="1.3" fill="none" opacity="0.85"/><path d="M590 2435 H590" stroke="#34d399" stroke-width="1.3" fill="none" opacity="0.85"/><path d="M590 2468 H590" stroke="#34d399" stroke-width="1.3" fill="none" opacity="0.85"/><path d="M590 2435 V2468" stroke="#34d399" stroke-width="1.3" fill="none" opacity="0.85"/><text x="598" y="2504" fill="#cbd5e1" font-size="10" font-weight="400">Biomorphs</text><text x="598" y="2526" fill="#cbd5e1" font-size="10" font-weight="400">Langton's Loops</text><text x="598" y="2548" fill="#cbd5e1" font-size="10" font-weight="400">von Neumann Universal Constructor</text><path d="M433.4866022876353 2523 H590" stroke="#34d399" stroke-width="1.3" fill="none" opacity="0.85"/><path d="M433.4866022876353 2545 H590" stroke="#34d399" stroke-width="1.3" fill="none" opacity="0.85"/><path d="M433.4866022876353 2523 V2545" stroke="#34d399" stroke-width="1.3" fill="none" opacity="0.85"/><path d="M330.4518925622086 2501 H590" stroke="#34d399" stroke-width="1.3" fill="none" opacity="0.85"/><path d="M330.4518925622086 2534 H433.4866022876353" stroke="#34d399" stroke-width="1.3" fill="none" opacity="0.85"/><path d="M330.4518925622086 2501 V2534" stroke="#34d399" stroke-width="1.3" fill="none" opacity="0.85"/><path d="M233.1120518105548 2451.5 H590" stroke="#34d399" stroke-width="1.3" fill="none" opacity="0.85"/><path d="M233.1120518105548 2517.5 H330.4518925622086" stroke="#34d399" stroke-width="1.3" fill="none" opacity="0.85"/><path d="M233.1120518105548 2451.5 V2517.5" stroke="#34d399" stroke-width="1.3" fill="none" opacity="0.85"/><path d="M184.02048570122292 2177.53125 H267.6468483447382" stroke="#34d399" stroke-width="1.3" fill="none" opacity="0.85"/><path d="M184.02048570122292 2484.5 H233.1120518105548" stroke="#34d399" stroke-width="1.3" fill="none" opacity="0.85"/><path d="M184.02048570122292 2177.53125 V2484.5" stroke="#34d399" stroke-width="1.3" fill="none" opacity="0.85"/><path d="M154.1942277752638 1576.18359375 H205.07642794570629" stroke="#34d399" stroke-width="1.3" fill="none" opacity="0.85"/><path d="M154.1942277752638 2331.015625 H184.02048570122292" stroke="#34d399" stroke-width="1.3" fill="none" opacity="0.85"/><path d="M154.1942277752638 1576.18359375 V2331.015625" stroke="#34d399" stroke-width="1.3" fill="none" opacity="0.85"/><path d="M144.50045968270786 571.31640625 H196.8869521407184" stroke="#34d399" stroke-width="1.3" fill="none" opacity="0.85"/><path d="M144.50045968270786 1953.599609375 H154.1942277752638" stroke="#34d399" stroke-width="1.3" fill="none" opacity="0.85"/><path d="M144.50045968270786 571.31640625 V1953.599609375" stroke="#34d399" stroke-width="1.3" fill="none" opacity="0.85"/><path d="M96.2934360898831 114 H297.19024466022154" stroke="#34d399" stroke-width="1.3" fill="none" opacity="0.85"/><path d="M96.2934360898831 1262.4580078125 H144.50045968270786" stroke="#34d399" stroke-width="1.3" fill="none" opacity="0.85"/><path d="M96.2934360898831 114 V1262.4580078125" stroke="#34d399" stroke-width="1.3" fill="none" opacity="0.85"/><path d="M30 81 H590" stroke="#f59e0b" stroke-width="1.3" fill="none" opacity="0.85"/><path d="M30 688.22900390625 H96.2934360898831" stroke="#f59e0b" stroke-width="1.3" fill="none" opacity="0.85"/><path d="M30 81 V688.22900390625" stroke="#f59e0b" stroke-width="1.3" fill="none" opacity="0.85"/>
</svg>