<svg xmlns="http://www.w3.org/2000/svg" viewBox="0 0 680 332" font-family="ui-sans-serif,system-ui,Segoe UI,Roboto,sans-serif" role="img" aria-label="Nearest neighbours">
<rect width="680" height="332" rx="14" fill="#0b1220"/>
<text x="28" y="30" fill="#cbd5e1" font-size="18" font-weight="700">Nearest neighbours in 9-axis feature space</text><text x="28" y="50" fill="#7c8aa5" font-size="12">Euclidean distance from Cosmogonic (lower = more similar capability shape).</text><text x="140" y="83" fill="#cbd5e1" font-size="11" text-anchor="end">ALIEN</text><rect x="150" y="69" width="346.6076696165191" height="18" rx="3" fill="#34d399" opacity="0.78"/><text x="502.6076696165191" y="83" fill="#7c8aa5" font-size="10">4.50</text><text x="140" y="113" fill="#cbd5e1" font-size="11" text-anchor="end">Creatures</text><rect x="150" y="99" width="382.80891510979995" height="18" rx="3" fill="#34d399" opacity="0.78"/><text x="538.8089151098" y="113" fill="#7c8aa5" font-size="10">4.97</text><text x="140" y="143" fill="#cbd5e1" font-size="11" text-anchor="end">Framsticks</text><rect x="150" y="129" width="408.9970501474925" height="18" rx="3" fill="#34d399" opacity="0.78"/><text x="564.9970501474925" y="143" fill="#7c8aa5" font-size="10">5.31</text><text x="140" y="173" fill="#cbd5e1" font-size="11" text-anchor="end">Division Blocks</text><rect x="150" y="159" width="411.307767944936" height="18" rx="3" fill="#34d399" opacity="0.78"/><text x="567.307767944936" y="173" fill="#7c8aa5" font-size="10">5.34</text><text x="140" y="203" fill="#cbd5e1" font-size="11" text-anchor="end">biosim4</text><rect x="150" y="189" width="425.1720747295967" height="18" rx="3" fill="#34d399" opacity="0.78"/><text x="581.1720747295967" y="203" fill="#7c8aa5" font-size="10">5.52</text><text x="140" y="233" fill="#cbd5e1" font-size="11" text-anchor="end">Karl Sims VC</text><rect x="150" y="219" width="428.2530317928547" height="18" rx="3" fill="#34d399" opacity="0.78"/><text x="584.2530317928547" y="233" fill="#7c8aa5" font-size="10">5.56</text><text x="140" y="263" fill="#cbd5e1" font-size="11" text-anchor="end">Species: Artificial Life, Real Evolution</text><rect x="150" y="249" width="433.6447066535561" height="18" rx="3" fill="#34d399" opacity="0.78"/><text x="589.6447066535561" y="263" fill="#7c8aa5" font-size="10">5.63</text><text x="140" y="293" fill="#cbd5e1" font-size="11" text-anchor="end">Neural Graph Evolution (NGE)</text><rect x="150" y="279" width="435.1851851851852" height="18" rx="3" fill="#34d399" opacity="0.78"/><text x="591.1851851851852" y="293" fill="#7c8aa5" font-size="10">5.65</text>
</svg>