<svg xmlns="http://www.w3.org/2000/svg" viewBox="0 0 760 600" font-family="ui-sans-serif,system-ui,Segoe UI,Roboto,sans-serif" role="img" aria-label="PCA projection">
<rect width="760" height="600" rx="14" fill="#0b1220"/>
<text x="28" y="30" fill="#cbd5e1" font-size="18" font-weight="700">PCA of the 26 systems (9-axis correlation-matrix eigenbasis)</text><text x="28" y="50" fill="#7c8aa5" font-size="12">PC1 31.9% var · PC2 23.6% var · together 55.4%. amber = this repo.</text><line x1="232.43122586872585" y1="70" x2="232.43122586872585" y2="540" stroke="#27344d" stroke-width="0.8"/><line x1="60" y1="250.21944177093366" x2="730" y2="250.21944177093366" stroke="#27344d" stroke-width="0.8"/><text x="730" y="544" fill="#7c8aa5" font-size="11" text-anchor="end">PC1 (generalist breadth →)</text><text x="54" y="62" fill="#7c8aa5" font-size="11">PC2</text><circle cx="730" cy="224.52550529355153" r="8" fill="#f59e0b"/><circle cx="730" cy="224.52550529355153" r="13" fill="none" stroke="#f59e0b" stroke-width="1.4" opacity="0.6"/><text x="718" y="212.52550529355153" fill="#f59e0b" font-size="11" font-weight="700" text-anchor="end">COSMOGONIC</text><circle cx="114.08180501930502" cy="460.02309913378247" r="4.5" fill="#38bdf8" opacity="0.85"/><text x="121.08180501930502" y="474.02309913378247" fill="#7c8aa5" font-size="9">Game of Life</text><circle cx="135.1001447876448" cy="430.167468719923" r="4.5" fill="#38bdf8" opacity="0.85"/><text x="142.1001447876448" y="422.167468719923" fill="#7c8aa5" font-size="9">Boids</text><circle cx="102.19835907335907" cy="295.3647738209818" r="4.5" fill="#38bdf8" opacity="0.85"/><text x="109.19835907335907" y="309.3647738209818" fill="#7c8aa5" font-size="9">Biomorphs</text><circle cx="68.9732142857143" cy="185.07988450433112" r="4.5" fill="#38bdf8" opacity="0.85"/><text x="75.9732142857143" y="177.07988450433112" fill="#7c8aa5" font-size="9">Core War</text><circle cx="60" cy="117.94995187680468" r="4.5" fill="#38bdf8" opacity="0.85"/><text x="67" y="131.94995187680468" fill="#7c8aa5" font-size="9">Tierra</text><circle cx="110.28233590733592" cy="138.2155919153032" r="4.5" fill="#38bdf8" opacity="0.85"/><text x="117.28233590733592" y="130.2155919153032" fill="#7c8aa5" font-size="9">Avida</text><circle cx="283.9261583011583" cy="84.20404234841192" r="4.5" fill="#38bdf8" opacity="0.85"/><text x="290.9261583011583" y="98.20404234841192" fill="#7c8aa5" font-size="9">Polyworld</text><circle cx="297.18388030888036" cy="183.54186717998073" r="4.5" fill="#38bdf8" opacity="0.85"/><text x="304.18388030888036" y="175.54186717998073" fill="#7c8aa5" font-size="9">Framsticks</text><circle cx="280.9350868725869" cy="258" r="4.5" fill="#38bdf8" opacity="0.85"/><text x="287.9350868725869" y="272" fill="#7c8aa5" font-size="9">Karl Sims VC</text><circle cx="379.640444015444" cy="70" r="4.5" fill="#38bdf8" opacity="0.85"/><text x="386.640444015444" y="62" fill="#7c8aa5" font-size="9">Creatures</text><circle cx="197.42760617760615" cy="114.15014436958614" r="4.5" fill="#38bdf8" opacity="0.85"/><text x="204.42760617760615" y="128.15014436958614" fill="#7c8aa5" font-size="9">Darwin Pond</text><circle cx="224.99396718146716" cy="119.48796920115501" r="4.5" fill="#38bdf8" opacity="0.85"/><text x="231.99396718146716" y="111.48796920115501" fill="#7c8aa5" font-size="9">Gene Pool</text><circle cx="155.55260617760615" cy="215.93070259865254" r="4.5" fill="#38bdf8" opacity="0.85"/><text x="162.55260617760615" y="229.93070259865254" fill="#7c8aa5" font-size="9">Sugarscape</text><circle cx="118.12379343629345" cy="162.10009624639082" r="4.5" fill="#38bdf8" opacity="0.85"/><text x="125.12379343629345" y="154.10009624639082" fill="#7c8aa5" font-size="9">Echo</text><circle cx="151.75313706563705" cy="223.80173243503373" r="4.5" fill="#38bdf8" opacity="0.85"/><text x="158.75313706563705" y="237.80173243503373" fill="#7c8aa5" font-size="9">Swarm</text><circle cx="249.4075772200772" cy="237.91530317613092" r="4.5" fill="#38bdf8" opacity="0.85"/><text x="256.4075772200772" y="229.91530317613092" fill="#7c8aa5" font-size="9">breve</text><circle cx="246.33566602316603" cy="176.66602502406164" r="4.5" fill="#38bdf8" opacity="0.85"/><text x="253.33566602316603" y="190.66602502406164" fill="#7c8aa5" font-size="9">Picbreeder</text><circle cx="183.76568532818533" cy="171.50914340712234" r="4.5" fill="#38bdf8" opacity="0.85"/><text x="190.76568532818533" y="163.50914340712234" fill="#7c8aa5" font-size="9">MABE</text><circle cx="180.53209459459458" cy="384.11742059672764" r="4.5" fill="#38bdf8" opacity="0.85"/><text x="187.53209459459458" y="398.11742059672764" fill="#7c8aa5" font-size="9">Lenia</text><circle cx="234.77557915057912" cy="488.2502406159769" r="4.5" fill="#38bdf8" opacity="0.85"/><text x="241.77557915057912" y="480.2502406159769" fill="#7c8aa5" font-size="9">Growing NCA</text><circle cx="395.72755791505796" cy="540" r="4.5" fill="#38bdf8" opacity="0.85"/><text x="402.72755791505796" y="554" fill="#7c8aa5" font-size="9">OpenWorm</text><circle cx="202.03547297297297" cy="277.3609239653513" r="4.5" fill="#38bdf8" opacity="0.85"/><text x="209.03547297297297" y="269.3609239653513" fill="#7c8aa5" font-size="9">POET</text><circle cx="236.79657335907334" cy="470.42733397497597" r="4.5" fill="#38bdf8" opacity="0.85"/><text x="243.79657335907334" y="484.42733397497597" fill="#7c8aa5" font-size="9">EvoGym</text><circle cx="417.8776544401544" cy="174.4042348411935" r="4.5" fill="#38bdf8" opacity="0.85"/><text x="424.8776544401544" y="166.4042348411935" fill="#7c8aa5" font-size="9">ALIEN</text><circle cx="285.78547297297297" cy="302.33108758421565" r="4.5" fill="#38bdf8" opacity="0.85"/><text x="292.78547297297297" y="316.33108758421565" fill="#7c8aa5" font-size="9">ASAL</text>
</svg>