<svg xmlns="http://www.w3.org/2000/svg" viewBox="0 0 760 600" font-family="ui-sans-serif,system-ui,Segoe UI,Roboto,sans-serif" role="img" aria-label="PCA projection">
<rect width="760" height="600" rx="14" fill="#0b1220"/>
<text x="28" y="30" fill="#cbd5e1" font-size="18" font-weight="700">PCA of 113 A-Life systems (9-axis correlation-matrix eigenbasis)</text><text x="28" y="50" fill="#7c8aa5" font-size="12">PC1 25.0% var · PC2 21.8% var · together 46.7%. amber = this repo.</text><line x1="169.6174990321332" y1="70" x2="169.6174990321332" y2="540" stroke="#27344d" stroke-width="0.8"/><line x1="60" y1="318.27288941736026" x2="730" y2="318.27288941736026" stroke="#27344d" stroke-width="0.8"/><text x="730" y="544" fill="#7c8aa5" font-size="11" text-anchor="end">PC1 (generalist breadth →)</text><text x="54" y="62" fill="#7c8aa5" font-size="11">PC2</text><circle cx="730" cy="174.8558263971462" r="8" fill="#f59e0b"/><circle cx="730" cy="174.8558263971462" r="13" fill="none" stroke="#f59e0b" stroke-width="1.4" opacity="0.6"/><text x="718" y="162.8558263971462" fill="#f59e0b" font-size="11" font-weight="700" text-anchor="end">COSMOGONIC</text><circle cx="137.60898180410376" cy="308.3531510107016" r="4.5" fill="#38bdf8" opacity="0.85"/><text x="144.60898180410376" y="322.3531510107016" fill="#7c8aa5" font-size="9">Game of Life</text><circle cx="120.80061943476579" cy="222.70808561236623" r="4.5" fill="#38bdf8" opacity="0.85"/><text x="127.80061943476579" y="214.70808561236623" fill="#7c8aa5" font-size="9">Boids</text><circle cx="128.16724738675958" cy="247.99643281807374" r="4.5" fill="#38bdf8" opacity="0.85"/><text x="135.16724738675958" y="261.99643281807374" fill="#7c8aa5" font-size="9">Biomorphs</text><circle cx="116.44289585753" cy="423.3382877526754" r="4.5" fill="#38bdf8" opacity="0.85"/><text x="123.44289585753" y="415.3382877526754" fill="#7c8aa5" font-size="9">Core War</text><circle cx="123.55013550135502" cy="455.332936979786" r="4.5" fill="#38bdf8" opacity="0.85"/><text x="130.55013550135502" y="469.332936979786" fill="#7c8aa5" font-size="9">Tierra</text><circle cx="150.99341850561365" cy="462.31866825208084" r="4.5" fill="#38bdf8" opacity="0.85"/><text x="157.99341850561365" y="454.31866825208084" fill="#7c8aa5" font-size="9">Avida</text><circle cx="244.4769647696477" cy="368.0811533888228" r="4.5" fill="#38bdf8" opacity="0.85"/><text x="251.4769647696477" y="382.0811533888228" fill="#7c8aa5" font-size="9">Polyworld</text><circle cx="270.83081687959736" cy="346.84453032104636" r="4.5" fill="#38bdf8" opacity="0.85"/><text x="277.83081687959736" y="338.84453032104636" fill="#7c8aa5" font-size="9">Framsticks</text><circle cx="226.78668215253583" cy="271.60820451843045" r="4.5" fill="#38bdf8" opacity="0.85"/><text x="233.78668215253583" y="285.60820451843045" fill="#7c8aa5" font-size="9">Karl Sims VC</text><circle cx="373.18544328300425" cy="286.62752675386446" r="4.5" fill="#38bdf8" opacity="0.85"/><text x="380.18544328300425" y="278.62752675386446" fill="#7c8aa5" font-size="9">Creatures</text><circle cx="191.30236159504454" cy="300.3894173602854" r="4.5" fill="#38bdf8" opacity="0.85"/><text x="198.30236159504454" y="314.3894173602854" fill="#7c8aa5" font-size="9">Darwin Pond</text><circle cx="209.61517615176152" cy="304.8602853745541" r="4.5" fill="#38bdf8" opacity="0.85"/><text x="216.61517615176152" y="296.8602853745541" fill="#7c8aa5" font-size="9">Gene Pool</text><circle cx="158.9307007355788" cy="415.723840665874" r="4.5" fill="#38bdf8" opacity="0.85"/><text x="165.9307007355788" y="429.723840665874" fill="#7c8aa5" font-size="9">Sugarscape</text><circle cx="141.96670538133952" cy="432.00059453032105" r="4.5" fill="#38bdf8" opacity="0.85"/><text x="148.96670538133952" y="424.00059453032105" fill="#7c8aa5" font-size="9">Echo</text><circle cx="149.85210994967093" cy="388.40963139120095" r="4.5" fill="#38bdf8" opacity="0.85"/><text x="156.85210994967093" y="402.40963139120095" fill="#7c8aa5" font-size="9">Swarm</text><circle cx="207.90321331784747" cy="278.52407847800237" r="4.5" fill="#38bdf8" opacity="0.85"/><text x="214.90321331784747" y="270.52407847800237" fill="#7c8aa5" font-size="9">breve</text><circle cx="221.08013937282232" cy="317.78388822829965" r="4.5" fill="#38bdf8" opacity="0.85"/><text x="228.08013937282232" y="331.78388822829965" fill="#7c8aa5" font-size="9">Picbreeder</text><circle cx="191.71738288811463" cy="467.2086801426873" r="4.5" fill="#38bdf8" opacity="0.85"/><text x="198.71738288811463" y="459.2086801426873" fill="#7c8aa5" font-size="9">MABE</text><circle cx="163.8590785907859" cy="184.98513674197386" r="4.5" fill="#38bdf8" opacity="0.85"/><text x="170.8590785907859" y="198.98513674197386" fill="#7c8aa5" font-size="9">Lenia</text><circle cx="206.0874951606659" cy="220.9616527942925" r="4.5" fill="#38bdf8" opacity="0.85"/><text x="213.0874951606659" y="212.9616527942925" fill="#7c8aa5" font-size="9">Growing NCA</text><circle cx="394.8184281842819" cy="164.4470868014269" r="4.5" fill="#38bdf8" opacity="0.85"/><text x="401.8184281842819" y="178.4470868014269" fill="#7c8aa5" font-size="9">OpenWorm</text><circle cx="189.07162214479288" cy="445.1337693222354" r="4.5" fill="#38bdf8" opacity="0.85"/><text x="196.07162214479288" y="437.1337693222354" fill="#7c8aa5" font-size="9">POET</text><circle cx="203.90863337204803" cy="321.8356123662307" r="4.5" fill="#38bdf8" opacity="0.85"/><text x="210.90863337204803" y="335.8356123662307" fill="#7c8aa5" font-size="9">EvoGym</text><circle cx="412.87185443283005" cy="245.41171224732466" r="4.5" fill="#38bdf8" opacity="0.85"/><text x="419.87185443283005" y="237.41171224732466" fill="#7c8aa5" font-size="9">ALIEN</text><circle cx="272.80216802168025" cy="332.87306777645665" r="4.5" fill="#38bdf8" opacity="0.85"/><text x="279.80216802168025" y="346.87306777645665" fill="#7c8aa5" font-size="9">ASAL</text><circle cx="60" cy="229.06510107015464" r="4.5" fill="#38bdf8" opacity="0.85"/><text x="67" y="221.06510107015464" fill="#7c8aa5" font-size="9">Wireworld</text><circle cx="60" cy="229.06510107015464" r="4.5" fill="#38bdf8" opacity="0.85"/><text x="67" y="243.06510107015464" fill="#7c8aa5" font-size="9">Langton's Ant</text><circle cx="91.95663956639567" cy="262.8760404280618" r="4.5" fill="#38bdf8" opacity="0.85"/><text x="98.95663956639567" y="254.8760404280618" fill="#7c8aa5" font-size="9">Langton's Loops</text><circle cx="78.46844754161827" cy="289.4916765755054" r="4.5" fill="#38bdf8" opacity="0.85"/><text x="85.46844754161827" y="303.4916765755054" fill="#7c8aa5" font-size="9">von Neumann Universal Constructor</text><circle cx="60" cy="229.06510107015464" r="4.5" fill="#38bdf8" opacity="0.85"/><text x="67" y="221.06510107015464" fill="#7c8aa5" font-size="9">Rule 110</text><circle cx="126.97406116918313" cy="177.1611177170036" r="4.5" fill="#38bdf8" opacity="0.85"/><text x="133.97406116918313" y="191.1611177170036" fill="#7c8aa5" font-size="9">SmoothLife</text><circle cx="126.97406116918313" cy="177.1611177170036" r="4.5" fill="#38bdf8" opacity="0.85"/><text x="133.97406116918313" y="169.1611177170036" fill="#7c8aa5" font-size="9">Larger than Life</text><circle cx="195.296941540844" cy="250.09215219976215" r="4.5" fill="#38bdf8" opacity="0.85"/><text x="202.296941540844" y="264.09215219976215" fill="#7c8aa5" font-size="9">Flow Lenia</text><circle cx="156.85559427022844" cy="201.192033293698" r="4.5" fill="#38bdf8" opacity="0.85"/><text x="163.85559427022844" y="193.192033293698" fill="#7c8aa5" font-size="9">Particle Lenia</text><circle cx="152.03097173828883" cy="240.03269916765754" r="4.5" fill="#38bdf8" opacity="0.85"/><text x="159.03097173828883" y="254.03269916765754" fill="#7c8aa5" font-size="9">Primordial Particle Systems</text><circle cx="127.44096012388697" cy="176.53240190249704" r="4.5" fill="#38bdf8" opacity="0.85"/><text x="134.44096012388695" y="168.53240190249704" fill="#7c8aa5" font-size="9">Gray-Scott Reaction-Diffusion</text><circle cx="124.74332171893147" cy="411.532401902497" r="4.5" fill="#38bdf8" opacity="0.85"/><text x="131.74332171893147" y="425.532401902497" fill="#7c8aa5" font-size="9">Aevol</text><circle cx="149.43708865660085" cy="415.02526753864447" r="4.5" fill="#38bdf8" opacity="0.85"/><text x="156.43708865660085" y="407.02526753864447" fill="#7c8aa5" font-size="9">Avida-ED</text><circle cx="110.47696476964771" cy="366.8935790725327" r="4.5" fill="#38bdf8" opacity="0.85"/><text x="117.47696476964771" y="380.8935790725327" fill="#7c8aa5" font-size="9">Nanopond</text><circle cx="102.28029423151375" cy="347.82253269916765" r="4.5" fill="#38bdf8" opacity="0.85"/><text x="109.28029423151375" y="339.82253269916765" fill="#7c8aa5" font-size="9">Physis</text><circle cx="114.36778939217965" cy="376.67360285374554" r="4.5" fill="#38bdf8" opacity="0.85"/><text x="121.36778939217965" y="390.67360285374554" fill="#7c8aa5" font-size="9">Cosmos</text><circle cx="199.70654277971352" cy="510.3106420927467" r="4.5" fill="#38bdf8" opacity="0.85"/><text x="206.70654277971352" y="502.3106420927467" fill="#7c8aa5" font-size="9">Geb</text><circle cx="114.36778939217965" cy="376.67360285374554" r="4.5" fill="#38bdf8" opacity="0.85"/><text x="121.36778939217965" y="390.67360285374554" fill="#7c8aa5" font-size="9">Amoeba</text><circle cx="171.0181958962447" cy="347.4033888228299" r="4.5" fill="#38bdf8" opacity="0.85"/><text x="178.0181958962447" y="339.4033888228299" fill="#7c8aa5" font-size="9">Evolve 4.0</text><circle cx="143.78242353852113" cy="280.96908442330556" r="4.5" fill="#38bdf8" opacity="0.85"/><text x="150.78242353852113" y="294.96908442330556" fill="#7c8aa5" font-size="9">Squirm3</text><circle cx="122.56445993031359" cy="395.7446492271106" r="4.5" fill="#38bdf8" opacity="0.85"/><text x="129.5644599303136" y="387.7446492271106" fill="#7c8aa5" font-size="9">Network Tierra</text><circle cx="183.1056910569106" cy="363.33085612366233" r="4.5" fill="#38bdf8" opacity="0.85"/><text x="190.1056910569106" y="377.33085612366233" fill="#7c8aa5" font-size="9">biosim4</text><circle cx="180.97870692992643" cy="281.737514863258" r="4.5" fill="#38bdf8" opacity="0.85"/><text x="187.97870692992643" y="273.737514863258" fill="#7c8aa5" font-size="9">GOLEM (Genetically Organized Lifelike Electro Mechanics)</text><circle cx="144.09368950832368" cy="203.1480380499405" r="4.5" fill="#38bdf8" opacity="0.85"/><text x="151.09368950832368" y="217.1480380499405" fill="#7c8aa5" font-size="9">Voxelyze / VoxCAD</text><circle cx="205.15369725125825" cy="272.93549346016647" r="4.5" fill="#38bdf8" opacity="0.85"/><text x="212.15369725125825" y="264.93549346016647" fill="#7c8aa5" font-size="9">3D Virtual Creature Evolution (3DVCE)</text><circle cx="236.07278358497874" cy="385.47562425683714" r="4.5" fill="#38bdf8" opacity="0.85"/><text x="243.07278358497874" y="399.47562425683714" fill="#7c8aa5" font-size="9">DERL (Deep Evolutionary Reinforcement Learning)</text><circle cx="231.30003871467287" cy="370.526159334126" r="4.5" fill="#38bdf8" opacity="0.85"/><text x="238.30003871467287" y="362.526159334126" fill="#7c8aa5" font-size="9">UNIMAL (Universal Animal design space)</text><circle cx="190.62795199380565" cy="264.48275862068965" r="4.5" fill="#38bdf8" opacity="0.85"/><text x="197.62795199380565" y="278.48275862068965" fill="#7c8aa5" font-size="9">Evolving Soft Robots (Cheney / Unshackling Evolution)</text><circle cx="203.44173441734418" cy="322.5341854934602" r="4.5" fill="#38bdf8" opacity="0.85"/><text x="210.44173441734418" y="314.5341854934602" fill="#7c8aa5" font-size="9">RoboGrammar</text><circle cx="202.61169183120404" cy="387.9904875148633" r="4.5" fill="#38bdf8" opacity="0.85"/><text x="209.61169183120404" y="401.9904875148633" fill="#7c8aa5" font-size="9">Transform2Act</text><circle cx="161.5764614789005" cy="304.5109988109393" r="4.5" fill="#38bdf8" opacity="0.85"/><text x="168.5764614789005" y="296.5109988109393" fill="#7c8aa5" font-size="9">NerveNet</text><circle cx="205.30933023615952" cy="356.27526753864447" r="4.5" fill="#38bdf8" opacity="0.85"/><text x="212.30933023615952" y="370.27526753864447" fill="#7c8aa5" font-size="9">Neural Graph Evolution (NGE)</text><circle cx="165.31165311653115" cy="273.21492271105825" r="4.5" fill="#38bdf8" opacity="0.85"/><text x="172.31165311653115" y="265.21492271105825" fill="#7c8aa5" font-size="9">Krcah Evolved Virtual Creatures (ERO)</text><circle cx="168.11304684475417" cy="492.2874554102259" r="4.5" fill="#38bdf8" opacity="0.85"/><text x="175.11304684475417" y="506.2874554102259" fill="#7c8aa5" font-size="9">NEAT (NeuroEvolution of Augmenting Topologies)</text><circle cx="188.1378242353852" cy="450.16349583828776" r="4.5" fill="#38bdf8" opacity="0.85"/><text x="195.1378242353852" y="442.16349583828776" fill="#7c8aa5" font-size="9">HyperNEAT</text><circle cx="179.52613240418117" cy="425.43400713436387" r="4.5" fill="#38bdf8" opacity="0.85"/><text x="186.52613240418117" y="439.43400713436387" fill="#7c8aa5" font-size="9">ES-HyperNEAT</text><circle cx="178.6442121564073" cy="499.4129013079667" r="4.5" fill="#38bdf8" opacity="0.85"/><text x="185.6442121564073" y="491.4129013079667" fill="#7c8aa5" font-size="9">Novelty Search</text><circle cx="199.18776616337593" cy="456.660225921522" r="4.5" fill="#38bdf8" opacity="0.85"/><text x="206.18776616337593" y="470.660225921522" fill="#7c8aa5" font-size="9">MAP-Elites</text><circle cx="199.18776616337593" cy="456.660225921522" r="4.5" fill="#38bdf8" opacity="0.85"/><text x="206.18776616337593" y="448.660225921522" fill="#7c8aa5" font-size="9">Quality-Diversity (illumination algorithms)</text><circle cx="178.7479674796748" cy="360.1872770511296" r="4.5" fill="#38bdf8" opacity="0.85"/><text x="185.7479674796748" y="374.1872770511296" fill="#7c8aa5" font-size="9">Go-Explore</text><circle cx="189.07162214479288" cy="445.1337693222354" r="4.5" fill="#38bdf8" opacity="0.85"/><text x="196.07162214479288" y="437.1337693222354" fill="#7c8aa5" font-size="9">OMNI (Open-endedness via Models of human Notions of Interestingness)</text><circle cx="186.52961672473867" cy="452.8879310344828" r="4.5" fill="#38bdf8" opacity="0.85"/><text x="193.52961672473867" y="466.8879310344828" fill="#7c8aa5" font-size="9">Minimal Criterion Coevolution (MCC)</text><circle cx="179.94115369725125" cy="371.01516052318664" r="4.5" fill="#38bdf8" opacity="0.85"/><text x="186.94115369725125" y="363.01516052318664" fill="#7c8aa5" font-size="9">Innovation Engines</text><circle cx="172.6264034068912" cy="293.33382877526753" r="4.5" fill="#38bdf8" opacity="0.85"/><text x="179.6264034068912" y="307.33382877526753" fill="#7c8aa5" font-size="9">EndlessForms</text><circle cx="136.20828493999227" cy="309.05172413793105" r="4.5" fill="#38bdf8" opacity="0.85"/><text x="143.20828493999227" y="301.05172413793105" fill="#7c8aa5" font-size="9">NetLogo</text><circle cx="158.30816879597367" cy="313.59244946492265" r="4.5" fill="#38bdf8" opacity="0.85"/><text x="165.30816879597367" y="327.59244946492265" fill="#7c8aa5" font-size="9">MASON</text><circle cx="147.77700348432057" cy="325.6079072532699" r="4.5" fill="#38bdf8" opacity="0.85"/><text x="154.77700348432057" y="317.6079072532699" fill="#7c8aa5" font-size="9">Repast</text><circle cx="105.91173054587689" cy="285.6495243757431" r="4.5" fill="#38bdf8" opacity="0.85"/><text x="112.91173054587689" y="299.6495243757431" fill="#7c8aa5" font-size="9">StarLogo</text><circle cx="118.05110336817654" cy="314.50059453032105" r="4.5" fill="#38bdf8" opacity="0.85"/><text x="125.05110336817654" y="306.50059453032105" fill="#7c8aa5" font-size="9">Ascape</text><circle cx="167.85365853658539" cy="283.41409036860875" r="4.5" fill="#38bdf8" opacity="0.85"/><text x="174.85365853658539" y="297.41409036860875" fill="#7c8aa5" font-size="9">GAMA Platform</text><circle cx="136.20828493999227" cy="309.05172413793105" r="4.5" fill="#38bdf8" opacity="0.85"/><text x="143.20828493999227" y="301.05172413793105" fill="#7c8aa5" font-size="9">Mesa</text><circle cx="119.60743321718932" cy="187.63971462544583" r="4.5" fill="#38bdf8" opacity="0.85"/><text x="126.60743321718932" y="201.63971462544583" fill="#7c8aa5" font-size="9">OpenSteer</text><circle cx="99.53077816492451" cy="283.41409036860875" r="4.5" fill="#38bdf8" opacity="0.85"/><text x="106.53077816492451" y="275.41409036860875" fill="#7c8aa5" font-size="9">Artificial Anasazi</text><circle cx="81.42547425474255" cy="228.78567181926275" r="4.5" fill="#38bdf8" opacity="0.85"/><text x="88.42547425474255" y="242.78567181926275" fill="#7c8aa5" font-size="9">Schelling Segregation Model</text><circle cx="104.30352303523037" cy="345.936385255648" r="4.5" fill="#38bdf8" opacity="0.85"/><text x="111.30352303523037" y="337.936385255648" fill="#7c8aa5" font-size="9">El Farol Bar Problem</text><circle cx="153.43166860240032" cy="130.98543400713436" r="4.5" fill="#38bdf8" opacity="0.85"/><text x="160.43166860240032" y="144.98543400713436" fill="#7c8aa5" font-size="9">Spore</text><circle cx="118.36236933797909" cy="320.36860879904873" r="4.5" fill="#38bdf8" opacity="0.85"/><text x="125.36236933797909" y="312.36860879904873" fill="#7c8aa5" font-size="9">SimLife: The Genetic Playground</text><circle cx="93.87611304684475" cy="269.7220570749108" r="4.5" fill="#38bdf8" opacity="0.85"/><text x="100.87611304684475" y="283.7220570749108" fill="#7c8aa5" font-size="9">SimEarth: The Living Planet</text><circle cx="100.72396438250097" cy="265.11147443519616" r="4.5" fill="#38bdf8" opacity="0.85"/><text x="107.72396438250097" y="257.11147443519616" fill="#7c8aa5" font-size="9">SimAnt: The Electric Ant Colony</text><circle cx="158.46380178087497" cy="242.26813317479184" r="4.5" fill="#38bdf8" opacity="0.85"/><text x="165.46380178087497" y="256.26813317479184" fill="#7c8aa5" font-size="9">Thrive</text><circle cx="158.61943476577625" cy="218.23721759809752" r="4.5" fill="#38bdf8" opacity="0.85"/><text x="165.61943476577625" y="210.23721759809752" fill="#7c8aa5" font-size="9">Cell Lab: Evolution Sandbox</text><circle cx="191.6136275648471" cy="317.5743162901308" r="4.5" fill="#38bdf8" opacity="0.85"/><text x="198.6136275648471" y="331.5743162901308" fill="#7c8aa5" font-size="9">Species: Artificial Life, Real Evolution</text><circle cx="194.72628726287263" cy="392.8106420927467" r="4.5" fill="#38bdf8" opacity="0.85"/><text x="201.72628726287263" y="384.8106420927467" fill="#7c8aa5" font-size="9">The Bibites</text><circle cx="101.0871080139373" cy="162.840368608799" r="4.5" fill="#38bdf8" opacity="0.85"/><text x="108.0871080139373" y="176.840368608799" fill="#7c8aa5" font-size="9">The Powder Toy</text><circle cx="125.46960898180411" cy="70" r="4.5" fill="#38bdf8" opacity="0.85"/><text x="132.46960898180413" y="62" fill="#7c8aa5" font-size="9">Noita</text><circle cx="125.78087495160666" cy="309.8201545778835" r="4.5" fill="#38bdf8" opacity="0.85"/><text x="132.78087495160668" y="323.8201545778835" fill="#7c8aa5" font-size="9">The Life Engine</text><circle cx="116.13162988772746" cy="123.51070154577883" r="4.5" fill="#38bdf8" opacity="0.85"/><text x="123.13162988772746" y="115.51070154577883" fill="#7c8aa5" font-size="9">Clusters (Particle Life)</text><circle cx="123.60201316298877" cy="106.74494649227108" r="4.5" fill="#38bdf8" opacity="0.85"/><text x="130.60201316298878" y="120.74494649227108" fill="#7c8aa5" font-size="9">Sandspiel</text><circle cx="163.18466898954705" cy="251.00029726516055" r="4.5" fill="#38bdf8" opacity="0.85"/><text x="170.18466898954705" y="243.00029726516055" fill="#7c8aa5" font-size="9">Sebastian Lague Ecosystem</text><circle cx="132.62872628726288" cy="161.65279429250887" r="4.5" fill="#38bdf8" opacity="0.85"/><text x="139.62872628726288" y="175.65279429250887" fill="#7c8aa5" font-size="9">Pezzza's Ant Colony Simulation</text><circle cx="149.22957801006584" cy="258.89417360285375" r="4.5" fill="#38bdf8" opacity="0.85"/><text x="156.22957801006584" y="250.89417360285375" fill="#7c8aa5" font-size="9">Primer Evolution Simulations</text><circle cx="196.9570267131243" cy="247.57728894173607" r="4.5" fill="#38bdf8" opacity="0.85"/><text x="203.9570267131243" y="261.5772889417361" fill="#7c8aa5" font-size="9">Keiwan Evolution</text><circle cx="216.46302748741775" cy="259.1037455410226" r="4.5" fill="#38bdf8" opacity="0.85"/><text x="223.46302748741775" y="251.1037455410226" fill="#7c8aa5" font-size="9">DevoWorm</text><circle cx="129.5160665892373" cy="223.19708680142685" r="4.5" fill="#38bdf8" opacity="0.85"/><text x="136.5160665892373" y="237.19708680142685" fill="#7c8aa5" font-size="9">Morphozoic</text><circle cx="171.53697251258228" cy="365.9155766944114" r="4.5" fill="#38bdf8" opacity="0.85"/><text x="178.53697251258228" y="357.9155766944114" fill="#7c8aa5" font-size="9">Chromaria</text><circle cx="200.69221835075493" cy="348.0321046373365" r="4.5" fill="#38bdf8" opacity="0.85"/><text x="207.69221835075493" y="362.0321046373365" fill="#7c8aa5" font-size="9">Division Blocks</text><circle cx="185.69957413859854" cy="374.717598097503" r="4.5" fill="#38bdf8" opacity="0.85"/><text x="192.69957413859854" y="366.717598097503" fill="#7c8aa5" font-size="9">Voyager (Minecraft LLM agent)</text><circle cx="165.77855207123503" cy="344.3296670630202" r="4.5" fill="#38bdf8" opacity="0.85"/><text x="172.77855207123503" y="358.3296670630202" fill="#7c8aa5" font-size="9">Generative Agents (Smallville)</text><circle cx="206.60627177700349" cy="416.91141498216405" r="4.5" fill="#38bdf8" opacity="0.85"/><text x="213.60627177700349" y="408.91141498216405" fill="#7c8aa5" font-size="9">OMNI-EPIC</text><circle cx="173.81958962446768" cy="261.82818073721756" r="4.5" fill="#38bdf8" opacity="0.85"/><text x="180.81958962446768" y="275.82818073721756" fill="#7c8aa5" font-size="9">Genie (Generative Interactive Environments)</text><circle cx="192.39179248935346" cy="395.185790725327" r="4.5" fill="#38bdf8" opacity="0.85"/><text x="199.39179248935346" y="387.185790725327" fill="#7c8aa5" font-size="9">Evolution through Large Models (ELM)</text><circle cx="165.72667440960123" cy="459.1052318668252" r="4.5" fill="#38bdf8" opacity="0.85"/><text x="172.72667440960123" y="473.1052318668252" fill="#7c8aa5" font-size="9">OpenELM</text><circle cx="156.33681765389082" cy="499.76218787158143" r="4.5" fill="#38bdf8" opacity="0.85"/><text x="163.33681765389082" y="491.76218787158143" fill="#7c8aa5" font-size="9">Automated Design of Agentic Systems (ADAS)</text><circle cx="156.38869531552461" cy="439.6848989298454" r="4.5" fill="#38bdf8" opacity="0.85"/><text x="163.38869531552461" y="453.6848989298454" fill="#7c8aa5" font-size="9">The AI Scientist</text><circle cx="169.25435540069685" cy="540" r="4.5" fill="#38bdf8" opacity="0.85"/><text x="176.25435540069685" y="532" fill="#7c8aa5" font-size="9">Darwin Godel Machine (DGM)</text><circle cx="116.23538521099498" cy="403.7083828775268" r="4.5" fill="#38bdf8" opacity="0.85"/><text x="123.23538521099498" y="417.7083828775268" fill="#7c8aa5" font-size="9">Promptbreeder</text><circle cx="124.43205574912893" cy="428.99673008323424" r="4.5" fill="#38bdf8" opacity="0.85"/><text x="131.43205574912895" y="420.99673008323424" fill="#7c8aa5" font-size="9">Quality-Diversity through AI Feedback (QDAIF)</text>
</svg>