<svg xmlns="http://www.w3.org/2000/svg" viewBox="0 0 680 332" font-family="ui-sans-serif,system-ui,Segoe UI,Roboto,sans-serif" role="img" aria-label="Nearest neighbours">
<rect width="680" height="332" rx="14" fill="#0b1220"/>
<text x="28" y="30" fill="#cbd5e1" font-size="18" font-weight="700">Nearest neighbours in 9-axis feature space</text><text x="28" y="50" fill="#7c8aa5" font-size="12">Euclidean distance from Cosmogonic (lower = more similar capability shape).</text><text x="140" y="83" fill="#cbd5e1" font-size="11" text-anchor="end">ALIEN</text><rect x="150" y="69" width="343.56725146198823" height="18" rx="3" fill="#34d399" opacity="0.78"/><text x="499.56725146198823" y="83" fill="#7c8aa5" font-size="10">4.50</text><text x="140" y="113" fill="#cbd5e1" font-size="11" text-anchor="end">Creatures</text><rect x="150" y="99" width="371.816114359974" height="18" rx="3" fill="#34d399" opacity="0.78"/><text x="527.816114359974" y="113" fill="#7c8aa5" font-size="10">4.87</text><text x="140" y="143" fill="#cbd5e1" font-size="11" text-anchor="end">Framsticks</text><rect x="150" y="129" width="408.46328784925277" height="18" rx="3" fill="#34d399" opacity="0.78"/><text x="564.4632878492528" y="143" fill="#7c8aa5" font-size="10">5.35</text><text x="140" y="173" fill="#cbd5e1" font-size="11" text-anchor="end">Division Blocks</text><rect x="150" y="159" width="413.04418453541257" height="18" rx="3" fill="#34d399" opacity="0.78"/><text x="569.0441845354126" y="173" fill="#7c8aa5" font-size="10">5.41</text><text x="140" y="203" fill="#cbd5e1" font-size="11" text-anchor="end">biosim4</text><rect x="150" y="189" width="422.9694606887589" height="18" rx="3" fill="#34d399" opacity="0.78"/><text x="578.9694606887589" y="203" fill="#7c8aa5" font-size="10">5.54</text><text x="140" y="233" fill="#cbd5e1" font-size="11" text-anchor="end">The Bibites</text><rect x="150" y="219" width="428.3138401559454" height="18" rx="3" fill="#34d399" opacity="0.78"/><text x="584.3138401559454" y="233" fill="#7c8aa5" font-size="10">5.61</text><text x="140" y="263" fill="#cbd5e1" font-size="11" text-anchor="end">Karl Sims VC</text><rect x="150" y="249" width="432.8947368421052" height="18" rx="3" fill="#34d399" opacity="0.78"/><text x="588.8947368421052" y="263" fill="#7c8aa5" font-size="10">5.67</text><text x="140" y="293" fill="#cbd5e1" font-size="11" text-anchor="end">Neural Graph Evolution (NGE)</text><rect x="150" y="279" width="435.1851851851852" height="18" rx="3" fill="#34d399" opacity="0.78"/><text x="591.1851851851852" y="293" fill="#7c8aa5" font-size="10">5.70</text>
</svg>