<svg xmlns="http://www.w3.org/2000/svg" viewBox="0 0 760 600" font-family="ui-sans-serif,system-ui,Segoe UI,Roboto,sans-serif" role="img" aria-label="PCA projection">
<rect width="760" height="600" rx="14" fill="#0b1220"/>
<text x="28" y="30" fill="#cbd5e1" font-size="18" font-weight="700">PCA of the 26 systems (9-axis correlation-matrix eigenbasis)</text><text x="28" y="50" fill="#7c8aa5" font-size="12">PC1 26.6% var · PC2 21.4% var · together 48.0%. amber = this repo.</text><line x1="168.91579021670077" y1="70" x2="168.91579021670077" y2="540" stroke="#27344d" stroke-width="0.8"/><line x1="60" y1="316.34095323472286" x2="730" y2="316.34095323472286" stroke="#27344d" stroke-width="0.8"/><text x="730" y="544" fill="#7c8aa5" font-size="11" text-anchor="end">PC1 (generalist breadth →)</text><text x="54" y="62" fill="#7c8aa5" font-size="11">PC2</text><circle cx="730" cy="153.9862542955326" r="8" fill="#f59e0b"/><circle cx="730" cy="153.9862542955326" r="13" fill="none" stroke="#f59e0b" stroke-width="1.4" opacity="0.6"/><text x="718" y="141.9862542955326" fill="#f59e0b" font-size="11" font-weight="700" text-anchor="end">COSMOGONIC</text><circle cx="136.80383990964918" cy="311.1444793067384" r="4.5" fill="#38bdf8" opacity="0.85"/><text x="143.80383990964918" y="325.1444793067384" fill="#7c8aa5" font-size="9">Game of Life</text><circle cx="128.57485706218677" cy="223.22575825489315" r="4.5" fill="#38bdf8" opacity="0.85"/><text x="135.57485706218677" y="215.22575825489315" fill="#7c8aa5" font-size="9">Boids</text><circle cx="123.1361615020823" cy="250.96369341102644" r="4.5" fill="#38bdf8" opacity="0.85"/><text x="130.1361615020823" y="264.96369341102644" fill="#7c8aa5" font-size="9">Biomorphs</text><circle cx="127.01418790146113" cy="426.66069027341996" r="4.5" fill="#38bdf8" opacity="0.85"/><text x="134.01418790146113" y="418.66069027341996" fill="#7c8aa5" font-size="9">Core War</text><circle cx="136.33090986094442" cy="457.2075302554908" r="4.5" fill="#38bdf8" opacity="0.85"/><text x="143.33090986094442" y="471.2075302554908" fill="#7c8aa5" font-size="9">Tierra</text><circle cx="165.32152184654478" cy="460.22710294337367" r="4.5" fill="#38bdf8" opacity="0.85"/><text x="172.32152184654478" y="452.22710294337367" fill="#7c8aa5" font-size="9">Avida</text><circle cx="246.76007623350034" cy="355.6656207978485" r="4.5" fill="#38bdf8" opacity="0.85"/><text x="253.76007623350034" y="369.6656207978485" fill="#7c8aa5" font-size="9">Polyworld</text><circle cx="262.2721818310157" cy="333.61571791423876" r="4.5" fill="#38bdf8" opacity="0.85"/><text x="269.2721818310157" y="325.61571791423876" fill="#7c8aa5" font-size="9">Framsticks</text><circle cx="219.66118444271896" cy="260.7246376811594" r="4.5" fill="#38bdf8" opacity="0.85"/><text x="226.66118444271896" y="274.7246376811594" fill="#7c8aa5" font-size="9">Karl Sims VC</text><circle cx="341.5352579939295" cy="275.19049753473774" r="4.5" fill="#38bdf8" opacity="0.85"/><text x="348.5352579939295" y="267.19049753473774" fill="#7c8aa5" font-size="9">Creatures</text><circle cx="193.7919107785699" cy="291.41192290452716" r="4.5" fill="#38bdf8" opacity="0.85"/><text x="200.7919107785699" y="305.41192290452716" fill="#7c8aa5" font-size="9">Darwin Pond</text><circle cx="212.6145267170184" cy="292.95682055879274" r="4.5" fill="#38bdf8" opacity="0.85"/><text x="219.6145267170184" y="284.95682055879274" fill="#7c8aa5" font-size="9">Gene Pool</text><circle cx="170.94938942613115" cy="412.1246077991932" r="4.5" fill="#38bdf8" opacity="0.85"/><text x="177.94938942613115" y="426.1246077991932" fill="#7c8aa5" font-size="9">Sugarscape</text><circle cx="151.93760146820074" cy="431.50605109816223" r="4.5" fill="#38bdf8" opacity="0.85"/><text x="158.93760146820074" y="423.50605109816223" fill="#7c8aa5" font-size="9">Echo</text><circle cx="161.8691324910002" cy="385.2995667114896" r="4.5" fill="#38bdf8" opacity="0.85"/><text x="168.8691324910002" y="399.2995667114896" fill="#7c8aa5" font-size="9">Swarm</text><circle cx="207.88522622997104" cy="267.7468997460033" r="4.5" fill="#38bdf8" opacity="0.85"/><text x="214.88522622997104" y="259.7468997460033" fill="#7c8aa5" font-size="9">breve</text><circle cx="220.22870050116464" cy="306.0884506200508" r="4.5" fill="#38bdf8" opacity="0.85"/><text x="227.22870050116464" y="320.0884506200508" fill="#7c8aa5" font-size="9">Picbreeder</text><circle cx="196.39302604644595" cy="461.91244583893615" r="4.5" fill="#38bdf8" opacity="0.85"/><text x="203.39302604644595" y="453.91244583893615" fill="#7c8aa5" font-size="9">MABE</text><circle cx="159.59906825721748" cy="180.9517406245331" r="4.5" fill="#38bdf8" opacity="0.85"/><text x="166.59906825721748" y="194.9517406245331" fill="#7c8aa5" font-size="9">Lenia</text><circle cx="191.8528975788805" cy="217.81861646496333" r="4.5" fill="#38bdf8" opacity="0.85"/><text x="198.8528975788805" y="209.81861646496333" fill="#7c8aa5" font-size="9">Growing NCA</text><circle cx="335.19799534128606" cy="163.2556402211265" r="4.5" fill="#38bdf8" opacity="0.85"/><text x="342.19799534128606" y="177.2556402211265" fill="#7c8aa5" font-size="9">OpenWorm</text><circle cx="190.7178654619891" cy="440.2838786792171" r="4.5" fill="#38bdf8" opacity="0.85"/><text x="197.7178654619891" y="432.2838786792171" fill="#7c8aa5" font-size="9">POET</text><circle cx="192.75146467141948" cy="317.6751830270432" r="4.5" fill="#38bdf8" opacity="0.85"/><text x="199.75146467141948" y="331.6751830270432" fill="#7c8aa5" font-size="9">EvoGym</text><circle cx="376.95771864191425" cy="229.61601673390106" r="4.5" fill="#38bdf8" opacity="0.85"/><text x="383.95771864191425" y="221.61601673390106" fill="#7c8aa5" font-size="9">ALIEN</text><circle cx="260.5696336556787" cy="323.2227700582698" r="4.5" fill="#38bdf8" opacity="0.85"/><text x="267.5696336556787" y="337.2227700582698" fill="#7c8aa5" font-size="9">ASAL</text><circle cx="60" cy="240.92185865829964" r="4.5" fill="#38bdf8" opacity="0.85"/><text x="67" y="232.92185865829964" fill="#7c8aa5" font-size="9">Wireworld</text><circle cx="60" cy="240.92185865829964" r="4.5" fill="#38bdf8" opacity="0.85"/><text x="67" y="254.92185865829964" fill="#7c8aa5" font-size="9">Langton's Ant</text><circle cx="94.76035857979811" cy="269.9940236067533" r="4.5" fill="#38bdf8" opacity="0.85"/><text x="101.76035857979811" y="261.9940236067533" fill="#7c8aa5" font-size="9">Langton's Loops</text><circle cx="80.52516411378555" cy="298.57463021066786" r="4.5" fill="#38bdf8" opacity="0.85"/><text x="87.52516411378555" y="312.57463021066786" fill="#7c8aa5" font-size="9">von Neumann Universal Constructor</text><circle cx="60" cy="240.92185865829964" r="4.5" fill="#38bdf8" opacity="0.85"/><text x="67" y="232.92185865829964" fill="#7c8aa5" font-size="9">Rule 110</text><circle cx="124.0347285946213" cy="178.0023905572986" r="4.5" fill="#38bdf8" opacity="0.85"/><text x="131.0347285946213" y="192.0023905572986" fill="#7c8aa5" font-size="9">SmoothLife</text><circle cx="124.0347285946213" cy="178.0023905572986" r="4.5" fill="#38bdf8" opacity="0.85"/><text x="131.0347285946213" y="170.0023905572986" fill="#7c8aa5" font-size="9">Larger than Life</text><circle cx="196.8659560951507" cy="240.2196324518153" r="4.5" fill="#38bdf8" opacity="0.85"/><text x="203.8659560951507" y="254.2196324518153" fill="#7c8aa5" font-size="9">Flow Lenia</text><circle cx="157.51817604291662" cy="197.0327207530255" r="4.5" fill="#38bdf8" opacity="0.85"/><text x="164.51817604291662" y="189.0327207530255" fill="#7c8aa5" font-size="9">Particle Lenia</text><circle cx="154.6805957506882" cy="236.91916928133867" r="4.5" fill="#38bdf8" opacity="0.85"/><text x="161.6805957506882" y="250.91916928133867" fill="#7c8aa5" font-size="9">Primordial Particle Systems</text><circle cx="122.85240347285946" cy="178.63439414313456" r="4.5" fill="#38bdf8" opacity="0.85"/><text x="129.85240347285946" y="170.63439414313456" fill="#7c8aa5" font-size="9">Gray-Scott Reaction-Diffusion</text><circle cx="131.7434883885085" cy="416.1272971761542" r="4.5" fill="#38bdf8" opacity="0.85"/><text x="138.7434883885085" y="430.1272971761542" fill="#7c8aa5" font-size="9">Aevol</text><circle cx="163.00416460789154" cy="413.3886149708651" r="4.5" fill="#38bdf8" opacity="0.85"/><text x="170.00416460789154" y="405.3886149708651" fill="#7c8aa5" font-size="9">Avida-ED</text><circle cx="122.19030140467282" cy="369.359031824294" r="4.5" fill="#38bdf8" opacity="0.85"/><text x="129.19030140467282" y="383.359031824294" fill="#7c8aa5" font-size="9">Nanopond</text><circle cx="111.123738264982" cy="352.0842671447781" r="4.5" fill="#38bdf8" opacity="0.85"/><text x="118.123738264982" y="344.0842671447781" fill="#7c8aa5" font-size="9">Physis</text><circle cx="125.83186277969929" cy="379.19019871507544" r="4.5" fill="#38bdf8" opacity="0.85"/><text x="132.8318627796993" y="393.19019871507544" fill="#7c8aa5" font-size="9">Cosmos</text><circle cx="209.3986023858262" cy="502.71178843567907" r="4.5" fill="#38bdf8" opacity="0.85"/><text x="216.3986023858262" y="494.71178843567907" fill="#7c8aa5" font-size="9">Geb</text><circle cx="125.83186277969929" cy="379.19019871507544" r="4.5" fill="#38bdf8" opacity="0.85"/><text x="132.8318627796993" y="393.19019871507544" fill="#7c8aa5" font-size="9">Amoeba</text><circle cx="174.16531375732336" cy="342.81488121918426" r="4.5" fill="#38bdf8" opacity="0.85"/><text x="181.16531375732336" y="334.81488121918426" fill="#7c8aa5" font-size="9">Evolve 4.0</text><circle cx="144.13425566457258" cy="280.7380845659644" r="4.5" fill="#38bdf8" opacity="0.85"/><text x="151.13425566457258" y="294.7380845659644" fill="#7c8aa5" font-size="9">Squirm3</text><circle cx="136.94571892426058" cy="396.3947407739429" r="4.5" fill="#38bdf8" opacity="0.85"/><text x="143.94571892426058" y="388.3947407739429" fill="#7c8aa5" font-size="9">Network Tierra</text><circle cx="183.34015670219523" cy="359.0363065889735" r="4.5" fill="#38bdf8" opacity="0.85"/><text x="190.34015670219523" y="373.0363065889735" fill="#7c8aa5" font-size="9">biosim4</text><circle cx="168.91579021670077" cy="279.75496787688627" r="4.5" fill="#38bdf8" opacity="0.85"/><text x="175.91579021670077" y="271.75496787688627" fill="#7c8aa5" font-size="9">GOLEM (Genetically Organized Lifelike Electro Mechanics)</text><circle cx="132.59476247617704" cy="205.5296578514866" r="4.5" fill="#38bdf8" opacity="0.85"/><text x="139.59476247617704" y="219.5296578514866" fill="#7c8aa5" font-size="9">Voxelyze / VoxCAD</text><circle cx="195.82550998800025" cy="265.49977588525326" r="4.5" fill="#38bdf8" opacity="0.85"/><text x="202.82550998800025" y="257.49977588525326" fill="#7c8aa5" font-size="9">3D Virtual Creature Evolution (3DVCE)</text><circle cx="224.2486059151549" cy="377.36441057821605" r="4.5" fill="#38bdf8" opacity="0.85"/><text x="231.2486059151549" y="391.36441057821605" fill="#7c8aa5" font-size="9">DERL (Deep Evolutionary Reinforcement Learning)</text><circle cx="219.37742641349612" cy="362.7581054833408" r="4.5" fill="#38bdf8" opacity="0.85"/><text x="226.37742641349612" y="354.7581054833408" fill="#7c8aa5" font-size="9">UNIMAL (Universal Animal design space)</text><circle cx="183.62391473141807" cy="258.75840430300315" r="4.5" fill="#38bdf8" opacity="0.85"/><text x="190.62391473141807" y="272.75840430300315" fill="#7c8aa5" font-size="9">Evolving Soft Robots (Cheney / Unshackling Evolution)</text><circle cx="193.93378979318132" cy="317.0431794412072" r="4.5" fill="#38bdf8" opacity="0.85"/><text x="200.93378979318132" y="309.0431794412072" fill="#7c8aa5" font-size="9">RoboGrammar</text><circle cx="193.46085974447658" cy="383.61422381592706" r="4.5" fill="#38bdf8" opacity="0.85"/><text x="200.46085974447658" y="397.61422381592706" fill="#7c8aa5" font-size="9">Transform2Act</text><circle cx="151.32279240488458" cy="305.6671148961601" r="4.5" fill="#38bdf8" opacity="0.85"/><text x="158.32279240488458" y="297.6671148961601" fill="#7c8aa5" font-size="9">NerveNet</text><circle cx="197.10242111950308" cy="350.75003735245775" r="4.5" fill="#38bdf8" opacity="0.85"/><text x="204.10242111950308" y="364.75003735245775" fill="#7c8aa5" font-size="9">Neural Graph Evolution (NGE)</text><circle cx="158.36945013058516" cy="271.39847601972207" r="4.5" fill="#38bdf8" opacity="0.85"/><text x="165.36945013058516" y="263.39847601972207" fill="#7c8aa5" font-size="9">Krcah Evolved Virtual Creatures (ERO)</text><circle cx="167.11865603162278" cy="493.65307037203047" r="4.5" fill="#38bdf8" opacity="0.85"/><text x="174.11865603162278" y="507.65307037203047" fill="#7c8aa5" font-size="9">NEAT (NeuroEvolution of Augmenting Topologies)</text><circle cx="184.617067833698" cy="448.35948005378754" r="4.5" fill="#38bdf8" opacity="0.85"/><text x="191.617067833698" y="440.35948005378754" fill="#7c8aa5" font-size="9">HyperNEAT</text><circle cx="176.15161996188323" cy="423.9922306887793" r="4.5" fill="#38bdf8" opacity="0.85"/><text x="183.15161996188323" y="437.9922306887793" fill="#7c8aa5" font-size="9">ES-HyperNEAT</text><circle cx="179.50942330768686" cy="497.6557597489915" r="4.5" fill="#38bdf8" opacity="0.85"/><text x="186.50942330768686" y="489.6557597489915" fill="#7c8aa5" font-size="9">Novelty Search</text><circle cx="195.87280299287073" cy="453.0643956372329" r="4.5" fill="#38bdf8" opacity="0.85"/><text x="202.87280299287073" y="467.0643956372329" fill="#7c8aa5" font-size="9">MAP-Elites</text><circle cx="195.87280299287073" cy="453.0643956372329" r="4.5" fill="#38bdf8" opacity="0.85"/><text x="202.87280299287073" y="445.0643956372329" fill="#7c8aa5" font-size="9">Quality-Diversity (illumination algorithms)</text><circle cx="174.35448577680523" cy="358.1936351411923" r="4.5" fill="#38bdf8" opacity="0.85"/><text x="181.35448577680523" y="372.1936351411923" fill="#7c8aa5" font-size="9">Go-Explore</text><circle cx="190.7178654619891" cy="440.2838786792171" r="4.5" fill="#38bdf8" opacity="0.85"/><text x="197.7178654619891" y="432.2838786792171" fill="#7c8aa5" font-size="9">OMNI (Open-endedness via Models of human Notions of Interestingness)</text><circle cx="192.704171666549" cy="446.674137158225" r="4.5" fill="#38bdf8" opacity="0.85"/><text x="199.704171666549" y="460.674137158225" fill="#7c8aa5" font-size="9">Minimal Criterion Coevolution (MCC)</text><circle cx="180.54986941483727" cy="367.25235320484086" r="4.5" fill="#38bdf8" opacity="0.85"/><text x="187.54986941483727" y="359.25235320484086" fill="#7c8aa5" font-size="9">Innovation Engines</text><circle cx="174.35448577680523" cy="287.549678768863" r="4.5" fill="#38bdf8" opacity="0.85"/><text x="181.35448577680523" y="301.549678768863" fill="#7c8aa5" font-size="9">EndlessForms</text><circle cx="143.09380955742216" cy="309.66980427312114" r="4.5" fill="#38bdf8" opacity="0.85"/><text x="150.09380955742216" y="301.66980427312114" fill="#7c8aa5" font-size="9">NetLogo</text><circle cx="161.72725347638877" cy="311.84670551322273" r="4.5" fill="#38bdf8" opacity="0.85"/><text x="168.72725347638877" y="325.84670551322273" fill="#7c8aa5" font-size="9">MASON</text><circle cx="153.4036846191854" cy="325.25922605707456" r="4.5" fill="#38bdf8" opacity="0.85"/><text x="160.4036846191854" y="317.25922605707456" fill="#7c8aa5" font-size="9">Repast</text><circle cx="110.7453942260182" cy="290.07769311220676" r="4.5" fill="#38bdf8" opacity="0.85"/><text x="117.7453942260182" y="304.07769311220676" fill="#7c8aa5" font-size="9">StarLogo</text><circle cx="125.4535187407355" cy="317.11340206185565" r="4.5" fill="#38bdf8" opacity="0.85"/><text x="132.4535187407355" y="309.11340206185565" fill="#7c8aa5" font-size="9">Ascape</text><circle cx="170.85480341639018" cy="279.9656357388316" r="4.5" fill="#38bdf8" opacity="0.85"/><text x="177.85480341639018" y="293.9656357388316" fill="#7c8aa5" font-size="9">GAMA Platform</text><circle cx="143.09380955742216" cy="309.66980427312114" r="4.5" fill="#38bdf8" opacity="0.85"/><text x="150.09380955742216" y="301.66980427312114" fill="#7c8aa5" font-size="9">Mesa</text><circle cx="116.98807086892072" cy="189.79979082623635" r="4.5" fill="#38bdf8" opacity="0.85"/><text x="123.98807086892072" y="203.79979082623635" fill="#7c8aa5" font-size="9">OpenSteer</text><circle cx="104.1243735441519" cy="289.72658000896456" r="4.5" fill="#38bdf8" opacity="0.85"/><text x="111.1243735441519" y="281.72658000896456" fill="#7c8aa5" font-size="9">Artificial Anasazi</text><circle cx="85.96385967389003" cy="236.14672045420588" r="4.5" fill="#38bdf8" opacity="0.85"/><text x="92.96385967389003" y="250.14672045420588" fill="#7c8aa5" font-size="9">Schelling Segregation Model</text><circle cx="109.04284605068115" cy="351.8735992828328" r="4.5" fill="#38bdf8" opacity="0.85"/><text x="116.04284605068115" y="343.8735992828328" fill="#7c8aa5" font-size="9">El Farol Bar Problem</text><circle cx="149.62024422954755" cy="126.59943224264151" r="4.5" fill="#38bdf8" opacity="0.85"/><text x="156.62024422954755" y="140.5994322426415" fill="#7c8aa5" font-size="9">Spore</text><circle cx="127.81816898425919" cy="321.2565366801135" r="4.5" fill="#38bdf8" opacity="0.85"/><text x="134.8181689842592" y="313.2565366801135" fill="#7c8aa5" font-size="9">SimLife: The Genetic Playground</text><circle cx="101.57055128114632" cy="273.8562677424174" r="4.5" fill="#38bdf8" opacity="0.85"/><text x="108.57055128114632" y="287.8562677424174" fill="#7c8aa5" font-size="9">SimEarth: The Living Planet</text><circle cx="108.52262299710594" cy="268.3086807111908" r="4.5" fill="#38bdf8" opacity="0.85"/><text x="115.52262299710594" y="260.3086807111908" fill="#7c8aa5" font-size="9">SimAnt: The Electric Ant Colony</text><circle cx="161.3016164325545" cy="237.27028238458087" r="4.5" fill="#38bdf8" opacity="0.85"/><text x="168.3016164325545" y="251.27028238458087" fill="#7c8aa5" font-size="9">Thrive</text><circle cx="159.40989623773555" cy="213.74570446735396" r="4.5" fill="#38bdf8" opacity="0.85"/><text x="166.40989623773555" y="205.74570446735396" fill="#7c8aa5" font-size="9">Cell Lab: Evolution Sandbox</text><circle cx="196.06197501235263" cy="309.10802330793365" r="4.5" fill="#38bdf8" opacity="0.85"/><text x="203.06197501235263" y="323.10802330793365" fill="#7c8aa5" font-size="9">Species: Artificial Life, Real Evolution</text><circle cx="199.18331333380388" cy="385.5102345734349" r="4.5" fill="#38bdf8" opacity="0.85"/><text x="206.18331333380388" y="377.5102345734349" fill="#7c8aa5" font-size="9">The Bibites</text><circle cx="94.14554951648196" cy="168.87344987300162" r="4.5" fill="#38bdf8" opacity="0.85"/><text x="101.14554951648196" y="182.87344987300162" fill="#7c8aa5" font-size="9">The Powder Toy</text><circle cx="118.54874002964635" cy="70" r="4.5" fill="#38bdf8" opacity="0.85"/><text x="125.54874002964635" y="62" fill="#7c8aa5" font-size="9">Noita</text><circle cx="134.86482670995974" cy="309.5293590318243" r="4.5" fill="#38bdf8" opacity="0.85"/><text x="141.86482670995974" y="323.5293590318243" fill="#7c8aa5" font-size="9">The Life Engine</text><circle cx="117.7447589468483" cy="123.22874645151643" r="4.5" fill="#38bdf8" opacity="0.85"/><text x="124.7447589468483" y="115.22874645151643" fill="#7c8aa5" font-size="9">Clusters (Particle Life)</text><circle cx="118.69061904425777" cy="107.77976990885992" r="4.5" fill="#38bdf8" opacity="0.85"/><text x="125.69061904425777" y="121.77976990885992" fill="#7c8aa5" font-size="9">Sandspiel</text><circle cx="167.63887908519797" cy="245.34588375915138" r="4.5" fill="#38bdf8" opacity="0.85"/><text x="174.63887908519797" y="237.34588375915138" fill="#7c8aa5" font-size="9">Sebastian Lague Ecosystem</text><circle cx="132.4055904566951" cy="160.5871806364858" r="4.5" fill="#38bdf8" opacity="0.85"/><text x="139.4055904566951" y="174.5871806364858" fill="#7c8aa5" font-size="9">Pezzza's Ant Colony Simulation</text><circle cx="153.02534058022164" cy="256.01972209771395" r="4.5" fill="#38bdf8" opacity="0.85"/><text x="160.02534058022164" y="248.01972209771395" fill="#7c8aa5" font-size="9">Primer Evolution Simulations</text><circle cx="186.17773699442364" cy="241.69430748543255" r="4.5" fill="#38bdf8" opacity="0.85"/><text x="193.17773699442364" y="255.69430748543255" fill="#7c8aa5" font-size="9">Keiwan Evolution</text><circle cx="195.5890449636479" cy="260.1628567159719" r="4.5" fill="#38bdf8" opacity="0.85"/><text x="202.5890449636479" y="252.16285671597188" fill="#7c8aa5" font-size="9">DevoWorm</text><circle cx="124.0347285946213" cy="226.10488570147913" r="4.5" fill="#38bdf8" opacity="0.85"/><text x="131.0347285946213" y="240.10488570147913" fill="#7c8aa5" font-size="9">Morphozoic</text><circle cx="177.0974800592927" cy="360.8620947258329" r="4.5" fill="#38bdf8" opacity="0.85"/><text x="184.0974800592927" y="352.8620947258329" fill="#7c8aa5" font-size="9">Chromaria</text><circle cx="199.27789934354485" cy="340.4975347377857" r="4.5" fill="#38bdf8" opacity="0.85"/><text x="206.27789934354485" y="354.4975347377857" fill="#7c8aa5" font-size="9">Division Blocks</text><circle cx="185.4210489164961" cy="370.0612580307784" r="4.5" fill="#38bdf8" opacity="0.85"/><text x="192.4210489164961" y="362.0612580307784" fill="#7c8aa5" font-size="9">Voyager (Minecraft LLM agent)</text><circle cx="170.33458036281496" cy="341.1997609442701" r="4.5" fill="#38bdf8" opacity="0.85"/><text x="177.33458036281496" y="355.1997609442701" fill="#7c8aa5" font-size="9">Generative Agents (Smallville)</text><circle cx="201.16961953836378" cy="410.8606006275213" r="4.5" fill="#38bdf8" opacity="0.85"/><text x="208.16961953836378" y="402.8606006275213" fill="#7c8aa5" font-size="9">OMNI-EPIC</text><circle cx="168.20639514364365" cy="258.3370685791125" r="4.5" fill="#38bdf8" opacity="0.85"/><text x="175.20639514364365" y="272.3370685791125" fill="#7c8aa5" font-size="9">Genie (Generative Interactive Environments)</text><circle cx="187.26547610644454" cy="390.8471537427163" r="4.5" fill="#38bdf8" opacity="0.85"/><text x="194.26547610644454" y="382.8471537427163" fill="#7c8aa5" font-size="9">Evolution through Large Models (ELM)</text><circle cx="165.0850568221924" cy="459.314208874944" r="4.5" fill="#38bdf8" opacity="0.85"/><text x="172.0850568221924" y="473.314208874944" fill="#7c8aa5" font-size="9">OpenELM</text><circle cx="158.70050116467846" cy="501.6584491259525" r="4.5" fill="#38bdf8" opacity="0.85"/><text x="165.70050116467846" y="493.6584491259525" fill="#7c8aa5" font-size="9">Automated Design of Agentic Systems (ADAS)</text><circle cx="158.18027811110326" cy="440.56476916181083" r="4.5" fill="#38bdf8" opacity="0.85"/><text x="165.18027811110326" y="454.56476916181083" fill="#7c8aa5" font-size="9">The AI Scientist</text><circle cx="173.1721606550434" cy="540" r="4.5" fill="#38bdf8" opacity="0.85"/><text x="180.1721606550434" y="532" fill="#7c8aa5" font-size="9">Darwin Godel Machine (DGM)</text><circle cx="114.43424860591514" cy="411.4223815927088" r="4.5" fill="#38bdf8" opacity="0.85"/><text x="121.43424860591514" y="425.4223815927088" fill="#7c8aa5" font-size="9">Promptbreeder</text><circle cx="124.0347285946213" cy="435.2278499925295" r="4.5" fill="#38bdf8" opacity="0.85"/><text x="131.0347285946213" y="427.2278499925295" fill="#7c8aa5" font-size="9">Quality-Diversity through AI Feedback (QDAIF)</text>
</svg>