<svg xmlns="http://www.w3.org/2000/svg" viewBox="0 0 760 600" font-family="ui-sans-serif,system-ui,Segoe UI,Roboto,sans-serif" role="img" aria-label="PCA projection">
<rect width="760" height="600" rx="14" fill="#0b1220"/>
<text x="28" y="30" fill="#cbd5e1" font-size="18" font-weight="700">PCA of 129 A-Life systems (9-axis correlation-matrix eigenbasis)</text><text x="28" y="50" fill="#7c8aa5" font-size="12">PC1 21.3% var · PC2 19.6% var · together 40.8%. amber = this repo.</text><line x1="361.83817990055746" y1="70" x2="361.83817990055746" y2="540" stroke="#27344d" stroke-width="0.8"/><line x1="60" y1="395.2389903329753" x2="730" y2="395.2389903329753" stroke="#27344d" stroke-width="0.8"/><text x="730" y="544" fill="#7c8aa5" font-size="11" text-anchor="end">PC1 (generalist breadth →)</text><text x="54" y="62" fill="#7c8aa5" font-size="11">PC2</text><circle cx="730" cy="70" r="8" fill="#f59e0b"/><circle cx="730" cy="70" r="13" fill="none" stroke="#f59e0b" stroke-width="1.4" opacity="0.6"/><text x="718" y="58" fill="#f59e0b" font-size="11" font-weight="700" text-anchor="end">COSMOGONIC</text><circle cx="314.9977399427452" cy="411.8353920515575" r="4.5" fill="#38bdf8" opacity="0.85"/><text x="321.9977399427452" y="425.8353920515575" fill="#7c8aa5" font-size="9">Game of Life</text><circle cx="220.4083170106976" cy="392.1468850698174" r="4.5" fill="#38bdf8" opacity="0.85"/><text x="227.4083170106976" y="384.1468850698174" fill="#7c8aa5" font-size="9">Boids</text><circle cx="229.89754407111647" cy="381.0405477980666" r="4.5" fill="#38bdf8" opacity="0.85"/><text x="236.89754407111647" y="395.0405477980666" fill="#7c8aa5" font-size="9">Biomorphs</text><circle cx="397.27135754105774" cy="529.1460794844253" r="4.5" fill="#38bdf8" opacity="0.85"/><text x="404.27135754105774" y="521.1460794844253" fill="#7c8aa5" font-size="9">Core War</text><circle cx="447.2412234443273" cy="538.422395273899" r="4.5" fill="#38bdf8" opacity="0.85"/><text x="454.2412234443273" y="552.422395273899" fill="#7c8aa5" font-size="9">Tierra</text><circle cx="508.5174024408618" cy="510.34103114930184" r="4.5" fill="#38bdf8" opacity="0.85"/><text x="515.5174024408618" y="502.34103114930184" fill="#7c8aa5" font-size="9">Avida</text><circle cx="555.660690070815" cy="347.0904940923738" r="4.5" fill="#38bdf8" opacity="0.85"/><text x="562.660690070815" y="361.0904940923738" fill="#7c8aa5" font-size="9">Polyworld</text><circle cx="567.1689016121741" cy="283.29215896885074" r="4.5" fill="#38bdf8" opacity="0.85"/><text x="574.1689016121741" y="275.29215896885074" fill="#7c8aa5" font-size="9">Framsticks</text><circle cx="430.1808045803827" cy="269.7247583243824" r="4.5" fill="#38bdf8" opacity="0.85"/><text x="437.1808045803827" y="283.7247583243824" fill="#7c8aa5" font-size="9">Karl Sims VC</text><circle cx="565.755612475516" cy="248.01691729323306" r="4.5" fill="#38bdf8" opacity="0.85"/><text x="572.755612475516" y="240.01691729323306" fill="#7c8aa5" font-size="9">Creatures</text><circle cx="413.32228416453216" cy="337.94038668098824" r="4.5" fill="#38bdf8" opacity="0.85"/><text x="420.32228416453216" y="351.94038668098824" fill="#7c8aa5" font-size="9">Darwin Pond</text><circle cx="452.99532921500673" cy="318.12567132116004" r="4.5" fill="#38bdf8" opacity="0.85"/><text x="459.99532921500673" y="310.12567132116004" fill="#7c8aa5" font-size="9">Gene Pool</text><circle cx="472.6804279041736" cy="473.17266380236305" r="4.5" fill="#38bdf8" opacity="0.85"/><text x="479.6804279041736" y="487.17266380236305" fill="#7c8aa5" font-size="9">Sugarscape</text><circle cx="449.2602079252674" cy="503.9044038668099" r="4.5" fill="#38bdf8" opacity="0.85"/><text x="456.2602079252674" y="495.9044038668099" fill="#7c8aa5" font-size="9">Echo</text><circle cx="431.1902968208528" cy="466.7360365198711" r="4.5" fill="#38bdf8" opacity="0.85"/><text x="438.1902968208528" y="480.7360365198711" fill="#7c8aa5" font-size="9">Swarm</text><circle cx="416.75455778213046" cy="305.3155209452202" r="4.5" fill="#38bdf8" opacity="0.85"/><text x="423.75455778213046" y="297.3155209452202" fill="#7c8aa5" font-size="9">breve</text><circle cx="481.7658580684044" cy="303.8641245972073" r="4.5" fill="#38bdf8" opacity="0.85"/><text x="488.7658580684044" y="317.8641245972073" fill="#7c8aa5" font-size="9">Picbreeder</text><circle cx="565.95751092361" cy="454.3045112781955" r="4.5" fill="#38bdf8" opacity="0.85"/><text x="572.95751092361" y="446.3045112781955" fill="#7c8aa5" font-size="9">MABE</text><circle cx="248.47220129576615" cy="288.59291084855" r="4.5" fill="#38bdf8" opacity="0.85"/><text x="255.47220129576615" y="302.59291084855" fill="#7c8aa5" font-size="9">Lenia</text><circle cx="321.8622871779418" cy="280.8310955961332" r="4.5" fill="#38bdf8" opacity="0.85"/><text x="328.8622871779418" y="272.8310955961332" fill="#7c8aa5" font-size="9">Growing NCA</text><circle cx="408.6786198583697" cy="173.6801825993556" r="4.5" fill="#38bdf8" opacity="0.85"/><text x="415.6786198583697" y="187.6801825993556" fill="#7c8aa5" font-size="9">OpenWorm</text><circle cx="538.9031188790116" cy="436.0674006444683" r="4.5" fill="#38bdf8" opacity="0.85"/><text x="545.9031188790116" y="428.0674006444683" fill="#7c8aa5" font-size="9">POET</text><circle cx="424.3257495856561" cy="330.6203007518797" r="4.5" fill="#38bdf8" opacity="0.85"/><text x="431.3257495856561" y="344.6203007518797" fill="#7c8aa5" font-size="9">EvoGym</text><circle cx="612.1922555371403" cy="146.86090225563913" r="4.5" fill="#38bdf8" opacity="0.85"/><text x="619.1922555371403" y="138.86090225563913" fill="#7c8aa5" font-size="9">ALIEN</text><circle cx="545.3638692180202" cy="287.2046186895811" r="4.5" fill="#38bdf8" opacity="0.85"/><text x="552.3638692180202" y="301.2046186895811" fill="#7c8aa5" font-size="9">ASAL</text><circle cx="94.42368540003015" cy="465.4108485499463" r="4.5" fill="#38bdf8" opacity="0.85"/><text x="101.42368540003015" y="457.4108485499463" fill="#7c8aa5" font-size="9">Wireworld</text><circle cx="94.42368540003015" cy="465.4108485499463" r="4.5" fill="#38bdf8" opacity="0.85"/><text x="101.42368540003015" y="479.4108485499463" fill="#7c8aa5" font-size="9">Langton's Ant</text><circle cx="188.00361609160768" cy="451.1493018259936" r="4.5" fill="#38bdf8" opacity="0.85"/><text x="195.00361609160768" y="443.1493018259936" fill="#7c8aa5" font-size="9">Langton's Loops</text><circle cx="186.69127617899653" cy="481.25" r="4.5" fill="#38bdf8" opacity="0.85"/><text x="193.69127617899653" y="495.25" fill="#7c8aa5" font-size="9">von Neumann Universal Constructor</text><circle cx="94.42368540003015" cy="465.4108485499463" r="4.5" fill="#38bdf8" opacity="0.85"/><text x="101.42368540003015" y="457.4108485499463" fill="#7c8aa5" font-size="9">Rule 110</text><circle cx="170.23655265933405" cy="337.4355531686359" r="4.5" fill="#38bdf8" opacity="0.85"/><text x="177.23655265933405" y="351.4355531686359" fill="#7c8aa5" font-size="9">SmoothLife</text><circle cx="170.23655265933405" cy="337.4355531686359" r="4.5" fill="#38bdf8" opacity="0.85"/><text x="177.23655265933405" y="329.4355531686359" fill="#7c8aa5" font-size="9">Larger than Life</text><circle cx="377.4853096278439" cy="296.92266380236305" r="4.5" fill="#38bdf8" opacity="0.85"/><text x="384.4853096278439" y="310.92266380236305" fill="#7c8aa5" font-size="9">Flow Lenia</text><circle cx="259.5766159409372" cy="314.40252416756175" r="4.5" fill="#38bdf8" opacity="0.85"/><text x="266.5766159409372" y="306.40252416756175" fill="#7c8aa5" font-size="9">Particle Lenia</text><circle cx="284.30917583245446" cy="354.03195488721803" r="4.5" fill="#38bdf8" opacity="0.85"/><text x="291.30917583245446" y="368.03195488721803" fill="#7c8aa5" font-size="9">Primordial Particle Systems</text><circle cx="165.4919391291246" cy="338.31901181525245" r="4.5" fill="#38bdf8" opacity="0.85"/><text x="172.4919391291246" y="330.31901181525245" fill="#7c8aa5" font-size="9">Gray-Scott Reaction-Diffusion</text><circle cx="396.6656621967756" cy="507.0596133190118" r="4.5" fill="#38bdf8" opacity="0.85"/><text x="403.6656621967756" y="521.0596133190118" fill="#7c8aa5" font-size="9">Aevol</text><circle cx="462.28265782733166" cy="481.50241675617616" r="4.5" fill="#38bdf8" opacity="0.85"/><text x="469.28265782733166" y="473.50241675617616" fill="#7c8aa5" font-size="9">Avida-ED</text><circle cx="338.41795992165135" cy="499.1084854994629" r="4.5" fill="#38bdf8" opacity="0.85"/><text x="345.41795992165135" y="513.1084854994629" fill="#7c8aa5" font-size="9">Nanopond</text><circle cx="301.066747024258" cy="493.05048335123524" r="4.5" fill="#38bdf8" opacity="0.85"/><text x="308.066747024258" y="485.05048335123524" fill="#7c8aa5" font-size="9">Physis</text><circle cx="355.7812264577369" cy="499.3609022556391" r="4.5" fill="#38bdf8" opacity="0.85"/><text x="362.7812264577369" y="513.3609022556391" fill="#7c8aa5" font-size="9">Cosmos</text><circle cx="631.170709657978" cy="476.32787325456496" r="4.5" fill="#38bdf8" opacity="0.85"/><text x="638.170709657978" y="468.32787325456496" fill="#7c8aa5" font-size="9">Geb</text><circle cx="355.7812264577369" cy="499.3609022556391" r="4.5" fill="#38bdf8" opacity="0.85"/><text x="362.7812264577369" y="513.3609022556391" fill="#7c8aa5" font-size="9">Amoeba</text><circle cx="412.009944251921" cy="404.7046186895811" r="4.5" fill="#38bdf8" opacity="0.85"/><text x="419.009944251921" y="396.7046186895811" fill="#7c8aa5" font-size="9">Evolve 4.0</text><circle cx="300.1582040078349" cy="389.24409237379166" r="4.5" fill="#38bdf8" opacity="0.85"/><text x="307.1582040078349" y="403.24409237379166" fill="#7c8aa5" font-size="9">Squirm3</text><circle cx="393.23338857917736" cy="505.4189044038668" r="4.5" fill="#38bdf8" opacity="0.85"/><text x="400.23338857917736" y="497.4189044038668" fill="#7c8aa5" font-size="9">Network Tierra</text><circle cx="439.26623474461354" cy="402.49597207303975" r="4.5" fill="#38bdf8" opacity="0.85"/><text x="446.26623474461354" y="416.49597207303975" fill="#7c8aa5" font-size="9">biosim4</text><circle cx="342.1530812113907" cy="331.31444683136414" r="4.5" fill="#38bdf8" opacity="0.85"/><text x="349.1530812113907" y="323.31444683136414" fill="#7c8aa5" font-size="9">GOLEM (Genetically Organized Lifelike Electro Mechanics)</text><circle cx="207.68871478077446" cy="325.95059076262083" r="4.5" fill="#38bdf8" opacity="0.85"/><text x="214.68871478077446" y="339.95059076262083" fill="#7c8aa5" font-size="9">Voxelyze / VoxCAD</text><circle cx="384.8546029832756" cy="296.2285177228787" r="4.5" fill="#38bdf8" opacity="0.85"/><text x="391.8546029832756" y="288.2285177228787" fill="#7c8aa5" font-size="9">3D Virtual Creature Evolution (3DVCE)</text><circle cx="536.8841343980714" cy="331.81928034371646" r="4.5" fill="#38bdf8" opacity="0.85"/><text x="543.8841343980714" y="345.81928034371646" fill="#7c8aa5" font-size="9">DERL (Deep Evolutionary Reinforcement Learning)</text><circle cx="514.9781527798704" cy="327.59129967776585" r="4.5" fill="#38bdf8" opacity="0.85"/><text x="521.9781527798704" y="319.59129967776585" fill="#7c8aa5" font-size="9">UNIMAL (Universal Animal design space)</text><circle cx="360.1220430917583" cy="307.0193340494093" r="4.5" fill="#38bdf8" opacity="0.85"/><text x="367.1220430917583" y="321.0193340494093" fill="#7c8aa5" font-size="9">Evolving Soft Robots (Cheney / Unshackling Evolution)</text><circle cx="429.17131233991256" cy="329.6737379162191" r="4.5" fill="#38bdf8" opacity="0.85"/><text x="436.17131233991256" y="321.6737379162191" fill="#7c8aa5" font-size="9">RoboGrammar</text><circle cx="480.75636582793425" cy="379.9677765843179" r="4.5" fill="#38bdf8" opacity="0.85"/><text x="487.75636582793425" y="393.9677765843179" fill="#7c8aa5" font-size="9">Transform2Act</text><circle cx="322.5689317462709" cy="384.25886143931257" r="4.5" fill="#38bdf8" opacity="0.85"/><text x="329.5689317462709" y="376.25886143931257" fill="#7c8aa5" font-size="9">NerveNet</text><circle cx="461.17221636281454" cy="354.4105800214823" r="4.5" fill="#38bdf8" opacity="0.85"/><text x="468.17221636281454" y="368.4105800214823" fill="#7c8aa5" font-size="9">Neural Graph Evolution (NGE)</text><circle cx="313.8872984782281" cy="352.70676691729324" r="4.5" fill="#38bdf8" opacity="0.85"/><text x="320.8872984782281" y="344.70676691729324" fill="#7c8aa5" font-size="9">Krcah Evolved Virtual Creatures (ERO)</text><circle cx="527.8996534578876" cy="500.68609022556393" r="4.5" fill="#38bdf8" opacity="0.85"/><text x="534.8996534578876" y="514.6860902255639" fill="#7c8aa5" font-size="9">NEAT (NeuroEvolution of Augmenting Topologies)</text><circle cx="522.8521922555371" cy="443.8292158968851" r="4.5" fill="#38bdf8" opacity="0.85"/><text x="529.8521922555371" y="435.8292158968851" fill="#7c8aa5" font-size="9">HyperNEAT</text><circle cx="483.5829441012505" cy="439.41192266380233" r="4.5" fill="#38bdf8" opacity="0.85"/><text x="490.5829441012505" y="453.41192266380233" fill="#7c8aa5" font-size="9">ES-HyperNEAT</text><circle cx="566.5632062678922" cy="482.76450053705696" r="4.5" fill="#38bdf8" opacity="0.85"/><text x="573.5632062678922" y="474.76450053705696" fill="#7c8aa5" font-size="9">Novelty Search</text><circle cx="556.7711315353322" cy="426.85418904403866" r="4.5" fill="#38bdf8" opacity="0.85"/><text x="563.7711315353322" y="440.85418904403866" fill="#7c8aa5" font-size="9">MAP-Elites</text><circle cx="556.7711315353322" cy="426.85418904403866" r="4.5" fill="#38bdf8" opacity="0.85"/><text x="563.7711315353322" y="418.85418904403866" fill="#7c8aa5" font-size="9">Quality-Diversity (illumination algorithms)</text><circle cx="425.8399879463613" cy="394.16621911922664" r="4.5" fill="#38bdf8" opacity="0.85"/><text x="432.8399879463613" y="408.16621911922664" fill="#7c8aa5" font-size="9">Go-Explore</text><circle cx="538.9031188790116" cy="436.0674006444683" r="4.5" fill="#38bdf8" opacity="0.85"/><text x="545.9031188790116" y="428.0674006444683" fill="#7c8aa5" font-size="9">OMNI (Open-endedness via Models of human Notions of Interestingness)</text><circle cx="548.7961428356185" cy="449.19307196562835" r="4.5" fill="#38bdf8" opacity="0.85"/><text x="555.7961428356185" y="463.19307196562835" fill="#7c8aa5" font-size="9">Minimal Criterion Coevolution (MCC)</text><circle cx="450.2697001657375" cy="400.03490870032226" r="4.5" fill="#38bdf8" opacity="0.85"/><text x="457.2697001657375" y="392.03490870032226" fill="#7c8aa5" font-size="9">Innovation Engines</text><circle cx="371.5293054090704" cy="355.79887218045116" r="4.5" fill="#38bdf8" opacity="0.85"/><text x="378.5293054090704" y="369.79887218045116" fill="#7c8aa5" font-size="9">EndlessForms</text><circle cx="323.07367786650593" cy="430.57733619763695" r="4.5" fill="#38bdf8" opacity="0.85"/><text x="330.07367786650593" y="422.57733619763695" fill="#7c8aa5" font-size="9">NetLogo</text><circle cx="359.61729697152333" cy="403.50563909774434" r="4.5" fill="#38bdf8" opacity="0.85"/><text x="366.61729697152333" y="417.50563909774434" fill="#7c8aa5" font-size="9">MASON</text><circle cx="355.07458188940785" cy="427.42212674543504" r="4.5" fill="#38bdf8" opacity="0.85"/><text x="362.07458188940785" y="419.42212674543504" fill="#7c8aa5" font-size="9">Repast</text><circle cx="238.57917733915923" cy="452.6006981740064" r="4.5" fill="#38bdf8" opacity="0.85"/><text x="245.57917733915923" y="466.6006981740064" fill="#7c8aa5" font-size="9">StarLogo</text><circle cx="293.2936567726382" cy="458.97422126745437" r="4.5" fill="#38bdf8" opacity="0.85"/><text x="300.2936567726382" y="450.97422126745437" fill="#7c8aa5" font-size="9">Ascape</text><circle cx="350.0271206870574" cy="370.56525241675615" r="4.5" fill="#38bdf8" opacity="0.85"/><text x="357.0271206870574" y="384.56525241675615" fill="#7c8aa5" font-size="9">GAMA Platform</text><circle cx="323.07367786650593" cy="430.57733619763695" r="4.5" fill="#38bdf8" opacity="0.85"/><text x="330.07367786650593" y="422.57733619763695" fill="#7c8aa5" font-size="9">Mesa</text><circle cx="161.35302094319724" cy="361.2889366272825" r="4.5" fill="#38bdf8" opacity="0.85"/><text x="168.35302094319724" y="375.2889366272825" fill="#7c8aa5" font-size="9">OpenSteer</text><circle cx="223.6386921802019" cy="460.86734693877554" r="4.5" fill="#38bdf8" opacity="0.85"/><text x="230.6386921802019" y="452.86734693877554" fill="#7c8aa5" font-size="9">Artificial Anasazi</text><circle cx="140.65843001356038" cy="448.05719656283566" r="4.5" fill="#38bdf8" opacity="0.85"/><text x="147.65843001356038" y="462.05719656283566" fill="#7c8aa5" font-size="9">Schelling Segregation Model</text><circle cx="285.7224649691126" cy="498.98227712137486" r="4.5" fill="#38bdf8" opacity="0.85"/><text x="292.7224649691126" y="490.98227712137486" fill="#7c8aa5" font-size="9">El Farol Bar Problem</text><circle cx="173.46692782883832" cy="274.8361976369495" r="4.5" fill="#38bdf8" opacity="0.85"/><text x="180.46692782883832" y="288.8361976369495" fill="#7c8aa5" font-size="9">Spore</text><circle cx="302.5809853849631" cy="461.9401181525242" r="4.5" fill="#38bdf8" opacity="0.85"/><text x="309.5809853849631" y="453.9401181525242" fill="#7c8aa5" font-size="9">SimLife: The Genetic Playground</text><circle cx="211.32288684646676" cy="454.8093447905478" r="4.5" fill="#38bdf8" opacity="0.85"/><text x="218.32288684646676" y="468.8093447905478" fill="#7c8aa5" font-size="9">SimEarth: The Living Planet</text><circle cx="214.85610968811213" cy="450.0134264232008" r="4.5" fill="#38bdf8" opacity="0.85"/><text x="221.85610968811213" y="442.0134264232008" fill="#7c8aa5" font-size="9">SimAnt: The Electric Ant Colony</text><circle cx="299.1487117673648" cy="345.765306122449" r="4.5" fill="#38bdf8" opacity="0.85"/><text x="306.1487117673648" y="359.765306122449" fill="#7c8aa5" font-size="9">Thrive</text><circle cx="271.38767515443726" cy="329.79994629430723" r="4.5" fill="#38bdf8" opacity="0.85"/><text x="278.38767515443726" y="321.79994629430723" fill="#7c8aa5" font-size="9">Cell Lab: Evolution Sandbox</text><circle cx="429.7770076841947" cy="357.3764769065521" r="4.5" fill="#38bdf8" opacity="0.85"/><text x="436.7770076841947" y="371.3764769065521" fill="#7c8aa5" font-size="9">Species: Artificial Life, Real Evolution</text><circle cx="498.82627693234895" cy="407.92293233082705" r="4.5" fill="#38bdf8" opacity="0.85"/><text x="505.82627693234895" y="399.92293233082705" fill="#7c8aa5" font-size="9">The Bibites</text><circle cx="98.25975591381648" cy="360.6578947368421" r="4.5" fill="#38bdf8" opacity="0.85"/><text x="105.25975591381648" y="374.6578947368421" fill="#7c8aa5" font-size="9">The Powder Toy</text><circle cx="60" cy="268.3995703544576" r="4.5" fill="#38bdf8" opacity="0.85"/><text x="67" y="260.3995703544576" fill="#7c8aa5" font-size="9">Noita</text><circle cx="311.5654663251469" cy="438.0867346938776" r="4.5" fill="#38bdf8" opacity="0.85"/><text x="318.5654663251469" y="452.0867346938776" fill="#7c8aa5" font-size="9">The Life Engine</text><circle cx="110.67651047159865" cy="321.6595059076262" r="4.5" fill="#38bdf8" opacity="0.85"/><text x="117.67651047159865" y="313.6595059076262" fill="#7c8aa5" font-size="9">Clusters (Particle Life)</text><circle cx="94.8274822962182" cy="296.796455424275" r="4.5" fill="#38bdf8" opacity="0.85"/><text x="101.8274822962182" y="310.796455424275" fill="#7c8aa5" font-size="9">Sandspiel</text><circle cx="314.49299382251024" cy="352.51745435016113" r="4.5" fill="#38bdf8" opacity="0.85"/><text x="321.49299382251024" y="344.51745435016113" fill="#7c8aa5" font-size="9">Sebastian Lague Ecosystem</text><circle cx="167.3090251619708" cy="330.30477980665955" r="4.5" fill="#38bdf8" opacity="0.85"/><text x="174.3090251619708" y="344.30477980665955" fill="#7c8aa5" font-size="9">Pezzza's Ant Colony Simulation</text><circle cx="294.50504746120237" cy="374.5408163265306" r="4.5" fill="#38bdf8" opacity="0.85"/><text x="301.50504746120237" y="366.5408163265306" fill="#7c8aa5" font-size="9">Primer Evolution Simulations</text><circle cx="340.84074129877956" cy="292.69468313641244" r="4.5" fill="#38bdf8" opacity="0.85"/><text x="347.84074129877956" y="306.69468313641244" fill="#7c8aa5" font-size="9">Keiwan Evolution</text><circle cx="345.18155793280096" cy="316.1063372717508" r="4.5" fill="#38bdf8" opacity="0.85"/><text x="352.18155793280096" y="308.1063372717508" fill="#7c8aa5" font-size="9">DevoWorm</text><circle cx="206.9820702124454" cy="368.10418904403866" r="4.5" fill="#38bdf8" opacity="0.85"/><text x="213.9820702124454" y="382.10418904403866" fill="#7c8aa5" font-size="9">Morphozoic</text><circle cx="441.38616844960075" cy="411.6460794844254" r="4.5" fill="#38bdf8" opacity="0.85"/><text x="448.38616844960075" y="403.6460794844254" fill="#7c8aa5" font-size="9">Chromaria</text><circle cx="460.16272412234446" cy="361.2889366272825" r="4.5" fill="#38bdf8" opacity="0.85"/><text x="467.16272412234446" y="375.2889366272825" fill="#7c8aa5" font-size="9">Division Blocks</text><circle cx="463.49404851589566" cy="395.42830290010744" r="4.5" fill="#38bdf8" opacity="0.85"/><text x="470.49404851589566" y="387.42830290010744" fill="#7c8aa5" font-size="9">Voyager (Minecraft LLM agent)</text><circle cx="402.01597107126713" cy="416.000268528464" r="4.5" fill="#38bdf8" opacity="0.85"/><text x="409.01597107126713" y="430.000268528464" fill="#7c8aa5" font-size="9">Generative Agents (Smallville)</text><circle cx="532.341419315956" cy="386.27819548872185" r="4.5" fill="#38bdf8" opacity="0.85"/><text x="539.341419315956" y="378.27819548872185" fill="#7c8aa5" font-size="9">OMNI-EPIC</text><circle cx="327.61639294862135" cy="331.81928034371646" r="4.5" fill="#38bdf8" opacity="0.85"/><text x="334.61639294862135" y="345.81928034371646" fill="#7c8aa5" font-size="9">Genie (Generative Interactive Environments)</text><circle cx="482.6744010848275" cy="393.97690655209453" r="4.5" fill="#38bdf8" opacity="0.85"/><text x="489.6744010848275" y="385.97690655209453" fill="#7c8aa5" font-size="9">Evolution through Large Models (ELM)</text><circle cx="500.6433629651951" cy="475.0657894736842" r="4.5" fill="#38bdf8" opacity="0.85"/><text x="507.6433629651951" y="489.0657894736842" fill="#7c8aa5" font-size="9">OpenELM</text><circle cx="523.6597860479133" cy="519.8066595059076" r="4.5" fill="#38bdf8" opacity="0.85"/><text x="530.6597860479133" y="511.80665950590765" fill="#7c8aa5" font-size="9">Automated Design of Agentic Systems (ADAS)</text><circle cx="470.4595449751394" cy="478.4734156820623" r="4.5" fill="#38bdf8" opacity="0.85"/><text x="477.4595449751394" y="492.4734156820623" fill="#7c8aa5" font-size="9">The AI Scientist</text><circle cx="589.5796293506102" cy="527.5053705692803" r="4.5" fill="#38bdf8" opacity="0.85"/><text x="596.5796293506102" y="519.5053705692803" fill="#7c8aa5" font-size="9">Darwin Godel Machine (DGM)</text><circle cx="348.9166792225403" cy="509.4575725026853" r="4.5" fill="#38bdf8" opacity="0.85"/><text x="355.9166792225403" y="523.4575725026853" fill="#7c8aa5" font-size="9">Promptbreeder</text><circle cx="392.9305409070363" cy="513.0545112781955" r="4.5" fill="#38bdf8" opacity="0.85"/><text x="399.9305409070363" y="505.0545112781955" fill="#7c8aa5" font-size="9">Quality-Diversity through AI Feedback (QDAIF)</text><circle cx="431.1902968208528" cy="540" r="4.5" fill="#38bdf8" opacity="0.85"/><text x="438.1902968208528" y="554" fill="#7c8aa5" font-size="9">Stringmol</text><circle cx="269.3686906734971" cy="460.8042427497315" r="4.5" fill="#38bdf8" opacity="0.85"/><text x="276.3686906734971" y="452.8042427497315" fill="#7c8aa5" font-size="9">Evoloop / SDSR Loop</text><circle cx="287.2367033298177" cy="337.1831364124597" r="4.5" fill="#38bdf8" opacity="0.85"/><text x="294.2367033298177" y="351.1831364124597" fill="#7c8aa5" font-size="9">Xenobots (reconfigurable organisms)</text><circle cx="168.4194666264879" cy="321.4701933404941" r="4.5" fill="#38bdf8" opacity="0.85"/><text x="175.4194666264879" y="313.4701933404941" fill="#7c8aa5" font-size="9">Voxcraft-sim</text><circle cx="446.02983275576315" cy="419.5341031149302" r="4.5" fill="#38bdf8" opacity="0.85"/><text x="453.02983275576315" y="433.5341031149302" fill="#7c8aa5" font-size="9">Neural MMO</text><circle cx="441.2852192255537" cy="420.4806659505908" r="4.5" fill="#38bdf8" opacity="0.85"/><text x="448.2852192255537" y="412.4806659505908" fill="#7c8aa5" font-size="9">Melting Pot</text><circle cx="463.7968961880368" cy="453.1686358754028" r="4.5" fill="#38bdf8" opacity="0.85"/><text x="470.7968961880368" y="467.1686358754028" fill="#7c8aa5" font-size="9">Craftax</text><circle cx="210.11149615790268" cy="450.51825993555315" r="4.5" fill="#38bdf8" opacity="0.85"/><text x="217.11149615790268" y="442.51825993555315" fill="#7c8aa5" font-size="9">Chemlambda</text><circle cx="323.88127165888204" cy="381.48227712137486" r="4.5" fill="#38bdf8" opacity="0.85"/><text x="330.88127165888204" y="395.48227712137486" fill="#7c8aa5" font-size="9">Swarm Chemistry</text><circle cx="101.49013108332078" cy="419.155477980666" r="4.5" fill="#38bdf8" opacity="0.85"/><text x="108.49013108332078" y="411.155477980666" fill="#7c8aa5" font-size="9">Autopoietic Tessellation (Varela-Maturana-Uribe)</text><circle cx="300.66295012806995" cy="412.15091299677766" r="4.5" fill="#38bdf8" opacity="0.85"/><text x="307.66295012806995" y="426.15091299677766" fill="#7c8aa5" font-size="9">LIDA</text><circle cx="343.4654211240018" cy="528.0733082706766" r="4.5" fill="#38bdf8" opacity="0.85"/><text x="350.4654211240018" y="520.0733082706766" fill="#7c8aa5" font-size="9">AlChemy (algorithmic chemistry)</text><circle cx="135.6109688112099" cy="457.7752416756176" r="4.5" fill="#38bdf8" opacity="0.85"/><text x="142.6109688112099" y="471.7752416756176" fill="#7c8aa5" font-size="9">Conscious Turing Machine (CTM)</text><circle cx="363.8571643814977" cy="301.9078947368421" r="4.5" fill="#38bdf8" opacity="0.85"/><text x="370.8571643814977" y="293.9078947368421" fill="#7c8aa5" font-size="9">PhysiCell</text><circle cx="202.23745668223597" cy="334.28034371643395" r="4.5" fill="#38bdf8" opacity="0.85"/><text x="209.23745668223597" y="348.28034371643395" fill="#7c8aa5" font-size="9">Sodarace / Soda Constructor</text><circle cx="326.50595148410423" cy="452.3482814178303" r="4.5" fill="#38bdf8" opacity="0.85"/><text x="333.50595148410423" y="444.3482814178303" fill="#7c8aa5" font-size="9">Genesys/Tracker</text>
</svg>