<svg xmlns="http://www.w3.org/2000/svg" viewBox="0 0 720 540" font-family="ui-sans-serif,system-ui,Segoe UI,Roboto,sans-serif" role="img" aria-label="Pareto frontier">
<rect width="720" height="540" rx="14" fill="#0b1220"/>
<text x="28" y="30" fill="#cbd5e1" font-size="18" font-weight="700">Pareto frontier — breadth vs peer maturity</text><text x="28" y="50" fill="#7c8aa5" font-size="12">green ring = non-dominated (Pareto-optimal). no system beats Cosmogonic on breadth; many beat it on maturity.</text><line x1="70" y1="70" x2="70" y2="480" stroke="#27344d" stroke-width="0.6"/><line x1="70" y1="480" x2="690" y2="480" stroke="#27344d" stroke-width="0.6"/><text x="70" y="496" fill="#7c8aa5" font-size="10" text-anchor="middle">0</text><text x="62" y="483" fill="#7c8aa5" font-size="10" text-anchor="end">0</text><line x1="194" y1="70" x2="194" y2="480" stroke="#27344d" stroke-width="0.6"/><line x1="70" y1="398" x2="690" y2="398" stroke="#27344d" stroke-width="0.6"/><text x="194" y="496" fill="#7c8aa5" font-size="10" text-anchor="middle">1</text><text x="62" y="401" fill="#7c8aa5" font-size="10" text-anchor="end">1</text><line x1="318" y1="70" x2="318" y2="480" stroke="#27344d" stroke-width="0.6"/><line x1="70" y1="316" x2="690" y2="316" stroke="#27344d" stroke-width="0.6"/><text x="318" y="496" fill="#7c8aa5" font-size="10" text-anchor="middle">2</text><text x="62" y="319" fill="#7c8aa5" font-size="10" text-anchor="end">2</text><line x1="442" y1="70" x2="442" y2="480" stroke="#27344d" stroke-width="0.6"/><line x1="70" y1="234" x2="690" y2="234" stroke="#27344d" stroke-width="0.6"/><text x="442" y="496" fill="#7c8aa5" font-size="10" text-anchor="middle">3</text><text x="62" y="237" fill="#7c8aa5" font-size="10" text-anchor="end">3</text><line x1="566" y1="70" x2="566" y2="480" stroke="#27344d" stroke-width="0.6"/><line x1="70" y1="152" x2="690" y2="152" stroke="#27344d" stroke-width="0.6"/><text x="566" y="496" fill="#7c8aa5" font-size="10" text-anchor="middle">4</text><text x="62" y="155" fill="#7c8aa5" font-size="10" text-anchor="end">4</text><line x1="690" y1="70" x2="690" y2="480" stroke="#27344d" stroke-width="0.6"/><line x1="70" y1="70" x2="690" y2="70" stroke="#27344d" stroke-width="0.6"/><text x="690" y="496" fill="#7c8aa5" font-size="10" text-anchor="middle">5</text><text x="62" y="73" fill="#7c8aa5" font-size="10" text-anchor="end">5</text><text x="395" y="526" fill="#cbd5e1" font-size="12" text-anchor="middle">peer maturity →</text><text x="20" y="275" fill="#cbd5e1" font-size="12" text-anchor="middle" transform="rotate(-90 20 275)">breadth →</text><polyline points="256,178.404 380,193 566,206.69399999999996 628,234 690,243.102" fill="none" stroke="#34d399" stroke-width="1.2" stroke-dasharray="5 4" opacity="0.7"/><circle cx="256" cy="178.404" r="8" fill="#f59e0b"/><circle cx="256" cy="178.404" r="13" fill="none" stroke="#34d399" stroke-width="1.8"/><text x="244" y="168.404" fill="#f59e0b" font-size="11" font-weight="700" text-anchor="end">COSMOGONIC</text><circle cx="690" cy="334.20399999999995" r="4.5" fill="#38bdf8" opacity="0.85"/><text x="697" y="348.20399999999995" fill="#7c8aa5" font-size="9">Game of Life</text><circle cx="690" cy="343.306" r="4.5" fill="#38bdf8" opacity="0.85"/><text x="697" y="335.306" fill="#7c8aa5" font-size="9">Boids</text><circle cx="566" cy="343.306" r="4.5" fill="#38bdf8" opacity="0.85"/><text x="573" y="357.306" fill="#7c8aa5" font-size="9">Biomorphs</text><circle cx="504" cy="334.20399999999995" r="4.5" fill="#38bdf8" opacity="0.85"/><text x="511" y="326.20399999999995" fill="#7c8aa5" font-size="9">Core War</text><circle cx="690" cy="320.592" r="4.5" fill="#38bdf8" opacity="0.85"/><text x="697" y="334.592" fill="#7c8aa5" font-size="9">Tierra</text><circle cx="690" cy="288.69399999999996" r="4.5" fill="#38bdf8" opacity="0.85"/><text x="697" y="280.69399999999996" fill="#7c8aa5" font-size="9">Avida</text><circle cx="628" cy="234" r="4.5" fill="#38bdf8" opacity="0.85"/><circle cx="628" cy="234" r="8" fill="none" stroke="#34d399" stroke-width="1.5"/><text x="635" y="248" fill="#7c8aa5" font-size="9">Polyworld</text><circle cx="566" cy="215.796" r="4.5" fill="#38bdf8" opacity="0.85"/><text x="573" y="207.796" fill="#7c8aa5" font-size="9">Framsticks</text><circle cx="690" cy="243.102" r="4.5" fill="#38bdf8" opacity="0.85"/><circle cx="690" cy="243.102" r="8" fill="none" stroke="#34d399" stroke-width="1.5"/><text x="697" y="257.102" fill="#7c8aa5" font-size="9">Karl Sims VC</text><circle cx="566" cy="206.69399999999996" r="4.5" fill="#38bdf8" opacity="0.85"/><circle cx="566" cy="206.69399999999996" r="8" fill="none" stroke="#34d399" stroke-width="1.5"/><text x="573" y="198.69399999999996" fill="#7c8aa5" font-size="9">Creatures</text><circle cx="442" cy="261.30600000000004" r="4.5" fill="#38bdf8" opacity="0.85"/><text x="449" y="275.30600000000004" fill="#7c8aa5" font-size="9">Darwin Pond</text><circle cx="442" cy="238.592" r="4.5" fill="#38bdf8" opacity="0.85"/><text x="449" y="230.592" fill="#7c8aa5" font-size="9">Gene Pool</text><circle cx="690" cy="288.69399999999996" r="4.5" fill="#38bdf8" opacity="0.85"/><text x="697" y="302.69399999999996" fill="#7c8aa5" font-size="9">Sugarscape</text><circle cx="566" cy="306.898" r="4.5" fill="#38bdf8" opacity="0.85"/><text x="573" y="298.898" fill="#7c8aa5" font-size="9">Echo</text><circle cx="690" cy="302.30600000000004" r="4.5" fill="#38bdf8" opacity="0.85"/><text x="697" y="316.30600000000004" fill="#7c8aa5" font-size="9">Swarm</text><circle cx="566" cy="252.204" r="4.5" fill="#38bdf8" opacity="0.85"/><text x="573" y="244.204" fill="#7c8aa5" font-size="9">breve</text><circle cx="628" cy="243.102" r="4.5" fill="#38bdf8" opacity="0.85"/><text x="635" y="257.102" fill="#7c8aa5" font-size="9">Picbreeder</text><circle cx="628" cy="261.30600000000004" r="4.5" fill="#38bdf8" opacity="0.85"/><text x="635" y="253.30600000000004" fill="#7c8aa5" font-size="9">MABE</text><circle cx="566" cy="316" r="4.5" fill="#38bdf8" opacity="0.85"/><text x="573" y="330" fill="#7c8aa5" font-size="9">Lenia</text><circle cx="566" cy="311.408" r="4.5" fill="#38bdf8" opacity="0.85"/><text x="573" y="303.408" fill="#7c8aa5" font-size="9">Growing NCA</text><circle cx="566" cy="279.592" r="4.5" fill="#38bdf8" opacity="0.85"/><text x="573" y="293.592" fill="#7c8aa5" font-size="9">OpenWorm</text><circle cx="566" cy="288.69399999999996" r="4.5" fill="#38bdf8" opacity="0.85"/><text x="573" y="280.69399999999996" fill="#7c8aa5" font-size="9">POET</text><circle cx="566" cy="279.592" r="4.5" fill="#38bdf8" opacity="0.85"/><text x="573" y="293.592" fill="#7c8aa5" font-size="9">EvoGym</text><circle cx="380" cy="193" r="4.5" fill="#38bdf8" opacity="0.85"/><circle cx="380" cy="193" r="8" fill="none" stroke="#34d399" stroke-width="1.5"/><text x="387" y="185" fill="#7c8aa5" font-size="9">ALIEN</text><circle cx="504" cy="261.30600000000004" r="4.5" fill="#38bdf8" opacity="0.85"/><text x="511" y="275.30600000000004" fill="#7c8aa5" font-size="9">ASAL</text><circle cx="566" cy="425.306" r="4.5" fill="#38bdf8" opacity="0.85"/><text x="573" y="417.306" fill="#7c8aa5" font-size="9">Wireworld</text><circle cx="566" cy="425.306" r="4.5" fill="#38bdf8" opacity="0.85"/><text x="573" y="439.306" fill="#7c8aa5" font-size="9">Langton's Ant</text><circle cx="690" cy="370.694" r="4.5" fill="#38bdf8" opacity="0.85"/><text x="697" y="362.694" fill="#7c8aa5" font-size="9">Langton's Loops</text><circle cx="690" cy="388.898" r="4.5" fill="#38bdf8" opacity="0.85"/><text x="697" y="402.898" fill="#7c8aa5" font-size="9">von Neumann Universal Constructor</text><circle cx="690" cy="425.306" r="4.5" fill="#38bdf8" opacity="0.85"/><text x="697" y="417.306" fill="#7c8aa5" font-size="9">Rule 110</text><circle cx="442" cy="352.408" r="4.5" fill="#38bdf8" opacity="0.85"/><text x="449" y="366.408" fill="#7c8aa5" font-size="9">SmoothLife</text><circle cx="442" cy="352.408" r="4.5" fill="#38bdf8" opacity="0.85"/><text x="449" y="344.408" fill="#7c8aa5" font-size="9">Larger than Life</text><circle cx="442" cy="270.408" r="4.5" fill="#38bdf8" opacity="0.85"/><text x="449" y="284.408" fill="#7c8aa5" font-size="9">Flow Lenia</text><circle cx="442" cy="316" r="4.5" fill="#38bdf8" opacity="0.85"/><text x="449" y="308" fill="#7c8aa5" font-size="9">Particle Lenia</text><circle cx="566" cy="306.898" r="4.5" fill="#38bdf8" opacity="0.85"/><text x="573" y="320.898" fill="#7c8aa5" font-size="9">Primordial Particle Systems</text><circle cx="566" cy="352.408" r="4.5" fill="#38bdf8" opacity="0.85"/><text x="573" y="344.408" fill="#7c8aa5" font-size="9">Gray-Scott Reaction-Diffusion</text><circle cx="566" cy="325.102" r="4.5" fill="#38bdf8" opacity="0.85"/><text x="573" y="339.102" fill="#7c8aa5" font-size="9">Aevol</text><circle cx="566" cy="288.69399999999996" r="4.5" fill="#38bdf8" opacity="0.85"/><text x="573" y="280.69399999999996" fill="#7c8aa5" font-size="9">Avida-ED</text><circle cx="442" cy="334.20399999999995" r="4.5" fill="#38bdf8" opacity="0.85"/><text x="449" y="348.20399999999995" fill="#7c8aa5" font-size="9">Nanopond</text><circle cx="318" cy="352.408" r="4.5" fill="#38bdf8" opacity="0.85"/><text x="325" y="344.408" fill="#7c8aa5" font-size="9">Physis</text><circle cx="442" cy="334.20399999999995" r="4.5" fill="#38bdf8" opacity="0.85"/><text x="449" y="348.20399999999995" fill="#7c8aa5" font-size="9">Cosmos</text><circle cx="566" cy="252.204" r="4.5" fill="#38bdf8" opacity="0.85"/><text x="573" y="244.204" fill="#7c8aa5" font-size="9">Geb</text><circle cx="442" cy="334.20399999999995" r="4.5" fill="#38bdf8" opacity="0.85"/><text x="449" y="348.20399999999995" fill="#7c8aa5" font-size="9">Amoeba</text><circle cx="442" cy="288.69399999999996" r="4.5" fill="#38bdf8" opacity="0.85"/><text x="449" y="280.69399999999996" fill="#7c8aa5" font-size="9">Evolve 4.0</text><circle cx="442" cy="316" r="4.5" fill="#38bdf8" opacity="0.85"/><text x="449" y="330" fill="#7c8aa5" font-size="9">Squirm3</text><circle cx="566" cy="316" r="4.5" fill="#38bdf8" opacity="0.85"/><text x="573" y="308" fill="#7c8aa5" font-size="9">Network Tierra</text><circle cx="318" cy="279.592" r="4.5" fill="#38bdf8" opacity="0.85"/><text x="325" y="293.592" fill="#7c8aa5" font-size="9">biosim4</text><circle cx="690" cy="297.796" r="4.5" fill="#38bdf8" opacity="0.85"/><text x="697" y="289.796" fill="#7c8aa5" font-size="9">GOLEM (Genetically Organized Lifelike Electro Mechanics)</text><circle cx="566" cy="343.306" r="4.5" fill="#38bdf8" opacity="0.85"/><text x="573" y="357.306" fill="#7c8aa5" font-size="9">Voxelyze / VoxCAD</text><circle cx="442" cy="270.408" r="4.5" fill="#38bdf8" opacity="0.85"/><text x="449" y="262.408" fill="#7c8aa5" font-size="9">3D Virtual Creature Evolution (3DVCE)</text><circle cx="504" cy="243.102" r="4.5" fill="#38bdf8" opacity="0.85"/><text x="511" y="257.102" fill="#7c8aa5" font-size="9">DERL (Deep Evolutionary Reinforcement Learning)</text><circle cx="442" cy="252.204" r="4.5" fill="#38bdf8" opacity="0.85"/><text x="449" y="244.204" fill="#7c8aa5" font-size="9">UNIMAL (Universal Animal design space)</text><circle cx="566" cy="279.592" r="4.5" fill="#38bdf8" opacity="0.85"/><text x="573" y="293.592" fill="#7c8aa5" font-size="9">Evolving Soft Robots (Cheney / Unshackling Evolution)</text><circle cx="504" cy="279.592" r="4.5" fill="#38bdf8" opacity="0.85"/><text x="511" y="271.592" fill="#7c8aa5" font-size="9">RoboGrammar</text><circle cx="442" cy="279.592" r="4.5" fill="#38bdf8" opacity="0.85"/><text x="449" y="293.592" fill="#7c8aa5" font-size="9">Transform2Act</text><circle cx="504" cy="334.20399999999995" r="4.5" fill="#38bdf8" opacity="0.85"/><text x="511" y="326.20399999999995" fill="#7c8aa5" font-size="9">NerveNet</text><circle cx="442" cy="270.408" r="4.5" fill="#38bdf8" opacity="0.85"/><text x="449" y="284.408" fill="#7c8aa5" font-size="9">Neural Graph Evolution (NGE)</text><circle cx="442" cy="306.898" r="4.5" fill="#38bdf8" opacity="0.85"/><text x="449" y="298.898" fill="#7c8aa5" font-size="9">Krcah Evolved Virtual Creatures (ERO)</text><circle cx="690" cy="297.796" r="4.5" fill="#38bdf8" opacity="0.85"/><text x="697" y="311.796" fill="#7c8aa5" font-size="9">NEAT (NeuroEvolution of Augmenting Topologies)</text><circle cx="566" cy="279.592" r="4.5" fill="#38bdf8" opacity="0.85"/><text x="573" y="271.592" fill="#7c8aa5" font-size="9">HyperNEAT</text><circle cx="442" cy="288.69399999999996" r="4.5" fill="#38bdf8" opacity="0.85"/><text x="449" y="302.69399999999996" fill="#7c8aa5" font-size="9">ES-HyperNEAT</text><circle cx="566" cy="288.69399999999996" r="4.5" fill="#38bdf8" opacity="0.85"/><text x="573" y="280.69399999999996" fill="#7c8aa5" font-size="9">Novelty Search</text><circle cx="690" cy="270.408" r="4.5" fill="#38bdf8" opacity="0.85"/><text x="697" y="284.408" fill="#7c8aa5" font-size="9">MAP-Elites</text><circle cx="566" cy="270.408" r="4.5" fill="#38bdf8" opacity="0.85"/><text x="573" y="262.408" fill="#7c8aa5" font-size="9">Quality-Diversity (illumination algorithms)</text><circle cx="566" cy="306.898" r="4.5" fill="#38bdf8" opacity="0.85"/><text x="573" y="320.898" fill="#7c8aa5" font-size="9">Go-Explore</text><circle cx="442" cy="288.69399999999996" r="4.5" fill="#38bdf8" opacity="0.85"/><text x="449" y="280.69399999999996" fill="#7c8aa5" font-size="9">OMNI (Open-endedness via Models of human Notions of Interestingness)</text><circle cx="442" cy="270.408" r="4.5" fill="#38bdf8" opacity="0.85"/><text x="449" y="284.408" fill="#7c8aa5" font-size="9">Minimal Criterion Coevolution (MCC)</text><circle cx="442" cy="288.69399999999996" r="4.5" fill="#38bdf8" opacity="0.85"/><text x="449" y="280.69399999999996" fill="#7c8aa5" font-size="9">Innovation Engines</text><circle cx="442" cy="288.69399999999996" r="4.5" fill="#38bdf8" opacity="0.85"/><text x="449" y="302.69399999999996" fill="#7c8aa5" font-size="9">EndlessForms</text><circle cx="690" cy="325.102" r="4.5" fill="#38bdf8" opacity="0.85"/><text x="697" y="317.102" fill="#7c8aa5" font-size="9">NetLogo</text><circle cx="566" cy="306.898" r="4.5" fill="#38bdf8" opacity="0.85"/><text x="573" y="320.898" fill="#7c8aa5" font-size="9">MASON</text><circle cx="566" cy="316" r="4.5" fill="#38bdf8" opacity="0.85"/><text x="573" y="308" fill="#7c8aa5" font-size="9">Repast</text><circle cx="566" cy="361.592" r="4.5" fill="#38bdf8" opacity="0.85"/><text x="573" y="375.592" fill="#7c8aa5" font-size="9">StarLogo</text><circle cx="442" cy="343.306" r="4.5" fill="#38bdf8" opacity="0.85"/><text x="449" y="335.306" fill="#7c8aa5" font-size="9">Ascape</text><circle cx="566" cy="297.796" r="4.5" fill="#38bdf8" opacity="0.85"/><text x="573" y="311.796" fill="#7c8aa5" font-size="9">GAMA Platform</text><circle cx="566" cy="325.102" r="4.5" fill="#38bdf8" opacity="0.85"/><text x="573" y="317.102" fill="#7c8aa5" font-size="9">Mesa</text><circle cx="442" cy="361.592" r="4.5" fill="#38bdf8" opacity="0.85"/><text x="449" y="375.592" fill="#7c8aa5" font-size="9">OpenSteer</text><circle cx="566" cy="361.592" r="4.5" fill="#38bdf8" opacity="0.85"/><text x="573" y="353.592" fill="#7c8aa5" font-size="9">Artificial Anasazi</text><circle cx="690" cy="388.898" r="4.5" fill="#38bdf8" opacity="0.85"/><text x="697" y="402.898" fill="#7c8aa5" font-size="9">Schelling Segregation Model</text><circle cx="566" cy="370.694" r="4.5" fill="#38bdf8" opacity="0.85"/><text x="573" y="362.694" fill="#7c8aa5" font-size="9">El Farol Bar Problem</text><circle cx="566" cy="325.102" r="4.5" fill="#38bdf8" opacity="0.85"/><text x="573" y="339.102" fill="#7c8aa5" font-size="9">Spore</text><circle cx="442" cy="334.20399999999995" r="4.5" fill="#38bdf8" opacity="0.85"/><text x="449" y="326.20399999999995" fill="#7c8aa5" font-size="9">SimLife: The Genetic Playground</text><circle cx="442" cy="370.694" r="4.5" fill="#38bdf8" opacity="0.85"/><text x="449" y="384.694" fill="#7c8aa5" font-size="9">SimEarth: The Living Planet</text><circle cx="442" cy="361.592" r="4.5" fill="#38bdf8" opacity="0.85"/><text x="449" y="353.592" fill="#7c8aa5" font-size="9">SimAnt: The Electric Ant Colony</text><circle cx="318" cy="306.898" r="4.5" fill="#38bdf8" opacity="0.85"/><text x="325" y="320.898" fill="#7c8aa5" font-size="9">Thrive</text><circle cx="442" cy="297.796" r="4.5" fill="#38bdf8" opacity="0.85"/><text x="449" y="289.796" fill="#7c8aa5" font-size="9">Cell Lab: Evolution Sandbox</text><circle cx="380" cy="261.30600000000004" r="4.5" fill="#38bdf8" opacity="0.85"/><text x="387" y="275.30600000000004" fill="#7c8aa5" font-size="9">Species: Artificial Life, Real Evolution</text><circle cx="380" cy="261.30600000000004" r="4.5" fill="#38bdf8" opacity="0.85"/><text x="387" y="253.30600000000004" fill="#7c8aa5" font-size="9">The Bibites</text><circle cx="442" cy="388.898" r="4.5" fill="#38bdf8" opacity="0.85"/><text x="449" y="402.898" fill="#7c8aa5" font-size="9">The Powder Toy</text><circle cx="442" cy="361.592" r="4.5" fill="#38bdf8" opacity="0.85"/><text x="449" y="353.592" fill="#7c8aa5" font-size="9">Noita</text><circle cx="318" cy="325.102" r="4.5" fill="#38bdf8" opacity="0.85"/><text x="325" y="339.102" fill="#7c8aa5" font-size="9">The Life Engine</text><circle cx="318" cy="361.592" r="4.5" fill="#38bdf8" opacity="0.85"/><text x="325" y="353.592" fill="#7c8aa5" font-size="9">Clusters (Particle Life)</text><circle cx="442" cy="361.592" r="4.5" fill="#38bdf8" opacity="0.85"/><text x="449" y="375.592" fill="#7c8aa5" font-size="9">Sandspiel</text><circle cx="318" cy="288.69399999999996" r="4.5" fill="#38bdf8" opacity="0.85"/><text x="325" y="280.69399999999996" fill="#7c8aa5" font-size="9">Sebastian Lague Ecosystem</text><circle cx="318" cy="343.306" r="4.5" fill="#38bdf8" opacity="0.85"/><text x="325" y="357.306" fill="#7c8aa5" font-size="9">Pezzza's Ant Colony Simulation</text><circle cx="318" cy="306.898" r="4.5" fill="#38bdf8" opacity="0.85"/><text x="325" y="298.898" fill="#7c8aa5" font-size="9">Primer Evolution Simulations</text><circle cx="442" cy="279.592" r="4.5" fill="#38bdf8" opacity="0.85"/><text x="449" y="293.592" fill="#7c8aa5" font-size="9">Keiwan Evolution</text><circle cx="566" cy="325.102" r="4.5" fill="#38bdf8" opacity="0.85"/><text x="573" y="317.102" fill="#7c8aa5" font-size="9">DevoWorm</text><circle cx="442" cy="352.408" r="4.5" fill="#38bdf8" opacity="0.85"/><text x="449" y="366.408" fill="#7c8aa5" font-size="9">Morphozoic</text><circle cx="442" cy="288.69399999999996" r="4.5" fill="#38bdf8" opacity="0.85"/><text x="449" y="280.69399999999996" fill="#7c8aa5" font-size="9">Chromaria</text><circle cx="442" cy="261.30600000000004" r="4.5" fill="#38bdf8" opacity="0.85"/><text x="449" y="275.30600000000004" fill="#7c8aa5" font-size="9">Division Blocks</text><circle cx="442" cy="297.796" r="4.5" fill="#38bdf8" opacity="0.85"/><text x="449" y="289.796" fill="#7c8aa5" font-size="9">Voyager (Minecraft LLM agent)</text><circle cx="566" cy="306.898" r="4.5" fill="#38bdf8" opacity="0.85"/><text x="573" y="320.898" fill="#7c8aa5" font-size="9">Generative Agents (Smallville)</text><circle cx="442" cy="279.592" r="4.5" fill="#38bdf8" opacity="0.85"/><text x="449" y="271.592" fill="#7c8aa5" font-size="9">OMNI-EPIC</text><circle cx="566" cy="316" r="4.5" fill="#38bdf8" opacity="0.85"/><text x="573" y="330" fill="#7c8aa5" font-size="9">Genie (Generative Interactive Environments)</text><circle cx="566" cy="279.592" r="4.5" fill="#38bdf8" opacity="0.85"/><text x="573" y="271.592" fill="#7c8aa5" font-size="9">Evolution through Large Models (ELM)</text><circle cx="442" cy="306.898" r="4.5" fill="#38bdf8" opacity="0.85"/><text x="449" y="320.898" fill="#7c8aa5" font-size="9">OpenELM</text><circle cx="442" cy="316" r="4.5" fill="#38bdf8" opacity="0.85"/><text x="449" y="308" fill="#7c8aa5" font-size="9">Automated Design of Agentic Systems (ADAS)</text><circle cx="442" cy="325.102" r="4.5" fill="#38bdf8" opacity="0.85"/><text x="449" y="339.102" fill="#7c8aa5" font-size="9">The AI Scientist</text><circle cx="442" cy="297.796" r="4.5" fill="#38bdf8" opacity="0.85"/><text x="449" y="289.796" fill="#7c8aa5" font-size="9">Darwin Godel Machine (DGM)</text><circle cx="442" cy="361.592" r="4.5" fill="#38bdf8" opacity="0.85"/><text x="449" y="375.592" fill="#7c8aa5" font-size="9">Promptbreeder</text><circle cx="442" cy="352.408" r="4.5" fill="#38bdf8" opacity="0.85"/><text x="449" y="344.408" fill="#7c8aa5" font-size="9">Quality-Diversity through AI Feedback (QDAIF)</text>
</svg>