<svg xmlns="http://www.w3.org/2000/svg" viewBox="0 0 680 332" font-family="ui-sans-serif,system-ui,Segoe UI,Roboto,sans-serif" role="img" aria-label="Nearest neighbours">
<rect width="680" height="332" rx="14" fill="#0b1220"/>
<text x="28" y="30" fill="#cbd5e1" font-size="18" font-weight="700">Nearest neighbours in 9-axis feature space</text><text x="28" y="50" fill="#7c8aa5" font-size="12">Euclidean distance from Cosmogonic (lower = more similar capability shape).</text><text x="140" y="83" fill="#cbd5e1" font-size="11" text-anchor="end">ALIEN</text><rect x="150" y="69" width="346.35664824344065" height="18" rx="3" fill="#34d399" opacity="0.78"/><text x="502.35664824344065" y="83" fill="#7c8aa5" font-size="10">4.64</text><text x="140" y="113" fill="#cbd5e1" font-size="11" text-anchor="end">Creatures</text><rect x="150" y="99" width="380.69372975033343" height="18" rx="3" fill="#34d399" opacity="0.78"/><text x="536.6937297503334" y="113" fill="#7c8aa5" font-size="10">5.10</text><text x="140" y="143" fill="#cbd5e1" font-size="11" text-anchor="end">Division Blocks</text><rect x="150" y="129" width="416.52372784448255" height="18" rx="3" fill="#34d399" opacity="0.78"/><text x="572.5237278444826" y="143" fill="#7c8aa5" font-size="10">5.58</text><text x="140" y="173" fill="#cbd5e1" font-size="11" text-anchor="end">Framsticks</text><rect x="150" y="159" width="417.2701861381106" height="18" rx="3" fill="#34d399" opacity="0.78"/><text x="573.2701861381106" y="173" fill="#7c8aa5" font-size="10">5.59</text><text x="140" y="203" fill="#cbd5e1" font-size="11" text-anchor="end">OpenWorm</text><rect x="150" y="189" width="418.01664443173877" height="18" rx="3" fill="#34d399" opacity="0.78"/><text x="574.0166444317388" y="203" fill="#7c8aa5" font-size="10">5.60</text><text x="140" y="233" fill="#cbd5e1" font-size="11" text-anchor="end">biosim4</text><rect x="150" y="219" width="423.2418524871355" height="18" rx="3" fill="#34d399" opacity="0.78"/><text x="579.2418524871355" y="233" fill="#7c8aa5" font-size="10">5.67</text><text x="140" y="263" fill="#cbd5e1" font-size="11" text-anchor="end">The Bibites</text><rect x="150" y="249" width="426.97414395527596" height="18" rx="3" fill="#34d399" opacity="0.78"/><text x="582.974143955276" y="263" fill="#7c8aa5" font-size="10">5.72</text><text x="140" y="293" fill="#cbd5e1" font-size="11" text-anchor="end">DERL (Deep Evolutionary Reinforcement Learning)</text><rect x="150" y="279" width="435.1851851851852" height="18" rx="3" fill="#34d399" opacity="0.78"/><text x="591.1851851851852" y="293" fill="#7c8aa5" font-size="10">5.83</text>
</svg>