<svg xmlns="http://www.w3.org/2000/svg" viewBox="0 0 760 664" font-family="ui-sans-serif,system-ui,Segoe UI,Roboto,sans-serif" role="img" aria-label="Capability evenness">
<rect width="760" height="664" rx="14" fill="#0b1220"/>
<text x="28" y="30" fill="#cbd5e1" font-size="18" font-weight="700">Capability evenness — generalist ↔ specialist</text><text x="28" y="50" fill="#7c8aa5" font-size="12">normalized Shannon evenness of the 9-axis profile (1 = perfectly balanced generalist, 0 = single-axis specialist).</text><line x1="168" y1="56" x2="168" y2="636" stroke="#27344d" stroke-width="0.7"/><text x="168" y="654" fill="#7c8aa5" font-size="10" text-anchor="middle">0.0</text><line x1="275.2" y1="56" x2="275.2" y2="636" stroke="#27344d" stroke-width="0.7"/><text x="275.2" y="654" fill="#7c8aa5" font-size="10" text-anchor="middle">0.2</text><line x1="382.4" y1="56" x2="382.4" y2="636" stroke="#27344d" stroke-width="0.7"/><text x="382.4" y="654" fill="#7c8aa5" font-size="10" text-anchor="middle">0.4</text><line x1="489.59999999999997" y1="56" x2="489.59999999999997" y2="636" stroke="#27344d" stroke-width="0.7"/><text x="489.59999999999997" y="654" fill="#7c8aa5" font-size="10" text-anchor="middle">0.6</text><line x1="596.8" y1="56" x2="596.8" y2="636" stroke="#27344d" stroke-width="0.7"/><text x="596.8" y="654" fill="#7c8aa5" font-size="10" text-anchor="middle">0.8</text><line x1="704" y1="56" x2="704" y2="636" stroke="#27344d" stroke-width="0.7"/><text x="704" y="654" fill="#7c8aa5" font-size="10" text-anchor="middle">1.0</text><text x="158" y="79" fill="#f59e0b" font-size="11" font-weight="700" text-anchor="end">COSMOGONIC</text><rect x="168" y="68" width="534.392" height="14" rx="3" fill="#f59e0b" opacity="0.95"/><text x="708.392" y="79" fill="#f59e0b" font-size="10" font-weight="700">0.997</text><text x="158" y="101" fill="#cbd5e1" font-size="11" font-weight="400" text-anchor="end">Creatures</text><rect x="168" y="90" width="514.024" height="14" rx="3" fill="#38bdf8" opacity="0.7"/><text x="688.024" y="101" fill="#7c8aa5" font-size="10" font-weight="400">0.959</text><text x="158" y="123" fill="#cbd5e1" font-size="11" font-weight="400" text-anchor="end">ALIEN</text><rect x="168" y="112" width="514.024" height="14" rx="3" fill="#38bdf8" opacity="0.7"/><text x="688.024" y="123" fill="#7c8aa5" font-size="10" font-weight="400">0.959</text><text x="158" y="145" fill="#cbd5e1" font-size="11" font-weight="400" text-anchor="end">Framsticks</text><rect x="168" y="134" width="495.264" height="14" rx="3" fill="#38bdf8" opacity="0.7"/><text x="669.264" y="145" fill="#7c8aa5" font-size="10" font-weight="400">0.924</text><text x="158" y="167" fill="#cbd5e1" font-size="11" font-weight="400" text-anchor="end">Polyworld</text><rect x="168" y="156" width="492.048" height="14" rx="3" fill="#38bdf8" opacity="0.7"/><text x="666.048" y="167" fill="#7c8aa5" font-size="10" font-weight="400">0.918</text><text x="158" y="189" fill="#cbd5e1" font-size="11" font-weight="400" text-anchor="end">breve</text><rect x="168" y="178" width="488.29600000000005" height="14" rx="3" fill="#38bdf8" opacity="0.7"/><text x="662.296" y="189" fill="#7c8aa5" font-size="10" font-weight="400">0.911</text><text x="158" y="211" fill="#cbd5e1" font-size="11" font-weight="400" text-anchor="end">Karl Sims VC</text><rect x="168" y="200" width="486.15200000000004" height="14" rx="3" fill="#38bdf8" opacity="0.7"/><text x="660.152" y="211" fill="#7c8aa5" font-size="10" font-weight="400">0.907</text><text x="158" y="233" fill="#cbd5e1" font-size="11" font-weight="400" text-anchor="end">MABE</text><rect x="168" y="222" width="485.616" height="14" rx="3" fill="#38bdf8" opacity="0.7"/><text x="659.616" y="233" fill="#7c8aa5" font-size="10" font-weight="400">0.906</text><text x="158" y="255" fill="#cbd5e1" font-size="11" font-weight="400" text-anchor="end">ASAL</text><rect x="168" y="244" width="485.616" height="14" rx="3" fill="#38bdf8" opacity="0.7"/><text x="659.616" y="255" fill="#7c8aa5" font-size="10" font-weight="400">0.906</text><text x="158" y="277" fill="#cbd5e1" font-size="11" font-weight="400" text-anchor="end">Picbreeder</text><rect x="168" y="266" width="482.93600000000004" height="14" rx="3" fill="#38bdf8" opacity="0.7"/><text x="656.936" y="277" fill="#7c8aa5" font-size="10" font-weight="400">0.901</text><text x="158" y="299" fill="#cbd5e1" font-size="11" font-weight="400" text-anchor="end">Darwin Pond</text><rect x="168" y="288" width="477.03999999999996" height="14" rx="3" fill="#38bdf8" opacity="0.7"/><text x="651.04" y="299" fill="#7c8aa5" font-size="10" font-weight="400">0.890</text><text x="158" y="321" fill="#cbd5e1" font-size="11" font-weight="400" text-anchor="end">Gene Pool</text><rect x="168" y="310" width="477.03999999999996" height="14" rx="3" fill="#38bdf8" opacity="0.7"/><text x="651.04" y="321" fill="#7c8aa5" font-size="10" font-weight="400">0.890</text><text x="158" y="343" fill="#cbd5e1" font-size="11" font-weight="400" text-anchor="end">Sugarscape</text><rect x="168" y="332" width="475.9680000000001" height="14" rx="3" fill="#38bdf8" opacity="0.7"/><text x="649.9680000000001" y="343" fill="#7c8aa5" font-size="10" font-weight="400">0.888</text><text x="158" y="365" fill="#cbd5e1" font-size="11" font-weight="400" text-anchor="end">Swarm</text><rect x="168" y="354" width="475.9680000000001" height="14" rx="3" fill="#38bdf8" opacity="0.7"/><text x="649.9680000000001" y="365" fill="#7c8aa5" font-size="10" font-weight="400">0.888</text><text x="158" y="387" fill="#cbd5e1" font-size="11" font-weight="400" text-anchor="end">Echo</text><rect x="168" y="376" width="473.288" height="14" rx="3" fill="#38bdf8" opacity="0.7"/><text x="647.288" y="387" fill="#7c8aa5" font-size="10" font-weight="400">0.883</text><text x="158" y="409" fill="#cbd5e1" font-size="11" font-weight="400" text-anchor="end">POET</text><rect x="168" y="398" width="472.216" height="14" rx="3" fill="#38bdf8" opacity="0.7"/><text x="646.216" y="409" fill="#7c8aa5" font-size="10" font-weight="400">0.881</text><text x="158" y="431" fill="#cbd5e1" font-size="11" font-weight="400" text-anchor="end">EvoGym</text><rect x="168" y="420" width="471.68000000000006" height="14" rx="3" fill="#38bdf8" opacity="0.7"/><text x="645.6800000000001" y="431" fill="#7c8aa5" font-size="10" font-weight="400">0.880</text><text x="158" y="453" fill="#cbd5e1" font-size="11" font-weight="400" text-anchor="end">OpenWorm</text><rect x="168" y="442" width="453.4559999999999" height="14" rx="3" fill="#38bdf8" opacity="0.7"/><text x="627.4559999999999" y="453" fill="#7c8aa5" font-size="10" font-weight="400">0.846</text><text x="158" y="475" fill="#cbd5e1" font-size="11" font-weight="400" text-anchor="end">Growing NCA</text><rect x="168" y="464" width="448.096" height="14" rx="3" fill="#38bdf8" opacity="0.7"/><text x="622.096" y="475" fill="#7c8aa5" font-size="10" font-weight="400">0.836</text><text x="158" y="497" fill="#cbd5e1" font-size="11" font-weight="400" text-anchor="end">Core War</text><rect x="168" y="486" width="441.12799999999993" height="14" rx="3" fill="#38bdf8" opacity="0.7"/><text x="615.1279999999999" y="497" fill="#7c8aa5" font-size="10" font-weight="400">0.823</text><text x="158" y="519" fill="#cbd5e1" font-size="11" font-weight="400" text-anchor="end">Game of Life</text><rect x="168" y="508" width="440.05600000000004" height="14" rx="3" fill="#38bdf8" opacity="0.7"/><text x="614.056" y="519" fill="#7c8aa5" font-size="10" font-weight="400">0.821</text><text x="158" y="541" fill="#cbd5e1" font-size="11" font-weight="400" text-anchor="end">Avida</text><rect x="168" y="530" width="440.05600000000004" height="14" rx="3" fill="#38bdf8" opacity="0.7"/><text x="614.056" y="541" fill="#7c8aa5" font-size="10" font-weight="400">0.821</text><text x="158" y="563" fill="#cbd5e1" font-size="11" font-weight="400" text-anchor="end">Lenia</text><rect x="168" y="552" width="431.48" height="14" rx="3" fill="#38bdf8" opacity="0.7"/><text x="605.48" y="563" fill="#7c8aa5" font-size="10" font-weight="400">0.805</text><text x="158" y="585" fill="#cbd5e1" font-size="11" font-weight="400" text-anchor="end">Tierra</text><rect x="168" y="574" width="421.832" height="14" rx="3" fill="#38bdf8" opacity="0.7"/><text x="595.832" y="585" fill="#7c8aa5" font-size="10" font-weight="400">0.787</text><text x="158" y="607" fill="#cbd5e1" font-size="11" font-weight="400" text-anchor="end">Biomorphs</text><rect x="168" y="596" width="418.08000000000004" height="14" rx="3" fill="#38bdf8" opacity="0.7"/><text x="592.08" y="607" fill="#7c8aa5" font-size="10" font-weight="400">0.780</text><text x="158" y="629" fill="#cbd5e1" font-size="11" font-weight="400" text-anchor="end">Boids</text><rect x="168" y="618" width="390.20799999999997" height="14" rx="3" fill="#38bdf8" opacity="0.7"/><text x="564.208" y="629" fill="#7c8aa5" font-size="10" font-weight="400">0.728</text>
</svg>