<svg xmlns="http://www.w3.org/2000/svg" viewBox="0 0 760 2580" font-family="ui-sans-serif,system-ui,Segoe UI,Roboto,sans-serif" role="img" aria-label="Dendrogram">
<rect width="760" height="2580" rx="14" fill="#0b1220"/>
<text x="28" y="30" fill="#cbd5e1" font-size="18" font-weight="700">Capability dendrogram (average-linkage, Euclidean 9-axis)</text><text x="28" y="50" fill="#7c8aa5" font-size="12">leaves grouped by capability-shape similarity; join depth = merge distance.</text><text x="598" y="84" fill="#f59e0b" font-size="10" font-weight="700">COSMOGONIC</text><text x="598" y="106" fill="#cbd5e1" font-size="10" font-weight="400">OpenWorm</text><text x="598" y="128" fill="#cbd5e1" font-size="10" font-weight="400">NerveNet</text><path d="M291.28526660228954 103 H590" stroke="#34d399" stroke-width="1.3" fill="none" opacity="0.85"/><path d="M291.28526660228954 125 H590" stroke="#34d399" stroke-width="1.3" fill="none" opacity="0.85"/><path d="M291.28526660228954 103 V125" stroke="#34d399" stroke-width="1.3" fill="none" opacity="0.85"/><text x="598" y="150" fill="#cbd5e1" font-size="10" font-weight="400">The AI Scientist</text><text x="598" y="172" fill="#cbd5e1" font-size="10" font-weight="400">POET</text><text x="598" y="194" fill="#cbd5e1" font-size="10" font-weight="400">OMNI (Open-endedness via Models of human Notions of Interestingness)</text><path d="M590 169 H590" stroke="#34d399" stroke-width="1.3" fill="none" opacity="0.85"/><path d="M590 191 H590" stroke="#34d399" stroke-width="1.3" fill="none" opacity="0.85"/><path d="M590 169 V191" stroke="#34d399" stroke-width="1.3" fill="none" opacity="0.85"/><text x="598" y="216" fill="#cbd5e1" font-size="10" font-weight="400">Go-Explore</text><text x="598" y="238" fill="#cbd5e1" font-size="10" font-weight="400">Voyager (Minecraft LLM agent)</text><path d="M451.72194786110026 213 H590" stroke="#34d399" stroke-width="1.3" fill="none" opacity="0.85"/><path d="M451.72194786110026 235 H590" stroke="#34d399" stroke-width="1.3" fill="none" opacity="0.85"/><path d="M451.72194786110026 213 V235" stroke="#34d399" stroke-width="1.3" fill="none" opacity="0.85"/><path d="M423.08362557386715 180 H590" stroke="#34d399" stroke-width="1.3" fill="none" opacity="0.85"/><path d="M423.08362557386715 224 H451.72194786110026" stroke="#34d399" stroke-width="1.3" fill="none" opacity="0.85"/><path d="M423.08362557386715 180 V224" stroke="#34d399" stroke-width="1.3" fill="none" opacity="0.85"/><path d="M390.5281740585124 147 H590" stroke="#34d399" stroke-width="1.3" fill="none" opacity="0.85"/><path d="M390.5281740585124 202 H423.08362557386715" stroke="#34d399" stroke-width="1.3" fill="none" opacity="0.85"/><path d="M390.5281740585124 147 V202" stroke="#34d399" stroke-width="1.3" fill="none" opacity="0.85"/><text x="598" y="260" fill="#cbd5e1" font-size="10" font-weight="400">ASAL</text><text x="598" y="282" fill="#cbd5e1" font-size="10" font-weight="400">OMNI-EPIC</text><path d="M364.19288642248506 257 H590" stroke="#34d399" stroke-width="1.3" fill="none" opacity="0.85"/><path d="M364.19288642248506 279 H590" stroke="#34d399" stroke-width="1.3" fill="none" opacity="0.85"/><path d="M364.19288642248506 257 V279" stroke="#34d399" stroke-width="1.3" fill="none" opacity="0.85"/><path d="M356.18149349261296 174.5 H390.5281740585124" stroke="#34d399" stroke-width="1.3" fill="none" opacity="0.85"/><path d="M356.18149349261296 268 H364.19288642248506" stroke="#34d399" stroke-width="1.3" fill="none" opacity="0.85"/><path d="M356.18149349261296 174.5 V268" stroke="#34d399" stroke-width="1.3" fill="none" opacity="0.85"/><text x="598" y="304" fill="#cbd5e1" font-size="10" font-weight="400">Promptbreeder</text><text x="598" y="326" fill="#cbd5e1" font-size="10" font-weight="400">Quality-Diversity through AI Feedback (QDAIF)</text><path d="M510.1651293745891 301 H590" stroke="#34d399" stroke-width="1.3" fill="none" opacity="0.85"/><path d="M510.1651293745891 323 H590" stroke="#34d399" stroke-width="1.3" fill="none" opacity="0.85"/><path d="M510.1651293745891 301 V323" stroke="#34d399" stroke-width="1.3" fill="none" opacity="0.85"/><text x="598" y="348" fill="#cbd5e1" font-size="10" font-weight="400">Automated Design of Agentic Systems (ADAS)</text><text x="598" y="370" fill="#cbd5e1" font-size="10" font-weight="400">Darwin Godel Machine (DGM)</text><path d="M477.0964432112425 345 H590" stroke="#34d399" stroke-width="1.3" fill="none" opacity="0.85"/><path d="M477.0964432112425 367 H590" stroke="#34d399" stroke-width="1.3" fill="none" opacity="0.85"/><path d="M477.0964432112425 345 V367" stroke="#34d399" stroke-width="1.3" fill="none" opacity="0.85"/><path d="M368.8628029839645 312 H510.1651293745891" stroke="#34d399" stroke-width="1.3" fill="none" opacity="0.85"/><path d="M368.8628029839645 356 H477.0964432112425" stroke="#34d399" stroke-width="1.3" fill="none" opacity="0.85"/><path d="M368.8628029839645 312 V356" stroke="#34d399" stroke-width="1.3" fill="none" opacity="0.85"/><text x="598" y="392" fill="#cbd5e1" font-size="10" font-weight="400">NEAT (NeuroEvolution of Augmenting Topologies)</text><text x="598" y="414" fill="#cbd5e1" font-size="10" font-weight="400">HyperNEAT</text><text x="598" y="436" fill="#cbd5e1" font-size="10" font-weight="400">ES-HyperNEAT</text><path d="M510.1651293745891 411 H590" stroke="#34d399" stroke-width="1.3" fill="none" opacity="0.85"/><path d="M510.1651293745891 433 H590" stroke="#34d399" stroke-width="1.3" fill="none" opacity="0.85"/><path d="M510.1651293745891 411 V433" stroke="#34d399" stroke-width="1.3" fill="none" opacity="0.85"/><path d="M464.4091955361714 389 H590" stroke="#34d399" stroke-width="1.3" fill="none" opacity="0.85"/><path d="M464.4091955361714 422 H510.1651293745891" stroke="#34d399" stroke-width="1.3" fill="none" opacity="0.85"/><path d="M464.4091955361714 389 V422" stroke="#34d399" stroke-width="1.3" fill="none" opacity="0.85"/><text x="598" y="458" fill="#cbd5e1" font-size="10" font-weight="400">Evolution through Large Models (ELM)</text><text x="598" y="480" fill="#cbd5e1" font-size="10" font-weight="400">MAP-Elites</text><text x="598" y="502" fill="#cbd5e1" font-size="10" font-weight="400">Quality-Diversity (illumination algorithms)</text><path d="M590 477 H590" stroke="#34d399" stroke-width="1.3" fill="none" opacity="0.85"/><path d="M590 499 H590" stroke="#34d399" stroke-width="1.3" fill="none" opacity="0.85"/><path d="M590 477 V499" stroke="#34d399" stroke-width="1.3" fill="none" opacity="0.85"/><text x="598" y="524" fill="#cbd5e1" font-size="10" font-weight="400">Novelty Search</text><text x="598" y="546" fill="#cbd5e1" font-size="10" font-weight="400">OpenELM</text><path d="M477.0964432112425 521 H590" stroke="#34d399" stroke-width="1.3" fill="none" opacity="0.85"/><path d="M477.0964432112425 543 H590" stroke="#34d399" stroke-width="1.3" fill="none" opacity="0.85"/><path d="M477.0964432112425 521 V543" stroke="#34d399" stroke-width="1.3" fill="none" opacity="0.85"/><path d="M430.33025874917826 488 H590" stroke="#34d399" stroke-width="1.3" fill="none" opacity="0.85"/><path d="M430.33025874917826 532 H477.0964432112425" stroke="#34d399" stroke-width="1.3" fill="none" opacity="0.85"/><path d="M430.33025874917826 488 V532" stroke="#34d399" stroke-width="1.3" fill="none" opacity="0.85"/><path d="M395.1302943404137 455 H590" stroke="#34d399" stroke-width="1.3" fill="none" opacity="0.85"/><path d="M395.1302943404137 510 H430.33025874917826" stroke="#34d399" stroke-width="1.3" fill="none" opacity="0.85"/><path d="M395.1302943404137 455 V510" stroke="#34d399" stroke-width="1.3" fill="none" opacity="0.85"/><path d="M368.67280076308975 405.5 H464.4091955361714" stroke="#34d399" stroke-width="1.3" fill="none" opacity="0.85"/><path d="M368.67280076308975 482.5 H395.1302943404137" stroke="#34d399" stroke-width="1.3" fill="none" opacity="0.85"/><path d="M368.67280076308975 405.5 V482.5" stroke="#34d399" stroke-width="1.3" fill="none" opacity="0.85"/><path d="M314.9468891678212 334 H368.8628029839645" stroke="#34d399" stroke-width="1.3" fill="none" opacity="0.85"/><path d="M314.9468891678212 444 H368.67280076308975" stroke="#34d399" stroke-width="1.3" fill="none" opacity="0.85"/><path d="M314.9468891678212 334 V444" stroke="#34d399" stroke-width="1.3" fill="none" opacity="0.85"/><path d="M243.51712224195302 221.25 H356.18149349261296" stroke="#34d399" stroke-width="1.3" fill="none" opacity="0.85"/><path d="M243.51712224195302 389 H314.9468891678212" stroke="#34d399" stroke-width="1.3" fill="none" opacity="0.85"/><path d="M243.51712224195302 221.25 V389" stroke="#34d399" stroke-width="1.3" fill="none" opacity="0.85"/><text x="598" y="568" fill="#cbd5e1" font-size="10" font-weight="400">DERL (Deep Evolutionary Reinforcement Learning)</text><text x="598" y="590" fill="#cbd5e1" font-size="10" font-weight="400">UNIMAL (Universal Animal design space)</text><path d="M510.1651293745891 565 H590" stroke="#34d399" stroke-width="1.3" fill="none" opacity="0.85"/><path d="M510.1651293745891 587 H590" stroke="#34d399" stroke-width="1.3" fill="none" opacity="0.85"/><path d="M510.1651293745891 565 V587" stroke="#34d399" stroke-width="1.3" fill="none" opacity="0.85"/><text x="598" y="612" fill="#cbd5e1" font-size="10" font-weight="400">Transform2Act</text><text x="598" y="634" fill="#cbd5e1" font-size="10" font-weight="400">Neural Graph Evolution (NGE)</text><path d="M451.72194786110026 609 H590" stroke="#34d399" stroke-width="1.3" fill="none" opacity="0.85"/><path d="M451.72194786110026 631 H590" stroke="#34d399" stroke-width="1.3" fill="none" opacity="0.85"/><path d="M451.72194786110026 609 V631" stroke="#34d399" stroke-width="1.3" fill="none" opacity="0.85"/><path d="M441.02610330513926 576 H510.1651293745891" stroke="#34d399" stroke-width="1.3" fill="none" opacity="0.85"/><path d="M441.02610330513926 620 H451.72194786110026" stroke="#34d399" stroke-width="1.3" fill="none" opacity="0.85"/><path d="M441.02610330513926 576 V620" stroke="#34d399" stroke-width="1.3" fill="none" opacity="0.85"/><text x="598" y="656" fill="#cbd5e1" font-size="10" font-weight="400">Karl Sims VC</text><text x="598" y="678" fill="#cbd5e1" font-size="10" font-weight="400">3D Virtual Creature Evolution (3DVCE)</text><text x="598" y="700" fill="#cbd5e1" font-size="10" font-weight="400">Keiwan Evolution</text><path d="M510.1651293745891 675 H590" stroke="#34d399" stroke-width="1.3" fill="none" opacity="0.85"/><path d="M510.1651293745891 697 H590" stroke="#34d399" stroke-width="1.3" fill="none" opacity="0.85"/><path d="M510.1651293745891 675 V697" stroke="#34d399" stroke-width="1.3" fill="none" opacity="0.85"/><path d="M441.02610330513926 653 H590" stroke="#34d399" stroke-width="1.3" fill="none" opacity="0.85"/><path d="M441.02610330513926 686 H510.1651293745891" stroke="#34d399" stroke-width="1.3" fill="none" opacity="0.85"/><path d="M441.02610330513926 653 V686" stroke="#34d399" stroke-width="1.3" fill="none" opacity="0.85"/><text x="598" y="722" fill="#cbd5e1" font-size="10" font-weight="400">Evolving Soft Robots (Cheney / Unshackling Evolution)</text><text x="598" y="744" fill="#cbd5e1" font-size="10" font-weight="400">GOLEM (Genetically Organized Lifelike Electro Mechanics)</text><text x="598" y="766" fill="#cbd5e1" font-size="10" font-weight="400">Krcah Evolved Virtual Creatures (ERO)</text><path d="M451.72194786110026 741 H590" stroke="#34d399" stroke-width="1.3" fill="none" opacity="0.85"/><path d="M451.72194786110026 763 H590" stroke="#34d399" stroke-width="1.3" fill="none" opacity="0.85"/><path d="M451.72194786110026 741 V763" stroke="#34d399" stroke-width="1.3" fill="none" opacity="0.85"/><path d="M420.9070305279293 719 H590" stroke="#34d399" stroke-width="1.3" fill="none" opacity="0.85"/><path d="M420.9070305279293 752 H451.72194786110026" stroke="#34d399" stroke-width="1.3" fill="none" opacity="0.85"/><path d="M420.9070305279293 719 V752" stroke="#34d399" stroke-width="1.3" fill="none" opacity="0.85"/><path d="M401.3640040876315 669.5 H441.02610330513926" stroke="#34d399" stroke-width="1.3" fill="none" opacity="0.85"/><path d="M401.3640040876315 735.5 H420.9070305279293" stroke="#34d399" stroke-width="1.3" fill="none" opacity="0.85"/><path d="M401.3640040876315 669.5 V735.5" stroke="#34d399" stroke-width="1.3" fill="none" opacity="0.85"/><path d="M321.3014578272299 598 H441.02610330513926" stroke="#34d399" stroke-width="1.3" fill="none" opacity="0.85"/><path d="M321.3014578272299 702.5 H401.3640040876315" stroke="#34d399" stroke-width="1.3" fill="none" opacity="0.85"/><path d="M321.3014578272299 598 V702.5" stroke="#34d399" stroke-width="1.3" fill="none" opacity="0.85"/><text x="598" y="788" fill="#cbd5e1" font-size="10" font-weight="400">Cell Lab: Evolution Sandbox</text><text x="598" y="810" fill="#cbd5e1" font-size="10" font-weight="400">Primordial Particle Systems</text><text x="598" y="832" fill="#cbd5e1" font-size="10" font-weight="400">Squirm3</text><path d="M451.72194786110026 807 H590" stroke="#34d399" stroke-width="1.3" fill="none" opacity="0.85"/><path d="M451.72194786110026 829 H590" stroke="#34d399" stroke-width="1.3" fill="none" opacity="0.85"/><path d="M451.72194786110026 807 V829" stroke="#34d399" stroke-width="1.3" fill="none" opacity="0.85"/><path d="M441.02610330513926 785 H590" stroke="#34d399" stroke-width="1.3" fill="none" opacity="0.85"/><path d="M441.02610330513926 818 H451.72194786110026" stroke="#34d399" stroke-width="1.3" fill="none" opacity="0.85"/><path d="M441.02610330513926 785 V818" stroke="#34d399" stroke-width="1.3" fill="none" opacity="0.85"/><text x="598" y="854" fill="#cbd5e1" font-size="10" font-weight="400">Species: Artificial Life, Real Evolution</text><text x="598" y="876" fill="#cbd5e1" font-size="10" font-weight="400">Sebastian Lague Ecosystem</text><text x="598" y="898" fill="#cbd5e1" font-size="10" font-weight="400">Primer Evolution Simulations</text><path d="M477.0964432112425 873 H590" stroke="#34d399" stroke-width="1.3" fill="none" opacity="0.85"/><path d="M477.0964432112425 895 H590" stroke="#34d399" stroke-width="1.3" fill="none" opacity="0.85"/><path d="M477.0964432112425 873 V895" stroke="#34d399" stroke-width="1.3" fill="none" opacity="0.85"/><path d="M431.6028750838903 851 H590" stroke="#34d399" stroke-width="1.3" fill="none" opacity="0.85"/><path d="M431.6028750838903 884 H477.0964432112425" stroke="#34d399" stroke-width="1.3" fill="none" opacity="0.85"/><path d="M431.6028750838903 851 V884" stroke="#34d399" stroke-width="1.3" fill="none" opacity="0.85"/><path d="M399.40405569582526 801.5 H441.02610330513926" stroke="#34d399" stroke-width="1.3" fill="none" opacity="0.85"/><path d="M399.40405569582526 867.5 H431.6028750838903" stroke="#34d399" stroke-width="1.3" fill="none" opacity="0.85"/><path d="M399.40405569582526 801.5 V867.5" stroke="#34d399" stroke-width="1.3" fill="none" opacity="0.85"/><text x="598" y="920" fill="#cbd5e1" font-size="10" font-weight="400">Darwin Pond</text><text x="598" y="942" fill="#cbd5e1" font-size="10" font-weight="400">Gene Pool</text><path d="M470.24769406188375 917 H590" stroke="#34d399" stroke-width="1.3" fill="none" opacity="0.85"/><path d="M470.24769406188375 939 H590" stroke="#34d399" stroke-width="1.3" fill="none" opacity="0.85"/><path d="M470.24769406188375 917 V939" stroke="#34d399" stroke-width="1.3" fill="none" opacity="0.85"/><text x="598" y="964" fill="#cbd5e1" font-size="10" font-weight="400">Picbreeder</text><text x="598" y="986" fill="#cbd5e1" font-size="10" font-weight="400">EndlessForms</text><path d="M411.48380230668016 961 H590" stroke="#34d399" stroke-width="1.3" fill="none" opacity="0.85"/><path d="M411.48380230668016 983 H590" stroke="#34d399" stroke-width="1.3" fill="none" opacity="0.85"/><path d="M411.48380230668016 961 V983" stroke="#34d399" stroke-width="1.3" fill="none" opacity="0.85"/><path d="M385.1376728740698 928 H470.24769406188375" stroke="#34d399" stroke-width="1.3" fill="none" opacity="0.85"/><path d="M385.1376728740698 972 H411.48380230668016" stroke="#34d399" stroke-width="1.3" fill="none" opacity="0.85"/><path d="M385.1376728740698 928 V972" stroke="#34d399" stroke-width="1.3" fill="none" opacity="0.85"/><text x="598" y="1008" fill="#cbd5e1" font-size="10" font-weight="400">ALIEN</text><text x="598" y="1030" fill="#cbd5e1" font-size="10" font-weight="400">breve</text><text x="598" y="1052" fill="#cbd5e1" font-size="10" font-weight="400">Framsticks</text><text x="598" y="1074" fill="#cbd5e1" font-size="10" font-weight="400">Division Blocks</text><path d="M420.6446648168639 1049 H590" stroke="#34d399" stroke-width="1.3" fill="none" opacity="0.85"/><path d="M420.6446648168639 1071 H590" stroke="#34d399" stroke-width="1.3" fill="none" opacity="0.85"/><path d="M420.6446648168639 1049 V1071" stroke="#34d399" stroke-width="1.3" fill="none" opacity="0.85"/><path d="M391.4235023607298 1027 H590" stroke="#34d399" stroke-width="1.3" fill="none" opacity="0.85"/><path d="M391.4235023607298 1060 H420.6446648168639" stroke="#34d399" stroke-width="1.3" fill="none" opacity="0.85"/><path d="M391.4235023607298 1027 V1060" stroke="#34d399" stroke-width="1.3" fill="none" opacity="0.85"/><path d="M360.4934003381952 1005 H590" stroke="#34d399" stroke-width="1.3" fill="none" opacity="0.85"/><path d="M360.4934003381952 1043.5 H391.4235023607298" stroke="#34d399" stroke-width="1.3" fill="none" opacity="0.85"/><path d="M360.4934003381952 1005 V1043.5" stroke="#34d399" stroke-width="1.3" fill="none" opacity="0.85"/><path d="M339.8025149263111 950 H385.1376728740698" stroke="#34d399" stroke-width="1.3" fill="none" opacity="0.85"/><path d="M339.8025149263111 1024.25 H360.4934003381952" stroke="#34d399" stroke-width="1.3" fill="none" opacity="0.85"/><path d="M339.8025149263111 950 V1024.25" stroke="#34d399" stroke-width="1.3" fill="none" opacity="0.85"/><path d="M312.1235533705717 834.5 H399.40405569582526" stroke="#34d399" stroke-width="1.3" fill="none" opacity="0.85"/><path d="M312.1235533705717 987.125 H339.8025149263111" stroke="#34d399" stroke-width="1.3" fill="none" opacity="0.85"/><path d="M312.1235533705717 834.5 V987.125" stroke="#34d399" stroke-width="1.3" fill="none" opacity="0.85"/><text x="598" y="1096" fill="#cbd5e1" font-size="10" font-weight="400">Polyworld</text><text x="598" y="1118" fill="#cbd5e1" font-size="10" font-weight="400">Creatures</text><path d="M402.77063231755415 1093 H590" stroke="#34d399" stroke-width="1.3" fill="none" opacity="0.85"/><path d="M402.77063231755415 1115 H590" stroke="#34d399" stroke-width="1.3" fill="none" opacity="0.85"/><path d="M402.77063231755415 1093 V1115" stroke="#34d399" stroke-width="1.3" fill="none" opacity="0.85"/><text x="598" y="1140" fill="#cbd5e1" font-size="10" font-weight="400">Innovation Engines</text><text x="598" y="1162" fill="#cbd5e1" font-size="10" font-weight="400">Geb</text><text x="598" y="1184" fill="#cbd5e1" font-size="10" font-weight="400">MABE</text><text x="598" y="1206" fill="#cbd5e1" font-size="10" font-weight="400">Minimal Criterion Coevolution (MCC)</text><path d="M451.72194786110026 1181 H590" stroke="#34d399" stroke-width="1.3" fill="none" opacity="0.85"/><path d="M451.72194786110026 1203 H590" stroke="#34d399" stroke-width="1.3" fill="none" opacity="0.85"/><path d="M451.72194786110026 1181 V1203" stroke="#34d399" stroke-width="1.3" fill="none" opacity="0.85"/><path d="M420.9070305279293 1159 H590" stroke="#34d399" stroke-width="1.3" fill="none" opacity="0.85"/><path d="M420.9070305279293 1192 H451.72194786110026" stroke="#34d399" stroke-width="1.3" fill="none" opacity="0.85"/><path d="M420.9070305279293 1159 V1192" stroke="#34d399" stroke-width="1.3" fill="none" opacity="0.85"/><text x="598" y="1228" fill="#cbd5e1" font-size="10" font-weight="400">Chromaria</text><text x="598" y="1250" fill="#cbd5e1" font-size="10" font-weight="400">Evolve 4.0</text><text x="598" y="1272" fill="#cbd5e1" font-size="10" font-weight="400">biosim4</text><text x="598" y="1294" fill="#cbd5e1" font-size="10" font-weight="400">The Bibites</text><path d="M477.0964432112425 1269 H590" stroke="#34d399" stroke-width="1.3" fill="none" opacity="0.85"/><path d="M477.0964432112425 1291 H590" stroke="#34d399" stroke-width="1.3" fill="none" opacity="0.85"/><path d="M477.0964432112425 1269 V1291" stroke="#34d399" stroke-width="1.3" fill="none" opacity="0.85"/><path d="M451.72194786110026 1247 H590" stroke="#34d399" stroke-width="1.3" fill="none" opacity="0.85"/><path d="M451.72194786110026 1280 H477.0964432112425" stroke="#34d399" stroke-width="1.3" fill="none" opacity="0.85"/><path d="M451.72194786110026 1247 V1280" stroke="#34d399" stroke-width="1.3" fill="none" opacity="0.85"/><path d="M386.53414441569765 1225 H590" stroke="#34d399" stroke-width="1.3" fill="none" opacity="0.85"/><path d="M386.53414441569765 1263.5 H451.72194786110026" stroke="#34d399" stroke-width="1.3" fill="none" opacity="0.85"/><path d="M386.53414441569765 1225 V1263.5" stroke="#34d399" stroke-width="1.3" fill="none" opacity="0.85"/><path d="M364.7394778684621 1175.5 H420.9070305279293" stroke="#34d399" stroke-width="1.3" fill="none" opacity="0.85"/><path d="M364.7394778684621 1244.25 H386.53414441569765" stroke="#34d399" stroke-width="1.3" fill="none" opacity="0.85"/><path d="M364.7394778684621 1175.5 V1244.25" stroke="#34d399" stroke-width="1.3" fill="none" opacity="0.85"/><path d="M327.02470296429965 1137 H590" stroke="#34d399" stroke-width="1.3" fill="none" opacity="0.85"/><path d="M327.02470296429965 1209.875 H364.7394778684621" stroke="#34d399" stroke-width="1.3" fill="none" opacity="0.85"/><path d="M327.02470296429965 1137 V1209.875" stroke="#34d399" stroke-width="1.3" fill="none" opacity="0.85"/><path d="M306.8747168551333 1104 H402.77063231755415" stroke="#34d399" stroke-width="1.3" fill="none" opacity="0.85"/><path d="M306.8747168551333 1173.4375 H327.02470296429965" stroke="#34d399" stroke-width="1.3" fill="none" opacity="0.85"/><path d="M306.8747168551333 1104 V1173.4375" stroke="#34d399" stroke-width="1.3" fill="none" opacity="0.85"/><path d="M260.4957348910656 910.8125 H312.1235533705717" stroke="#34d399" stroke-width="1.3" fill="none" opacity="0.85"/><path d="M260.4957348910656 1138.71875 H306.8747168551333" stroke="#34d399" stroke-width="1.3" fill="none" opacity="0.85"/><path d="M260.4957348910656 910.8125 V1138.71875" stroke="#34d399" stroke-width="1.3" fill="none" opacity="0.85"/><path d="M241.3214942615047 650.25 H321.3014578272299" stroke="#34d399" stroke-width="1.3" fill="none" opacity="0.85"/><path d="M241.3214942615047 1024.765625 H260.4957348910656" stroke="#34d399" stroke-width="1.3" fill="none" opacity="0.85"/><path d="M241.3214942615047 650.25 V1024.765625" stroke="#34d399" stroke-width="1.3" fill="none" opacity="0.85"/><path d="M188.95919741409685 305.125 H243.51712224195302" stroke="#34d399" stroke-width="1.3" fill="none" opacity="0.85"/><path d="M188.95919741409685 837.5078125 H241.3214942615047" stroke="#34d399" stroke-width="1.3" fill="none" opacity="0.85"/><path d="M188.95919741409685 305.125 V837.5078125" stroke="#34d399" stroke-width="1.3" fill="none" opacity="0.85"/><text x="598" y="1316" fill="#cbd5e1" font-size="10" font-weight="400">Sugarscape</text><text x="598" y="1338" fill="#cbd5e1" font-size="10" font-weight="400">Swarm</text><path d="M500.74190115334005 1313 H590" stroke="#34d399" stroke-width="1.3" fill="none" opacity="0.85"/><path d="M500.74190115334005 1335 H590" stroke="#34d399" stroke-width="1.3" fill="none" opacity="0.85"/><path d="M500.74190115334005 1313 V1335" stroke="#34d399" stroke-width="1.3" fill="none" opacity="0.85"/><text x="598" y="1360" fill="#cbd5e1" font-size="10" font-weight="400">Echo</text><text x="598" y="1382" fill="#cbd5e1" font-size="10" font-weight="400">SimLife: The Genetic Playground</text><path d="M411.48380230668016 1357 H590" stroke="#34d399" stroke-width="1.3" fill="none" opacity="0.85"/><path d="M411.48380230668016 1379 H590" stroke="#34d399" stroke-width="1.3" fill="none" opacity="0.85"/><path d="M411.48380230668016 1357 V1379" stroke="#34d399" stroke-width="1.3" fill="none" opacity="0.85"/><path d="M397.48317299906785 1324 H500.74190115334005" stroke="#34d399" stroke-width="1.3" fill="none" opacity="0.85"/><path d="M397.48317299906785 1368 H411.48380230668016" stroke="#34d399" stroke-width="1.3" fill="none" opacity="0.85"/><path d="M397.48317299906785 1324 V1368" stroke="#34d399" stroke-width="1.3" fill="none" opacity="0.85"/><text x="598" y="1404" fill="#cbd5e1" font-size="10" font-weight="400">Tierra</text><text x="598" y="1426" fill="#cbd5e1" font-size="10" font-weight="400">Avida</text><path d="M446.07564019502365 1401 H590" stroke="#34d399" stroke-width="1.3" fill="none" opacity="0.85"/><path d="M446.07564019502365 1423 H590" stroke="#34d399" stroke-width="1.3" fill="none" opacity="0.85"/><path d="M446.07564019502365 1401 V1423" stroke="#34d399" stroke-width="1.3" fill="none" opacity="0.85"/><text x="598" y="1448" fill="#cbd5e1" font-size="10" font-weight="400">The Life Engine</text><text x="598" y="1470" fill="#cbd5e1" font-size="10" font-weight="400">Nanopond</text><text x="598" y="1492" fill="#cbd5e1" font-size="10" font-weight="400">Physis</text><path d="M477.0964432112425 1467 H590" stroke="#34d399" stroke-width="1.3" fill="none" opacity="0.85"/><path d="M477.0964432112425 1489 H590" stroke="#34d399" stroke-width="1.3" fill="none" opacity="0.85"/><path d="M477.0964432112425 1467 V1489" stroke="#34d399" stroke-width="1.3" fill="none" opacity="0.85"/><text x="598" y="1514" fill="#cbd5e1" font-size="10" font-weight="400">Network Tierra</text><text x="598" y="1536" fill="#cbd5e1" font-size="10" font-weight="400">Core War</text><text x="598" y="1558" fill="#cbd5e1" font-size="10" font-weight="400">Cosmos</text><text x="598" y="1580" fill="#cbd5e1" font-size="10" font-weight="400">Amoeba</text><path d="M590 1555 H590" stroke="#34d399" stroke-width="1.3" fill="none" opacity="0.85"/><path d="M590 1577 H590" stroke="#34d399" stroke-width="1.3" fill="none" opacity="0.85"/><path d="M590 1555 V1577" stroke="#34d399" stroke-width="1.3" fill="none" opacity="0.85"/><path d="M477.0964432112425 1533 H590" stroke="#34d399" stroke-width="1.3" fill="none" opacity="0.85"/><path d="M477.0964432112425 1566 H590" stroke="#34d399" stroke-width="1.3" fill="none" opacity="0.85"/><path d="M477.0964432112425 1533 V1566" stroke="#34d399" stroke-width="1.3" fill="none" opacity="0.85"/><path d="M461.5077150572211 1511 H590" stroke="#34d399" stroke-width="1.3" fill="none" opacity="0.85"/><path d="M461.5077150572211 1549.5 H477.0964432112425" stroke="#34d399" stroke-width="1.3" fill="none" opacity="0.85"/><path d="M461.5077150572211 1511 V1549.5" stroke="#34d399" stroke-width="1.3" fill="none" opacity="0.85"/><path d="M455.07350460515045 1478 H477.0964432112425" stroke="#34d399" stroke-width="1.3" fill="none" opacity="0.85"/><path d="M455.07350460515045 1530.25 H461.5077150572211" stroke="#34d399" stroke-width="1.3" fill="none" opacity="0.85"/><path d="M455.07350460515045 1478 V1530.25" stroke="#34d399" stroke-width="1.3" fill="none" opacity="0.85"/><path d="M432.85806335420483 1445 H590" stroke="#34d399" stroke-width="1.3" fill="none" opacity="0.85"/><path d="M432.85806335420483 1504.125 H455.07350460515045" stroke="#34d399" stroke-width="1.3" fill="none" opacity="0.85"/><path d="M432.85806335420483 1445 V1504.125" stroke="#34d399" stroke-width="1.3" fill="none" opacity="0.85"/><path d="M410.71608431093586 1412 H446.07564019502365" stroke="#34d399" stroke-width="1.3" fill="none" opacity="0.85"/><path d="M410.71608431093586 1474.5625 H432.85806335420483" stroke="#34d399" stroke-width="1.3" fill="none" opacity="0.85"/><path d="M410.71608431093586 1412 V1474.5625" stroke="#34d399" stroke-width="1.3" fill="none" opacity="0.85"/><text x="598" y="1602" fill="#cbd5e1" font-size="10" font-weight="400">Aevol</text><text x="598" y="1624" fill="#cbd5e1" font-size="10" font-weight="400">Avida-ED</text><path d="M394.4453032866341 1599 H590" stroke="#34d399" stroke-width="1.3" fill="none" opacity="0.85"/><path d="M394.4453032866341 1621 H590" stroke="#34d399" stroke-width="1.3" fill="none" opacity="0.85"/><path d="M394.4453032866341 1599 V1621" stroke="#34d399" stroke-width="1.3" fill="none" opacity="0.85"/><path d="M347.25889742035355 1443.28125 H410.71608431093586" stroke="#34d399" stroke-width="1.3" fill="none" opacity="0.85"/><path d="M347.25889742035355 1610 H394.4453032866341" stroke="#34d399" stroke-width="1.3" fill="none" opacity="0.85"/><path d="M347.25889742035355 1443.28125 V1610" stroke="#34d399" stroke-width="1.3" fill="none" opacity="0.85"/><path d="M317.8519921034678 1346 H397.48317299906785" stroke="#34d399" stroke-width="1.3" fill="none" opacity="0.85"/><path d="M317.8519921034678 1526.640625 H347.25889742035355" stroke="#34d399" stroke-width="1.3" fill="none" opacity="0.85"/><path d="M317.8519921034678 1346 V1526.640625" stroke="#34d399" stroke-width="1.3" fill="none" opacity="0.85"/><text x="598" y="1646" fill="#cbd5e1" font-size="10" font-weight="400">El Farol Bar Problem</text><text x="598" y="1668" fill="#cbd5e1" font-size="10" font-weight="400">Generative Agents (Smallville)</text><path d="M350.4953881237675 1643 H590" stroke="#34d399" stroke-width="1.3" fill="none" opacity="0.85"/><path d="M350.4953881237675 1665 H590" stroke="#34d399" stroke-width="1.3" fill="none" opacity="0.85"/><path d="M350.4953881237675 1643 V1665" stroke="#34d399" stroke-width="1.3" fill="none" opacity="0.85"/><text x="598" y="1690" fill="#cbd5e1" font-size="10" font-weight="400">Artificial Anasazi</text><text x="598" y="1712" fill="#cbd5e1" font-size="10" font-weight="400">Schelling Segregation Model</text><text x="598" y="1734" fill="#cbd5e1" font-size="10" font-weight="400">SimEarth: The Living Planet</text><text x="598" y="1756" fill="#cbd5e1" font-size="10" font-weight="400">SimAnt: The Electric Ant Colony</text><text x="598" y="1778" fill="#cbd5e1" font-size="10" font-weight="400">StarLogo</text><text x="598" y="1800" fill="#cbd5e1" font-size="10" font-weight="400">Ascape</text><path d="M477.0964432112425 1775 H590" stroke="#34d399" stroke-width="1.3" fill="none" opacity="0.85"/><path d="M477.0964432112425 1797 H590" stroke="#34d399" stroke-width="1.3" fill="none" opacity="0.85"/><path d="M477.0964432112425 1775 V1797" stroke="#34d399" stroke-width="1.3" fill="none" opacity="0.85"/><path d="M453.7133509802104 1753 H590" stroke="#34d399" stroke-width="1.3" fill="none" opacity="0.85"/><path d="M453.7133509802104 1786 H477.0964432112425" stroke="#34d399" stroke-width="1.3" fill="none" opacity="0.85"/><path d="M453.7133509802104 1753 V1786" stroke="#34d399" stroke-width="1.3" fill="none" opacity="0.85"/><path d="M427.406894032116 1731 H590" stroke="#34d399" stroke-width="1.3" fill="none" opacity="0.85"/><path d="M427.406894032116 1769.5 H453.7133509802104" stroke="#34d399" stroke-width="1.3" fill="none" opacity="0.85"/><path d="M427.406894032116 1731 V1769.5" stroke="#34d399" stroke-width="1.3" fill="none" opacity="0.85"/><path d="M417.2837139402737 1709 H590" stroke="#34d399" stroke-width="1.3" fill="none" opacity="0.85"/><path d="M417.2837139402737 1750.25 H427.406894032116" stroke="#34d399" stroke-width="1.3" fill="none" opacity="0.85"/><path d="M417.2837139402737 1709 V1750.25" stroke="#34d399" stroke-width="1.3" fill="none" opacity="0.85"/><path d="M397.36651887025783 1687 H590" stroke="#34d399" stroke-width="1.3" fill="none" opacity="0.85"/><path d="M397.36651887025783 1729.625 H417.2837139402737" stroke="#34d399" stroke-width="1.3" fill="none" opacity="0.85"/><path d="M397.36651887025783 1687 V1729.625" stroke="#34d399" stroke-width="1.3" fill="none" opacity="0.85"/><text x="598" y="1822" fill="#cbd5e1" font-size="10" font-weight="400">Boids</text><text x="598" y="1844" fill="#cbd5e1" font-size="10" font-weight="400">NetLogo</text><text x="598" y="1866" fill="#cbd5e1" font-size="10" font-weight="400">Mesa</text><path d="M590 1841 H590" stroke="#34d399" stroke-width="1.3" fill="none" opacity="0.85"/><path d="M590 1863 H590" stroke="#34d399" stroke-width="1.3" fill="none" opacity="0.85"/><path d="M590 1841 V1863" stroke="#34d399" stroke-width="1.3" fill="none" opacity="0.85"/><text x="598" y="1888" fill="#cbd5e1" font-size="10" font-weight="400">GAMA Platform</text><text x="598" y="1910" fill="#cbd5e1" font-size="10" font-weight="400">MASON</text><text x="598" y="1932" fill="#cbd5e1" font-size="10" font-weight="400">Repast</text><path d="M510.1651293745891 1907 H590" stroke="#34d399" stroke-width="1.3" fill="none" opacity="0.85"/><path d="M510.1651293745891 1929 H590" stroke="#34d399" stroke-width="1.3" fill="none" opacity="0.85"/><path d="M510.1651293745891 1907 V1929" stroke="#34d399" stroke-width="1.3" fill="none" opacity="0.85"/><path d="M493.63078629291584 1885 H590" stroke="#34d399" stroke-width="1.3" fill="none" opacity="0.85"/><path d="M493.63078629291584 1918 H510.1651293745891" stroke="#34d399" stroke-width="1.3" fill="none" opacity="0.85"/><path d="M493.63078629291584 1885 V1918" stroke="#34d399" stroke-width="1.3" fill="none" opacity="0.85"/><path d="M479.6611734823107 1852 H590" stroke="#34d399" stroke-width="1.3" fill="none" opacity="0.85"/><path d="M479.6611734823107 1901.5 H493.63078629291584" stroke="#34d399" stroke-width="1.3" fill="none" opacity="0.85"/><path d="M479.6611734823107 1852 V1901.5" stroke="#34d399" stroke-width="1.3" fill="none" opacity="0.85"/><path d="M396.48139533382727 1819 H590" stroke="#34d399" stroke-width="1.3" fill="none" opacity="0.85"/><path d="M396.48139533382727 1876.75 H479.6611734823107" stroke="#34d399" stroke-width="1.3" fill="none" opacity="0.85"/><path d="M396.48139533382727 1819 V1876.75" stroke="#34d399" stroke-width="1.3" fill="none" opacity="0.85"/><path d="M348.3178238134826 1708.3125 H397.36651887025783" stroke="#34d399" stroke-width="1.3" fill="none" opacity="0.85"/><path d="M348.3178238134826 1847.875 H396.48139533382727" stroke="#34d399" stroke-width="1.3" fill="none" opacity="0.85"/><path d="M348.3178238134826 1708.3125 V1847.875" stroke="#34d399" stroke-width="1.3" fill="none" opacity="0.85"/><path d="M291.7707096016061 1654 H350.4953881237675" stroke="#34d399" stroke-width="1.3" fill="none" opacity="0.85"/><path d="M291.7707096016061 1778.09375 H348.3178238134826" stroke="#34d399" stroke-width="1.3" fill="none" opacity="0.85"/><path d="M291.7707096016061 1654 V1778.09375" stroke="#34d399" stroke-width="1.3" fill="none" opacity="0.85"/><path d="M197.31382712551218 1436.3203125 H317.8519921034678" stroke="#34d399" stroke-width="1.3" fill="none" opacity="0.85"/><path d="M197.31382712551218 1716.046875 H291.7707096016061" stroke="#34d399" stroke-width="1.3" fill="none" opacity="0.85"/><path d="M197.31382712551218 1436.3203125 V1716.046875" stroke="#34d399" stroke-width="1.3" fill="none" opacity="0.85"/><text x="598" y="1954" fill="#cbd5e1" font-size="10" font-weight="400">Lenia</text><text x="598" y="1976" fill="#cbd5e1" font-size="10" font-weight="400">Particle Lenia</text><path d="M477.0964432112425 1951 H590" stroke="#34d399" stroke-width="1.3" fill="none" opacity="0.85"/><path d="M477.0964432112425 1973 H590" stroke="#34d399" stroke-width="1.3" fill="none" opacity="0.85"/><path d="M477.0964432112425 1951 V1973" stroke="#34d399" stroke-width="1.3" fill="none" opacity="0.85"/><text x="598" y="1998" fill="#cbd5e1" font-size="10" font-weight="400">Flow Lenia</text><text x="598" y="2020" fill="#cbd5e1" font-size="10" font-weight="400">Thrive</text><path d="M430.33025874917826 1995 H590" stroke="#34d399" stroke-width="1.3" fill="none" opacity="0.85"/><path d="M430.33025874917826 2017 H590" stroke="#34d399" stroke-width="1.3" fill="none" opacity="0.85"/><path d="M430.33025874917826 1995 V2017" stroke="#34d399" stroke-width="1.3" fill="none" opacity="0.85"/><path d="M388.0599447778188 1962 H477.0964432112425" stroke="#34d399" stroke-width="1.3" fill="none" opacity="0.85"/><path d="M388.0599447778188 2006 H430.33025874917826" stroke="#34d399" stroke-width="1.3" fill="none" opacity="0.85"/><path d="M388.0599447778188 1962 V2006" stroke="#34d399" stroke-width="1.3" fill="none" opacity="0.85"/><text x="598" y="2042" fill="#cbd5e1" font-size="10" font-weight="400">Clusters (Particle Life)</text><text x="598" y="2064" fill="#cbd5e1" font-size="10" font-weight="400">Spore</text><text x="598" y="2086" fill="#cbd5e1" font-size="10" font-weight="400">Noita</text><text x="598" y="2108" fill="#cbd5e1" font-size="10" font-weight="400">Sandspiel</text><path d="M477.0964432112425 2083 H590" stroke="#34d399" stroke-width="1.3" fill="none" opacity="0.85"/><path d="M477.0964432112425 2105 H590" stroke="#34d399" stroke-width="1.3" fill="none" opacity="0.85"/><path d="M477.0964432112425 2083 V2105" stroke="#34d399" stroke-width="1.3" fill="none" opacity="0.85"/><path d="M412.3877810179062 2061 H590" stroke="#34d399" stroke-width="1.3" fill="none" opacity="0.85"/><path d="M412.3877810179062 2094 H477.0964432112425" stroke="#34d399" stroke-width="1.3" fill="none" opacity="0.85"/><path d="M412.3877810179062 2061 V2094" stroke="#34d399" stroke-width="1.3" fill="none" opacity="0.85"/><path d="M406.40695510748213 2039 H590" stroke="#34d399" stroke-width="1.3" fill="none" opacity="0.85"/><path d="M406.40695510748213 2077.5 H412.3877810179062" stroke="#34d399" stroke-width="1.3" fill="none" opacity="0.85"/><path d="M406.40695510748213 2039 V2077.5" stroke="#34d399" stroke-width="1.3" fill="none" opacity="0.85"/><text x="598" y="2130" fill="#cbd5e1" font-size="10" font-weight="400">OpenSteer</text><text x="598" y="2152" fill="#cbd5e1" font-size="10" font-weight="400">Pezzza's Ant Colony Simulation</text><path d="M477.0964432112425 2127 H590" stroke="#34d399" stroke-width="1.3" fill="none" opacity="0.85"/><path d="M477.0964432112425 2149 H590" stroke="#34d399" stroke-width="1.3" fill="none" opacity="0.85"/><path d="M477.0964432112425 2127 V2149" stroke="#34d399" stroke-width="1.3" fill="none" opacity="0.85"/><text x="598" y="2174" fill="#cbd5e1" font-size="10" font-weight="400">The Powder Toy</text><text x="598" y="2196" fill="#cbd5e1" font-size="10" font-weight="400">SmoothLife</text><text x="598" y="2218" fill="#cbd5e1" font-size="10" font-weight="400">Larger than Life</text><path d="M590 2193 H590" stroke="#34d399" stroke-width="1.3" fill="none" opacity="0.85"/><path d="M590 2215 H590" stroke="#34d399" stroke-width="1.3" fill="none" opacity="0.85"/><path d="M590 2193 V2215" stroke="#34d399" stroke-width="1.3" fill="none" opacity="0.85"/><text x="598" y="2240" fill="#cbd5e1" font-size="10" font-weight="400">Gray-Scott Reaction-Diffusion</text><text x="598" y="2262" fill="#cbd5e1" font-size="10" font-weight="400">Morphozoic</text><path d="M477.0964432112425 2237 H590" stroke="#34d399" stroke-width="1.3" fill="none" opacity="0.85"/><path d="M477.0964432112425 2259 H590" stroke="#34d399" stroke-width="1.3" fill="none" opacity="0.85"/><path d="M477.0964432112425 2237 V2259" stroke="#34d399" stroke-width="1.3" fill="none" opacity="0.85"/><path d="M453.7133509802104 2204 H590" stroke="#34d399" stroke-width="1.3" fill="none" opacity="0.85"/><path d="M453.7133509802104 2248 H477.0964432112425" stroke="#34d399" stroke-width="1.3" fill="none" opacity="0.85"/><path d="M453.7133509802104 2204 V2248" stroke="#34d399" stroke-width="1.3" fill="none" opacity="0.85"/><path d="M430.33025874917826 2171 H590" stroke="#34d399" stroke-width="1.3" fill="none" opacity="0.85"/><path d="M430.33025874917826 2226 H453.7133509802104" stroke="#34d399" stroke-width="1.3" fill="none" opacity="0.85"/><path d="M430.33025874917826 2171 V2226" stroke="#34d399" stroke-width="1.3" fill="none" opacity="0.85"/><path d="M393.7981991533357 2138 H477.0964432112425" stroke="#34d399" stroke-width="1.3" fill="none" opacity="0.85"/><path d="M393.7981991533357 2198.5 H430.33025874917826" stroke="#34d399" stroke-width="1.3" fill="none" opacity="0.85"/><path d="M393.7981991533357 2138 V2198.5" stroke="#34d399" stroke-width="1.3" fill="none" opacity="0.85"/><path d="M381.692213627266 2058.25 H406.40695510748213" stroke="#34d399" stroke-width="1.3" fill="none" opacity="0.85"/><path d="M381.692213627266 2168.25 H393.7981991533357" stroke="#34d399" stroke-width="1.3" fill="none" opacity="0.85"/><path d="M381.692213627266 2058.25 V2168.25" stroke="#34d399" stroke-width="1.3" fill="none" opacity="0.85"/><path d="M327.6976590940904 1984 H388.0599447778188" stroke="#34d399" stroke-width="1.3" fill="none" opacity="0.85"/><path d="M327.6976590940904 2113.25 H381.692213627266" stroke="#34d399" stroke-width="1.3" fill="none" opacity="0.85"/><path d="M327.6976590940904 1984 V2113.25" stroke="#34d399" stroke-width="1.3" fill="none" opacity="0.85"/><text x="598" y="2284" fill="#cbd5e1" font-size="10" font-weight="400">Game of Life</text><text x="598" y="2306" fill="#cbd5e1" font-size="10" font-weight="400">Voxelyze / VoxCAD</text><text x="598" y="2328" fill="#cbd5e1" font-size="10" font-weight="400">Growing NCA</text><text x="598" y="2350" fill="#cbd5e1" font-size="10" font-weight="400">Genie (Generative Interactive Environments)</text><path d="M425.41619790195523 2325 H590" stroke="#34d399" stroke-width="1.3" fill="none" opacity="0.85"/><path d="M425.41619790195523 2347 H590" stroke="#34d399" stroke-width="1.3" fill="none" opacity="0.85"/><path d="M425.41619790195523 2325 V2347" stroke="#34d399" stroke-width="1.3" fill="none" opacity="0.85"/><text x="598" y="2372" fill="#cbd5e1" font-size="10" font-weight="400">DevoWorm</text><text x="598" y="2394" fill="#cbd5e1" font-size="10" font-weight="400">EvoGym</text><text x="598" y="2416" fill="#cbd5e1" font-size="10" font-weight="400">RoboGrammar</text><path d="M477.0964432112425 2391 H590" stroke="#34d399" stroke-width="1.3" fill="none" opacity="0.85"/><path d="M477.0964432112425 2413 H590" stroke="#34d399" stroke-width="1.3" fill="none" opacity="0.85"/><path d="M477.0964432112425 2391 V2413" stroke="#34d399" stroke-width="1.3" fill="none" opacity="0.85"/><path d="M364.6360872489574 2369 H590" stroke="#34d399" stroke-width="1.3" fill="none" opacity="0.85"/><path d="M364.6360872489574 2402 H477.0964432112425" stroke="#34d399" stroke-width="1.3" fill="none" opacity="0.85"/><path d="M364.6360872489574 2369 V2402" stroke="#34d399" stroke-width="1.3" fill="none" opacity="0.85"/><path d="M340.46215447695147 2336 H425.41619790195523" stroke="#34d399" stroke-width="1.3" fill="none" opacity="0.85"/><path d="M340.46215447695147 2385.5 H364.6360872489574" stroke="#34d399" stroke-width="1.3" fill="none" opacity="0.85"/><path d="M340.46215447695147 2336 V2385.5" stroke="#34d399" stroke-width="1.3" fill="none" opacity="0.85"/><path d="M303.69748497400263 2303 H590" stroke="#34d399" stroke-width="1.3" fill="none" opacity="0.85"/><path d="M303.69748497400263 2360.75 H340.46215447695147" stroke="#34d399" stroke-width="1.3" fill="none" opacity="0.85"/><path d="M303.69748497400263 2303 V2360.75" stroke="#34d399" stroke-width="1.3" fill="none" opacity="0.85"/><path d="M268.3595119914978 2281 H590" stroke="#34d399" stroke-width="1.3" fill="none" opacity="0.85"/><path d="M268.3595119914978 2331.875 H303.69748497400263" stroke="#34d399" stroke-width="1.3" fill="none" opacity="0.85"/><path d="M268.3595119914978 2281 V2331.875" stroke="#34d399" stroke-width="1.3" fill="none" opacity="0.85"/><path d="M261.1460803453226 2048.625 H327.6976590940904" stroke="#34d399" stroke-width="1.3" fill="none" opacity="0.85"/><path d="M261.1460803453226 2306.4375 H268.3595119914978" stroke="#34d399" stroke-width="1.3" fill="none" opacity="0.85"/><path d="M261.1460803453226 2048.625 V2306.4375" stroke="#34d399" stroke-width="1.3" fill="none" opacity="0.85"/><text x="598" y="2438" fill="#cbd5e1" font-size="10" font-weight="400">Rule 110</text><text x="598" y="2460" fill="#cbd5e1" font-size="10" font-weight="400">Wireworld</text><text x="598" y="2482" fill="#cbd5e1" font-size="10" font-weight="400">Langton's Ant</text><path d="M590 2457 H590" stroke="#34d399" stroke-width="1.3" fill="none" opacity="0.85"/><path d="M590 2479 H590" stroke="#34d399" stroke-width="1.3" fill="none" opacity="0.85"/><path d="M590 2457 V2479" stroke="#34d399" stroke-width="1.3" fill="none" opacity="0.85"/><path d="M590 2435 H590" stroke="#34d399" stroke-width="1.3" fill="none" opacity="0.85"/><path d="M590 2468 H590" stroke="#34d399" stroke-width="1.3" fill="none" opacity="0.85"/><path d="M590 2435 V2468" stroke="#34d399" stroke-width="1.3" fill="none" opacity="0.85"/><text x="598" y="2504" fill="#cbd5e1" font-size="10" font-weight="400">Biomorphs</text><text x="598" y="2526" fill="#cbd5e1" font-size="10" font-weight="400">Langton's Loops</text><text x="598" y="2548" fill="#cbd5e1" font-size="10" font-weight="400">von Neumann Universal Constructor</text><path d="M430.33025874917826 2523 H590" stroke="#34d399" stroke-width="1.3" fill="none" opacity="0.85"/><path d="M430.33025874917826 2545 H590" stroke="#34d399" stroke-width="1.3" fill="none" opacity="0.85"/><path d="M430.33025874917826 2523 V2545" stroke="#34d399" stroke-width="1.3" fill="none" opacity="0.85"/><path d="M325.21768894894626 2501 H590" stroke="#34d399" stroke-width="1.3" fill="none" opacity="0.85"/><path d="M325.21768894894626 2534 H430.33025874917826" stroke="#34d399" stroke-width="1.3" fill="none" opacity="0.85"/><path d="M325.21768894894626 2501 V2534" stroke="#34d399" stroke-width="1.3" fill="none" opacity="0.85"/><path d="M225.91483428358546 2451.5 H590" stroke="#34d399" stroke-width="1.3" fill="none" opacity="0.85"/><path d="M225.91483428358546 2517.5 H325.21768894894626" stroke="#34d399" stroke-width="1.3" fill="none" opacity="0.85"/><path d="M225.91483428358546 2451.5 V2517.5" stroke="#34d399" stroke-width="1.3" fill="none" opacity="0.85"/><path d="M175.8332580553328 2177.53125 H261.1460803453226" stroke="#34d399" stroke-width="1.3" fill="none" opacity="0.85"/><path d="M175.8332580553328 2484.5 H225.91483428358546" stroke="#34d399" stroke-width="1.3" fill="none" opacity="0.85"/><path d="M175.8332580553328 2177.53125 V2484.5" stroke="#34d399" stroke-width="1.3" fill="none" opacity="0.85"/><path d="M145.405505830119 1576.18359375 H197.31382712551218" stroke="#34d399" stroke-width="1.3" fill="none" opacity="0.85"/><path d="M145.405505830119 2331.015625 H175.8332580553328" stroke="#34d399" stroke-width="1.3" fill="none" opacity="0.85"/><path d="M145.405505830119 1576.18359375 V2331.015625" stroke="#34d399" stroke-width="1.3" fill="none" opacity="0.85"/><path d="M135.51624736594346 571.31640625 H188.95919741409685" stroke="#34d399" stroke-width="1.3" fill="none" opacity="0.85"/><path d="M135.51624736594346 1953.599609375 H145.405505830119" stroke="#34d399" stroke-width="1.3" fill="none" opacity="0.85"/><path d="M135.51624736594346 571.31640625 V1953.599609375" stroke="#34d399" stroke-width="1.3" fill="none" opacity="0.85"/><path d="M86.33705187186659 114 H291.28526660228954" stroke="#34d399" stroke-width="1.3" fill="none" opacity="0.85"/><path d="M86.33705187186659 1262.4580078125 H135.51624736594346" stroke="#34d399" stroke-width="1.3" fill="none" opacity="0.85"/><path d="M86.33705187186659 114 V1262.4580078125" stroke="#34d399" stroke-width="1.3" fill="none" opacity="0.85"/><path d="M30 81 H590" stroke="#f59e0b" stroke-width="1.3" fill="none" opacity="0.85"/><path d="M30 688.22900390625 H86.33705187186659" stroke="#f59e0b" stroke-width="1.3" fill="none" opacity="0.85"/><path d="M30 81 V688.22900390625" stroke="#f59e0b" stroke-width="1.3" fill="none" opacity="0.85"/>
</svg>