<svg xmlns="http://www.w3.org/2000/svg" viewBox="0 0 760 600" font-family="ui-sans-serif,system-ui,Segoe UI,Roboto,sans-serif" role="img" aria-label="PCA projection">
<rect width="760" height="600" rx="14" fill="#0b1220"/>
<text x="28" y="30" fill="#cbd5e1" font-size="18" font-weight="700">PCA of 113 A-Life systems (9-axis correlation-matrix eigenbasis)</text><text x="28" y="50" fill="#7c8aa5" font-size="12">PC1 25.4% var · PC2 21.6% var · together 47.0%. amber = this repo.</text><line x1="170.70453678993516" y1="70" x2="170.70453678993516" y2="540" stroke="#27344d" stroke-width="0.8"/><line x1="60" y1="317.5384845314602" x2="730" y2="317.5384845314602" stroke="#27344d" stroke-width="0.8"/><text x="730" y="544" fill="#7c8aa5" font-size="11" text-anchor="end">PC1 (generalist breadth →)</text><text x="54" y="62" fill="#7c8aa5" font-size="11">PC2</text><circle cx="730" cy="158.296218801375" r="8" fill="#f59e0b"/><circle cx="730" cy="158.296218801375" r="13" fill="none" stroke="#f59e0b" stroke-width="1.4" opacity="0.6"/><text x="718" y="146.296218801375" fill="#f59e0b" font-size="11" font-weight="700" text-anchor="end">COSMOGONIC</text><circle cx="138.7243614182234" cy="310.8653415035121" r="4.5" fill="#38bdf8" opacity="0.85"/><text x="145.7243614182234" y="324.8653415035121" fill="#7c8aa5" font-size="9">Game of Life</text><circle cx="119.66908120472739" cy="227.06471379464955" r="4.5" fill="#38bdf8" opacity="0.85"/><text x="126.66908120472739" y="219.06471379464955" fill="#7c8aa5" font-size="9">Boids</text><circle cx="126.2081585970263" cy="249.96413092213425" r="4.5" fill="#38bdf8" opacity="0.85"/><text x="133.20815859702628" y="263.96413092213425" fill="#7c8aa5" font-size="9">Biomorphs</text><circle cx="122.47884102173083" cy="429.7175310118069" r="4.5" fill="#38bdf8" opacity="0.85"/><text x="129.47884102173083" y="421.7175310118069" fill="#7c8aa5" font-size="9">Core War</text><circle cx="130.34616850934043" cy="461.2569122702137" r="4.5" fill="#38bdf8" opacity="0.85"/><text x="137.34616850934043" y="475.2569122702137" fill="#7c8aa5" font-size="9">Tierra</text><circle cx="157.72855508959205" cy="465.6822597519056" r="4.5" fill="#38bdf8" opacity="0.85"/><text x="164.72855508959205" y="457.6822597519056" fill="#7c8aa5" font-size="9">Avida</text><circle cx="245.8528402592451" cy="360.94903601853235" r="4.5" fill="#38bdf8" opacity="0.85"/><text x="252.8528402592451" y="374.94903601853235" fill="#7c8aa5" font-size="9">Polyworld</text><circle cx="269.91460160121994" cy="336.01255417725304" r="4.5" fill="#38bdf8" opacity="0.85"/><text x="276.91460160121994" y="328.01255417725304" fill="#7c8aa5" font-size="9">Framsticks</text><circle cx="224.34540602363705" cy="262.3270064265431" r="4.5" fill="#38bdf8" opacity="0.85"/><text x="231.34540602363705" y="276.3270064265431" fill="#7c8aa5" font-size="9">Karl Sims VC</text><circle cx="368.40945482272207" cy="271.4586758332088" r="4.5" fill="#38bdf8" opacity="0.85"/><text x="375.40945482272207" y="263.4586758332088" fill="#7c8aa5" font-size="9">Creatures</text><circle cx="190.16850934044987" cy="296.1141832312061" r="4.5" fill="#38bdf8" opacity="0.85"/><text x="197.16850934044987" y="310.1141832312061" fill="#7c8aa5" font-size="9">Darwin Pond</text><circle cx="208.2531452535265" cy="298.92392766402634" r="4.5" fill="#38bdf8" opacity="0.85"/><text x="215.2531452535265" y="290.92392766402634" fill="#7c8aa5" font-size="9">Gene Pool</text><circle cx="164.3698055661456" cy="417.70587356150054" r="4.5" fill="#38bdf8" opacity="0.85"/><text x="171.3698055661456" y="431.70587356150054" fill="#7c8aa5" font-size="9">Sugarscape</text><circle cx="148.02211208539836" cy="435.5477507099088" r="4.5" fill="#38bdf8" opacity="0.85"/><text x="155.02211208539836" y="427.5477507099088" fill="#7c8aa5" font-size="9">Echo</text><circle cx="154.56118947769727" cy="390.87281422806757" r="4.5" fill="#38bdf8" opacity="0.85"/><text x="161.56118947769727" y="404.87281422806757" fill="#7c8aa5" font-size="9">Swarm</text><circle cx="206.2607701105604" cy="272.30159916305485" r="4.5" fill="#38bdf8" opacity="0.85"/><text x="213.2607701105604" y="264.30159916305485" fill="#7c8aa5" font-size="9">breve</text><circle cx="220.36065573770492" cy="309.5307128979226" r="4.5" fill="#38bdf8" opacity="0.85"/><text x="227.36065573770492" y="323.5307128979226" fill="#7c8aa5" font-size="9">Picbreeder</text><circle cx="197.93366374380477" cy="464.90958003288" r="4.5" fill="#38bdf8" opacity="0.85"/><text x="204.93366374380477" y="456.90958003288" fill="#7c8aa5" font-size="9">MABE</text><circle cx="159.31223789553945" cy="182.03855925870567" r="4.5" fill="#38bdf8" opacity="0.85"/><text x="166.31223789553945" y="196.03855925870567" fill="#7c8aa5" font-size="9">Lenia</text><circle cx="202.53145253526495" cy="215.7554924525482" r="4.5" fill="#38bdf8" opacity="0.85"/><text x="209.53145253526495" y="207.7554924525482" fill="#7c8aa5" font-size="9">Growing NCA</text><circle cx="385.06366755623327" cy="150.00747272455538" r="4.5" fill="#38bdf8" opacity="0.85"/><text x="392.06366755623327" y="164.00747272455538" fill="#7c8aa5" font-size="9">OpenWorm</text><circle cx="195.43042317956537" cy="441.5887012404723" r="4.5" fill="#38bdf8" opacity="0.85"/><text x="202.43042317956537" y="433.5887012404723" fill="#7c8aa5" font-size="9">POET</text><circle cx="204.42165459397637" cy="315.92288148258854" r="4.5" fill="#38bdf8" opacity="0.85"/><text x="211.42165459397637" y="329.92288148258854" fill="#7c8aa5" font-size="9">EvoGym</text><circle cx="404.4254670224933" cy="227.13495740547006" r="4.5" fill="#38bdf8" opacity="0.85"/><text x="411.4254670224933" y="219.13495740547006" fill="#7c8aa5" font-size="9">ALIEN</text><circle cx="271.90697674418607" cy="323.2282170079211" r="4.5" fill="#38bdf8" opacity="0.85"/><text x="278.90697674418607" y="337.2282170079211" fill="#7c8aa5" font-size="9">ASAL</text><circle cx="60" cy="238.6549095800329" r="4.5" fill="#38bdf8" opacity="0.85"/><text x="67" y="230.6549095800329" fill="#7c8aa5" font-size="9">Wireworld</text><circle cx="60" cy="238.6549095800329" r="4.5" fill="#38bdf8" opacity="0.85"/><text x="67" y="252.6549095800329" fill="#7c8aa5" font-size="9">Langton's Ant</text><circle cx="91.82691574532976" cy="270.0538036167987" r="4.5" fill="#38bdf8" opacity="0.85"/><text x="98.82691574532976" y="262.0538036167987" fill="#7c8aa5" font-size="9">Langton's Loops</text><circle cx="79.46397255051467" cy="297.65954266925723" r="4.5" fill="#38bdf8" opacity="0.85"/><text x="86.46397255051467" y="311.65954266925723" fill="#7c8aa5" font-size="9">von Neumann Universal Constructor</text><circle cx="60" cy="238.6549095800329" r="4.5" fill="#38bdf8" opacity="0.85"/><text x="67" y="230.6549095800329" fill="#7c8aa5" font-size="9">Rule 110</text><circle cx="122.98970644300418" cy="178.38589149603945" r="4.5" fill="#38bdf8" opacity="0.85"/><text x="129.9897064430042" y="192.38589149603945" fill="#7c8aa5" font-size="9">SmoothLife</text><circle cx="122.98970644300418" cy="178.38589149603945" r="4.5" fill="#38bdf8" opacity="0.85"/><text x="129.9897064430042" y="170.38589149603945" fill="#7c8aa5" font-size="9">Larger than Life</text><circle cx="192.82500953107126" cy="244.62561649977584" r="4.5" fill="#38bdf8" opacity="0.85"/><text x="199.82500953107126" y="258.62561649977584" fill="#7c8aa5" font-size="9">Flow Lenia</text><circle cx="153.2840259245139" cy="199.66970557465254" r="4.5" fill="#38bdf8" opacity="0.85"/><text x="160.2840259245139" y="191.66970557465254" fill="#7c8aa5" font-size="9">Particle Lenia</text><circle cx="149.86122760198248" cy="240.340756239725" r="4.5" fill="#38bdf8" opacity="0.85"/><text x="156.86122760198248" y="254.340756239725" fill="#7c8aa5" font-size="9">Primordial Particle Systems</text><circle cx="123.55165840640487" cy="178.17516066357797" r="4.5" fill="#38bdf8" opacity="0.85"/><text x="130.55165840640487" y="170.17516066357797" fill="#7c8aa5" font-size="9">Gray-Scott Reaction-Diffusion</text><circle cx="129.8353030880671" cy="417.5653863398595" r="4.5" fill="#38bdf8" opacity="0.85"/><text x="136.8353030880671" y="431.5653863398595" fill="#7c8aa5" font-size="9">Aevol</text><circle cx="154.25467022493325" cy="418.7595277238081" r="4.5" fill="#38bdf8" opacity="0.85"/><text x="161.25467022493325" y="410.7595277238081" fill="#7c8aa5" font-size="9">Avida-ED</text><circle cx="113.89630194433852" cy="373.4523987445823" r="4.5" fill="#38bdf8" opacity="0.85"/><text x="120.89630194433852" y="387.4523987445823" fill="#7c8aa5" font-size="9">Nanopond</text><circle cx="105.2626763248189" cy="354.6271110446869" r="4.5" fill="#38bdf8" opacity="0.85"/><text x="112.2626763248189" y="346.6271110446869" fill="#7c8aa5" font-size="9">Physis</text><circle cx="118.39191765154402" cy="383.00552981617096" r="4.5" fill="#38bdf8" opacity="0.85"/><text x="125.39191765154402" y="397.00552981617096" fill="#7c8aa5" font-size="9">Cosmos</text><circle cx="208.04879908501712" cy="507.4069645792856" r="4.5" fill="#38bdf8" opacity="0.85"/><text x="215.04879908501712" y="499.4069645792856" fill="#7c8aa5" font-size="9">Geb</text><circle cx="118.39191765154402" cy="383.00552981617096" r="4.5" fill="#38bdf8" opacity="0.85"/><text x="125.39191765154402" y="397.00552981617096" fill="#7c8aa5" font-size="9">Amoeba</text><circle cx="173.10560426991992" cy="345.77641608130324" r="4.5" fill="#38bdf8" opacity="0.85"/><text x="180.10560426991992" y="337.77641608130324" fill="#7c8aa5" font-size="9">Evolve 4.0</text><circle cx="143.0667174990469" cy="282.48692273202806" r="4.5" fill="#38bdf8" opacity="0.85"/><text x="150.0667174990469" y="296.48692273202806" fill="#7c8aa5" font-size="9">Squirm3</text><circle cx="127.07662981319099" cy="401.8308175160664" r="4.5" fill="#38bdf8" opacity="0.85"/><text x="134.076629813191" y="393.8308175160664" fill="#7c8aa5" font-size="9">Network Tierra</text><circle cx="185.87723980175372" cy="360.7383051860709" r="4.5" fill="#38bdf8" opacity="0.85"/><text x="192.87723980175372" y="374.7383051860709" fill="#7c8aa5" font-size="9">biosim4</text><circle cx="179.54250857796416" cy="277.5698699745928" r="4.5" fill="#38bdf8" opacity="0.85"/><text x="186.54250857796416" y="269.5698699745928" fill="#7c8aa5" font-size="9">GOLEM (Genetically Organized Lifelike Electro Mechanics)</text><circle cx="140.66565001906213" cy="202.90091167239575" r="4.5" fill="#38bdf8" opacity="0.85"/><text x="147.66565001906213" y="216.90091167239575" fill="#7c8aa5" font-size="9">Voxelyze / VoxCAD</text><circle cx="203.0423179565383" cy="265.48796891346586" r="4.5" fill="#38bdf8" opacity="0.85"/><text x="210.0423179565383" y="257.48796891346586" fill="#7c8aa5" font-size="9">3D Virtual Creature Evolution (3DVCE)</text><circle cx="238.34311856652684" cy="375.8406815124795" r="4.5" fill="#38bdf8" opacity="0.85"/><text x="245.34311856652684" y="389.8406815124795" fill="#7c8aa5" font-size="9">DERL (Deep Evolutionary Reinforcement Learning)</text><circle cx="233.33663743804803" cy="361.15976685099383" r="4.5" fill="#38bdf8" opacity="0.85"/><text x="240.33663743804803" y="353.15976685099383" fill="#7c8aa5" font-size="9">UNIMAL (Universal Animal design space)</text><circle cx="188.12504765535647" cy="259.4470183829024" r="4.5" fill="#38bdf8" opacity="0.85"/><text x="195.12504765535647" y="273.4470183829024" fill="#7c8aa5" font-size="9">Evolving Soft Robots (Cheney / Unshackling Evolution)</text><circle cx="203.85970263057567" cy="316.1336123150501" r="4.5" fill="#38bdf8" opacity="0.85"/><text x="210.85970263057567" y="308.1336123150501" fill="#7c8aa5" font-size="9">RoboGrammar</text><circle cx="205.9542508577964" cy="381.9518756538634" r="4.5" fill="#38bdf8" opacity="0.85"/><text x="212.9542508577964" y="395.9518756538634" fill="#7c8aa5" font-size="9">Transform2Act</text><circle cx="163.34807472359893" cy="302.4361082050516" r="4.5" fill="#38bdf8" opacity="0.85"/><text x="170.34807472359893" y="294.4361082050516" fill="#7c8aa5" font-size="9">NerveNet</text><circle cx="206.92489515821578" cy="349.92078911971305" r="4.5" fill="#38bdf8" opacity="0.85"/><text x="213.92489515821578" y="363.92078911971305" fill="#7c8aa5" font-size="9">Neural Graph Evolution (NGE)</text><circle cx="164.01219977125427" cy="270.96697055746523" r="4.5" fill="#38bdf8" opacity="0.85"/><text x="171.01219977125427" y="262.96697055746523" fill="#7c8aa5" font-size="9">Krcah Evolved Virtual Creatures (ERO)</text><circle cx="176.01753717117805" cy="492.3748318636975" r="4.5" fill="#38bdf8" opacity="0.85"/><text x="183.01753717117805" y="506.3748318636975" fill="#7c8aa5" font-size="9">NEAT (NeuroEvolution of Augmenting Topologies)</text><circle cx="193.89782691574533" cy="447.3486773277537" r="4.5" fill="#38bdf8" opacity="0.85"/><text x="200.89782691574533" y="439.3486773277537" fill="#7c8aa5" font-size="9">HyperNEAT</text><circle cx="184.39573008006099" cy="423.1146315946794" r="4.5" fill="#38bdf8" opacity="0.85"/><text x="191.39573008006099" y="437.1146315946794" fill="#7c8aa5" font-size="9">ES-HyperNEAT</text><circle cx="186.38810522302705" cy="497.9240771185174" r="4.5" fill="#38bdf8" opacity="0.85"/><text x="193.38810522302705" y="489.9240771185174" fill="#7c8aa5" font-size="9">Novelty Search</text><circle cx="204.83034693099503" cy="452.6871917501121" r="4.5" fill="#38bdf8" opacity="0.85"/><text x="211.83034693099503" y="466.6871917501121" fill="#7c8aa5" font-size="9">MAP-Elites</text><circle cx="204.83034693099503" cy="452.6871917501121" r="4.5" fill="#38bdf8" opacity="0.85"/><text x="211.83034693099503" y="444.6871917501121" fill="#7c8aa5" font-size="9">Quality-Diversity (illumination algorithms)</text><circle cx="181.99466260007625" cy="356.94515020176357" r="4.5" fill="#38bdf8" opacity="0.85"/><text x="188.99466260007625" y="370.94515020176357" fill="#7c8aa5" font-size="9">Go-Explore</text><circle cx="195.43042317956537" cy="441.5887012404723" r="4.5" fill="#38bdf8" opacity="0.85"/><text x="202.43042317956537" y="433.5887012404723" fill="#7c8aa5" font-size="9">OMNI (Open-endedness via Models of human Notions of Interestingness)</text><circle cx="192.36523065192526" cy="450.43939620385595" r="4.5" fill="#38bdf8" opacity="0.85"/><text x="199.36523065192526" y="464.43939620385595" fill="#7c8aa5" font-size="9">Minimal Criterion Coevolution (MCC)</text><circle cx="182.7098741898589" cy="368.0436407114033" r="4.5" fill="#38bdf8" opacity="0.85"/><text x="189.7098741898589" y="360.0436407114033" fill="#7c8aa5" font-size="9">Innovation Engines</text><circle cx="171.82844071673657" cy="290.7054251980272" r="4.5" fill="#38bdf8" opacity="0.85"/><text x="178.82844071673657" y="304.7054251980272" fill="#7c8aa5" font-size="9">EndlessForms</text><circle cx="138.21349599695003" cy="312.76191899566584" r="4.5" fill="#38bdf8" opacity="0.85"/><text x="145.21349599695003" y="304.76191899566584" fill="#7c8aa5" font-size="9">NetLogo</text><circle cx="160.1296225695768" cy="314.44776565535795" r="4.5" fill="#38bdf8" opacity="0.85"/><text x="167.1296225695768" y="328.44776565535795" fill="#7c8aa5" font-size="9">MASON</text><circle cx="150.42317956538312" cy="327.93453893289495" r="4.5" fill="#38bdf8" opacity="0.85"/><text x="157.42317956538312" y="319.93453893289495" fill="#7c8aa5" font-size="9">Repast</text><circle cx="107.40831109416698" cy="291.6888357495143" r="4.5" fill="#38bdf8" opacity="0.85"/><text x="114.40831109416698" y="305.6888357495143" fill="#7c8aa5" font-size="9">StarLogo</text><circle cx="120.5375524208921" cy="320.06725452099835" r="4.5" fill="#38bdf8" opacity="0.85"/><text x="127.5375524208921" y="312.06725452099835" fill="#7c8aa5" font-size="9">Ascape</text><circle cx="168.30346930995043" cy="282.90838439695113" r="4.5" fill="#38bdf8" opacity="0.85"/><text x="175.30346930995043" y="296.90838439695113" fill="#7c8aa5" font-size="9">GAMA Platform</text><circle cx="138.21349599695003" cy="312.76191899566584" r="4.5" fill="#38bdf8" opacity="0.85"/><text x="145.21349599695003" y="304.76191899566584" fill="#7c8aa5" font-size="9">Mesa</text><circle cx="116.7571483034693" cy="190.11657450306382" r="4.5" fill="#38bdf8" opacity="0.85"/><text x="123.7571483034693" y="204.11657450306382" fill="#7c8aa5" font-size="9">OpenSteer</text><circle cx="100.76706061761341" cy="291.0566432521298" r="4.5" fill="#38bdf8" opacity="0.85"/><text x="107.76706061761341" y="283.0566432521298" fill="#7c8aa5" font-size="9">Artificial Anasazi</text><circle cx="81.20091498284407" cy="237.3905245852638" r="4.5" fill="#38bdf8" opacity="0.85"/><text x="88.20091498284407" y="251.3905245852638" fill="#7c8aa5" font-size="9">Schelling Segregation Model</text><circle cx="108.99199390011435" cy="352.30907188761023" r="4.5" fill="#38bdf8" opacity="0.85"/><text x="115.99199390011435" y="344.30907188761023" fill="#7c8aa5" font-size="9">El Farol Bar Problem</text><circle cx="147.20472741136103" cy="128.44268420266025" r="4.5" fill="#38bdf8" opacity="0.85"/><text x="154.20472741136103" y="142.44268420266025" fill="#7c8aa5" font-size="9">Spore</text><circle cx="120.48646587876476" cy="325.47601255417726" r="4.5" fill="#38bdf8" opacity="0.85"/><text x="127.48646587876476" y="317.47601255417726" fill="#7c8aa5" font-size="9">SimLife: The Genetic Playground</text><circle cx="94.58558902020586" cy="276.7269466447467" r="4.5" fill="#38bdf8" opacity="0.85"/><text x="101.58558902020586" y="290.7269466447467" fill="#7c8aa5" font-size="9">SimEarth: The Living Planet</text><circle cx="101.53335874952344" cy="271.59916305484984" r="4.5" fill="#38bdf8" opacity="0.85"/><text x="108.53335874952344" y="263.59916305484984" fill="#7c8aa5" font-size="9">SimAnt: The Electric Ant Colony</text><circle cx="156.502478078536" cy="240.97294873710956" r="4.5" fill="#38bdf8" opacity="0.85"/><text x="163.502478078536" y="254.97294873710956" fill="#7c8aa5" font-size="9">Thrive</text><circle cx="155.0209683568433" cy="217.3710955014198" r="4.5" fill="#38bdf8" opacity="0.85"/><text x="162.0209683568433" y="209.3710955014198" fill="#7c8aa5" font-size="9">Cell Lab: Evolution Sandbox</text><circle cx="191.90545177277926" cy="313.9560603796144" r="4.5" fill="#38bdf8" opacity="0.85"/><text x="198.90545177277926" y="327.9560603796144" fill="#7c8aa5" font-size="9">Species: Artificial Life, Real Evolution</text><circle cx="198.49561570720547" cy="389.3274547900165" r="4.5" fill="#38bdf8" opacity="0.85"/><text x="205.49561570720547" y="381.3274547900165" fill="#7c8aa5" font-size="9">The Bibites</text><circle cx="97.24208921082729" cy="166.65520848901514" r="4.5" fill="#38bdf8" opacity="0.85"/><text x="104.24208921082729" y="180.65520848901514" fill="#7c8aa5" font-size="9">The Powder Toy</text><circle cx="117.37018680899732" cy="70" r="4.5" fill="#38bdf8" opacity="0.85"/><text x="124.37018680899732" y="62" fill="#7c8aa5" font-size="9">Noita</text><circle cx="126.77011056042699" cy="313.7453295471529" r="4.5" fill="#38bdf8" opacity="0.85"/><text x="133.77011056042699" y="327.7453295471529" fill="#7c8aa5" font-size="9">The Life Engine</text><circle cx="110.62676324818909" cy="125.49245254819908" r="4.5" fill="#38bdf8" opacity="0.85"/><text x="117.62676324818909" y="117.49245254819908" fill="#7c8aa5" font-size="9">Clusters (Particle Life)</text><circle cx="117.21692718261532" cy="107.72081901061125" r="4.5" fill="#38bdf8" opacity="0.85"/><text x="124.21692718261532" y="121.72081901061125" fill="#7c8aa5" font-size="9">Sandspiel</text><circle cx="161.20243995425085" cy="250.1046181437752" r="4.5" fill="#38bdf8" opacity="0.85"/><text x="168.20243995425085" y="242.1046181437752" fill="#7c8aa5" font-size="9">Sebastian Lague Ecosystem</text><circle cx="128.5581395348837" cy="162.72156628306675" r="4.5" fill="#38bdf8" opacity="0.85"/><text x="135.5581395348837" y="176.72156628306675" fill="#7c8aa5" font-size="9">Pezzza's Ant Colony Simulation</text><circle cx="147.86885245901638" cy="259.4470183829024" r="4.5" fill="#38bdf8" opacity="0.85"/><text x="154.86885245901638" y="251.4470183829024" fill="#7c8aa5" font-size="9">Primer Evolution Simulations</text><circle cx="194.05108654212734" cy="241.04319234793002" r="4.5" fill="#38bdf8" opacity="0.85"/><text x="201.05108654212734" y="255.04319234793002" fill="#7c8aa5" font-size="9">Keiwan Evolution</text><circle cx="213.61723217689666" cy="255.86459423105663" r="4.5" fill="#38bdf8" opacity="0.85"/><text x="220.61723217689666" y="247.86459423105663" fill="#7c8aa5" font-size="9">DevoWorm</text><circle cx="127.63858177659168" cy="224.8871618592139" r="4.5" fill="#38bdf8" opacity="0.85"/><text x="134.63858177659168" y="238.8871618592139" fill="#7c8aa5" font-size="9">Morphozoic</text><circle cx="174.33168128097597" cy="364.6017037811986" r="4.5" fill="#38bdf8" opacity="0.85"/><text x="181.33168128097597" y="356.6017037811986" fill="#7c8aa5" font-size="9">Chromaria</text><circle cx="201.96950057186427" cy="343.03691525930356" r="4.5" fill="#38bdf8" opacity="0.85"/><text x="208.96950057186427" y="357.03691525930356" fill="#7c8aa5" font-size="9">Division Blocks</text><circle cx="189.60655737704917" cy="370.8533851442236" r="4.5" fill="#38bdf8" opacity="0.85"/><text x="196.60655737704917" y="362.8533851442236" fill="#7c8aa5" font-size="9">Voyager (Minecraft LLM agent)</text><circle cx="169.32520015249713" cy="343.7393513675086" r="4.5" fill="#38bdf8" opacity="0.85"/><text x="176.32520015249713" y="357.7393513675086" fill="#7c8aa5" font-size="9">Generative Agents (Smallville)</text><circle cx="211.1650781547846" cy="410.4707816469885" r="4.5" fill="#38bdf8" opacity="0.85"/><text x="218.1650781547846" y="402.4707816469885" fill="#7c8aa5" font-size="9">OMNI-EPIC</text><circle cx="173.10560426991992" cy="257.83141533403085" r="4.5" fill="#38bdf8" opacity="0.85"/><text x="180.10560426991992" y="271.83141533403085" fill="#7c8aa5" font-size="9">Genie (Generative Interactive Environments)</text><circle cx="195.4815097216927" cy="390.80257061724706" r="4.5" fill="#38bdf8" opacity="0.85"/><text x="202.4815097216927" y="382.80257061724706" fill="#7c8aa5" font-size="9">Evolution through Large Models (ELM)</text><circle cx="172.44147922226455" cy="458.7983858914961" r="4.5" fill="#38bdf8" opacity="0.85"/><text x="179.44147922226455" y="472.7983858914961" fill="#7c8aa5" font-size="9">OpenELM</text><circle cx="165.28936332443766" cy="500.8743087729786" r="4.5" fill="#38bdf8" opacity="0.85"/><text x="172.28936332443766" y="492.8743087729786" fill="#7c8aa5" font-size="9">Automated Design of Agentic Systems (ADAS)</text><circle cx="163.39916126572626" cy="439.9028545807802" r="4.5" fill="#38bdf8" opacity="0.85"/><text x="170.39916126572626" y="453.9028545807802" fill="#7c8aa5" font-size="9">The AI Scientist</text><circle cx="179.23598932520014" cy="540" r="4.5" fill="#38bdf8" opacity="0.85"/><text x="186.23598932520014" y="532" fill="#7c8aa5" font-size="9">Darwin Godel Machine (DGM)</text><circle cx="121.96797560045748" cy="408.43371693319386" r="4.5" fill="#38bdf8" opacity="0.85"/><text x="128.96797560045746" y="422.43371693319386" fill="#7c8aa5" font-size="9">Promptbreeder</text><circle cx="130.95920701486847" cy="432.87849349872965" r="4.5" fill="#38bdf8" opacity="0.85"/><text x="137.95920701486847" y="424.87849349872965" fill="#7c8aa5" font-size="9">Quality-Diversity through AI Feedback (QDAIF)</text>
</svg>