<svg xmlns="http://www.w3.org/2000/svg" viewBox="0 0 760 2930" font-family="ui-sans-serif,system-ui,Segoe UI,Roboto,sans-serif" role="img" aria-label="Capability evenness">
<rect width="760" height="2930" rx="14" fill="#0b1220"/>
<text x="28" y="30" fill="#cbd5e1" font-size="18" font-weight="700">Capability evenness — generalist ↔ specialist</text><text x="28" y="50" fill="#7c8aa5" font-size="12">normalized Shannon evenness of the 9-axis profile (1 = perfectly balanced generalist, 0 = single-axis specialist).</text><line x1="168" y1="56" x2="168" y2="2902" stroke="#27344d" stroke-width="0.7"/><text x="168" y="2920" fill="#7c8aa5" font-size="10" text-anchor="middle">0.0</text><line x1="275.2" y1="56" x2="275.2" y2="2902" stroke="#27344d" stroke-width="0.7"/><text x="275.2" y="2920" fill="#7c8aa5" font-size="10" text-anchor="middle">0.2</text><line x1="382.4" y1="56" x2="382.4" y2="2902" stroke="#27344d" stroke-width="0.7"/><text x="382.4" y="2920" fill="#7c8aa5" font-size="10" text-anchor="middle">0.4</text><line x1="489.59999999999997" y1="56" x2="489.59999999999997" y2="2902" stroke="#27344d" stroke-width="0.7"/><text x="489.59999999999997" y="2920" fill="#7c8aa5" font-size="10" text-anchor="middle">0.6</text><line x1="596.8" y1="56" x2="596.8" y2="2902" stroke="#27344d" stroke-width="0.7"/><text x="596.8" y="2920" fill="#7c8aa5" font-size="10" text-anchor="middle">0.8</text><line x1="704" y1="56" x2="704" y2="2902" stroke="#27344d" stroke-width="0.7"/><text x="704" y="2920" fill="#7c8aa5" font-size="10" text-anchor="middle">1.0</text><text x="158" y="79" fill="#f59e0b" font-size="11" font-weight="700" text-anchor="end">COSMOGONIC</text><rect x="168" y="68" width="532.248" height="14" rx="3" fill="#f59e0b" opacity="0.95"/><text x="706.248" y="79" fill="#f59e0b" font-size="10" font-weight="700">0.993</text><text x="158" y="101" fill="#cbd5e1" font-size="11" font-weight="400" text-anchor="end">Creatures</text><rect x="168" y="90" width="514.024" height="14" rx="3" fill="#38bdf8" opacity="0.7"/><text x="688.024" y="101" fill="#7c8aa5" font-size="10" font-weight="400">0.959</text><text x="158" y="123" fill="#cbd5e1" font-size="11" font-weight="400" text-anchor="end">ALIEN</text><rect x="168" y="112" width="514.024" height="14" rx="3" fill="#38bdf8" opacity="0.7"/><text x="688.024" y="123" fill="#7c8aa5" font-size="10" font-weight="400">0.959</text><text x="158" y="145" fill="#cbd5e1" font-size="11" font-weight="400" text-anchor="end">Framsticks</text><rect x="168" y="134" width="495.264" height="14" rx="3" fill="#38bdf8" opacity="0.7"/><text x="669.264" y="145" fill="#7c8aa5" font-size="10" font-weight="400">0.924</text><text x="158" y="167" fill="#cbd5e1" font-size="11" font-weight="400" text-anchor="end">Division Blocks</text><rect x="168" y="156" width="495.264" height="14" rx="3" fill="#38bdf8" opacity="0.7"/><text x="669.264" y="167" fill="#7c8aa5" font-size="10" font-weight="400">0.924</text><text x="158" y="189" fill="#cbd5e1" font-size="11" font-weight="400" text-anchor="end">Evolve 4.0</text><rect x="168" y="178" width="493.12" height="14" rx="3" fill="#38bdf8" opacity="0.7"/><text x="667.12" y="189" fill="#7c8aa5" font-size="10" font-weight="400">0.920</text><text x="158" y="211" fill="#cbd5e1" font-size="11" font-weight="400" text-anchor="end">Chromaria</text><rect x="168" y="200" width="493.12" height="14" rx="3" fill="#38bdf8" opacity="0.7"/><text x="667.12" y="211" fill="#7c8aa5" font-size="10" font-weight="400">0.920</text><text x="158" y="233" fill="#cbd5e1" font-size="11" font-weight="400" text-anchor="end">Polyworld</text><rect x="168" y="222" width="492.048" height="14" rx="3" fill="#38bdf8" opacity="0.7"/><text x="666.048" y="233" fill="#7c8aa5" font-size="10" font-weight="400">0.918</text><text x="158" y="255" fill="#cbd5e1" font-size="11" font-weight="400" text-anchor="end">Species: Artificial Life, Real Evolution</text><rect x="168" y="244" width="491.51199999999994" height="14" rx="3" fill="#38bdf8" opacity="0.7"/><text x="665.512" y="255" fill="#7c8aa5" font-size="10" font-weight="400">0.917</text><text x="158" y="277" fill="#cbd5e1" font-size="11" font-weight="400" text-anchor="end">The Bibites</text><rect x="168" y="266" width="491.51199999999994" height="14" rx="3" fill="#38bdf8" opacity="0.7"/><text x="665.512" y="277" fill="#7c8aa5" font-size="10" font-weight="400">0.917</text><text x="158" y="299" fill="#cbd5e1" font-size="11" font-weight="400" text-anchor="end">biosim4</text><rect x="168" y="288" width="490.44000000000005" height="14" rx="3" fill="#38bdf8" opacity="0.7"/><text x="664.44" y="299" fill="#7c8aa5" font-size="10" font-weight="400">0.915</text><text x="158" y="321" fill="#cbd5e1" font-size="11" font-weight="400" text-anchor="end">breve</text><rect x="168" y="310" width="488.29600000000005" height="14" rx="3" fill="#38bdf8" opacity="0.7"/><text x="662.296" y="321" fill="#7c8aa5" font-size="10" font-weight="400">0.911</text><text x="158" y="343" fill="#cbd5e1" font-size="11" font-weight="400" text-anchor="end">Minimal Criterion Coevolution (MCC)</text><rect x="168" y="332" width="486.688" height="14" rx="3" fill="#38bdf8" opacity="0.7"/><text x="660.688" y="343" fill="#7c8aa5" font-size="10" font-weight="400">0.908</text><text x="158" y="365" fill="#cbd5e1" font-size="11" font-weight="400" text-anchor="end">Karl Sims VC</text><rect x="168" y="354" width="486.15200000000004" height="14" rx="3" fill="#38bdf8" opacity="0.7"/><text x="660.152" y="365" fill="#7c8aa5" font-size="10" font-weight="400">0.907</text><text x="158" y="387" fill="#cbd5e1" font-size="11" font-weight="400" text-anchor="end">MABE</text><rect x="168" y="376" width="485.616" height="14" rx="3" fill="#38bdf8" opacity="0.7"/><text x="659.616" y="387" fill="#7c8aa5" font-size="10" font-weight="400">0.906</text><text x="158" y="409" fill="#cbd5e1" font-size="11" font-weight="400" text-anchor="end">ASAL</text><rect x="168" y="398" width="485.616" height="14" rx="3" fill="#38bdf8" opacity="0.7"/><text x="659.616" y="409" fill="#7c8aa5" font-size="10" font-weight="400">0.906</text><text x="158" y="431" fill="#cbd5e1" font-size="11" font-weight="400" text-anchor="end">Thrive</text><rect x="168" y="420" width="484.5440000000001" height="14" rx="3" fill="#38bdf8" opacity="0.7"/><text x="658.5440000000001" y="431" fill="#7c8aa5" font-size="10" font-weight="400">0.904</text><text x="158" y="453" fill="#cbd5e1" font-size="11" font-weight="400" text-anchor="end">Neural Graph Evolution (NGE)</text><rect x="168" y="442" width="483.472" height="14" rx="3" fill="#38bdf8" opacity="0.7"/><text x="657.472" y="453" fill="#7c8aa5" font-size="10" font-weight="400">0.902</text><text x="158" y="475" fill="#cbd5e1" font-size="11" font-weight="400" text-anchor="end">Picbreeder</text><rect x="168" y="464" width="482.93600000000004" height="14" rx="3" fill="#38bdf8" opacity="0.7"/><text x="656.936" y="475" fill="#7c8aa5" font-size="10" font-weight="400">0.901</text><text x="158" y="497" fill="#cbd5e1" font-size="11" font-weight="400" text-anchor="end">Evolution through Large Models (ELM)</text><rect x="168" y="486" width="481.328" height="14" rx="3" fill="#38bdf8" opacity="0.7"/><text x="655.328" y="497" fill="#7c8aa5" font-size="10" font-weight="400">0.898</text><text x="158" y="519" fill="#cbd5e1" font-size="11" font-weight="400" text-anchor="end">Krcah Evolved Virtual Creatures (ERO)</text><rect x="168" y="508" width="480.2560000000001" height="14" rx="3" fill="#38bdf8" opacity="0.7"/><text x="654.2560000000001" y="519" fill="#7c8aa5" font-size="10" font-weight="400">0.896</text><text x="158" y="541" fill="#cbd5e1" font-size="11" font-weight="400" text-anchor="end">Primer Evolution Simulations</text><rect x="168" y="530" width="480.2560000000001" height="14" rx="3" fill="#38bdf8" opacity="0.7"/><text x="654.2560000000001" y="541" fill="#7c8aa5" font-size="10" font-weight="400">0.896</text><text x="158" y="563" fill="#cbd5e1" font-size="11" font-weight="400" text-anchor="end">EndlessForms</text><rect x="168" y="552" width="479.18399999999997" height="14" rx="3" fill="#38bdf8" opacity="0.7"/><text x="653.184" y="563" fill="#7c8aa5" font-size="10" font-weight="400">0.894</text><text x="158" y="585" fill="#cbd5e1" font-size="11" font-weight="400" text-anchor="end">Sebastian Lague Ecosystem</text><rect x="168" y="574" width="479.18399999999997" height="14" rx="3" fill="#38bdf8" opacity="0.7"/><text x="653.184" y="585" fill="#7c8aa5" font-size="10" font-weight="400">0.894</text><text x="158" y="607" fill="#cbd5e1" font-size="11" font-weight="400" text-anchor="end">DERL (Deep Evolutionary Reinforcement Learning)</text><rect x="168" y="596" width="478.1120000000001" height="14" rx="3" fill="#38bdf8" opacity="0.7"/><text x="652.1120000000001" y="607" fill="#7c8aa5" font-size="10" font-weight="400">0.892</text><text x="158" y="629" fill="#cbd5e1" font-size="11" font-weight="400" text-anchor="end">RoboGrammar</text><rect x="168" y="618" width="478.1120000000001" height="14" rx="3" fill="#38bdf8" opacity="0.7"/><text x="652.1120000000001" y="629" fill="#7c8aa5" font-size="10" font-weight="400">0.892</text><text x="158" y="651" fill="#cbd5e1" font-size="11" font-weight="400" text-anchor="end">Transform2Act</text><rect x="168" y="640" width="478.1120000000001" height="14" rx="3" fill="#38bdf8" opacity="0.7"/><text x="652.1120000000001" y="651" fill="#7c8aa5" font-size="10" font-weight="400">0.892</text><text x="158" y="673" fill="#cbd5e1" font-size="11" font-weight="400" text-anchor="end">SimLife: The Genetic Playground</text><rect x="168" y="662" width="478.1120000000001" height="14" rx="3" fill="#38bdf8" opacity="0.7"/><text x="652.1120000000001" y="673" fill="#7c8aa5" font-size="10" font-weight="400">0.892</text><text x="158" y="695" fill="#cbd5e1" font-size="11" font-weight="400" text-anchor="end">UNIMAL (Universal Animal design space)</text><rect x="168" y="684" width="477.576" height="14" rx="3" fill="#38bdf8" opacity="0.7"/><text x="651.576" y="695" fill="#7c8aa5" font-size="10" font-weight="400">0.891</text><text x="158" y="717" fill="#cbd5e1" font-size="11" font-weight="400" text-anchor="end">Darwin Pond</text><rect x="168" y="706" width="477.03999999999996" height="14" rx="3" fill="#38bdf8" opacity="0.7"/><text x="651.04" y="717" fill="#7c8aa5" font-size="10" font-weight="400">0.890</text><text x="158" y="739" fill="#cbd5e1" font-size="11" font-weight="400" text-anchor="end">Gene Pool</text><rect x="168" y="728" width="477.03999999999996" height="14" rx="3" fill="#38bdf8" opacity="0.7"/><text x="651.04" y="739" fill="#7c8aa5" font-size="10" font-weight="400">0.890</text><text x="158" y="761" fill="#cbd5e1" font-size="11" font-weight="400" text-anchor="end">Flow Lenia</text><rect x="168" y="750" width="477.03999999999996" height="14" rx="3" fill="#38bdf8" opacity="0.7"/><text x="651.04" y="761" fill="#7c8aa5" font-size="10" font-weight="400">0.890</text><text x="158" y="783" fill="#cbd5e1" font-size="11" font-weight="400" text-anchor="end">3D Virtual Creature Evolution (3DVCE)</text><rect x="168" y="772" width="477.03999999999996" height="14" rx="3" fill="#38bdf8" opacity="0.7"/><text x="651.04" y="783" fill="#7c8aa5" font-size="10" font-weight="400">0.890</text><text x="158" y="805" fill="#cbd5e1" font-size="11" font-weight="400" text-anchor="end">MAP-Elites</text><rect x="168" y="794" width="477.03999999999996" height="14" rx="3" fill="#38bdf8" opacity="0.7"/><text x="651.04" y="805" fill="#7c8aa5" font-size="10" font-weight="400">0.890</text><text x="158" y="827" fill="#cbd5e1" font-size="11" font-weight="400" text-anchor="end">Quality-Diversity (illumination algorithms)</text><rect x="168" y="816" width="477.03999999999996" height="14" rx="3" fill="#38bdf8" opacity="0.7"/><text x="651.04" y="827" fill="#7c8aa5" font-size="10" font-weight="400">0.890</text><text x="158" y="849" fill="#cbd5e1" font-size="11" font-weight="400" text-anchor="end">Geb</text><rect x="168" y="838" width="476.504" height="14" rx="3" fill="#38bdf8" opacity="0.7"/><text x="650.504" y="849" fill="#7c8aa5" font-size="10" font-weight="400">0.889</text><text x="158" y="871" fill="#cbd5e1" font-size="11" font-weight="400" text-anchor="end">Sugarscape</text><rect x="168" y="860" width="475.9680000000001" height="14" rx="3" fill="#38bdf8" opacity="0.7"/><text x="649.9680000000001" y="871" fill="#7c8aa5" font-size="10" font-weight="400">0.888</text><text x="158" y="893" fill="#cbd5e1" font-size="11" font-weight="400" text-anchor="end">Swarm</text><rect x="168" y="882" width="475.9680000000001" height="14" rx="3" fill="#38bdf8" opacity="0.7"/><text x="649.9680000000001" y="893" fill="#7c8aa5" font-size="10" font-weight="400">0.888</text><text x="158" y="915" fill="#cbd5e1" font-size="11" font-weight="400" text-anchor="end">ES-HyperNEAT</text><rect x="168" y="904" width="475.9680000000001" height="14" rx="3" fill="#38bdf8" opacity="0.7"/><text x="649.9680000000001" y="915" fill="#7c8aa5" font-size="10" font-weight="400">0.888</text><text x="158" y="937" fill="#cbd5e1" font-size="11" font-weight="400" text-anchor="end">StarLogo</text><rect x="168" y="926" width="475.9680000000001" height="14" rx="3" fill="#38bdf8" opacity="0.7"/><text x="649.9680000000001" y="937" fill="#7c8aa5" font-size="10" font-weight="400">0.888</text><text x="158" y="959" fill="#cbd5e1" font-size="11" font-weight="400" text-anchor="end">HyperNEAT</text><rect x="168" y="948" width="474.36" height="14" rx="3" fill="#38bdf8" opacity="0.7"/><text x="648.36" y="959" fill="#7c8aa5" font-size="10" font-weight="400">0.885</text><text x="158" y="981" fill="#cbd5e1" font-size="11" font-weight="400" text-anchor="end">Keiwan Evolution</text><rect x="168" y="970" width="474.36" height="14" rx="3" fill="#38bdf8" opacity="0.7"/><text x="648.36" y="981" fill="#7c8aa5" font-size="10" font-weight="400">0.885</text><text x="158" y="1003" fill="#cbd5e1" font-size="11" font-weight="400" text-anchor="end">Echo</text><rect x="168" y="992" width="473.288" height="14" rx="3" fill="#38bdf8" opacity="0.7"/><text x="647.288" y="1003" fill="#7c8aa5" font-size="10" font-weight="400">0.883</text><text x="158" y="1025" fill="#cbd5e1" font-size="11" font-weight="400" text-anchor="end">Go-Explore</text><rect x="168" y="1014" width="473.288" height="14" rx="3" fill="#38bdf8" opacity="0.7"/><text x="647.288" y="1025" fill="#7c8aa5" font-size="10" font-weight="400">0.883</text><text x="158" y="1047" fill="#cbd5e1" font-size="11" font-weight="400" text-anchor="end">OpenELM</text><rect x="168" y="1036" width="473.288" height="14" rx="3" fill="#38bdf8" opacity="0.7"/><text x="647.288" y="1047" fill="#7c8aa5" font-size="10" font-weight="400">0.883</text><text x="158" y="1069" fill="#cbd5e1" font-size="11" font-weight="400" text-anchor="end">Innovation Engines</text><rect x="168" y="1058" width="472.75199999999995" height="14" rx="3" fill="#38bdf8" opacity="0.7"/><text x="646.752" y="1069" fill="#7c8aa5" font-size="10" font-weight="400">0.882</text><text x="158" y="1091" fill="#cbd5e1" font-size="11" font-weight="400" text-anchor="end">POET</text><rect x="168" y="1080" width="472.216" height="14" rx="3" fill="#38bdf8" opacity="0.7"/><text x="646.216" y="1091" fill="#7c8aa5" font-size="10" font-weight="400">0.881</text><text x="158" y="1113" fill="#cbd5e1" font-size="11" font-weight="400" text-anchor="end">OMNI (Open-endedness via Models of human Notions of Interestingness)</text><rect x="168" y="1102" width="472.216" height="14" rx="3" fill="#38bdf8" opacity="0.7"/><text x="646.216" y="1113" fill="#7c8aa5" font-size="10" font-weight="400">0.881</text><text x="158" y="1135" fill="#cbd5e1" font-size="11" font-weight="400" text-anchor="end">DevoWorm</text><rect x="168" y="1124" width="472.216" height="14" rx="3" fill="#38bdf8" opacity="0.7"/><text x="646.216" y="1135" fill="#7c8aa5" font-size="10" font-weight="400">0.881</text><text x="158" y="1157" fill="#cbd5e1" font-size="11" font-weight="400" text-anchor="end">EvoGym</text><rect x="168" y="1146" width="471.68000000000006" height="14" rx="3" fill="#38bdf8" opacity="0.7"/><text x="645.6800000000001" y="1157" fill="#7c8aa5" font-size="10" font-weight="400">0.880</text><text x="158" y="1179" fill="#cbd5e1" font-size="11" font-weight="400" text-anchor="end">Morphozoic</text><rect x="168" y="1168" width="471.68000000000006" height="14" rx="3" fill="#38bdf8" opacity="0.7"/><text x="645.6800000000001" y="1179" fill="#7c8aa5" font-size="10" font-weight="400">0.880</text><text x="158" y="1201" fill="#cbd5e1" font-size="11" font-weight="400" text-anchor="end">Sodarace / Soda Constructor</text><rect x="168" y="1190" width="471.68000000000006" height="14" rx="3" fill="#38bdf8" opacity="0.7"/><text x="645.6800000000001" y="1201" fill="#7c8aa5" font-size="10" font-weight="400">0.880</text><text x="158" y="1223" fill="#cbd5e1" font-size="11" font-weight="400" text-anchor="end">SimAnt: The Electric Ant Colony</text><rect x="168" y="1212" width="469.53600000000006" height="14" rx="3" fill="#38bdf8" opacity="0.7"/><text x="643.5360000000001" y="1223" fill="#7c8aa5" font-size="10" font-weight="400">0.876</text><text x="158" y="1245" fill="#cbd5e1" font-size="11" font-weight="400" text-anchor="end">Evolving Soft Robots (Cheney / Unshackling Evolution)</text><rect x="168" y="1234" width="469" height="14" rx="3" fill="#38bdf8" opacity="0.7"/><text x="643" y="1245" fill="#7c8aa5" font-size="10" font-weight="400">0.875</text><text x="158" y="1267" fill="#cbd5e1" font-size="11" font-weight="400" text-anchor="end">Novelty Search</text><rect x="168" y="1256" width="465.784" height="14" rx="3" fill="#38bdf8" opacity="0.7"/><text x="639.784" y="1267" fill="#7c8aa5" font-size="10" font-weight="400">0.869</text><text x="158" y="1289" fill="#cbd5e1" font-size="11" font-weight="400" text-anchor="end">MASON</text><rect x="168" y="1278" width="465.784" height="14" rx="3" fill="#38bdf8" opacity="0.7"/><text x="639.784" y="1289" fill="#7c8aa5" font-size="10" font-weight="400">0.869</text><text x="158" y="1311" fill="#cbd5e1" font-size="11" font-weight="400" text-anchor="end">OMNI-EPIC</text><rect x="168" y="1300" width="464.712" height="14" rx="3" fill="#38bdf8" opacity="0.7"/><text x="638.712" y="1311" fill="#7c8aa5" font-size="10" font-weight="400">0.867</text><text x="158" y="1333" fill="#cbd5e1" font-size="11" font-weight="400" text-anchor="end">GAMA Platform</text><rect x="168" y="1322" width="463.64" height="14" rx="3" fill="#38bdf8" opacity="0.7"/><text x="637.64" y="1333" fill="#7c8aa5" font-size="10" font-weight="400">0.865</text><text x="158" y="1355" fill="#cbd5e1" font-size="11" font-weight="400" text-anchor="end">Autopoietic Tessellation (Varela-Maturana-Uribe)</text><rect x="168" y="1344" width="460.96000000000004" height="14" rx="3" fill="#38bdf8" opacity="0.7"/><text x="634.96" y="1355" fill="#7c8aa5" font-size="10" font-weight="400">0.860</text><text x="158" y="1377" fill="#cbd5e1" font-size="11" font-weight="400" text-anchor="end">Primordial Particle Systems</text><rect x="168" y="1366" width="459.8879999999999" height="14" rx="3" fill="#38bdf8" opacity="0.7"/><text x="633.8879999999999" y="1377" fill="#7c8aa5" font-size="10" font-weight="400">0.858</text><text x="158" y="1399" fill="#cbd5e1" font-size="11" font-weight="400" text-anchor="end">Swarm Chemistry</text><rect x="168" y="1388" width="459.8879999999999" height="14" rx="3" fill="#38bdf8" opacity="0.7"/><text x="633.8879999999999" y="1399" fill="#7c8aa5" font-size="10" font-weight="400">0.858</text><text x="158" y="1421" fill="#cbd5e1" font-size="11" font-weight="400" text-anchor="end">Squirm3</text><rect x="168" y="1410" width="458.28" height="14" rx="3" fill="#38bdf8" opacity="0.7"/><text x="632.28" y="1421" fill="#7c8aa5" font-size="10" font-weight="400">0.855</text><text x="158" y="1443" fill="#cbd5e1" font-size="11" font-weight="400" text-anchor="end">Ascape</text><rect x="168" y="1432" width="457.7439999999999" height="14" rx="3" fill="#38bdf8" opacity="0.7"/><text x="631.7439999999999" y="1443" fill="#7c8aa5" font-size="10" font-weight="400">0.854</text><text x="158" y="1465" fill="#cbd5e1" font-size="11" font-weight="400" text-anchor="end">NEAT (NeuroEvolution of Augmenting Topologies)</text><rect x="168" y="1454" width="457.20799999999997" height="14" rx="3" fill="#38bdf8" opacity="0.7"/><text x="631.208" y="1465" fill="#7c8aa5" font-size="10" font-weight="400">0.853</text><text x="158" y="1487" fill="#cbd5e1" font-size="11" font-weight="400" text-anchor="end">Repast</text><rect x="168" y="1476" width="457.20799999999997" height="14" rx="3" fill="#38bdf8" opacity="0.7"/><text x="631.208" y="1487" fill="#7c8aa5" font-size="10" font-weight="400">0.853</text><text x="158" y="1509" fill="#cbd5e1" font-size="11" font-weight="400" text-anchor="end">Spore</text><rect x="168" y="1498" width="456.13599999999997" height="14" rx="3" fill="#38bdf8" opacity="0.7"/><text x="630.136" y="1509" fill="#7c8aa5" font-size="10" font-weight="400">0.851</text><text x="158" y="1531" fill="#cbd5e1" font-size="11" font-weight="400" text-anchor="end">SimEarth: The Living Planet</text><rect x="168" y="1520" width="454.528" height="14" rx="3" fill="#38bdf8" opacity="0.7"/><text x="628.528" y="1531" fill="#7c8aa5" font-size="10" font-weight="400">0.848</text><text x="158" y="1553" fill="#cbd5e1" font-size="11" font-weight="400" text-anchor="end">Cell Lab: Evolution Sandbox</text><rect x="168" y="1542" width="453.99199999999996" height="14" rx="3" fill="#38bdf8" opacity="0.7"/><text x="627.992" y="1553" fill="#7c8aa5" font-size="10" font-weight="400">0.847</text><text x="158" y="1575" fill="#cbd5e1" font-size="11" font-weight="400" text-anchor="end">Voyager (Minecraft LLM agent)</text><rect x="168" y="1564" width="453.99199999999996" height="14" rx="3" fill="#38bdf8" opacity="0.7"/><text x="627.992" y="1575" fill="#7c8aa5" font-size="10" font-weight="400">0.847</text><text x="158" y="1597" fill="#cbd5e1" font-size="11" font-weight="400" text-anchor="end">OpenWorm</text><rect x="168" y="1586" width="453.4559999999999" height="14" rx="3" fill="#38bdf8" opacity="0.7"/><text x="627.4559999999999" y="1597" fill="#7c8aa5" font-size="10" font-weight="400">0.846</text><text x="158" y="1619" fill="#cbd5e1" font-size="11" font-weight="400" text-anchor="end">Xenobots (reconfigurable organisms)</text><rect x="168" y="1608" width="452.384" height="14" rx="3" fill="#38bdf8" opacity="0.7"/><text x="626.384" y="1619" fill="#7c8aa5" font-size="10" font-weight="400">0.844</text><text x="158" y="1641" fill="#cbd5e1" font-size="11" font-weight="400" text-anchor="end">Genie (Generative Interactive Environments)</text><rect x="168" y="1630" width="451.312" height="14" rx="3" fill="#38bdf8" opacity="0.7"/><text x="625.312" y="1641" fill="#7c8aa5" font-size="10" font-weight="400">0.842</text><text x="158" y="1663" fill="#cbd5e1" font-size="11" font-weight="400" text-anchor="end">GOLEM (Genetically Organized Lifelike Electro Mechanics)</text><rect x="168" y="1652" width="450.77600000000007" height="14" rx="3" fill="#38bdf8" opacity="0.7"/><text x="624.7760000000001" y="1663" fill="#7c8aa5" font-size="10" font-weight="400">0.841</text><text x="158" y="1685" fill="#cbd5e1" font-size="11" font-weight="400" text-anchor="end">PhysiCell</text><rect x="168" y="1674" width="450.77600000000007" height="14" rx="3" fill="#38bdf8" opacity="0.7"/><text x="624.7760000000001" y="1685" fill="#7c8aa5" font-size="10" font-weight="400">0.841</text><text x="158" y="1707" fill="#cbd5e1" font-size="11" font-weight="400" text-anchor="end">OpenSteer</text><rect x="168" y="1696" width="450.24" height="14" rx="3" fill="#38bdf8" opacity="0.7"/><text x="624.24" y="1707" fill="#7c8aa5" font-size="10" font-weight="400">0.840</text><text x="158" y="1729" fill="#cbd5e1" font-size="11" font-weight="400" text-anchor="end">The Life Engine</text><rect x="168" y="1718" width="449.70399999999995" height="14" rx="3" fill="#38bdf8" opacity="0.7"/><text x="623.704" y="1729" fill="#7c8aa5" font-size="10" font-weight="400">0.839</text><text x="158" y="1751" fill="#cbd5e1" font-size="11" font-weight="400" text-anchor="end">Genesys/Tracker</text><rect x="168" y="1740" width="449.168" height="14" rx="3" fill="#38bdf8" opacity="0.7"/><text x="623.168" y="1751" fill="#7c8aa5" font-size="10" font-weight="400">0.838</text><text x="158" y="1773" fill="#cbd5e1" font-size="11" font-weight="400" text-anchor="end">NetLogo</text><rect x="168" y="1762" width="448.63200000000006" height="14" rx="3" fill="#38bdf8" opacity="0.7"/><text x="622.6320000000001" y="1773" fill="#7c8aa5" font-size="10" font-weight="400">0.837</text><text x="158" y="1795" fill="#cbd5e1" font-size="11" font-weight="400" text-anchor="end">Mesa</text><rect x="168" y="1784" width="448.63200000000006" height="14" rx="3" fill="#38bdf8" opacity="0.7"/><text x="622.6320000000001" y="1795" fill="#7c8aa5" font-size="10" font-weight="400">0.837</text><text x="158" y="1817" fill="#cbd5e1" font-size="11" font-weight="400" text-anchor="end">LIDA</text><rect x="168" y="1806" width="448.63200000000006" height="14" rx="3" fill="#38bdf8" opacity="0.7"/><text x="622.6320000000001" y="1817" fill="#7c8aa5" font-size="10" font-weight="400">0.837</text><text x="158" y="1839" fill="#cbd5e1" font-size="11" font-weight="400" text-anchor="end">Growing NCA</text><rect x="168" y="1828" width="448.096" height="14" rx="3" fill="#38bdf8" opacity="0.7"/><text x="622.096" y="1839" fill="#7c8aa5" font-size="10" font-weight="400">0.836</text><text x="158" y="1861" fill="#cbd5e1" font-size="11" font-weight="400" text-anchor="end">Neural MMO</text><rect x="168" y="1850" width="447.55999999999995" height="14" rx="3" fill="#38bdf8" opacity="0.7"/><text x="621.56" y="1861" fill="#7c8aa5" font-size="10" font-weight="400">0.835</text><text x="158" y="1883" fill="#cbd5e1" font-size="11" font-weight="400" text-anchor="end">Generative Agents (Smallville)</text><rect x="168" y="1872" width="444.34400000000005" height="14" rx="3" fill="#38bdf8" opacity="0.7"/><text x="618.344" y="1883" fill="#7c8aa5" font-size="10" font-weight="400">0.829</text><text x="158" y="1905" fill="#cbd5e1" font-size="11" font-weight="400" text-anchor="end">Particle Lenia</text><rect x="168" y="1894" width="443.27199999999993" height="14" rx="3" fill="#38bdf8" opacity="0.7"/><text x="617.2719999999999" y="1905" fill="#7c8aa5" font-size="10" font-weight="400">0.827</text><text x="158" y="1927" fill="#cbd5e1" font-size="11" font-weight="400" text-anchor="end">SmoothLife</text><rect x="168" y="1916" width="441.664" height="14" rx="3" fill="#38bdf8" opacity="0.7"/><text x="615.664" y="1927" fill="#7c8aa5" font-size="10" font-weight="400">0.824</text><text x="158" y="1949" fill="#cbd5e1" font-size="11" font-weight="400" text-anchor="end">Larger than Life</text><rect x="168" y="1938" width="441.664" height="14" rx="3" fill="#38bdf8" opacity="0.7"/><text x="615.664" y="1949" fill="#7c8aa5" font-size="10" font-weight="400">0.824</text><text x="158" y="1971" fill="#cbd5e1" font-size="11" font-weight="400" text-anchor="end">Core War</text><rect x="168" y="1960" width="441.12799999999993" height="14" rx="3" fill="#38bdf8" opacity="0.7"/><text x="615.1279999999999" y="1971" fill="#7c8aa5" font-size="10" font-weight="400">0.823</text><text x="158" y="1993" fill="#cbd5e1" font-size="11" font-weight="400" text-anchor="end">Pezzza's Ant Colony Simulation</text><rect x="168" y="1982" width="440.592" height="14" rx="3" fill="#38bdf8" opacity="0.7"/><text x="614.592" y="1993" fill="#7c8aa5" font-size="10" font-weight="400">0.822</text><text x="158" y="2015" fill="#cbd5e1" font-size="11" font-weight="400" text-anchor="end">Game of Life</text><rect x="168" y="2004" width="440.05600000000004" height="14" rx="3" fill="#38bdf8" opacity="0.7"/><text x="614.056" y="2015" fill="#7c8aa5" font-size="10" font-weight="400">0.821</text><text x="158" y="2037" fill="#cbd5e1" font-size="11" font-weight="400" text-anchor="end">Avida</text><rect x="168" y="2026" width="440.05600000000004" height="14" rx="3" fill="#38bdf8" opacity="0.7"/><text x="614.056" y="2037" fill="#7c8aa5" font-size="10" font-weight="400">0.821</text><text x="158" y="2059" fill="#cbd5e1" font-size="11" font-weight="400" text-anchor="end">Melting Pot</text><rect x="168" y="2048" width="440.05600000000004" height="14" rx="3" fill="#38bdf8" opacity="0.7"/><text x="614.056" y="2059" fill="#7c8aa5" font-size="10" font-weight="400">0.821</text><text x="158" y="2081" fill="#cbd5e1" font-size="11" font-weight="400" text-anchor="end">Craftax</text><rect x="168" y="2070" width="438.448" height="14" rx="3" fill="#38bdf8" opacity="0.7"/><text x="612.448" y="2081" fill="#7c8aa5" font-size="10" font-weight="400">0.818</text><text x="158" y="2103" fill="#cbd5e1" font-size="11" font-weight="400" text-anchor="end">Automated Design of Agentic Systems (ADAS)</text><rect x="168" y="2092" width="435.23199999999997" height="14" rx="3" fill="#38bdf8" opacity="0.7"/><text x="609.232" y="2103" fill="#7c8aa5" font-size="10" font-weight="400">0.812</text><text x="158" y="2125" fill="#cbd5e1" font-size="11" font-weight="400" text-anchor="end">Gray-Scott Reaction-Diffusion</text><rect x="168" y="2114" width="432.552" height="14" rx="3" fill="#38bdf8" opacity="0.7"/><text x="606.552" y="2125" fill="#7c8aa5" font-size="10" font-weight="400">0.807</text><text x="158" y="2147" fill="#cbd5e1" font-size="11" font-weight="400" text-anchor="end">The AI Scientist</text><rect x="168" y="2136" width="432.552" height="14" rx="3" fill="#38bdf8" opacity="0.7"/><text x="606.552" y="2147" fill="#7c8aa5" font-size="10" font-weight="400">0.807</text><text x="158" y="2169" fill="#cbd5e1" font-size="11" font-weight="400" text-anchor="end">NerveNet</text><rect x="168" y="2158" width="432.0160000000001" height="14" rx="3" fill="#38bdf8" opacity="0.7"/><text x="606.0160000000001" y="2169" fill="#7c8aa5" font-size="10" font-weight="400">0.806</text><text x="158" y="2191" fill="#cbd5e1" font-size="11" font-weight="400" text-anchor="end">Lenia</text><rect x="168" y="2180" width="431.48" height="14" rx="3" fill="#38bdf8" opacity="0.7"/><text x="605.48" y="2191" fill="#7c8aa5" font-size="10" font-weight="400">0.805</text><text x="158" y="2213" fill="#cbd5e1" font-size="11" font-weight="400" text-anchor="end">Darwin Godel Machine (DGM)</text><rect x="168" y="2202" width="429.87200000000007" height="14" rx="3" fill="#38bdf8" opacity="0.7"/><text x="603.8720000000001" y="2213" fill="#7c8aa5" font-size="10" font-weight="400">0.802</text><text x="158" y="2235" fill="#cbd5e1" font-size="11" font-weight="400" text-anchor="end">Tierra</text><rect x="168" y="2224" width="421.832" height="14" rx="3" fill="#38bdf8" opacity="0.7"/><text x="595.832" y="2235" fill="#7c8aa5" font-size="10" font-weight="400">0.787</text><text x="158" y="2257" fill="#cbd5e1" font-size="11" font-weight="400" text-anchor="end">Cosmos</text><rect x="168" y="2246" width="419.688" height="14" rx="3" fill="#38bdf8" opacity="0.7"/><text x="593.688" y="2257" fill="#7c8aa5" font-size="10" font-weight="400">0.783</text><text x="158" y="2279" fill="#cbd5e1" font-size="11" font-weight="400" text-anchor="end">Amoeba</text><rect x="168" y="2268" width="419.688" height="14" rx="3" fill="#38bdf8" opacity="0.7"/><text x="593.688" y="2279" fill="#7c8aa5" font-size="10" font-weight="400">0.783</text><text x="158" y="2301" fill="#cbd5e1" font-size="11" font-weight="400" text-anchor="end">Biomorphs</text><rect x="168" y="2290" width="418.08000000000004" height="14" rx="3" fill="#38bdf8" opacity="0.7"/><text x="592.08" y="2301" fill="#7c8aa5" font-size="10" font-weight="400">0.780</text><text x="158" y="2323" fill="#cbd5e1" font-size="11" font-weight="400" text-anchor="end">Physis</text><rect x="168" y="2312" width="417.00800000000004" height="14" rx="3" fill="#38bdf8" opacity="0.7"/><text x="591.008" y="2323" fill="#7c8aa5" font-size="10" font-weight="400">0.778</text><text x="158" y="2345" fill="#cbd5e1" font-size="11" font-weight="400" text-anchor="end">Chemlambda</text><rect x="168" y="2334" width="415.93600000000004" height="14" rx="3" fill="#38bdf8" opacity="0.7"/><text x="589.936" y="2345" fill="#7c8aa5" font-size="10" font-weight="400">0.776</text><text x="158" y="2367" fill="#cbd5e1" font-size="11" font-weight="400" text-anchor="end">Avida-ED</text><rect x="168" y="2356" width="414.86400000000003" height="14" rx="3" fill="#38bdf8" opacity="0.7"/><text x="588.864" y="2367" fill="#7c8aa5" font-size="10" font-weight="400">0.774</text><text x="158" y="2389" fill="#cbd5e1" font-size="11" font-weight="400" text-anchor="end">Promptbreeder</text><rect x="168" y="2378" width="414.328" height="14" rx="3" fill="#38bdf8" opacity="0.7"/><text x="588.328" y="2389" fill="#7c8aa5" font-size="10" font-weight="400">0.773</text><text x="158" y="2411" fill="#cbd5e1" font-size="11" font-weight="400" text-anchor="end">Quality-Diversity through AI Feedback (QDAIF)</text><rect x="168" y="2400" width="414.328" height="14" rx="3" fill="#38bdf8" opacity="0.7"/><text x="588.328" y="2411" fill="#7c8aa5" font-size="10" font-weight="400">0.773</text><text x="158" y="2433" fill="#cbd5e1" font-size="11" font-weight="400" text-anchor="end">AlChemy (algorithmic chemistry)</text><rect x="168" y="2422" width="414.328" height="14" rx="3" fill="#38bdf8" opacity="0.7"/><text x="588.328" y="2433" fill="#7c8aa5" font-size="10" font-weight="400">0.773</text><text x="158" y="2455" fill="#cbd5e1" font-size="11" font-weight="400" text-anchor="end">Network Tierra</text><rect x="168" y="2444" width="412.72" height="14" rx="3" fill="#38bdf8" opacity="0.7"/><text x="586.72" y="2455" fill="#7c8aa5" font-size="10" font-weight="400">0.770</text><text x="158" y="2477" fill="#cbd5e1" font-size="11" font-weight="400" text-anchor="end">Nanopond</text><rect x="168" y="2466" width="411.1120000000001" height="14" rx="3" fill="#38bdf8" opacity="0.7"/><text x="585.1120000000001" y="2477" fill="#7c8aa5" font-size="10" font-weight="400">0.767</text><text x="158" y="2499" fill="#cbd5e1" font-size="11" font-weight="400" text-anchor="end">Evoloop / SDSR Loop</text><rect x="168" y="2488" width="408.432" height="14" rx="3" fill="#38bdf8" opacity="0.7"/><text x="582.432" y="2499" fill="#7c8aa5" font-size="10" font-weight="400">0.762</text><text x="158" y="2521" fill="#cbd5e1" font-size="11" font-weight="400" text-anchor="end">Artificial Anasazi</text><rect x="168" y="2510" width="407.89599999999996" height="14" rx="3" fill="#38bdf8" opacity="0.7"/><text x="581.896" y="2521" fill="#7c8aa5" font-size="10" font-weight="400">0.761</text><text x="158" y="2543" fill="#cbd5e1" font-size="11" font-weight="400" text-anchor="end">El Farol Bar Problem</text><rect x="168" y="2532" width="405.216" height="14" rx="3" fill="#38bdf8" opacity="0.7"/><text x="579.216" y="2543" fill="#7c8aa5" font-size="10" font-weight="400">0.756</text><text x="158" y="2565" fill="#cbd5e1" font-size="11" font-weight="400" text-anchor="end">Stringmol</text><rect x="168" y="2554" width="401.46399999999994" height="14" rx="3" fill="#38bdf8" opacity="0.7"/><text x="575.4639999999999" y="2565" fill="#7c8aa5" font-size="10" font-weight="400">0.749</text><text x="158" y="2587" fill="#cbd5e1" font-size="11" font-weight="400" text-anchor="end">Aevol</text><rect x="168" y="2576" width="400.39200000000005" height="14" rx="3" fill="#38bdf8" opacity="0.7"/><text x="574.392" y="2587" fill="#7c8aa5" font-size="10" font-weight="400">0.747</text><text x="158" y="2609" fill="#cbd5e1" font-size="11" font-weight="400" text-anchor="end">Langton's Loops</text><rect x="168" y="2598" width="398.24800000000005" height="14" rx="3" fill="#38bdf8" opacity="0.7"/><text x="572.248" y="2609" fill="#7c8aa5" font-size="10" font-weight="400">0.743</text><text x="158" y="2631" fill="#cbd5e1" font-size="11" font-weight="400" text-anchor="end">Clusters (Particle Life)</text><rect x="168" y="2620" width="396.64" height="14" rx="3" fill="#38bdf8" opacity="0.7"/><text x="570.64" y="2631" fill="#7c8aa5" font-size="10" font-weight="400">0.740</text><text x="158" y="2653" fill="#cbd5e1" font-size="11" font-weight="400" text-anchor="end">Boids</text><rect x="168" y="2642" width="390.20799999999997" height="14" rx="3" fill="#38bdf8" opacity="0.7"/><text x="564.208" y="2653" fill="#7c8aa5" font-size="10" font-weight="400">0.728</text><text x="158" y="2675" fill="#cbd5e1" font-size="11" font-weight="400" text-anchor="end">Voxcraft-sim</text><rect x="168" y="2664" width="388.5999999999999" height="14" rx="3" fill="#38bdf8" opacity="0.7"/><text x="562.5999999999999" y="2675" fill="#7c8aa5" font-size="10" font-weight="400">0.725</text><text x="158" y="2697" fill="#cbd5e1" font-size="11" font-weight="400" text-anchor="end">Sandspiel</text><rect x="168" y="2686" width="386.99199999999996" height="14" rx="3" fill="#38bdf8" opacity="0.7"/><text x="560.992" y="2697" fill="#7c8aa5" font-size="10" font-weight="400">0.722</text><text x="158" y="2719" fill="#cbd5e1" font-size="11" font-weight="400" text-anchor="end">Voxelyze / VoxCAD</text><rect x="168" y="2708" width="385.91999999999996" height="14" rx="3" fill="#38bdf8" opacity="0.7"/><text x="559.92" y="2719" fill="#7c8aa5" font-size="10" font-weight="400">0.720</text><text x="158" y="2741" fill="#cbd5e1" font-size="11" font-weight="400" text-anchor="end">Noita</text><rect x="168" y="2730" width="370.91200000000003" height="14" rx="3" fill="#38bdf8" opacity="0.7"/><text x="544.912" y="2741" fill="#7c8aa5" font-size="10" font-weight="400">0.692</text><text x="158" y="2763" fill="#cbd5e1" font-size="11" font-weight="400" text-anchor="end">Schelling Segregation Model</text><rect x="168" y="2752" width="367.1600000000001" height="14" rx="3" fill="#38bdf8" opacity="0.7"/><text x="541.1600000000001" y="2763" fill="#7c8aa5" font-size="10" font-weight="400">0.685</text><text x="158" y="2785" fill="#cbd5e1" font-size="11" font-weight="400" text-anchor="end">The Powder Toy</text><rect x="168" y="2774" width="367.1600000000001" height="14" rx="3" fill="#38bdf8" opacity="0.7"/><text x="541.1600000000001" y="2785" fill="#7c8aa5" font-size="10" font-weight="400">0.685</text><text x="158" y="2807" fill="#cbd5e1" font-size="11" font-weight="400" text-anchor="end">von Neumann Universal Constructor</text><rect x="168" y="2796" width="358.58400000000006" height="14" rx="3" fill="#38bdf8" opacity="0.7"/><text x="532.5840000000001" y="2807" fill="#7c8aa5" font-size="10" font-weight="400">0.669</text><text x="158" y="2829" fill="#cbd5e1" font-size="11" font-weight="400" text-anchor="end">Wireworld</text><rect x="168" y="2818" width="324.28" height="14" rx="3" fill="#38bdf8" opacity="0.7"/><text x="498.28" y="2829" fill="#7c8aa5" font-size="10" font-weight="400">0.605</text><text x="158" y="2851" fill="#cbd5e1" font-size="11" font-weight="400" text-anchor="end">Langton's Ant</text><rect x="168" y="2840" width="324.28" height="14" rx="3" fill="#38bdf8" opacity="0.7"/><text x="498.28" y="2851" fill="#7c8aa5" font-size="10" font-weight="400">0.605</text><text x="158" y="2873" fill="#cbd5e1" font-size="11" font-weight="400" text-anchor="end">Rule 110</text><rect x="168" y="2862" width="324.28" height="14" rx="3" fill="#38bdf8" opacity="0.7"/><text x="498.28" y="2873" fill="#7c8aa5" font-size="10" font-weight="400">0.605</text><text x="158" y="2895" fill="#cbd5e1" font-size="11" font-weight="400" text-anchor="end">Conscious Turing Machine (CTM)</text><rect x="168" y="2884" width="285.15200000000004" height="14" rx="3" fill="#38bdf8" opacity="0.7"/><text x="459.15200000000004" y="2895" fill="#7c8aa5" font-size="10" font-weight="400">0.532</text>
</svg>