<svg xmlns="http://www.w3.org/2000/svg" viewBox="0 0 760 600" font-family="ui-sans-serif,system-ui,Segoe UI,Roboto,sans-serif" role="img" aria-label="PCA projection">
<rect width="760" height="600" rx="14" fill="#0b1220"/>
<text x="28" y="30" fill="#cbd5e1" font-size="18" font-weight="700">PCA of 113 A-Life systems (9-axis correlation-matrix eigenbasis)</text><text x="28" y="50" fill="#7c8aa5" font-size="12">PC1 24.9% var · PC2 21.8% var · together 46.7%. amber = this repo.</text><line x1="168.95833333333331" y1="70" x2="168.95833333333331" y2="540" stroke="#27344d" stroke-width="0.8"/><line x1="60" y1="318.54829123328386" x2="730" y2="318.54829123328386" stroke="#27344d" stroke-width="0.8"/><text x="730" y="544" fill="#7c8aa5" font-size="11" text-anchor="end">PC1 (generalist breadth →)</text><text x="54" y="62" fill="#7c8aa5" font-size="11">PC2</text><circle cx="730" cy="177.68796433878163" r="8" fill="#f59e0b"/><circle cx="730" cy="177.68796433878163" r="13" fill="none" stroke="#f59e0b" stroke-width="1.4" opacity="0.6"/><text x="718" y="165.68796433878163" fill="#f59e0b" font-size="11" font-weight="700" text-anchor="end">COSMOGONIC</text><circle cx="137.34375" cy="307.9331352154532" r="4.5" fill="#38bdf8" opacity="0.85"/><text x="144.34375" y="321.9331352154532" fill="#7c8aa5" font-size="9">Game of Life</text><circle cx="119.53125" cy="222.52303120356623" r="4.5" fill="#38bdf8" opacity="0.85"/><text x="126.53125" y="214.52303120356623" fill="#7c8aa5" font-size="9">Boids</text><circle cx="128.69791666666666" cy="247.5943536404161" r="4.5" fill="#38bdf8" opacity="0.85"/><text x="135.69791666666666" y="261.5943536404161" fill="#7c8aa5" font-size="9">Biomorphs</text><circle cx="114.47916666666666" cy="422.7444279346211" r="4.5" fill="#38bdf8" opacity="0.85"/><text x="121.47916666666666" y="414.7444279346211" fill="#7c8aa5" font-size="9">Core War</text><circle cx="121.5625" cy="454.8692421991085" r="4.5" fill="#38bdf8" opacity="0.85"/><text x="128.5625" y="468.8692421991085" fill="#7c8aa5" font-size="9">Tierra</text><circle cx="148.64583333333331" cy="462.34175334323925" r="4.5" fill="#38bdf8" opacity="0.85"/><text x="155.64583333333331" y="454.34175334323925" fill="#7c8aa5" font-size="9">Avida</text><circle cx="242.81249999999997" cy="369.8083209509658" r="4.5" fill="#38bdf8" opacity="0.85"/><text x="249.81249999999997" y="383.8083209509658" fill="#7c8aa5" font-size="9">Polyworld</text><circle cx="270.46875" cy="348.7176820208024" r="4.5" fill="#38bdf8" opacity="0.85"/><text x="277.46875" y="340.7176820208024" fill="#7c8aa5" font-size="9">Framsticks</text><circle cx="227.03124999999997" cy="273.0846953937593" r="4.5" fill="#38bdf8" opacity="0.85"/><text x="234.03124999999997" y="287.0846953937593" fill="#7c8aa5" font-size="9">Karl Sims VC</text><circle cx="372.8645833333333" cy="289.49628528974745" r="4.5" fill="#38bdf8" opacity="0.85"/><text x="379.8645833333333" y="281.49628528974745" fill="#7c8aa5" font-size="9">Creatures</text><circle cx="190.83333333333334" cy="301.368499257058" r="4.5" fill="#38bdf8" opacity="0.85"/><text x="197.83333333333334" y="315.368499257058" fill="#7c8aa5" font-size="9">Darwin Pond</text><circle cx="208.85416666666666" cy="306.18722139673105" r="4.5" fill="#38bdf8" opacity="0.85"/><text x="215.85416666666666" y="298.18722139673105" fill="#7c8aa5" font-size="9">Gene Pool</text><circle cx="156.45833333333334" cy="416.0401188707281" r="4.5" fill="#38bdf8" opacity="0.85"/><text x="163.45833333333334" y="430.0401188707281" fill="#7c8aa5" font-size="9">Sugarscape</text><circle cx="139.79166666666666" cy="431.962852897474" r="4.5" fill="#38bdf8" opacity="0.85"/><text x="146.79166666666666" y="423.962852897474" fill="#7c8aa5" font-size="9">Echo</text><circle cx="147.5" cy="388.6641901931649" r="4.5" fill="#38bdf8" opacity="0.85"/><text x="154.5" y="402.6641901931649" fill="#7c8aa5" font-size="9">Swarm</text><circle cx="207.1875" cy="279.78900445765237" r="4.5" fill="#38bdf8" opacity="0.85"/><text x="214.1875" y="271.78900445765237" fill="#7c8aa5" font-size="9">breve</text><circle cx="221.09375" cy="319.03714710252603" r="4.5" fill="#38bdf8" opacity="0.85"/><text x="228.09375" y="333.03714710252603" fill="#7c8aa5" font-size="9">Picbreeder</text><circle cx="190.05208333333331" cy="467.7890044576523" r="4.5" fill="#38bdf8" opacity="0.85"/><text x="197.05208333333331" y="459.7890044576523" fill="#7c8aa5" font-size="9">MABE</text><circle cx="164.63541666666663" cy="185.36998514115908" r="4.5" fill="#38bdf8" opacity="0.85"/><text x="171.63541666666663" y="199.36998514115908" fill="#7c8aa5" font-size="9">Lenia</text><circle cx="206.71875" cy="221.6151560178307" r="4.5" fill="#38bdf8" opacity="0.85"/><text x="213.71875" y="213.6151560178307" fill="#7c8aa5" font-size="9">Growing NCA</text><circle cx="395.93749999999994" cy="166.86329866270432" r="4.5" fill="#38bdf8" opacity="0.85"/><text x="402.93749999999994" y="180.86329866270432" fill="#7c8aa5" font-size="9">OpenWorm</text><circle cx="187.96875" cy="445.6508172362556" r="4.5" fill="#38bdf8" opacity="0.85"/><text x="194.96875" y="437.6508172362556" fill="#7c8aa5" font-size="9">POET</text><circle cx="204.0625" cy="322.5988112927192" r="4.5" fill="#38bdf8" opacity="0.85"/><text x="211.0625" y="336.5988112927192" fill="#7c8aa5" font-size="9">EvoGym</text><circle cx="413.1770833333333" cy="248.78157503714715" r="4.5" fill="#38bdf8" opacity="0.85"/><text x="420.1770833333333" y="240.78157503714715" fill="#7c8aa5" font-size="9">ALIEN</text><circle cx="272.8125" cy="334.47102526002976" r="4.5" fill="#38bdf8" opacity="0.85"/><text x="279.8125" y="348.47102526002976" fill="#7c8aa5" font-size="9">ASAL</text><circle cx="60" cy="227.5512630014859" r="4.5" fill="#38bdf8" opacity="0.85"/><text x="67" y="219.5512630014859" fill="#7c8aa5" font-size="9">Wireworld</text><circle cx="60" cy="227.5512630014859" r="4.5" fill="#38bdf8" opacity="0.85"/><text x="67" y="241.5512630014859" fill="#7c8aa5" font-size="9">Langton's Ant</text><circle cx="91.51041666666666" cy="261.98068350668655" r="4.5" fill="#38bdf8" opacity="0.85"/><text x="98.51041666666666" y="253.98068350668655" fill="#7c8aa5" font-size="9">Langton's Loops</text><circle cx="78.33333333333334" cy="288.23922734026746" r="4.5" fill="#38bdf8" opacity="0.85"/><text x="85.33333333333334" y="302.23922734026746" fill="#7c8aa5" font-size="9">von Neumann Universal Constructor</text><circle cx="60" cy="227.5512630014859" r="4.5" fill="#38bdf8" opacity="0.85"/><text x="67" y="219.5512630014859" fill="#7c8aa5" font-size="9">Rule 110</text><circle cx="127.5" cy="176.91976225854387" r="4.5" fill="#38bdf8" opacity="0.85"/><text x="134.5" y="190.91976225854387" fill="#7c8aa5" font-size="9">SmoothLife</text><circle cx="127.5" cy="176.91976225854387" r="4.5" fill="#38bdf8" opacity="0.85"/><text x="134.5" y="168.91976225854387" fill="#7c8aa5" font-size="9">Larger than Life</text><circle cx="195.10416666666666" cy="251.15601783060924" r="4.5" fill="#38bdf8" opacity="0.85"/><text x="202.10416666666666" y="265.15601783060924" fill="#7c8aa5" font-size="9">Flow Lenia</text><circle cx="156.97916666666666" cy="201.50222882615162" r="4.5" fill="#38bdf8" opacity="0.85"/><text x="163.97916666666666" y="193.50222882615162" fill="#7c8aa5" font-size="9">Particle Lenia</text><circle cx="151.51041666666669" cy="240.26151560178306" r="4.5" fill="#38bdf8" opacity="0.85"/><text x="158.51041666666669" y="254.26151560178306" fill="#7c8aa5" font-size="9">Primordial Particle Systems</text><circle cx="127.86458333333333" cy="176.221396731055" r="4.5" fill="#38bdf8" opacity="0.85"/><text x="134.86458333333331" y="168.221396731055" fill="#7c8aa5" font-size="9">Gray-Scott Reaction-Diffusion</text><circle cx="123.28125" cy="410.8722139673106" r="4.5" fill="#38bdf8" opacity="0.85"/><text x="130.28125" y="424.8722139673106" fill="#7c8aa5" font-size="9">Aevol</text><circle cx="147.29166666666669" cy="414.99257057949484" r="4.5" fill="#38bdf8" opacity="0.85"/><text x="154.29166666666669" y="406.99257057949484" fill="#7c8aa5" font-size="9">Avida-ED</text><circle cx="108.85416666666667" cy="366.38632986627044" r="4.5" fill="#38bdf8" opacity="0.85"/><text x="115.85416666666667" y="380.38632986627044" fill="#7c8aa5" font-size="9">Nanopond</text><circle cx="101.09375" cy="347.0416047548291" r="4.5" fill="#38bdf8" opacity="0.85"/><text x="108.09375" y="339.0416047548291" fill="#7c8aa5" font-size="9">Physis</text><circle cx="112.70833333333333" cy="376.0936106983655" r="4.5" fill="#38bdf8" opacity="0.85"/><text x="119.70833333333333" y="390.0936106983655" fill="#7c8aa5" font-size="9">Cosmos</text><circle cx="197.44791666666669" cy="511.1575037147103" r="4.5" fill="#38bdf8" opacity="0.85"/><text x="204.44791666666669" y="503.1575037147103" fill="#7c8aa5" font-size="9">Geb</text><circle cx="112.70833333333333" cy="376.0936106983655" r="4.5" fill="#38bdf8" opacity="0.85"/><text x="119.70833333333333" y="390.0936106983655" fill="#7c8aa5" font-size="9">Amoeba</text><circle cx="169.89583333333331" cy="347.94947994056463" r="4.5" fill="#38bdf8" opacity="0.85"/><text x="176.89583333333331" y="339.94947994056463" fill="#7c8aa5" font-size="9">Evolve 4.0</text><circle cx="143.38541666666666" cy="280.90638930163453" r="4.5" fill="#38bdf8" opacity="0.85"/><text x="150.38541666666666" y="294.90638930163453" fill="#7c8aa5" font-size="9">Squirm3</text><circle cx="120.41666666666667" cy="395.43833580980686" r="4.5" fill="#38bdf8" opacity="0.85"/><text x="127.41666666666667" y="387.43833580980686" fill="#7c8aa5" font-size="9">Network Tierra</text><circle cx="181.875" cy="364.01188707280835" r="4.5" fill="#38bdf8" opacity="0.85"/><text x="188.875" y="378.01188707280835" fill="#7c8aa5" font-size="9">biosim4</text><circle cx="181.71875" cy="282.0936106983656" r="4.5" fill="#38bdf8" opacity="0.85"/><text x="188.71875" y="274.0936106983656" fill="#7c8aa5" font-size="9">GOLEM (Genetically Organized Lifelike Electro Mechanics)</text><circle cx="145" cy="202.89895988112931" r="4.5" fill="#38bdf8" opacity="0.85"/><text x="152" y="216.89895988112931" fill="#7c8aa5" font-size="9">Voxelyze / VoxCAD</text><circle cx="205.67708333333334" cy="273.92273402674596" r="4.5" fill="#38bdf8" opacity="0.85"/><text x="212.67708333333334" y="265.92273402674596" fill="#7c8aa5" font-size="9">3D Virtual Creature Evolution (3DVCE)</text><circle cx="236.04166666666663" cy="386.77860326894506" r="4.5" fill="#38bdf8" opacity="0.85"/><text x="243.04166666666663" y="400.77860326894506" fill="#7c8aa5" font-size="9">DERL (Deep Evolutionary Reinforcement Learning)</text><circle cx="231.40625" cy="371.7637444279346" r="4.5" fill="#38bdf8" opacity="0.85"/><text x="238.40625" y="363.7637444279346" fill="#7c8aa5" font-size="9">UNIMAL (Universal Animal design space)</text><circle cx="191.14583333333334" cy="265.1931649331353" r="4.5" fill="#38bdf8" opacity="0.85"/><text x="198.14583333333334" y="279.1931649331353" fill="#7c8aa5" font-size="9">Evolving Soft Robots (Cheney / Unshackling Evolution)</text><circle cx="203.64583333333331" cy="323.29717682020805" r="4.5" fill="#38bdf8" opacity="0.85"/><text x="210.64583333333331" y="315.29717682020805" fill="#7c8aa5" font-size="9">RoboGrammar</text><circle cx="202.39583333333331" cy="388.8038632986627" r="4.5" fill="#38bdf8" opacity="0.85"/><text x="209.39583333333331" y="402.8038632986627" fill="#7c8aa5" font-size="9">Transform2Act</text><circle cx="161.35416666666666" cy="304.7206537890045" r="4.5" fill="#38bdf8" opacity="0.85"/><text x="168.35416666666666" y="296.7206537890045" fill="#7c8aa5" font-size="9">NerveNet</text><circle cx="205.3125" cy="357.1679049034176" r="4.5" fill="#38bdf8" opacity="0.85"/><text x="212.3125" y="371.1679049034176" fill="#7c8aa5" font-size="9">Neural Graph Evolution (NGE)</text><circle cx="165.52083333333334" cy="273.5037147102526" r="4.5" fill="#38bdf8" opacity="0.85"/><text x="172.52083333333334" y="265.5037147102526" fill="#7c8aa5" font-size="9">Krcah Evolved Virtual Creatures (ERO)</text><circle cx="166.875" cy="492.3016344725112" r="4.5" fill="#38bdf8" opacity="0.85"/><text x="173.875" y="506.3016344725112" fill="#7c8aa5" font-size="9">NEAT (NeuroEvolution of Augmenting Topologies)</text><circle cx="187.34375" cy="450.5393759286776" r="4.5" fill="#38bdf8" opacity="0.85"/><text x="194.34375" y="442.5393759286776" fill="#7c8aa5" font-size="9">HyperNEAT</text><circle cx="178.80208333333334" cy="425.7473997028232" r="4.5" fill="#38bdf8" opacity="0.85"/><text x="185.80208333333334" y="439.7473997028232" fill="#7c8aa5" font-size="9">ES-HyperNEAT</text><circle cx="177.65625" cy="499.5646359583953" r="4.5" fill="#38bdf8" opacity="0.85"/><text x="184.65625" y="491.5646359583953" fill="#7c8aa5" font-size="9">Novelty Search</text><circle cx="198.54166666666669" cy="457.10401188707283" r="4.5" fill="#38bdf8" opacity="0.85"/><text x="205.54166666666669" y="471.10401188707283" fill="#7c8aa5" font-size="9">MAP-Elites</text><circle cx="198.54166666666669" cy="457.10401188707283" r="4.5" fill="#38bdf8" opacity="0.85"/><text x="205.54166666666669" y="449.10401188707283" fill="#7c8aa5" font-size="9">Quality-Diversity (illumination algorithms)</text><circle cx="178.38541666666669" cy="360.58989598811297" r="4.5" fill="#38bdf8" opacity="0.85"/><text x="185.38541666666669" y="374.58989598811297" fill="#7c8aa5" font-size="9">Go-Explore</text><circle cx="187.96875" cy="445.6508172362556" r="4.5" fill="#38bdf8" opacity="0.85"/><text x="194.96875" y="437.6508172362556" fill="#7c8aa5" font-size="9">OMNI (Open-endedness via Models of human Notions of Interestingness)</text><circle cx="185" cy="453.5423476968797" r="4.5" fill="#38bdf8" opacity="0.85"/><text x="192" y="467.5423476968797" fill="#7c8aa5" font-size="9">Minimal Criterion Coevolution (MCC)</text><circle cx="179.53125" cy="371.4843982169391" r="4.5" fill="#38bdf8" opacity="0.85"/><text x="186.53125" y="363.4843982169391" fill="#7c8aa5" font-size="9">Innovation Engines</text><circle cx="172.39583333333331" cy="293.8959881129272" r="4.5" fill="#38bdf8" opacity="0.85"/><text x="179.39583333333331" y="307.8959881129272" fill="#7c8aa5" font-size="9">EndlessForms</text><circle cx="134.53125" cy="308.98068350668655" r="4.5" fill="#38bdf8" opacity="0.85"/><text x="141.53125" y="300.98068350668655" fill="#7c8aa5" font-size="9">NetLogo</text><circle cx="156.77083333333334" cy="313.8692421991085" r="4.5" fill="#38bdf8" opacity="0.85"/><text x="163.77083333333334" y="327.8692421991085" fill="#7c8aa5" font-size="9">MASON</text><circle cx="146.04166666666669" cy="325.67161961367015" r="4.5" fill="#38bdf8" opacity="0.85"/><text x="153.04166666666669" y="317.67161961367015" fill="#7c8aa5" font-size="9">Repast</text><circle cx="104.63541666666666" cy="285.0965824665676" r="4.5" fill="#38bdf8" opacity="0.85"/><text x="111.63541666666666" y="299.0965824665676" fill="#7c8aa5" font-size="9">StarLogo</text><circle cx="116.19791666666667" cy="314.07875185735514" r="4.5" fill="#38bdf8" opacity="0.85"/><text x="123.19791666666667" y="306.07875185735514" fill="#7c8aa5" font-size="9">Ascape</text><circle cx="166.51041666666666" cy="283.90936106983656" r="4.5" fill="#38bdf8" opacity="0.85"/><text x="173.51041666666666" y="297.90936106983656" fill="#7c8aa5" font-size="9">GAMA Platform</text><circle cx="134.53125" cy="308.98068350668655" r="4.5" fill="#38bdf8" opacity="0.85"/><text x="141.53125" y="300.98068350668655" fill="#7c8aa5" font-size="9">Mesa</text><circle cx="119.47916666666667" cy="187.3952451708767" r="4.5" fill="#38bdf8" opacity="0.85"/><text x="126.47916666666667" y="201.3952451708767" fill="#7c8aa5" font-size="9">OpenSteer</text><circle cx="98.17708333333334" cy="282.65230312035663" r="4.5" fill="#38bdf8" opacity="0.85"/><text x="105.17708333333334" y="274.65230312035663" fill="#7c8aa5" font-size="9">Artificial Anasazi</text><circle cx="80.26041666666667" cy="227.90044576523036" r="4.5" fill="#38bdf8" opacity="0.85"/><text x="87.26041666666667" y="241.90044576523036" fill="#7c8aa5" font-size="9">Schelling Segregation Model</text><circle cx="102.55208333333334" cy="345.295690936107" r="4.5" fill="#38bdf8" opacity="0.85"/><text x="109.55208333333334" y="337.295690936107" fill="#7c8aa5" font-size="9">El Farol Bar Problem</text><circle cx="153.95833333333331" cy="131.45616641901938" r="4.5" fill="#38bdf8" opacity="0.85"/><text x="160.95833333333331" y="145.45616641901938" fill="#7c8aa5" font-size="9">Spore</text><circle cx="116.61458333333334" cy="320.0846953937593" r="4.5" fill="#38bdf8" opacity="0.85"/><text x="123.61458333333334" y="312.0846953937593" fill="#7c8aa5" font-size="9">SimLife: The Genetic Playground</text><circle cx="92.65625" cy="269.03417533432395" r="4.5" fill="#38bdf8" opacity="0.85"/><text x="99.65625" y="283.03417533432395" fill="#7c8aa5" font-size="9">SimEarth: The Living Planet</text><circle cx="99.11458333333334" cy="264.63447251114417" r="4.5" fill="#38bdf8" opacity="0.85"/><text x="106.11458333333334" y="256.63447251114417" fill="#7c8aa5" font-size="9">SimAnt: The Electric Ant Colony</text><circle cx="157.96875" cy="242.7057949479941" r="4.5" fill="#38bdf8" opacity="0.85"/><text x="164.96875" y="256.7057949479941" fill="#7c8aa5" font-size="9">Thrive</text><circle cx="158.33333333333331" cy="218.68202080237745" r="4.5" fill="#38bdf8" opacity="0.85"/><text x="165.33333333333331" y="210.68202080237745" fill="#7c8aa5" font-size="9">Cell Lab: Evolution Sandbox</text><circle cx="190.41666666666666" cy="318.4784546805349" r="4.5" fill="#38bdf8" opacity="0.85"/><text x="197.41666666666666" y="332.4784546805349" fill="#7c8aa5" font-size="9">Species: Artificial Life, Real Evolution</text><circle cx="193.07291666666666" cy="393.7622585438336" r="4.5" fill="#38bdf8" opacity="0.85"/><text x="200.07291666666666" y="385.7622585438336" fill="#7c8aa5" font-size="9">The Bibites</text><circle cx="101.82291666666667" cy="162.11441307578013" r="4.5" fill="#38bdf8" opacity="0.85"/><text x="108.82291666666667" y="176.11441307578013" fill="#7c8aa5" font-size="9">The Powder Toy</text><circle cx="126.5625" cy="70" r="4.5" fill="#38bdf8" opacity="0.85"/><text x="133.5625" y="62" fill="#7c8aa5" font-size="9">Noita</text><circle cx="124.63541666666667" cy="309.6092124814264" r="4.5" fill="#38bdf8" opacity="0.85"/><text x="131.63541666666669" y="323.6092124814264" fill="#7c8aa5" font-size="9">The Life Engine</text><circle cx="116.35416666666666" cy="123.42496285289747" r="4.5" fill="#38bdf8" opacity="0.85"/><text x="123.35416666666666" y="115.42496285289747" fill="#7c8aa5" font-size="9">Clusters (Particle Life)</text><circle cx="124.42708333333333" cy="106.5943536404161" r="4.5" fill="#38bdf8" opacity="0.85"/><text x="131.42708333333331" y="120.5943536404161" fill="#7c8aa5" font-size="9">Sandspiel</text><circle cx="162.23958333333331" cy="251.57503714710253" r="4.5" fill="#38bdf8" opacity="0.85"/><text x="169.23958333333331" y="243.57503714710253" fill="#7c8aa5" font-size="9">Sebastian Lague Ecosystem</text><circle cx="132.29166666666669" cy="161.76523031203567" r="4.5" fill="#38bdf8" opacity="0.85"/><text x="139.29166666666669" y="175.76523031203567" fill="#7c8aa5" font-size="9">Pezzza's Ant Colony Simulation</text><circle cx="148.48958333333331" cy="259.11738484398217" r="4.5" fill="#38bdf8" opacity="0.85"/><text x="155.48958333333331" y="251.11738484398217" fill="#7c8aa5" font-size="9">Primer Evolution Simulations</text><circle cx="197.5" cy="248.50222882615162" r="4.5" fill="#38bdf8" opacity="0.85"/><text x="204.5" y="262.5022288261516" fill="#7c8aa5" font-size="9">Keiwan Evolution</text><circle cx="216.82291666666666" cy="259.60624071322445" r="4.5" fill="#38bdf8" opacity="0.85"/><text x="223.82291666666666" y="251.60624071322445" fill="#7c8aa5" font-size="9">DevoWorm</text><circle cx="129.63541666666669" cy="222.87221396731053" r="4.5" fill="#38bdf8" opacity="0.85"/><text x="136.63541666666669" y="236.87221396731053" fill="#7c8aa5" font-size="9">Morphozoic</text><circle cx="170.36458333333334" cy="366.38632986627044" r="4.5" fill="#38bdf8" opacity="0.85"/><text x="177.36458333333334" y="358.38632986627044" fill="#7c8aa5" font-size="9">Chromaria</text><circle cx="199.84375" cy="348.9970282317979" r="4.5" fill="#38bdf8" opacity="0.85"/><text x="206.84375" y="362.9970282317979" fill="#7c8aa5" font-size="9">Division Blocks</text><circle cx="184.89583333333334" cy="375.3254086181278" r="4.5" fill="#38bdf8" opacity="0.85"/><text x="191.89583333333334" y="367.3254086181278" fill="#7c8aa5" font-size="9">Voyager (Minecraft LLM agent)</text><circle cx="164.01041666666669" cy="344.8068350668648" r="4.5" fill="#38bdf8" opacity="0.85"/><text x="171.01041666666669" y="358.8068350668648" fill="#7c8aa5" font-size="9">Generative Agents (Smallville)</text><circle cx="206.30208333333334" cy="417.71619613670134" r="4.5" fill="#38bdf8" opacity="0.85"/><text x="213.30208333333334" y="409.71619613670134" fill="#7c8aa5" font-size="9">OMNI-EPIC</text><circle cx="174.0625" cy="262.3298662704309" r="4.5" fill="#38bdf8" opacity="0.85"/><text x="181.0625" y="276.3298662704309" fill="#7c8aa5" font-size="9">Genie (Generative Interactive Environments)</text><circle cx="192.13541666666666" cy="395.7875185735513" r="4.5" fill="#38bdf8" opacity="0.85"/><text x="199.13541666666666" y="387.7875185735513" fill="#7c8aa5" font-size="9">Evolution through Large Models (ELM)</text><circle cx="164.84375" cy="459.1292719167905" r="4.5" fill="#38bdf8" opacity="0.85"/><text x="171.84375" y="473.1292719167905" fill="#7c8aa5" font-size="9">OpenELM</text><circle cx="155" cy="499.5646359583953" r="4.5" fill="#38bdf8" opacity="0.85"/><text x="162" y="491.5646359583953" fill="#7c8aa5" font-size="9">Automated Design of Agentic Systems (ADAS)</text><circle cx="155.36458333333331" cy="439.6448736998514" r="4.5" fill="#38bdf8" opacity="0.85"/><text x="162.36458333333331" y="453.6448736998514" fill="#7c8aa5" font-size="9">The AI Scientist</text><circle cx="167.8125" cy="540" r="4.5" fill="#38bdf8" opacity="0.85"/><text x="174.8125" y="532" fill="#7c8aa5" font-size="9">Darwin Godel Machine (DGM)</text><circle cx="115.57291666666667" cy="402.8410104011887" r="4.5" fill="#38bdf8" opacity="0.85"/><text x="122.57291666666667" y="416.8410104011887" fill="#7c8aa5" font-size="9">Promptbreeder</text><circle cx="123.69791666666666" cy="428.33135215453194" r="4.5" fill="#38bdf8" opacity="0.85"/><text x="130.69791666666666" y="420.33135215453194" fill="#7c8aa5" font-size="9">Quality-Diversity through AI Feedback (QDAIF)</text>
</svg>