<svg xmlns="http://www.w3.org/2000/svg" viewBox="0 0 760 2580" font-family="ui-sans-serif,system-ui,Segoe UI,Roboto,sans-serif" role="img" aria-label="Dendrogram">
<rect width="760" height="2580" rx="14" fill="#0b1220"/>
<text x="28" y="30" fill="#cbd5e1" font-size="18" font-weight="700">Capability dendrogram (average-linkage, Euclidean 9-axis)</text><text x="28" y="50" fill="#7c8aa5" font-size="12">leaves grouped by capability-shape similarity; join depth = merge distance.</text><text x="598" y="84" fill="#f59e0b" font-size="10" font-weight="700">COSMOGONIC</text><text x="598" y="106" fill="#cbd5e1" font-size="10" font-weight="400">OpenWorm</text><text x="598" y="128" fill="#cbd5e1" font-size="10" font-weight="400">NerveNet</text><path d="M293.2237365401696 103 H590" stroke="#34d399" stroke-width="1.3" fill="none" opacity="0.85"/><path d="M293.2237365401696 125 H590" stroke="#34d399" stroke-width="1.3" fill="none" opacity="0.85"/><path d="M293.2237365401696 103 V125" stroke="#34d399" stroke-width="1.3" fill="none" opacity="0.85"/><text x="598" y="150" fill="#cbd5e1" font-size="10" font-weight="400">The AI Scientist</text><text x="598" y="172" fill="#cbd5e1" font-size="10" font-weight="400">POET</text><text x="598" y="194" fill="#cbd5e1" font-size="10" font-weight="400">OMNI (Open-endedness via Models of human Notions of Interestingness)</text><path d="M590 169 H590" stroke="#34d399" stroke-width="1.3" fill="none" opacity="0.85"/><path d="M590 191 H590" stroke="#34d399" stroke-width="1.3" fill="none" opacity="0.85"/><path d="M590 169 V191" stroke="#34d399" stroke-width="1.3" fill="none" opacity="0.85"/><text x="598" y="216" fill="#cbd5e1" font-size="10" font-weight="400">Go-Explore</text><text x="598" y="238" fill="#cbd5e1" font-size="10" font-weight="400">Voyager (Minecraft LLM agent)</text><path d="M452.6192850767474 213 H590" stroke="#34d399" stroke-width="1.3" fill="none" opacity="0.85"/><path d="M452.6192850767474 235 H590" stroke="#34d399" stroke-width="1.3" fill="none" opacity="0.85"/><path d="M452.6192850767474 213 V235" stroke="#34d399" stroke-width="1.3" fill="none" opacity="0.85"/><path d="M424.1668074118858 180 H590" stroke="#34d399" stroke-width="1.3" fill="none" opacity="0.85"/><path d="M424.1668074118858 224 H452.6192850767474" stroke="#34d399" stroke-width="1.3" fill="none" opacity="0.85"/><path d="M424.1668074118858 180 V224" stroke="#34d399" stroke-width="1.3" fill="none" opacity="0.85"/><path d="M391.8226202133554 147 H590" stroke="#34d399" stroke-width="1.3" fill="none" opacity="0.85"/><path d="M391.8226202133554 202 H424.1668074118858" stroke="#34d399" stroke-width="1.3" fill="none" opacity="0.85"/><path d="M391.8226202133554 147 V202" stroke="#34d399" stroke-width="1.3" fill="none" opacity="0.85"/><text x="598" y="260" fill="#cbd5e1" font-size="10" font-weight="400">ASAL</text><text x="598" y="282" fill="#cbd5e1" font-size="10" font-weight="400">OMNI-EPIC</text><path d="M365.6582319595152 257 H590" stroke="#34d399" stroke-width="1.3" fill="none" opacity="0.85"/><path d="M365.6582319595152 279 H590" stroke="#34d399" stroke-width="1.3" fill="none" opacity="0.85"/><path d="M365.6582319595152 257 V279" stroke="#34d399" stroke-width="1.3" fill="none" opacity="0.85"/><path d="M357.6988279093962 174.5 H391.8226202133554" stroke="#34d399" stroke-width="1.3" fill="none" opacity="0.85"/><path d="M357.6988279093962 268 H365.6582319595152" stroke="#34d399" stroke-width="1.3" fill="none" opacity="0.85"/><path d="M357.6988279093962 174.5 V268" stroke="#34d399" stroke-width="1.3" fill="none" opacity="0.85"/><text x="598" y="304" fill="#cbd5e1" font-size="10" font-weight="400">Promptbreeder</text><text x="598" y="326" fill="#cbd5e1" font-size="10" font-weight="400">Quality-Diversity through AI Feedback (QDAIF)</text><path d="M510.6832072575969 301 H590" stroke="#34d399" stroke-width="1.3" fill="none" opacity="0.85"/><path d="M510.6832072575969 323 H590" stroke="#34d399" stroke-width="1.3" fill="none" opacity="0.85"/><path d="M510.6832072575969 301 V323" stroke="#34d399" stroke-width="1.3" fill="none" opacity="0.85"/><text x="598" y="348" fill="#cbd5e1" font-size="10" font-weight="400">Automated Design of Agentic Systems (ADAS)</text><text x="598" y="370" fill="#cbd5e1" font-size="10" font-weight="400">Darwin Godel Machine (DGM)</text><path d="M477.8291159797576 345 H590" stroke="#34d399" stroke-width="1.3" fill="none" opacity="0.85"/><path d="M477.8291159797576 367 H590" stroke="#34d399" stroke-width="1.3" fill="none" opacity="0.85"/><path d="M477.8291159797576 345 V367" stroke="#34d399" stroke-width="1.3" fill="none" opacity="0.85"/><path d="M370.2978437122433 312 H510.6832072575969" stroke="#34d399" stroke-width="1.3" fill="none" opacity="0.85"/><path d="M370.2978437122433 356 H477.8291159797576" stroke="#34d399" stroke-width="1.3" fill="none" opacity="0.85"/><path d="M370.2978437122433 312 V356" stroke="#34d399" stroke-width="1.3" fill="none" opacity="0.85"/><text x="598" y="392" fill="#cbd5e1" font-size="10" font-weight="400">NEAT (NeuroEvolution of Augmenting Topologies)</text><text x="598" y="414" fill="#cbd5e1" font-size="10" font-weight="400">HyperNEAT</text><text x="598" y="436" fill="#cbd5e1" font-size="10" font-weight="400">ES-HyperNEAT</text><path d="M510.6832072575969 411 H590" stroke="#34d399" stroke-width="1.3" fill="none" opacity="0.85"/><path d="M510.6832072575969 433 H590" stroke="#34d399" stroke-width="1.3" fill="none" opacity="0.85"/><path d="M510.6832072575969 411 V433" stroke="#34d399" stroke-width="1.3" fill="none" opacity="0.85"/><path d="M465.22420052825254 389 H590" stroke="#34d399" stroke-width="1.3" fill="none" opacity="0.85"/><path d="M465.22420052825254 422 H510.6832072575969" stroke="#34d399" stroke-width="1.3" fill="none" opacity="0.85"/><path d="M465.22420052825254 389 V422" stroke="#34d399" stroke-width="1.3" fill="none" opacity="0.85"/><text x="598" y="458" fill="#cbd5e1" font-size="10" font-weight="400">Evolution through Large Models (ELM)</text><text x="598" y="480" fill="#cbd5e1" font-size="10" font-weight="400">MAP-Elites</text><text x="598" y="502" fill="#cbd5e1" font-size="10" font-weight="400">Quality-Diversity (illumination algorithms)</text><path d="M590 477 H590" stroke="#34d399" stroke-width="1.3" fill="none" opacity="0.85"/><path d="M590 499 H590" stroke="#34d399" stroke-width="1.3" fill="none" opacity="0.85"/><path d="M590 477 V499" stroke="#34d399" stroke-width="1.3" fill="none" opacity="0.85"/><text x="598" y="524" fill="#cbd5e1" font-size="10" font-weight="400">Novelty Search</text><text x="598" y="546" fill="#cbd5e1" font-size="10" font-weight="400">OpenELM</text><path d="M477.8291159797576 521 H590" stroke="#34d399" stroke-width="1.3" fill="none" opacity="0.85"/><path d="M477.8291159797576 543 H590" stroke="#34d399" stroke-width="1.3" fill="none" opacity="0.85"/><path d="M477.8291159797576 521 V543" stroke="#34d399" stroke-width="1.3" fill="none" opacity="0.85"/><path d="M431.36641451519375 488 H590" stroke="#34d399" stroke-width="1.3" fill="none" opacity="0.85"/><path d="M431.36641451519375 532 H477.8291159797576" stroke="#34d399" stroke-width="1.3" fill="none" opacity="0.85"/><path d="M431.36641451519375 488 V532" stroke="#34d399" stroke-width="1.3" fill="none" opacity="0.85"/><path d="M396.3948756415366 455 H590" stroke="#34d399" stroke-width="1.3" fill="none" opacity="0.85"/><path d="M396.3948756415366 510 H431.36641451519375" stroke="#34d399" stroke-width="1.3" fill="none" opacity="0.85"/><path d="M396.3948756415366 455 V510" stroke="#34d399" stroke-width="1.3" fill="none" opacity="0.85"/><path d="M370.1090744857679 405.5 H465.22420052825254" stroke="#34d399" stroke-width="1.3" fill="none" opacity="0.85"/><path d="M370.1090744857679 482.5 H396.3948756415366" stroke="#34d399" stroke-width="1.3" fill="none" opacity="0.85"/><path d="M370.1090744857679 405.5 V482.5" stroke="#34d399" stroke-width="1.3" fill="none" opacity="0.85"/><path d="M316.73181012101264 334 H370.2978437122433" stroke="#34d399" stroke-width="1.3" fill="none" opacity="0.85"/><path d="M316.73181012101264 444 H370.1090744857679" stroke="#34d399" stroke-width="1.3" fill="none" opacity="0.85"/><path d="M316.73181012101264 334 V444" stroke="#34d399" stroke-width="1.3" fill="none" opacity="0.85"/><path d="M245.76557726418963 221.25 H357.6988279093962" stroke="#34d399" stroke-width="1.3" fill="none" opacity="0.85"/><path d="M245.76557726418963 389 H316.73181012101264" stroke="#34d399" stroke-width="1.3" fill="none" opacity="0.85"/><path d="M245.76557726418963 221.25 V389" stroke="#34d399" stroke-width="1.3" fill="none" opacity="0.85"/><text x="598" y="568" fill="#cbd5e1" font-size="10" font-weight="400">DERL (Deep Evolutionary Reinforcement Learning)</text><text x="598" y="590" fill="#cbd5e1" font-size="10" font-weight="400">UNIMAL (Universal Animal design space)</text><path d="M510.6832072575969 565 H590" stroke="#34d399" stroke-width="1.3" fill="none" opacity="0.85"/><path d="M510.6832072575969 587 H590" stroke="#34d399" stroke-width="1.3" fill="none" opacity="0.85"/><path d="M510.6832072575969 565 V587" stroke="#34d399" stroke-width="1.3" fill="none" opacity="0.85"/><text x="598" y="612" fill="#cbd5e1" font-size="10" font-weight="400">Transform2Act</text><text x="598" y="634" fill="#cbd5e1" font-size="10" font-weight="400">Neural Graph Evolution (NGE)</text><path d="M452.6192850767474 609 H590" stroke="#34d399" stroke-width="1.3" fill="none" opacity="0.85"/><path d="M452.6192850767474 631 H590" stroke="#34d399" stroke-width="1.3" fill="none" opacity="0.85"/><path d="M452.6192850767474 609 V631" stroke="#34d399" stroke-width="1.3" fill="none" opacity="0.85"/><path d="M441.9928497959705 576 H510.6832072575969" stroke="#34d399" stroke-width="1.3" fill="none" opacity="0.85"/><path d="M441.9928497959705 620 H452.6192850767474" stroke="#34d399" stroke-width="1.3" fill="none" opacity="0.85"/><path d="M441.9928497959705 576 V620" stroke="#34d399" stroke-width="1.3" fill="none" opacity="0.85"/><text x="598" y="656" fill="#cbd5e1" font-size="10" font-weight="400">Karl Sims VC</text><text x="598" y="678" fill="#cbd5e1" font-size="10" font-weight="400">3D Virtual Creature Evolution (3DVCE)</text><text x="598" y="700" fill="#cbd5e1" font-size="10" font-weight="400">Keiwan Evolution</text><path d="M510.6832072575969 675 H590" stroke="#34d399" stroke-width="1.3" fill="none" opacity="0.85"/><path d="M510.6832072575969 697 H590" stroke="#34d399" stroke-width="1.3" fill="none" opacity="0.85"/><path d="M510.6832072575969 675 V697" stroke="#34d399" stroke-width="1.3" fill="none" opacity="0.85"/><path d="M441.9928497959705 653 H590" stroke="#34d399" stroke-width="1.3" fill="none" opacity="0.85"/><path d="M441.9928497959705 686 H510.6832072575969" stroke="#34d399" stroke-width="1.3" fill="none" opacity="0.85"/><path d="M441.9928497959705 653 V686" stroke="#34d399" stroke-width="1.3" fill="none" opacity="0.85"/><text x="598" y="722" fill="#cbd5e1" font-size="10" font-weight="400">Evolving Soft Robots (Cheney / Unshackling Evolution)</text><text x="598" y="744" fill="#cbd5e1" font-size="10" font-weight="400">GOLEM (Genetically Organized Lifelike Electro Mechanics)</text><text x="598" y="766" fill="#cbd5e1" font-size="10" font-weight="400">Krcah Evolved Virtual Creatures (ERO)</text><path d="M452.6192850767474 741 H590" stroke="#34d399" stroke-width="1.3" fill="none" opacity="0.85"/><path d="M452.6192850767474 763 H590" stroke="#34d399" stroke-width="1.3" fill="none" opacity="0.85"/><path d="M452.6192850767474 741 V763" stroke="#34d399" stroke-width="1.3" fill="none" opacity="0.85"/><path d="M422.0043370929592 719 H590" stroke="#34d399" stroke-width="1.3" fill="none" opacity="0.85"/><path d="M422.0043370929592 752 H452.6192850767474" stroke="#34d399" stroke-width="1.3" fill="none" opacity="0.85"/><path d="M422.0043370929592 719 V752" stroke="#34d399" stroke-width="1.3" fill="none" opacity="0.85"/><path d="M402.5881325499907 669.5 H441.9928497959705" stroke="#34d399" stroke-width="1.3" fill="none" opacity="0.85"/><path d="M402.5881325499907 735.5 H422.0043370929592" stroke="#34d399" stroke-width="1.3" fill="none" opacity="0.85"/><path d="M402.5881325499907 669.5 V735.5" stroke="#34d399" stroke-width="1.3" fill="none" opacity="0.85"/><path d="M323.04514164365764 598 H441.9928497959705" stroke="#34d399" stroke-width="1.3" fill="none" opacity="0.85"/><path d="M323.04514164365764 702.5 H402.5881325499907" stroke="#34d399" stroke-width="1.3" fill="none" opacity="0.85"/><path d="M323.04514164365764 598 V702.5" stroke="#34d399" stroke-width="1.3" fill="none" opacity="0.85"/><text x="598" y="788" fill="#cbd5e1" font-size="10" font-weight="400">Cell Lab: Evolution Sandbox</text><text x="598" y="810" fill="#cbd5e1" font-size="10" font-weight="400">Primordial Particle Systems</text><text x="598" y="832" fill="#cbd5e1" font-size="10" font-weight="400">Squirm3</text><path d="M452.6192850767474 807 H590" stroke="#34d399" stroke-width="1.3" fill="none" opacity="0.85"/><path d="M452.6192850767474 829 H590" stroke="#34d399" stroke-width="1.3" fill="none" opacity="0.85"/><path d="M452.6192850767474 807 V829" stroke="#34d399" stroke-width="1.3" fill="none" opacity="0.85"/><path d="M441.9928497959705 785 H590" stroke="#34d399" stroke-width="1.3" fill="none" opacity="0.85"/><path d="M441.9928497959705 818 H452.6192850767474" stroke="#34d399" stroke-width="1.3" fill="none" opacity="0.85"/><path d="M441.9928497959705 785 V818" stroke="#34d399" stroke-width="1.3" fill="none" opacity="0.85"/><text x="598" y="854" fill="#cbd5e1" font-size="10" font-weight="400">Species: Artificial Life, Real Evolution</text><text x="598" y="876" fill="#cbd5e1" font-size="10" font-weight="400">Sebastian Lague Ecosystem</text><text x="598" y="898" fill="#cbd5e1" font-size="10" font-weight="400">Primer Evolution Simulations</text><path d="M477.8291159797576 873 H590" stroke="#34d399" stroke-width="1.3" fill="none" opacity="0.85"/><path d="M477.8291159797576 895 H590" stroke="#34d399" stroke-width="1.3" fill="none" opacity="0.85"/><path d="M477.8291159797576 873 V895" stroke="#34d399" stroke-width="1.3" fill="none" opacity="0.85"/><path d="M432.630772373736 851 H590" stroke="#34d399" stroke-width="1.3" fill="none" opacity="0.85"/><path d="M432.630772373736 884 H477.8291159797576" stroke="#34d399" stroke-width="1.3" fill="none" opacity="0.85"/><path d="M432.630772373736 851 V884" stroke="#34d399" stroke-width="1.3" fill="none" opacity="0.85"/><path d="M400.64090298525446 801.5 H441.9928497959705" stroke="#34d399" stroke-width="1.3" fill="none" opacity="0.85"/><path d="M400.64090298525446 867.5 H432.630772373736" stroke="#34d399" stroke-width="1.3" fill="none" opacity="0.85"/><path d="M400.64090298525446 801.5 V867.5" stroke="#34d399" stroke-width="1.3" fill="none" opacity="0.85"/><text x="598" y="920" fill="#cbd5e1" font-size="10" font-weight="400">Darwin Pond</text><text x="598" y="942" fill="#cbd5e1" font-size="10" font-weight="400">Gene Pool</text><path d="M471.0248108863953 917 H590" stroke="#34d399" stroke-width="1.3" fill="none" opacity="0.85"/><path d="M471.0248108863953 939 H590" stroke="#34d399" stroke-width="1.3" fill="none" opacity="0.85"/><path d="M471.0248108863953 917 V939" stroke="#34d399" stroke-width="1.3" fill="none" opacity="0.85"/><text x="598" y="964" fill="#cbd5e1" font-size="10" font-weight="400">Picbreeder</text><text x="598" y="986" fill="#cbd5e1" font-size="10" font-weight="400">EndlessForms</text><path d="M412.6422596707246 961 H590" stroke="#34d399" stroke-width="1.3" fill="none" opacity="0.85"/><path d="M412.6422596707246 983 H590" stroke="#34d399" stroke-width="1.3" fill="none" opacity="0.85"/><path d="M412.6422596707246 961 V983" stroke="#34d399" stroke-width="1.3" fill="none" opacity="0.85"/><path d="M386.4670999767131 928 H471.0248108863953" stroke="#34d399" stroke-width="1.3" fill="none" opacity="0.85"/><path d="M386.4670999767131 972 H412.6422596707246" stroke="#34d399" stroke-width="1.3" fill="none" opacity="0.85"/><path d="M386.4670999767131 928 V972" stroke="#34d399" stroke-width="1.3" fill="none" opacity="0.85"/><text x="598" y="1008" fill="#cbd5e1" font-size="10" font-weight="400">ALIEN</text><text x="598" y="1030" fill="#cbd5e1" font-size="10" font-weight="400">breve</text><text x="598" y="1052" fill="#cbd5e1" font-size="10" font-weight="400">Framsticks</text><text x="598" y="1074" fill="#cbd5e1" font-size="10" font-weight="400">Division Blocks</text><path d="M421.74367396963646 1049 H590" stroke="#34d399" stroke-width="1.3" fill="none" opacity="0.85"/><path d="M421.74367396963646 1071 H590" stroke="#34d399" stroke-width="1.3" fill="none" opacity="0.85"/><path d="M421.74367396963646 1049 V1071" stroke="#34d399" stroke-width="1.3" fill="none" opacity="0.85"/><path d="M392.7121384004217 1027 H590" stroke="#34d399" stroke-width="1.3" fill="none" opacity="0.85"/><path d="M392.7121384004217 1060 H421.74367396963646" stroke="#34d399" stroke-width="1.3" fill="none" opacity="0.85"/><path d="M392.7121384004217 1027 V1060" stroke="#34d399" stroke-width="1.3" fill="none" opacity="0.85"/><path d="M361.98275320314804 1005 H590" stroke="#34d399" stroke-width="1.3" fill="none" opacity="0.85"/><path d="M361.98275320314804 1043.5 H392.7121384004217" stroke="#34d399" stroke-width="1.3" fill="none" opacity="0.85"/><path d="M361.98275320314804 1005 V1043.5" stroke="#34d399" stroke-width="1.3" fill="none" opacity="0.85"/><path d="M341.42613856827865 950 H386.4670999767131" stroke="#34d399" stroke-width="1.3" fill="none" opacity="0.85"/><path d="M341.42613856827865 1024.25 H361.98275320314804" stroke="#34d399" stroke-width="1.3" fill="none" opacity="0.85"/><path d="M341.42613856827865 950 V1024.25" stroke="#34d399" stroke-width="1.3" fill="none" opacity="0.85"/><path d="M313.9267959897395 834.5 H400.64090298525446" stroke="#34d399" stroke-width="1.3" fill="none" opacity="0.85"/><path d="M313.9267959897395 987.125 H341.42613856827865" stroke="#34d399" stroke-width="1.3" fill="none" opacity="0.85"/><path d="M313.9267959897395 834.5 V987.125" stroke="#34d399" stroke-width="1.3" fill="none" opacity="0.85"/><text x="598" y="1096" fill="#cbd5e1" font-size="10" font-weight="400">Polyworld</text><text x="598" y="1118" fill="#cbd5e1" font-size="10" font-weight="400">Creatures</text><path d="M403.98563265119185 1093 H590" stroke="#34d399" stroke-width="1.3" fill="none" opacity="0.85"/><path d="M403.98563265119185 1115 H590" stroke="#34d399" stroke-width="1.3" fill="none" opacity="0.85"/><path d="M403.98563265119185 1093 V1115" stroke="#34d399" stroke-width="1.3" fill="none" opacity="0.85"/><text x="598" y="1140" fill="#cbd5e1" font-size="10" font-weight="400">Innovation Engines</text><text x="598" y="1162" fill="#cbd5e1" font-size="10" font-weight="400">Geb</text><text x="598" y="1184" fill="#cbd5e1" font-size="10" font-weight="400">MABE</text><text x="598" y="1206" fill="#cbd5e1" font-size="10" font-weight="400">Minimal Criterion Coevolution (MCC)</text><path d="M452.6192850767474 1181 H590" stroke="#34d399" stroke-width="1.3" fill="none" opacity="0.85"/><path d="M452.6192850767474 1203 H590" stroke="#34d399" stroke-width="1.3" fill="none" opacity="0.85"/><path d="M452.6192850767474 1181 V1203" stroke="#34d399" stroke-width="1.3" fill="none" opacity="0.85"/><path d="M422.0043370929592 1159 H590" stroke="#34d399" stroke-width="1.3" fill="none" opacity="0.85"/><path d="M422.0043370929592 1192 H452.6192850767474" stroke="#34d399" stroke-width="1.3" fill="none" opacity="0.85"/><path d="M422.0043370929592 1159 V1192" stroke="#34d399" stroke-width="1.3" fill="none" opacity="0.85"/><text x="598" y="1228" fill="#cbd5e1" font-size="10" font-weight="400">Chromaria</text><text x="598" y="1250" fill="#cbd5e1" font-size="10" font-weight="400">Evolve 4.0</text><text x="598" y="1272" fill="#cbd5e1" font-size="10" font-weight="400">biosim4</text><text x="598" y="1294" fill="#cbd5e1" font-size="10" font-weight="400">The Bibites</text><path d="M477.8291159797576 1269 H590" stroke="#34d399" stroke-width="1.3" fill="none" opacity="0.85"/><path d="M477.8291159797576 1291 H590" stroke="#34d399" stroke-width="1.3" fill="none" opacity="0.85"/><path d="M477.8291159797576 1269 V1291" stroke="#34d399" stroke-width="1.3" fill="none" opacity="0.85"/><path d="M452.6192850767474 1247 H590" stroke="#34d399" stroke-width="1.3" fill="none" opacity="0.85"/><path d="M452.6192850767474 1280 H477.8291159797576" stroke="#34d399" stroke-width="1.3" fill="none" opacity="0.85"/><path d="M452.6192850767474 1247 V1280" stroke="#34d399" stroke-width="1.3" fill="none" opacity="0.85"/><path d="M387.854509300111 1225 H590" stroke="#34d399" stroke-width="1.3" fill="none" opacity="0.85"/><path d="M387.854509300111 1263.5 H452.6192850767474" stroke="#34d399" stroke-width="1.3" fill="none" opacity="0.85"/><path d="M387.854509300111 1225 V1263.5" stroke="#34d399" stroke-width="1.3" fill="none" opacity="0.85"/><path d="M366.20127637225994 1175.5 H422.0043370929592" stroke="#34d399" stroke-width="1.3" fill="none" opacity="0.85"/><path d="M366.20127637225994 1244.25 H387.854509300111" stroke="#34d399" stroke-width="1.3" fill="none" opacity="0.85"/><path d="M366.20127637225994 1175.5 V1244.25" stroke="#34d399" stroke-width="1.3" fill="none" opacity="0.85"/><path d="M328.7312465348508 1137 H590" stroke="#34d399" stroke-width="1.3" fill="none" opacity="0.85"/><path d="M328.7312465348508 1209.875 H366.20127637225994" stroke="#34d399" stroke-width="1.3" fill="none" opacity="0.85"/><path d="M328.7312465348508 1137 V1209.875" stroke="#34d399" stroke-width="1.3" fill="none" opacity="0.85"/><path d="M308.7120211078813 1104 H403.98563265119185" stroke="#34d399" stroke-width="1.3" fill="none" opacity="0.85"/><path d="M308.7120211078813 1173.4375 H328.7312465348508" stroke="#34d399" stroke-width="1.3" fill="none" opacity="0.85"/><path d="M308.7120211078813 1104 V1173.4375" stroke="#34d399" stroke-width="1.3" fill="none" opacity="0.85"/><path d="M262.63400944167677 910.8125 H313.9267959897395" stroke="#34d399" stroke-width="1.3" fill="none" opacity="0.85"/><path d="M262.63400944167677 1138.71875 H308.7120211078813" stroke="#34d399" stroke-width="1.3" fill="none" opacity="0.85"/><path d="M262.63400944167677 910.8125 V1138.71875" stroke="#34d399" stroke-width="1.3" fill="none" opacity="0.85"/><path d="M243.58419752247548 650.25 H323.04514164365764" stroke="#34d399" stroke-width="1.3" fill="none" opacity="0.85"/><path d="M243.58419752247548 1024.765625 H262.63400944167677" stroke="#34d399" stroke-width="1.3" fill="none" opacity="0.85"/><path d="M243.58419752247548 650.25 V1024.765625" stroke="#34d399" stroke-width="1.3" fill="none" opacity="0.85"/><path d="M191.56169890718868 305.125 H245.76557726418963" stroke="#34d399" stroke-width="1.3" fill="none" opacity="0.85"/><path d="M191.56169890718868 837.5078125 H243.58419752247548" stroke="#34d399" stroke-width="1.3" fill="none" opacity="0.85"/><path d="M191.56169890718868 305.125 V837.5078125" stroke="#34d399" stroke-width="1.3" fill="none" opacity="0.85"/><text x="598" y="1316" fill="#cbd5e1" font-size="10" font-weight="400">Sugarscape</text><text x="598" y="1338" fill="#cbd5e1" font-size="10" font-weight="400">Swarm</text><path d="M501.3211298353623 1313 H590" stroke="#34d399" stroke-width="1.3" fill="none" opacity="0.85"/><path d="M501.3211298353623 1335 H590" stroke="#34d399" stroke-width="1.3" fill="none" opacity="0.85"/><path d="M501.3211298353623 1313 V1335" stroke="#34d399" stroke-width="1.3" fill="none" opacity="0.85"/><text x="598" y="1360" fill="#cbd5e1" font-size="10" font-weight="400">Echo</text><text x="598" y="1382" fill="#cbd5e1" font-size="10" font-weight="400">SimLife: The Genetic Playground</text><path d="M412.6422596707246 1357 H590" stroke="#34d399" stroke-width="1.3" fill="none" opacity="0.85"/><path d="M412.6422596707246 1379 H590" stroke="#34d399" stroke-width="1.3" fill="none" opacity="0.85"/><path d="M412.6422596707246 1357 V1379" stroke="#34d399" stroke-width="1.3" fill="none" opacity="0.85"/><path d="M398.7324856038817 1324 H501.3211298353623" stroke="#34d399" stroke-width="1.3" fill="none" opacity="0.85"/><path d="M398.7324856038817 1368 H412.6422596707246" stroke="#34d399" stroke-width="1.3" fill="none" opacity="0.85"/><path d="M398.7324856038817 1324 V1368" stroke="#34d399" stroke-width="1.3" fill="none" opacity="0.85"/><text x="598" y="1404" fill="#cbd5e1" font-size="10" font-weight="400">Tierra</text><text x="598" y="1426" fill="#cbd5e1" font-size="10" font-weight="400">Avida</text><path d="M447.00961838095776 1401 H590" stroke="#34d399" stroke-width="1.3" fill="none" opacity="0.85"/><path d="M447.00961838095776 1423 H590" stroke="#34d399" stroke-width="1.3" fill="none" opacity="0.85"/><path d="M447.00961838095776 1401 V1423" stroke="#34d399" stroke-width="1.3" fill="none" opacity="0.85"/><text x="598" y="1448" fill="#cbd5e1" font-size="10" font-weight="400">The Life Engine</text><text x="598" y="1470" fill="#cbd5e1" font-size="10" font-weight="400">Nanopond</text><text x="598" y="1492" fill="#cbd5e1" font-size="10" font-weight="400">Physis</text><path d="M477.8291159797576 1467 H590" stroke="#34d399" stroke-width="1.3" fill="none" opacity="0.85"/><path d="M477.8291159797576 1489 H590" stroke="#34d399" stroke-width="1.3" fill="none" opacity="0.85"/><path d="M477.8291159797576 1467 V1489" stroke="#34d399" stroke-width="1.3" fill="none" opacity="0.85"/><text x="598" y="1514" fill="#cbd5e1" font-size="10" font-weight="400">Network Tierra</text><text x="598" y="1536" fill="#cbd5e1" font-size="10" font-weight="400">Core War</text><text x="598" y="1558" fill="#cbd5e1" font-size="10" font-weight="400">Cosmos</text><text x="598" y="1580" fill="#cbd5e1" font-size="10" font-weight="400">Amoeba</text><path d="M590 1555 H590" stroke="#34d399" stroke-width="1.3" fill="none" opacity="0.85"/><path d="M590 1577 H590" stroke="#34d399" stroke-width="1.3" fill="none" opacity="0.85"/><path d="M590 1555 V1577" stroke="#34d399" stroke-width="1.3" fill="none" opacity="0.85"/><path d="M477.8291159797576 1533 H590" stroke="#34d399" stroke-width="1.3" fill="none" opacity="0.85"/><path d="M477.8291159797576 1566 H590" stroke="#34d399" stroke-width="1.3" fill="none" opacity="0.85"/><path d="M477.8291159797576 1533 V1566" stroke="#34d399" stroke-width="1.3" fill="none" opacity="0.85"/><path d="M462.34154882490304 1511 H590" stroke="#34d399" stroke-width="1.3" fill="none" opacity="0.85"/><path d="M462.34154882490304 1549.5 H477.8291159797576" stroke="#34d399" stroke-width="1.3" fill="none" opacity="0.85"/><path d="M462.34154882490304 1511 V1549.5" stroke="#34d399" stroke-width="1.3" fill="none" opacity="0.85"/><path d="M455.949092334525 1478 H477.8291159797576" stroke="#34d399" stroke-width="1.3" fill="none" opacity="0.85"/><path d="M455.949092334525 1530.25 H462.34154882490304" stroke="#34d399" stroke-width="1.3" fill="none" opacity="0.85"/><path d="M455.949092334525 1478 V1530.25" stroke="#34d399" stroke-width="1.3" fill="none" opacity="0.85"/><path d="M433.87781526501044 1445 H590" stroke="#34d399" stroke-width="1.3" fill="none" opacity="0.85"/><path d="M433.87781526501044 1504.125 H455.949092334525" stroke="#34d399" stroke-width="1.3" fill="none" opacity="0.85"/><path d="M433.87781526501044 1445 V1504.125" stroke="#34d399" stroke-width="1.3" fill="none" opacity="0.85"/><path d="M411.87952367984695 1412 H447.00961838095776" stroke="#34d399" stroke-width="1.3" fill="none" opacity="0.85"/><path d="M411.87952367984695 1474.5625 H433.87781526501044" stroke="#34d399" stroke-width="1.3" fill="none" opacity="0.85"/><path d="M411.87952367984695 1412 V1474.5625" stroke="#34d399" stroke-width="1.3" fill="none" opacity="0.85"/><text x="598" y="1602" fill="#cbd5e1" font-size="10" font-weight="400">Aevol</text><text x="598" y="1624" fill="#cbd5e1" font-size="10" font-weight="400">Avida-ED</text><path d="M395.71432974702435 1599 H590" stroke="#34d399" stroke-width="1.3" fill="none" opacity="0.85"/><path d="M395.71432974702435 1621 H590" stroke="#34d399" stroke-width="1.3" fill="none" opacity="0.85"/><path d="M395.71432974702435 1599 V1621" stroke="#34d399" stroke-width="1.3" fill="none" opacity="0.85"/><path d="M348.83413384972647 1443.28125 H411.87952367984695" stroke="#34d399" stroke-width="1.3" fill="none" opacity="0.85"/><path d="M348.83413384972647 1610 H395.71432974702435" stroke="#34d399" stroke-width="1.3" fill="none" opacity="0.85"/><path d="M348.83413384972647 1443.28125 V1610" stroke="#34d399" stroke-width="1.3" fill="none" opacity="0.85"/><path d="M319.6180607736026 1346 H398.7324856038817" stroke="#34d399" stroke-width="1.3" fill="none" opacity="0.85"/><path d="M319.6180607736026 1526.640625 H348.83413384972647" stroke="#34d399" stroke-width="1.3" fill="none" opacity="0.85"/><path d="M319.6180607736026 1346 V1526.640625" stroke="#34d399" stroke-width="1.3" fill="none" opacity="0.85"/><text x="598" y="1646" fill="#cbd5e1" font-size="10" font-weight="400">El Farol Bar Problem</text><text x="598" y="1668" fill="#cbd5e1" font-size="10" font-weight="400">Generative Agents (Smallville)</text><path d="M352.0496217727906 1643 H590" stroke="#34d399" stroke-width="1.3" fill="none" opacity="0.85"/><path d="M352.0496217727906 1665 H590" stroke="#34d399" stroke-width="1.3" fill="none" opacity="0.85"/><path d="M352.0496217727906 1643 V1665" stroke="#34d399" stroke-width="1.3" fill="none" opacity="0.85"/><text x="598" y="1690" fill="#cbd5e1" font-size="10" font-weight="400">Artificial Anasazi</text><text x="598" y="1712" fill="#cbd5e1" font-size="10" font-weight="400">Schelling Segregation Model</text><text x="598" y="1734" fill="#cbd5e1" font-size="10" font-weight="400">SimEarth: The Living Planet</text><text x="598" y="1756" fill="#cbd5e1" font-size="10" font-weight="400">SimAnt: The Electric Ant Colony</text><text x="598" y="1778" fill="#cbd5e1" font-size="10" font-weight="400">StarLogo</text><text x="598" y="1800" fill="#cbd5e1" font-size="10" font-weight="400">Ascape</text><path d="M477.8291159797576 1775 H590" stroke="#34d399" stroke-width="1.3" fill="none" opacity="0.85"/><path d="M477.8291159797576 1797 H590" stroke="#34d399" stroke-width="1.3" fill="none" opacity="0.85"/><path d="M477.8291159797576 1775 V1797" stroke="#34d399" stroke-width="1.3" fill="none" opacity="0.85"/><path d="M454.59776524747565 1753 H590" stroke="#34d399" stroke-width="1.3" fill="none" opacity="0.85"/><path d="M454.59776524747565 1786 H477.8291159797576" stroke="#34d399" stroke-width="1.3" fill="none" opacity="0.85"/><path d="M454.59776524747565 1753 V1786" stroke="#34d399" stroke-width="1.3" fill="none" opacity="0.85"/><path d="M428.46202058861445 1731 H590" stroke="#34d399" stroke-width="1.3" fill="none" opacity="0.85"/><path d="M428.46202058861445 1769.5 H454.59776524747565" stroke="#34d399" stroke-width="1.3" fill="none" opacity="0.85"/><path d="M428.46202058861445 1731 V1769.5" stroke="#34d399" stroke-width="1.3" fill="none" opacity="0.85"/><path d="M418.4045335413052 1709 H590" stroke="#34d399" stroke-width="1.3" fill="none" opacity="0.85"/><path d="M418.4045335413052 1750.25 H428.46202058861445" stroke="#34d399" stroke-width="1.3" fill="none" opacity="0.85"/><path d="M418.4045335413052 1709 V1750.25" stroke="#34d399" stroke-width="1.3" fill="none" opacity="0.85"/><path d="M398.6165884866836 1687 H590" stroke="#34d399" stroke-width="1.3" fill="none" opacity="0.85"/><path d="M398.6165884866836 1729.625 H418.4045335413052" stroke="#34d399" stroke-width="1.3" fill="none" opacity="0.85"/><path d="M398.6165884866836 1687 V1729.625" stroke="#34d399" stroke-width="1.3" fill="none" opacity="0.85"/><text x="598" y="1822" fill="#cbd5e1" font-size="10" font-weight="400">Boids</text><text x="598" y="1844" fill="#cbd5e1" font-size="10" font-weight="400">NetLogo</text><text x="598" y="1866" fill="#cbd5e1" font-size="10" font-weight="400">Mesa</text><path d="M590 1841 H590" stroke="#34d399" stroke-width="1.3" fill="none" opacity="0.85"/><path d="M590 1863 H590" stroke="#34d399" stroke-width="1.3" fill="none" opacity="0.85"/><path d="M590 1841 V1863" stroke="#34d399" stroke-width="1.3" fill="none" opacity="0.85"/><text x="598" y="1888" fill="#cbd5e1" font-size="10" font-weight="400">GAMA Platform</text><text x="598" y="1910" fill="#cbd5e1" font-size="10" font-weight="400">MASON</text><text x="598" y="1932" fill="#cbd5e1" font-size="10" font-weight="400">Repast</text><path d="M510.6832072575969 1907 H590" stroke="#34d399" stroke-width="1.3" fill="none" opacity="0.85"/><path d="M510.6832072575969 1929 H590" stroke="#34d399" stroke-width="1.3" fill="none" opacity="0.85"/><path d="M510.6832072575969 1907 V1929" stroke="#34d399" stroke-width="1.3" fill="none" opacity="0.85"/><path d="M494.2561616186772 1885 H590" stroke="#34d399" stroke-width="1.3" fill="none" opacity="0.85"/><path d="M494.2561616186772 1918 H510.6832072575969" stroke="#34d399" stroke-width="1.3" fill="none" opacity="0.85"/><path d="M494.2561616186772 1885 V1918" stroke="#34d399" stroke-width="1.3" fill="none" opacity="0.85"/><path d="M480.3772027713673 1852 H590" stroke="#34d399" stroke-width="1.3" fill="none" opacity="0.85"/><path d="M480.3772027713673 1901.5 H494.2561616186772" stroke="#34d399" stroke-width="1.3" fill="none" opacity="0.85"/><path d="M480.3772027713673 1852 V1901.5" stroke="#34d399" stroke-width="1.3" fill="none" opacity="0.85"/><path d="M397.73720884292 1819 H590" stroke="#34d399" stroke-width="1.3" fill="none" opacity="0.85"/><path d="M397.73720884292 1876.75 H480.3772027713673" stroke="#34d399" stroke-width="1.3" fill="none" opacity="0.85"/><path d="M397.73720884292 1819 V1876.75" stroke="#34d399" stroke-width="1.3" fill="none" opacity="0.85"/><path d="M349.88618847943053 1708.3125 H398.6165884866836" stroke="#34d399" stroke-width="1.3" fill="none" opacity="0.85"/><path d="M349.88618847943053 1847.875 H397.73720884292" stroke="#34d399" stroke-width="1.3" fill="none" opacity="0.85"/><path d="M349.88618847943053 1708.3125 V1847.875" stroke="#34d399" stroke-width="1.3" fill="none" opacity="0.85"/><path d="M293.7060293210486 1654 H352.0496217727906" stroke="#34d399" stroke-width="1.3" fill="none" opacity="0.85"/><path d="M293.7060293210486 1778.09375 H349.88618847943053" stroke="#34d399" stroke-width="1.3" fill="none" opacity="0.85"/><path d="M293.7060293210486 1654 V1778.09375" stroke="#34d399" stroke-width="1.3" fill="none" opacity="0.85"/><path d="M199.8621123489427 1436.3203125 H319.6180607736026" stroke="#34d399" stroke-width="1.3" fill="none" opacity="0.85"/><path d="M199.8621123489427 1716.046875 H293.7060293210486" stroke="#34d399" stroke-width="1.3" fill="none" opacity="0.85"/><path d="M199.8621123489427 1436.3203125 V1716.046875" stroke="#34d399" stroke-width="1.3" fill="none" opacity="0.85"/><text x="598" y="1954" fill="#cbd5e1" font-size="10" font-weight="400">Lenia</text><text x="598" y="1976" fill="#cbd5e1" font-size="10" font-weight="400">Particle Lenia</text><path d="M477.8291159797576 1951 H590" stroke="#34d399" stroke-width="1.3" fill="none" opacity="0.85"/><path d="M477.8291159797576 1973 H590" stroke="#34d399" stroke-width="1.3" fill="none" opacity="0.85"/><path d="M477.8291159797576 1951 V1973" stroke="#34d399" stroke-width="1.3" fill="none" opacity="0.85"/><text x="598" y="1998" fill="#cbd5e1" font-size="10" font-weight="400">Flow Lenia</text><text x="598" y="2020" fill="#cbd5e1" font-size="10" font-weight="400">Thrive</text><path d="M431.36641451519375 1995 H590" stroke="#34d399" stroke-width="1.3" fill="none" opacity="0.85"/><path d="M431.36641451519375 2017 H590" stroke="#34d399" stroke-width="1.3" fill="none" opacity="0.85"/><path d="M431.36641451519375 1995 V2017" stroke="#34d399" stroke-width="1.3" fill="none" opacity="0.85"/><path d="M389.3704081816472 1962 H477.8291159797576" stroke="#34d399" stroke-width="1.3" fill="none" opacity="0.85"/><path d="M389.3704081816472 2006 H431.36641451519375" stroke="#34d399" stroke-width="1.3" fill="none" opacity="0.85"/><path d="M389.3704081816472 1962 V2006" stroke="#34d399" stroke-width="1.3" fill="none" opacity="0.85"/><text x="598" y="2042" fill="#cbd5e1" font-size="10" font-weight="400">Clusters (Particle Life)</text><text x="598" y="2064" fill="#cbd5e1" font-size="10" font-weight="400">Spore</text><text x="598" y="2086" fill="#cbd5e1" font-size="10" font-weight="400">Noita</text><text x="598" y="2108" fill="#cbd5e1" font-size="10" font-weight="400">Sandspiel</text><path d="M477.8291159797576 2083 H590" stroke="#34d399" stroke-width="1.3" fill="none" opacity="0.85"/><path d="M477.8291159797576 2105 H590" stroke="#34d399" stroke-width="1.3" fill="none" opacity="0.85"/><path d="M477.8291159797576 2083 V2105" stroke="#34d399" stroke-width="1.3" fill="none" opacity="0.85"/><path d="M413.5403721311091 2061 H590" stroke="#34d399" stroke-width="1.3" fill="none" opacity="0.85"/><path d="M413.5403721311091 2094 H477.8291159797576" stroke="#34d399" stroke-width="1.3" fill="none" opacity="0.85"/><path d="M413.5403721311091 2061 V2094" stroke="#34d399" stroke-width="1.3" fill="none" opacity="0.85"/><path d="M407.5983580030808 2039 H590" stroke="#34d399" stroke-width="1.3" fill="none" opacity="0.85"/><path d="M407.5983580030808 2077.5 H413.5403721311091" stroke="#34d399" stroke-width="1.3" fill="none" opacity="0.85"/><path d="M407.5983580030808 2039 V2077.5" stroke="#34d399" stroke-width="1.3" fill="none" opacity="0.85"/><text x="598" y="2130" fill="#cbd5e1" font-size="10" font-weight="400">OpenSteer</text><text x="598" y="2152" fill="#cbd5e1" font-size="10" font-weight="400">Pezzza's Ant Colony Simulation</text><path d="M477.8291159797576 2127 H590" stroke="#34d399" stroke-width="1.3" fill="none" opacity="0.85"/><path d="M477.8291159797576 2149 H590" stroke="#34d399" stroke-width="1.3" fill="none" opacity="0.85"/><path d="M477.8291159797576 2127 V2149" stroke="#34d399" stroke-width="1.3" fill="none" opacity="0.85"/><text x="598" y="2174" fill="#cbd5e1" font-size="10" font-weight="400">The Powder Toy</text><text x="598" y="2196" fill="#cbd5e1" font-size="10" font-weight="400">SmoothLife</text><text x="598" y="2218" fill="#cbd5e1" font-size="10" font-weight="400">Larger than Life</text><path d="M590 2193 H590" stroke="#34d399" stroke-width="1.3" fill="none" opacity="0.85"/><path d="M590 2215 H590" stroke="#34d399" stroke-width="1.3" fill="none" opacity="0.85"/><path d="M590 2193 V2215" stroke="#34d399" stroke-width="1.3" fill="none" opacity="0.85"/><text x="598" y="2240" fill="#cbd5e1" font-size="10" font-weight="400">Gray-Scott Reaction-Diffusion</text><text x="598" y="2262" fill="#cbd5e1" font-size="10" font-weight="400">Morphozoic</text><path d="M477.8291159797576 2237 H590" stroke="#34d399" stroke-width="1.3" fill="none" opacity="0.85"/><path d="M477.8291159797576 2259 H590" stroke="#34d399" stroke-width="1.3" fill="none" opacity="0.85"/><path d="M477.8291159797576 2237 V2259" stroke="#34d399" stroke-width="1.3" fill="none" opacity="0.85"/><path d="M454.59776524747565 2204 H590" stroke="#34d399" stroke-width="1.3" fill="none" opacity="0.85"/><path d="M454.59776524747565 2248 H477.8291159797576" stroke="#34d399" stroke-width="1.3" fill="none" opacity="0.85"/><path d="M454.59776524747565 2204 V2248" stroke="#34d399" stroke-width="1.3" fill="none" opacity="0.85"/><path d="M431.36641451519375 2171 H590" stroke="#34d399" stroke-width="1.3" fill="none" opacity="0.85"/><path d="M431.36641451519375 2226 H454.59776524747565" stroke="#34d399" stroke-width="1.3" fill="none" opacity="0.85"/><path d="M431.36641451519375 2171 V2226" stroke="#34d399" stroke-width="1.3" fill="none" opacity="0.85"/><path d="M395.07142491081044 2138 H477.8291159797576" stroke="#34d399" stroke-width="1.3" fill="none" opacity="0.85"/><path d="M395.07142491081044 2198.5 H431.36641451519375" stroke="#34d399" stroke-width="1.3" fill="none" opacity="0.85"/><path d="M395.07142491081044 2138 V2198.5" stroke="#34d399" stroke-width="1.3" fill="none" opacity="0.85"/><path d="M383.0439995841116 2058.25 H407.5983580030808" stroke="#34d399" stroke-width="1.3" fill="none" opacity="0.85"/><path d="M383.0439995841116 2168.25 H395.07142491081044" stroke="#34d399" stroke-width="1.3" fill="none" opacity="0.85"/><path d="M383.0439995841116 2058.25 V2168.25" stroke="#34d399" stroke-width="1.3" fill="none" opacity="0.85"/><path d="M329.3998356044291 1984 H389.3704081816472" stroke="#34d399" stroke-width="1.3" fill="none" opacity="0.85"/><path d="M329.3998356044291 2113.25 H383.0439995841116" stroke="#34d399" stroke-width="1.3" fill="none" opacity="0.85"/><path d="M329.3998356044291 1984 V2113.25" stroke="#34d399" stroke-width="1.3" fill="none" opacity="0.85"/><text x="598" y="2284" fill="#cbd5e1" font-size="10" font-weight="400">Game of Life</text><text x="598" y="2306" fill="#cbd5e1" font-size="10" font-weight="400">Voxelyze / VoxCAD</text><text x="598" y="2328" fill="#cbd5e1" font-size="10" font-weight="400">Growing NCA</text><text x="598" y="2350" fill="#cbd5e1" font-size="10" font-weight="400">Genie (Generative Interactive Environments)</text><path d="M426.4842428189238 2325 H590" stroke="#34d399" stroke-width="1.3" fill="none" opacity="0.85"/><path d="M426.4842428189238 2347 H590" stroke="#34d399" stroke-width="1.3" fill="none" opacity="0.85"/><path d="M426.4842428189238 2325 V2347" stroke="#34d399" stroke-width="1.3" fill="none" opacity="0.85"/><text x="598" y="2372" fill="#cbd5e1" font-size="10" font-weight="400">DevoWorm</text><text x="598" y="2394" fill="#cbd5e1" font-size="10" font-weight="400">EvoGym</text><text x="598" y="2416" fill="#cbd5e1" font-size="10" font-weight="400">RoboGrammar</text><path d="M477.8291159797576 2391 H590" stroke="#34d399" stroke-width="1.3" fill="none" opacity="0.85"/><path d="M477.8291159797576 2413 H590" stroke="#34d399" stroke-width="1.3" fill="none" opacity="0.85"/><path d="M477.8291159797576 2391 V2413" stroke="#34d399" stroke-width="1.3" fill="none" opacity="0.85"/><path d="M366.09855669256956 2369 H590" stroke="#34d399" stroke-width="1.3" fill="none" opacity="0.85"/><path d="M366.09855669256956 2402 H477.8291159797576" stroke="#34d399" stroke-width="1.3" fill="none" opacity="0.85"/><path d="M366.09855669256956 2369 V2402" stroke="#34d399" stroke-width="1.3" fill="none" opacity="0.85"/><path d="M342.0814974748938 2336 H426.4842428189238" stroke="#34d399" stroke-width="1.3" fill="none" opacity="0.85"/><path d="M342.0814974748938 2385.5 H366.09855669256956" stroke="#34d399" stroke-width="1.3" fill="none" opacity="0.85"/><path d="M342.0814974748938 2336 V2385.5" stroke="#34d399" stroke-width="1.3" fill="none" opacity="0.85"/><path d="M305.5554074547744 2303 H590" stroke="#34d399" stroke-width="1.3" fill="none" opacity="0.85"/><path d="M305.5554074547744 2360.75 H342.0814974748938" stroke="#34d399" stroke-width="1.3" fill="none" opacity="0.85"/><path d="M305.5554074547744 2303 V2360.75" stroke="#34d399" stroke-width="1.3" fill="none" opacity="0.85"/><path d="M270.4467555958481 2281 H590" stroke="#34d399" stroke-width="1.3" fill="none" opacity="0.85"/><path d="M270.4467555958481 2331.875 H305.5554074547744" stroke="#34d399" stroke-width="1.3" fill="none" opacity="0.85"/><path d="M270.4467555958481 2281 V2331.875" stroke="#34d399" stroke-width="1.3" fill="none" opacity="0.85"/><path d="M263.2801345647236 2048.625 H329.3998356044291" stroke="#34d399" stroke-width="1.3" fill="none" opacity="0.85"/><path d="M263.2801345647236 2306.4375 H270.4467555958481" stroke="#34d399" stroke-width="1.3" fill="none" opacity="0.85"/><path d="M263.2801345647236 2048.625 V2306.4375" stroke="#34d399" stroke-width="1.3" fill="none" opacity="0.85"/><text x="598" y="2438" fill="#cbd5e1" font-size="10" font-weight="400">Rule 110</text><text x="598" y="2460" fill="#cbd5e1" font-size="10" font-weight="400">Wireworld</text><text x="598" y="2482" fill="#cbd5e1" font-size="10" font-weight="400">Langton's Ant</text><path d="M590 2457 H590" stroke="#34d399" stroke-width="1.3" fill="none" opacity="0.85"/><path d="M590 2479 H590" stroke="#34d399" stroke-width="1.3" fill="none" opacity="0.85"/><path d="M590 2457 V2479" stroke="#34d399" stroke-width="1.3" fill="none" opacity="0.85"/><path d="M590 2435 H590" stroke="#34d399" stroke-width="1.3" fill="none" opacity="0.85"/><path d="M590 2468 H590" stroke="#34d399" stroke-width="1.3" fill="none" opacity="0.85"/><path d="M590 2435 V2468" stroke="#34d399" stroke-width="1.3" fill="none" opacity="0.85"/><text x="598" y="2504" fill="#cbd5e1" font-size="10" font-weight="400">Biomorphs</text><text x="598" y="2526" fill="#cbd5e1" font-size="10" font-weight="400">Langton's Loops</text><text x="598" y="2548" fill="#cbd5e1" font-size="10" font-weight="400">von Neumann Universal Constructor</text><path d="M431.36641451519375 2523 H590" stroke="#34d399" stroke-width="1.3" fill="none" opacity="0.85"/><path d="M431.36641451519375 2545 H590" stroke="#34d399" stroke-width="1.3" fill="none" opacity="0.85"/><path d="M431.36641451519375 2523 V2545" stroke="#34d399" stroke-width="1.3" fill="none" opacity="0.85"/><path d="M326.93595889906453 2501 H590" stroke="#34d399" stroke-width="1.3" fill="none" opacity="0.85"/><path d="M326.93595889906453 2534 H431.36641451519375" stroke="#34d399" stroke-width="1.3" fill="none" opacity="0.85"/><path d="M326.93595889906453 2501 V2534" stroke="#34d399" stroke-width="1.3" fill="none" opacity="0.85"/><path d="M228.27751703626274 2451.5 H590" stroke="#34d399" stroke-width="1.3" fill="none" opacity="0.85"/><path d="M228.27751703626274 2517.5 H326.93595889906453" stroke="#34d399" stroke-width="1.3" fill="none" opacity="0.85"/><path d="M228.27751703626274 2451.5 V2517.5" stroke="#34d399" stroke-width="1.3" fill="none" opacity="0.85"/><path d="M178.5209386039201 2177.53125 H263.2801345647236" stroke="#34d399" stroke-width="1.3" fill="none" opacity="0.85"/><path d="M178.5209386039201 2484.5 H228.27751703626274" stroke="#34d399" stroke-width="1.3" fill="none" opacity="0.85"/><path d="M178.5209386039201 2177.53125 V2484.5" stroke="#34d399" stroke-width="1.3" fill="none" opacity="0.85"/><path d="M148.29064327108975 1576.18359375 H199.8621123489427" stroke="#34d399" stroke-width="1.3" fill="none" opacity="0.85"/><path d="M148.29064327108975 2331.015625 H178.5209386039201" stroke="#34d399" stroke-width="1.3" fill="none" opacity="0.85"/><path d="M148.29064327108975 1576.18359375 V2331.015625" stroke="#34d399" stroke-width="1.3" fill="none" opacity="0.85"/><path d="M138.46555984783924 571.31640625 H191.56169890718868" stroke="#34d399" stroke-width="1.3" fill="none" opacity="0.85"/><path d="M138.46555984783924 1953.599609375 H148.29064327108975" stroke="#34d399" stroke-width="1.3" fill="none" opacity="0.85"/><path d="M138.46555984783924 571.31640625 V1953.599609375" stroke="#34d399" stroke-width="1.3" fill="none" opacity="0.85"/><path d="M89.60550626869257 114 H293.2237365401696" stroke="#34d399" stroke-width="1.3" fill="none" opacity="0.85"/><path d="M89.60550626869257 1262.4580078125 H138.46555984783924" stroke="#34d399" stroke-width="1.3" fill="none" opacity="0.85"/><path d="M89.60550626869257 114 V1262.4580078125" stroke="#34d399" stroke-width="1.3" fill="none" opacity="0.85"/><path d="M30 81 H590" stroke="#f59e0b" stroke-width="1.3" fill="none" opacity="0.85"/><path d="M30 688.22900390625 H89.60550626869257" stroke="#f59e0b" stroke-width="1.3" fill="none" opacity="0.85"/><path d="M30 81 V688.22900390625" stroke="#f59e0b" stroke-width="1.3" fill="none" opacity="0.85"/>
</svg>