<svg xmlns="http://www.w3.org/2000/svg" viewBox="0 0 760 2580" font-family="ui-sans-serif,system-ui,Segoe UI,Roboto,sans-serif" role="img" aria-label="Dendrogram">
<rect width="760" height="2580" rx="14" fill="#0b1220"/>
<text x="28" y="30" fill="#cbd5e1" font-size="18" font-weight="700">Capability dendrogram (average-linkage, Euclidean 9-axis)</text><text x="28" y="50" fill="#7c8aa5" font-size="12">leaves grouped by capability-shape similarity; join depth = merge distance.</text><text x="598" y="84" fill="#f59e0b" font-size="10" font-weight="700">COSMOGONIC</text><text x="598" y="106" fill="#cbd5e1" font-size="10" font-weight="400">OpenWorm</text><text x="598" y="128" fill="#cbd5e1" font-size="10" font-weight="400">NerveNet</text><path d="M348.1360840194118 103 H590" stroke="#34d399" stroke-width="1.3" fill="none" opacity="0.85"/><path d="M348.1360840194118 125 H590" stroke="#34d399" stroke-width="1.3" fill="none" opacity="0.85"/><path d="M348.1360840194118 103 V125" stroke="#34d399" stroke-width="1.3" fill="none" opacity="0.85"/><text x="598" y="150" fill="#cbd5e1" font-size="10" font-weight="400">The AI Scientist</text><text x="598" y="172" fill="#cbd5e1" font-size="10" font-weight="400">POET</text><text x="598" y="194" fill="#cbd5e1" font-size="10" font-weight="400">OMNI (Open-endedness via Models of human Notions of Interestingness)</text><path d="M590 169 H590" stroke="#34d399" stroke-width="1.3" fill="none" opacity="0.85"/><path d="M590 191 H590" stroke="#34d399" stroke-width="1.3" fill="none" opacity="0.85"/><path d="M590 169 V191" stroke="#34d399" stroke-width="1.3" fill="none" opacity="0.85"/><text x="598" y="216" fill="#cbd5e1" font-size="10" font-weight="400">Go-Explore</text><text x="598" y="238" fill="#cbd5e1" font-size="10" font-weight="400">Voyager (Minecraft LLM agent)</text><path d="M478.0387625877359 213 H590" stroke="#34d399" stroke-width="1.3" fill="none" opacity="0.85"/><path d="M478.0387625877359 235 H590" stroke="#34d399" stroke-width="1.3" fill="none" opacity="0.85"/><path d="M478.0387625877359 213 V235" stroke="#34d399" stroke-width="1.3" fill="none" opacity="0.85"/><path d="M454.850831089619 180 H590" stroke="#34d399" stroke-width="1.3" fill="none" opacity="0.85"/><path d="M454.850831089619 224 H478.0387625877359" stroke="#34d399" stroke-width="1.3" fill="none" opacity="0.85"/><path d="M454.850831089619 180 V224" stroke="#34d399" stroke-width="1.3" fill="none" opacity="0.85"/><path d="M428.4912709150748 147 H590" stroke="#34d399" stroke-width="1.3" fill="none" opacity="0.85"/><path d="M428.4912709150748 202 H454.850831089619" stroke="#34d399" stroke-width="1.3" fill="none" opacity="0.85"/><path d="M428.4912709150748 147 V202" stroke="#34d399" stroke-width="1.3" fill="none" opacity="0.85"/><text x="598" y="260" fill="#cbd5e1" font-size="10" font-weight="400">ASAL</text><text x="598" y="282" fill="#cbd5e1" font-size="10" font-weight="400">OMNI-EPIC</text><path d="M407.16806491289793 257 H590" stroke="#34d399" stroke-width="1.3" fill="none" opacity="0.85"/><path d="M407.16806491289793 279 H590" stroke="#34d399" stroke-width="1.3" fill="none" opacity="0.85"/><path d="M407.16806491289793 257 V279" stroke="#34d399" stroke-width="1.3" fill="none" opacity="0.85"/><path d="M400.6813849810505 174.5 H428.4912709150748" stroke="#34d399" stroke-width="1.3" fill="none" opacity="0.85"/><path d="M400.6813849810505 268 H407.16806491289793" stroke="#34d399" stroke-width="1.3" fill="none" opacity="0.85"/><path d="M400.6813849810505 174.5 V268" stroke="#34d399" stroke-width="1.3" fill="none" opacity="0.85"/><text x="598" y="304" fill="#cbd5e1" font-size="10" font-weight="400">Promptbreeder</text><text x="598" y="326" fill="#cbd5e1" font-size="10" font-weight="400">Quality-Diversity through AI Feedback (QDAIF)</text><path d="M525.3591494412258 301 H590" stroke="#34d399" stroke-width="1.3" fill="none" opacity="0.85"/><path d="M525.3591494412258 323 H590" stroke="#34d399" stroke-width="1.3" fill="none" opacity="0.85"/><path d="M525.3591494412258 301 V323" stroke="#34d399" stroke-width="1.3" fill="none" opacity="0.85"/><text x="598" y="348" fill="#cbd5e1" font-size="10" font-weight="400">Automated Design of Agentic Systems (ADAS)</text><text x="598" y="370" fill="#cbd5e1" font-size="10" font-weight="400">Darwin Godel Machine (DGM)</text><path d="M498.58403245644894 345 H590" stroke="#34d399" stroke-width="1.3" fill="none" opacity="0.85"/><path d="M498.58403245644894 367 H590" stroke="#34d399" stroke-width="1.3" fill="none" opacity="0.85"/><path d="M498.58403245644894 345 V367" stroke="#34d399" stroke-width="1.3" fill="none" opacity="0.85"/><path d="M410.94921187546913 312 H525.3591494412258" stroke="#34d399" stroke-width="1.3" fill="none" opacity="0.85"/><path d="M410.94921187546913 356 H498.58403245644894" stroke="#34d399" stroke-width="1.3" fill="none" opacity="0.85"/><path d="M410.94921187546913 312 V356" stroke="#34d399" stroke-width="1.3" fill="none" opacity="0.85"/><text x="598" y="392" fill="#cbd5e1" font-size="10" font-weight="400">NEAT (NeuroEvolution of Augmenting Topologies)</text><text x="598" y="414" fill="#cbd5e1" font-size="10" font-weight="400">HyperNEAT</text><text x="598" y="436" fill="#cbd5e1" font-size="10" font-weight="400">ES-HyperNEAT</text><path d="M525.3591494412258 411 H590" stroke="#34d399" stroke-width="1.3" fill="none" opacity="0.85"/><path d="M525.3591494412258 433 H590" stroke="#34d399" stroke-width="1.3" fill="none" opacity="0.85"/><path d="M525.3591494412258 411 V433" stroke="#34d399" stroke-width="1.3" fill="none" opacity="0.85"/><path d="M488.3113975220924 389 H590" stroke="#34d399" stroke-width="1.3" fill="none" opacity="0.85"/><path d="M488.3113975220924 422 H525.3591494412258" stroke="#34d399" stroke-width="1.3" fill="none" opacity="0.85"/><path d="M488.3113975220924 389 V422" stroke="#34d399" stroke-width="1.3" fill="none" opacity="0.85"/><text x="598" y="458" fill="#cbd5e1" font-size="10" font-weight="400">Evolution through Large Models (ELM)</text><text x="598" y="480" fill="#cbd5e1" font-size="10" font-weight="400">MAP-Elites</text><text x="598" y="502" fill="#cbd5e1" font-size="10" font-weight="400">Quality-Diversity (illumination algorithms)</text><path d="M590 477 H590" stroke="#34d399" stroke-width="1.3" fill="none" opacity="0.85"/><path d="M590 499 H590" stroke="#34d399" stroke-width="1.3" fill="none" opacity="0.85"/><path d="M590 477 V499" stroke="#34d399" stroke-width="1.3" fill="none" opacity="0.85"/><text x="598" y="524" fill="#cbd5e1" font-size="10" font-weight="400">Novelty Search</text><text x="598" y="546" fill="#cbd5e1" font-size="10" font-weight="400">OpenELM</text><path d="M498.58403245644894 521 H590" stroke="#34d399" stroke-width="1.3" fill="none" opacity="0.85"/><path d="M498.58403245644894 543 H590" stroke="#34d399" stroke-width="1.3" fill="none" opacity="0.85"/><path d="M498.58403245644894 521 V543" stroke="#34d399" stroke-width="1.3" fill="none" opacity="0.85"/><path d="M460.7182988824514 488 H590" stroke="#34d399" stroke-width="1.3" fill="none" opacity="0.85"/><path d="M460.7182988824514 532 H498.58403245644894" stroke="#34d399" stroke-width="1.3" fill="none" opacity="0.85"/><path d="M460.7182988824514 488 V532" stroke="#34d399" stroke-width="1.3" fill="none" opacity="0.85"/><path d="M432.2175244564841 455 H590" stroke="#34d399" stroke-width="1.3" fill="none" opacity="0.85"/><path d="M432.2175244564841 510 H460.7182988824514" stroke="#34d399" stroke-width="1.3" fill="none" opacity="0.85"/><path d="M432.2175244564841 455 V510" stroke="#34d399" stroke-width="1.3" fill="none" opacity="0.85"/><path d="M410.7953705143047 405.5 H488.3113975220924" stroke="#34d399" stroke-width="1.3" fill="none" opacity="0.85"/><path d="M410.7953705143047 482.5 H432.2175244564841" stroke="#34d399" stroke-width="1.3" fill="none" opacity="0.85"/><path d="M410.7953705143047 405.5 V482.5" stroke="#34d399" stroke-width="1.3" fill="none" opacity="0.85"/><path d="M367.29447177973236 334 H410.94921187546913" stroke="#34d399" stroke-width="1.3" fill="none" opacity="0.85"/><path d="M367.29447177973236 444 H410.7953705143047" stroke="#34d399" stroke-width="1.3" fill="none" opacity="0.85"/><path d="M367.29447177973236 334 V444" stroke="#34d399" stroke-width="1.3" fill="none" opacity="0.85"/><path d="M309.45908164090906 221.25 H400.6813849810505" stroke="#34d399" stroke-width="1.3" fill="none" opacity="0.85"/><path d="M309.45908164090906 389 H367.29447177973236" stroke="#34d399" stroke-width="1.3" fill="none" opacity="0.85"/><path d="M309.45908164090906 221.25 V389" stroke="#34d399" stroke-width="1.3" fill="none" opacity="0.85"/><text x="598" y="568" fill="#cbd5e1" font-size="10" font-weight="400">DERL (Deep Evolutionary Reinforcement Learning)</text><text x="598" y="590" fill="#cbd5e1" font-size="10" font-weight="400">UNIMAL (Universal Animal design space)</text><path d="M525.3591494412258 565 H590" stroke="#34d399" stroke-width="1.3" fill="none" opacity="0.85"/><path d="M525.3591494412258 587 H590" stroke="#34d399" stroke-width="1.3" fill="none" opacity="0.85"/><path d="M525.3591494412258 565 V587" stroke="#34d399" stroke-width="1.3" fill="none" opacity="0.85"/><text x="598" y="612" fill="#cbd5e1" font-size="10" font-weight="400">Transform2Act</text><text x="598" y="634" fill="#cbd5e1" font-size="10" font-weight="400">Neural Graph Evolution (NGE)</text><path d="M478.0387625877359 609 H590" stroke="#34d399" stroke-width="1.3" fill="none" opacity="0.85"/><path d="M478.0387625877359 631 H590" stroke="#34d399" stroke-width="1.3" fill="none" opacity="0.85"/><path d="M478.0387625877359 609 V631" stroke="#34d399" stroke-width="1.3" fill="none" opacity="0.85"/><path d="M469.37853073509365 576 H525.3591494412258" stroke="#34d399" stroke-width="1.3" fill="none" opacity="0.85"/><path d="M469.37853073509365 620 H478.0387625877359" stroke="#34d399" stroke-width="1.3" fill="none" opacity="0.85"/><path d="M469.37853073509365 576 V620" stroke="#34d399" stroke-width="1.3" fill="none" opacity="0.85"/><text x="598" y="656" fill="#cbd5e1" font-size="10" font-weight="400">Karl Sims VC</text><text x="598" y="678" fill="#cbd5e1" font-size="10" font-weight="400">3D Virtual Creature Evolution (3DVCE)</text><text x="598" y="700" fill="#cbd5e1" font-size="10" font-weight="400">Keiwan Evolution</text><path d="M525.3591494412258 675 H590" stroke="#34d399" stroke-width="1.3" fill="none" opacity="0.85"/><path d="M525.3591494412258 697 H590" stroke="#34d399" stroke-width="1.3" fill="none" opacity="0.85"/><path d="M525.3591494412258 675 V697" stroke="#34d399" stroke-width="1.3" fill="none" opacity="0.85"/><path d="M469.37853073509365 653 H590" stroke="#34d399" stroke-width="1.3" fill="none" opacity="0.85"/><path d="M469.37853073509365 686 H525.3591494412258" stroke="#34d399" stroke-width="1.3" fill="none" opacity="0.85"/><path d="M469.37853073509365 653 V686" stroke="#34d399" stroke-width="1.3" fill="none" opacity="0.85"/><text x="598" y="722" fill="#cbd5e1" font-size="10" font-weight="400">Evolving Soft Robots (Cheney / Unshackling Evolution)</text><text x="598" y="744" fill="#cbd5e1" font-size="10" font-weight="400">GOLEM (Genetically Organized Lifelike Electro Mechanics)</text><text x="598" y="766" fill="#cbd5e1" font-size="10" font-weight="400">Krcah Evolved Virtual Creatures (ERO)</text><path d="M478.0387625877359 741 H590" stroke="#34d399" stroke-width="1.3" fill="none" opacity="0.85"/><path d="M478.0387625877359 763 H590" stroke="#34d399" stroke-width="1.3" fill="none" opacity="0.85"/><path d="M478.0387625877359 741 V763" stroke="#34d399" stroke-width="1.3" fill="none" opacity="0.85"/><path d="M453.0884814548134 719 H590" stroke="#34d399" stroke-width="1.3" fill="none" opacity="0.85"/><path d="M453.0884814548134 752 H478.0387625877359" stroke="#34d399" stroke-width="1.3" fill="none" opacity="0.85"/><path d="M453.0884814548134 719 V752" stroke="#34d399" stroke-width="1.3" fill="none" opacity="0.85"/><path d="M437.2648464730418 669.5 H469.37853073509365" stroke="#34d399" stroke-width="1.3" fill="none" opacity="0.85"/><path d="M437.2648464730418 735.5 H453.0884814548134" stroke="#34d399" stroke-width="1.3" fill="none" opacity="0.85"/><path d="M437.2648464730418 669.5 V735.5" stroke="#34d399" stroke-width="1.3" fill="none" opacity="0.85"/><path d="M372.43965107119305 598 H469.37853073509365" stroke="#34d399" stroke-width="1.3" fill="none" opacity="0.85"/><path d="M372.43965107119305 702.5 H437.2648464730418" stroke="#34d399" stroke-width="1.3" fill="none" opacity="0.85"/><path d="M372.43965107119305 598 V702.5" stroke="#34d399" stroke-width="1.3" fill="none" opacity="0.85"/><text x="598" y="788" fill="#cbd5e1" font-size="10" font-weight="400">Cell Lab: Evolution Sandbox</text><text x="598" y="810" fill="#cbd5e1" font-size="10" font-weight="400">Primordial Particle Systems</text><text x="598" y="832" fill="#cbd5e1" font-size="10" font-weight="400">Squirm3</text><path d="M478.0387625877359 807 H590" stroke="#34d399" stroke-width="1.3" fill="none" opacity="0.85"/><path d="M478.0387625877359 829 H590" stroke="#34d399" stroke-width="1.3" fill="none" opacity="0.85"/><path d="M478.0387625877359 807 V829" stroke="#34d399" stroke-width="1.3" fill="none" opacity="0.85"/><path d="M469.37853073509365 785 H590" stroke="#34d399" stroke-width="1.3" fill="none" opacity="0.85"/><path d="M469.37853073509365 818 H478.0387625877359" stroke="#34d399" stroke-width="1.3" fill="none" opacity="0.85"/><path d="M469.37853073509365 785 V818" stroke="#34d399" stroke-width="1.3" fill="none" opacity="0.85"/><text x="598" y="854" fill="#cbd5e1" font-size="10" font-weight="400">Species: Artificial Life, Real Evolution</text><text x="598" y="876" fill="#cbd5e1" font-size="10" font-weight="400">Sebastian Lague Ecosystem</text><text x="598" y="898" fill="#cbd5e1" font-size="10" font-weight="400">Primer Evolution Simulations</text><path d="M498.58403245644894 873 H590" stroke="#34d399" stroke-width="1.3" fill="none" opacity="0.85"/><path d="M498.58403245644894 895 H590" stroke="#34d399" stroke-width="1.3" fill="none" opacity="0.85"/><path d="M498.58403245644894 873 V895" stroke="#34d399" stroke-width="1.3" fill="none" opacity="0.85"/><path d="M461.74871330745566 851 H590" stroke="#34d399" stroke-width="1.3" fill="none" opacity="0.85"/><path d="M461.74871330745566 884 H498.58403245644894" stroke="#34d399" stroke-width="1.3" fill="none" opacity="0.85"/><path d="M461.74871330745566 851 V884" stroke="#34d399" stroke-width="1.3" fill="none" opacity="0.85"/><path d="M435.67791171501983 801.5 H469.37853073509365" stroke="#34d399" stroke-width="1.3" fill="none" opacity="0.85"/><path d="M435.67791171501983 867.5 H461.74871330745566" stroke="#34d399" stroke-width="1.3" fill="none" opacity="0.85"/><path d="M435.67791171501983 801.5 V867.5" stroke="#34d399" stroke-width="1.3" fill="none" opacity="0.85"/><text x="598" y="920" fill="#cbd5e1" font-size="10" font-weight="400">Darwin Pond</text><text x="598" y="942" fill="#cbd5e1" font-size="10" font-weight="400">Gene Pool</text><path d="M493.0387241618386 917 H590" stroke="#34d399" stroke-width="1.3" fill="none" opacity="0.85"/><path d="M493.0387241618386 939 H590" stroke="#34d399" stroke-width="1.3" fill="none" opacity="0.85"/><path d="M493.0387241618386 917 V939" stroke="#34d399" stroke-width="1.3" fill="none" opacity="0.85"/><text x="598" y="964" fill="#cbd5e1" font-size="10" font-weight="400">Picbreeder</text><text x="598" y="986" fill="#cbd5e1" font-size="10" font-weight="400">EndlessForms</text><path d="M445.4586640271754 961 H590" stroke="#34d399" stroke-width="1.3" fill="none" opacity="0.85"/><path d="M445.4586640271754 983 H590" stroke="#34d399" stroke-width="1.3" fill="none" opacity="0.85"/><path d="M445.4586640271754 961 V983" stroke="#34d399" stroke-width="1.3" fill="none" opacity="0.85"/><path d="M424.12667961842976 928 H493.0387241618386" stroke="#34d399" stroke-width="1.3" fill="none" opacity="0.85"/><path d="M424.12667961842976 972 H445.4586640271754" stroke="#34d399" stroke-width="1.3" fill="none" opacity="0.85"/><path d="M424.12667961842976 928 V972" stroke="#34d399" stroke-width="1.3" fill="none" opacity="0.85"/><text x="598" y="1008" fill="#cbd5e1" font-size="10" font-weight="400">ALIEN</text><text x="598" y="1030" fill="#cbd5e1" font-size="10" font-weight="400">breve</text><text x="598" y="1052" fill="#cbd5e1" font-size="10" font-weight="400">Framsticks</text><text x="598" y="1074" fill="#cbd5e1" font-size="10" font-weight="400">Division Blocks</text><path d="M452.87604868467344 1049 H590" stroke="#34d399" stroke-width="1.3" fill="none" opacity="0.85"/><path d="M452.87604868467344 1071 H590" stroke="#34d399" stroke-width="1.3" fill="none" opacity="0.85"/><path d="M452.87604868467344 1049 V1071" stroke="#34d399" stroke-width="1.3" fill="none" opacity="0.85"/><path d="M429.21620204518496 1027 H590" stroke="#34d399" stroke-width="1.3" fill="none" opacity="0.85"/><path d="M429.21620204518496 1060 H452.87604868467344" stroke="#34d399" stroke-width="1.3" fill="none" opacity="0.85"/><path d="M429.21620204518496 1027 V1060" stroke="#34d399" stroke-width="1.3" fill="none" opacity="0.85"/><path d="M404.17265795293804 1005 H590" stroke="#34d399" stroke-width="1.3" fill="none" opacity="0.85"/><path d="M404.17265795293804 1043.5 H429.21620204518496" stroke="#34d399" stroke-width="1.3" fill="none" opacity="0.85"/><path d="M404.17265795293804 1005 V1043.5" stroke="#34d399" stroke-width="1.3" fill="none" opacity="0.85"/><path d="M387.4196223262653 950 H424.12667961842976" stroke="#34d399" stroke-width="1.3" fill="none" opacity="0.85"/><path d="M387.4196223262653 1024.25 H404.17265795293804" stroke="#34d399" stroke-width="1.3" fill="none" opacity="0.85"/><path d="M387.4196223262653 950 V1024.25" stroke="#34d399" stroke-width="1.3" fill="none" opacity="0.85"/><path d="M365.00846785791794 834.5 H435.67791171501983" stroke="#34d399" stroke-width="1.3" fill="none" opacity="0.85"/><path d="M365.00846785791794 987.125 H387.4196223262653" stroke="#34d399" stroke-width="1.3" fill="none" opacity="0.85"/><path d="M365.00846785791794 834.5 V987.125" stroke="#34d399" stroke-width="1.3" fill="none" opacity="0.85"/><text x="598" y="1096" fill="#cbd5e1" font-size="10" font-weight="400">Polyworld</text><text x="598" y="1118" fill="#cbd5e1" font-size="10" font-weight="400">Creatures</text><path d="M438.403767905367 1093 H590" stroke="#34d399" stroke-width="1.3" fill="none" opacity="0.85"/><path d="M438.403767905367 1115 H590" stroke="#34d399" stroke-width="1.3" fill="none" opacity="0.85"/><path d="M438.403767905367 1093 V1115" stroke="#34d399" stroke-width="1.3" fill="none" opacity="0.85"/><text x="598" y="1140" fill="#cbd5e1" font-size="10" font-weight="400">Innovation Engines</text><text x="598" y="1162" fill="#cbd5e1" font-size="10" font-weight="400">Geb</text><text x="598" y="1184" fill="#cbd5e1" font-size="10" font-weight="400">MABE</text><text x="598" y="1206" fill="#cbd5e1" font-size="10" font-weight="400">Minimal Criterion Coevolution (MCC)</text><path d="M478.0387625877359 1181 H590" stroke="#34d399" stroke-width="1.3" fill="none" opacity="0.85"/><path d="M478.0387625877359 1203 H590" stroke="#34d399" stroke-width="1.3" fill="none" opacity="0.85"/><path d="M478.0387625877359 1181 V1203" stroke="#34d399" stroke-width="1.3" fill="none" opacity="0.85"/><path d="M453.0884814548134 1159 H590" stroke="#34d399" stroke-width="1.3" fill="none" opacity="0.85"/><path d="M453.0884814548134 1192 H478.0387625877359" stroke="#34d399" stroke-width="1.3" fill="none" opacity="0.85"/><path d="M453.0884814548134 1159 V1192" stroke="#34d399" stroke-width="1.3" fill="none" opacity="0.85"/><text x="598" y="1228" fill="#cbd5e1" font-size="10" font-weight="400">Chromaria</text><text x="598" y="1250" fill="#cbd5e1" font-size="10" font-weight="400">Evolve 4.0</text><text x="598" y="1272" fill="#cbd5e1" font-size="10" font-weight="400">biosim4</text><text x="598" y="1294" fill="#cbd5e1" font-size="10" font-weight="400">The Bibites</text><path d="M498.58403245644894 1269 H590" stroke="#34d399" stroke-width="1.3" fill="none" opacity="0.85"/><path d="M498.58403245644894 1291 H590" stroke="#34d399" stroke-width="1.3" fill="none" opacity="0.85"/><path d="M498.58403245644894 1269 V1291" stroke="#34d399" stroke-width="1.3" fill="none" opacity="0.85"/><path d="M478.0387625877359 1247 H590" stroke="#34d399" stroke-width="1.3" fill="none" opacity="0.85"/><path d="M478.0387625877359 1280 H498.58403245644894" stroke="#34d399" stroke-width="1.3" fill="none" opacity="0.85"/><path d="M478.0387625877359 1247 V1280" stroke="#34d399" stroke-width="1.3" fill="none" opacity="0.85"/><path d="M425.2573773639737 1225 H590" stroke="#34d399" stroke-width="1.3" fill="none" opacity="0.85"/><path d="M425.2573773639737 1263.5 H478.0387625877359" stroke="#34d399" stroke-width="1.3" fill="none" opacity="0.85"/><path d="M425.2573773639737 1225 V1263.5" stroke="#34d399" stroke-width="1.3" fill="none" opacity="0.85"/><path d="M407.6106301190455 1175.5 H453.0884814548134" stroke="#34d399" stroke-width="1.3" fill="none" opacity="0.85"/><path d="M407.6106301190455 1244.25 H425.2573773639737" stroke="#34d399" stroke-width="1.3" fill="none" opacity="0.85"/><path d="M407.6106301190455 1175.5 V1244.25" stroke="#34d399" stroke-width="1.3" fill="none" opacity="0.85"/><path d="M377.07365912705137 1137 H590" stroke="#34d399" stroke-width="1.3" fill="none" opacity="0.85"/><path d="M377.07365912705137 1209.875 H407.6106301190455" stroke="#34d399" stroke-width="1.3" fill="none" opacity="0.85"/><path d="M377.07365912705137 1137 V1209.875" stroke="#34d399" stroke-width="1.3" fill="none" opacity="0.85"/><path d="M360.75857988109817 1104 H438.403767905367" stroke="#34d399" stroke-width="1.3" fill="none" opacity="0.85"/><path d="M360.75857988109817 1173.4375 H377.07365912705137" stroke="#34d399" stroke-width="1.3" fill="none" opacity="0.85"/><path d="M360.75857988109817 1104 V1173.4375" stroke="#34d399" stroke-width="1.3" fill="none" opacity="0.85"/><path d="M323.2063571653623 910.8125 H365.00846785791794" stroke="#34d399" stroke-width="1.3" fill="none" opacity="0.85"/><path d="M323.2063571653623 1138.71875 H360.75857988109817" stroke="#34d399" stroke-width="1.3" fill="none" opacity="0.85"/><path d="M323.2063571653623 910.8125 V1138.71875" stroke="#34d399" stroke-width="1.3" fill="none" opacity="0.85"/><path d="M307.68132138333 650.25 H372.43965107119305" stroke="#34d399" stroke-width="1.3" fill="none" opacity="0.85"/><path d="M307.68132138333 1024.765625 H323.2063571653623" stroke="#34d399" stroke-width="1.3" fill="none" opacity="0.85"/><path d="M307.68132138333 650.25 V1024.765625" stroke="#34d399" stroke-width="1.3" fill="none" opacity="0.85"/><path d="M265.28451684275717 305.125 H309.45908164090906" stroke="#34d399" stroke-width="1.3" fill="none" opacity="0.85"/><path d="M265.28451684275717 837.5078125 H307.68132138333" stroke="#34d399" stroke-width="1.3" fill="none" opacity="0.85"/><path d="M265.28451684275717 305.125 V837.5078125" stroke="#34d399" stroke-width="1.3" fill="none" opacity="0.85"/><text x="598" y="1316" fill="#cbd5e1" font-size="10" font-weight="400">Sugarscape</text><text x="598" y="1338" fill="#cbd5e1" font-size="10" font-weight="400">Swarm</text><path d="M517.7293320135877 1313 H590" stroke="#34d399" stroke-width="1.3" fill="none" opacity="0.85"/><path d="M517.7293320135877 1335 H590" stroke="#34d399" stroke-width="1.3" fill="none" opacity="0.85"/><path d="M517.7293320135877 1313 V1335" stroke="#34d399" stroke-width="1.3" fill="none" opacity="0.85"/><text x="598" y="1360" fill="#cbd5e1" font-size="10" font-weight="400">Echo</text><text x="598" y="1382" fill="#cbd5e1" font-size="10" font-weight="400">SimLife: The Genetic Playground</text><path d="M445.4586640271754 1357 H590" stroke="#34d399" stroke-width="1.3" fill="none" opacity="0.85"/><path d="M445.4586640271754 1379 H590" stroke="#34d399" stroke-width="1.3" fill="none" opacity="0.85"/><path d="M445.4586640271754 1357 V1379" stroke="#34d399" stroke-width="1.3" fill="none" opacity="0.85"/><path d="M434.12260774359316 1324 H517.7293320135877" stroke="#34d399" stroke-width="1.3" fill="none" opacity="0.85"/><path d="M434.12260774359316 1368 H445.4586640271754" stroke="#34d399" stroke-width="1.3" fill="none" opacity="0.85"/><path d="M434.12260774359316 1324 V1368" stroke="#34d399" stroke-width="1.3" fill="none" opacity="0.85"/><text x="598" y="1404" fill="#cbd5e1" font-size="10" font-weight="400">Tierra</text><text x="598" y="1426" fill="#cbd5e1" font-size="10" font-weight="400">Avida</text><path d="M473.4670494103671 1401 H590" stroke="#34d399" stroke-width="1.3" fill="none" opacity="0.85"/><path d="M473.4670494103671 1423 H590" stroke="#34d399" stroke-width="1.3" fill="none" opacity="0.85"/><path d="M473.4670494103671 1401 V1423" stroke="#34d399" stroke-width="1.3" fill="none" opacity="0.85"/><text x="598" y="1448" fill="#cbd5e1" font-size="10" font-weight="400">The Life Engine</text><text x="598" y="1470" fill="#cbd5e1" font-size="10" font-weight="400">Nanopond</text><text x="598" y="1492" fill="#cbd5e1" font-size="10" font-weight="400">Physis</text><path d="M498.58403245644894 1467 H590" stroke="#34d399" stroke-width="1.3" fill="none" opacity="0.85"/><path d="M498.58403245644894 1489 H590" stroke="#34d399" stroke-width="1.3" fill="none" opacity="0.85"/><path d="M498.58403245644894 1467 V1489" stroke="#34d399" stroke-width="1.3" fill="none" opacity="0.85"/><text x="598" y="1514" fill="#cbd5e1" font-size="10" font-weight="400">Network Tierra</text><text x="598" y="1536" fill="#cbd5e1" font-size="10" font-weight="400">Core War</text><text x="598" y="1558" fill="#cbd5e1" font-size="10" font-weight="400">Cosmos</text><text x="598" y="1580" fill="#cbd5e1" font-size="10" font-weight="400">Amoeba</text><path d="M590 1555 H590" stroke="#34d399" stroke-width="1.3" fill="none" opacity="0.85"/><path d="M590 1577 H590" stroke="#34d399" stroke-width="1.3" fill="none" opacity="0.85"/><path d="M590 1555 V1577" stroke="#34d399" stroke-width="1.3" fill="none" opacity="0.85"/><path d="M498.58403245644894 1533 H590" stroke="#34d399" stroke-width="1.3" fill="none" opacity="0.85"/><path d="M498.58403245644894 1566 H590" stroke="#34d399" stroke-width="1.3" fill="none" opacity="0.85"/><path d="M498.58403245644894 1533 V1566" stroke="#34d399" stroke-width="1.3" fill="none" opacity="0.85"/><path d="M485.9621212651164 1511 H590" stroke="#34d399" stroke-width="1.3" fill="none" opacity="0.85"/><path d="M485.9621212651164 1549.5 H498.58403245644894" stroke="#34d399" stroke-width="1.3" fill="none" opacity="0.85"/><path d="M485.9621212651164 1511 V1549.5" stroke="#34d399" stroke-width="1.3" fill="none" opacity="0.85"/><path d="M480.7524574548312 1478 H498.58403245644894" stroke="#34d399" stroke-width="1.3" fill="none" opacity="0.85"/><path d="M480.7524574548312 1530.25 H485.9621212651164" stroke="#34d399" stroke-width="1.3" fill="none" opacity="0.85"/><path d="M480.7524574548312 1478 V1530.25" stroke="#34d399" stroke-width="1.3" fill="none" opacity="0.85"/><path d="M462.76501654398527 1445 H590" stroke="#34d399" stroke-width="1.3" fill="none" opacity="0.85"/><path d="M462.76501654398527 1504.125 H480.7524574548312" stroke="#34d399" stroke-width="1.3" fill="none" opacity="0.85"/><path d="M462.76501654398527 1445 V1504.125" stroke="#34d399" stroke-width="1.3" fill="none" opacity="0.85"/><path d="M444.83705665378795 1412 H473.4670494103671" stroke="#34d399" stroke-width="1.3" fill="none" opacity="0.85"/><path d="M444.83705665378795 1474.5625 H462.76501654398527" stroke="#34d399" stroke-width="1.3" fill="none" opacity="0.85"/><path d="M444.83705665378795 1412 V1474.5625" stroke="#34d399" stroke-width="1.3" fill="none" opacity="0.85"/><text x="598" y="1602" fill="#cbd5e1" font-size="10" font-weight="400">Aevol</text><text x="598" y="1624" fill="#cbd5e1" font-size="10" font-weight="400">Avida-ED</text><path d="M431.66289959150214 1599 H590" stroke="#34d399" stroke-width="1.3" fill="none" opacity="0.85"/><path d="M431.66289959150214 1621 H590" stroke="#34d399" stroke-width="1.3" fill="none" opacity="0.85"/><path d="M431.66289959150214 1599 V1621" stroke="#34d399" stroke-width="1.3" fill="none" opacity="0.85"/><path d="M393.4569203481781 1443.28125 H444.83705665378795" stroke="#34d399" stroke-width="1.3" fill="none" opacity="0.85"/><path d="M393.4569203481781 1610 H431.66289959150214" stroke="#34d399" stroke-width="1.3" fill="none" opacity="0.85"/><path d="M393.4569203481781 1443.28125 V1610" stroke="#34d399" stroke-width="1.3" fill="none" opacity="0.85"/><path d="M369.64668107436626 1346 H434.12260774359316" stroke="#34d399" stroke-width="1.3" fill="none" opacity="0.85"/><path d="M369.64668107436626 1526.640625 H393.4569203481781" stroke="#34d399" stroke-width="1.3" fill="none" opacity="0.85"/><path d="M369.64668107436626 1346 V1526.640625" stroke="#34d399" stroke-width="1.3" fill="none" opacity="0.85"/><text x="598" y="1646" fill="#cbd5e1" font-size="10" font-weight="400">El Farol Bar Problem</text><text x="598" y="1668" fill="#cbd5e1" font-size="10" font-weight="400">Generative Agents (Smallville)</text><path d="M396.0774483236772 1643 H590" stroke="#34d399" stroke-width="1.3" fill="none" opacity="0.85"/><path d="M396.0774483236772 1665 H590" stroke="#34d399" stroke-width="1.3" fill="none" opacity="0.85"/><path d="M396.0774483236772 1643 V1665" stroke="#34d399" stroke-width="1.3" fill="none" opacity="0.85"/><text x="598" y="1690" fill="#cbd5e1" font-size="10" font-weight="400">Artificial Anasazi</text><text x="598" y="1712" fill="#cbd5e1" font-size="10" font-weight="400">Schelling Segregation Model</text><text x="598" y="1734" fill="#cbd5e1" font-size="10" font-weight="400">SimEarth: The Living Planet</text><text x="598" y="1756" fill="#cbd5e1" font-size="10" font-weight="400">SimAnt: The Electric Ant Colony</text><text x="598" y="1778" fill="#cbd5e1" font-size="10" font-weight="400">StarLogo</text><text x="598" y="1800" fill="#cbd5e1" font-size="10" font-weight="400">Ascape</text><path d="M498.58403245644894 1775 H590" stroke="#34d399" stroke-width="1.3" fill="none" opacity="0.85"/><path d="M498.58403245644894 1797 H590" stroke="#34d399" stroke-width="1.3" fill="none" opacity="0.85"/><path d="M498.58403245644894 1775 V1797" stroke="#34d399" stroke-width="1.3" fill="none" opacity="0.85"/><path d="M479.6511656694502 1753 H590" stroke="#34d399" stroke-width="1.3" fill="none" opacity="0.85"/><path d="M479.6511656694502 1786 H498.58403245644894" stroke="#34d399" stroke-width="1.3" fill="none" opacity="0.85"/><path d="M479.6511656694502 1753 V1786" stroke="#34d399" stroke-width="1.3" fill="none" opacity="0.85"/><path d="M458.3513033537548 1731 H590" stroke="#34d399" stroke-width="1.3" fill="none" opacity="0.85"/><path d="M458.3513033537548 1769.5 H479.6511656694502" stroke="#34d399" stroke-width="1.3" fill="none" opacity="0.85"/><path d="M458.3513033537548 1731 V1769.5" stroke="#34d399" stroke-width="1.3" fill="none" opacity="0.85"/><path d="M450.1547475583972 1709 H590" stroke="#34d399" stroke-width="1.3" fill="none" opacity="0.85"/><path d="M450.1547475583972 1750.25 H458.3513033537548" stroke="#34d399" stroke-width="1.3" fill="none" opacity="0.85"/><path d="M450.1547475583972 1709 V1750.25" stroke="#34d399" stroke-width="1.3" fill="none" opacity="0.85"/><path d="M434.0281550057307 1687 H590" stroke="#34d399" stroke-width="1.3" fill="none" opacity="0.85"/><path d="M434.0281550057307 1729.625 H450.1547475583972" stroke="#34d399" stroke-width="1.3" fill="none" opacity="0.85"/><path d="M434.0281550057307 1687 V1729.625" stroke="#34d399" stroke-width="1.3" fill="none" opacity="0.85"/><text x="598" y="1822" fill="#cbd5e1" font-size="10" font-weight="400">Boids</text><text x="598" y="1844" fill="#cbd5e1" font-size="10" font-weight="400">NetLogo</text><text x="598" y="1866" fill="#cbd5e1" font-size="10" font-weight="400">Mesa</text><path d="M590 1841 H590" stroke="#34d399" stroke-width="1.3" fill="none" opacity="0.85"/><path d="M590 1863 H590" stroke="#34d399" stroke-width="1.3" fill="none" opacity="0.85"/><path d="M590 1841 V1863" stroke="#34d399" stroke-width="1.3" fill="none" opacity="0.85"/><text x="598" y="1888" fill="#cbd5e1" font-size="10" font-weight="400">GAMA Platform</text><text x="598" y="1910" fill="#cbd5e1" font-size="10" font-weight="400">MASON</text><text x="598" y="1932" fill="#cbd5e1" font-size="10" font-weight="400">Repast</text><path d="M525.3591494412258 1907 H590" stroke="#34d399" stroke-width="1.3" fill="none" opacity="0.85"/><path d="M525.3591494412258 1929 H590" stroke="#34d399" stroke-width="1.3" fill="none" opacity="0.85"/><path d="M525.3591494412258 1907 V1929" stroke="#34d399" stroke-width="1.3" fill="none" opacity="0.85"/><path d="M511.97159094883733 1885 H590" stroke="#34d399" stroke-width="1.3" fill="none" opacity="0.85"/><path d="M511.97159094883733 1918 H525.3591494412258" stroke="#34d399" stroke-width="1.3" fill="none" opacity="0.85"/><path d="M511.97159094883733 1885 V1918" stroke="#34d399" stroke-width="1.3" fill="none" opacity="0.85"/><path d="M500.6606481618035 1852 H590" stroke="#34d399" stroke-width="1.3" fill="none" opacity="0.85"/><path d="M500.6606481618035 1901.5 H511.97159094883733" stroke="#34d399" stroke-width="1.3" fill="none" opacity="0.85"/><path d="M500.6606481618035 1852 V1901.5" stroke="#34d399" stroke-width="1.3" fill="none" opacity="0.85"/><path d="M433.3114864898772 1819 H590" stroke="#34d399" stroke-width="1.3" fill="none" opacity="0.85"/><path d="M433.3114864898772 1876.75 H500.6606481618035" stroke="#34d399" stroke-width="1.3" fill="none" opacity="0.85"/><path d="M433.3114864898772 1819 V1876.75" stroke="#34d399" stroke-width="1.3" fill="none" opacity="0.85"/><path d="M394.31431389306357 1708.3125 H434.0281550057307" stroke="#34d399" stroke-width="1.3" fill="none" opacity="0.85"/><path d="M394.31431389306357 1847.875 H433.3114864898772" stroke="#34d399" stroke-width="1.3" fill="none" opacity="0.85"/><path d="M394.31431389306357 1708.3125 V1847.875" stroke="#34d399" stroke-width="1.3" fill="none" opacity="0.85"/><path d="M348.5291384344538 1654 H396.0774483236772" stroke="#34d399" stroke-width="1.3" fill="none" opacity="0.85"/><path d="M348.5291384344538 1778.09375 H394.31431389306357" stroke="#34d399" stroke-width="1.3" fill="none" opacity="0.85"/><path d="M348.5291384344538 1654 V1778.09375" stroke="#34d399" stroke-width="1.3" fill="none" opacity="0.85"/><path d="M272.0491093875792 1436.3203125 H369.64668107436626" stroke="#34d399" stroke-width="1.3" fill="none" opacity="0.85"/><path d="M272.0491093875792 1716.046875 H348.5291384344538" stroke="#34d399" stroke-width="1.3" fill="none" opacity="0.85"/><path d="M272.0491093875792 1436.3203125 V1716.046875" stroke="#34d399" stroke-width="1.3" fill="none" opacity="0.85"/><text x="598" y="1954" fill="#cbd5e1" font-size="10" font-weight="400">Lenia</text><text x="598" y="1976" fill="#cbd5e1" font-size="10" font-weight="400">Particle Lenia</text><path d="M498.58403245644894 1951 H590" stroke="#34d399" stroke-width="1.3" fill="none" opacity="0.85"/><path d="M498.58403245644894 1973 H590" stroke="#34d399" stroke-width="1.3" fill="none" opacity="0.85"/><path d="M498.58403245644894 1951 V1973" stroke="#34d399" stroke-width="1.3" fill="none" opacity="0.85"/><text x="598" y="1998" fill="#cbd5e1" font-size="10" font-weight="400">Flow Lenia</text><text x="598" y="2020" fill="#cbd5e1" font-size="10" font-weight="400">Thrive</text><path d="M460.7182988824514 1995 H590" stroke="#34d399" stroke-width="1.3" fill="none" opacity="0.85"/><path d="M460.7182988824514 2017 H590" stroke="#34d399" stroke-width="1.3" fill="none" opacity="0.85"/><path d="M460.7182988824514 1995 V2017" stroke="#34d399" stroke-width="1.3" fill="none" opacity="0.85"/><path d="M426.4927903159552 1962 H498.58403245644894" stroke="#34d399" stroke-width="1.3" fill="none" opacity="0.85"/><path d="M426.4927903159552 2006 H460.7182988824514" stroke="#34d399" stroke-width="1.3" fill="none" opacity="0.85"/><path d="M426.4927903159552 1962 V2006" stroke="#34d399" stroke-width="1.3" fill="none" opacity="0.85"/><text x="598" y="2042" fill="#cbd5e1" font-size="10" font-weight="400">Clusters (Particle Life)</text><text x="598" y="2064" fill="#cbd5e1" font-size="10" font-weight="400">Spore</text><text x="598" y="2086" fill="#cbd5e1" font-size="10" font-weight="400">Noita</text><text x="598" y="2108" fill="#cbd5e1" font-size="10" font-weight="400">Sandspiel</text><path d="M498.58403245644894 2083 H590" stroke="#34d399" stroke-width="1.3" fill="none" opacity="0.85"/><path d="M498.58403245644894 2105 H590" stroke="#34d399" stroke-width="1.3" fill="none" opacity="0.85"/><path d="M498.58403245644894 2083 V2105" stroke="#34d399" stroke-width="1.3" fill="none" opacity="0.85"/><path d="M446.19059923697677 2061 H590" stroke="#34d399" stroke-width="1.3" fill="none" opacity="0.85"/><path d="M446.19059923697677 2094 H498.58403245644894" stroke="#34d399" stroke-width="1.3" fill="none" opacity="0.85"/><path d="M446.19059923697677 2061 V2094" stroke="#34d399" stroke-width="1.3" fill="none" opacity="0.85"/><path d="M441.3480326884852 2039 H590" stroke="#34d399" stroke-width="1.3" fill="none" opacity="0.85"/><path d="M441.3480326884852 2077.5 H446.19059923697677" stroke="#34d399" stroke-width="1.3" fill="none" opacity="0.85"/><path d="M441.3480326884852 2039 V2077.5" stroke="#34d399" stroke-width="1.3" fill="none" opacity="0.85"/><text x="598" y="2130" fill="#cbd5e1" font-size="10" font-weight="400">OpenSteer</text><text x="598" y="2152" fill="#cbd5e1" font-size="10" font-weight="400">Pezzza's Ant Colony Simulation</text><path d="M498.58403245644894 2127 H590" stroke="#34d399" stroke-width="1.3" fill="none" opacity="0.85"/><path d="M498.58403245644894 2149 H590" stroke="#34d399" stroke-width="1.3" fill="none" opacity="0.85"/><path d="M498.58403245644894 2127 V2149" stroke="#34d399" stroke-width="1.3" fill="none" opacity="0.85"/><text x="598" y="2174" fill="#cbd5e1" font-size="10" font-weight="400">The Powder Toy</text><text x="598" y="2196" fill="#cbd5e1" font-size="10" font-weight="400">SmoothLife</text><text x="598" y="2218" fill="#cbd5e1" font-size="10" font-weight="400">Larger than Life</text><path d="M590 2193 H590" stroke="#34d399" stroke-width="1.3" fill="none" opacity="0.85"/><path d="M590 2215 H590" stroke="#34d399" stroke-width="1.3" fill="none" opacity="0.85"/><path d="M590 2193 V2215" stroke="#34d399" stroke-width="1.3" fill="none" opacity="0.85"/><text x="598" y="2240" fill="#cbd5e1" font-size="10" font-weight="400">Gray-Scott Reaction-Diffusion</text><text x="598" y="2262" fill="#cbd5e1" font-size="10" font-weight="400">Morphozoic</text><path d="M498.58403245644894 2237 H590" stroke="#34d399" stroke-width="1.3" fill="none" opacity="0.85"/><path d="M498.58403245644894 2259 H590" stroke="#34d399" stroke-width="1.3" fill="none" opacity="0.85"/><path d="M498.58403245644894 2237 V2259" stroke="#34d399" stroke-width="1.3" fill="none" opacity="0.85"/><path d="M479.6511656694502 2204 H590" stroke="#34d399" stroke-width="1.3" fill="none" opacity="0.85"/><path d="M479.6511656694502 2248 H498.58403245644894" stroke="#34d399" stroke-width="1.3" fill="none" opacity="0.85"/><path d="M479.6511656694502 2204 V2248" stroke="#34d399" stroke-width="1.3" fill="none" opacity="0.85"/><path d="M460.7182988824514 2171 H590" stroke="#34d399" stroke-width="1.3" fill="none" opacity="0.85"/><path d="M460.7182988824514 2226 H479.6511656694502" stroke="#34d399" stroke-width="1.3" fill="none" opacity="0.85"/><path d="M460.7182988824514 2171 V2226" stroke="#34d399" stroke-width="1.3" fill="none" opacity="0.85"/><path d="M431.1389510806719 2138 H498.58403245644894" stroke="#34d399" stroke-width="1.3" fill="none" opacity="0.85"/><path d="M431.1389510806719 2198.5 H460.7182988824514" stroke="#34d399" stroke-width="1.3" fill="none" opacity="0.85"/><path d="M431.1389510806719 2138 V2198.5" stroke="#34d399" stroke-width="1.3" fill="none" opacity="0.85"/><path d="M421.3369535935203 2058.25 H441.3480326884852" stroke="#34d399" stroke-width="1.3" fill="none" opacity="0.85"/><path d="M421.3369535935203 2168.25 H431.1389510806719" stroke="#34d399" stroke-width="1.3" fill="none" opacity="0.85"/><path d="M421.3369535935203 2058.25 V2168.25" stroke="#34d399" stroke-width="1.3" fill="none" opacity="0.85"/><path d="M377.6185395317873 1984 H426.4927903159552" stroke="#34d399" stroke-width="1.3" fill="none" opacity="0.85"/><path d="M377.6185395317873 2113.25 H421.3369535935203" stroke="#34d399" stroke-width="1.3" fill="none" opacity="0.85"/><path d="M377.6185395317873 1984 V2113.25" stroke="#34d399" stroke-width="1.3" fill="none" opacity="0.85"/><text x="598" y="2284" fill="#cbd5e1" font-size="10" font-weight="400">Game of Life</text><text x="598" y="2306" fill="#cbd5e1" font-size="10" font-weight="400">Voxelyze / VoxCAD</text><text x="598" y="2328" fill="#cbd5e1" font-size="10" font-weight="400">Growing NCA</text><text x="598" y="2350" fill="#cbd5e1" font-size="10" font-weight="400">Genie (Generative Interactive Environments)</text><path d="M456.73947270820366 2325 H590" stroke="#34d399" stroke-width="1.3" fill="none" opacity="0.85"/><path d="M456.73947270820366 2347 H590" stroke="#34d399" stroke-width="1.3" fill="none" opacity="0.85"/><path d="M456.73947270820366 2325 V2347" stroke="#34d399" stroke-width="1.3" fill="none" opacity="0.85"/><text x="598" y="2372" fill="#cbd5e1" font-size="10" font-weight="400">DevoWorm</text><text x="598" y="2394" fill="#cbd5e1" font-size="10" font-weight="400">EvoGym</text><text x="598" y="2416" fill="#cbd5e1" font-size="10" font-weight="400">RoboGrammar</text><path d="M498.58403245644894 2391 H590" stroke="#34d399" stroke-width="1.3" fill="none" opacity="0.85"/><path d="M498.58403245644894 2413 H590" stroke="#34d399" stroke-width="1.3" fill="none" opacity="0.85"/><path d="M498.58403245644894 2391 V2413" stroke="#34d399" stroke-width="1.3" fill="none" opacity="0.85"/><path d="M407.5269166047349 2369 H590" stroke="#34d399" stroke-width="1.3" fill="none" opacity="0.85"/><path d="M407.5269166047349 2402 H498.58403245644894" stroke="#34d399" stroke-width="1.3" fill="none" opacity="0.85"/><path d="M407.5269166047349 2369 V2402" stroke="#34d399" stroke-width="1.3" fill="none" opacity="0.85"/><path d="M387.95372053775566 2336 H456.73947270820366" stroke="#34d399" stroke-width="1.3" fill="none" opacity="0.85"/><path d="M387.95372053775566 2385.5 H407.5269166047349" stroke="#34d399" stroke-width="1.3" fill="none" opacity="0.85"/><path d="M387.95372053775566 2336 V2385.5" stroke="#34d399" stroke-width="1.3" fill="none" opacity="0.85"/><path d="M358.18603270202914 2303 H590" stroke="#34d399" stroke-width="1.3" fill="none" opacity="0.85"/><path d="M358.18603270202914 2360.75 H387.95372053775566" stroke="#34d399" stroke-width="1.3" fill="none" opacity="0.85"/><path d="M358.18603270202914 2303 V2360.75" stroke="#34d399" stroke-width="1.3" fill="none" opacity="0.85"/><path d="M329.5735152304341 2281 H590" stroke="#34d399" stroke-width="1.3" fill="none" opacity="0.85"/><path d="M329.5735152304341 2331.875 H358.18603270202914" stroke="#34d399" stroke-width="1.3" fill="none" opacity="0.85"/><path d="M329.5735152304341 2281 V2331.875" stroke="#34d399" stroke-width="1.3" fill="none" opacity="0.85"/><path d="M323.73293011513834 2048.625 H377.6185395317873" stroke="#34d399" stroke-width="1.3" fill="none" opacity="0.85"/><path d="M323.73293011513834 2306.4375 H329.5735152304341" stroke="#34d399" stroke-width="1.3" fill="none" opacity="0.85"/><path d="M323.73293011513834 2048.625 V2306.4375" stroke="#34d399" stroke-width="1.3" fill="none" opacity="0.85"/><text x="598" y="2438" fill="#cbd5e1" font-size="10" font-weight="400">Rule 110</text><text x="598" y="2460" fill="#cbd5e1" font-size="10" font-weight="400">Wireworld</text><text x="598" y="2482" fill="#cbd5e1" font-size="10" font-weight="400">Langton's Ant</text><path d="M590 2457 H590" stroke="#34d399" stroke-width="1.3" fill="none" opacity="0.85"/><path d="M590 2479 H590" stroke="#34d399" stroke-width="1.3" fill="none" opacity="0.85"/><path d="M590 2457 V2479" stroke="#34d399" stroke-width="1.3" fill="none" opacity="0.85"/><path d="M590 2435 H590" stroke="#34d399" stroke-width="1.3" fill="none" opacity="0.85"/><path d="M590 2468 H590" stroke="#34d399" stroke-width="1.3" fill="none" opacity="0.85"/><path d="M590 2435 V2468" stroke="#34d399" stroke-width="1.3" fill="none" opacity="0.85"/><text x="598" y="2504" fill="#cbd5e1" font-size="10" font-weight="400">Biomorphs</text><text x="598" y="2526" fill="#cbd5e1" font-size="10" font-weight="400">Langton's Loops</text><text x="598" y="2548" fill="#cbd5e1" font-size="10" font-weight="400">von Neumann Universal Constructor</text><path d="M460.7182988824514 2523 H590" stroke="#34d399" stroke-width="1.3" fill="none" opacity="0.85"/><path d="M460.7182988824514 2545 H590" stroke="#34d399" stroke-width="1.3" fill="none" opacity="0.85"/><path d="M460.7182988824514 2523 V2545" stroke="#34d399" stroke-width="1.3" fill="none" opacity="0.85"/><path d="M375.61055256711046 2501 H590" stroke="#34d399" stroke-width="1.3" fill="none" opacity="0.85"/><path d="M375.61055256711046 2534 H460.7182988824514" stroke="#34d399" stroke-width="1.3" fill="none" opacity="0.85"/><path d="M375.61055256711046 2501 V2534" stroke="#34d399" stroke-width="1.3" fill="none" opacity="0.85"/><path d="M295.2068275006339 2451.5 H590" stroke="#34d399" stroke-width="1.3" fill="none" opacity="0.85"/><path d="M295.2068275006339 2517.5 H375.61055256711046" stroke="#34d399" stroke-width="1.3" fill="none" opacity="0.85"/><path d="M295.2068275006339 2451.5 V2517.5" stroke="#34d399" stroke-width="1.3" fill="none" opacity="0.85"/><path d="M254.65668118790308 2177.53125 H323.73293011513834" stroke="#34d399" stroke-width="1.3" fill="none" opacity="0.85"/><path d="M254.65668118790308 2484.5 H295.2068275006339" stroke="#34d399" stroke-width="1.3" fill="none" opacity="0.85"/><path d="M254.65668118790308 2177.53125 V2484.5" stroke="#34d399" stroke-width="1.3" fill="none" opacity="0.85"/><path d="M230.01988063920385 1576.18359375 H272.0491093875792" stroke="#34d399" stroke-width="1.3" fill="none" opacity="0.85"/><path d="M230.01988063920385 2331.015625 H254.65668118790308" stroke="#34d399" stroke-width="1.3" fill="none" opacity="0.85"/><path d="M230.01988063920385 1576.18359375 V2331.015625" stroke="#34d399" stroke-width="1.3" fill="none" opacity="0.85"/><path d="M222.0127269542025 571.31640625 H265.28451684275717" stroke="#34d399" stroke-width="1.3" fill="none" opacity="0.85"/><path d="M222.0127269542025 1953.599609375 H230.01988063920385" stroke="#34d399" stroke-width="1.3" fill="none" opacity="0.85"/><path d="M222.0127269542025 571.31640625 V1953.599609375" stroke="#34d399" stroke-width="1.3" fill="none" opacity="0.85"/><path d="M182.1932219981624 114 H348.1360840194118" stroke="#34d399" stroke-width="1.3" fill="none" opacity="0.85"/><path d="M182.1932219981624 1262.4580078125 H222.0127269542025" stroke="#34d399" stroke-width="1.3" fill="none" opacity="0.85"/><path d="M182.1932219981624 114 V1262.4580078125" stroke="#34d399" stroke-width="1.3" fill="none" opacity="0.85"/><path d="M30 81 H590" stroke="#f59e0b" stroke-width="1.3" fill="none" opacity="0.85"/><path d="M30 688.22900390625 H182.1932219981624" stroke="#f59e0b" stroke-width="1.3" fill="none" opacity="0.85"/><path d="M30 81 V688.22900390625" stroke="#f59e0b" stroke-width="1.3" fill="none" opacity="0.85"/>
</svg>