<svg xmlns="http://www.w3.org/2000/svg" viewBox="0 0 680 332" font-family="ui-sans-serif,system-ui,Segoe UI,Roboto,sans-serif" role="img" aria-label="Nearest neighbours">
<rect width="680" height="332" rx="14" fill="#0b1220"/>
<text x="28" y="30" fill="#cbd5e1" font-size="18" font-weight="700">Nearest neighbours in 9-axis feature space</text><text x="28" y="50" fill="#7c8aa5" font-size="12">Euclidean distance from Cosmogonic (lower = more similar capability shape).</text><text x="140" y="83" fill="#cbd5e1" font-size="11" text-anchor="end">ALIEN</text><rect x="150" y="69" width="342.1968977524533" height="18" rx="3" fill="#34d399" opacity="0.78"/><text x="498.1968977524533" y="83" fill="#7c8aa5" font-size="10">4.60</text><text x="140" y="113" fill="#cbd5e1" font-size="11" text-anchor="end">Creatures</text><rect x="150" y="99" width="368.9775245330801" height="18" rx="3" fill="#34d399" opacity="0.78"/><text x="524.9775245330801" y="113" fill="#7c8aa5" font-size="10">4.96</text><text x="140" y="143" fill="#cbd5e1" font-size="11" text-anchor="end">Framsticks</text><rect x="150" y="129" width="407.6606521050967" height="18" rx="3" fill="#34d399" opacity="0.78"/><text x="563.6606521050967" y="143" fill="#7c8aa5" font-size="10">5.48</text><text x="140" y="173" fill="#cbd5e1" font-size="11" text-anchor="end">Division Blocks</text><rect x="150" y="159" width="414.35580880025327" height="18" rx="3" fill="#34d399" opacity="0.78"/><text x="570.3558088002533" y="173" fill="#7c8aa5" font-size="10">5.57</text><text x="140" y="203" fill="#cbd5e1" font-size="11" text-anchor="end">biosim4</text><rect x="150" y="189" width="421.05096549540997" height="18" rx="3" fill="#34d399" opacity="0.78"/><text x="577.05096549541" y="203" fill="#7c8aa5" font-size="10">5.66</text><text x="140" y="233" fill="#cbd5e1" font-size="11" text-anchor="end">The Bibites</text><rect x="150" y="219" width="423.28268439379553" height="18" rx="3" fill="#34d399" opacity="0.78"/><text x="579.2826843937955" y="233" fill="#7c8aa5" font-size="10">5.69</text><text x="140" y="263" fill="#cbd5e1" font-size="11" text-anchor="end">Polyworld</text><rect x="150" y="249" width="434.44127888572336" height="18" rx="3" fill="#34d399" opacity="0.78"/><text x="590.4412788857234" y="263" fill="#7c8aa5" font-size="10">5.84</text><text x="140" y="293" fill="#cbd5e1" font-size="11" text-anchor="end">Karl Sims VC</text><rect x="150" y="279" width="435.1851851851852" height="18" rx="3" fill="#34d399" opacity="0.78"/><text x="591.1851851851852" y="293" fill="#7c8aa5" font-size="10">5.85</text>
</svg>