<svg xmlns="http://www.w3.org/2000/svg" viewBox="0 0 760 2580" font-family="ui-sans-serif,system-ui,Segoe UI,Roboto,sans-serif" role="img" aria-label="Dendrogram">
<rect width="760" height="2580" rx="14" fill="#0b1220"/>
<text x="28" y="30" fill="#cbd5e1" font-size="18" font-weight="700">Capability dendrogram (average-linkage, Euclidean 9-axis)</text><text x="28" y="50" fill="#7c8aa5" font-size="12">leaves grouped by capability-shape similarity; join depth = merge distance.</text><text x="598" y="84" fill="#f59e0b" font-size="10" font-weight="700">COSMOGONIC</text><text x="598" y="106" fill="#cbd5e1" font-size="10" font-weight="400">OpenWorm</text><text x="598" y="128" fill="#cbd5e1" font-size="10" font-weight="400">NerveNet</text><path d="M301.1294135402947 103 H590" stroke="#34d399" stroke-width="1.3" fill="none" opacity="0.85"/><path d="M301.1294135402947 125 H590" stroke="#34d399" stroke-width="1.3" fill="none" opacity="0.85"/><path d="M301.1294135402947 103 V125" stroke="#34d399" stroke-width="1.3" fill="none" opacity="0.85"/><text x="598" y="150" fill="#cbd5e1" font-size="10" font-weight="400">The AI Scientist</text><text x="598" y="172" fill="#cbd5e1" font-size="10" font-weight="400">POET</text><text x="598" y="194" fill="#cbd5e1" font-size="10" font-weight="400">OMNI (Open-endedness via Models of human Notions of Interestingness)</text><path d="M590 169 H590" stroke="#34d399" stroke-width="1.3" fill="none" opacity="0.85"/><path d="M590 191 H590" stroke="#34d399" stroke-width="1.3" fill="none" opacity="0.85"/><path d="M590 169 V191" stroke="#34d399" stroke-width="1.3" fill="none" opacity="0.85"/><text x="598" y="216" fill="#cbd5e1" font-size="10" font-weight="400">Go-Explore</text><text x="598" y="238" fill="#cbd5e1" font-size="10" font-weight="400">Voyager (Minecraft LLM agent)</text><path d="M456.2789024112601 213 H590" stroke="#34d399" stroke-width="1.3" fill="none" opacity="0.85"/><path d="M456.2789024112601 235 H590" stroke="#34d399" stroke-width="1.3" fill="none" opacity="0.85"/><path d="M456.2789024112601 213 V235" stroke="#34d399" stroke-width="1.3" fill="none" opacity="0.85"/><path d="M428.584356312924 180 H590" stroke="#34d399" stroke-width="1.3" fill="none" opacity="0.85"/><path d="M428.584356312924 224 H456.2789024112601" stroke="#34d399" stroke-width="1.3" fill="none" opacity="0.85"/><path d="M428.584356312924 180 V224" stroke="#34d399" stroke-width="1.3" fill="none" opacity="0.85"/><path d="M397.1017700181928 147 H590" stroke="#34d399" stroke-width="1.3" fill="none" opacity="0.85"/><path d="M397.1017700181928 202 H428.584356312924" stroke="#34d399" stroke-width="1.3" fill="none" opacity="0.85"/><path d="M397.1017700181928 147 V202" stroke="#34d399" stroke-width="1.3" fill="none" opacity="0.85"/><text x="598" y="260" fill="#cbd5e1" font-size="10" font-weight="400">ASAL</text><text x="598" y="282" fill="#cbd5e1" font-size="10" font-weight="400">OMNI-EPIC</text><path d="M371.63436204178214 257 H590" stroke="#34d399" stroke-width="1.3" fill="none" opacity="0.85"/><path d="M371.63436204178214 279 H590" stroke="#34d399" stroke-width="1.3" fill="none" opacity="0.85"/><path d="M371.63436204178214 257 V279" stroke="#34d399" stroke-width="1.3" fill="none" opacity="0.85"/><path d="M363.88698464366064 174.5 H397.1017700181928" stroke="#34d399" stroke-width="1.3" fill="none" opacity="0.85"/><path d="M363.88698464366064 268 H371.63436204178214" stroke="#34d399" stroke-width="1.3" fill="none" opacity="0.85"/><path d="M363.88698464366064 174.5 V268" stroke="#34d399" stroke-width="1.3" fill="none" opacity="0.85"/><text x="598" y="304" fill="#cbd5e1" font-size="10" font-weight="400">Promptbreeder</text><text x="598" y="326" fill="#cbd5e1" font-size="10" font-weight="400">Quality-Diversity through AI Feedback (QDAIF)</text><path d="M512.7960883108088 301 H590" stroke="#34d399" stroke-width="1.3" fill="none" opacity="0.85"/><path d="M512.7960883108088 323 H590" stroke="#34d399" stroke-width="1.3" fill="none" opacity="0.85"/><path d="M512.7960883108088 301 V323" stroke="#34d399" stroke-width="1.3" fill="none" opacity="0.85"/><text x="598" y="348" fill="#cbd5e1" font-size="10" font-weight="400">Automated Design of Agentic Systems (ADAS)</text><text x="598" y="370" fill="#cbd5e1" font-size="10" font-weight="400">Darwin Godel Machine (DGM)</text><path d="M480.8171810208911 345 H590" stroke="#34d399" stroke-width="1.3" fill="none" opacity="0.85"/><path d="M480.8171810208911 367 H590" stroke="#34d399" stroke-width="1.3" fill="none" opacity="0.85"/><path d="M480.8171810208911 345 V367" stroke="#34d399" stroke-width="1.3" fill="none" opacity="0.85"/><path d="M376.1503814576587 312 H512.7960883108088" stroke="#34d399" stroke-width="1.3" fill="none" opacity="0.85"/><path d="M376.1503814576587 356 H480.8171810208911" stroke="#34d399" stroke-width="1.3" fill="none" opacity="0.85"/><path d="M376.1503814576587 312 V356" stroke="#34d399" stroke-width="1.3" fill="none" opacity="0.85"/><text x="598" y="392" fill="#cbd5e1" font-size="10" font-weight="400">NEAT (NeuroEvolution of Augmenting Topologies)</text><text x="598" y="414" fill="#cbd5e1" font-size="10" font-weight="400">HyperNEAT</text><text x="598" y="436" fill="#cbd5e1" font-size="10" font-weight="400">ES-HyperNEAT</text><path d="M512.7960883108088 411 H590" stroke="#34d399" stroke-width="1.3" fill="none" opacity="0.85"/><path d="M512.7960883108088 433 H590" stroke="#34d399" stroke-width="1.3" fill="none" opacity="0.85"/><path d="M512.7960883108088 411 V433" stroke="#34d399" stroke-width="1.3" fill="none" opacity="0.85"/><path d="M468.5480417160756 389 H590" stroke="#34d399" stroke-width="1.3" fill="none" opacity="0.85"/><path d="M468.5480417160756 422 H512.7960883108088" stroke="#34d399" stroke-width="1.3" fill="none" opacity="0.85"/><path d="M468.5480417160756 389 V422" stroke="#34d399" stroke-width="1.3" fill="none" opacity="0.85"/><text x="598" y="458" fill="#cbd5e1" font-size="10" font-weight="400">Evolution through Large Models (ELM)</text><text x="598" y="480" fill="#cbd5e1" font-size="10" font-weight="400">MAP-Elites</text><text x="598" y="502" fill="#cbd5e1" font-size="10" font-weight="400">Quality-Diversity (illumination algorithms)</text><path d="M590 477 H590" stroke="#34d399" stroke-width="1.3" fill="none" opacity="0.85"/><path d="M590 499 H590" stroke="#34d399" stroke-width="1.3" fill="none" opacity="0.85"/><path d="M590 477 V499" stroke="#34d399" stroke-width="1.3" fill="none" opacity="0.85"/><text x="598" y="524" fill="#cbd5e1" font-size="10" font-weight="400">Novelty Search</text><text x="598" y="546" fill="#cbd5e1" font-size="10" font-weight="400">OpenELM</text><path d="M480.8171810208911 521 H590" stroke="#34d399" stroke-width="1.3" fill="none" opacity="0.85"/><path d="M480.8171810208911 543 H590" stroke="#34d399" stroke-width="1.3" fill="none" opacity="0.85"/><path d="M480.8171810208911 521 V543" stroke="#34d399" stroke-width="1.3" fill="none" opacity="0.85"/><path d="M435.5921766216176 488 H590" stroke="#34d399" stroke-width="1.3" fill="none" opacity="0.85"/><path d="M435.5921766216176 532 H480.8171810208911" stroke="#34d399" stroke-width="1.3" fill="none" opacity="0.85"/><path d="M435.5921766216176 488 V532" stroke="#34d399" stroke-width="1.3" fill="none" opacity="0.85"/><path d="M401.55222738154265 455 H590" stroke="#34d399" stroke-width="1.3" fill="none" opacity="0.85"/><path d="M401.55222738154265 510 H435.5921766216176" stroke="#34d399" stroke-width="1.3" fill="none" opacity="0.85"/><path d="M401.55222738154265 455 V510" stroke="#34d399" stroke-width="1.3" fill="none" opacity="0.85"/><path d="M375.9666407618168 405.5 H468.5480417160756" stroke="#34d399" stroke-width="1.3" fill="none" opacity="0.85"/><path d="M375.9666407618168 482.5 H401.55222738154265" stroke="#34d399" stroke-width="1.3" fill="none" opacity="0.85"/><path d="M375.9666407618168 405.5 V482.5" stroke="#34d399" stroke-width="1.3" fill="none" opacity="0.85"/><path d="M324.0112671045545 334 H376.1503814576587" stroke="#34d399" stroke-width="1.3" fill="none" opacity="0.85"/><path d="M324.0112671045545 444 H375.9666407618168" stroke="#34d399" stroke-width="1.3" fill="none" opacity="0.85"/><path d="M324.0112671045545 334 V444" stroke="#34d399" stroke-width="1.3" fill="none" opacity="0.85"/><path d="M254.9354688409201 221.25 H363.88698464366064" stroke="#34d399" stroke-width="1.3" fill="none" opacity="0.85"/><path d="M254.9354688409201 389 H324.0112671045545" stroke="#34d399" stroke-width="1.3" fill="none" opacity="0.85"/><path d="M254.9354688409201 221.25 V389" stroke="#34d399" stroke-width="1.3" fill="none" opacity="0.85"/><text x="598" y="568" fill="#cbd5e1" font-size="10" font-weight="400">DERL (Deep Evolutionary Reinforcement Learning)</text><text x="598" y="590" fill="#cbd5e1" font-size="10" font-weight="400">UNIMAL (Universal Animal design space)</text><path d="M512.7960883108088 565 H590" stroke="#34d399" stroke-width="1.3" fill="none" opacity="0.85"/><path d="M512.7960883108088 587 H590" stroke="#34d399" stroke-width="1.3" fill="none" opacity="0.85"/><path d="M512.7960883108088 565 V587" stroke="#34d399" stroke-width="1.3" fill="none" opacity="0.85"/><text x="598" y="612" fill="#cbd5e1" font-size="10" font-weight="400">Transform2Act</text><text x="598" y="634" fill="#cbd5e1" font-size="10" font-weight="400">Neural Graph Evolution (NGE)</text><path d="M456.2789024112601 609 H590" stroke="#34d399" stroke-width="1.3" fill="none" opacity="0.85"/><path d="M456.2789024112601 631 H590" stroke="#34d399" stroke-width="1.3" fill="none" opacity="0.85"/><path d="M456.2789024112601 609 V631" stroke="#34d399" stroke-width="1.3" fill="none" opacity="0.85"/><path d="M445.93553951643884 576 H512.7960883108088" stroke="#34d399" stroke-width="1.3" fill="none" opacity="0.85"/><path d="M445.93553951643884 620 H456.2789024112601" stroke="#34d399" stroke-width="1.3" fill="none" opacity="0.85"/><path d="M445.93553951643884 576 V620" stroke="#34d399" stroke-width="1.3" fill="none" opacity="0.85"/><text x="598" y="656" fill="#cbd5e1" font-size="10" font-weight="400">Karl Sims VC</text><text x="598" y="678" fill="#cbd5e1" font-size="10" font-weight="400">3D Virtual Creature Evolution (3DVCE)</text><text x="598" y="700" fill="#cbd5e1" font-size="10" font-weight="400">Keiwan Evolution</text><path d="M512.7960883108088 675 H590" stroke="#34d399" stroke-width="1.3" fill="none" opacity="0.85"/><path d="M512.7960883108088 697 H590" stroke="#34d399" stroke-width="1.3" fill="none" opacity="0.85"/><path d="M512.7960883108088 675 V697" stroke="#34d399" stroke-width="1.3" fill="none" opacity="0.85"/><path d="M445.93553951643884 653 H590" stroke="#34d399" stroke-width="1.3" fill="none" opacity="0.85"/><path d="M445.93553951643884 686 H512.7960883108088" stroke="#34d399" stroke-width="1.3" fill="none" opacity="0.85"/><path d="M445.93553951643884 653 V686" stroke="#34d399" stroke-width="1.3" fill="none" opacity="0.85"/><text x="598" y="722" fill="#cbd5e1" font-size="10" font-weight="400">Evolving Soft Robots (Cheney / Unshackling Evolution)</text><text x="598" y="744" fill="#cbd5e1" font-size="10" font-weight="400">GOLEM (Genetically Organized Lifelike Electro Mechanics)</text><text x="598" y="766" fill="#cbd5e1" font-size="10" font-weight="400">Krcah Evolved Virtual Creatures (ERO)</text><path d="M456.2789024112601 741 H590" stroke="#34d399" stroke-width="1.3" fill="none" opacity="0.85"/><path d="M456.2789024112601 763 H590" stroke="#34d399" stroke-width="1.3" fill="none" opacity="0.85"/><path d="M456.2789024112601 741 V763" stroke="#34d399" stroke-width="1.3" fill="none" opacity="0.85"/><path d="M426.4794909778477 719 H590" stroke="#34d399" stroke-width="1.3" fill="none" opacity="0.85"/><path d="M426.4794909778477 752 H456.2789024112601" stroke="#34d399" stroke-width="1.3" fill="none" opacity="0.85"/><path d="M426.4794909778477 719 V752" stroke="#34d399" stroke-width="1.3" fill="none" opacity="0.85"/><path d="M407.5805051635457 669.5 H445.93553951643884" stroke="#34d399" stroke-width="1.3" fill="none" opacity="0.85"/><path d="M407.5805051635457 735.5 H426.4794909778477" stroke="#34d399" stroke-width="1.3" fill="none" opacity="0.85"/><path d="M407.5805051635457 669.5 V735.5" stroke="#34d399" stroke-width="1.3" fill="none" opacity="0.85"/><path d="M330.15642089212434 598 H445.93553951643884" stroke="#34d399" stroke-width="1.3" fill="none" opacity="0.85"/><path d="M330.15642089212434 702.5 H407.5805051635457" stroke="#34d399" stroke-width="1.3" fill="none" opacity="0.85"/><path d="M330.15642089212434 598 V702.5" stroke="#34d399" stroke-width="1.3" fill="none" opacity="0.85"/><text x="598" y="788" fill="#cbd5e1" font-size="10" font-weight="400">Cell Lab: Evolution Sandbox</text><text x="598" y="810" fill="#cbd5e1" font-size="10" font-weight="400">Primordial Particle Systems</text><text x="598" y="832" fill="#cbd5e1" font-size="10" font-weight="400">Squirm3</text><path d="M456.2789024112601 807 H590" stroke="#34d399" stroke-width="1.3" fill="none" opacity="0.85"/><path d="M456.2789024112601 829 H590" stroke="#34d399" stroke-width="1.3" fill="none" opacity="0.85"/><path d="M456.2789024112601 807 V829" stroke="#34d399" stroke-width="1.3" fill="none" opacity="0.85"/><path d="M445.93553951643884 785 H590" stroke="#34d399" stroke-width="1.3" fill="none" opacity="0.85"/><path d="M445.93553951643884 818 H456.2789024112601" stroke="#34d399" stroke-width="1.3" fill="none" opacity="0.85"/><path d="M445.93553951643884 785 V818" stroke="#34d399" stroke-width="1.3" fill="none" opacity="0.85"/><text x="598" y="854" fill="#cbd5e1" font-size="10" font-weight="400">Species: Artificial Life, Real Evolution</text><text x="598" y="876" fill="#cbd5e1" font-size="10" font-weight="400">Sebastian Lague Ecosystem</text><text x="598" y="898" fill="#cbd5e1" font-size="10" font-weight="400">Primer Evolution Simulations</text><path d="M480.8171810208911 873 H590" stroke="#34d399" stroke-width="1.3" fill="none" opacity="0.85"/><path d="M480.8171810208911 895 H590" stroke="#34d399" stroke-width="1.3" fill="none" opacity="0.85"/><path d="M480.8171810208911 873 V895" stroke="#34d399" stroke-width="1.3" fill="none" opacity="0.85"/><path d="M436.82285387266904 851 H590" stroke="#34d399" stroke-width="1.3" fill="none" opacity="0.85"/><path d="M436.82285387266904 884 H480.8171810208911" stroke="#34d399" stroke-width="1.3" fill="none" opacity="0.85"/><path d="M436.82285387266904 851 V884" stroke="#34d399" stroke-width="1.3" fill="none" opacity="0.85"/><path d="M405.6851468900119 801.5 H445.93553951643884" stroke="#34d399" stroke-width="1.3" fill="none" opacity="0.85"/><path d="M405.6851468900119 867.5 H436.82285387266904" stroke="#34d399" stroke-width="1.3" fill="none" opacity="0.85"/><path d="M405.6851468900119 801.5 V867.5" stroke="#34d399" stroke-width="1.3" fill="none" opacity="0.85"/><text x="598" y="920" fill="#cbd5e1" font-size="10" font-weight="400">Darwin Pond</text><text x="598" y="942" fill="#cbd5e1" font-size="10" font-weight="400">Gene Pool</text><path d="M474.1941324662132 917 H590" stroke="#34d399" stroke-width="1.3" fill="none" opacity="0.85"/><path d="M474.1941324662132 939 H590" stroke="#34d399" stroke-width="1.3" fill="none" opacity="0.85"/><path d="M474.1941324662132 917 V939" stroke="#34d399" stroke-width="1.3" fill="none" opacity="0.85"/><text x="598" y="964" fill="#cbd5e1" font-size="10" font-weight="400">Picbreeder</text><text x="598" y="986" fill="#cbd5e1" font-size="10" font-weight="400">EndlessForms</text><path d="M417.3668053340778 961 H590" stroke="#34d399" stroke-width="1.3" fill="none" opacity="0.85"/><path d="M417.3668053340778 983 H590" stroke="#34d399" stroke-width="1.3" fill="none" opacity="0.85"/><path d="M417.3668053340778 961 V983" stroke="#34d399" stroke-width="1.3" fill="none" opacity="0.85"/><path d="M391.88891285259575 928 H474.1941324662132" stroke="#34d399" stroke-width="1.3" fill="none" opacity="0.85"/><path d="M391.88891285259575 972 H417.3668053340778" stroke="#34d399" stroke-width="1.3" fill="none" opacity="0.85"/><path d="M391.88891285259575 928 V972" stroke="#34d399" stroke-width="1.3" fill="none" opacity="0.85"/><text x="598" y="1008" fill="#cbd5e1" font-size="10" font-weight="400">ALIEN</text><text x="598" y="1030" fill="#cbd5e1" font-size="10" font-weight="400">breve</text><text x="598" y="1052" fill="#cbd5e1" font-size="10" font-weight="400">Framsticks</text><text x="598" y="1074" fill="#cbd5e1" font-size="10" font-weight="400">Division Blocks</text><path d="M426.22577153133665 1049 H590" stroke="#34d399" stroke-width="1.3" fill="none" opacity="0.85"/><path d="M426.22577153133665 1071 H590" stroke="#34d399" stroke-width="1.3" fill="none" opacity="0.85"/><path d="M426.22577153133665 1049 V1071" stroke="#34d399" stroke-width="1.3" fill="none" opacity="0.85"/><path d="M397.96759276752186 1027 H590" stroke="#34d399" stroke-width="1.3" fill="none" opacity="0.85"/><path d="M397.96759276752186 1060 H426.22577153133665" stroke="#34d399" stroke-width="1.3" fill="none" opacity="0.85"/><path d="M397.96759276752186 1027 V1060" stroke="#34d399" stroke-width="1.3" fill="none" opacity="0.85"/><path d="M368.05679255730183 1005 H590" stroke="#34d399" stroke-width="1.3" fill="none" opacity="0.85"/><path d="M368.05679255730183 1043.5 H397.96759276752186" stroke="#34d399" stroke-width="1.3" fill="none" opacity="0.85"/><path d="M368.05679255730183 1005 V1043.5" stroke="#34d399" stroke-width="1.3" fill="none" opacity="0.85"/><path d="M348.0477754749615 950 H391.88891285259575" stroke="#34d399" stroke-width="1.3" fill="none" opacity="0.85"/><path d="M348.0477754749615 1024.25 H368.05679255730183" stroke="#34d399" stroke-width="1.3" fill="none" opacity="0.85"/><path d="M348.0477754749615 950 V1024.25" stroke="#34d399" stroke-width="1.3" fill="none" opacity="0.85"/><path d="M321.2809743659025 834.5 H405.6851468900119" stroke="#34d399" stroke-width="1.3" fill="none" opacity="0.85"/><path d="M321.2809743659025 987.125 H348.0477754749615" stroke="#34d399" stroke-width="1.3" fill="none" opacity="0.85"/><path d="M321.2809743659025 834.5 V987.125" stroke="#34d399" stroke-width="1.3" fill="none" opacity="0.85"/><text x="598" y="1096" fill="#cbd5e1" font-size="10" font-weight="400">Polyworld</text><text x="598" y="1118" fill="#cbd5e1" font-size="10" font-weight="400">Creatures</text><path d="M408.94077794650065 1093 H590" stroke="#34d399" stroke-width="1.3" fill="none" opacity="0.85"/><path d="M408.94077794650065 1115 H590" stroke="#34d399" stroke-width="1.3" fill="none" opacity="0.85"/><path d="M408.94077794650065 1093 V1115" stroke="#34d399" stroke-width="1.3" fill="none" opacity="0.85"/><text x="598" y="1140" fill="#cbd5e1" font-size="10" font-weight="400">Innovation Engines</text><text x="598" y="1162" fill="#cbd5e1" font-size="10" font-weight="400">Geb</text><text x="598" y="1184" fill="#cbd5e1" font-size="10" font-weight="400">MABE</text><text x="598" y="1206" fill="#cbd5e1" font-size="10" font-weight="400">Minimal Criterion Coevolution (MCC)</text><path d="M456.2789024112601 1181 H590" stroke="#34d399" stroke-width="1.3" fill="none" opacity="0.85"/><path d="M456.2789024112601 1203 H590" stroke="#34d399" stroke-width="1.3" fill="none" opacity="0.85"/><path d="M456.2789024112601 1181 V1203" stroke="#34d399" stroke-width="1.3" fill="none" opacity="0.85"/><path d="M426.4794909778477 1159 H590" stroke="#34d399" stroke-width="1.3" fill="none" opacity="0.85"/><path d="M426.4794909778477 1192 H456.2789024112601" stroke="#34d399" stroke-width="1.3" fill="none" opacity="0.85"/><path d="M426.4794909778477 1159 V1192" stroke="#34d399" stroke-width="1.3" fill="none" opacity="0.85"/><text x="598" y="1228" fill="#cbd5e1" font-size="10" font-weight="400">Chromaria</text><text x="598" y="1250" fill="#cbd5e1" font-size="10" font-weight="400">Evolve 4.0</text><text x="598" y="1272" fill="#cbd5e1" font-size="10" font-weight="400">biosim4</text><text x="598" y="1294" fill="#cbd5e1" font-size="10" font-weight="400">The Bibites</text><path d="M480.8171810208911 1269 H590" stroke="#34d399" stroke-width="1.3" fill="none" opacity="0.85"/><path d="M480.8171810208911 1291 H590" stroke="#34d399" stroke-width="1.3" fill="none" opacity="0.85"/><path d="M480.8171810208911 1269 V1291" stroke="#34d399" stroke-width="1.3" fill="none" opacity="0.85"/><path d="M456.2789024112601 1247 H590" stroke="#34d399" stroke-width="1.3" fill="none" opacity="0.85"/><path d="M456.2789024112601 1280 H480.8171810208911" stroke="#34d399" stroke-width="1.3" fill="none" opacity="0.85"/><path d="M456.2789024112601 1247 V1280" stroke="#34d399" stroke-width="1.3" fill="none" opacity="0.85"/><path d="M393.23936366101714 1225 H590" stroke="#34d399" stroke-width="1.3" fill="none" opacity="0.85"/><path d="M393.23936366101714 1263.5 H456.2789024112601" stroke="#34d399" stroke-width="1.3" fill="none" opacity="0.85"/><path d="M393.23936366101714 1225 V1263.5" stroke="#34d399" stroke-width="1.3" fill="none" opacity="0.85"/><path d="M372.16294056135257 1175.5 H426.4794909778477" stroke="#34d399" stroke-width="1.3" fill="none" opacity="0.85"/><path d="M372.16294056135257 1244.25 H393.23936366101714" stroke="#34d399" stroke-width="1.3" fill="none" opacity="0.85"/><path d="M372.16294056135257 1175.5 V1244.25" stroke="#34d399" stroke-width="1.3" fill="none" opacity="0.85"/><path d="M335.69105643016064 1137 H590" stroke="#34d399" stroke-width="1.3" fill="none" opacity="0.85"/><path d="M335.69105643016064 1209.875 H372.16294056135257" stroke="#34d399" stroke-width="1.3" fill="none" opacity="0.85"/><path d="M335.69105643016064 1137 V1209.875" stroke="#34d399" stroke-width="1.3" fill="none" opacity="0.85"/><path d="M316.20511330876786 1104 H408.94077794650065" stroke="#34d399" stroke-width="1.3" fill="none" opacity="0.85"/><path d="M316.20511330876786 1173.4375 H335.69105643016064" stroke="#34d399" stroke-width="1.3" fill="none" opacity="0.85"/><path d="M316.20511330876786 1104 V1173.4375" stroke="#34d399" stroke-width="1.3" fill="none" opacity="0.85"/><path d="M271.35455114541185 910.8125 H321.2809743659025" stroke="#34d399" stroke-width="1.3" fill="none" opacity="0.85"/><path d="M271.35455114541185 1138.71875 H316.20511330876786" stroke="#34d399" stroke-width="1.3" fill="none" opacity="0.85"/><path d="M271.35455114541185 910.8125 V1138.71875" stroke="#34d399" stroke-width="1.3" fill="none" opacity="0.85"/><path d="M252.812197801875 650.25 H330.15642089212434" stroke="#34d399" stroke-width="1.3" fill="none" opacity="0.85"/><path d="M252.812197801875 1024.765625 H271.35455114541185" stroke="#34d399" stroke-width="1.3" fill="none" opacity="0.85"/><path d="M252.812197801875 650.25 V1024.765625" stroke="#34d399" stroke-width="1.3" fill="none" opacity="0.85"/><path d="M202.17550095522452 305.125 H254.9354688409201" stroke="#34d399" stroke-width="1.3" fill="none" opacity="0.85"/><path d="M202.17550095522452 837.5078125 H252.812197801875" stroke="#34d399" stroke-width="1.3" fill="none" opacity="0.85"/><path d="M202.17550095522452 305.125 V837.5078125" stroke="#34d399" stroke-width="1.3" fill="none" opacity="0.85"/><text x="598" y="1316" fill="#cbd5e1" font-size="10" font-weight="400">Sugarscape</text><text x="598" y="1338" fill="#cbd5e1" font-size="10" font-weight="400">Swarm</text><path d="M503.68340266703893 1313 H590" stroke="#34d399" stroke-width="1.3" fill="none" opacity="0.85"/><path d="M503.68340266703893 1335 H590" stroke="#34d399" stroke-width="1.3" fill="none" opacity="0.85"/><path d="M503.68340266703893 1313 V1335" stroke="#34d399" stroke-width="1.3" fill="none" opacity="0.85"/><text x="598" y="1360" fill="#cbd5e1" font-size="10" font-weight="400">Echo</text><text x="598" y="1382" fill="#cbd5e1" font-size="10" font-weight="400">SimLife: The Genetic Playground</text><path d="M417.3668053340778 1357 H590" stroke="#34d399" stroke-width="1.3" fill="none" opacity="0.85"/><path d="M417.3668053340778 1379 H590" stroke="#34d399" stroke-width="1.3" fill="none" opacity="0.85"/><path d="M417.3668053340778 1357 V1379" stroke="#34d399" stroke-width="1.3" fill="none" opacity="0.85"/><path d="M403.8275669011673 1324 H503.68340266703893" stroke="#34d399" stroke-width="1.3" fill="none" opacity="0.85"/><path d="M403.8275669011673 1368 H417.3668053340778" stroke="#34d399" stroke-width="1.3" fill="none" opacity="0.85"/><path d="M403.8275669011673 1324 V1368" stroke="#34d399" stroke-width="1.3" fill="none" opacity="0.85"/><text x="598" y="1404" fill="#cbd5e1" font-size="10" font-weight="400">Tierra</text><text x="598" y="1426" fill="#cbd5e1" font-size="10" font-weight="400">Avida</text><path d="M450.81866886911376 1401 H590" stroke="#34d399" stroke-width="1.3" fill="none" opacity="0.85"/><path d="M450.81866886911376 1423 H590" stroke="#34d399" stroke-width="1.3" fill="none" opacity="0.85"/><path d="M450.81866886911376 1401 V1423" stroke="#34d399" stroke-width="1.3" fill="none" opacity="0.85"/><text x="598" y="1448" fill="#cbd5e1" font-size="10" font-weight="400">The Life Engine</text><text x="598" y="1470" fill="#cbd5e1" font-size="10" font-weight="400">Nanopond</text><text x="598" y="1492" fill="#cbd5e1" font-size="10" font-weight="400">Physis</text><path d="M480.8171810208911 1467 H590" stroke="#34d399" stroke-width="1.3" fill="none" opacity="0.85"/><path d="M480.8171810208911 1489 H590" stroke="#34d399" stroke-width="1.3" fill="none" opacity="0.85"/><path d="M480.8171810208911 1467 V1489" stroke="#34d399" stroke-width="1.3" fill="none" opacity="0.85"/><text x="598" y="1514" fill="#cbd5e1" font-size="10" font-weight="400">Network Tierra</text><text x="598" y="1536" fill="#cbd5e1" font-size="10" font-weight="400">Core War</text><text x="598" y="1558" fill="#cbd5e1" font-size="10" font-weight="400">Cosmos</text><text x="598" y="1580" fill="#cbd5e1" font-size="10" font-weight="400">Amoeba</text><path d="M590 1555 H590" stroke="#34d399" stroke-width="1.3" fill="none" opacity="0.85"/><path d="M590 1577 H590" stroke="#34d399" stroke-width="1.3" fill="none" opacity="0.85"/><path d="M590 1555 V1577" stroke="#34d399" stroke-width="1.3" fill="none" opacity="0.85"/><path d="M480.8171810208911 1533 H590" stroke="#34d399" stroke-width="1.3" fill="none" opacity="0.85"/><path d="M480.8171810208911 1566 H590" stroke="#34d399" stroke-width="1.3" fill="none" opacity="0.85"/><path d="M480.8171810208911 1533 V1566" stroke="#34d399" stroke-width="1.3" fill="none" opacity="0.85"/><path d="M465.7421795544666 1511 H590" stroke="#34d399" stroke-width="1.3" fill="none" opacity="0.85"/><path d="M465.7421795544666 1549.5 H480.8171810208911" stroke="#34d399" stroke-width="1.3" fill="none" opacity="0.85"/><path d="M465.7421795544666 1511 V1549.5" stroke="#34d399" stroke-width="1.3" fill="none" opacity="0.85"/><path d="M459.5200085702848 1478 H480.8171810208911" stroke="#34d399" stroke-width="1.3" fill="none" opacity="0.85"/><path d="M459.5200085702848 1530.25 H465.7421795544666" stroke="#34d399" stroke-width="1.3" fill="none" opacity="0.85"/><path d="M459.5200085702848 1478 V1530.25" stroke="#34d399" stroke-width="1.3" fill="none" opacity="0.85"/><path d="M438.03667740135427 1445 H590" stroke="#34d399" stroke-width="1.3" fill="none" opacity="0.85"/><path d="M438.03667740135427 1504.125 H459.5200085702848" stroke="#34d399" stroke-width="1.3" fill="none" opacity="0.85"/><path d="M438.03667740135427 1445 V1504.125" stroke="#34d399" stroke-width="1.3" fill="none" opacity="0.85"/><path d="M416.62438749233365 1412 H450.81866886911376" stroke="#34d399" stroke-width="1.3" fill="none" opacity="0.85"/><path d="M416.62438749233365 1474.5625 H438.03667740135427" stroke="#34d399" stroke-width="1.3" fill="none" opacity="0.85"/><path d="M416.62438749233365 1412 V1474.5625" stroke="#34d399" stroke-width="1.3" fill="none" opacity="0.85"/><text x="598" y="1602" fill="#cbd5e1" font-size="10" font-weight="400">Aevol</text><text x="598" y="1624" fill="#cbd5e1" font-size="10" font-weight="400">Avida-ED</text><path d="M400.8898102145879 1599 H590" stroke="#34d399" stroke-width="1.3" fill="none" opacity="0.85"/><path d="M400.8898102145879 1621 H590" stroke="#34d399" stroke-width="1.3" fill="none" opacity="0.85"/><path d="M400.8898102145879 1599 V1621" stroke="#34d399" stroke-width="1.3" fill="none" opacity="0.85"/><path d="M355.25843281155215 1443.28125 H416.62438749233365" stroke="#34d399" stroke-width="1.3" fill="none" opacity="0.85"/><path d="M355.25843281155215 1610 H400.8898102145879" stroke="#34d399" stroke-width="1.3" fill="none" opacity="0.85"/><path d="M355.25843281155215 1443.28125 V1610" stroke="#34d399" stroke-width="1.3" fill="none" opacity="0.85"/><path d="M326.82063234476425 1346 H403.8275669011673" stroke="#34d399" stroke-width="1.3" fill="none" opacity="0.85"/><path d="M326.82063234476425 1526.640625 H355.25843281155215" stroke="#34d399" stroke-width="1.3" fill="none" opacity="0.85"/><path d="M326.82063234476425 1346 V1526.640625" stroke="#34d399" stroke-width="1.3" fill="none" opacity="0.85"/><text x="598" y="1646" fill="#cbd5e1" font-size="10" font-weight="400">El Farol Bar Problem</text><text x="598" y="1668" fill="#cbd5e1" font-size="10" font-weight="400">Generative Agents (Smallville)</text><path d="M358.3882649324264 1643 H590" stroke="#34d399" stroke-width="1.3" fill="none" opacity="0.85"/><path d="M358.3882649324264 1665 H590" stroke="#34d399" stroke-width="1.3" fill="none" opacity="0.85"/><path d="M358.3882649324264 1643 V1665" stroke="#34d399" stroke-width="1.3" fill="none" opacity="0.85"/><text x="598" y="1690" fill="#cbd5e1" font-size="10" font-weight="400">Artificial Anasazi</text><text x="598" y="1712" fill="#cbd5e1" font-size="10" font-weight="400">Schelling Segregation Model</text><text x="598" y="1734" fill="#cbd5e1" font-size="10" font-weight="400">SimEarth: The Living Planet</text><text x="598" y="1756" fill="#cbd5e1" font-size="10" font-weight="400">SimAnt: The Electric Ant Colony</text><text x="598" y="1778" fill="#cbd5e1" font-size="10" font-weight="400">StarLogo</text><text x="598" y="1800" fill="#cbd5e1" font-size="10" font-weight="400">Ascape</text><path d="M480.8171810208911 1775 H590" stroke="#34d399" stroke-width="1.3" fill="none" opacity="0.85"/><path d="M480.8171810208911 1797 H590" stroke="#34d399" stroke-width="1.3" fill="none" opacity="0.85"/><path d="M480.8171810208911 1775 V1797" stroke="#34d399" stroke-width="1.3" fill="none" opacity="0.85"/><path d="M458.20467882125433 1753 H590" stroke="#34d399" stroke-width="1.3" fill="none" opacity="0.85"/><path d="M458.20467882125433 1786 H480.8171810208911" stroke="#34d399" stroke-width="1.3" fill="none" opacity="0.85"/><path d="M458.20467882125433 1753 V1786" stroke="#34d399" stroke-width="1.3" fill="none" opacity="0.85"/><path d="M432.7651514171759 1731 H590" stroke="#34d399" stroke-width="1.3" fill="none" opacity="0.85"/><path d="M432.7651514171759 1769.5 H458.20467882125433" stroke="#34d399" stroke-width="1.3" fill="none" opacity="0.85"/><path d="M432.7651514171759 1731 V1769.5" stroke="#34d399" stroke-width="1.3" fill="none" opacity="0.85"/><path d="M422.97558082350093 1709 H590" stroke="#34d399" stroke-width="1.3" fill="none" opacity="0.85"/><path d="M422.97558082350093 1750.25 H432.7651514171759" stroke="#34d399" stroke-width="1.3" fill="none" opacity="0.85"/><path d="M422.97558082350093 1709 V1750.25" stroke="#34d399" stroke-width="1.3" fill="none" opacity="0.85"/><path d="M403.7147571103043 1687 H590" stroke="#34d399" stroke-width="1.3" fill="none" opacity="0.85"/><path d="M403.7147571103043 1729.625 H422.97558082350093" stroke="#34d399" stroke-width="1.3" fill="none" opacity="0.85"/><path d="M403.7147571103043 1687 V1729.625" stroke="#34d399" stroke-width="1.3" fill="none" opacity="0.85"/><text x="598" y="1822" fill="#cbd5e1" font-size="10" font-weight="400">Boids</text><text x="598" y="1844" fill="#cbd5e1" font-size="10" font-weight="400">NetLogo</text><text x="598" y="1866" fill="#cbd5e1" font-size="10" font-weight="400">Mesa</text><path d="M590 1841 H590" stroke="#34d399" stroke-width="1.3" fill="none" opacity="0.85"/><path d="M590 1863 H590" stroke="#34d399" stroke-width="1.3" fill="none" opacity="0.85"/><path d="M590 1841 V1863" stroke="#34d399" stroke-width="1.3" fill="none" opacity="0.85"/><text x="598" y="1888" fill="#cbd5e1" font-size="10" font-weight="400">GAMA Platform</text><text x="598" y="1910" fill="#cbd5e1" font-size="10" font-weight="400">MASON</text><text x="598" y="1932" fill="#cbd5e1" font-size="10" font-weight="400">Repast</text><path d="M512.7960883108088 1907 H590" stroke="#34d399" stroke-width="1.3" fill="none" opacity="0.85"/><path d="M512.7960883108088 1929 H590" stroke="#34d399" stroke-width="1.3" fill="none" opacity="0.85"/><path d="M512.7960883108088 1907 V1929" stroke="#34d399" stroke-width="1.3" fill="none" opacity="0.85"/><path d="M496.8066346658499 1885 H590" stroke="#34d399" stroke-width="1.3" fill="none" opacity="0.85"/><path d="M496.8066346658499 1918 H512.7960883108088" stroke="#34d399" stroke-width="1.3" fill="none" opacity="0.85"/><path d="M496.8066346658499 1885 V1918" stroke="#34d399" stroke-width="1.3" fill="none" opacity="0.85"/><path d="M483.2973905809867 1852 H590" stroke="#34d399" stroke-width="1.3" fill="none" opacity="0.85"/><path d="M483.2973905809867 1901.5 H496.8066346658499" stroke="#34d399" stroke-width="1.3" fill="none" opacity="0.85"/><path d="M483.2973905809867 1852 V1901.5" stroke="#34d399" stroke-width="1.3" fill="none" opacity="0.85"/><path d="M402.8588028286065 1819 H590" stroke="#34d399" stroke-width="1.3" fill="none" opacity="0.85"/><path d="M402.8588028286065 1876.75 H483.2973905809867" stroke="#34d399" stroke-width="1.3" fill="none" opacity="0.85"/><path d="M402.8588028286065 1819 V1876.75" stroke="#34d399" stroke-width="1.3" fill="none" opacity="0.85"/><path d="M356.28246227511926 1708.3125 H403.7147571103043" stroke="#34d399" stroke-width="1.3" fill="none" opacity="0.85"/><path d="M356.28246227511926 1847.875 H402.8588028286065" stroke="#34d399" stroke-width="1.3" fill="none" opacity="0.85"/><path d="M356.28246227511926 1708.3125 V1847.875" stroke="#34d399" stroke-width="1.3" fill="none" opacity="0.85"/><path d="M301.5988587608578 1654 H358.3882649324264" stroke="#34d399" stroke-width="1.3" fill="none" opacity="0.85"/><path d="M301.5988587608578 1778.09375 H356.28246227511926" stroke="#34d399" stroke-width="1.3" fill="none" opacity="0.85"/><path d="M301.5988587608578 1654 V1778.09375" stroke="#34d399" stroke-width="1.3" fill="none" opacity="0.85"/><path d="M210.25480376342242 1436.3203125 H326.82063234476425" stroke="#34d399" stroke-width="1.3" fill="none" opacity="0.85"/><path d="M210.25480376342242 1716.046875 H301.5988587608578" stroke="#34d399" stroke-width="1.3" fill="none" opacity="0.85"/><path d="M210.25480376342242 1436.3203125 V1716.046875" stroke="#34d399" stroke-width="1.3" fill="none" opacity="0.85"/><text x="598" y="1954" fill="#cbd5e1" font-size="10" font-weight="400">Lenia</text><text x="598" y="1976" fill="#cbd5e1" font-size="10" font-weight="400">Particle Lenia</text><path d="M480.8171810208911 1951 H590" stroke="#34d399" stroke-width="1.3" fill="none" opacity="0.85"/><path d="M480.8171810208911 1973 H590" stroke="#34d399" stroke-width="1.3" fill="none" opacity="0.85"/><path d="M480.8171810208911 1951 V1973" stroke="#34d399" stroke-width="1.3" fill="none" opacity="0.85"/><text x="598" y="1998" fill="#cbd5e1" font-size="10" font-weight="400">Flow Lenia</text><text x="598" y="2020" fill="#cbd5e1" font-size="10" font-weight="400">Thrive</text><path d="M435.5921766216176 1995 H590" stroke="#34d399" stroke-width="1.3" fill="none" opacity="0.85"/><path d="M435.5921766216176 2017 H590" stroke="#34d399" stroke-width="1.3" fill="none" opacity="0.85"/><path d="M435.5921766216176 1995 V2017" stroke="#34d399" stroke-width="1.3" fill="none" opacity="0.85"/><path d="M394.7148812573974 1962 H480.8171810208911" stroke="#34d399" stroke-width="1.3" fill="none" opacity="0.85"/><path d="M394.7148812573974 2006 H435.5921766216176" stroke="#34d399" stroke-width="1.3" fill="none" opacity="0.85"/><path d="M394.7148812573974 1962 V2006" stroke="#34d399" stroke-width="1.3" fill="none" opacity="0.85"/><text x="598" y="2042" fill="#cbd5e1" font-size="10" font-weight="400">Clusters (Particle Life)</text><text x="598" y="2064" fill="#cbd5e1" font-size="10" font-weight="400">Spore</text><text x="598" y="2086" fill="#cbd5e1" font-size="10" font-weight="400">Noita</text><text x="598" y="2108" fill="#cbd5e1" font-size="10" font-weight="400">Sandspiel</text><path d="M480.8171810208911 2083 H590" stroke="#34d399" stroke-width="1.3" fill="none" opacity="0.85"/><path d="M480.8171810208911 2105 H590" stroke="#34d399" stroke-width="1.3" fill="none" opacity="0.85"/><path d="M480.8171810208911 2083 V2105" stroke="#34d399" stroke-width="1.3" fill="none" opacity="0.85"/><path d="M418.24099341810273 2061 H590" stroke="#34d399" stroke-width="1.3" fill="none" opacity="0.85"/><path d="M418.24099341810273 2094 H480.8171810208911" stroke="#34d399" stroke-width="1.3" fill="none" opacity="0.85"/><path d="M418.24099341810273 2061 V2094" stroke="#34d399" stroke-width="1.3" fill="none" opacity="0.85"/><path d="M412.45726568359777 2039 H590" stroke="#34d399" stroke-width="1.3" fill="none" opacity="0.85"/><path d="M412.45726568359777 2077.5 H418.24099341810273" stroke="#34d399" stroke-width="1.3" fill="none" opacity="0.85"/><path d="M412.45726568359777 2039 V2077.5" stroke="#34d399" stroke-width="1.3" fill="none" opacity="0.85"/><text x="598" y="2130" fill="#cbd5e1" font-size="10" font-weight="400">OpenSteer</text><text x="598" y="2152" fill="#cbd5e1" font-size="10" font-weight="400">Pezzza's Ant Colony Simulation</text><path d="M480.8171810208911 2127 H590" stroke="#34d399" stroke-width="1.3" fill="none" opacity="0.85"/><path d="M480.8171810208911 2149 H590" stroke="#34d399" stroke-width="1.3" fill="none" opacity="0.85"/><path d="M480.8171810208911 2127 V2149" stroke="#34d399" stroke-width="1.3" fill="none" opacity="0.85"/><text x="598" y="2174" fill="#cbd5e1" font-size="10" font-weight="400">The Powder Toy</text><text x="598" y="2196" fill="#cbd5e1" font-size="10" font-weight="400">SmoothLife</text><text x="598" y="2218" fill="#cbd5e1" font-size="10" font-weight="400">Larger than Life</text><path d="M590 2193 H590" stroke="#34d399" stroke-width="1.3" fill="none" opacity="0.85"/><path d="M590 2215 H590" stroke="#34d399" stroke-width="1.3" fill="none" opacity="0.85"/><path d="M590 2193 V2215" stroke="#34d399" stroke-width="1.3" fill="none" opacity="0.85"/><text x="598" y="2240" fill="#cbd5e1" font-size="10" font-weight="400">Gray-Scott Reaction-Diffusion</text><text x="598" y="2262" fill="#cbd5e1" font-size="10" font-weight="400">Morphozoic</text><path d="M480.8171810208911 2237 H590" stroke="#34d399" stroke-width="1.3" fill="none" opacity="0.85"/><path d="M480.8171810208911 2259 H590" stroke="#34d399" stroke-width="1.3" fill="none" opacity="0.85"/><path d="M480.8171810208911 2237 V2259" stroke="#34d399" stroke-width="1.3" fill="none" opacity="0.85"/><path d="M458.20467882125433 2204 H590" stroke="#34d399" stroke-width="1.3" fill="none" opacity="0.85"/><path d="M458.20467882125433 2248 H480.8171810208911" stroke="#34d399" stroke-width="1.3" fill="none" opacity="0.85"/><path d="M458.20467882125433 2204 V2248" stroke="#34d399" stroke-width="1.3" fill="none" opacity="0.85"/><path d="M435.5921766216176 2171 H590" stroke="#34d399" stroke-width="1.3" fill="none" opacity="0.85"/><path d="M435.5921766216176 2226 H458.20467882125433" stroke="#34d399" stroke-width="1.3" fill="none" opacity="0.85"/><path d="M435.5921766216176 2171 V2226" stroke="#34d399" stroke-width="1.3" fill="none" opacity="0.85"/><path d="M400.26403140428215 2138 H480.8171810208911" stroke="#34d399" stroke-width="1.3" fill="none" opacity="0.85"/><path d="M400.26403140428215 2198.5 H435.5921766216176" stroke="#34d399" stroke-width="1.3" fill="none" opacity="0.85"/><path d="M400.26403140428215 2138 V2198.5" stroke="#34d399" stroke-width="1.3" fill="none" opacity="0.85"/><path d="M388.5569987487069 2058.25 H412.45726568359777" stroke="#34d399" stroke-width="1.3" fill="none" opacity="0.85"/><path d="M388.5569987487069 2168.25 H400.26403140428215" stroke="#34d399" stroke-width="1.3" fill="none" opacity="0.85"/><path d="M388.5569987487069 2058.25 V2168.25" stroke="#34d399" stroke-width="1.3" fill="none" opacity="0.85"/><path d="M336.34183528416344 1984 H394.7148812573974" stroke="#34d399" stroke-width="1.3" fill="none" opacity="0.85"/><path d="M336.34183528416344 2113.25 H388.5569987487069" stroke="#34d399" stroke-width="1.3" fill="none" opacity="0.85"/><path d="M336.34183528416344 1984 V2113.25" stroke="#34d399" stroke-width="1.3" fill="none" opacity="0.85"/><text x="598" y="2284" fill="#cbd5e1" font-size="10" font-weight="400">Game of Life</text><text x="598" y="2306" fill="#cbd5e1" font-size="10" font-weight="400">Voxelyze / VoxCAD</text><text x="598" y="2328" fill="#cbd5e1" font-size="10" font-weight="400">Growing NCA</text><text x="598" y="2350" fill="#cbd5e1" font-size="10" font-weight="400">Genie (Generative Interactive Environments)</text><path d="M430.84005869730333 2325 H590" stroke="#34d399" stroke-width="1.3" fill="none" opacity="0.85"/><path d="M430.84005869730333 2347 H590" stroke="#34d399" stroke-width="1.3" fill="none" opacity="0.85"/><path d="M430.84005869730333 2325 V2347" stroke="#34d399" stroke-width="1.3" fill="none" opacity="0.85"/><text x="598" y="2372" fill="#cbd5e1" font-size="10" font-weight="400">DevoWorm</text><text x="598" y="2394" fill="#cbd5e1" font-size="10" font-weight="400">EvoGym</text><text x="598" y="2416" fill="#cbd5e1" font-size="10" font-weight="400">RoboGrammar</text><path d="M480.8171810208911 2391 H590" stroke="#34d399" stroke-width="1.3" fill="none" opacity="0.85"/><path d="M480.8171810208911 2413 H590" stroke="#34d399" stroke-width="1.3" fill="none" opacity="0.85"/><path d="M480.8171810208911 2391 V2413" stroke="#34d399" stroke-width="1.3" fill="none" opacity="0.85"/><path d="M372.0629571807169 2369 H590" stroke="#34d399" stroke-width="1.3" fill="none" opacity="0.85"/><path d="M372.0629571807169 2402 H480.8171810208911" stroke="#34d399" stroke-width="1.3" fill="none" opacity="0.85"/><path d="M372.0629571807169 2369 V2402" stroke="#34d399" stroke-width="1.3" fill="none" opacity="0.85"/><path d="M348.68567659780905 2336 H430.84005869730333" stroke="#34d399" stroke-width="1.3" fill="none" opacity="0.85"/><path d="M348.68567659780905 2385.5 H372.0629571807169" stroke="#34d399" stroke-width="1.3" fill="none" opacity="0.85"/><path d="M348.68567659780905 2336 V2385.5" stroke="#34d399" stroke-width="1.3" fill="none" opacity="0.85"/><path d="M313.13258713511334 2303 H590" stroke="#34d399" stroke-width="1.3" fill="none" opacity="0.85"/><path d="M313.13258713511334 2360.75 H348.68567659780905" stroke="#34d399" stroke-width="1.3" fill="none" opacity="0.85"/><path d="M313.13258713511334 2303 V2360.75" stroke="#34d399" stroke-width="1.3" fill="none" opacity="0.85"/><path d="M278.9591773951851 2281 H590" stroke="#34d399" stroke-width="1.3" fill="none" opacity="0.85"/><path d="M278.9591773951851 2331.875 H313.13258713511334" stroke="#34d399" stroke-width="1.3" fill="none" opacity="0.85"/><path d="M278.9591773951851 2281 V2331.875" stroke="#34d399" stroke-width="1.3" fill="none" opacity="0.85"/><path d="M271.9834644589125 2048.625 H336.34183528416344" stroke="#34d399" stroke-width="1.3" fill="none" opacity="0.85"/><path d="M271.9834644589125 2306.4375 H278.9591773951851" stroke="#34d399" stroke-width="1.3" fill="none" opacity="0.85"/><path d="M271.9834644589125 2048.625 V2306.4375" stroke="#34d399" stroke-width="1.3" fill="none" opacity="0.85"/><text x="598" y="2438" fill="#cbd5e1" font-size="10" font-weight="400">Rule 110</text><text x="598" y="2460" fill="#cbd5e1" font-size="10" font-weight="400">Wireworld</text><text x="598" y="2482" fill="#cbd5e1" font-size="10" font-weight="400">Langton's Ant</text><path d="M590 2457 H590" stroke="#34d399" stroke-width="1.3" fill="none" opacity="0.85"/><path d="M590 2479 H590" stroke="#34d399" stroke-width="1.3" fill="none" opacity="0.85"/><path d="M590 2457 V2479" stroke="#34d399" stroke-width="1.3" fill="none" opacity="0.85"/><path d="M590 2435 H590" stroke="#34d399" stroke-width="1.3" fill="none" opacity="0.85"/><path d="M590 2468 H590" stroke="#34d399" stroke-width="1.3" fill="none" opacity="0.85"/><path d="M590 2435 V2468" stroke="#34d399" stroke-width="1.3" fill="none" opacity="0.85"/><text x="598" y="2504" fill="#cbd5e1" font-size="10" font-weight="400">Biomorphs</text><text x="598" y="2526" fill="#cbd5e1" font-size="10" font-weight="400">Langton's Loops</text><text x="598" y="2548" fill="#cbd5e1" font-size="10" font-weight="400">von Neumann Universal Constructor</text><path d="M435.5921766216176 2523 H590" stroke="#34d399" stroke-width="1.3" fill="none" opacity="0.85"/><path d="M435.5921766216176 2545 H590" stroke="#34d399" stroke-width="1.3" fill="none" opacity="0.85"/><path d="M435.5921766216176 2523 V2545" stroke="#34d399" stroke-width="1.3" fill="none" opacity="0.85"/><path d="M333.94359257921946 2501 H590" stroke="#34d399" stroke-width="1.3" fill="none" opacity="0.85"/><path d="M333.94359257921946 2534 H435.5921766216176" stroke="#34d399" stroke-width="1.3" fill="none" opacity="0.85"/><path d="M333.94359257921946 2501 V2534" stroke="#34d399" stroke-width="1.3" fill="none" opacity="0.85"/><path d="M237.9132644530423 2451.5 H590" stroke="#34d399" stroke-width="1.3" fill="none" opacity="0.85"/><path d="M237.9132644530423 2517.5 H333.94359257921946" stroke="#34d399" stroke-width="1.3" fill="none" opacity="0.85"/><path d="M237.9132644530423 2451.5 V2517.5" stroke="#34d399" stroke-width="1.3" fill="none" opacity="0.85"/><path d="M189.48212705540948 2177.53125 H271.9834644589125" stroke="#34d399" stroke-width="1.3" fill="none" opacity="0.85"/><path d="M189.48212705540948 2484.5 H237.9132644530423" stroke="#34d399" stroke-width="1.3" fill="none" opacity="0.85"/><path d="M189.48212705540948 2177.53125 V2484.5" stroke="#34d399" stroke-width="1.3" fill="none" opacity="0.85"/><path d="M160.05712170006439 1576.18359375 H210.25480376342242" stroke="#34d399" stroke-width="1.3" fill="none" opacity="0.85"/><path d="M160.05712170006439 2331.015625 H189.48212705540948" stroke="#34d399" stroke-width="1.3" fill="none" opacity="0.85"/><path d="M160.05712170006439 1576.18359375 V2331.015625" stroke="#34d399" stroke-width="1.3" fill="none" opacity="0.85"/><path d="M150.4937638445463 571.31640625 H202.17550095522452" stroke="#34d399" stroke-width="1.3" fill="none" opacity="0.85"/><path d="M150.4937638445463 1953.599609375 H160.05712170006439" stroke="#34d399" stroke-width="1.3" fill="none" opacity="0.85"/><path d="M150.4937638445463 571.31640625 V1953.599609375" stroke="#34d399" stroke-width="1.3" fill="none" opacity="0.85"/><path d="M102.9352692152373 114 H301.1294135402947" stroke="#34d399" stroke-width="1.3" fill="none" opacity="0.85"/><path d="M102.9352692152373 1262.4580078125 H150.4937638445463" stroke="#34d399" stroke-width="1.3" fill="none" opacity="0.85"/><path d="M102.9352692152373 114 V1262.4580078125" stroke="#34d399" stroke-width="1.3" fill="none" opacity="0.85"/><path d="M30 81 H590" stroke="#f59e0b" stroke-width="1.3" fill="none" opacity="0.85"/><path d="M30 688.22900390625 H102.9352692152373" stroke="#f59e0b" stroke-width="1.3" fill="none" opacity="0.85"/><path d="M30 81 V688.22900390625" stroke="#f59e0b" stroke-width="1.3" fill="none" opacity="0.85"/>
</svg>