<svg xmlns="http://www.w3.org/2000/svg" viewBox="0 0 760 2580" font-family="ui-sans-serif,system-ui,Segoe UI,Roboto,sans-serif" role="img" aria-label="Dendrogram">
<rect width="760" height="2580" rx="14" fill="#0b1220"/>
<text x="28" y="30" fill="#cbd5e1" font-size="18" font-weight="700">Capability dendrogram (average-linkage, Euclidean 9-axis)</text><text x="28" y="50" fill="#7c8aa5" font-size="12">leaves grouped by capability-shape similarity; join depth = merge distance.</text><text x="598" y="84" fill="#f59e0b" font-size="10" font-weight="700">COSMOGONIC</text><text x="598" y="106" fill="#cbd5e1" font-size="10" font-weight="400">OpenWorm</text><text x="598" y="128" fill="#cbd5e1" font-size="10" font-weight="400">NerveNet</text><path d="M299.17303514280036 103 H590" stroke="#34d399" stroke-width="1.3" fill="none" opacity="0.85"/><path d="M299.17303514280036 125 H590" stroke="#34d399" stroke-width="1.3" fill="none" opacity="0.85"/><path d="M299.17303514280036 103 V125" stroke="#34d399" stroke-width="1.3" fill="none" opacity="0.85"/><text x="598" y="150" fill="#cbd5e1" font-size="10" font-weight="400">The AI Scientist</text><text x="598" y="172" fill="#cbd5e1" font-size="10" font-weight="400">POET</text><text x="598" y="194" fill="#cbd5e1" font-size="10" font-weight="400">OMNI (Open-endedness via Models of human Notions of Interestingness)</text><path d="M590 169 H590" stroke="#34d399" stroke-width="1.3" fill="none" opacity="0.85"/><path d="M590 191 H590" stroke="#34d399" stroke-width="1.3" fill="none" opacity="0.85"/><path d="M590 169 V191" stroke="#34d399" stroke-width="1.3" fill="none" opacity="0.85"/><text x="598" y="216" fill="#cbd5e1" font-size="10" font-weight="400">Go-Explore</text><text x="598" y="238" fill="#cbd5e1" font-size="10" font-weight="400">Voyager (Minecraft LLM agent)</text><path d="M455.37327518967953 213 H590" stroke="#34d399" stroke-width="1.3" fill="none" opacity="0.85"/><path d="M455.37327518967953 235 H590" stroke="#34d399" stroke-width="1.3" fill="none" opacity="0.85"/><path d="M455.37327518967953 213 V235" stroke="#34d399" stroke-width="1.3" fill="none" opacity="0.85"/><path d="M427.4911675525269 180 H590" stroke="#34d399" stroke-width="1.3" fill="none" opacity="0.85"/><path d="M427.4911675525269 224 H455.37327518967953" stroke="#34d399" stroke-width="1.3" fill="none" opacity="0.85"/><path d="M427.4911675525269 180 V224" stroke="#34d399" stroke-width="1.3" fill="none" opacity="0.85"/><path d="M395.7953651859239 147 H590" stroke="#34d399" stroke-width="1.3" fill="none" opacity="0.85"/><path d="M395.7953651859239 202 H427.4911675525269" stroke="#34d399" stroke-width="1.3" fill="none" opacity="0.85"/><path d="M395.7953651859239 147 V202" stroke="#34d399" stroke-width="1.3" fill="none" opacity="0.85"/><text x="598" y="260" fill="#cbd5e1" font-size="10" font-weight="400">ASAL</text><text x="598" y="282" fill="#cbd5e1" font-size="10" font-weight="400">OMNI-EPIC</text><path d="M370.155478981751 257 H590" stroke="#34d399" stroke-width="1.3" fill="none" opacity="0.85"/><path d="M370.155478981751 279 H590" stroke="#34d399" stroke-width="1.3" fill="none" opacity="0.85"/><path d="M370.155478981751 257 V279" stroke="#34d399" stroke-width="1.3" fill="none" opacity="0.85"/><path d="M362.35563240715607 174.5 H395.7953651859239" stroke="#34d399" stroke-width="1.3" fill="none" opacity="0.85"/><path d="M362.35563240715607 268 H370.155478981751" stroke="#34d399" stroke-width="1.3" fill="none" opacity="0.85"/><path d="M362.35563240715607 174.5 V268" stroke="#34d399" stroke-width="1.3" fill="none" opacity="0.85"/><text x="598" y="304" fill="#cbd5e1" font-size="10" font-weight="400">Promptbreeder</text><text x="598" y="326" fill="#cbd5e1" font-size="10" font-weight="400">Quality-Diversity through AI Feedback (QDAIF)</text><path d="M512.2732241906438 301 H590" stroke="#34d399" stroke-width="1.3" fill="none" opacity="0.85"/><path d="M512.2732241906438 323 H590" stroke="#34d399" stroke-width="1.3" fill="none" opacity="0.85"/><path d="M512.2732241906438 301 V323" stroke="#34d399" stroke-width="1.3" fill="none" opacity="0.85"/><text x="598" y="348" fill="#cbd5e1" font-size="10" font-weight="400">Automated Design of Agentic Systems (ADAS)</text><text x="598" y="370" fill="#cbd5e1" font-size="10" font-weight="400">Darwin Godel Machine (DGM)</text><path d="M480.0777394908755 345 H590" stroke="#34d399" stroke-width="1.3" fill="none" opacity="0.85"/><path d="M480.0777394908755 367 H590" stroke="#34d399" stroke-width="1.3" fill="none" opacity="0.85"/><path d="M480.0777394908755 345 V367" stroke="#34d399" stroke-width="1.3" fill="none" opacity="0.85"/><path d="M374.7020831758708 312 H512.2732241906438" stroke="#34d399" stroke-width="1.3" fill="none" opacity="0.85"/><path d="M374.7020831758708 356 H480.0777394908755" stroke="#34d399" stroke-width="1.3" fill="none" opacity="0.85"/><path d="M374.7020831758708 312 V356" stroke="#34d399" stroke-width="1.3" fill="none" opacity="0.85"/><text x="598" y="392" fill="#cbd5e1" font-size="10" font-weight="400">NEAT (NeuroEvolution of Augmenting Topologies)</text><text x="598" y="414" fill="#cbd5e1" font-size="10" font-weight="400">HyperNEAT</text><text x="598" y="436" fill="#cbd5e1" font-size="10" font-weight="400">ES-HyperNEAT</text><path d="M512.2732241906438 411 H590" stroke="#34d399" stroke-width="1.3" fill="none" opacity="0.85"/><path d="M512.2732241906438 433 H590" stroke="#34d399" stroke-width="1.3" fill="none" opacity="0.85"/><path d="M512.2732241906438 411 V433" stroke="#34d399" stroke-width="1.3" fill="none" opacity="0.85"/><path d="M467.7255073402775 389 H590" stroke="#34d399" stroke-width="1.3" fill="none" opacity="0.85"/><path d="M467.7255073402775 422 H512.2732241906438" stroke="#34d399" stroke-width="1.3" fill="none" opacity="0.85"/><path d="M467.7255073402775 389 V422" stroke="#34d399" stroke-width="1.3" fill="none" opacity="0.85"/><text x="598" y="458" fill="#cbd5e1" font-size="10" font-weight="400">Evolution through Large Models (ELM)</text><text x="598" y="480" fill="#cbd5e1" font-size="10" font-weight="400">MAP-Elites</text><text x="598" y="502" fill="#cbd5e1" font-size="10" font-weight="400">Quality-Diversity (illumination algorithms)</text><path d="M590 477 H590" stroke="#34d399" stroke-width="1.3" fill="none" opacity="0.85"/><path d="M590 499 H590" stroke="#34d399" stroke-width="1.3" fill="none" opacity="0.85"/><path d="M590 477 V499" stroke="#34d399" stroke-width="1.3" fill="none" opacity="0.85"/><text x="598" y="524" fill="#cbd5e1" font-size="10" font-weight="400">Novelty Search</text><text x="598" y="546" fill="#cbd5e1" font-size="10" font-weight="400">OpenELM</text><path d="M480.0777394908755 521 H590" stroke="#34d399" stroke-width="1.3" fill="none" opacity="0.85"/><path d="M480.0777394908755 543 H590" stroke="#34d399" stroke-width="1.3" fill="none" opacity="0.85"/><path d="M480.0777394908755 521 V543" stroke="#34d399" stroke-width="1.3" fill="none" opacity="0.85"/><path d="M434.54644838128763 488 H590" stroke="#34d399" stroke-width="1.3" fill="none" opacity="0.85"/><path d="M434.54644838128763 532 H480.0777394908755" stroke="#34d399" stroke-width="1.3" fill="none" opacity="0.85"/><path d="M434.54644838128763 488 V532" stroke="#34d399" stroke-width="1.3" fill="none" opacity="0.85"/><path d="M400.2759633079828 455 H590" stroke="#34d399" stroke-width="1.3" fill="none" opacity="0.85"/><path d="M400.2759633079828 510 H434.54644838128763" stroke="#34d399" stroke-width="1.3" fill="none" opacity="0.85"/><path d="M400.2759633079828 455 V510" stroke="#34d399" stroke-width="1.3" fill="none" opacity="0.85"/><path d="M374.5170980946711 405.5 H467.7255073402775" stroke="#34d399" stroke-width="1.3" fill="none" opacity="0.85"/><path d="M374.5170980946711 482.5 H400.2759633079828" stroke="#34d399" stroke-width="1.3" fill="none" opacity="0.85"/><path d="M374.5170980946711 405.5 V482.5" stroke="#34d399" stroke-width="1.3" fill="none" opacity="0.85"/><path d="M322.2098562465261 334 H374.7020831758708" stroke="#34d399" stroke-width="1.3" fill="none" opacity="0.85"/><path d="M322.2098562465261 444 H374.5170980946711" stroke="#34d399" stroke-width="1.3" fill="none" opacity="0.85"/><path d="M322.2098562465261 334 V444" stroke="#34d399" stroke-width="1.3" fill="none" opacity="0.85"/><path d="M252.6662415770441 221.25 H362.35563240715607" stroke="#34d399" stroke-width="1.3" fill="none" opacity="0.85"/><path d="M252.6662415770441 389 H322.2098562465261" stroke="#34d399" stroke-width="1.3" fill="none" opacity="0.85"/><path d="M252.6662415770441 221.25 V389" stroke="#34d399" stroke-width="1.3" fill="none" opacity="0.85"/><text x="598" y="568" fill="#cbd5e1" font-size="10" font-weight="400">DERL (Deep Evolutionary Reinforcement Learning)</text><text x="598" y="590" fill="#cbd5e1" font-size="10" font-weight="400">UNIMAL (Universal Animal design space)</text><path d="M512.2732241906438 565 H590" stroke="#34d399" stroke-width="1.3" fill="none" opacity="0.85"/><path d="M512.2732241906438 587 H590" stroke="#34d399" stroke-width="1.3" fill="none" opacity="0.85"/><path d="M512.2732241906438 565 V587" stroke="#34d399" stroke-width="1.3" fill="none" opacity="0.85"/><text x="598" y="612" fill="#cbd5e1" font-size="10" font-weight="400">Transform2Act</text><text x="598" y="634" fill="#cbd5e1" font-size="10" font-weight="400">Neural Graph Evolution (NGE)</text><path d="M455.37327518967953 609 H590" stroke="#34d399" stroke-width="1.3" fill="none" opacity="0.85"/><path d="M455.37327518967953 631 H590" stroke="#34d399" stroke-width="1.3" fill="none" opacity="0.85"/><path d="M455.37327518967953 609 V631" stroke="#34d399" stroke-width="1.3" fill="none" opacity="0.85"/><path d="M444.95986178548355 576 H512.2732241906438" stroke="#34d399" stroke-width="1.3" fill="none" opacity="0.85"/><path d="M444.95986178548355 620 H455.37327518967953" stroke="#34d399" stroke-width="1.3" fill="none" opacity="0.85"/><path d="M444.95986178548355 576 V620" stroke="#34d399" stroke-width="1.3" fill="none" opacity="0.85"/><text x="598" y="656" fill="#cbd5e1" font-size="10" font-weight="400">Karl Sims VC</text><text x="598" y="678" fill="#cbd5e1" font-size="10" font-weight="400">3D Virtual Creature Evolution (3DVCE)</text><text x="598" y="700" fill="#cbd5e1" font-size="10" font-weight="400">Keiwan Evolution</text><path d="M512.2732241906438 675 H590" stroke="#34d399" stroke-width="1.3" fill="none" opacity="0.85"/><path d="M512.2732241906438 697 H590" stroke="#34d399" stroke-width="1.3" fill="none" opacity="0.85"/><path d="M512.2732241906438 675 V697" stroke="#34d399" stroke-width="1.3" fill="none" opacity="0.85"/><path d="M444.95986178548355 653 H590" stroke="#34d399" stroke-width="1.3" fill="none" opacity="0.85"/><path d="M444.95986178548355 686 H512.2732241906438" stroke="#34d399" stroke-width="1.3" fill="none" opacity="0.85"/><path d="M444.95986178548355 653 V686" stroke="#34d399" stroke-width="1.3" fill="none" opacity="0.85"/><text x="598" y="722" fill="#cbd5e1" font-size="10" font-weight="400">Evolving Soft Robots (Cheney / Unshackling Evolution)</text><text x="598" y="744" fill="#cbd5e1" font-size="10" font-weight="400">GOLEM (Genetically Organized Lifelike Electro Mechanics)</text><text x="598" y="766" fill="#cbd5e1" font-size="10" font-weight="400">Krcah Evolved Virtual Creatures (ERO)</text><path d="M455.37327518967953 741 H590" stroke="#34d399" stroke-width="1.3" fill="none" opacity="0.85"/><path d="M455.37327518967953 763 H590" stroke="#34d399" stroke-width="1.3" fill="none" opacity="0.85"/><path d="M455.37327518967953 741 V763" stroke="#34d399" stroke-width="1.3" fill="none" opacity="0.85"/><path d="M425.37204699984045 719 H590" stroke="#34d399" stroke-width="1.3" fill="none" opacity="0.85"/><path d="M425.37204699984045 752 H455.37327518967953" stroke="#34d399" stroke-width="1.3" fill="none" opacity="0.85"/><path d="M425.37204699984045 719 V752" stroke="#34d399" stroke-width="1.3" fill="none" opacity="0.85"/><path d="M406.34506765031983 669.5 H444.95986178548355" stroke="#34d399" stroke-width="1.3" fill="none" opacity="0.85"/><path d="M406.34506765031983 735.5 H425.37204699984045" stroke="#34d399" stroke-width="1.3" fill="none" opacity="0.85"/><path d="M406.34506765031983 669.5 V735.5" stroke="#34d399" stroke-width="1.3" fill="none" opacity="0.85"/><path d="M328.39662813812873 598 H444.95986178548355" stroke="#34d399" stroke-width="1.3" fill="none" opacity="0.85"/><path d="M328.39662813812873 702.5 H406.34506765031983" stroke="#34d399" stroke-width="1.3" fill="none" opacity="0.85"/><path d="M328.39662813812873 598 V702.5" stroke="#34d399" stroke-width="1.3" fill="none" opacity="0.85"/><text x="598" y="788" fill="#cbd5e1" font-size="10" font-weight="400">Cell Lab: Evolution Sandbox</text><text x="598" y="810" fill="#cbd5e1" font-size="10" font-weight="400">Primordial Particle Systems</text><text x="598" y="832" fill="#cbd5e1" font-size="10" font-weight="400">Squirm3</text><path d="M455.37327518967953 807 H590" stroke="#34d399" stroke-width="1.3" fill="none" opacity="0.85"/><path d="M455.37327518967953 829 H590" stroke="#34d399" stroke-width="1.3" fill="none" opacity="0.85"/><path d="M455.37327518967953 807 V829" stroke="#34d399" stroke-width="1.3" fill="none" opacity="0.85"/><path d="M444.95986178548355 785 H590" stroke="#34d399" stroke-width="1.3" fill="none" opacity="0.85"/><path d="M444.95986178548355 818 H455.37327518967953" stroke="#34d399" stroke-width="1.3" fill="none" opacity="0.85"/><path d="M444.95986178548355 785 V818" stroke="#34d399" stroke-width="1.3" fill="none" opacity="0.85"/><text x="598" y="854" fill="#cbd5e1" font-size="10" font-weight="400">Species: Artificial Life, Real Evolution</text><text x="598" y="876" fill="#cbd5e1" font-size="10" font-weight="400">Sebastian Lague Ecosystem</text><text x="598" y="898" fill="#cbd5e1" font-size="10" font-weight="400">Primer Evolution Simulations</text><path d="M480.0777394908755 873 H590" stroke="#34d399" stroke-width="1.3" fill="none" opacity="0.85"/><path d="M480.0777394908755 895 H590" stroke="#34d399" stroke-width="1.3" fill="none" opacity="0.85"/><path d="M480.0777394908755 873 V895" stroke="#34d399" stroke-width="1.3" fill="none" opacity="0.85"/><path d="M435.7854604040365 851 H590" stroke="#34d399" stroke-width="1.3" fill="none" opacity="0.85"/><path d="M435.7854604040365 884 H480.0777394908755" stroke="#34d399" stroke-width="1.3" fill="none" opacity="0.85"/><path d="M435.7854604040365 851 V884" stroke="#34d399" stroke-width="1.3" fill="none" opacity="0.85"/><path d="M404.4368730474549 801.5 H444.95986178548355" stroke="#34d399" stroke-width="1.3" fill="none" opacity="0.85"/><path d="M404.4368730474549 867.5 H435.7854604040365" stroke="#34d399" stroke-width="1.3" fill="none" opacity="0.85"/><path d="M404.4368730474549 801.5 V867.5" stroke="#34d399" stroke-width="1.3" fill="none" opacity="0.85"/><text x="598" y="920" fill="#cbd5e1" font-size="10" font-weight="400">Darwin Pond</text><text x="598" y="942" fill="#cbd5e1" font-size="10" font-weight="400">Gene Pool</text><path d="M473.40983628596575 917 H590" stroke="#34d399" stroke-width="1.3" fill="none" opacity="0.85"/><path d="M473.40983628596575 939 H590" stroke="#34d399" stroke-width="1.3" fill="none" opacity="0.85"/><path d="M473.40983628596575 917 V939" stroke="#34d399" stroke-width="1.3" fill="none" opacity="0.85"/><text x="598" y="964" fill="#cbd5e1" font-size="10" font-weight="400">Picbreeder</text><text x="598" y="986" fill="#cbd5e1" font-size="10" font-weight="400">EndlessForms</text><path d="M416.1976456183933 961 H590" stroke="#34d399" stroke-width="1.3" fill="none" opacity="0.85"/><path d="M416.1976456183933 983 H590" stroke="#34d399" stroke-width="1.3" fill="none" opacity="0.85"/><path d="M416.1976456183933 961 V983" stroke="#34d399" stroke-width="1.3" fill="none" opacity="0.85"/><path d="M390.54720390275304 928 H473.40983628596575" stroke="#34d399" stroke-width="1.3" fill="none" opacity="0.85"/><path d="M390.54720390275304 972 H416.1976456183933" stroke="#34d399" stroke-width="1.3" fill="none" opacity="0.85"/><path d="M390.54720390275304 928 V972" stroke="#34d399" stroke-width="1.3" fill="none" opacity="0.85"/><text x="598" y="1008" fill="#cbd5e1" font-size="10" font-weight="400">ALIEN</text><text x="598" y="1030" fill="#cbd5e1" font-size="10" font-weight="400">breve</text><text x="598" y="1052" fill="#cbd5e1" font-size="10" font-weight="400">Framsticks</text><text x="598" y="1074" fill="#cbd5e1" font-size="10" font-weight="400">Division Blocks</text><path d="M425.11660923631325 1049 H590" stroke="#34d399" stroke-width="1.3" fill="none" opacity="0.85"/><path d="M425.11660923631325 1071 H590" stroke="#34d399" stroke-width="1.3" fill="none" opacity="0.85"/><path d="M425.11660923631325 1049 V1071" stroke="#34d399" stroke-width="1.3" fill="none" opacity="0.85"/><path d="M396.6670517268685 1027 H590" stroke="#34d399" stroke-width="1.3" fill="none" opacity="0.85"/><path d="M396.6670517268685 1060 H425.11660923631325" stroke="#34d399" stroke-width="1.3" fill="none" opacity="0.85"/><path d="M396.6670517268685 1027 V1060" stroke="#34d399" stroke-width="1.3" fill="none" opacity="0.85"/><path d="M366.5536803788243 1005 H590" stroke="#34d399" stroke-width="1.3" fill="none" opacity="0.85"/><path d="M366.5536803788243 1043.5 H396.6670517268685" stroke="#34d399" stroke-width="1.3" fill="none" opacity="0.85"/><path d="M366.5536803788243 1005 V1043.5" stroke="#34d399" stroke-width="1.3" fill="none" opacity="0.85"/><path d="M346.40915206546975 950 H390.54720390275304" stroke="#34d399" stroke-width="1.3" fill="none" opacity="0.85"/><path d="M346.40915206546975 1024.25 H366.5536803788243" stroke="#34d399" stroke-width="1.3" fill="none" opacity="0.85"/><path d="M346.40915206546975 950 V1024.25" stroke="#34d399" stroke-width="1.3" fill="none" opacity="0.85"/><path d="M319.4610725780837 834.5 H404.4368730474549" stroke="#34d399" stroke-width="1.3" fill="none" opacity="0.85"/><path d="M319.4610725780837 987.125 H346.40915206546975" stroke="#34d399" stroke-width="1.3" fill="none" opacity="0.85"/><path d="M319.4610725780837 834.5 V987.125" stroke="#34d399" stroke-width="1.3" fill="none" opacity="0.85"/><text x="598" y="1096" fill="#cbd5e1" font-size="10" font-weight="400">Polyworld</text><text x="598" y="1118" fill="#cbd5e1" font-size="10" font-weight="400">Creatures</text><path d="M407.71455289176663 1093 H590" stroke="#34d399" stroke-width="1.3" fill="none" opacity="0.85"/><path d="M407.71455289176663 1115 H590" stroke="#34d399" stroke-width="1.3" fill="none" opacity="0.85"/><path d="M407.71455289176663 1093 V1115" stroke="#34d399" stroke-width="1.3" fill="none" opacity="0.85"/><text x="598" y="1140" fill="#cbd5e1" font-size="10" font-weight="400">Innovation Engines</text><text x="598" y="1162" fill="#cbd5e1" font-size="10" font-weight="400">Geb</text><text x="598" y="1184" fill="#cbd5e1" font-size="10" font-weight="400">MABE</text><text x="598" y="1206" fill="#cbd5e1" font-size="10" font-weight="400">Minimal Criterion Coevolution (MCC)</text><path d="M455.37327518967953 1181 H590" stroke="#34d399" stroke-width="1.3" fill="none" opacity="0.85"/><path d="M455.37327518967953 1203 H590" stroke="#34d399" stroke-width="1.3" fill="none" opacity="0.85"/><path d="M455.37327518967953 1181 V1203" stroke="#34d399" stroke-width="1.3" fill="none" opacity="0.85"/><path d="M425.37204699984045 1159 H590" stroke="#34d399" stroke-width="1.3" fill="none" opacity="0.85"/><path d="M425.37204699984045 1192 H455.37327518967953" stroke="#34d399" stroke-width="1.3" fill="none" opacity="0.85"/><path d="M425.37204699984045 1159 V1192" stroke="#34d399" stroke-width="1.3" fill="none" opacity="0.85"/><text x="598" y="1228" fill="#cbd5e1" font-size="10" font-weight="400">Chromaria</text><text x="598" y="1250" fill="#cbd5e1" font-size="10" font-weight="400">Evolve 4.0</text><text x="598" y="1272" fill="#cbd5e1" font-size="10" font-weight="400">biosim4</text><text x="598" y="1294" fill="#cbd5e1" font-size="10" font-weight="400">The Bibites</text><path d="M480.0777394908755 1269 H590" stroke="#34d399" stroke-width="1.3" fill="none" opacity="0.85"/><path d="M480.0777394908755 1291 H590" stroke="#34d399" stroke-width="1.3" fill="none" opacity="0.85"/><path d="M480.0777394908755 1269 V1291" stroke="#34d399" stroke-width="1.3" fill="none" opacity="0.85"/><path d="M455.37327518967953 1247 H590" stroke="#34d399" stroke-width="1.3" fill="none" opacity="0.85"/><path d="M455.37327518967953 1280 H480.0777394908755" stroke="#34d399" stroke-width="1.3" fill="none" opacity="0.85"/><path d="M455.37327518967953 1247 V1280" stroke="#34d399" stroke-width="1.3" fill="none" opacity="0.85"/><path d="M391.90680065026385 1225 H590" stroke="#34d399" stroke-width="1.3" fill="none" opacity="0.85"/><path d="M391.90680065026385 1263.5 H455.37327518967953" stroke="#34d399" stroke-width="1.3" fill="none" opacity="0.85"/><path d="M391.90680065026385 1225 V1263.5" stroke="#34d399" stroke-width="1.3" fill="none" opacity="0.85"/><path d="M370.6876373036464 1175.5 H425.37204699984045" stroke="#34d399" stroke-width="1.3" fill="none" opacity="0.85"/><path d="M370.6876373036464 1244.25 H391.90680065026385" stroke="#34d399" stroke-width="1.3" fill="none" opacity="0.85"/><path d="M370.6876373036464 1175.5 V1244.25" stroke="#34d399" stroke-width="1.3" fill="none" opacity="0.85"/><path d="M333.96874704038464 1137 H590" stroke="#34d399" stroke-width="1.3" fill="none" opacity="0.85"/><path d="M333.96874704038464 1209.875 H370.6876373036464" stroke="#34d399" stroke-width="1.3" fill="none" opacity="0.85"/><path d="M333.96874704038464 1137 V1209.875" stroke="#34d399" stroke-width="1.3" fill="none" opacity="0.85"/><path d="M314.35083521063456 1104 H407.71455289176663" stroke="#34d399" stroke-width="1.3" fill="none" opacity="0.85"/><path d="M314.35083521063456 1173.4375 H333.96874704038464" stroke="#34d399" stroke-width="1.3" fill="none" opacity="0.85"/><path d="M314.35083521063456 1104 V1173.4375" stroke="#34d399" stroke-width="1.3" fill="none" opacity="0.85"/><path d="M269.19652225005393 910.8125 H319.4610725780837" stroke="#34d399" stroke-width="1.3" fill="none" opacity="0.85"/><path d="M269.19652225005393 1138.71875 H314.35083521063456" stroke="#34d399" stroke-width="1.3" fill="none" opacity="0.85"/><path d="M269.19652225005393 910.8125 V1138.71875" stroke="#34d399" stroke-width="1.3" fill="none" opacity="0.85"/><path d="M250.52859066760888 650.25 H328.39662813812873" stroke="#34d399" stroke-width="1.3" fill="none" opacity="0.85"/><path d="M250.52859066760888 1024.765625 H269.19652225005393" stroke="#34d399" stroke-width="1.3" fill="none" opacity="0.85"/><path d="M250.52859066760888 650.25 V1024.765625" stroke="#34d399" stroke-width="1.3" fill="none" opacity="0.85"/><path d="M199.54895637950625 305.125 H252.6662415770441" stroke="#34d399" stroke-width="1.3" fill="none" opacity="0.85"/><path d="M199.54895637950625 837.5078125 H250.52859066760888" stroke="#34d399" stroke-width="1.3" fill="none" opacity="0.85"/><path d="M199.54895637950625 305.125 V837.5078125" stroke="#34d399" stroke-width="1.3" fill="none" opacity="0.85"/><text x="598" y="1316" fill="#cbd5e1" font-size="10" font-weight="400">Sugarscape</text><text x="598" y="1338" fill="#cbd5e1" font-size="10" font-weight="400">Swarm</text><path d="M503.09882280919663 1313 H590" stroke="#34d399" stroke-width="1.3" fill="none" opacity="0.85"/><path d="M503.09882280919663 1335 H590" stroke="#34d399" stroke-width="1.3" fill="none" opacity="0.85"/><path d="M503.09882280919663 1313 V1335" stroke="#34d399" stroke-width="1.3" fill="none" opacity="0.85"/><text x="598" y="1360" fill="#cbd5e1" font-size="10" font-weight="400">Echo</text><text x="598" y="1382" fill="#cbd5e1" font-size="10" font-weight="400">SimLife: The Genetic Playground</text><path d="M416.1976456183933 1357 H590" stroke="#34d399" stroke-width="1.3" fill="none" opacity="0.85"/><path d="M416.1976456183933 1379 H590" stroke="#34d399" stroke-width="1.3" fill="none" opacity="0.85"/><path d="M416.1976456183933 1357 V1379" stroke="#34d399" stroke-width="1.3" fill="none" opacity="0.85"/><path d="M402.5667125830198 1324 H503.09882280919663" stroke="#34d399" stroke-width="1.3" fill="none" opacity="0.85"/><path d="M402.5667125830198 1368 H416.1976456183933" stroke="#34d399" stroke-width="1.3" fill="none" opacity="0.85"/><path d="M402.5667125830198 1324 V1368" stroke="#34d399" stroke-width="1.3" fill="none" opacity="0.85"/><text x="598" y="1404" fill="#cbd5e1" font-size="10" font-weight="400">Tierra</text><text x="598" y="1426" fill="#cbd5e1" font-size="10" font-weight="400">Avida</text><path d="M449.87606217143616 1401 H590" stroke="#34d399" stroke-width="1.3" fill="none" opacity="0.85"/><path d="M449.87606217143616 1423 H590" stroke="#34d399" stroke-width="1.3" fill="none" opacity="0.85"/><path d="M449.87606217143616 1401 V1423" stroke="#34d399" stroke-width="1.3" fill="none" opacity="0.85"/><text x="598" y="1448" fill="#cbd5e1" font-size="10" font-weight="400">The Life Engine</text><text x="598" y="1470" fill="#cbd5e1" font-size="10" font-weight="400">Nanopond</text><text x="598" y="1492" fill="#cbd5e1" font-size="10" font-weight="400">Physis</text><path d="M480.0777394908755 1467 H590" stroke="#34d399" stroke-width="1.3" fill="none" opacity="0.85"/><path d="M480.0777394908755 1489 H590" stroke="#34d399" stroke-width="1.3" fill="none" opacity="0.85"/><path d="M480.0777394908755 1467 V1489" stroke="#34d399" stroke-width="1.3" fill="none" opacity="0.85"/><text x="598" y="1514" fill="#cbd5e1" font-size="10" font-weight="400">Network Tierra</text><text x="598" y="1536" fill="#cbd5e1" font-size="10" font-weight="400">Core War</text><text x="598" y="1558" fill="#cbd5e1" font-size="10" font-weight="400">Cosmos</text><text x="598" y="1580" fill="#cbd5e1" font-size="10" font-weight="400">Amoeba</text><path d="M590 1555 H590" stroke="#34d399" stroke-width="1.3" fill="none" opacity="0.85"/><path d="M590 1577 H590" stroke="#34d399" stroke-width="1.3" fill="none" opacity="0.85"/><path d="M590 1555 V1577" stroke="#34d399" stroke-width="1.3" fill="none" opacity="0.85"/><path d="M480.0777394908755 1533 H590" stroke="#34d399" stroke-width="1.3" fill="none" opacity="0.85"/><path d="M480.0777394908755 1566 H590" stroke="#34d399" stroke-width="1.3" fill="none" opacity="0.85"/><path d="M480.0777394908755 1533 V1566" stroke="#34d399" stroke-width="1.3" fill="none" opacity="0.85"/><path d="M464.9006424543462 1511 H590" stroke="#34d399" stroke-width="1.3" fill="none" opacity="0.85"/><path d="M464.9006424543462 1549.5 H480.0777394908755" stroke="#34d399" stroke-width="1.3" fill="none" opacity="0.85"/><path d="M464.9006424543462 1511 V1549.5" stroke="#34d399" stroke-width="1.3" fill="none" opacity="0.85"/><path d="M458.6363317665409 1478 H480.0777394908755" stroke="#34d399" stroke-width="1.3" fill="none" opacity="0.85"/><path d="M458.6363317665409 1530.25 H464.9006424543462" stroke="#34d399" stroke-width="1.3" fill="none" opacity="0.85"/><path d="M458.6363317665409 1478 V1530.25" stroke="#34d399" stroke-width="1.3" fill="none" opacity="0.85"/><path d="M437.00750456244737 1445 H590" stroke="#34d399" stroke-width="1.3" fill="none" opacity="0.85"/><path d="M437.00750456244737 1504.125 H458.6363317665409" stroke="#34d399" stroke-width="1.3" fill="none" opacity="0.85"/><path d="M437.00750456244737 1445 V1504.125" stroke="#34d399" stroke-width="1.3" fill="none" opacity="0.85"/><path d="M415.4501997457744 1412 H449.87606217143616" stroke="#34d399" stroke-width="1.3" fill="none" opacity="0.85"/><path d="M415.4501997457744 1474.5625 H437.00750456244737" stroke="#34d399" stroke-width="1.3" fill="none" opacity="0.85"/><path d="M415.4501997457744 1412 V1474.5625" stroke="#34d399" stroke-width="1.3" fill="none" opacity="0.85"/><text x="598" y="1602" fill="#cbd5e1" font-size="10" font-weight="400">Aevol</text><text x="598" y="1624" fill="#cbd5e1" font-size="10" font-weight="400">Avida-ED</text><path d="M399.60905991537436 1599 H590" stroke="#34d399" stroke-width="1.3" fill="none" opacity="0.85"/><path d="M399.60905991537436 1621 H590" stroke="#34d399" stroke-width="1.3" fill="none" opacity="0.85"/><path d="M399.60905991537436 1599 V1621" stroke="#34d399" stroke-width="1.3" fill="none" opacity="0.85"/><path d="M353.6686436375494 1443.28125 H415.4501997457744" stroke="#34d399" stroke-width="1.3" fill="none" opacity="0.85"/><path d="M353.6686436375494 1610 H399.60905991537436" stroke="#34d399" stroke-width="1.3" fill="none" opacity="0.85"/><path d="M353.6686436375494 1443.28125 V1610" stroke="#34d399" stroke-width="1.3" fill="none" opacity="0.85"/><path d="M325.0382479356865 1346 H402.5667125830198" stroke="#34d399" stroke-width="1.3" fill="none" opacity="0.85"/><path d="M325.0382479356865 1526.640625 H353.6686436375494" stroke="#34d399" stroke-width="1.3" fill="none" opacity="0.85"/><path d="M325.0382479356865 1346 V1526.640625" stroke="#34d399" stroke-width="1.3" fill="none" opacity="0.85"/><text x="598" y="1646" fill="#cbd5e1" font-size="10" font-weight="400">El Farol Bar Problem</text><text x="598" y="1668" fill="#cbd5e1" font-size="10" font-weight="400">Generative Agents (Smallville)</text><path d="M356.81967257193145 1643 H590" stroke="#34d399" stroke-width="1.3" fill="none" opacity="0.85"/><path d="M356.81967257193145 1665 H590" stroke="#34d399" stroke-width="1.3" fill="none" opacity="0.85"/><path d="M356.81967257193145 1643 V1665" stroke="#34d399" stroke-width="1.3" fill="none" opacity="0.85"/><text x="598" y="1690" fill="#cbd5e1" font-size="10" font-weight="400">Artificial Anasazi</text><text x="598" y="1712" fill="#cbd5e1" font-size="10" font-weight="400">Schelling Segregation Model</text><text x="598" y="1734" fill="#cbd5e1" font-size="10" font-weight="400">SimEarth: The Living Planet</text><text x="598" y="1756" fill="#cbd5e1" font-size="10" font-weight="400">SimAnt: The Electric Ant Colony</text><text x="598" y="1778" fill="#cbd5e1" font-size="10" font-weight="400">StarLogo</text><text x="598" y="1800" fill="#cbd5e1" font-size="10" font-weight="400">Ascape</text><path d="M480.0777394908755 1775 H590" stroke="#34d399" stroke-width="1.3" fill="none" opacity="0.85"/><path d="M480.0777394908755 1797 H590" stroke="#34d399" stroke-width="1.3" fill="none" opacity="0.85"/><path d="M480.0777394908755 1775 V1797" stroke="#34d399" stroke-width="1.3" fill="none" opacity="0.85"/><path d="M457.31209393608157 1753 H590" stroke="#34d399" stroke-width="1.3" fill="none" opacity="0.85"/><path d="M457.31209393608157 1786 H480.0777394908755" stroke="#34d399" stroke-width="1.3" fill="none" opacity="0.85"/><path d="M457.31209393608157 1753 V1786" stroke="#34d399" stroke-width="1.3" fill="none" opacity="0.85"/><path d="M431.7002771256438 1731 H590" stroke="#34d399" stroke-width="1.3" fill="none" opacity="0.85"/><path d="M431.7002771256438 1769.5 H457.31209393608157" stroke="#34d399" stroke-width="1.3" fill="none" opacity="0.85"/><path d="M431.7002771256438 1731 V1769.5" stroke="#34d399" stroke-width="1.3" fill="none" opacity="0.85"/><path d="M421.8444065854601 1709 H590" stroke="#34d399" stroke-width="1.3" fill="none" opacity="0.85"/><path d="M421.8444065854601 1750.25 H431.7002771256438" stroke="#34d399" stroke-width="1.3" fill="none" opacity="0.85"/><path d="M421.8444065854601 1709 V1750.25" stroke="#34d399" stroke-width="1.3" fill="none" opacity="0.85"/><path d="M402.45313878693025 1687 H590" stroke="#34d399" stroke-width="1.3" fill="none" opacity="0.85"/><path d="M402.45313878693025 1729.625 H421.8444065854601" stroke="#34d399" stroke-width="1.3" fill="none" opacity="0.85"/><path d="M402.45313878693025 1687 V1729.625" stroke="#34d399" stroke-width="1.3" fill="none" opacity="0.85"/><text x="598" y="1822" fill="#cbd5e1" font-size="10" font-weight="400">Boids</text><text x="598" y="1844" fill="#cbd5e1" font-size="10" font-weight="400">NetLogo</text><text x="598" y="1866" fill="#cbd5e1" font-size="10" font-weight="400">Mesa</text><path d="M590 1841 H590" stroke="#34d399" stroke-width="1.3" fill="none" opacity="0.85"/><path d="M590 1863 H590" stroke="#34d399" stroke-width="1.3" fill="none" opacity="0.85"/><path d="M590 1841 V1863" stroke="#34d399" stroke-width="1.3" fill="none" opacity="0.85"/><text x="598" y="1888" fill="#cbd5e1" font-size="10" font-weight="400">GAMA Platform</text><text x="598" y="1910" fill="#cbd5e1" font-size="10" font-weight="400">MASON</text><text x="598" y="1932" fill="#cbd5e1" font-size="10" font-weight="400">Repast</text><path d="M512.2732241906438 1907 H590" stroke="#34d399" stroke-width="1.3" fill="none" opacity="0.85"/><path d="M512.2732241906438 1929 H590" stroke="#34d399" stroke-width="1.3" fill="none" opacity="0.85"/><path d="M512.2732241906438 1907 V1929" stroke="#34d399" stroke-width="1.3" fill="none" opacity="0.85"/><path d="M496.17548184075963 1885 H590" stroke="#34d399" stroke-width="1.3" fill="none" opacity="0.85"/><path d="M496.17548184075963 1918 H512.2732241906438" stroke="#34d399" stroke-width="1.3" fill="none" opacity="0.85"/><path d="M496.17548184075963 1885 V1918" stroke="#34d399" stroke-width="1.3" fill="none" opacity="0.85"/><path d="M482.5747462903996 1852 H590" stroke="#34d399" stroke-width="1.3" fill="none" opacity="0.85"/><path d="M482.5747462903996 1901.5 H496.17548184075963" stroke="#34d399" stroke-width="1.3" fill="none" opacity="0.85"/><path d="M482.5747462903996 1852 V1901.5" stroke="#34d399" stroke-width="1.3" fill="none" opacity="0.85"/><path d="M401.5913875478942 1819 H590" stroke="#34d399" stroke-width="1.3" fill="none" opacity="0.85"/><path d="M401.5913875478942 1876.75 H482.5747462903996" stroke="#34d399" stroke-width="1.3" fill="none" opacity="0.85"/><path d="M401.5913875478942 1819 V1876.75" stroke="#34d399" stroke-width="1.3" fill="none" opacity="0.85"/><path d="M354.6996083489916 1708.3125 H402.45313878693025" stroke="#34d399" stroke-width="1.3" fill="none" opacity="0.85"/><path d="M354.6996083489916 1847.875 H401.5913875478942" stroke="#34d399" stroke-width="1.3" fill="none" opacity="0.85"/><path d="M354.6996083489916 1708.3125 V1847.875" stroke="#34d399" stroke-width="1.3" fill="none" opacity="0.85"/><path d="M299.64565968493986 1654 H356.81967257193145" stroke="#34d399" stroke-width="1.3" fill="none" opacity="0.85"/><path d="M299.64565968493986 1778.09375 H354.6996083489916" stroke="#34d399" stroke-width="1.3" fill="none" opacity="0.85"/><path d="M299.64565968493986 1654 V1778.09375" stroke="#34d399" stroke-width="1.3" fill="none" opacity="0.85"/><path d="M207.68297633171838 1436.3203125 H325.0382479356865" stroke="#34d399" stroke-width="1.3" fill="none" opacity="0.85"/><path d="M207.68297633171838 1716.046875 H299.64565968493986" stroke="#34d399" stroke-width="1.3" fill="none" opacity="0.85"/><path d="M207.68297633171838 1436.3203125 V1716.046875" stroke="#34d399" stroke-width="1.3" fill="none" opacity="0.85"/><text x="598" y="1954" fill="#cbd5e1" font-size="10" font-weight="400">Lenia</text><text x="598" y="1976" fill="#cbd5e1" font-size="10" font-weight="400">Particle Lenia</text><path d="M480.0777394908755 1951 H590" stroke="#34d399" stroke-width="1.3" fill="none" opacity="0.85"/><path d="M480.0777394908755 1973 H590" stroke="#34d399" stroke-width="1.3" fill="none" opacity="0.85"/><path d="M480.0777394908755 1951 V1973" stroke="#34d399" stroke-width="1.3" fill="none" opacity="0.85"/><text x="598" y="1998" fill="#cbd5e1" font-size="10" font-weight="400">Flow Lenia</text><text x="598" y="2020" fill="#cbd5e1" font-size="10" font-weight="400">Thrive</text><path d="M434.54644838128763 1995 H590" stroke="#34d399" stroke-width="1.3" fill="none" opacity="0.85"/><path d="M434.54644838128763 2017 H590" stroke="#34d399" stroke-width="1.3" fill="none" opacity="0.85"/><path d="M434.54644838128763 1995 V2017" stroke="#34d399" stroke-width="1.3" fill="none" opacity="0.85"/><path d="M393.3923112015726 1962 H480.0777394908755" stroke="#34d399" stroke-width="1.3" fill="none" opacity="0.85"/><path d="M393.3923112015726 2006 H434.54644838128763" stroke="#34d399" stroke-width="1.3" fill="none" opacity="0.85"/><path d="M393.3923112015726 1962 V2006" stroke="#34d399" stroke-width="1.3" fill="none" opacity="0.85"/><text x="598" y="2042" fill="#cbd5e1" font-size="10" font-weight="400">Clusters (Particle Life)</text><text x="598" y="2064" fill="#cbd5e1" font-size="10" font-weight="400">Spore</text><text x="598" y="2086" fill="#cbd5e1" font-size="10" font-weight="400">Noita</text><text x="598" y="2108" fill="#cbd5e1" font-size="10" font-weight="400">Sandspiel</text><path d="M480.0777394908755 2083 H590" stroke="#34d399" stroke-width="1.3" fill="none" opacity="0.85"/><path d="M480.0777394908755 2105 H590" stroke="#34d399" stroke-width="1.3" fill="none" opacity="0.85"/><path d="M480.0777394908755 2083 V2105" stroke="#34d399" stroke-width="1.3" fill="none" opacity="0.85"/><path d="M417.077754148331 2061 H590" stroke="#34d399" stroke-width="1.3" fill="none" opacity="0.85"/><path d="M417.077754148331 2094 H480.0777394908755" stroke="#34d399" stroke-width="1.3" fill="none" opacity="0.85"/><path d="M417.077754148331 2061 V2094" stroke="#34d399" stroke-width="1.3" fill="none" opacity="0.85"/><path d="M411.2548560706788 2039 H590" stroke="#34d399" stroke-width="1.3" fill="none" opacity="0.85"/><path d="M411.2548560706788 2077.5 H417.077754148331" stroke="#34d399" stroke-width="1.3" fill="none" opacity="0.85"/><path d="M411.2548560706788 2039 V2077.5" stroke="#34d399" stroke-width="1.3" fill="none" opacity="0.85"/><text x="598" y="2130" fill="#cbd5e1" font-size="10" font-weight="400">OpenSteer</text><text x="598" y="2152" fill="#cbd5e1" font-size="10" font-weight="400">Pezzza's Ant Colony Simulation</text><path d="M480.0777394908755 2127 H590" stroke="#34d399" stroke-width="1.3" fill="none" opacity="0.85"/><path d="M480.0777394908755 2149 H590" stroke="#34d399" stroke-width="1.3" fill="none" opacity="0.85"/><path d="M480.0777394908755 2127 V2149" stroke="#34d399" stroke-width="1.3" fill="none" opacity="0.85"/><text x="598" y="2174" fill="#cbd5e1" font-size="10" font-weight="400">The Powder Toy</text><text x="598" y="2196" fill="#cbd5e1" font-size="10" font-weight="400">SmoothLife</text><text x="598" y="2218" fill="#cbd5e1" font-size="10" font-weight="400">Larger than Life</text><path d="M590 2193 H590" stroke="#34d399" stroke-width="1.3" fill="none" opacity="0.85"/><path d="M590 2215 H590" stroke="#34d399" stroke-width="1.3" fill="none" opacity="0.85"/><path d="M590 2193 V2215" stroke="#34d399" stroke-width="1.3" fill="none" opacity="0.85"/><text x="598" y="2240" fill="#cbd5e1" font-size="10" font-weight="400">Gray-Scott Reaction-Diffusion</text><text x="598" y="2262" fill="#cbd5e1" font-size="10" font-weight="400">Morphozoic</text><path d="M480.0777394908755 2237 H590" stroke="#34d399" stroke-width="1.3" fill="none" opacity="0.85"/><path d="M480.0777394908755 2259 H590" stroke="#34d399" stroke-width="1.3" fill="none" opacity="0.85"/><path d="M480.0777394908755 2237 V2259" stroke="#34d399" stroke-width="1.3" fill="none" opacity="0.85"/><path d="M457.31209393608157 2204 H590" stroke="#34d399" stroke-width="1.3" fill="none" opacity="0.85"/><path d="M457.31209393608157 2248 H480.0777394908755" stroke="#34d399" stroke-width="1.3" fill="none" opacity="0.85"/><path d="M457.31209393608157 2204 V2248" stroke="#34d399" stroke-width="1.3" fill="none" opacity="0.85"/><path d="M434.54644838128763 2171 H590" stroke="#34d399" stroke-width="1.3" fill="none" opacity="0.85"/><path d="M434.54644838128763 2226 H457.31209393608157" stroke="#34d399" stroke-width="1.3" fill="none" opacity="0.85"/><path d="M434.54644838128763 2171 V2226" stroke="#34d399" stroke-width="1.3" fill="none" opacity="0.85"/><path d="M398.97904301298354 2138 H480.0777394908755" stroke="#34d399" stroke-width="1.3" fill="none" opacity="0.85"/><path d="M398.97904301298354 2198.5 H434.54644838128763" stroke="#34d399" stroke-width="1.3" fill="none" opacity="0.85"/><path d="M398.97904301298354 2138 V2198.5" stroke="#34d399" stroke-width="1.3" fill="none" opacity="0.85"/><path d="M387.192724383482 2058.25 H411.2548560706788" stroke="#34d399" stroke-width="1.3" fill="none" opacity="0.85"/><path d="M387.192724383482 2168.25 H398.97904301298354" stroke="#34d399" stroke-width="1.3" fill="none" opacity="0.85"/><path d="M387.192724383482 2058.25 V2168.25" stroke="#34d399" stroke-width="1.3" fill="none" opacity="0.85"/><path d="M334.6239332994719 1984 H393.3923112015726" stroke="#34d399" stroke-width="1.3" fill="none" opacity="0.85"/><path d="M334.6239332994719 2113.25 H387.192724383482" stroke="#34d399" stroke-width="1.3" fill="none" opacity="0.85"/><path d="M334.6239332994719 1984 V2113.25" stroke="#34d399" stroke-width="1.3" fill="none" opacity="0.85"/><text x="598" y="2284" fill="#cbd5e1" font-size="10" font-weight="400">Game of Life</text><text x="598" y="2306" fill="#cbd5e1" font-size="10" font-weight="400">Voxelyze / VoxCAD</text><text x="598" y="2328" fill="#cbd5e1" font-size="10" font-weight="400">Growing NCA</text><text x="598" y="2350" fill="#cbd5e1" font-size="10" font-weight="400">Genie (Generative Interactive Environments)</text><path d="M429.76214669966043 2325 H590" stroke="#34d399" stroke-width="1.3" fill="none" opacity="0.85"/><path d="M429.76214669966043 2347 H590" stroke="#34d399" stroke-width="1.3" fill="none" opacity="0.85"/><path d="M429.76214669966043 2325 V2347" stroke="#34d399" stroke-width="1.3" fill="none" opacity="0.85"/><text x="598" y="2372" fill="#cbd5e1" font-size="10" font-weight="400">DevoWorm</text><text x="598" y="2394" fill="#cbd5e1" font-size="10" font-weight="400">EvoGym</text><text x="598" y="2416" fill="#cbd5e1" font-size="10" font-weight="400">RoboGrammar</text><path d="M480.0777394908755 2391 H590" stroke="#34d399" stroke-width="1.3" fill="none" opacity="0.85"/><path d="M480.0777394908755 2413 H590" stroke="#34d399" stroke-width="1.3" fill="none" opacity="0.85"/><path d="M480.0777394908755 2391 V2413" stroke="#34d399" stroke-width="1.3" fill="none" opacity="0.85"/><path d="M370.5869767847519 2369 H590" stroke="#34d399" stroke-width="1.3" fill="none" opacity="0.85"/><path d="M370.5869767847519 2402 H480.0777394908755" stroke="#34d399" stroke-width="1.3" fill="none" opacity="0.85"/><path d="M370.5869767847519 2369 V2402" stroke="#34d399" stroke-width="1.3" fill="none" opacity="0.85"/><path d="M347.0513733788626 2336 H429.76214669966043" stroke="#34d399" stroke-width="1.3" fill="none" opacity="0.85"/><path d="M347.0513733788626 2385.5 H370.5869767847519" stroke="#34d399" stroke-width="1.3" fill="none" opacity="0.85"/><path d="M347.0513733788626 2336 V2385.5" stroke="#34d399" stroke-width="1.3" fill="none" opacity="0.85"/><path d="M311.25750032846616 2303 H590" stroke="#34d399" stroke-width="1.3" fill="none" opacity="0.85"/><path d="M311.25750032846616 2360.75 H347.0513733788626" stroke="#34d399" stroke-width="1.3" fill="none" opacity="0.85"/><path d="M311.25750032846616 2303 V2360.75" stroke="#34d399" stroke-width="1.3" fill="none" opacity="0.85"/><path d="M276.8526508929868 2281 H590" stroke="#34d399" stroke-width="1.3" fill="none" opacity="0.85"/><path d="M276.8526508929868 2331.875 H311.25750032846616" stroke="#34d399" stroke-width="1.3" fill="none" opacity="0.85"/><path d="M276.8526508929868 2281 V2331.875" stroke="#34d399" stroke-width="1.3" fill="none" opacity="0.85"/><path d="M269.8296948840881 2048.625 H334.6239332994719" stroke="#34d399" stroke-width="1.3" fill="none" opacity="0.85"/><path d="M269.8296948840881 2306.4375 H276.8526508929868" stroke="#34d399" stroke-width="1.3" fill="none" opacity="0.85"/><path d="M269.8296948840881 2048.625 V2306.4375" stroke="#34d399" stroke-width="1.3" fill="none" opacity="0.85"/><text x="598" y="2438" fill="#cbd5e1" font-size="10" font-weight="400">Rule 110</text><text x="598" y="2460" fill="#cbd5e1" font-size="10" font-weight="400">Wireworld</text><text x="598" y="2482" fill="#cbd5e1" font-size="10" font-weight="400">Langton's Ant</text><path d="M590 2457 H590" stroke="#34d399" stroke-width="1.3" fill="none" opacity="0.85"/><path d="M590 2479 H590" stroke="#34d399" stroke-width="1.3" fill="none" opacity="0.85"/><path d="M590 2457 V2479" stroke="#34d399" stroke-width="1.3" fill="none" opacity="0.85"/><path d="M590 2435 H590" stroke="#34d399" stroke-width="1.3" fill="none" opacity="0.85"/><path d="M590 2468 H590" stroke="#34d399" stroke-width="1.3" fill="none" opacity="0.85"/><path d="M590 2435 V2468" stroke="#34d399" stroke-width="1.3" fill="none" opacity="0.85"/><text x="598" y="2504" fill="#cbd5e1" font-size="10" font-weight="400">Biomorphs</text><text x="598" y="2526" fill="#cbd5e1" font-size="10" font-weight="400">Langton's Loops</text><text x="598" y="2548" fill="#cbd5e1" font-size="10" font-weight="400">von Neumann Universal Constructor</text><path d="M434.54644838128763 2523 H590" stroke="#34d399" stroke-width="1.3" fill="none" opacity="0.85"/><path d="M434.54644838128763 2545 H590" stroke="#34d399" stroke-width="1.3" fill="none" opacity="0.85"/><path d="M434.54644838128763 2523 V2545" stroke="#34d399" stroke-width="1.3" fill="none" opacity="0.85"/><path d="M332.2094484762929 2501 H590" stroke="#34d399" stroke-width="1.3" fill="none" opacity="0.85"/><path d="M332.2094484762929 2534 H434.54644838128763" stroke="#34d399" stroke-width="1.3" fill="none" opacity="0.85"/><path d="M332.2094484762929 2501 V2534" stroke="#34d399" stroke-width="1.3" fill="none" opacity="0.85"/><path d="M235.52875417143056 2451.5 H590" stroke="#34d399" stroke-width="1.3" fill="none" opacity="0.85"/><path d="M235.52875417143056 2517.5 H332.2094484762929" stroke="#34d399" stroke-width="1.3" fill="none" opacity="0.85"/><path d="M235.52875417143056 2451.5 V2517.5" stroke="#34d399" stroke-width="1.3" fill="none" opacity="0.85"/><path d="M186.7696165016619 2177.53125 H269.8296948840881" stroke="#34d399" stroke-width="1.3" fill="none" opacity="0.85"/><path d="M186.7696165016619 2484.5 H235.52875417143056" stroke="#34d399" stroke-width="1.3" fill="none" opacity="0.85"/><path d="M186.7696165016619 2177.53125 V2484.5" stroke="#34d399" stroke-width="1.3" fill="none" opacity="0.85"/><path d="M157.1453300581006 1576.18359375 H207.68297633171838" stroke="#34d399" stroke-width="1.3" fill="none" opacity="0.85"/><path d="M157.1453300581006 2331.015625 H186.7696165016619" stroke="#34d399" stroke-width="1.3" fill="none" opacity="0.85"/><path d="M157.1453300581006 1576.18359375 V2331.015625" stroke="#34d399" stroke-width="1.3" fill="none" opacity="0.85"/><path d="M147.51720428368375 571.31640625 H199.54895637950625" stroke="#34d399" stroke-width="1.3" fill="none" opacity="0.85"/><path d="M147.51720428368375 1953.599609375 H157.1453300581006" stroke="#34d399" stroke-width="1.3" fill="none" opacity="0.85"/><path d="M147.51720428368375 571.31640625 V1953.599609375" stroke="#34d399" stroke-width="1.3" fill="none" opacity="0.85"/><path d="M99.63661936248863 114 H299.17303514280036" stroke="#34d399" stroke-width="1.3" fill="none" opacity="0.85"/><path d="M99.63661936248863 1262.4580078125 H147.51720428368375" stroke="#34d399" stroke-width="1.3" fill="none" opacity="0.85"/><path d="M99.63661936248863 114 V1262.4580078125" stroke="#34d399" stroke-width="1.3" fill="none" opacity="0.85"/><path d="M30 81 H590" stroke="#f59e0b" stroke-width="1.3" fill="none" opacity="0.85"/><path d="M30 688.22900390625 H99.63661936248863" stroke="#f59e0b" stroke-width="1.3" fill="none" opacity="0.85"/><path d="M30 81 V688.22900390625" stroke="#f59e0b" stroke-width="1.3" fill="none" opacity="0.85"/>
</svg>