<svg xmlns="http://www.w3.org/2000/svg" viewBox="0 0 680 332" font-family="ui-sans-serif,system-ui,Segoe UI,Roboto,sans-serif" role="img" aria-label="Nearest neighbours">
<rect width="680" height="332" rx="14" fill="#0b1220"/>
<text x="28" y="30" fill="#cbd5e1" font-size="18" font-weight="700">Nearest neighbours in 9-axis feature space</text><text x="28" y="50" fill="#7c8aa5" font-size="12">Euclidean distance from Cosmogonic (lower = more similar capability shape).</text><text x="140" y="83" fill="#cbd5e1" font-size="11" text-anchor="end">ALIEN</text><rect x="150" y="69" width="300.7897603485839" height="18" rx="3" fill="#34d399" opacity="0.78"/><text x="456.7897603485839" y="83" fill="#7c8aa5" font-size="10">5.17</text><text x="140" y="113" fill="#cbd5e1" font-size="11" text-anchor="end">Creatures</text><rect x="150" y="99" width="324.0616953852248" height="18" rx="3" fill="#34d399" opacity="0.78"/><text x="480.0616953852248" y="113" fill="#7c8aa5" font-size="10">5.57</text><text x="140" y="143" fill="#cbd5e1" font-size="11" text-anchor="end">Polyworld</text><rect x="150" y="129" width="377.0053475935829" height="18" rx="3" fill="#34d399" opacity="0.78"/><text x="533.0053475935829" y="143" fill="#7c8aa5" font-size="10">6.48</text><text x="140" y="173" fill="#cbd5e1" font-size="11" text-anchor="end">Framsticks</text><rect x="150" y="159" width="381.65973460091107" height="18" rx="3" fill="#34d399" opacity="0.78"/><text x="537.6597346009111" y="173" fill="#7c8aa5" font-size="10">6.56</text><text x="140" y="203" fill="#cbd5e1" font-size="11" text-anchor="end">breve</text><rect x="150" y="189" width="407.2588631412161" height="18" rx="3" fill="#34d399" opacity="0.78"/><text x="563.2588631412161" y="203" fill="#7c8aa5" font-size="10">7.00</text><text x="140" y="233" fill="#cbd5e1" font-size="11" text-anchor="end">Karl Sims VC</text><rect x="150" y="219" width="415.4040404040404" height="18" rx="3" fill="#34d399" opacity="0.78"/><text x="571.4040404040404" y="233" fill="#7c8aa5" font-size="10">7.14</text><text x="140" y="263" fill="#cbd5e1" font-size="11" text-anchor="end">ASAL</text><rect x="150" y="249" width="427.62180629827685" height="18" rx="3" fill="#34d399" opacity="0.78"/><text x="583.6218062982769" y="263" fill="#7c8aa5" font-size="10">7.35</text><text x="140" y="293" fill="#cbd5e1" font-size="11" text-anchor="end">Picbreeder</text><rect x="150" y="279" width="435.1851851851852" height="18" rx="3" fill="#34d399" opacity="0.78"/><text x="591.1851851851852" y="293" fill="#7c8aa5" font-size="10">7.48</text>
</svg>