<svg xmlns="http://www.w3.org/2000/svg" viewBox="0 0 760 600" font-family="ui-sans-serif,system-ui,Segoe UI,Roboto,sans-serif" role="img" aria-label="PCA projection">
<rect width="760" height="600" rx="14" fill="#0b1220"/>
<text x="28" y="30" fill="#cbd5e1" font-size="18" font-weight="700">PCA of 113 A-Life systems (9-axis correlation-matrix eigenbasis)</text><text x="28" y="50" fill="#7c8aa5" font-size="12">PC1 25.3% var · PC2 21.6% var · together 47.0%. amber = this repo.</text><line x1="171.46092430523566" y1="70" x2="171.46092430523566" y2="540" stroke="#27344d" stroke-width="0.8"/><line x1="60" y1="317.76335422262014" x2="730" y2="317.76335422262014" stroke="#27344d" stroke-width="0.8"/><text x="730" y="544" fill="#7c8aa5" font-size="11" text-anchor="end">PC1 (generalist breadth →)</text><text x="54" y="62" fill="#7c8aa5" font-size="11">PC2</text><circle cx="730" cy="163.06028051327962" r="8" fill="#f59e0b"/><circle cx="730" cy="163.06028051327962" r="13" fill="none" stroke="#f59e0b" stroke-width="1.4" opacity="0.6"/><text x="718" y="151.06028051327962" fill="#f59e0b" font-size="11" font-weight="700" text-anchor="end">COSMOGONIC</text><circle cx="138.5421464762782" cy="311.101163831692" r="4.5" fill="#38bdf8" opacity="0.85"/><text x="145.5421464762782" y="325.101163831692" fill="#7c8aa5" font-size="9">Game of Life</text><circle cx="119.76815599570091" cy="227.15756490599819" r="4.5" fill="#38bdf8" opacity="0.85"/><text x="126.76815599570091" y="219.15756490599819" fill="#7c8aa5" font-size="9">Boids</text><circle cx="127.32918777828957" cy="249.6687555953447" r="4.5" fill="#38bdf8" opacity="0.85"/><text x="134.32918777828957" y="263.6687555953447" fill="#7c8aa5" font-size="9">Biomorphs</text><circle cx="122.03132197144173" cy="428.98686959116685" r="4.5" fill="#38bdf8" opacity="0.85"/><text x="129.03132197144174" y="420.98686959116685" fill="#7c8aa5" font-size="9">Core War</text><circle cx="129.95240288653463" cy="460.54461354819455" r="4.5" fill="#38bdf8" opacity="0.85"/><text x="136.95240288653463" y="474.54461354819455" fill="#7c8aa5" font-size="9">Tierra</text><circle cx="157.36757254721326" cy="465.45359594151" r="4.5" fill="#38bdf8" opacity="0.85"/><text x="164.36757254721326" y="457.45359594151" fill="#7c8aa5" font-size="9">Avida</text><circle cx="247.84277598648856" cy="361.52342584303193" r="4.5" fill="#38bdf8" opacity="0.85"/><text x="254.84277598648856" y="375.52342584303193" fill="#7c8aa5" font-size="9">Polyworld</text><circle cx="272.22324581606017" cy="337.25902715607276" r="4.5" fill="#38bdf8" opacity="0.85"/><text x="279.22324581606017" y="329.25902715607276" fill="#7c8aa5" font-size="9">Framsticks</text><circle cx="226.39413480730846" cy="263.48403461653237" r="4.5" fill="#38bdf8" opacity="0.85"/><text x="233.39413480730846" y="277.48403461653237" fill="#7c8aa5" font-size="9">Karl Sims VC</text><circle cx="372.2140334715185" cy="273.1617427633542" r="4.5" fill="#38bdf8" opacity="0.85"/><text x="379.2140334715185" y="265.1617427633542" fill="#7c8aa5" font-size="9">Creatures</text><circle cx="191.93228926761861" cy="296.44434497165025" r="4.5" fill="#38bdf8" opacity="0.85"/><text x="198.93228926761861" y="310.44434497165025" fill="#7c8aa5" font-size="9">Darwin Pond</text><circle cx="210.08905266390295" cy="299.5299910474485" r="4.5" fill="#38bdf8" opacity="0.85"/><text x="217.08905266390295" y="291.5299910474485" fill="#7c8aa5" font-size="9">Gene Pool</text><circle cx="164.15707047443573" cy="417.6962100865413" r="4.5" fill="#38bdf8" opacity="0.85"/><text x="171.15707047443573" y="431.6962100865413" fill="#7c8aa5" font-size="9">Sugarscape</text><circle cx="147.90342392138797" cy="435.15816174276335" r="4.5" fill="#38bdf8" opacity="0.85"/><text x="154.90342392138797" y="427.15816174276335" fill="#7c8aa5" font-size="9">Echo</text><circle cx="154.53861507753723" cy="390.7669352432109" r="4.5" fill="#38bdf8" opacity="0.85"/><text x="161.53861507753723" y="404.7669352432109" fill="#7c8aa5" font-size="9">Swarm</text><circle cx="207.92875786887763" cy="273.1617427633542" r="4.5" fill="#38bdf8" opacity="0.85"/><text x="214.92875786887763" y="265.1617427633542" fill="#7c8aa5" font-size="9">breve</text><circle cx="222.17641639797327" cy="310.47000895255144" r="4.5" fill="#38bdf8" opacity="0.85"/><text x="229.17641639797327" y="324.47000895255144" fill="#7c8aa5" font-size="9">Picbreeder</text><circle cx="198.1045601105481" cy="465.313339301701" r="4.5" fill="#38bdf8" opacity="0.85"/><text x="205.1045601105481" y="457.313339301701" fill="#7c8aa5" font-size="9">MABE</text><circle cx="160.91662828189772" cy="182.6260817666368" r="4.5" fill="#38bdf8" opacity="0.85"/><text x="167.91662828189772" y="196.6260817666368" fill="#7c8aa5" font-size="9">Lenia</text><circle cx="204.17395977276217" cy="216.63831692032227" r="4.5" fill="#38bdf8" opacity="0.85"/><text x="211.17395977276217" y="208.63831692032227" fill="#7c8aa5" font-size="9">Growing NCA</text><circle cx="389.136342699217" cy="152.12026260817663" r="4.5" fill="#38bdf8" opacity="0.85"/><text x="396.136342699217" y="166.12026260817663" fill="#7c8aa5" font-size="9">OpenWorm</text><circle cx="195.6356517733763" cy="442.0307370934049" r="4.5" fill="#38bdf8" opacity="0.85"/><text x="202.6356517733763" y="434.0307370934049" fill="#7c8aa5" font-size="9">POET</text><circle cx="205.09980039920157" cy="317.0620710235751" r="4.5" fill="#38bdf8" opacity="0.85"/><text x="212.09980039920157" y="331.0620710235751" fill="#7c8aa5" font-size="9">EvoGym</text><circle cx="409.40196530016885" cy="229.12115786332436" r="4.5" fill="#38bdf8" opacity="0.85"/><text x="416.40196530016885" y="221.12115786332436" fill="#7c8aa5" font-size="9">ALIEN</text><circle cx="274.28066943037004" cy="324.35541629364366" r="4.5" fill="#38bdf8" opacity="0.85"/><text x="281.28066943037004" y="338.35541629364366" fill="#7c8aa5" font-size="9">ASAL</text><circle cx="60" cy="237.60668457176962" r="4.5" fill="#38bdf8" opacity="0.85"/><text x="67" y="229.60668457176962" fill="#7c8aa5" font-size="9">Wireworld</text><circle cx="60" cy="237.60668457176962" r="4.5" fill="#38bdf8" opacity="0.85"/><text x="67" y="251.60668457176962" fill="#7c8aa5" font-size="9">Langton's Ant</text><circle cx="92.25011515430677" cy="269.23455684870186" r="4.5" fill="#38bdf8" opacity="0.85"/><text x="99.25011515430677" y="261.23455684870186" fill="#7c8aa5" font-size="9">Langton's Loops</text><circle cx="79.95700905880545" cy="296.44434497165025" r="4.5" fill="#38bdf8" opacity="0.85"/><text x="86.95700905880545" y="310.44434497165025" fill="#7c8aa5" font-size="9">von Neumann Universal Constructor</text><circle cx="60" cy="237.60668457176962" r="4.5" fill="#38bdf8" opacity="0.85"/><text x="67" y="229.60668457176962" fill="#7c8aa5" font-size="9">Rule 110</text><circle cx="124.3459235375403" cy="178.3482542524619" r="4.5" fill="#38bdf8" opacity="0.85"/><text x="131.3459235375403" y="192.3482542524619" fill="#7c8aa5" font-size="9">SmoothLife</text><circle cx="124.3459235375403" cy="178.3482542524619" r="4.5" fill="#38bdf8" opacity="0.85"/><text x="131.3459235375403" y="170.3482542524619" fill="#7c8aa5" font-size="9">Larger than Life</text><circle cx="194.50406878550592" cy="245.39092808116976" r="4.5" fill="#38bdf8" opacity="0.85"/><text x="201.50406878550592" y="259.39092808116976" fill="#7c8aa5" font-size="9">Flow Lenia</text><circle cx="154.6414862582527" cy="200.08803342285887" r="4.5" fill="#38bdf8" opacity="0.85"/><text x="161.6414862582527" y="192.08803342285887" fill="#7c8aa5" font-size="9">Particle Lenia</text><circle cx="150.88668816213726" cy="240.5520740077589" r="4.5" fill="#38bdf8" opacity="0.85"/><text x="157.88668816213726" y="254.5520740077589" fill="#7c8aa5" font-size="9">Primordial Particle Systems</text><circle cx="124.55166589897128" cy="178.3482542524619" r="4.5" fill="#38bdf8" opacity="0.85"/><text x="131.5516658989713" y="170.3482542524619" fill="#7c8aa5" font-size="9">Gray-Scott Reaction-Diffusion</text><circle cx="128.97512666973745" cy="417.3455684870188" r="4.5" fill="#38bdf8" opacity="0.85"/><text x="135.97512666973745" y="431.3455684870188" fill="#7c8aa5" font-size="9">Aevol</text><circle cx="153.7156456318133" cy="418.8182632050134" r="4.5" fill="#38bdf8" opacity="0.85"/><text x="160.7156456318133" y="410.8182632050134" fill="#7c8aa5" font-size="9">Avida-ED</text><circle cx="114.11024105634883" cy="372.6037003879439" r="4.5" fill="#38bdf8" opacity="0.85"/><text x="121.11024105634883" y="386.6037003879439" fill="#7c8aa5" font-size="9">Nanopond</text><circle cx="105.41762628588975" cy="353.73918233363173" r="4.5" fill="#38bdf8" opacity="0.85"/><text x="112.41762628588975" y="345.73918233363173" fill="#7c8aa5" font-size="9">Physis</text><circle cx="118.22508828496852" cy="382.35153685467026" r="4.5" fill="#38bdf8" opacity="0.85"/><text x="125.22508828496852" y="396.35153685467026" fill="#7c8aa5" font-size="9">Cosmos</text><circle cx="208.08306463995083" cy="507.81110116383167" r="4.5" fill="#38bdf8" opacity="0.85"/><text x="215.08306463995083" y="499.81110116383167" fill="#7c8aa5" font-size="9">Geb</text><circle cx="118.22508828496852" cy="382.35153685467026" r="4.5" fill="#38bdf8" opacity="0.85"/><text x="125.22508828496852" y="396.35153685467026" fill="#7c8aa5" font-size="9">Amoeba</text><circle cx="174.1870105941962" cy="345.744553864518" r="4.5" fill="#38bdf8" opacity="0.85"/><text x="181.1870105941962" y="337.744553864518" fill="#7c8aa5" font-size="9">Evolve 4.0</text><circle cx="143.7885766927683" cy="282.4888093106535" r="4.5" fill="#38bdf8" opacity="0.85"/><text x="150.7885766927683" y="296.4888093106535" fill="#7c8aa5" font-size="9">Squirm3</text><circle cx="126.9177030554276" cy="401.2160549089824" r="4.5" fill="#38bdf8" opacity="0.85"/><text x="133.91770305542758" y="393.2160549089824" fill="#7c8aa5" font-size="9">Network Tierra</text><circle cx="186.63442346077076" cy="361.0325276037004" r="4.5" fill="#38bdf8" opacity="0.85"/><text x="193.63442346077076" y="375.0325276037004" fill="#7c8aa5" font-size="9">biosim4</text><circle cx="180.87363734070317" cy="278.1408534765742" r="4.5" fill="#38bdf8" opacity="0.85"/><text x="187.87363734070317" y="270.1408534765742" fill="#7c8aa5" font-size="9">GOLEM (Genetically Organized Lifelike Electro Mechanics)</text><circle cx="141.422539536312" cy="203.45419277827517" r="4.5" fill="#38bdf8" opacity="0.85"/><text x="148.422539536312" y="217.45419277827517" fill="#7c8aa5" font-size="9">Voxelyze / VoxCAD</text><circle cx="205.09980039920157" cy="266.2190390928081" r="4.5" fill="#38bdf8" opacity="0.85"/><text x="212.09980039920157" y="258.2190390928081" fill="#7c8aa5" font-size="9">3D Virtual Creature Evolution (3DVCE)</text><circle cx="239.56164593889144" cy="377.09191286183227" r="4.5" fill="#38bdf8" opacity="0.85"/><text x="246.56164593889144" y="391.09191286183227" fill="#7c8aa5" font-size="9">DERL (Deep Evolutionary Reinforcement Learning)</text><circle cx="234.52095808383234" cy="362.364965681886" r="4.5" fill="#38bdf8" opacity="0.85"/><text x="241.52095808383234" y="354.364965681886" fill="#7c8aa5" font-size="9">UNIMAL (Universal Animal design space)</text><circle cx="189.7205588822355" cy="260.11787526111607" r="4.5" fill="#38bdf8" opacity="0.85"/><text x="196.7205588822355" y="274.11787526111607" fill="#7c8aa5" font-size="9">Evolving Soft Robots (Cheney / Unshackling Evolution)</text><circle cx="204.94549362812833" cy="317.13219934347956" r="4.5" fill="#38bdf8" opacity="0.85"/><text x="211.94549362812833" y="309.13219934347956" fill="#7c8aa5" font-size="9">RoboGrammar</text><circle cx="206.95148165208045" cy="382.56192181438377" r="4.5" fill="#38bdf8" opacity="0.85"/><text x="213.95148165208045" y="396.56192181438377" fill="#7c8aa5" font-size="9">Transform2Act</text><circle cx="164.0027637033625" cy="302.75589376305584" r="4.5" fill="#38bdf8" opacity="0.85"/><text x="171.0027637033625" y="294.75589376305584" fill="#7c8aa5" font-size="9">NerveNet</text><circle cx="208.18593582066634" cy="350.583407937929" r="4.5" fill="#38bdf8" opacity="0.85"/><text x="215.18593582066634" y="364.583407937929" fill="#7c8aa5" font-size="9">Neural Graph Evolution (NGE)</text><circle cx="165.44296023337938" cy="271.12802148612354" r="4.5" fill="#38bdf8" opacity="0.85"/><text x="172.44296023337938" y="263.12802148612354" fill="#7c8aa5" font-size="9">Krcah Evolved Virtual Creatures (ERO)</text><circle cx="175.67864271457086" cy="492.38287078484035" r="4.5" fill="#38bdf8" opacity="0.85"/><text x="182.67864271457086" y="506.38287078484035" fill="#7c8aa5" font-size="9">NEAT (NeuroEvolution of Augmenting Topologies)</text><circle cx="194.09258406264394" cy="447.78125932557447" r="4.5" fill="#38bdf8" opacity="0.85"/><text x="201.09258406264394" y="439.78125932557447" fill="#7c8aa5" font-size="9">HyperNEAT</text><circle cx="184.8856133886074" cy="423.3064756789018" r="4.5" fill="#38bdf8" opacity="0.85"/><text x="191.8856133886074" y="437.3064756789018" fill="#7c8aa5" font-size="9">ES-HyperNEAT</text><circle cx="186.3258099186243" cy="498.13339301700984" r="4.5" fill="#38bdf8" opacity="0.85"/><text x="193.3258099186243" y="490.13339301700984" fill="#7c8aa5" font-size="9">Novelty Search</text><circle cx="204.84262244741285" cy="453.4616532378394" r="4.5" fill="#38bdf8" opacity="0.85"/><text x="211.84262244741285" y="467.4616532378394" fill="#7c8aa5" font-size="9">MAP-Elites</text><circle cx="204.84262244741285" cy="453.4616532378394" r="4.5" fill="#38bdf8" opacity="0.85"/><text x="211.84262244741285" y="445.4616532378394" fill="#7c8aa5" font-size="9">Quality-Diversity (illumination algorithms)</text><circle cx="182.46814064179335" cy="357.52611160847505" r="4.5" fill="#38bdf8" opacity="0.85"/><text x="189.46814064179335" y="371.52611160847505" fill="#7c8aa5" font-size="9">Go-Explore</text><circle cx="195.6356517733763" cy="442.0307370934049" r="4.5" fill="#38bdf8" opacity="0.85"/><text x="202.6356517733763" y="434.0307370934049" fill="#7c8aa5" font-size="9">OMNI (Open-endedness via Models of human Notions of Interestingness)</text><circle cx="192.90956548441577" cy="450.58639212175467" r="4.5" fill="#38bdf8" opacity="0.85"/><text x="199.90956548441577" y="464.58639212175467" fill="#7c8aa5" font-size="9">Minimal Criterion Coevolution (MCC)</text><circle cx="183.59972362966374" cy="368.3258728737691" r="4.5" fill="#38bdf8" opacity="0.85"/><text x="190.59972362966374" y="360.3258728737691" fill="#7c8aa5" font-size="9">Innovation Engines</text><circle cx="173.36404114847227" cy="290.83407937928973" r="4.5" fill="#38bdf8" opacity="0.85"/><text x="180.36404114847227" y="304.83407937928973" fill="#7c8aa5" font-size="9">EndlessForms</text><circle cx="137.82204821126976" cy="312.99462846911365" r="4.5" fill="#38bdf8" opacity="0.85"/><text x="144.82204821126976" y="304.99462846911365" fill="#7c8aa5" font-size="9">NetLogo</text><circle cx="159.9907876554583" cy="314.9582214264399" r="4.5" fill="#38bdf8" opacity="0.85"/><text x="166.9907876554583" y="328.9582214264399" fill="#7c8aa5" font-size="9">MASON</text><circle cx="150.06371871641332" cy="328.282602208296" r="4.5" fill="#38bdf8" opacity="0.85"/><text x="157.06371871641332" y="320.282602208296" fill="#7c8aa5" font-size="9">Repast</text><circle cx="107.3721787194841" cy="291.25484929871675" r="4.5" fill="#38bdf8" opacity="0.85"/><text x="114.3721787194841" y="305.25484929871675" fill="#7c8aa5" font-size="9">StarLogo</text><circle cx="120.17964071856287" cy="319.86720381975533" r="4.5" fill="#38bdf8" opacity="0.85"/><text x="127.17964071856287" y="311.86720381975533" fill="#7c8aa5" font-size="9">Ascape</text><circle cx="168.47766006448643" cy="283.61086242912563" r="4.5" fill="#38bdf8" opacity="0.85"/><text x="175.47766006448643" y="297.61086242912563" fill="#7c8aa5" font-size="9">GAMA Platform</text><circle cx="137.82204821126976" cy="312.99462846911365" r="4.5" fill="#38bdf8" opacity="0.85"/><text x="144.82204821126976" y="304.99462846911365" fill="#7c8aa5" font-size="9">Mesa</text><circle cx="117.81360356210655" cy="189.98955535661003" r="4.5" fill="#38bdf8" opacity="0.85"/><text x="124.81360356210655" y="203.98955535661003" fill="#7c8aa5" font-size="9">OpenSteer</text><circle cx="100.27406725011515" cy="290.69382273948077" r="4.5" fill="#38bdf8" opacity="0.85"/><text x="107.27406725011515" y="282.69382273948077" fill="#7c8aa5" font-size="9">Artificial Anasazi</text><circle cx="81.03715645631812" cy="236.7651447329156" r="4.5" fill="#38bdf8" opacity="0.85"/><text x="88.03715645631812" y="250.7651447329156" fill="#7c8aa5" font-size="9">Schelling Segregation Model</text><circle cx="108.50376170735451" cy="351.77558937630556" r="4.5" fill="#38bdf8" opacity="0.85"/><text x="115.50376170735451" y="343.77558937630556" fill="#7c8aa5" font-size="9">El Farol Bar Problem</text><circle cx="149.4979272224781" cy="128.62727544016712" r="4.5" fill="#38bdf8" opacity="0.85"/><text x="156.4979272224781" y="142.62727544016712" fill="#7c8aa5" font-size="9">Spore</text><circle cx="120.89973898357131" cy="324.8463145329752" r="4.5" fill="#38bdf8" opacity="0.85"/><text x="127.89973898357131" y="316.8463145329752" fill="#7c8aa5" font-size="9">SimLife: The Genetic Playground</text><circle cx="94.92476585290956" cy="275.96687555953446" r="4.5" fill="#38bdf8" opacity="0.85"/><text x="101.92476585290956" y="289.96687555953446" fill="#7c8aa5" font-size="9">SimEarth: The Living Planet</text><circle cx="101.81713496084753" cy="270.91763652641004" r="4.5" fill="#38bdf8" opacity="0.85"/><text x="108.81713496084753" y="262.91763652641004" fill="#7c8aa5" font-size="9">SimAnt: The Electric Ant Colony</text><circle cx="157.9847996315062" cy="241.1131005669949" r="4.5" fill="#38bdf8" opacity="0.85"/><text x="164.9847996315062" y="255.1131005669949" fill="#7c8aa5" font-size="9">Thrive</text><circle cx="156.64747428220483" cy="217.47985675917636" r="4.5" fill="#38bdf8" opacity="0.85"/><text x="163.64747428220483" y="209.47985675917636" fill="#7c8aa5" font-size="9">Cell Lab: Evolution Sandbox</text><circle cx="193.11530784584676" cy="314.4673231871083" r="4.5" fill="#38bdf8" opacity="0.85"/><text x="200.11530784584676" y="328.4673231871083" fill="#7c8aa5" font-size="9">Species: Artificial Life, Real Evolution</text><circle cx="199.28757868877628" cy="389.64488212473884" r="4.5" fill="#38bdf8" opacity="0.85"/><text x="206.28757868877628" y="381.64488212473884" fill="#7c8aa5" font-size="9">The Bibites</text><circle cx="98.2166436358053" cy="166.35631154879144" r="4.5" fill="#38bdf8" opacity="0.85"/><text x="105.2166436358053" y="180.35631154879144" fill="#7c8aa5" font-size="9">The Powder Toy</text><circle cx="119.56241363426992" cy="70" r="4.5" fill="#38bdf8" opacity="0.85"/><text x="126.56241363426992" y="62" fill="#7c8aa5" font-size="9">Noita</text><circle cx="127.43205895900506" cy="313.2050134288272" r="4.5" fill="#38bdf8" opacity="0.85"/><text x="134.43205895900508" y="327.2050134288272" fill="#7c8aa5" font-size="9">The Life Engine</text><circle cx="112.36143098418546" cy="125.26111608475082" r="4.5" fill="#38bdf8" opacity="0.85"/><text x="119.36143098418546" y="117.26111608475082" fill="#7c8aa5" font-size="9">Clusters (Particle Life)</text><circle cx="118.79087977890373" cy="107.7991644285288" r="4.5" fill="#38bdf8" opacity="0.85"/><text x="125.79087977890373" y="121.7991644285288" fill="#7c8aa5" font-size="9">Sandspiel</text><circle cx="162.6654383540611" cy="250.22978215458073" r="4.5" fill="#38bdf8" opacity="0.85"/><text x="169.6654383540611" y="242.22978215458073" fill="#7c8aa5" font-size="9">Sebastian Lague Ecosystem</text><circle cx="129.90096729617687" cy="162.7096389137571" r="4.5" fill="#38bdf8" opacity="0.85"/><text x="136.90096729617687" y="176.7096389137571" fill="#7c8aa5" font-size="9">Pezzza's Ant Colony Simulation</text><circle cx="149.08644249961614" cy="259.3464637421666" r="4.5" fill="#38bdf8" opacity="0.85"/><text x="156.08644249961614" y="251.34646374216658" fill="#7c8aa5" font-size="9">Primer Evolution Simulations</text><circle cx="196.09857208659602" cy="241.74425544613547" r="4.5" fill="#38bdf8" opacity="0.85"/><text x="203.09857208659602" y="255.74425544613547" fill="#7c8aa5" font-size="9">Keiwan Evolution</text><circle cx="215.33548288039304" cy="256.40107430617724" r="4.5" fill="#38bdf8" opacity="0.85"/><text x="222.33548288039304" y="248.40107430617724" fill="#7c8aa5" font-size="9">DevoWorm</text><circle cx="128.3578995854445" cy="224.98358698895856" r="4.5" fill="#38bdf8" opacity="0.85"/><text x="135.3578995854445" y="238.98358698895856" fill="#7c8aa5" font-size="9">Morphozoic</text><circle cx="175.0614156302779" cy="364.7493285586392" r="4.5" fill="#38bdf8" opacity="0.85"/><text x="182.0614156302779" y="356.7493285586392" fill="#7c8aa5" font-size="9">Chromaria</text><circle cx="203.19668355596497" cy="343.6407042673829" r="4.5" fill="#38bdf8" opacity="0.85"/><text x="210.19668355596497" y="357.6407042673829" fill="#7c8aa5" font-size="9">Division Blocks</text><circle cx="190.08060801473977" cy="371.4816472694718" r="4.5" fill="#38bdf8" opacity="0.85"/><text x="197.08060801473977" y="363.4816472694718" fill="#7c8aa5" font-size="9">Voyager (Minecraft LLM agent)</text><circle cx="169.45493628128355" cy="344.1316025067144" r="4.5" fill="#38bdf8" opacity="0.85"/><text x="176.45493628128355" y="358.1316025067144" fill="#7c8aa5" font-size="9">Generative Agents (Smallville)</text><circle cx="211.8378627360663" cy="411.31453297523126" r="4.5" fill="#38bdf8" opacity="0.85"/><text x="218.8378627360663" y="403.31453297523126" fill="#7c8aa5" font-size="9">OMNI-EPIC</text><circle cx="174.34131736526945" cy="258.43479558340795" r="4.5" fill="#38bdf8" opacity="0.85"/><text x="181.34131736526945" y="272.43479558340795" fill="#7c8aa5" font-size="9">Genie (Generative Interactive Environments)</text><circle cx="196.45862121910025" cy="391.18770516263805" r="4.5" fill="#38bdf8" opacity="0.85"/><text x="203.45862121910025" y="383.18770516263805" fill="#7c8aa5" font-size="9">Evolution through Large Models (ELM)</text><circle cx="172.2838937509596" cy="458.9316621903909" r="4.5" fill="#38bdf8" opacity="0.85"/><text x="179.2838937509596" y="472.9316621903909" fill="#7c8aa5" font-size="9">OpenELM</text><circle cx="164.72286196837092" cy="500.7982691733811" r="4.5" fill="#38bdf8" opacity="0.85"/><text x="171.72286196837092" y="492.7982691733811" fill="#7c8aa5" font-size="9">Automated Design of Agentic Systems (ADAS)</text><circle cx="163.1283586672808" cy="439.99701581617427" r="4.5" fill="#38bdf8" opacity="0.85"/><text x="170.1283586672808" y="453.99701581617427" fill="#7c8aa5" font-size="9">The AI Scientist</text><circle cx="178.7647781360356" cy="540" r="4.5" fill="#38bdf8" opacity="0.85"/><text x="185.7647781360356" y="532" fill="#7c8aa5" font-size="9">Darwin Godel Machine (DGM)</text><circle cx="121.61983724857976" cy="407.8782452999104" r="4.5" fill="#38bdf8" opacity="0.85"/><text x="128.61983724857976" y="421.8782452999104" fill="#7c8aa5" font-size="9">Promptbreeder</text><circle cx="130.6210655611853" cy="432.3530289465831" r="4.5" fill="#38bdf8" opacity="0.85"/><text x="137.6210655611853" y="424.3530289465831" fill="#7c8aa5" font-size="9">Quality-Diversity through AI Feedback (QDAIF)</text>
</svg>