<svg xmlns="http://www.w3.org/2000/svg" viewBox="0 0 760 600" font-family="ui-sans-serif,system-ui,Segoe UI,Roboto,sans-serif" role="img" aria-label="PCA projection">
<rect width="760" height="600" rx="14" fill="#0b1220"/>
<text x="28" y="30" fill="#cbd5e1" font-size="18" font-weight="700">PCA of 129 A-Life systems (9-axis correlation-matrix eigenbasis)</text><text x="28" y="50" fill="#7c8aa5" font-size="12">PC1 21.2% var · PC2 19.6% var · together 40.8%. amber = this repo.</text><line x1="382.52574869275867" y1="70" x2="382.52574869275867" y2="540" stroke="#27344d" stroke-width="0.8"/><line x1="60" y1="400.288251190323" x2="730" y2="400.288251190323" stroke="#27344d" stroke-width="0.8"/><text x="730" y="544" fill="#7c8aa5" font-size="11" text-anchor="end">PC1 (generalist breadth →)</text><text x="54" y="62" fill="#7c8aa5" font-size="11">PC2</text><circle cx="730" cy="70" r="8" fill="#f59e0b"/><circle cx="730" cy="70" r="13" fill="none" stroke="#f59e0b" stroke-width="1.4" opacity="0.6"/><text x="718" y="58" fill="#f59e0b" font-size="11" font-weight="700" text-anchor="end">COSMOGONIC</text><circle cx="334.5396926002218" cy="416.1948269206022" r="4.5" fill="#38bdf8" opacity="0.85"/><text x="341.5396926002218" y="430.1948269206022" fill="#7c8aa5" font-size="9">Game of Life</text><circle cx="233.5778798922516" cy="399.07862565950325" r="4.5" fill="#38bdf8" opacity="0.85"/><text x="240.5778798922516" y="391.07862565950325" fill="#7c8aa5" font-size="9">Boids</text><circle cx="243.66344477895734" cy="391.33702226225716" r="4.5" fill="#38bdf8" opacity="0.85"/><text x="250.66344477895734" y="405.33702226225716" fill="#7c8aa5" font-size="9">Biomorphs</text><circle cx="425.84059578513705" cy="528.5690387337537" r="4.5" fill="#38bdf8" opacity="0.85"/><text x="432.84059578513705" y="520.5690387337537" fill="#7c8aa5" font-size="9">Core War</text><circle cx="479.0286800823958" cy="537.9436365976064" r="4.5" fill="#38bdf8" opacity="0.85"/><text x="486.0286800823958" y="551.9436365976064" fill="#7c8aa5" font-size="9">Tierra</text><circle cx="542.3023292663602" cy="510.06176811221206" r="4.5" fill="#38bdf8" opacity="0.85"/><text x="549.3023292663602" y="502.06176811221206" fill="#7c8aa5" font-size="9">Avida</text><circle cx="583.8123910632229" cy="352.8709303821902" r="4.5" fill="#38bdf8" opacity="0.85"/><text x="590.8123910632229" y="366.8709303821902" fill="#7c8aa5" font-size="9">Polyworld</text><circle cx="593.5794644271906" cy="292.1477287350406" r="4.5" fill="#38bdf8" opacity="0.85"/><text x="600.5794644271906" y="284.1477287350406" fill="#7c8aa5" font-size="9">Framsticks</text><circle cx="449.8336238314055" cy="281.805430446532" r="4.5" fill="#38bdf8" opacity="0.85"/><text x="456.8336238314055" y="295.805430446532" fill="#7c8aa5" font-size="9">Karl Sims VC</text><circle cx="587.8466170179053" cy="257.0685883412689" r="4.5" fill="#38bdf8" opacity="0.85"/><text x="594.8466170179053" y="249.06858834126888" fill="#7c8aa5" font-size="9">Creatures</text><circle cx="435.1830137854539" cy="349.604941448977" r="4.5" fill="#38bdf8" opacity="0.85"/><text x="442.1830137854539" y="363.604941448977" fill="#7c8aa5" font-size="9">Darwin Pond</text><circle cx="475.9499286959277" cy="330.06948912623864" r="4.5" fill="#38bdf8" opacity="0.85"/><text x="482.9499286959277" y="322.06948912623864" fill="#7c8aa5" font-size="9">Gene Pool</text><circle cx="502.7032166059262" cy="473.2891519752927" r="4.5" fill="#38bdf8" opacity="0.85"/><text x="509.7032166059262" y="487.2891519752927" fill="#7c8aa5" font-size="9">Sugarscape</text><circle cx="479.3471716051339" cy="503.5902715223266" r="4.5" fill="#38bdf8" opacity="0.85"/><text x="486.3471716051339" y="495.5902715223266" fill="#7c8aa5" font-size="9">Echo</text><circle cx="458.75138646807164" cy="467.4829494273581" r="4.5" fill="#38bdf8" opacity="0.85"/><text x="465.75138646807164" y="481.4829494273581" fill="#7c8aa5" font-size="9">Swarm</text><circle cx="437.0939629218824" cy="315.85638913910697" r="4.5" fill="#38bdf8" opacity="0.85"/><text x="444.0939629218824" y="307.85638913910697" fill="#7c8aa5" font-size="9">breve</text><circle cx="506.3127871969577" cy="314.64676360828724" r="4.5" fill="#38bdf8" opacity="0.85"/><text x="513.3127871969577" y="328.64676360828724" fill="#7c8aa5" font-size="9">Picbreeder</text><circle cx="600.4801140865155" cy="454.53995624758716" r="4.5" fill="#38bdf8" opacity="0.85"/><text x="607.4801140865155" y="446.53995624758716" fill="#7c8aa5" font-size="9">MABE</text><circle cx="259.9065124385993" cy="301.82473298159834" r="4.5" fill="#38bdf8" opacity="0.85"/><text x="266.9065124385993" y="315.82473298159834" fill="#7c8aa5" font-size="9">Lenia</text><circle cx="335.28283948661067" cy="289.0631836314503" r="4.5" fill="#38bdf8" opacity="0.85"/><text x="342.28283948661067" y="281.0631836314503" fill="#7c8aa5" font-size="9">Growing NCA</text><circle cx="416.28585010299474" cy="179.41062926264323" r="4.5" fill="#38bdf8" opacity="0.85"/><text x="423.28585010299474" y="193.41062926264323" fill="#7c8aa5" font-size="9">OpenWorm</text><circle cx="572.0282047219141" cy="434.218247329816" r="4.5" fill="#38bdf8" opacity="0.85"/><text x="579.0282047219141" y="426.218247329816" fill="#7c8aa5" font-size="9">POET</text><circle cx="446.2240532403739" cy="335.69424784455026" r="4.5" fill="#38bdf8" opacity="0.85"/><text x="453.2240532403739" y="349.69424784455026" fill="#7c8aa5" font-size="9">EvoGym</text><circle cx="630.9491364284582" cy="158.24218247329821" r="4.5" fill="#38bdf8" opacity="0.85"/><text x="637.9491364284582" y="150.24218247329821" fill="#7c8aa5" font-size="9">ALIEN</text><circle cx="570.4357471082237" cy="292.0267661819586" r="4.5" fill="#38bdf8" opacity="0.85"/><text x="577.4357471082237" y="306.0267661819586" fill="#7c8aa5" font-size="9">ASAL</text><circle cx="104.37648550150527" cy="470.02316304207955" r="4.5" fill="#38bdf8" opacity="0.85"/><text x="111.37648550150527" y="462.02316304207955" fill="#7c8aa5" font-size="9">Wireworld</text><circle cx="104.37648550150527" cy="470.02316304207955" r="4.5" fill="#38bdf8" opacity="0.85"/><text x="111.37648550150527" y="484.02316304207955" fill="#7c8aa5" font-size="9">Langton's Ant</text><circle cx="201.83489145935667" cy="458.59220177583325" r="4.5" fill="#38bdf8" opacity="0.85"/><text x="208.83489145935667" y="450.59220177583325" fill="#7c8aa5" font-size="9">Langton's Loops</text><circle cx="202.25954682300744" cy="487.5022519624244" r="4.5" fill="#38bdf8" opacity="0.85"/><text x="209.25954682300744" y="501.5022519624244" fill="#7c8aa5" font-size="9">von Neumann Universal Constructor</text><circle cx="104.37648550150527" cy="470.02316304207955" r="4.5" fill="#38bdf8" opacity="0.85"/><text x="111.37648550150527" y="462.02316304207955" fill="#7c8aa5" font-size="9">Rule 110</text><circle cx="179.11582950404056" cy="349.363016342813" r="4.5" fill="#38bdf8" opacity="0.85"/><text x="186.11582950404056" y="363.363016342813" fill="#7c8aa5" font-size="9">SmoothLife</text><circle cx="179.11582950404056" cy="349.363016342813" r="4.5" fill="#38bdf8" opacity="0.85"/><text x="186.11582950404056" y="341.363016342813" fill="#7c8aa5" font-size="9">Larger than Life</text><circle cx="395.9023926477579" cy="308.78007978381163" r="4.5" fill="#38bdf8" opacity="0.85"/><text x="402.9023926477579" y="322.78007978381163" fill="#7c8aa5" font-size="9">Flow Lenia</text><circle cx="272.4338456662969" cy="326.4406125337795" r="4.5" fill="#38bdf8" opacity="0.85"/><text x="279.4338456662969" y="318.4406125337795" fill="#7c8aa5" font-size="9">Particle Lenia</text><circle cx="299.5056250990334" cy="364.7252605842234" r="4.5" fill="#38bdf8" opacity="0.85"/><text x="306.5056250990334" y="378.7252605842234" fill="#7c8aa5" font-size="9">Primordial Particle Systems</text><circle cx="173.9138012993186" cy="349.363016342813" r="4.5" fill="#38bdf8" opacity="0.85"/><text x="180.9138012993186" y="341.363016342813" fill="#7c8aa5" font-size="9">Gray-Scott Reaction-Diffusion</text><circle cx="424.03581048962127" cy="507.4610732209497" r="4.5" fill="#38bdf8" opacity="0.85"/><text x="431.03581048962127" y="521.4610732209496" fill="#7c8aa5" font-size="9">Aevol</text><circle cx="492.086832514657" cy="483.38952515763737" r="4.5" fill="#38bdf8" opacity="0.85"/><text x="499.086832514657" y="475.38952515763737" fill="#7c8aa5" font-size="9">Avida-ED</text><circle cx="362.5669466011725" cy="503.28786513962166" r="4.5" fill="#38bdf8" opacity="0.85"/><text x="369.5669466011725" y="517.2878651396217" fill="#7c8aa5" font-size="9">Nanopond</text><circle cx="323.18016162256373" cy="497.1187749324411" r="4.5" fill="#38bdf8" opacity="0.85"/><text x="330.18016162256373" y="489.1187749324411" fill="#7c8aa5" font-size="9">Physis</text><circle cx="380.9332910790683" cy="501.896795779179" r="4.5" fill="#38bdf8" opacity="0.85"/><text x="387.9332910790683" y="515.896795779179" fill="#7c8aa5" font-size="9">Cosmos</text><circle cx="670.2297575661543" cy="473.77300218762065" r="4.5" fill="#38bdf8" opacity="0.85"/><text x="677.2297575661543" y="465.77300218762065" fill="#7c8aa5" font-size="9">Geb</text><circle cx="380.9332910790683" cy="501.896795779179" r="4.5" fill="#38bdf8" opacity="0.85"/><text x="387.9332910790683" y="515.896795779179" fill="#7c8aa5" font-size="9">Amoeba</text><circle cx="436.0323245127555" cy="410.50958692574955" r="4.5" fill="#38bdf8" opacity="0.85"/><text x="443.0323245127555" y="402.50958692574955" fill="#7c8aa5" font-size="9">Evolve 4.0</text><circle cx="317.65964189510373" cy="397.9899626817656" r="4.5" fill="#38bdf8" opacity="0.85"/><text x="324.65964189510373" y="411.9899626817656" fill="#7c8aa5" font-size="9">Squirm3</text><circle cx="420.320076057677" cy="508.12636726290054" r="4.5" fill="#38bdf8" opacity="0.85"/><text x="427.320076057677" y="500.12636726290054" fill="#7c8aa5" font-size="9">Network Tierra</text><circle cx="464.2719061955316" cy="406.45734139750357" r="4.5" fill="#38bdf8" opacity="0.85"/><text x="471.2719061955316" y="420.45734139750357" fill="#7c8aa5" font-size="9">biosim4</text><circle cx="359.59435905561713" cy="340.6537125209111" r="4.5" fill="#38bdf8" opacity="0.85"/><text x="366.59435905561713" y="332.6537125209111" fill="#7c8aa5" font-size="9">GOLEM (Genetically Organized Lifelike Electro Mechanics)</text><circle cx="217.97179527808586" cy="335.5732852914683" r="4.5" fill="#38bdf8" opacity="0.85"/><text x="224.97179527808586" y="349.5732852914683" fill="#7c8aa5" font-size="9">Voxelyze / VoxCAD</text><circle cx="403.440025352559" cy="307.6914168060739" r="4.5" fill="#38bdf8" opacity="0.85"/><text x="410.440025352559" y="299.6914168060739" fill="#7c8aa5" font-size="9">3D Virtual Creature Evolution (3DVCE)</text><circle cx="564.809063539851" cy="336.3595418865011" r="4.5" fill="#38bdf8" opacity="0.85"/><text x="571.809063539851" y="350.3595418865011" fill="#7c8aa5" font-size="9">DERL (Deep Evolutionary Reinforcement Learning)</text><circle cx="541.6653462208842" cy="331.94440869900916" r="4.5" fill="#38bdf8" opacity="0.85"/><text x="548.6653462208842" y="323.94440869900916" fill="#7c8aa5" font-size="9">UNIMAL (Universal Animal design space)</text><circle cx="377.8545396926002" cy="318.7594904130742" r="4.5" fill="#38bdf8" opacity="0.85"/><text x="384.8545396926002" y="332.7594904130742" fill="#7c8aa5" font-size="9">Evolving Soft Robots (Cheney / Unshackling Evolution)</text><circle cx="451.5322452860085" cy="335.69424784455026" r="4.5" fill="#38bdf8" opacity="0.85"/><text x="458.5322452860085" y="327.69424784455026" fill="#7c8aa5" font-size="9">RoboGrammar</text><circle cx="507.79908096973537" cy="382.5067558872732" r="4.5" fill="#38bdf8" opacity="0.85"/><text x="514.7990809697353" y="396.5067558872732" fill="#7c8aa5" font-size="9">Transform2Act</text><circle cx="341.015686895896" cy="386.2565950328143" r="4.5" fill="#38bdf8" opacity="0.85"/><text x="348.015686895896" y="378.2565950328143" fill="#7c8aa5" font-size="9">NerveNet</text><circle cx="486.0354935826335" cy="360.18916484364945" r="4.5" fill="#38bdf8" opacity="0.85"/><text x="493.0354935826335" y="374.18916484364945" fill="#7c8aa5" font-size="9">Neural Graph Evolution (NGE)</text><circle cx="330.6116304864522" cy="362.245528246043" r="4.5" fill="#38bdf8" opacity="0.85"/><text x="337.6116304864522" y="354.245528246043" fill="#7c8aa5" font-size="9">Krcah Evolved Virtual Creatures (ERO)</text><circle cx="562.1549675170337" cy="497.36070003860505" r="4.5" fill="#38bdf8" opacity="0.85"/><text x="569.1549675170337" y="511.36070003860505" fill="#7c8aa5" font-size="9">NEAT (NeuroEvolution of Augmenting Topologies)</text><circle cx="554.6173348122327" cy="443.8952515763737" r="4.5" fill="#38bdf8" opacity="0.85"/><text x="561.6173348122327" y="435.8952515763737" fill="#7c8aa5" font-size="9">HyperNEAT</text><circle cx="513.10727301537" cy="440.8711877493244" r="4.5" fill="#38bdf8" opacity="0.85"/><text x="520.10727301537" y="454.8711877493244" fill="#7c8aa5" font-size="9">ES-HyperNEAT</text><circle cx="602.9218824275075" cy="480.2444987775061" r="4.5" fill="#38bdf8" opacity="0.85"/><text x="609.9218824275075" y="472.2444987775061" fill="#7c8aa5" font-size="9">Novelty Search</text><circle cx="590.0760576770718" cy="426.7185690387338" r="4.5" fill="#38bdf8" opacity="0.85"/><text x="597.0760576770718" y="440.7185690387338" fill="#7c8aa5" font-size="9">MAP-Elites</text><circle cx="590.0760576770718" cy="426.7185690387338" r="4.5" fill="#38bdf8" opacity="0.85"/><text x="597.0760576770718" y="418.7185690387338" fill="#7c8aa5" font-size="9">Quality-Diversity (illumination algorithms)</text><circle cx="450.682934558707" cy="395.75215544974907" r="4.5" fill="#38bdf8" opacity="0.85"/><text x="457.682934558707" y="409.75215544974907" fill="#7c8aa5" font-size="9">Go-Explore</text><circle cx="572.0282047219141" cy="434.218247329816" r="4.5" fill="#38bdf8" opacity="0.85"/><text x="579.0282047219141" y="426.218247329816" fill="#7c8aa5" font-size="9">OMNI (Open-endedness via Models of human Notions of Interestingness)</text><circle cx="582.6445888131833" cy="450.18530433663625" r="4.5" fill="#38bdf8" opacity="0.85"/><text x="589.6445888131833" y="464.18530433663625" fill="#7c8aa5" font-size="9">Minimal Criterion Coevolution (MCC)</text><circle cx="476.79923942322927" cy="404.9453094839789" r="4.5" fill="#38bdf8" opacity="0.85"/><text x="483.79923942322927" y="396.9453094839789" fill="#7c8aa5" font-size="9">Innovation Engines</text><circle cx="391.9743305339883" cy="366.23729249774806" r="4.5" fill="#38bdf8" opacity="0.85"/><text x="398.9743305339883" y="380.23729249774806" fill="#7c8aa5" font-size="9">EndlessForms</text><circle cx="343.1389637141499" cy="433.12958435207827" r="4.5" fill="#38bdf8" opacity="0.85"/><text x="350.1389637141499" y="425.12958435207827" fill="#7c8aa5" font-size="9">NetLogo</text><circle cx="380.4024718745048" cy="406.27589756788063" r="4.5" fill="#38bdf8" opacity="0.85"/><text x="387.4024718745048" y="420.27589756788063" fill="#7c8aa5" font-size="9">MASON</text><circle cx="376.68673744256057" cy="429.0773388238322" r="4.5" fill="#38bdf8" opacity="0.85"/><text x="383.68673744256057" y="421.0773388238322" fill="#7c8aa5" font-size="9">Repast</text><circle cx="255.1291395975281" cy="455.99150688457087" r="4.5" fill="#38bdf8" opacity="0.85"/><text x="262.12913959752814" y="469.99150688457087" fill="#7c8aa5" font-size="9">StarLogo</text><circle cx="312.98843289494533" cy="460.8300090078497" r="4.5" fill="#38bdf8" opacity="0.85"/><text x="319.98843289494533" y="452.8300090078497" fill="#7c8aa5" font-size="9">Ascape</text><circle cx="369.04294089684674" cy="375.55140908505984" r="4.5" fill="#38bdf8" opacity="0.85"/><text x="376.04294089684674" y="389.55140908505984" fill="#7c8aa5" font-size="9">GAMA Platform</text><circle cx="343.1389637141499" cy="433.12958435207827" r="4.5" fill="#38bdf8" opacity="0.85"/><text x="350.1389637141499" y="425.12958435207827" fill="#7c8aa5" font-size="9">Mesa</text><circle cx="170.3042307082871" cy="370.531463132158" r="4.5" fill="#38bdf8" opacity="0.85"/><text x="177.3042307082871" y="384.531463132158" fill="#7c8aa5" font-size="9">OpenSteer</text><circle cx="239.41689114244966" cy="464.39840432376786" r="4.5" fill="#38bdf8" opacity="0.85"/><text x="246.41689114244966" y="456.39840432376786" fill="#7c8aa5" font-size="9">Artificial Anasazi</text><circle cx="151.61939470765333" cy="452.72551795135763" r="4.5" fill="#38bdf8" opacity="0.85"/><text x="158.61939470765333" y="466.72551795135763" fill="#7c8aa5" font-size="9">Schelling Segregation Model</text><circle cx="306.6186024401838" cy="497.1187749324411" r="4.5" fill="#38bdf8" opacity="0.85"/><text x="313.6186024401838" y="489.1187749324411" fill="#7c8aa5" font-size="9">El Farol Bar Problem</text><circle cx="179.7528125495167" cy="290.6356968215159" r="4.5" fill="#38bdf8" opacity="0.85"/><text x="186.7528125495167" y="304.6356968215159" fill="#7c8aa5" font-size="9">Spore</text><circle cx="322.9678339407384" cy="466.5757302792433" r="4.5" fill="#38bdf8" opacity="0.85"/><text x="329.9678339407384" y="458.5757302792433" fill="#7c8aa5" font-size="9">SimLife: The Genetic Playground</text><circle cx="226.889557914752" cy="460.0437524128169" r="4.5" fill="#38bdf8" opacity="0.85"/><text x="233.889557914752" y="474.0437524128169" fill="#7c8aa5" font-size="9">SimEarth: The Living Planet</text><circle cx="229.86214546030737" cy="454.84236263029214" r="4.5" fill="#38bdf8" opacity="0.85"/><text x="236.86214546030737" y="446.84236263029214" fill="#7c8aa5" font-size="9">SimAnt: The Electric Ant Colony</text><circle cx="315.21787355411186" cy="356.3183631450264" r="4.5" fill="#38bdf8" opacity="0.85"/><text x="322.21787355411186" y="370.3183631450264" fill="#7c8aa5" font-size="9">Thrive</text><circle cx="284.8550150530819" cy="343.25440741217346" r="4.5" fill="#38bdf8" opacity="0.85"/><text x="291.8550150530819" y="335.25440741217346" fill="#7c8aa5" font-size="9">Cell Lab: Evolution Sandbox</text><circle cx="452.80621137696085" cy="365.81392356196113" r="4.5" fill="#38bdf8" opacity="0.85"/><text x="459.80621137696085" y="379.81392356196113" fill="#7c8aa5" font-size="9">Species: Artificial Life, Real Evolution</text><circle cx="527.4393915385833" cy="411.2958435207824" r="4.5" fill="#38bdf8" opacity="0.85"/><text x="534.4393915385833" y="403.2958435207824" fill="#7c8aa5" font-size="9">The Bibites</text><circle cx="104.2703216605926" cy="370.8943507914039" r="4.5" fill="#38bdf8" opacity="0.85"/><text x="111.2703216605926" y="384.8943507914039" fill="#7c8aa5" font-size="9">The Powder Toy</text><circle cx="60" cy="285.4947883155321" r="4.5" fill="#38bdf8" opacity="0.85"/><text x="67" y="277.4947883155321" fill="#7c8aa5" font-size="9">Noita</text><circle cx="331.7794327364918" cy="445.40728348989836" r="4.5" fill="#38bdf8" opacity="0.85"/><text x="338.7794327364918" y="459.40728348989836" fill="#7c8aa5" font-size="9">The Life Engine</text><circle cx="115.73601647916335" cy="335.9361729507142" r="4.5" fill="#38bdf8" opacity="0.85"/><text x="122.73601647916335" y="327.9361729507142" fill="#7c8aa5" font-size="9">Clusters (Particle Life)</text><circle cx="97.90049120583106" cy="311.320293398533" r="4.5" fill="#38bdf8" opacity="0.85"/><text x="104.90049120583106" y="325.320293398533" fill="#7c8aa5" font-size="9">Sandspiel</text><circle cx="330.93012200919026" cy="363.8785227126496" r="4.5" fill="#38bdf8" opacity="0.85"/><text x="337.93012200919026" y="355.8785227126496" fill="#7c8aa5" font-size="9">Sebastian Lague Ecosystem</text><circle cx="175.29393123118365" cy="341.6214129455668" r="4.5" fill="#38bdf8" opacity="0.85"/><text x="182.29393123118365" y="355.6214129455668" fill="#7c8aa5" font-size="9">Pezzza's Ant Colony Simulation</text><circle cx="310.86515607669145" cy="384.86552567237163" r="4.5" fill="#38bdf8" opacity="0.85"/><text x="317.86515607669145" y="376.86552567237163" fill="#7c8aa5" font-size="9">Primer Evolution Simulations</text><circle cx="356.51560766914906" cy="304.72783425556554" r="4.5" fill="#38bdf8" opacity="0.85"/><text x="363.51560766914906" y="318.72783425556554" fill="#7c8aa5" font-size="9">Keiwan Evolution</text><circle cx="359.70052289652983" cy="320.87633509200873" r="4.5" fill="#38bdf8" opacity="0.85"/><text x="366.70052289652983" y="312.87633509200873" fill="#7c8aa5" font-size="9">DevoWorm</text><circle cx="218.71494216447473" cy="376.0352592973877" r="4.5" fill="#38bdf8" opacity="0.85"/><text x="225.71494216447473" y="390.0352592973877" fill="#7c8aa5" font-size="9">Morphozoic</text><circle cx="467.77531294565046" cy="416.1343456440613" r="4.5" fill="#38bdf8" opacity="0.85"/><text x="474.77531294565046" y="408.1343456440613" fill="#7c8aa5" font-size="9">Chromaria</text><circle cx="485.08001901441924" cy="367.87028696435465" r="4.5" fill="#38bdf8" opacity="0.85"/><text x="492.08001901441924" y="381.87028696435465" fill="#7c8aa5" font-size="9">Division Blocks</text><circle cx="490.70670258279193" cy="396.17552438553594" r="4.5" fill="#38bdf8" opacity="0.85"/><text x="497.70670258279193" y="388.17552438553594" fill="#7c8aa5" font-size="9">Voyager (Minecraft LLM agent)</text><circle cx="425.84059578513705" cy="416.67867713293015" r="4.5" fill="#38bdf8" opacity="0.85"/><text x="432.84059578513705" y="430.67867713293015" fill="#7c8aa5" font-size="9">Generative Agents (Smallville)</text><circle cx="563.2166059261607" cy="386.8009265216832" r="4.5" fill="#38bdf8" opacity="0.85"/><text x="570.2166059261607" y="378.8009265216832" fill="#7c8aa5" font-size="9">OMNI-EPIC</text><circle cx="344.9437490096656" cy="338.8997555012225" r="4.5" fill="#38bdf8" opacity="0.85"/><text x="351.9437490096656" y="352.8997555012225" fill="#7c8aa5" font-size="9">Genie (Generative Interactive Environments)</text><circle cx="510.66550467437804" cy="397.9294814052246" r="4.5" fill="#38bdf8" opacity="0.85"/><text x="517.6655046743781" y="389.9294814052246" fill="#7c8aa5" font-size="9">Evolution through Large Models (ELM)</text><circle cx="532.9599112660435" cy="472.86578303950586" r="4.5" fill="#38bdf8" opacity="0.85"/><text x="539.9599112660435" y="486.86578303950586" fill="#7c8aa5" font-size="9">OpenELM</text><circle cx="559.0762161305656" cy="514.476901299704" r="4.5" fill="#38bdf8" opacity="0.85"/><text x="566.0762161305656" y="506.47690129970397" fill="#7c8aa5" font-size="9">Automated Design of Agentic Systems (ADAS)</text><circle cx="501.4292505149738" cy="475.04310899498137" r="4.5" fill="#38bdf8" opacity="0.85"/><text x="508.4292505149738" y="489.04310899498137" fill="#7c8aa5" font-size="9">The AI Scientist</text><circle cx="629.0381872920298" cy="521.7951357611632" r="4.5" fill="#38bdf8" opacity="0.85"/><text x="636.0381872920298" y="513.7951357611632" fill="#7c8aa5" font-size="9">Darwin Godel Machine (DGM)</text><circle cx="374.0326414197433" cy="507.7029983271136" r="4.5" fill="#38bdf8" opacity="0.85"/><text x="381.0326414197433" y="521.7029983271136" fill="#7c8aa5" font-size="9">Promptbreeder</text><circle cx="420.85089526224056" cy="510.7270621541629" r="4.5" fill="#38bdf8" opacity="0.85"/><text x="427.85089526224056" y="502.7270621541629" fill="#7c8aa5" font-size="9">Quality-Diversity through AI Feedback (QDAIF)</text><circle cx="462.2547932181904" cy="540" r="4.5" fill="#38bdf8" opacity="0.85"/><text x="469.2547932181904" y="554" fill="#7c8aa5" font-size="9">Stringmol</text><circle cx="288.1460941213754" cy="467.78535581006304" r="4.5" fill="#38bdf8" opacity="0.85"/><text x="295.1460941213754" y="459.78535581006304" fill="#7c8aa5" font-size="9">Evoloop / SDSR Loop</text><circle cx="302.05355728093804" cy="347.97194698237035" r="4.5" fill="#38bdf8" opacity="0.85"/><text x="309.05355728093804" y="361.97194698237035" fill="#7c8aa5" font-size="9">Xenobots (reconfigurable organisms)</text><circle cx="176.35556964031056" cy="332.60970274095996" r="4.5" fill="#38bdf8" opacity="0.85"/><text x="183.35556964031056" y="324.60970274095996" fill="#7c8aa5" font-size="9">Voxcraft-sim</text><circle cx="472.65884962763425" cy="419.64225968343845" r="4.5" fill="#38bdf8" opacity="0.85"/><text x="479.65884962763425" y="433.64225968343845" fill="#7c8aa5" font-size="9">Neural MMO</text><circle cx="467.3506575819996" cy="419.64225968343845" r="4.5" fill="#38bdf8" opacity="0.85"/><text x="474.3506575819996" y="411.64225968343845" fill="#7c8aa5" font-size="9">Melting Pot</text><circle cx="493.04230708287116" cy="449.7014541243083" r="4.5" fill="#38bdf8" opacity="0.85"/><text x="500.04230708287116" y="463.7014541243083" fill="#7c8aa5" font-size="9">Craftax</text><circle cx="225.509427982887" cy="457.26161369193153" r="4.5" fill="#38bdf8" opacity="0.85"/><text x="232.509427982887" y="449.26161369193153" fill="#7c8aa5" font-size="9">Chemlambda</text><circle cx="342.60814450958645" cy="390.5507656672243" r="4.5" fill="#38bdf8" opacity="0.85"/><text x="349.60814450958645" y="404.5507656672243" fill="#7c8aa5" font-size="9">Swarm Chemistry</text><circle cx="109.68467754713991" cy="427.6257881868486" r="4.5" fill="#38bdf8" opacity="0.85"/><text x="116.68467754713991" y="419.6257881868486" fill="#7c8aa5" font-size="9">Autopoietic Tessellation (Varela-Maturana-Uribe)</text><circle cx="311.8206306449057" cy="405.00579076051986" r="4.5" fill="#38bdf8" opacity="0.85"/><text x="318.8206306449057" y="419.00579076051986" fill="#7c8aa5" font-size="9">LIDA</text><circle cx="369.14910473775944" cy="528.2666323510488" r="4.5" fill="#38bdf8" opacity="0.85"/><text x="376.14910473775944" y="520.2666323510488" fill="#7c8aa5" font-size="9">AlChemy (algorithmic chemistry)</text><circle cx="139.7290445254318" cy="451.75781752670184" r="4.5" fill="#38bdf8" opacity="0.85"/><text x="146.7290445254318" y="465.75781752670184" fill="#7c8aa5" font-size="9">Conscious Turing Machine (CTM)</text><circle cx="378.49152273807636" cy="309.20344871959855" r="4.5" fill="#38bdf8" opacity="0.85"/><text x="385.49152273807636" y="301.20344871959855" fill="#7c8aa5" font-size="9">PhysiCell</text><circle cx="212.66360323245124" cy="345.310770814567" r="4.5" fill="#38bdf8" opacity="0.85"/><text x="219.66360323245124" y="359.310770814567" fill="#7c8aa5" font-size="9">Sodarace / Soda Constructor</text><circle cx="348.0225003961337" cy="455.56813794878394" r="4.5" fill="#38bdf8" opacity="0.85"/><text x="355.0225003961337" y="447.56813794878394" fill="#7c8aa5" font-size="9">Genesys/Tracker</text>
</svg>