<svg xmlns="http://www.w3.org/2000/svg" viewBox="0 0 680 332" font-family="ui-sans-serif,system-ui,Segoe UI,Roboto,sans-serif" role="img" aria-label="Nearest neighbours">
<rect width="680" height="332" rx="14" fill="#0b1220"/>
<text x="28" y="30" fill="#cbd5e1" font-size="18" font-weight="700">Nearest neighbours in 9-axis feature space</text><text x="28" y="50" fill="#7c8aa5" font-size="12">Euclidean distance from Cosmogonic (lower = more similar capability shape).</text><text x="140" y="83" fill="#cbd5e1" font-size="11" text-anchor="end">ALIEN</text><rect x="150" y="69" width="345.2519945514691" height="18" rx="3" fill="#34d399" opacity="0.78"/><text x="501.2519945514691" y="83" fill="#7c8aa5" font-size="10">4.53</text><text x="140" y="113" fill="#cbd5e1" font-size="11" text-anchor="end">Creatures</text><rect x="150" y="99" width="371.92709346824927" height="18" rx="3" fill="#34d399" opacity="0.78"/><text x="527.9270934682493" y="113" fill="#7c8aa5" font-size="10">4.88</text><text x="140" y="143" fill="#cbd5e1" font-size="11" text-anchor="end">Framsticks</text><rect x="150" y="129" width="409.27223195174156" height="18" rx="3" fill="#34d399" opacity="0.78"/><text x="565.2722319517416" y="143" fill="#7c8aa5" font-size="10">5.37</text><text x="140" y="173" fill="#cbd5e1" font-size="11" text-anchor="end">Division Blocks</text><rect x="150" y="159" width="414.60725173509763" height="18" rx="3" fill="#34d399" opacity="0.78"/><text x="570.6072517350976" y="173" fill="#7c8aa5" font-size="10">5.44</text><text x="140" y="203" fill="#cbd5e1" font-size="11" text-anchor="end">biosim4</text><rect x="150" y="189" width="422.9908542517999" height="18" rx="3" fill="#34d399" opacity="0.78"/><text x="578.9908542517999" y="203" fill="#7c8aa5" font-size="10">5.55</text><text x="140" y="233" fill="#cbd5e1" font-size="11" text-anchor="end">The Bibites</text><rect x="150" y="219" width="428.32587403515595" height="18" rx="3" fill="#34d399" opacity="0.78"/><text x="584.325874035156" y="233" fill="#7c8aa5" font-size="10">5.62</text><text x="140" y="263" fill="#cbd5e1" font-size="11" text-anchor="end">Karl Sims VC</text><rect x="150" y="249" width="433.660893818512" height="18" rx="3" fill="#34d399" opacity="0.78"/><text x="589.660893818512" y="263" fill="#7c8aa5" font-size="10">5.69</text><text x="140" y="293" fill="#cbd5e1" font-size="11" text-anchor="end">DERL (Deep Evolutionary Reinforcement Learning)</text><rect x="150" y="279" width="435.1851851851852" height="18" rx="3" fill="#34d399" opacity="0.78"/><text x="591.1851851851852" y="293" fill="#7c8aa5" font-size="10">5.71</text>
</svg>