<svg xmlns="http://www.w3.org/2000/svg" viewBox="0 0 680 332" font-family="ui-sans-serif,system-ui,Segoe UI,Roboto,sans-serif" role="img" aria-label="Nearest neighbours">
<rect width="680" height="332" rx="14" fill="#0b1220"/>
<text x="28" y="30" fill="#cbd5e1" font-size="18" font-weight="700">Nearest neighbours in 9-axis feature space</text><text x="28" y="50" fill="#7c8aa5" font-size="12">Euclidean distance from Cosmogonic (lower = more similar capability shape).</text><text x="140" y="83" fill="#cbd5e1" font-size="11" text-anchor="end">ALIEN</text><rect x="150" y="69" width="344.7085401552755" height="18" rx="3" fill="#34d399" opacity="0.78"/><text x="500.7085401552755" y="83" fill="#7c8aa5" font-size="10">4.61</text><text x="140" y="113" fill="#cbd5e1" font-size="11" text-anchor="end">Creatures</text><rect x="150" y="99" width="371.6272114038436" height="18" rx="3" fill="#34d399" opacity="0.78"/><text x="527.6272114038436" y="113" fill="#7c8aa5" font-size="10">4.97</text><text x="140" y="143" fill="#cbd5e1" font-size="11" text-anchor="end">Framsticks</text><rect x="150" y="129" width="409.7619956726486" height="18" rx="3" fill="#34d399" opacity="0.78"/><text x="565.7619956726486" y="143" fill="#7c8aa5" font-size="10">5.48</text><text x="140" y="173" fill="#cbd5e1" font-size="11" text-anchor="end">Division Blocks</text><rect x="150" y="159" width="415.74392261677485" height="18" rx="3" fill="#34d399" opacity="0.78"/><text x="571.7439226167749" y="173" fill="#7c8aa5" font-size="10">5.56</text><text x="140" y="203" fill="#cbd5e1" font-size="11" text-anchor="end">biosim4</text><rect x="150" y="189" width="422.47359042891685" height="18" rx="3" fill="#34d399" opacity="0.78"/><text x="578.4735904289169" y="203" fill="#7c8aa5" font-size="10">5.65</text><text x="140" y="233" fill="#cbd5e1" font-size="11" text-anchor="end">The Bibites</text><rect x="150" y="219" width="426.2122947689958" height="18" rx="3" fill="#34d399" opacity="0.78"/><text x="582.2122947689958" y="233" fill="#7c8aa5" font-size="10">5.70</text><text x="140" y="263" fill="#cbd5e1" font-size="11" text-anchor="end">DERL (Deep Evolutionary Reinforcement Learning)</text><rect x="150" y="249" width="434.43744431716937" height="18" rx="3" fill="#34d399" opacity="0.78"/><text x="590.4374443171694" y="263" fill="#7c8aa5" font-size="10">5.81</text><text x="140" y="293" fill="#cbd5e1" font-size="11" text-anchor="end">Karl Sims VC</text><rect x="150" y="279" width="435.1851851851852" height="18" rx="3" fill="#34d399" opacity="0.78"/><text x="591.1851851851852" y="293" fill="#7c8aa5" font-size="10">5.82</text>
</svg>