<svg xmlns="http://www.w3.org/2000/svg" viewBox="0 0 760 600" font-family="ui-sans-serif,system-ui,Segoe UI,Roboto,sans-serif" role="img" aria-label="PCA projection">
<rect width="760" height="600" rx="14" fill="#0b1220"/>
<text x="28" y="30" fill="#cbd5e1" font-size="18" font-weight="700">PCA of 113 A-Life systems (9-axis correlation-matrix eigenbasis)</text><text x="28" y="50" fill="#7c8aa5" font-size="12">PC1 25.3% var · PC2 21.6% var · together 47.0%. amber = this repo.</text><line x1="170.48171616153905" y1="70" x2="170.48171616153905" y2="540" stroke="#27344d" stroke-width="0.8"/><line x1="60" y1="317.80032830920754" x2="730" y2="317.80032830920754" stroke="#27344d" stroke-width="0.8"/><text x="730" y="544" fill="#7c8aa5" font-size="11" text-anchor="end">PC1 (generalist breadth →)</text><text x="54" y="62" fill="#7c8aa5" font-size="11">PC2</text><circle cx="730" cy="161.6012535442472" r="8" fill="#f59e0b"/><circle cx="730" cy="161.6012535442472" r="13" fill="none" stroke="#f59e0b" stroke-width="1.4" opacity="0.6"/><text x="718" y="149.6012535442472" fill="#f59e0b" font-size="11" font-weight="700" text-anchor="end">COSMOGONIC</text><circle cx="137.84869073975113" cy="311.0670049246381" r="4.5" fill="#38bdf8" opacity="0.85"/><text x="144.84869073975113" y="325.0670049246381" fill="#7c8aa5" font-size="9">Game of Life</text><circle cx="119.28162455149248" cy="227.04074018803163" r="4.5" fill="#38bdf8" opacity="0.85"/><text x="126.28162455149248" y="219.04074018803163" fill="#7c8aa5" font-size="9">Boids</text><circle cx="126.64707229559508" cy="249.6955678256977" r="4.5" fill="#38bdf8" opacity="0.85"/><text x="133.64707229559508" y="263.6955678256977" fill="#7c8aa5" font-size="9">Biomorphs</text><circle cx="121.63447591419192" cy="428.9703029398597" r="4.5" fill="#38bdf8" opacity="0.85"/><text x="128.6344759141919" y="420.9703029398597" fill="#7c8aa5" font-size="9">Core War</text><circle cx="129.40911519963356" cy="460.5327563050291" r="4.5" fill="#38bdf8" opacity="0.85"/><text x="136.40911519963356" y="474.5327563050291" fill="#7c8aa5" font-size="9">Tierra</text><circle cx="156.62035269867928" cy="465.4424712729443" r="4.5" fill="#38bdf8" opacity="0.85"/><text x="163.62035269867928" y="457.4424712729443" fill="#7c8aa5" font-size="9">Avida</text><circle cx="245.875257653256" cy="361.84748544993283" r="4.5" fill="#38bdf8" opacity="0.85"/><text x="252.875257653256" y="375.84748544993283" fill="#7c8aa5" font-size="9">Polyworld</text><circle cx="269.9664096495916" cy="337.57946575138044" r="4.5" fill="#38bdf8" opacity="0.85"/><text x="276.9664096495916" y="329.57946575138044" fill="#7c8aa5" font-size="9">Framsticks</text><circle cx="224.80189327429576" cy="263.5830473063722" r="4.5" fill="#38bdf8" opacity="0.85"/><text x="231.80189327429576" y="277.5830473063722" fill="#7c8aa5" font-size="9">Karl Sims VC</text><circle cx="369.2465073669746" cy="273.61289359797047" r="4.5" fill="#38bdf8" opacity="0.85"/><text x="376.2465073669746" y="265.61289359797047" fill="#7c8aa5" font-size="9">Creatures</text><circle cx="190.68554851515384" cy="296.54827637666017" r="4.5" fill="#38bdf8" opacity="0.85"/><text x="197.68554851515384" y="310.54827637666017" fill="#7c8aa5" font-size="9">Darwin Pond</text><circle cx="208.6899763340713" cy="299.63438292792125" r="4.5" fill="#38bdf8" opacity="0.85"/><text x="215.6899763340713" y="291.63438292792125" fill="#7c8aa5" font-size="9">Gene Pool</text><circle cx="163.32086418810596" cy="417.6779585136547" r="4.5" fill="#38bdf8" opacity="0.85"/><text x="170.32086418810596" y="431.6779585136547" fill="#7c8aa5" font-size="9">Sugarscape</text><circle cx="147.20894724788153" cy="435.1425160423817" r="4.5" fill="#38bdf8" opacity="0.85"/><text x="154.20894724788153" y="427.1425160423817" fill="#7c8aa5" font-size="9">Echo</text><circle cx="153.80716085197344" cy="390.74466497537685" r="4.5" fill="#38bdf8" opacity="0.85"/><text x="160.80716085197344" y="404.74466497537685" fill="#7c8aa5" font-size="9">Swarm</text><circle cx="206.54172074204138" cy="273.26219967169084" r="4.5" fill="#38bdf8" opacity="0.85"/><text x="213.54172074204138" y="265.26219967169084" fill="#7c8aa5" font-size="9">breve</text><circle cx="220.60767997557065" cy="310.5760334278466" r="4.5" fill="#38bdf8" opacity="0.85"/><text x="227.60767997557065" y="324.5760334278466" fill="#7c8aa5" font-size="9">Picbreeder</text><circle cx="196.9257195205741" cy="465.3723324876884" r="4.5" fill="#38bdf8" opacity="0.85"/><text x="203.9257195205741" y="457.3723324876884" fill="#7c8aa5" font-size="9">MABE</text><circle cx="159.8427360867242" cy="182.71302790628266" r="4.5" fill="#38bdf8" opacity="0.85"/><text x="166.8427360867242" y="196.71302790628266" fill="#7c8aa5" font-size="9">Lenia</text><circle cx="202.50095427131842" cy="216.94075511117745" r="4.5" fill="#38bdf8" opacity="0.85"/><text x="209.50095427131842" y="208.94075511117745" fill="#7c8aa5" font-size="9">Growing NCA</text><circle cx="385.4607221925338" cy="152.9040441725116" r="4.5" fill="#38bdf8" opacity="0.85"/><text x="392.4607221925338" y="166.9040441725116" fill="#7c8aa5" font-size="9">OpenWorm</text><circle cx="194.4194213298725" cy="442.1563945679749" r="4.5" fill="#38bdf8" opacity="0.85"/><text x="201.4194213298725" y="434.1563945679749" fill="#7c8aa5" font-size="9">POET</text><circle cx="203.7796778380029" cy="317.1690792419042" r="4.5" fill="#38bdf8" opacity="0.85"/><text x="210.7796778380029" y="331.1690792419042" fill="#7c8aa5" font-size="9">EvoGym</text><circle cx="405.2553630048095" cy="230.0567079540367" r="4.5" fill="#38bdf8" opacity="0.85"/><text x="412.2553630048095" y="222.0567079540367" fill="#7c8aa5" font-size="9">ALIEN</text><circle cx="271.7054737002825" cy="324.8843456200567" r="4.5" fill="#38bdf8" opacity="0.85"/><text x="278.7054737002825" y="338.8843456200567" fill="#7c8aa5" font-size="9">ASAL</text><circle cx="60" cy="237.49141919116545" r="4.5" fill="#38bdf8" opacity="0.85"/><text x="67" y="229.49141919116545" fill="#7c8aa5" font-size="9">Wireworld</text><circle cx="60" cy="237.49141919116545" r="4.5" fill="#38bdf8" opacity="0.85"/><text x="67" y="251.49141919116545" fill="#7c8aa5" font-size="9">Langton's Ant</text><circle cx="91.968089167112" cy="269.1240113415908" r="4.5" fill="#38bdf8" opacity="0.85"/><text x="98.968089167112" y="261.1240113415908" fill="#7c8aa5" font-size="9">Langton's Loops</text><circle cx="79.79464081227576" cy="296.33786002089244" r="4.5" fill="#38bdf8" opacity="0.85"/><text x="86.79464081227576" y="310.33786002089244" fill="#7c8aa5" font-size="9">von Neumann Universal Constructor</text><circle cx="60" cy="237.49141919116545" r="4.5" fill="#38bdf8" opacity="0.85"/><text x="67" y="229.49141919116545" fill="#7c8aa5" font-size="9">Rule 110</text><circle cx="123.6804336208871" cy="178.36442322041484" r="4.5" fill="#38bdf8" opacity="0.85"/><text x="130.6804336208871" y="192.36442322041484" fill="#7c8aa5" font-size="9">SmoothLife</text><circle cx="123.6804336208871" cy="178.36442322041484" r="4.5" fill="#38bdf8" opacity="0.85"/><text x="130.6804336208871" y="170.36442322041484" fill="#7c8aa5" font-size="9">Larger than Life</text><circle cx="193.19184670585543" cy="245.48724071034178" r="4.5" fill="#38bdf8" opacity="0.85"/><text x="200.19184670585543" y="259.4872407103418" fill="#7c8aa5" font-size="9">Flow Lenia</text><circle cx="153.7048629666387" cy="200.1074466497538" r="4.5" fill="#38bdf8" opacity="0.85"/><text x="160.7048629666387" y="192.1074466497538" fill="#7c8aa5" font-size="9">Particle Lenia</text><circle cx="150.02213909458737" cy="240.50738695717058" r="4.5" fill="#38bdf8" opacity="0.85"/><text x="157.02213909458737" y="254.50738695717058" fill="#7c8aa5" font-size="9">Primordial Particle Systems</text><circle cx="123.8850293915566" cy="178.29428443515894" r="4.5" fill="#38bdf8" opacity="0.85"/><text x="130.8850293915566" y="170.29428443515894" fill="#7c8aa5" font-size="9">Gray-Scott Reaction-Diffusion</text><circle cx="128.48843423162074" cy="417.25712580211905" r="4.5" fill="#38bdf8" opacity="0.85"/><text x="135.48843423162074" y="431.25712580211905" fill="#7c8aa5" font-size="9">Aevol</text><circle cx="153.03992671196275" cy="418.73004029249364" r="4.5" fill="#38bdf8" opacity="0.85"/><text x="160.03992671196275" y="410.73004029249364" fill="#7c8aa5" font-size="9">Avida-ED</text><circle cx="113.70638980074816" cy="372.5085808088345" r="4.5" fill="#38bdf8" opacity="0.85"/><text x="120.70638980074816" y="386.5085808088345" fill="#7c8aa5" font-size="9">Nanopond</text><circle cx="105.06221848996108" cy="353.6412475749888" r="4.5" fill="#38bdf8" opacity="0.85"/><text x="112.06221848996108" y="345.6412475749888" fill="#7c8aa5" font-size="9">Physis</text><circle cx="117.7983052141385" cy="382.25787195940904" r="4.5" fill="#38bdf8" opacity="0.85"/><text x="124.7983052141385" y="396.25787195940904" fill="#7c8aa5" font-size="9">Cosmos</text><circle cx="206.84861439804564" cy="507.8764363527832" r="4.5" fill="#38bdf8" opacity="0.85"/><text x="213.84861439804564" y="499.8764363527832" fill="#7c8aa5" font-size="9">Geb</text><circle cx="117.7983052141385" cy="382.25787195940904" r="4.5" fill="#38bdf8" opacity="0.85"/><text x="124.7983052141385" y="396.25787195940904" fill="#7c8aa5" font-size="9">Amoeba</text><circle cx="173.19261012291014" cy="345.78570362632445" r="4.5" fill="#38bdf8" opacity="0.85"/><text x="180.19261012291014" y="337.78570362632445" fill="#7c8aa5" font-size="9">Evolve 4.0</text><circle cx="143.01473394915644" cy="282.4503805402179" r="4.5" fill="#38bdf8" opacity="0.85"/><text x="150.01473394915644" y="296.4503805402179" fill="#7c8aa5" font-size="9">Squirm3</text><circle cx="126.44247652492558" cy="401.1252051932547" r="4.5" fill="#38bdf8" opacity="0.85"/><text x="133.44247652492558" y="393.1252051932547" fill="#7c8aa5" font-size="9">Network Tierra</text><circle cx="185.5706542484159" cy="361.0759588121176" r="4.5" fill="#38bdf8" opacity="0.85"/><text x="192.5706542484159" y="375.0759588121176" fill="#7c8aa5" font-size="9">biosim4</text><circle cx="179.73967478433468" cy="278.17191463960603" r="4.5" fill="#38bdf8" opacity="0.85"/><text x="186.73967478433468" y="270.17191463960603" fill="#7c8aa5" font-size="9">GOLEM (Genetically Organized Lifelike Electro Mechanics)</text><circle cx="140.61073364378962" cy="203.4741083420385" r="4.5" fill="#38bdf8" opacity="0.85"/><text x="147.61073364378962" y="217.4741083420385" fill="#7c8aa5" font-size="9">Voxelyze / VoxCAD</text><circle cx="203.67737995266816" cy="266.3184599313535" r="4.5" fill="#38bdf8" opacity="0.85"/><text x="210.67737995266816" y="258.3184599313535" fill="#7c8aa5" font-size="9">3D Virtual Creature Evolution (3DVCE)</text><circle cx="237.89602259714482" cy="377.20787942098195" r="4.5" fill="#38bdf8" opacity="0.85"/><text x="244.89602259714482" y="391.20787942098195" fill="#7c8aa5" font-size="9">DERL (Deep Evolutionary Reinforcement Learning)</text><circle cx="232.88342621574168" cy="362.54887330249215" r="4.5" fill="#38bdf8" opacity="0.85"/><text x="239.88342621574168" y="354.54887330249215" fill="#7c8aa5" font-size="9">UNIMAL (Universal Animal design space)</text><circle cx="188.43499503778915" cy="260.2163856140875" r="4.5" fill="#38bdf8" opacity="0.85"/><text x="195.43499503778915" y="274.2163856140875" fill="#7c8aa5" font-size="9">Evolving Soft Robots (Cheney / Unshackling Evolution)</text><circle cx="203.5750820673334" cy="317.2392180271601" r="4.5" fill="#38bdf8" opacity="0.85"/><text x="210.5750820673334" y="309.2392180271601" fill="#7c8aa5" font-size="9">RoboGrammar</text><circle cx="205.62103977402856" cy="382.6787046709446" r="4.5" fill="#38bdf8" opacity="0.85"/><text x="212.62103977402856" y="396.6787046709446" fill="#7c8aa5" font-size="9">Transform2Act</text><circle cx="163.0139705321017" cy="302.79062826443817" r="4.5" fill="#38bdf8" opacity="0.85"/><text x="170.0139705321017" y="294.79062826443817" fill="#7c8aa5" font-size="9">NerveNet</text><circle cx="206.79746545537827" cy="350.69541859423964" r="4.5" fill="#38bdf8" opacity="0.85"/><text x="213.79746545537827" y="364.69541859423964" fill="#7c8aa5" font-size="9">Neural Graph Evolution (NGE)</text><circle cx="164.4461409267883" cy="271.1580361140128" r="4.5" fill="#38bdf8" opacity="0.85"/><text x="171.4461409267883" y="263.1580361140128" fill="#7c8aa5" font-size="9">Krcah Evolved Virtual Creatures (ERO)</text><circle cx="174.7782273455989" cy="492.44590359647816" r="4.5" fill="#38bdf8" opacity="0.85"/><text x="181.7782273455989" y="506.44590359647816" fill="#7c8aa5" font-size="9">NEAT (NeuroEvolution of Augmenting Topologies)</text><circle cx="192.93610199251853" cy="447.8376361737054" r="4.5" fill="#38bdf8" opacity="0.85"/><text x="199.93610199251853" y="439.8376361737054" fill="#7c8aa5" font-size="9">HyperNEAT</text><circle cx="183.83159019772503" cy="423.35920011938515" r="4.5" fill="#38bdf8" opacity="0.85"/><text x="190.83159019772503" y="437.35920011938515" fill="#7c8aa5" font-size="9">ES-HyperNEAT</text><circle cx="185.21261164974425" cy="498.1972839874646" r="4.5" fill="#38bdf8" opacity="0.85"/><text x="192.21261164974425" y="490.1972839874646" fill="#7c8aa5" font-size="9">Novelty Search</text><circle cx="203.62623101000077" cy="453.5188777794359" r="4.5" fill="#38bdf8" opacity="0.85"/><text x="210.62623101000077" y="467.5188777794359" fill="#7c8aa5" font-size="9">MAP-Elites</text><circle cx="203.62623101000077" cy="453.5188777794359" r="4.5" fill="#38bdf8" opacity="0.85"/><text x="210.62623101000077" y="445.5188777794359" fill="#7c8aa5" font-size="9">Quality-Diversity (illumination algorithms)</text><circle cx="181.32529200702345" cy="357.6391583345769" r="4.5" fill="#38bdf8" opacity="0.85"/><text x="188.32529200702345" y="371.6391583345769" fill="#7c8aa5" font-size="9">Go-Explore</text><circle cx="194.4194213298725" cy="442.1563945679749" r="4.5" fill="#38bdf8" opacity="0.85"/><text x="201.4194213298725" y="434.1563945679749" fill="#7c8aa5" font-size="9">OMNI (Open-endedness via Models of human Notions of Interestingness)</text><circle cx="191.7596763111688" cy="450.6431875839427" r="4.5" fill="#38bdf8" opacity="0.85"/><text x="198.7596763111688" y="464.6431875839427" fill="#7c8aa5" font-size="9">Minimal Criterion Coevolution (MCC)</text><circle cx="182.50171768837316" cy="368.3703924787345" r="4.5" fill="#38bdf8" opacity="0.85"/><text x="189.50171768837316" y="360.3703924787345" fill="#7c8aa5" font-size="9">Innovation Engines</text><circle cx="172.27192915489735" cy="290.9371735561856" r="4.5" fill="#38bdf8" opacity="0.85"/><text x="179.27192915489735" y="304.9371735561856" fill="#7c8aa5" font-size="9">EndlessForms</text><circle cx="137.2349034277426" cy="312.89061334129235" r="4.5" fill="#38bdf8" opacity="0.85"/><text x="144.2349034277426" y="304.89061334129235" fill="#7c8aa5" font-size="9">NetLogo</text><circle cx="159.17779983204827" cy="314.92463811371437" r="4.5" fill="#38bdf8" opacity="0.85"/><text x="166.17779983204827" y="328.92463811371437" fill="#7c8aa5" font-size="9">MASON</text><circle cx="149.40835178257885" cy="328.25100731234147" r="4.5" fill="#38bdf8" opacity="0.85"/><text x="156.40835178257885" y="320.25100731234147" fill="#7c8aa5" font-size="9">Repast</text><circle cx="107.00587831132148" cy="291.14758991195345" r="4.5" fill="#38bdf8" opacity="0.85"/><text x="114.00587831132148" y="305.14758991195345" fill="#7c8aa5" font-size="9">StarLogo</text><circle cx="119.74196503549891" cy="319.8343530816296" r="4.5" fill="#38bdf8" opacity="0.85"/><text x="126.74196503549891" y="311.8343530816296" fill="#7c8aa5" font-size="9">Ascape</text><circle cx="167.56622642949844" cy="283.5726011043128" r="4.5" fill="#38bdf8" opacity="0.85"/><text x="174.56622642949844" y="297.5726011043128" fill="#7c8aa5" font-size="9">GAMA Platform</text><circle cx="137.2349034277426" cy="312.89061334129235" r="4.5" fill="#38bdf8" opacity="0.85"/><text x="144.2349034277426" y="304.89061334129235" fill="#7c8aa5" font-size="9">Mesa</text><circle cx="117.23566684479732" cy="189.93732278764367" r="4.5" fill="#38bdf8" opacity="0.85"/><text x="124.23566684479732" y="203.93732278764367" fill="#7c8aa5" font-size="9">OpenSteer</text><circle cx="100.04962210855791" cy="290.5163408446501" r="4.5" fill="#38bdf8" opacity="0.85"/><text x="107.04962210855791" y="282.5163408446501" fill="#7c8aa5" font-size="9">Artificial Anasazi</text><circle cx="80.9199175509581" cy="236.64975376809429" r="4.5" fill="#38bdf8" opacity="0.85"/><text x="87.9199175509581" y="250.64975376809429" fill="#7c8aa5" font-size="9">Schelling Segregation Model</text><circle cx="108.1823039926712" cy="351.6773615878227" r="4.5" fill="#38bdf8" opacity="0.85"/><text x="115.1823039926712" y="343.6773615878227" fill="#7c8aa5" font-size="9">El Farol Bar Problem</text><circle cx="148.5388197572334" cy="128.70616325921497" r="4.5" fill="#38bdf8" opacity="0.85"/><text x="155.5388197572334" y="142.70616325921497" fill="#7c8aa5" font-size="9">Spore</text><circle cx="120.40690129017483" cy="324.74406804954486" r="4.5" fill="#38bdf8" opacity="0.85"/><text x="127.40690129017483" y="316.74406804954486" fill="#7c8aa5" font-size="9">SimLife: The Genetic Playground</text><circle cx="94.62783418581571" cy="275.9274735114162" r="4.5" fill="#38bdf8" opacity="0.85"/><text x="101.62783418581571" y="289.9274735114162" fill="#7c8aa5" font-size="9">SimEarth: The Living Planet</text><circle cx="101.5329414459119" cy="270.87748097298913" r="4.5" fill="#38bdf8" opacity="0.85"/><text x="108.5329414459119" y="262.87748097298913" fill="#7c8aa5" font-size="9">SimAnt: The Electric Ant Colony</text><circle cx="157.0295442400183" cy="241.138636024474" r="4.5" fill="#38bdf8" opacity="0.85"/><text x="164.0295442400183" y="255.138636024474" fill="#7c8aa5" font-size="9">Thrive</text><circle cx="155.69967173066647" cy="217.50186539322493" r="4.5" fill="#38bdf8" opacity="0.85"/><text x="162.69967173066647" y="209.50186539322493" fill="#7c8aa5" font-size="9">Cell Lab: Evolution Sandbox</text><circle cx="191.91312313917092" cy="314.5038054021788" r="4.5" fill="#38bdf8" opacity="0.85"/><text x="198.91312313917092" y="328.5038054021788" fill="#7c8aa5" font-size="9">Species: Artificial Life, Real Evolution</text><circle cx="198.10214520192383" cy="389.7627219817938" r="4.5" fill="#38bdf8" opacity="0.85"/><text x="205.10214520192383" y="381.7627219817938" fill="#7c8aa5" font-size="9">The Bibites</text><circle cx="97.79906863119322" cy="166.3005521563946" r="4.5" fill="#38bdf8" opacity="0.85"/><text x="104.79906863119322" y="180.3005521563946" fill="#7c8aa5" font-size="9">The Powder Toy</text><circle cx="118.82128406748608" cy="70" r="4.5" fill="#38bdf8" opacity="0.85"/><text x="125.82128406748608" y="62" fill="#7c8aa5" font-size="9">Noita</text><circle cx="126.85166806626461" cy="313.1711684823161" r="4.5" fill="#38bdf8" opacity="0.85"/><text x="133.8516680662646" y="327.1711684823161" fill="#7c8aa5" font-size="9">The Life Engine</text><circle cx="111.76272997938776" cy="125.19922399641848" r="4.5" fill="#38bdf8" opacity="0.85"/><text x="118.76272997938776" y="117.19922399641848" fill="#7c8aa5" font-size="9">Clusters (Particle Life)</text><circle cx="118.15634781281014" cy="107.7346664676914" r="4.5" fill="#38bdf8" opacity="0.85"/><text x="125.15634781281014" y="121.7346664676914" fill="#7c8aa5" font-size="9">Sandspiel</text><circle cx="161.73524696541722" cy="250.25667810774513" r="4.5" fill="#38bdf8" opacity="0.85"/><text x="168.73524696541722" y="242.25667810774513" fill="#7c8aa5" font-size="9">Sebastian Lague Ecosystem</text><circle cx="129.20451942896403" cy="162.7234741083421" r="4.5" fill="#38bdf8" opacity="0.85"/><text x="136.20451942896403" y="176.7234741083421" fill="#7c8aa5" font-size="9">Pezzza's Ant Colony Simulation</text><circle cx="148.28307504389647" cy="259.37472019101625" r="4.5" fill="#38bdf8" opacity="0.85"/><text x="155.28307504389647" y="251.37472019101625" fill="#7c8aa5" font-size="9">Primer Evolution Simulations</text><circle cx="194.77746392854417" cy="241.84002387703327" r="4.5" fill="#38bdf8" opacity="0.85"/><text x="201.77746392854417" y="255.84002387703327" fill="#7c8aa5" font-size="9">Keiwan Evolution</text><circle cx="213.34453011680282" cy="256.84972392180276" r="4.5" fill="#38bdf8" opacity="0.85"/><text x="220.34453011680282" y="248.84972392180276" fill="#7c8aa5" font-size="9">DevoWorm</text><circle cx="127.72120009161006" cy="224.93657663035373" r="4.5" fill="#38bdf8" opacity="0.85"/><text x="134.72120009161006" y="238.93657663035373" fill="#7c8aa5" font-size="9">Morphozoic</text><circle cx="174.01099320558822" cy="364.793314430682" r="4.5" fill="#38bdf8" opacity="0.85"/><text x="181.01099320558822" y="356.793314430682" fill="#7c8aa5" font-size="9">Chromaria</text><circle cx="201.88716695930987" cy="343.75167885390243" r="4.5" fill="#38bdf8" opacity="0.85"/><text x="208.88716695930987" y="357.75167885390243" fill="#7c8aa5" font-size="9">Division Blocks</text><circle cx="188.89533552179554" cy="371.5967766005074" r="4.5" fill="#38bdf8" opacity="0.85"/><text x="195.89533552179554" y="363.5967766005074" fill="#7c8aa5" font-size="9">Voyager (Minecraft LLM agent)</text><circle cx="168.53805634017866" cy="344.10237278018207" r="4.5" fill="#38bdf8" opacity="0.85"/><text x="175.53805634017866" y="358.10237278018207" fill="#7c8aa5" font-size="9">Generative Agents (Smallville)</text><circle cx="210.37789144209484" cy="411.43560662587674" r="4.5" fill="#38bdf8" opacity="0.85"/><text x="217.37789144209484" y="403.43560662587674" fill="#7c8aa5" font-size="9">OMNI-EPIC</text><circle cx="173.24375906557754" cy="258.5330547679451" r="4.5" fill="#38bdf8" opacity="0.85"/><text x="180.24375906557754" y="272.5330547679451" fill="#7c8aa5" font-size="9">Genie (Generative Interactive Environments)</text><circle cx="195.18665546988322" cy="391.3057752574243" r="4.5" fill="#38bdf8" opacity="0.85"/><text x="202.18665546988322" y="383.3057752574243" fill="#7c8aa5" font-size="9">Evolution through Large Models (ELM)</text><circle cx="171.3512481868845" cy="458.9897030293986" r="4.5" fill="#38bdf8" opacity="0.85"/><text x="178.3512481868845" y="472.9897030293986" fill="#7c8aa5" font-size="9">OpenELM</text><circle cx="163.88350255744714" cy="500.792419041934" r="4.5" fill="#38bdf8" opacity="0.85"/><text x="170.88350255744714" y="492.792419041934" fill="#7c8aa5" font-size="9">Automated Design of Agentic Systems (ADAS)</text><circle cx="162.29788533475838" cy="440.05223101029696" r="4.5" fill="#38bdf8" opacity="0.85"/><text x="169.29788533475838" y="454.05223101029696" fill="#7c8aa5" font-size="9">The AI Scientist</text><circle cx="177.79601496297428" cy="540" r="4.5" fill="#38bdf8" opacity="0.85"/><text x="184.79601496297428" y="532" fill="#7c8aa5" font-size="9">Darwin Godel Machine (DGM)</text><circle cx="121.17413543018552" cy="407.85852857782425" r="4.5" fill="#38bdf8" opacity="0.85"/><text x="128.17413543018552" y="421.85852857782425" fill="#7c8aa5" font-size="9">Promptbreeder</text><circle cx="130.07405145430948" cy="432.3369646321445" r="4.5" fill="#38bdf8" opacity="0.85"/><text x="137.07405145430948" y="424.3369646321445" fill="#7c8aa5" font-size="9">Quality-Diversity through AI Feedback (QDAIF)</text>
</svg>