<svg xmlns="http://www.w3.org/2000/svg" viewBox="0 0 720 540" font-family="ui-sans-serif,system-ui,Segoe UI,Roboto,sans-serif" role="img" aria-label="Pareto frontier">
<rect width="720" height="540" rx="14" fill="#0b1220"/>
<text x="28" y="30" fill="#cbd5e1" font-size="18" font-weight="700">Pareto frontier — breadth vs peer maturity</text><text x="28" y="50" fill="#7c8aa5" font-size="12">green ring = non-dominated (Pareto-optimal). no system beats Cosmogonic on breadth; many beat it on maturity.</text><line x1="70" y1="70" x2="70" y2="480" stroke="#27344d" stroke-width="0.6"/><line x1="70" y1="480" x2="690" y2="480" stroke="#27344d" stroke-width="0.6"/><text x="70" y="496" fill="#7c8aa5" font-size="10" text-anchor="middle">0</text><text x="62" y="483" fill="#7c8aa5" font-size="10" text-anchor="end">0</text><line x1="194" y1="70" x2="194" y2="480" stroke="#27344d" stroke-width="0.6"/><line x1="70" y1="398" x2="690" y2="398" stroke="#27344d" stroke-width="0.6"/><text x="194" y="496" fill="#7c8aa5" font-size="10" text-anchor="middle">1</text><text x="62" y="401" fill="#7c8aa5" font-size="10" text-anchor="end">1</text><line x1="318" y1="70" x2="318" y2="480" stroke="#27344d" stroke-width="0.6"/><line x1="70" y1="316" x2="690" y2="316" stroke="#27344d" stroke-width="0.6"/><text x="318" y="496" fill="#7c8aa5" font-size="10" text-anchor="middle">2</text><text x="62" y="319" fill="#7c8aa5" font-size="10" text-anchor="end">2</text><line x1="442" y1="70" x2="442" y2="480" stroke="#27344d" stroke-width="0.6"/><line x1="70" y1="234" x2="690" y2="234" stroke="#27344d" stroke-width="0.6"/><text x="442" y="496" fill="#7c8aa5" font-size="10" text-anchor="middle">3</text><text x="62" y="237" fill="#7c8aa5" font-size="10" text-anchor="end">3</text><line x1="566" y1="70" x2="566" y2="480" stroke="#27344d" stroke-width="0.6"/><line x1="70" y1="152" x2="690" y2="152" stroke="#27344d" stroke-width="0.6"/><text x="566" y="496" fill="#7c8aa5" font-size="10" text-anchor="middle">4</text><text x="62" y="155" fill="#7c8aa5" font-size="10" text-anchor="end">4</text><line x1="690" y1="70" x2="690" y2="480" stroke="#27344d" stroke-width="0.6"/><line x1="70" y1="70" x2="690" y2="70" stroke="#27344d" stroke-width="0.6"/><text x="690" y="496" fill="#7c8aa5" font-size="10" text-anchor="middle">5</text><text x="62" y="73" fill="#7c8aa5" font-size="10" text-anchor="end">5</text><text x="395" y="526" fill="#cbd5e1" font-size="12" text-anchor="middle">peer maturity →</text><text x="20" y="275" fill="#cbd5e1" font-size="12" text-anchor="middle" transform="rotate(-90 20 275)">breadth →</text><polyline points="256,115.59199999999998 380,193 566,206.69399999999996 628,234 690,243.102" fill="none" stroke="#34d399" stroke-width="1.2" stroke-dasharray="5 4" opacity="0.7"/><circle cx="256" cy="115.59199999999998" r="8" fill="#f59e0b"/><circle cx="256" cy="115.59199999999998" r="13" fill="none" stroke="#34d399" stroke-width="1.8"/><text x="244" y="105.59199999999998" fill="#f59e0b" font-size="11" font-weight="700" text-anchor="end">COSMOGONIC</text><circle cx="690" cy="334.20399999999995" r="4.5" fill="#38bdf8" opacity="0.85"/><text x="697" y="348.20399999999995" fill="#7c8aa5" font-size="9">Game of Life</text><circle cx="690" cy="343.306" r="4.5" fill="#38bdf8" opacity="0.85"/><text x="697" y="335.306" fill="#7c8aa5" font-size="9">Boids</text><circle cx="566" cy="343.306" r="4.5" fill="#38bdf8" opacity="0.85"/><text x="573" y="357.306" fill="#7c8aa5" font-size="9">Biomorphs</text><circle cx="504" cy="334.20399999999995" r="4.5" fill="#38bdf8" opacity="0.85"/><text x="511" y="326.20399999999995" fill="#7c8aa5" font-size="9">Core War</text><circle cx="690" cy="320.592" r="4.5" fill="#38bdf8" opacity="0.85"/><text x="697" y="334.592" fill="#7c8aa5" font-size="9">Tierra</text><circle cx="690" cy="288.69399999999996" r="4.5" fill="#38bdf8" opacity="0.85"/><text x="697" y="280.69399999999996" fill="#7c8aa5" font-size="9">Avida</text><circle cx="628" cy="234" r="4.5" fill="#38bdf8" opacity="0.85"/><circle cx="628" cy="234" r="8" fill="none" stroke="#34d399" stroke-width="1.5"/><text x="635" y="248" fill="#7c8aa5" font-size="9">Polyworld</text><circle cx="566" cy="215.796" r="4.5" fill="#38bdf8" opacity="0.85"/><text x="573" y="207.796" fill="#7c8aa5" font-size="9">Framsticks</text><circle cx="690" cy="243.102" r="4.5" fill="#38bdf8" opacity="0.85"/><circle cx="690" cy="243.102" r="8" fill="none" stroke="#34d399" stroke-width="1.5"/><text x="697" y="257.102" fill="#7c8aa5" font-size="9">Karl Sims VC</text><circle cx="566" cy="206.69399999999996" r="4.5" fill="#38bdf8" opacity="0.85"/><circle cx="566" cy="206.69399999999996" r="8" fill="none" stroke="#34d399" stroke-width="1.5"/><text x="573" y="198.69399999999996" fill="#7c8aa5" font-size="9">Creatures</text><circle cx="442" cy="261.30600000000004" r="4.5" fill="#38bdf8" opacity="0.85"/><text x="449" y="275.30600000000004" fill="#7c8aa5" font-size="9">Darwin Pond</text><circle cx="442" cy="238.592" r="4.5" fill="#38bdf8" opacity="0.85"/><text x="449" y="230.592" fill="#7c8aa5" font-size="9">Gene Pool</text><circle cx="690" cy="288.69399999999996" r="4.5" fill="#38bdf8" opacity="0.85"/><text x="697" y="302.69399999999996" fill="#7c8aa5" font-size="9">Sugarscape</text><circle cx="566" cy="306.898" r="4.5" fill="#38bdf8" opacity="0.85"/><text x="573" y="298.898" fill="#7c8aa5" font-size="9">Echo</text><circle cx="690" cy="302.30600000000004" r="4.5" fill="#38bdf8" opacity="0.85"/><text x="697" y="316.30600000000004" fill="#7c8aa5" font-size="9">Swarm</text><circle cx="566" cy="252.204" r="4.5" fill="#38bdf8" opacity="0.85"/><text x="573" y="244.204" fill="#7c8aa5" font-size="9">breve</text><circle cx="628" cy="243.102" r="4.5" fill="#38bdf8" opacity="0.85"/><text x="635" y="257.102" fill="#7c8aa5" font-size="9">Picbreeder</text><circle cx="628" cy="261.30600000000004" r="4.5" fill="#38bdf8" opacity="0.85"/><text x="635" y="253.30600000000004" fill="#7c8aa5" font-size="9">MABE</text><circle cx="566" cy="316" r="4.5" fill="#38bdf8" opacity="0.85"/><text x="573" y="330" fill="#7c8aa5" font-size="9">Lenia</text><circle cx="566" cy="311.408" r="4.5" fill="#38bdf8" opacity="0.85"/><text x="573" y="303.408" fill="#7c8aa5" font-size="9">Growing NCA</text><circle cx="566" cy="279.592" r="4.5" fill="#38bdf8" opacity="0.85"/><text x="573" y="293.592" fill="#7c8aa5" font-size="9">OpenWorm</text><circle cx="566" cy="288.69399999999996" r="4.5" fill="#38bdf8" opacity="0.85"/><text x="573" y="280.69399999999996" fill="#7c8aa5" font-size="9">POET</text><circle cx="566" cy="279.592" r="4.5" fill="#38bdf8" opacity="0.85"/><text x="573" y="293.592" fill="#7c8aa5" font-size="9">EvoGym</text><circle cx="380" cy="193" r="4.5" fill="#38bdf8" opacity="0.85"/><circle cx="380" cy="193" r="8" fill="none" stroke="#34d399" stroke-width="1.5"/><text x="387" y="185" fill="#7c8aa5" font-size="9">ALIEN</text><circle cx="504" cy="261.30600000000004" r="4.5" fill="#38bdf8" opacity="0.85"/><text x="511" y="275.30600000000004" fill="#7c8aa5" font-size="9">ASAL</text>
</svg>