<svg xmlns="http://www.w3.org/2000/svg" viewBox="0 0 680 332" font-family="ui-sans-serif,system-ui,Segoe UI,Roboto,sans-serif" role="img" aria-label="Nearest neighbours">
<rect width="680" height="332" rx="14" fill="#0b1220"/>
<text x="28" y="30" fill="#cbd5e1" font-size="18" font-weight="700">Nearest neighbours in 9-axis feature space</text><text x="28" y="50" fill="#7c8aa5" font-size="12">Euclidean distance from Cosmogonic (lower = more similar capability shape).</text><text x="140" y="83" fill="#cbd5e1" font-size="11" text-anchor="end">ALIEN</text><rect x="150" y="69" width="346.9308469308469" height="18" rx="3" fill="#34d399" opacity="0.78"/><text x="502.9308469308469" y="83" fill="#7c8aa5" font-size="10">4.56</text><text x="140" y="113" fill="#cbd5e1" font-size="11" text-anchor="end">Creatures</text><rect x="150" y="99" width="372.0376845376845" height="18" rx="3" fill="#34d399" opacity="0.78"/><text x="528.0376845376845" y="113" fill="#7c8aa5" font-size="10">4.89</text><text x="140" y="143" fill="#cbd5e1" font-size="11" text-anchor="end">Framsticks</text><rect x="150" y="129" width="410.83916083916085" height="18" rx="3" fill="#34d399" opacity="0.78"/><text x="566.8391608391609" y="143" fill="#7c8aa5" font-size="10">5.40</text><text x="140" y="173" fill="#cbd5e1" font-size="11" text-anchor="end">Division Blocks</text><rect x="150" y="159" width="416.1648536648536" height="18" rx="3" fill="#34d399" opacity="0.78"/><text x="572.1648536648536" y="173" fill="#7c8aa5" font-size="10">5.47</text><text x="140" y="203" fill="#cbd5e1" font-size="11" text-anchor="end">biosim4</text><rect x="150" y="189" width="423.012173012173" height="18" rx="3" fill="#34d399" opacity="0.78"/><text x="579.012173012173" y="203" fill="#7c8aa5" font-size="10">5.56</text><text x="140" y="233" fill="#cbd5e1" font-size="11" text-anchor="end">The Bibites</text><rect x="150" y="219" width="428.3378658378658" height="18" rx="3" fill="#34d399" opacity="0.78"/><text x="584.3378658378658" y="233" fill="#7c8aa5" font-size="10">5.63</text><text x="140" y="263" fill="#cbd5e1" font-size="11" text-anchor="end">DERL (Deep Evolutionary Reinforcement Learning)</text><rect x="150" y="249" width="433.66355866355866" height="18" rx="3" fill="#34d399" opacity="0.78"/><text x="589.6635586635587" y="263" fill="#7c8aa5" font-size="10">5.70</text><text x="140" y="293" fill="#cbd5e1" font-size="11" text-anchor="end">Karl Sims VC</text><rect x="150" y="279" width="435.1851851851852" height="18" rx="3" fill="#34d399" opacity="0.78"/><text x="591.1851851851852" y="293" fill="#7c8aa5" font-size="10">5.72</text>
</svg>