<svg xmlns="http://www.w3.org/2000/svg" viewBox="0 0 640 600" font-family="ui-sans-serif,system-ui,Segoe UI,Roboto,sans-serif" role="img" aria-label="Nine-axis capability radar">
<rect width="640" height="600" rx="14" fill="#0b1220"/>
<text x="28" y="30" fill="#cbd5e1" font-size="18" font-weight="700">Nine-axis capability profile</text><text x="28" y="50" fill="#7c8aa5" font-size="12">amber = Cosmogonic · violet = survey mean · green = nearest peer (ALIEN)</text><polygon points="320,278 345.7,287.4 359.4,311.1 354.6,338 333.7,355.6 306.3,355.6 285.4,338 280.6,311.1 294.3,287.4" fill="none" stroke="#27344d" stroke-width="0.7"/><polygon points="320,238 371.4,256.7 398.8,304.1 389.3,358 347.4,393.2 292.6,393.2 250.7,358 241.2,304.1 268.6,256.7" fill="none" stroke="#27344d" stroke-width="0.7"/><polygon points="320,198 397.1,226.1 438.2,297.2 423.9,378 361,430.8 279,430.8 216.1,378 201.8,297.2 242.9,226.1" fill="none" stroke="#27344d" stroke-width="0.7"/><polygon points="320,158 422.8,195.4 477.6,290.2 458.6,398 374.7,468.4 265.3,468.4 181.4,398 162.4,290.2 217.2,195.4" fill="none" stroke="#27344d" stroke-width="0.7"/><polygon points="320,118 448.6,164.8 517,283.3 493.2,418 388.4,505.9 251.6,505.9 146.8,418 123,283.3 191.4,164.8" fill="none" stroke="#27344d" stroke-width="0.7"/><line x1="320" y1="318" x2="320" y2="118" stroke="#27344d" stroke-width="0.7"/><text x="320" y="80" fill="#cbd5e1" font-size="10" text-anchor="middle">Reproduction</text><line x1="320" y1="318" x2="448.6" y2="164.8" stroke="#27344d" stroke-width="0.7"/><text x="473" y="135.7" fill="#cbd5e1" font-size="10" text-anchor="start">Open-endedness</text><line x1="320" y1="318" x2="517" y2="283.3" stroke="#27344d" stroke-width="0.7"/><text x="554.4" y="276.7" fill="#cbd5e1" font-size="10" text-anchor="start">Ecology</text><line x1="320" y1="318" x2="493.2" y2="418" stroke="#27344d" stroke-width="0.7"/><text x="526.1" y="437" fill="#cbd5e1" font-size="10" text-anchor="start">Morphology/Physics</text><line x1="320" y1="318" x2="388.4" y2="505.9" stroke="#27344d" stroke-width="0.7"/><text x="401.4" y="541.6" fill="#cbd5e1" font-size="10" text-anchor="start">Cognition/Learning</text><line x1="320" y1="318" x2="251.6" y2="505.9" stroke="#27344d" stroke-width="0.7"/><text x="238.6" y="541.6" fill="#cbd5e1" font-size="10" text-anchor="end">Substrate pluralism</text><line x1="320" y1="318" x2="146.8" y2="418" stroke="#27344d" stroke-width="0.7"/><text x="113.9" y="437" fill="#cbd5e1" font-size="10" text-anchor="end">Instrumentation</text><line x1="320" y1="318" x2="123" y2="283.3" stroke="#27344d" stroke-width="0.7"/><text x="85.6" y="276.7" fill="#cbd5e1" font-size="10" text-anchor="end">Consciousness-theory</text><line x1="320" y1="318" x2="191.4" y2="164.8" stroke="#27344d" stroke-width="0.7"/><text x="167" y="135.7" fill="#cbd5e1" font-size="10" text-anchor="end">Visual scale</text><polygon points="320,158 422.8,195.4 477.6,290.2 493.2,418 361,430.8 279,430.8 216.1,378 300.3,314.5 191.4,164.8" fill="#34d399" fill-opacity="0.10" stroke="#34d399" stroke-width="1.4"/><polygon points="320,212.8 387.4,237.7 406.7,302.7 400.7,364.6 346,389.4 304.8,359.7 211.2,380.8 318,317.7 244.9,228.5" fill="#a78bfa" fill-opacity="0.12" stroke="#a78bfa" stroke-width="1.4"/><polygon points="320,158 381.7,244.5 446.1,295.8 451.6,394 378.8,479.6 258.4,487.1 171,404 182.1,293.7 217.2,195.4" fill="#f59e0b" fill-opacity="0.22" stroke="#f59e0b" stroke-width="2.2"/>
</svg>