<svg xmlns="http://www.w3.org/2000/svg" viewBox="0 0 760 600" font-family="ui-sans-serif,system-ui,Segoe UI,Roboto,sans-serif" role="img" aria-label="PCA projection">
<rect width="760" height="600" rx="14" fill="#0b1220"/>
<text x="28" y="30" fill="#cbd5e1" font-size="18" font-weight="700">PCA of 113 A-Life systems (9-axis correlation-matrix eigenbasis)</text><text x="28" y="50" fill="#7c8aa5" font-size="12">PC1 25.3% var · PC2 21.6% var · together 47.0%. amber = this repo.</text><line x1="171.21165526255092" y1="70" x2="171.21165526255092" y2="540" stroke="#27344d" stroke-width="0.8"/><line x1="60" y1="317.9036108624291" x2="730" y2="317.9036108624291" stroke="#27344d" stroke-width="0.8"/><text x="730" y="544" fill="#7c8aa5" font-size="11" text-anchor="end">PC1 (generalist breadth →)</text><text x="54" y="62" fill="#7c8aa5" font-size="11">PC2</text><circle cx="730" cy="163.76156371232463" r="8" fill="#f59e0b"/><circle cx="730" cy="163.76156371232463" r="13" fill="none" stroke="#f59e0b" stroke-width="1.4" opacity="0.6"/><text x="718" y="151.76156371232463" fill="#f59e0b" font-size="11" font-weight="700" text-anchor="end">COSMOGONIC</text><circle cx="138.39932344122394" cy="311.101163831692" r="4.5" fill="#38bdf8" opacity="0.85"/><text x="145.39932344122394" y="325.101163831692" fill="#7c8aa5" font-size="9">Game of Life</text><circle cx="119.03129084339201" cy="227.36794986571175" r="4.5" fill="#38bdf8" opacity="0.85"/><text x="126.03129084339201" y="219.36794986571175" fill="#7c8aa5" font-size="9">Boids</text><circle cx="127.47904974244636" cy="249.5986272754402" r="4.5" fill="#38bdf8" opacity="0.85"/><text x="134.47904974244636" y="263.5986272754402" fill="#7c8aa5" font-size="9">Biomorphs</text><circle cx="121.40078419312675" cy="429.1271262309758" r="4.5" fill="#38bdf8" opacity="0.85"/><text x="128.40078419312675" y="421.1271262309758" fill="#7c8aa5" font-size="9">Core War</text><circle cx="129.2304143922503" cy="460.68487018800363" r="4.5" fill="#38bdf8" opacity="0.85"/><text x="136.2304143922503" y="474.68487018800363" fill="#7c8aa5" font-size="9">Tierra</text><circle cx="156.53109863919428" cy="465.73410922112805" r="4.5" fill="#38bdf8" opacity="0.85"/><text x="163.53109863919428" y="457.73410922112805" fill="#7c8aa5" font-size="9">Avida</text><circle cx="247.18997462904588" cy="362.08445240226797" r="4.5" fill="#38bdf8" opacity="0.85"/><text x="254.18997462904588" y="376.08445240226797" fill="#7c8aa5" font-size="9">Polyworld</text><circle cx="272.0696548012608" cy="337.60966875559535" r="4.5" fill="#38bdf8" opacity="0.85"/><text x="279.0696548012608" y="329.60966875559535" fill="#7c8aa5" font-size="9">Framsticks</text><circle cx="226.4311524563696" cy="263.6944195762459" r="4.5" fill="#38bdf8" opacity="0.85"/><text x="233.4311524563696" y="277.6944195762459" fill="#7c8aa5" font-size="9">Karl Sims VC</text><circle cx="371.9489505650803" cy="273.7928976424948" r="4.5" fill="#38bdf8" opacity="0.85"/><text x="378.9489505650803" y="265.7928976424948" fill="#7c8aa5" font-size="9">Creatures</text><circle cx="191.6099023602675" cy="296.7248582512683" r="4.5" fill="#38bdf8" opacity="0.85"/><text x="198.6099023602675" y="310.7248582512683" fill="#7c8aa5" font-size="9">Darwin Pond</text><circle cx="209.6386561082494" cy="299.9507609668756" r="4.5" fill="#38bdf8" opacity="0.85"/><text x="216.6386561082494" y="291.9507609668756" fill="#7c8aa5" font-size="9">Gene Pool</text><circle cx="163.22749288844466" cy="418.04685168606386" r="4.5" fill="#38bdf8" opacity="0.85"/><text x="170.22749288844466" y="432.04685168606386" fill="#7c8aa5" font-size="9">Sugarscape</text><circle cx="147.10463596524949" cy="435.3685467024769" r="4.5" fill="#38bdf8" opacity="0.85"/><text x="154.10463596524949" y="427.3685467024769" fill="#7c8aa5" font-size="9">Echo</text><circle cx="153.59498731452294" cy="391.11757684273357" r="4.5" fill="#38bdf8" opacity="0.85"/><text x="160.59498731452294" y="405.11757684273357" fill="#7c8aa5" font-size="9">Swarm</text><circle cx="207.47520565849155" cy="273.5123843628768" r="4.5" fill="#38bdf8" opacity="0.85"/><text x="214.47520565849155" y="265.5123843628768" fill="#7c8aa5" font-size="9">breve</text><circle cx="222.1557622818482" cy="310.680393912265" r="4.5" fill="#38bdf8" opacity="0.85"/><text x="229.1557622818482" y="324.680393912265" fill="#7c8aa5" font-size="9">Picbreeder</text><circle cx="197.63665718459288" cy="465.5237242614145" r="4.5" fill="#38bdf8" opacity="0.85"/><text x="204.63665718459288" y="457.5237242614145" fill="#7c8aa5" font-size="9">MABE</text><circle cx="161.01253171369262" cy="182.69621008654133" r="4.5" fill="#38bdf8" opacity="0.85"/><text x="168.01253171369262" y="196.69621008654133" fill="#7c8aa5" font-size="9">Lenia</text><circle cx="204.38456215883753" cy="216.7084452402268" r="4.5" fill="#38bdf8" opacity="0.85"/><text x="211.38456215883753" y="208.7084452402268" fill="#7c8aa5" font-size="9">Growing NCA</text><circle cx="389.4110863381256" cy="152.5410325276037" r="4.5" fill="#38bdf8" opacity="0.85"/><text x="396.4110863381256" y="166.5410325276037" fill="#7c8aa5" font-size="9">OpenWorm</text><circle cx="195.4732067348351" cy="442.170993733214" r="4.5" fill="#38bdf8" opacity="0.85"/><text x="202.4732067348351" y="434.170993733214" fill="#7c8aa5" font-size="9">POET</text><circle cx="205.26024448373948" cy="317.13219934347956" r="4.5" fill="#38bdf8" opacity="0.85"/><text x="212.26024448373948" y="331.13219934347956" fill="#7c8aa5" font-size="9">EvoGym</text><circle cx="409.29422618589984" cy="229.82244106236942" r="4.5" fill="#38bdf8" opacity="0.85"/><text x="416.29422618589984" y="221.82244106236942" fill="#7c8aa5" font-size="9">ALIEN</text><circle cx="274.2846159760129" cy="324.6359295732617" r="4.5" fill="#38bdf8" opacity="0.85"/><text x="281.2846159760129" y="338.6359295732617" fill="#7c8aa5" font-size="9">ASAL</text><circle cx="60" cy="237.39629961205617" r="4.5" fill="#38bdf8" opacity="0.85"/><text x="67" y="229.39629961205617" fill="#7c8aa5" font-size="9">Wireworld</text><circle cx="60" cy="237.39629961205617" r="4.5" fill="#38bdf8" opacity="0.85"/><text x="67" y="251.39629961205617" fill="#7c8aa5" font-size="9">Langton's Ant</text><circle cx="91.98816022141922" cy="269.1644285287974" r="4.5" fill="#38bdf8" opacity="0.85"/><text x="98.98816022141922" y="261.1644285287974" fill="#7c8aa5" font-size="9">Langton's Loops</text><circle cx="79.88313984777426" cy="296.3040883318413" r="4.5" fill="#38bdf8" opacity="0.85"/><text x="86.88313984777426" y="310.3040883318413" fill="#7c8aa5" font-size="9">von Neumann Universal Constructor</text><circle cx="60" cy="237.39629961205617" r="4.5" fill="#38bdf8" opacity="0.85"/><text x="67" y="229.39629961205617" fill="#7c8aa5" font-size="9">Rule 110</text><circle cx="124.38840624279233" cy="178.3482542524619" r="4.5" fill="#38bdf8" opacity="0.85"/><text x="131.3884062427923" y="192.3482542524619" fill="#7c8aa5" font-size="9">SmoothLife</text><circle cx="124.38840624279233" cy="178.3482542524619" r="4.5" fill="#38bdf8" opacity="0.85"/><text x="131.3884062427923" y="170.3482542524619" fill="#7c8aa5" font-size="9">Larger than Life</text><circle cx="194.23694933497345" cy="245.74156968069235" r="4.5" fill="#38bdf8" opacity="0.85"/><text x="201.23694933497345" y="259.74156968069235" fill="#7c8aa5" font-size="9">Flow Lenia</text><circle cx="154.4706696394249" cy="200.22829006266784" r="4.5" fill="#38bdf8" opacity="0.85"/><text x="161.4706696394249" y="192.22829006266784" fill="#7c8aa5" font-size="9">Particle Lenia</text><circle cx="150.45283308987467" cy="240.7624589674724" r="4.5" fill="#38bdf8" opacity="0.85"/><text x="157.45283308987467" y="254.7624589674724" fill="#7c8aa5" font-size="9">Primordial Particle Systems</text><circle cx="124.54293841777502" cy="178.27812593255743" r="4.5" fill="#38bdf8" opacity="0.85"/><text x="131.54293841777502" y="170.27812593255743" fill="#7c8aa5" font-size="9">Gray-Scott Reaction-Diffusion</text><circle cx="128.4577535173368" cy="417.4156968069233" r="4.5" fill="#38bdf8" opacity="0.85"/><text x="135.4577535173368" y="431.4156968069233" fill="#7c8aa5" font-size="9">Aevol</text><circle cx="152.8223264396094" cy="419.09877648463146" r="4.5" fill="#38bdf8" opacity="0.85"/><text x="159.8223264396094" y="411.09877648463146" fill="#7c8aa5" font-size="9">Avida-ED</text><circle cx="113.4166218190205" cy="372.7439570277529" r="4.5" fill="#38bdf8" opacity="0.85"/><text x="120.4166218190205" y="386.7439570277529" fill="#7c8aa5" font-size="9">Nanopond</text><circle cx="104.96886291996614" cy="353.7391823336318" r="4.5" fill="#38bdf8" opacity="0.85"/><text x="111.96886291996614" y="345.7391823336318" fill="#7c8aa5" font-size="9">Physis</text><circle cx="117.53747981855922" cy="382.4917934944793" r="4.5" fill="#38bdf8" opacity="0.85"/><text x="124.53747981855922" y="396.4917934944793" fill="#7c8aa5" font-size="9">Cosmos</text><circle cx="207.4236949334973" cy="508.16174276335425" r="4.5" fill="#38bdf8" opacity="0.85"/><text x="214.4236949334973" y="500.16174276335425" fill="#7c8aa5" font-size="9">Geb</text><circle cx="117.53747981855922" cy="382.4917934944793" r="4.5" fill="#38bdf8" opacity="0.85"/><text x="124.53747981855922" y="396.4917934944793" fill="#7c8aa5" font-size="9">Amoeba</text><circle cx="173.7871915122626" cy="346.0250671441361" r="4.5" fill="#38bdf8" opacity="0.85"/><text x="180.7871915122626" y="338.0250671441361" fill="#7c8aa5" font-size="9">Evolve 4.0</text><circle cx="143.4988852156531" cy="282.55893763055803" r="4.5" fill="#38bdf8" opacity="0.85"/><text x="150.4988852156531" y="296.55893763055803" fill="#7c8aa5" font-size="9">Squirm3</text><circle cx="126.03674944260781" cy="401.4965681886004" r="4.5" fill="#38bdf8" opacity="0.85"/><text x="133.0367494426078" y="393.4965681886004" fill="#7c8aa5" font-size="9">Network Tierra</text><circle cx="186.25278696086718" cy="361.24291256341394" r="4.5" fill="#38bdf8" opacity="0.85"/><text x="193.25278696086718" y="375.24291256341394" fill="#7c8aa5" font-size="9">biosim4</text><circle cx="181.20473591143227" cy="278.0707251566697" r="4.5" fill="#38bdf8" opacity="0.85"/><text x="188.20473591143227" y="270.0707251566697" fill="#7c8aa5" font-size="9">GOLEM (Genetically Organized Lifelike Electro Mechanics)</text><circle cx="141.6960098408549" cy="203.3139361384661" r="4.5" fill="#38bdf8" opacity="0.85"/><text x="148.6960098408549" y="217.3139361384661" fill="#7c8aa5" font-size="9">Voxelyze / VoxCAD</text><circle cx="205.31175520873373" cy="266.28916741271263" r="4.5" fill="#38bdf8" opacity="0.85"/><text x="212.31175520873373" y="258.28916741271263" fill="#7c8aa5" font-size="9">3D Virtual Creature Evolution (3DVCE)</text><circle cx="239.7724302298762" cy="377.23216950164135" r="4.5" fill="#38bdf8" opacity="0.85"/><text x="246.7724302298762" y="391.23216950164135" fill="#7c8aa5" font-size="9">DERL (Deep Evolutionary Reinforcement Learning)</text><circle cx="234.77588990543552" cy="362.50522232169504" r="4.5" fill="#38bdf8" opacity="0.85"/><text x="241.77588990543552" y="354.50522232169504" fill="#7c8aa5" font-size="9">UNIMAL (Universal Animal design space)</text><circle cx="189.85853771046357" cy="260.1880035810206" r="4.5" fill="#38bdf8" opacity="0.85"/><text x="196.85853771046357" y="274.1880035810206" fill="#7c8aa5" font-size="9">Evolving Soft Robots (Cheney / Unshackling Evolution)</text><circle cx="205.10571230875678" cy="317.2023276633841" r="4.5" fill="#38bdf8" opacity="0.85"/><text x="212.10571230875678" y="309.2023276633841" fill="#7c8aa5" font-size="9">RoboGrammar</text><circle cx="207.11463058353192" cy="382.6320501342883" r="4.5" fill="#38bdf8" opacity="0.85"/><text x="214.11463058353192" y="396.6320501342883" fill="#7c8aa5" font-size="9">Transform2Act</text><circle cx="164.10317521334665" cy="302.75589376305584" r="4.5" fill="#38bdf8" opacity="0.85"/><text x="171.10317521334665" y="294.75589376305584" fill="#7c8aa5" font-size="9">NerveNet</text><circle cx="208.35088798339353" cy="350.72366457773796" r="4.5" fill="#38bdf8" opacity="0.85"/><text x="215.35088798339353" y="364.72366457773796" fill="#7c8aa5" font-size="9">Neural Graph Evolution (NGE)</text><circle cx="165.54547551318518" cy="271.1280214861236" r="4.5" fill="#38bdf8" opacity="0.85"/><text x="172.54547551318518" y="263.1280214861236" fill="#7c8aa5" font-size="9">Krcah Evolved Virtual Creatures (ERO)</text><circle cx="175.5900668870608" cy="492.45299910474483" r="4.5" fill="#38bdf8" opacity="0.85"/><text x="182.5900668870608" y="506.45299910474483" fill="#7c8aa5" font-size="9">NEAT (NeuroEvolution of Augmenting Topologies)</text><circle cx="194.08241715999074" cy="447.78125932557447" r="4.5" fill="#38bdf8" opacity="0.85"/><text x="201.08241715999074" y="439.78125932557447" fill="#7c8aa5" font-size="9">HyperNEAT</text><circle cx="184.91350811101714" cy="423.30647567890185" r="4.5" fill="#38bdf8" opacity="0.85"/><text x="191.91350811101714" y="437.30647567890185" fill="#7c8aa5" font-size="9">ES-HyperNEAT</text><circle cx="186.25278696086718" cy="498.13339301700984" r="4.5" fill="#38bdf8" opacity="0.85"/><text x="193.25278696086718" y="490.13339301700984" fill="#7c8aa5" font-size="9">Novelty Search</text><circle cx="204.89966940877986" cy="453.53178155774395" r="4.5" fill="#38bdf8" opacity="0.85"/><text x="211.89966940877986" y="467.53178155774395" fill="#7c8aa5" font-size="9">MAP-Elites</text><circle cx="204.89966940877986" cy="453.53178155774395" r="4.5" fill="#38bdf8" opacity="0.85"/><text x="211.89966940877986" y="445.53178155774395" fill="#7c8aa5" font-size="9">Quality-Diversity (illumination algorithms)</text><circle cx="182.49250403628812" cy="357.5962399283796" r="4.5" fill="#38bdf8" opacity="0.85"/><text x="189.49250403628812" y="371.5962399283796" fill="#7c8aa5" font-size="9">Go-Explore</text><circle cx="195.4732067348351" cy="442.170993733214" r="4.5" fill="#38bdf8" opacity="0.85"/><text x="202.4732067348351" y="434.170993733214" fill="#7c8aa5" font-size="9">OMNI (Open-endedness via Models of human Notions of Interestingness)</text><circle cx="192.4855846851695" cy="450.79677708146824" r="4.5" fill="#38bdf8" opacity="0.85"/><text x="199.4855846851695" y="464.79677708146824" fill="#7c8aa5" font-size="9">Minimal Criterion Coevolution (MCC)</text><circle cx="183.57422926116703" cy="368.39600119367356" r="4.5" fill="#38bdf8" opacity="0.85"/><text x="190.57422926116703" y="360.39600119367356" fill="#7c8aa5" font-size="9">Innovation Engines</text><circle cx="173.22057353732606" cy="291.0444643390033" r="4.5" fill="#38bdf8" opacity="0.85"/><text x="180.22057353732606" y="305.0444643390033" fill="#7c8aa5" font-size="9">EndlessForms</text><circle cx="137.06004459137387" cy="313.2050134288272" r="4.5" fill="#38bdf8" opacity="0.85"/><text x="144.06004459137387" y="305.2050134288272" fill="#7c8aa5" font-size="9">NetLogo</text><circle cx="159.31267778888287" cy="315.2387347060579" r="4.5" fill="#38bdf8" opacity="0.85"/><text x="166.31267778888287" y="329.2387347060579" fill="#7c8aa5" font-size="9">MASON</text><circle cx="149.37110786499574" cy="328.49298716800956" r="4.5" fill="#38bdf8" opacity="0.85"/><text x="156.37110786499574" y="320.49298716800956" fill="#7c8aa5" font-size="9">Repast</text><circle cx="106.77173829476436" cy="291.32497761862135" r="4.5" fill="#38bdf8" opacity="0.85"/><text x="113.77173829476436" y="305.32497761862135" fill="#7c8aa5" font-size="9">StarLogo</text><circle cx="119.39186591835164" cy="320.07758877946884" r="4.5" fill="#38bdf8" opacity="0.85"/><text x="126.39186591835164" y="312.07758877946884" fill="#7c8aa5" font-size="9">Ascape</text><circle cx="167.8119474129315" cy="283.8913757087437" r="4.5" fill="#38bdf8" opacity="0.85"/><text x="174.8119474129315" y="297.8913757087437" fill="#7c8aa5" font-size="9">GAMA Platform</text><circle cx="137.06004459137387" cy="313.2050134288272" r="4.5" fill="#38bdf8" opacity="0.85"/><text x="144.06004459137387" y="305.2050134288272" fill="#7c8aa5" font-size="9">Mesa</text><circle cx="117.58899054355345" cy="189.98955535661003" r="4.5" fill="#38bdf8" opacity="0.85"/><text x="124.58899054355345" y="203.98955535661003" fill="#7c8aa5" font-size="9">OpenSteer</text><circle cx="99.61174752056584" cy="290.76395105938525" r="4.5" fill="#38bdf8" opacity="0.85"/><text x="106.61174752056584" y="282.76395105938525" fill="#7c8aa5" font-size="9">Artificial Anasazi</text><circle cx="80.44975782271084" cy="236.83527305282013" r="4.5" fill="#38bdf8" opacity="0.85"/><text x="87.44975782271084" y="250.83527305282013" fill="#7c8aa5" font-size="9">Schelling Segregation Model</text><circle cx="107.90497424463749" cy="351.8457176962101" r="4.5" fill="#38bdf8" opacity="0.85"/><text x="114.90497424463749" y="343.8457176962101" fill="#7c8aa5" font-size="9">El Farol Bar Problem</text><circle cx="149.42261858998998" cy="128.7675320799761" r="4.5" fill="#38bdf8" opacity="0.85"/><text x="156.42261858998998" y="142.7675320799761" fill="#7c8aa5" font-size="9">Spore</text><circle cx="120.11301606827092" cy="325.0566994926887" r="4.5" fill="#38bdf8" opacity="0.85"/><text x="127.11301606827092" y="317.0566994926887" fill="#7c8aa5" font-size="9">SimLife: The Genetic Playground</text><circle cx="94.30614284615973" cy="276.037003879439" r="4.5" fill="#38bdf8" opacity="0.85"/><text x="101.30614284615973" y="290.037003879439" fill="#7c8aa5" font-size="9">SimEarth: The Living Planet</text><circle cx="101.05404782040438" cy="271.1280214861236" r="4.5" fill="#38bdf8" opacity="0.85"/><text x="108.05404782040438" y="263.1280214861236" fill="#7c8aa5" font-size="9">SimAnt: The Electric Ant Colony</text><circle cx="157.61282386407316" cy="241.3234855267084" r="4.5" fill="#38bdf8" opacity="0.85"/><text x="164.61282386407316" y="255.3234855267084" fill="#7c8aa5" font-size="9">Thrive</text><circle cx="156.2735450142231" cy="217.69024171888987" r="4.5" fill="#38bdf8" opacity="0.85"/><text x="163.2735450142231" y="209.69024171888987" fill="#7c8aa5" font-size="9">Cell Lab: Evolution Sandbox</text><circle cx="192.53709541016374" cy="314.8179647866309" r="4.5" fill="#38bdf8" opacity="0.85"/><text x="199.53709541016374" y="328.8179647866309" fill="#7c8aa5" font-size="9">Species: Artificial Life, Real Evolution</text><circle cx="198.7183824094718" cy="389.99552372426143" r="4.5" fill="#38bdf8" opacity="0.85"/><text x="205.7183824094718" y="381.99552372426143" fill="#7c8aa5" font-size="9">The Bibites</text><circle cx="98.42700084569846" cy="166.21605490898236" r="4.5" fill="#38bdf8" opacity="0.85"/><text x="105.42700084569846" y="180.21605490898236" fill="#7c8aa5" font-size="9">The Powder Toy</text><circle cx="119.64941954332281" cy="70" r="4.5" fill="#38bdf8" opacity="0.85"/><text x="126.64941954332281" y="62" fill="#7c8aa5" font-size="9">Noita</text><circle cx="126.86092104251556" cy="313.4153983885408" r="4.5" fill="#38bdf8" opacity="0.85"/><text x="133.86092104251554" y="327.4153983885408" fill="#7c8aa5" font-size="9">The Life Engine</text><circle cx="112.12885369416466" cy="125.33124440465531" r="4.5" fill="#38bdf8" opacity="0.85"/><text x="119.12885369416466" y="117.33124440465531" fill="#7c8aa5" font-size="9">Clusters (Particle Life)</text><circle cx="118.82524794341506" cy="107.72903610862431" r="4.5" fill="#38bdf8" opacity="0.85"/><text x="125.82524794341506" y="121.72903610862431" fill="#7c8aa5" font-size="9">Sandspiel</text><circle cx="162.0427462135773" cy="250.51029543419872" r="4.5" fill="#38bdf8" opacity="0.85"/><text x="169.0427462135773" y="242.51029543419872" fill="#7c8aa5" font-size="9">Sebastian Lague Ecosystem</text><circle cx="129.5394787422157" cy="162.9200238734706" r="4.5" fill="#38bdf8" opacity="0.85"/><text x="136.5394787422157" y="176.9200238734706" fill="#7c8aa5" font-size="9">Pezzza's Ant Colony Simulation</text><circle cx="148.64995771507648" cy="259.55684870188" r="4.5" fill="#38bdf8" opacity="0.85"/><text x="155.64995771507648" y="251.55684870188003" fill="#7c8aa5" font-size="9">Primer Evolution Simulations</text><circle cx="196.2973783347428" cy="241.81438376604" r="4.5" fill="#38bdf8" opacity="0.85"/><text x="203.2973783347428" y="255.81438376604" fill="#7c8aa5" font-size="9">Keiwan Evolution</text><circle cx="215.51087875759202" cy="256.4712026260818" r="4.5" fill="#38bdf8" opacity="0.85"/><text x="222.51087875759202" y="248.47120262608178" fill="#7c8aa5" font-size="9">DevoWorm</text><circle cx="128.35473206734832" cy="224.91345866905402" r="4.5" fill="#38bdf8" opacity="0.85"/><text x="135.35473206734832" y="238.91345866905402" fill="#7c8aa5" font-size="9">Morphozoic</text><circle cx="174.61136311217035" cy="364.95971351835277" r="4.5" fill="#38bdf8" opacity="0.85"/><text x="181.61136311217035" y="356.95971351835277" fill="#7c8aa5" font-size="9">Chromaria</text><circle cx="202.89075113400474" cy="343.9212175470009" r="4.5" fill="#38bdf8" opacity="0.85"/><text x="209.89075113400474" y="357.9212175470009" fill="#7c8aa5" font-size="9">Division Blocks</text><circle cx="189.96155916045203" cy="371.62190390928083" r="4.5" fill="#38bdf8" opacity="0.85"/><text x="196.96155916045203" y="363.62190390928083" fill="#7c8aa5" font-size="9">Voyager (Minecraft LLM agent)</text><circle cx="168.84216191281615" cy="344.4121157863325" r="4.5" fill="#38bdf8" opacity="0.85"/><text x="175.84216191281615" y="358.4121157863325" fill="#7c8aa5" font-size="9">Generative Agents (Smallville)</text><circle cx="212.00814945798413" cy="411.3846612951358" r="4.5" fill="#38bdf8" opacity="0.85"/><text x="219.00814945798413" y="403.3846612951358" fill="#7c8aa5" font-size="9">OMNI-EPIC</text><circle cx="174.45683093718765" cy="258.43479558340795" r="4.5" fill="#38bdf8" opacity="0.85"/><text x="181.45683093718765" y="272.43479558340795" fill="#7c8aa5" font-size="9">Genie (Generative Interactive Environments)</text><circle cx="196.55493195971397" cy="391.25783348254254" r="4.5" fill="#38bdf8" opacity="0.85"/><text x="203.55493195971397" y="383.25783348254254" fill="#7c8aa5" font-size="9">Evolution through Large Models (ELM)</text><circle cx="172.24186976243558" cy="458.93166219039097" r="4.5" fill="#38bdf8" opacity="0.85"/><text x="179.24186976243558" y="472.93166219039097" fill="#7c8aa5" font-size="9">OpenELM</text><circle cx="164.61828246328898" cy="500.7982691733811" r="4.5" fill="#38bdf8" opacity="0.85"/><text x="171.61828246328898" y="492.7982691733811" fill="#7c8aa5" font-size="9">Automated Design of Agentic Systems (ADAS)</text><circle cx="163.07296071346195" cy="439.9970158161743" r="4.5" fill="#38bdf8" opacity="0.85"/><text x="170.07296071346195" y="453.9970158161743" fill="#7c8aa5" font-size="9">The AI Scientist</text><circle cx="178.62919966172058" cy="540" r="4.5" fill="#38bdf8" opacity="0.85"/><text x="185.62919966172058" y="532" fill="#7c8aa5" font-size="9">Darwin Godel Machine (DGM)</text><circle cx="121.65833781809793" cy="407.73798866010145" r="4.5" fill="#38bdf8" opacity="0.85"/><text x="128.65833781809795" y="421.73798866010145" fill="#7c8aa5" font-size="9">Promptbreeder</text><circle cx="130.67271469208885" cy="432.2127723067741" r="4.5" fill="#38bdf8" opacity="0.85"/><text x="137.67271469208885" y="424.2127723067741" fill="#7c8aa5" font-size="9">Quality-Diversity through AI Feedback (QDAIF)</text>
</svg>