<svg xmlns="http://www.w3.org/2000/svg" viewBox="0 0 584 584" font-family="ui-sans-serif,system-ui,Segoe UI,Roboto,sans-serif" role="img" aria-label="Axis correlation">
<rect width="584" height="584" rx="14" fill="#0b1220"/>
<text x="28" y="30" fill="#cbd5e1" font-size="18" font-weight="700">Axis co-occurrence correlation (which capabilities travel together)</text><text x="28" y="50" fill="#7c8aa5" font-size="12">Pearson r across all rows. cyan = co-occur · red = trade off · slate = independent.</text><text x="142" y="176" fill="#cbd5e1" font-size="9" text-anchor="end">Reproduction</text><text x="173" y="142" fill="#7c8aa5" font-size="9" transform="rotate(-55 173 142)">Reproduction</text><text x="142" y="222" fill="#cbd5e1" font-size="9" text-anchor="end">Open-endedness</text><text x="219" y="142" fill="#7c8aa5" font-size="9" transform="rotate(-55 219 142)">Open-endedness</text><text x="142" y="268" fill="#cbd5e1" font-size="9" text-anchor="end">Ecology</text><text x="265" y="142" fill="#7c8aa5" font-size="9" transform="rotate(-55 265 142)">Ecology</text><text x="142" y="314" fill="#cbd5e1" font-size="9" text-anchor="end">Morphology/Physics</text><text x="311" y="142" fill="#7c8aa5" font-size="9" transform="rotate(-55 311 142)">Morphology/Physics</text><text x="142" y="360" fill="#cbd5e1" font-size="9" text-anchor="end">Cognition/Learning</text><text x="357" y="142" fill="#7c8aa5" font-size="9" transform="rotate(-55 357 142)">Cognition/Learning</text><text x="142" y="406" fill="#cbd5e1" font-size="9" text-anchor="end">Substrate pluralism</text><text x="403" y="142" fill="#7c8aa5" font-size="9" transform="rotate(-55 403 142)">Substrate pluralism</text><text x="142" y="452" fill="#cbd5e1" font-size="9" text-anchor="end">Instrumentation</text><text x="449" y="142" fill="#7c8aa5" font-size="9" transform="rotate(-55 449 142)">Instrumentation</text><text x="142" y="498" fill="#cbd5e1" font-size="9" text-anchor="end">Consciousness-theory</text><text x="495" y="142" fill="#7c8aa5" font-size="9" transform="rotate(-55 495 142)">Consciousness-theory</text><text x="142" y="544" fill="#cbd5e1" font-size="9" text-anchor="end">Visual scale</text><text x="541" y="142" fill="#7c8aa5" font-size="9" transform="rotate(-55 541 142)">Visual scale</text><rect x="150" y="150" width="45" height="45" fill="rgb(34,211,238)"/><text x="173" y="176" fill="#0b1220" font-size="9" text-anchor="middle">1.00</text><rect x="196" y="150" width="45" height="45" fill="rgb(44,166,197)"/><text x="219" y="176" fill="#0b1220" font-size="9" text-anchor="middle">0.52</text><rect x="242" y="150" width="45" height="45" fill="rgb(53,131,166)"/><text x="265" y="176" fill="#9fb3d1" font-size="9" text-anchor="middle">0.16</text><rect x="288" y="150" width="45" height="45" fill="rgb(56,116,153)"/><text x="311" y="176" fill="#9fb3d1" font-size="9" text-anchor="middle">-0.00</text><rect x="334" y="150" width="45" height="45" fill="rgb(55,121,158)"/><text x="357" y="176" fill="#9fb3d1" font-size="9" text-anchor="middle">0.05</text><rect x="380" y="150" width="45" height="45" fill="rgb(56,117,154)"/><text x="403" y="176" fill="#9fb3d1" font-size="9" text-anchor="middle">0.01</text><rect x="426" y="150" width="45" height="45" fill="rgb(65,116,151)"/><text x="449" y="176" fill="#9fb3d1" font-size="9" text-anchor="middle">-0.04</text><rect x="472" y="150" width="45" height="45" fill="rgb(82,116,148)"/><text x="495" y="176" fill="#9fb3d1" font-size="9" text-anchor="middle">-0.14</text><rect x="518" y="150" width="45" height="45" fill="rgb(72,116,150)"/><text x="541" y="176" fill="#9fb3d1" font-size="9" text-anchor="middle">-0.09</text><rect x="150" y="196" width="45" height="45" fill="rgb(44,166,197)"/><text x="173" y="222" fill="#0b1220" font-size="9" text-anchor="middle">0.52</text><rect x="196" y="196" width="45" height="45" fill="rgb(34,211,238)"/><text x="219" y="222" fill="#0b1220" font-size="9" text-anchor="middle">1.00</text><rect x="242" y="196" width="45" height="45" fill="rgb(53,128,163)"/><text x="265" y="222" fill="#9fb3d1" font-size="9" text-anchor="middle">0.12</text><rect x="288" y="196" width="45" height="45" fill="rgb(55,121,157)"/><text x="311" y="222" fill="#9fb3d1" font-size="9" text-anchor="middle">0.05</text><rect x="334" y="196" width="45" height="45" fill="rgb(47,154,187)"/><text x="357" y="222" fill="#9fb3d1" font-size="9" text-anchor="middle">0.40</text><rect x="380" y="196" width="45" height="45" fill="rgb(58,116,153)"/><text x="403" y="222" fill="#9fb3d1" font-size="9" text-anchor="middle">-0.01</text><rect x="426" y="196" width="45" height="45" fill="rgb(52,133,168)"/><text x="449" y="222" fill="#9fb3d1" font-size="9" text-anchor="middle">0.18</text><rect x="472" y="196" width="45" height="45" fill="rgb(92,115,146)"/><text x="495" y="222" fill="#9fb3d1" font-size="9" text-anchor="middle">-0.19</text><rect x="518" y="196" width="45" height="45" fill="rgb(60,116,152)"/><text x="541" y="222" fill="#9fb3d1" font-size="9" text-anchor="middle">-0.02</text><rect x="150" y="242" width="45" height="45" fill="rgb(53,131,166)"/><text x="173" y="268" fill="#9fb3d1" font-size="9" text-anchor="middle">0.16</text><rect x="196" y="242" width="45" height="45" fill="rgb(53,128,163)"/><text x="219" y="268" fill="#9fb3d1" font-size="9" text-anchor="middle">0.12</text><rect x="242" y="242" width="45" height="45" fill="rgb(34,211,238)"/><text x="265" y="268" fill="#0b1220" font-size="9" text-anchor="middle">1.00</text><rect x="288" y="242" width="45" height="45" fill="rgb(91,115,146)"/><text x="311" y="268" fill="#9fb3d1" font-size="9" text-anchor="middle">-0.18</text><rect x="334" y="242" width="45" height="45" fill="rgb(64,116,151)"/><text x="357" y="268" fill="#9fb3d1" font-size="9" text-anchor="middle">-0.04</text><rect x="380" y="242" width="45" height="45" fill="rgb(53,128,164)"/><text x="403" y="268" fill="#9fb3d1" font-size="9" text-anchor="middle">0.13</text><rect x="426" y="242" width="45" height="45" fill="rgb(52,135,170)"/><text x="449" y="268" fill="#9fb3d1" font-size="9" text-anchor="middle">0.20</text><rect x="472" y="242" width="45" height="45" fill="rgb(72,116,150)"/><text x="495" y="268" fill="#9fb3d1" font-size="9" text-anchor="middle">-0.08</text><rect x="518" y="242" width="45" height="45" fill="rgb(53,129,164)"/><text x="541" y="268" fill="#9fb3d1" font-size="9" text-anchor="middle">0.13</text><rect x="150" y="288" width="45" height="45" fill="rgb(56,116,153)"/><text x="173" y="314" fill="#9fb3d1" font-size="9" text-anchor="middle">-0.00</text><rect x="196" y="288" width="45" height="45" fill="rgb(55,121,157)"/><text x="219" y="314" fill="#9fb3d1" font-size="9" text-anchor="middle">0.05</text><rect x="242" y="288" width="45" height="45" fill="rgb(91,115,146)"/><text x="265" y="314" fill="#9fb3d1" font-size="9" text-anchor="middle">-0.18</text><rect x="288" y="288" width="45" height="45" fill="rgb(34,211,238)"/><text x="311" y="314" fill="#0b1220" font-size="9" text-anchor="middle">1.00</text><rect x="334" y="288" width="45" height="45" fill="rgb(52,133,168)"/><text x="357" y="314" fill="#9fb3d1" font-size="9" text-anchor="middle">0.17</text><rect x="380" y="288" width="45" height="45" fill="rgb(50,140,174)"/><text x="403" y="314" fill="#9fb3d1" font-size="9" text-anchor="middle">0.25</text><rect x="426" y="288" width="45" height="45" fill="rgb(58,116,153)"/><text x="449" y="314" fill="#9fb3d1" font-size="9" text-anchor="middle">-0.01</text><rect x="472" y="288" width="45" height="45" fill="rgb(65,116,151)"/><text x="495" y="314" fill="#9fb3d1" font-size="9" text-anchor="middle">-0.05</text><rect x="518" y="288" width="45" height="45" fill="rgb(43,174,205)"/><text x="541" y="314" fill="#0b1220" font-size="9" text-anchor="middle">0.61</text><rect x="150" y="334" width="45" height="45" fill="rgb(55,121,158)"/><text x="173" y="360" fill="#9fb3d1" font-size="9" text-anchor="middle">0.05</text><rect x="196" y="334" width="45" height="45" fill="rgb(47,154,187)"/><text x="219" y="360" fill="#9fb3d1" font-size="9" text-anchor="middle">0.40</text><rect x="242" y="334" width="45" height="45" fill="rgb(64,116,151)"/><text x="265" y="360" fill="#9fb3d1" font-size="9" text-anchor="middle">-0.04</text><rect x="288" y="334" width="45" height="45" fill="rgb(52,133,168)"/><text x="311" y="360" fill="#9fb3d1" font-size="9" text-anchor="middle">0.17</text><rect x="334" y="334" width="45" height="45" fill="rgb(34,211,238)"/><text x="357" y="360" fill="#0b1220" font-size="9" text-anchor="middle">1.00</text><rect x="380" y="334" width="45" height="45" fill="rgb(51,136,171)"/><text x="403" y="360" fill="#9fb3d1" font-size="9" text-anchor="middle">0.21</text><rect x="426" y="334" width="45" height="45" fill="rgb(48,152,185)"/><text x="449" y="360" fill="#9fb3d1" font-size="9" text-anchor="middle">0.38</text><rect x="472" y="334" width="45" height="45" fill="rgb(51,136,171)"/><text x="495" y="360" fill="#9fb3d1" font-size="9" text-anchor="middle">0.21</text><rect x="518" y="334" width="45" height="45" fill="rgb(90,115,146)"/><text x="541" y="360" fill="#9fb3d1" font-size="9" text-anchor="middle">-0.17</text><rect x="150" y="380" width="45" height="45" fill="rgb(56,117,154)"/><text x="173" y="406" fill="#9fb3d1" font-size="9" text-anchor="middle">0.01</text><rect x="196" y="380" width="45" height="45" fill="rgb(58,116,153)"/><text x="219" y="406" fill="#9fb3d1" font-size="9" text-anchor="middle">-0.01</text><rect x="242" y="380" width="45" height="45" fill="rgb(53,128,164)"/><text x="265" y="406" fill="#9fb3d1" font-size="9" text-anchor="middle">0.13</text><rect x="288" y="380" width="45" height="45" fill="rgb(50,140,174)"/><text x="311" y="406" fill="#9fb3d1" font-size="9" text-anchor="middle">0.25</text><rect x="334" y="380" width="45" height="45" fill="rgb(51,136,171)"/><text x="357" y="406" fill="#9fb3d1" font-size="9" text-anchor="middle">0.21</text><rect x="380" y="380" width="45" height="45" fill="rgb(34,211,238)"/><text x="403" y="406" fill="#0b1220" font-size="9" text-anchor="middle">1.00</text><rect x="426" y="380" width="45" height="45" fill="rgb(53,131,166)"/><text x="449" y="406" fill="#9fb3d1" font-size="9" text-anchor="middle">0.15</text><rect x="472" y="380" width="45" height="45" fill="rgb(48,152,186)"/><text x="495" y="406" fill="#9fb3d1" font-size="9" text-anchor="middle">0.38</text><rect x="518" y="380" width="45" height="45" fill="rgb(52,135,170)"/><text x="541" y="406" fill="#9fb3d1" font-size="9" text-anchor="middle">0.20</text><rect x="150" y="426" width="45" height="45" fill="rgb(65,116,151)"/><text x="173" y="452" fill="#9fb3d1" font-size="9" text-anchor="middle">-0.04</text><rect x="196" y="426" width="45" height="45" fill="rgb(52,133,168)"/><text x="219" y="452" fill="#9fb3d1" font-size="9" text-anchor="middle">0.18</text><rect x="242" y="426" width="45" height="45" fill="rgb(52,135,170)"/><text x="265" y="452" fill="#9fb3d1" font-size="9" text-anchor="middle">0.20</text><rect x="288" y="426" width="45" height="45" fill="rgb(58,116,153)"/><text x="311" y="452" fill="#9fb3d1" font-size="9" text-anchor="middle">-0.01</text><rect x="334" y="426" width="45" height="45" fill="rgb(48,152,185)"/><text x="357" y="452" fill="#9fb3d1" font-size="9" text-anchor="middle">0.38</text><rect x="380" y="426" width="45" height="45" fill="rgb(53,131,166)"/><text x="403" y="452" fill="#9fb3d1" font-size="9" text-anchor="middle">0.15</text><rect x="426" y="426" width="45" height="45" fill="rgb(34,211,238)"/><text x="449" y="452" fill="#0b1220" font-size="9" text-anchor="middle">1.00</text><rect x="472" y="426" width="45" height="45" fill="rgb(70,116,150)"/><text x="495" y="452" fill="#9fb3d1" font-size="9" text-anchor="middle">-0.07</text><rect x="518" y="426" width="45" height="45" fill="rgb(95,115,145)"/><text x="541" y="452" fill="#9fb3d1" font-size="9" text-anchor="middle">-0.20</text><rect x="150" y="472" width="45" height="45" fill="rgb(82,116,148)"/><text x="173" y="498" fill="#9fb3d1" font-size="9" text-anchor="middle">-0.14</text><rect x="196" y="472" width="45" height="45" fill="rgb(92,115,146)"/><text x="219" y="498" fill="#9fb3d1" font-size="9" text-anchor="middle">-0.19</text><rect x="242" y="472" width="45" height="45" fill="rgb(72,116,150)"/><text x="265" y="498" fill="#9fb3d1" font-size="9" text-anchor="middle">-0.08</text><rect x="288" y="472" width="45" height="45" fill="rgb(65,116,151)"/><text x="311" y="498" fill="#9fb3d1" font-size="9" text-anchor="middle">-0.05</text><rect x="334" y="472" width="45" height="45" fill="rgb(51,136,171)"/><text x="357" y="498" fill="#9fb3d1" font-size="9" text-anchor="middle">0.21</text><rect x="380" y="472" width="45" height="45" fill="rgb(48,152,186)"/><text x="403" y="498" fill="#9fb3d1" font-size="9" text-anchor="middle">0.38</text><rect x="426" y="472" width="45" height="45" fill="rgb(70,116,150)"/><text x="449" y="498" fill="#9fb3d1" font-size="9" text-anchor="middle">-0.07</text><rect x="472" y="472" width="45" height="45" fill="rgb(34,211,238)"/><text x="495" y="498" fill="#0b1220" font-size="9" text-anchor="middle">1.00</text><rect x="518" y="472" width="45" height="45" fill="rgb(86,116,147)"/><text x="541" y="498" fill="#9fb3d1" font-size="9" text-anchor="middle">-0.16</text><rect x="150" y="518" width="45" height="45" fill="rgb(72,116,150)"/><text x="173" y="544" fill="#9fb3d1" font-size="9" text-anchor="middle">-0.09</text><rect x="196" y="518" width="45" height="45" fill="rgb(60,116,152)"/><text x="219" y="544" fill="#9fb3d1" font-size="9" text-anchor="middle">-0.02</text><rect x="242" y="518" width="45" height="45" fill="rgb(53,129,164)"/><text x="265" y="544" fill="#9fb3d1" font-size="9" text-anchor="middle">0.13</text><rect x="288" y="518" width="45" height="45" fill="rgb(43,174,205)"/><text x="311" y="544" fill="#0b1220" font-size="9" text-anchor="middle">0.61</text><rect x="334" y="518" width="45" height="45" fill="rgb(90,115,146)"/><text x="357" y="544" fill="#9fb3d1" font-size="9" text-anchor="middle">-0.17</text><rect x="380" y="518" width="45" height="45" fill="rgb(52,135,170)"/><text x="403" y="544" fill="#9fb3d1" font-size="9" text-anchor="middle">0.20</text><rect x="426" y="518" width="45" height="45" fill="rgb(95,115,145)"/><text x="449" y="544" fill="#9fb3d1" font-size="9" text-anchor="middle">-0.20</text><rect x="472" y="518" width="45" height="45" fill="rgb(86,116,147)"/><text x="495" y="544" fill="#9fb3d1" font-size="9" text-anchor="middle">-0.16</text><rect x="518" y="518" width="45" height="45" fill="rgb(34,211,238)"/><text x="541" y="544" fill="#0b1220" font-size="9" text-anchor="middle">1.00</text>
</svg>