<svg xmlns="http://www.w3.org/2000/svg" viewBox="0 0 900 806" font-family="ui-sans-serif,system-ui,-apple-system,Segoe UI,Roboto,sans-serif">
<rect width="900" height="806" fill="#0b0f17"/>
<text x="24" y="34" fill="#e5e7eb" font-size="20" font-weight="700">25-Point Critical Scrutiny — Cosmogonic Quantum Mechalogodrom</text>
<text x="24" y="56" fill="#9ca3af" font-size="12.5">Mega-audit 2026-07-01 · code-grounded · 0–10, higher = more defensible · overall mean 8.2/10</text>
<text x="24" y="76" fill="#6b7280" font-size="11.5">green ≥ 8 (strong) · amber 6–8 (adequate/gap) · red &lt; 6 (weak spot)</text>
<line x1="430" y1="88" x2="430" y2="746" stroke="#1f2937" stroke-width="1"/>
<text x="430" y="84" fill="#6b7280" font-size="10" text-anchor="middle">0</text>
<line x1="510" y1="88" x2="510" y2="746" stroke="#1f2937" stroke-width="1"/>
<text x="510" y="84" fill="#6b7280" font-size="10" text-anchor="middle">2</text>
<line x1="590" y1="88" x2="590" y2="746" stroke="#1f2937" stroke-width="1"/>
<text x="590" y="84" fill="#6b7280" font-size="10" text-anchor="middle">4</text>
<line x1="670" y1="88" x2="670" y2="746" stroke="#1f2937" stroke-width="1"/>
<text x="670" y="84" fill="#6b7280" font-size="10" text-anchor="middle">6</text>
<line x1="750" y1="88" x2="750" y2="746" stroke="#1f2937" stroke-width="1"/>
<text x="750" y="84" fill="#6b7280" font-size="10" text-anchor="middle">8</text>
<line x1="830" y1="88" x2="830" y2="746" stroke="#1f2937" stroke-width="1"/>
<text x="830" y="84" fill="#6b7280" font-size="10" text-anchor="middle">10</text>
<circle cx="18" cy="105" r="4" fill="#38bdf8"/>
<text x="30" y="109" fill="#cbd5e1" font-size="11.5">1. Determinism integrity (seeded Rng, no wall-clock)</text>
<rect x="430" y="99" width="380" height="16" rx="3" fill="#22c55e" opacity="0.92"/>
<text x="816" y="109" fill="#e5e7eb" font-size="11" font-weight="600">9.5</text>
<circle cx="18" cy="131" r="4" fill="#38bdf8"/>
<text x="30" y="135" fill="#cbd5e1" font-size="11.5">2. Type safety & lint (tsc strict · oxlint · 0 suppress)</text>
<rect x="430" y="125" width="380" height="16" rx="3" fill="#22c55e" opacity="0.92"/>
<text x="816" y="135" fill="#e5e7eb" font-size="11" font-weight="600">9.5</text>
<circle cx="18" cy="157" r="4" fill="#38bdf8"/>
<text x="30" y="161" fill="#cbd5e1" font-size="11.5">3. Test rigor & coverage (1,984 floor · 92.13% line)</text>
<rect x="430" y="151" width="360" height="16" rx="3" fill="#22c55e" opacity="0.92"/>
<text x="796" y="161" fill="#e5e7eb" font-size="11" font-weight="600">9.0</text>
<circle cx="18" cy="183" r="4" fill="#38bdf8"/>
<text x="30" y="187" fill="#cbd5e1" font-size="11.5">4. Time complexity / scaling (O(n·k) grid · 50k ceil)</text>
<rect x="430" y="177" width="340" height="16" rx="3" fill="#22c55e" opacity="0.92"/>
<text x="776" y="187" fill="#e5e7eb" font-size="11" font-weight="600">8.5</text>
<circle cx="18" cy="209" r="4" fill="#38bdf8"/>
<text x="30" y="213" fill="#cbd5e1" font-size="11.5">5. GPU resource discipline (dispose() sweep)</text>
<rect x="430" y="203" width="320" height="16" rx="3" fill="#22c55e" opacity="0.92"/>
<text x="756" y="213" fill="#e5e7eb" font-size="11" font-weight="600">8.0</text>
<circle cx="18" cy="235" r="4" fill="#a78bfa"/>
<text x="30" y="239" fill="#cbd5e1" font-size="11.5">6. Living-docs SSOT (blind spot fixed this audit)</text>
<rect x="430" y="229" width="340" height="16" rx="3" fill="#22c55e" opacity="0.92"/>
<text x="776" y="239" fill="#e5e7eb" font-size="11" font-weight="600">8.5</text>
<circle cx="18" cy="261" r="4" fill="#a78bfa"/>
<text x="30" y="265" fill="#cbd5e1" font-size="11.5">7. Module contracts & boundaries (ADRs · facades)</text>
<rect x="430" y="255" width="340" height="16" rx="3" fill="#22c55e" opacity="0.92"/>
<text x="776" y="265" fill="#e5e7eb" font-size="11" font-weight="600">8.5</text>
<circle cx="18" cy="287" r="4" fill="#a78bfa"/>
<text x="30" y="291" fill="#cbd5e1" font-size="11.5">8. PM surface coverage (PRD/Risk/Perf docs MISSING)</text>
<rect x="430" y="281" width="260" height="16" rx="3" fill="#f59e0b" opacity="0.92"/>
<text x="696" y="291" fill="#e5e7eb" font-size="11" font-weight="600">6.5</text>
<circle cx="18" cy="313" r="4" fill="#a78bfa"/>
<text x="30" y="317" fill="#cbd5e1" font-size="11.5">9. CI/CD & QA (gate mirrored; no e2e/perf-regress)</text>
<rect x="430" y="307" width="300" height="16" rx="3" fill="#f59e0b" opacity="0.92"/>
<text x="736" y="317" fill="#e5e7eb" font-size="11" font-weight="600">7.5</text>
<circle cx="18" cy="339" r="4" fill="#34d399"/>
<text x="30" y="343" fill="#cbd5e1" font-size="11.5">10. Corpus breadth (20 projects · 15 deep-wired)</text>
<rect x="430" y="333" width="340" height="16" rx="3" fill="#22c55e" opacity="0.92"/>
<text x="776" y="343" fill="#e5e7eb" font-size="11" font-weight="600">8.5</text>
<circle cx="18" cy="365" r="4" fill="#34d399"/>
<text x="30" y="369" fill="#cbd5e1" font-size="11.5">11. Causal depth (outputs read in hot paths)</text>
<rect x="430" y="359" width="340" height="16" rx="3" fill="#22c55e" opacity="0.92"/>
<text x="776" y="369" fill="#e5e7eb" font-size="11" font-weight="600">8.5</text>
<circle cx="18" cy="391" r="4" fill="#34d399"/>
<text x="30" y="395" fill="#cbd5e1" font-size="11.5">12. Quantum-substrate honesty (exact sim · no QPU claim)</text>
<rect x="430" y="385" width="360" height="16" rx="3" fill="#22c55e" opacity="0.92"/>
<text x="796" y="395" fill="#e5e7eb" font-size="11" font-weight="600">9.0</text>
<circle cx="18" cy="417" r="4" fill="#f472b6"/>
<text x="30" y="421" fill="#cbd5e1" font-size="11.5">13. Butlin scorecard (8/14 met + 6/14 partial)</text>
<rect x="430" y="411" width="320" height="16" rx="3" fill="#22c55e" opacity="0.92"/>
<text x="756" y="421" fill="#e5e7eb" font-size="11" font-weight="600">8.0</text>
<circle cx="18" cy="443" r="4" fill="#f472b6"/>
<text x="30" y="447" fill="#cbd5e1" font-size="11.5">14. Faculty wiring honesty (~30/100 deep-wired)</text>
<rect x="430" y="437" width="300" height="16" rx="3" fill="#f59e0b" opacity="0.92"/>
<text x="736" y="447" fill="#e5e7eb" font-size="11" font-weight="600">7.5</text>
<circle cx="18" cy="469" r="4" fill="#f472b6"/>
<text x="30" y="473" fill="#cbd5e1" font-size="11.5">15. Theories as mechanisms (GWT/IIT/FEP/HOT/AST)</text>
<rect x="430" y="463" width="340" height="16" rx="3" fill="#22c55e" opacity="0.92"/>
<text x="776" y="473" fill="#e5e7eb" font-size="11" font-weight="600">8.5</text>
<circle cx="18" cy="495" r="4" fill="#f472b6"/>
<text x="30" y="499" fill="#cbd5e1" font-size="11.5">16. Coupling / binding (meanAbs ~0.18 — WEAK)</text>
<rect x="430" y="489" width="220.00000000000003" height="16" rx="3" fill="#ef4444" opacity="0.92"/>
<text x="656" y="499" fill="#e5e7eb" font-size="11" font-weight="600">5.5</text>
<circle cx="18" cy="521" r="4" fill="#f472b6"/>
<text x="30" y="525" fill="#cbd5e1" font-size="11.5">17. Multi-substrate breadth (6q+16q+STDP+reservoir)</text>
<rect x="430" y="515" width="340" height="16" rx="3" fill="#22c55e" opacity="0.92"/>
<text x="776" y="525" fill="#e5e7eb" font-size="11" font-weight="600">8.5</text>
<circle cx="18" cy="547" r="4" fill="#f472b6"/>
<text x="30" y="551" fill="#cbd5e1" font-size="11.5">18. Scale/size framing (1B = addressable, not stored)</text>
<rect x="430" y="541" width="300" height="16" rx="3" fill="#f59e0b" opacity="0.92"/>
<text x="736" y="551" fill="#e5e7eb" font-size="11" font-weight="600">7.5</text>
<circle cx="18" cy="573" r="4" fill="#f472b6"/>
<text x="30" y="577" fill="#cbd5e1" font-size="11.5">19. Sentience discipline (explicitly NOT sentient)</text>
<rect x="430" y="567" width="380" height="16" rx="3" fill="#22c55e" opacity="0.92"/>
<text x="816" y="577" fill="#e5e7eb" font-size="11" font-weight="600">9.5</text>
<circle cx="18" cy="599" r="4" fill="#fbbf24"/>
<text x="30" y="603" fill="#cbd5e1" font-size="11.5">20. Comparative breadth (z=+4.0σ vs 113-system survey)</text>
<rect x="430" y="593" width="340" height="16" rx="3" fill="#22c55e" opacity="0.92"/>
<text x="776" y="603" fill="#e5e7eb" font-size="11" font-weight="600">8.5</text>
<circle cx="18" cy="625" r="4" fill="#fbbf24"/>
<text x="30" y="629" fill="#cbd5e1" font-size="11.5">21. Novelty discipline (novel-by-integration, not 1st)</text>
<rect x="430" y="619" width="340" height="16" rx="3" fill="#22c55e" opacity="0.92"/>
<text x="776" y="629" fill="#e5e7eb" font-size="11" font-weight="600">8.5</text>
<circle cx="18" cy="651" r="4" fill="#fbbf24"/>
<text x="30" y="655" fill="#cbd5e1" font-size="11.5">22. Peer maturity / external validation (none yet)</text>
<rect x="430" y="645" width="160" height="16" rx="3" fill="#ef4444" opacity="0.92"/>
<text x="596" y="655" fill="#e5e7eb" font-size="11" font-weight="600">4.0</text>
<circle cx="18" cy="677" r="4" fill="#fbbf24"/>
<text x="30" y="681" fill="#cbd5e1" font-size="11.5">23. Reproducibility (single-seed bit-identical)</text>
<rect x="430" y="671" width="380" height="16" rx="3" fill="#22c55e" opacity="0.92"/>
<text x="816" y="681" fill="#e5e7eb" font-size="11" font-weight="600">9.5</text>
<circle cx="18" cy="703" r="4" fill="#fbbf24"/>
<text x="30" y="707" fill="#cbd5e1" font-size="11.5">24. Comparative rigor vs "100 codebases" (113 sourced — met)</text>
<rect x="430" y="697" width="340" height="16" rx="3" fill="#22c55e" opacity="0.92"/>
<text x="776" y="707" fill="#e5e7eb" font-size="11" font-weight="600">8.5</text>
<circle cx="18" cy="729" r="4" fill="#fbbf24"/>
<text x="30" y="733" fill="#cbd5e1" font-size="11.5">25. Benchmark honesty (ms-scale; sub-ms retired)</text>
<rect x="430" y="723" width="340" height="16" rx="3" fill="#22c55e" opacity="0.92"/>
<text x="776" y="733" fill="#e5e7eb" font-size="11" font-weight="600">8.5</text>
<line x1="756.4000000000001" y1="88" x2="756.4000000000001" y2="746" stroke="#e5e7eb" stroke-width="1.5" stroke-dasharray="4 3"/>
<circle cx="30" cy="770" r="4" fill="#38bdf8"/>
<text x="40" y="774" fill="#9ca3af" font-size="11">Engineering</text>
<circle cx="135.2" cy="770" r="4" fill="#a78bfa"/>
<text x="145.2" y="774" fill="#9ca3af" font-size="11">Architecture</text>
<circle cx="247.6" cy="770" r="4" fill="#34d399"/>
<text x="257.6" y="774" fill="#9ca3af" font-size="11">Tsotchke</text>
<circle cx="331.2" cy="770" r="4" fill="#f472b6"/>
<text x="341.2" y="774" fill="#9ca3af" font-size="11">Consciousness</text>
<circle cx="450.8" cy="770" r="4" fill="#fbbf24"/>
<text x="460.8" y="774" fill="#9ca3af" font-size="11">A-Life</text>
</svg>
